<svg xmlns="http://www.w3.org/2000/svg" xmlns:xlink="http://www.w3.org/1999/xlink" xmlns:lucid="lucid" width="860" height="260"><g transform="translate(-140 -40)" lucid:page-tab-id="0_0"><path d="M0 0h1870.4v1323.2H0z" fill="#fff"/><path d="M160 200h140v80H160z" stroke="#000" stroke-width="2" fill="#fff"/><path d="M160 237.6h140" stroke="#000" stroke-width="2" fill="none"/><use xlink:href="#a" transform="matrix(1,0,0,1,168,208) translate(50.525 14.6)"/><path d="M360 200h140v80H360z" stroke="#000" stroke-width="2" fill="#fff"/><path d="M360 237.6h140" stroke="#000" stroke-width="2" fill="none"/><use xlink:href="#b" transform="matrix(1,0,0,1,368,208) translate(50.525 14.6)"/><path d="M260 60h140v80H260z" stroke="#000" stroke-width="2" fill="#fff"/><path d="M260 97.6h140" stroke="#000" stroke-width="2" fill="none"/><use xlink:href="#c" transform="matrix(1,0,0,1,268,68) translate(55.525 14.6)"/><use xlink:href="#d" transform="matrix(1,0,0,1,272,105.6) translate(0 17.1)"/><use xlink:href="#e" transform="matrix(1,0,0,1,272,105.6) translate(37.95 17.1)"/><use xlink:href="#f" transform="matrix(1,0,0,1,272,105.6) translate(47.95 17.1)"/><path d="M540 130h42v-10l18 20-18 20v-10h-42z" stroke="#000" stroke-width="2" fill="#fff"/><path d="M230 198v-28h100v-10.5" stroke="#000" stroke-width="2" fill="none"/><path d="M231 199h-2v-1.03h2z"/><path d="M330 144.24l4.64 14.26h-9.28z" stroke="#000" stroke-width="2"/><path d="M430 198v-28.67h-99" stroke="#000" stroke-width="2" fill="none"/><path d="M431 199h-2v-1.03h2z"/><path d="M331.03 169.33H330" stroke="#000" stroke-width="2" fill="none"/><path d="M640 200h140v80H640z" stroke="#000" stroke-width="2" fill="#fff"/><path d="M640 237.6h140" stroke="#000" stroke-width="2" fill="none"/><use xlink:href="#a" transform="matrix(1,0,0,1,648,208) translate(50.525 14.6)"/><use xlink:href="#d" transform="matrix(1,0,0,1,652,245.6) translate(0 17.1)"/><use xlink:href="#e" transform="matrix(1,0,0,1,652,245.6) translate(37.95 17.1)"/><use xlink:href="#g" transform="matrix(1,0,0,1,652,245.6) translate(47.95 17.1)"/><path d="M840 200h140v80H840z" stroke="#000" stroke-width="2" fill="#fff"/><path d="M840 237.6h140" stroke="#000" stroke-width="2" fill="none"/><use xlink:href="#b" transform="matrix(1,0,0,1,848,208) translate(50.525 14.6)"/><path d="M740 60h140v80H740z" stroke="#000" stroke-width="2" fill="#fff"/><path d="M740 97.6h140" stroke="#000" stroke-width="2" fill="none"/><use xlink:href="#c" transform="matrix(1,0,0,1,748,68) translate(55.525 14.6)"/><path d="M710 198v-28h100v-10.5" stroke="#000" stroke-width="2" fill="none"/><path d="M711 199h-2v-1.03h2z"/><path d="M810 144.24l4.64 14.26h-9.28z" stroke="#000" stroke-width="2"/><path d="M910 198v-28.67h-99" stroke="#000" stroke-width="2" fill="none"/><path d="M911 199h-2v-1.03h2z"/><path d="M811.03 169.33H810" stroke="#000" stroke-width="2" fill="none"/><defs><path d="M182-130c37 4 62 22 62 59C244 23 116-4 24 0v-248c84 5 203-23 205 63 0 31-19 50-47 55zM76-148c40-3 101 13 101-30 0-44-60-28-101-31v61zm0 110c48-3 116 14 116-37 0-48-69-32-116-35v72" id="h"/><path d="M23 0v-37h61v-169l-59 37v-38l62-41h46v211h57V0H23" id="i"/><g id="a"><use transform="matrix(0.05,0,0,0.05,0,0)" xlink:href="#h"/><use transform="matrix(0.05,0,0,0.05,12.950000000000001,0)" xlink:href="#i"/></g><path d="M182-182c0 78-84 86-111 141h115V0H12c-6-101 99-100 120-180 1-22-12-31-33-32-23 0-32 14-35 34l-49-3c5-45 32-70 84-70 51 0 83 22 83 69" id="j"/><g id="b"><use transform="matrix(0.05,0,0,0.05,0,0)" xlink:href="#h"/><use transform="matrix(0.05,0,0,0.05,12.950000000000001,0)" xlink:href="#j"/></g><path d="M199 0l-22-63H83L61 0H9l90-248h61L250 0h-51zm-33-102l-36-108c-10 38-24 72-36 108h72" id="k"/><use transform="matrix(0.05,0,0,0.05,0,0)" xlink:href="#k" id="c"/><path d="M108 0H70L1-190h34L89-25l56-165h34" id="l"/><path d="M100-194c62-1 85 37 85 99 1 63-27 99-86 99S16-35 15-95c0-66 28-99 85-99zM99-20c44 1 53-31 53-75 0-43-8-75-51-75s-53 32-53 75 10 74 51 75" id="m"/><path d="M24-231v-30h32v30H24zM24 0v-190h32V0H24" id="n"/><path d="M85-194c31 0 48 13 60 33l-1-100h32l1 261h-30c-2-10 0-23-3-31C134-8 116 4 85 4 32 4 16-35 15-94c0-66 23-100 70-100zm9 24c-40 0-46 34-46 75 0 40 6 74 45 74 42 0 51-32 51-76 0-42-9-74-50-73" id="o"/><g id="d"><use transform="matrix(0.05,0,0,0.05,0,0)" xlink:href="#l"/><use transform="matrix(0.05,0,0,0.05,9,0)" xlink:href="#m"/><use transform="matrix(0.05,0,0,0.05,19,0)" xlink:href="#n"/><use transform="matrix(0.05,0,0,0.05,22.95,0)" xlink:href="#o"/></g><path d="M101-234c-31-9-42 10-38 44h38v23H63V0H32v-167H5v-23h27c-7-52 17-82 69-68v24" id="p"/><use transform="matrix(0.05,0,0,0.05,0,0)" xlink:href="#p" id="e"/><path d="M87 75C49 33 22-17 22-94c0-76 28-126 65-167h31c-38 41-64 92-64 168S80 34 118 75H87" id="q"/><path d="M33-261c38 41 65 92 65 168S71 34 33 75H2C39 34 66-17 66-93S39-220 2-261h31" id="r"/><g id="f"><use transform="matrix(0.05,0,0,0.05,0,0)" xlink:href="#q"/><use transform="matrix(0.05,0,0,0.05,5.95,0)" xlink:href="#r"/></g><g id="g"><use transform="matrix(0.05,0,0,0.05,0,0)" xlink:href="#q"/><use transform="matrix(0.05,0,0,0.05,5.95,0)" xlink:href="#r"/></g></defs></g></svg>