<svg xmlns="http://www.w3.org/2000/svg" xmlns:lucid="lucid" width="947.82" height="732.09"><g lucid:page-tab-id="0_0"><path d="M-107.5-25.67h1870.4v1323.2H-107.5z" fill="#fff"/><path d="M72.5 34.33h160v60h-160zM292.5 34.33h160v60h-160zM552.5 34.33h160v60h-160zM672.5 234.33h160v60h-160zM352.5 314.33h160v60h-160zM112.5 174.33h160v60h-160zM372.5 174.33h160v60h-160zM112.5 334.33h160v60h-160zM672.5 434.33h160v60h-160zM452.5 434.33h160v60h-160zM212.5 434.33h160v60h-160z" stroke="#000" stroke-width="2" fill="#fff"/><path d="M152.95 96.22l31.1 60.65" stroke="#000" stroke-width="2" fill="none"/><path d="M153.85 95.8l-1.78.9-.7-1.37h2.25z"/><path d="M191.02 170.45l-10.64-10.58 8.25-4.23z" stroke="#000" stroke-width="2"/><path d="M153.46 95.58l281.13 73.1" stroke="#000" stroke-width="2" fill="none"/><path d="M153.23 96.56l-3.9-1 .06-.23h4.15z"/><path d="M449.36 172.52l-14.97.9 2.32-8.98z" stroke="#000" stroke-width="2"/><path d="M152.47 96.33l-.02 1.17-.14 2.18-.22 2.2-.33 2.2-.43 2.26-.54 2.3-.66 2.36-.8 2.43-.92 2.52-1.1 2.62-1.3 2.74-1.5 2.9-1.8 3.08-2.08 3.3-2.48 3.56-2.98 3.92-3.63 4.38-4.52 5.02-5.9 6-8.5 7.97-39.24 34.1-3.42 3.5-2.38 2.63-1.76 2.13-1.35 1.77-1.07 1.53-.86 1.35-.7 1.2-.55 1.07-.47 1-.38.9-.3.84-.27.8-.2.73-.17.7-.13.66-.1.64-.06.62-.05.6V219.36l.04.56.04.54.08.54.1.54.13.53.15.53.13.4.2.55.22.56.27.6.3.6.38.66.42.68.5.73.58.78.68.85.82.92.97 1.02 1.2 1.13 1.44 1.3 1.85 1.47L72 236.6l3.17 2.13 4.5 2.78 7.2 4.06 60.5 31.03 7.7 4.76 5.92 4 4.72 3.52 3.9 3.16 3.27 2.88 2.77 2.66 2.38 2.5 2.07 2.33 1.8 2.23 1.57 2.1 1.37 2.05 1.2 1.95 1.08 1.9.94 1.85.42.93" stroke="#000" stroke-width="2" fill="none"/><path d="M153.47 96.38l-2-.04.02-1h2z"/><path d="M191.8 330.17l-7.62-12.92 9.05-2z" stroke="#000" stroke-width="2"/><path d="M152.5 96.34l.04 1.4.14 2.26.22 2.1.3 2 .36 1.88.42 1.8.47 1.7.54 1.64.57 1.57.64 1.52.7 1.48.77 1.45.8 1.4.9 1.4.95 1.37 1.02 1.35 1.1 1.34 1.22 1.35 1.3 1.33 1.43 1.34 1.55 1.35 1.72 1.36 1.9 1.4 2.13 1.4 2.38 1.44 2.7 1.48 3.1 1.54 3.63 1.6 4.3 1.7 5.25 1.82 6.7 2.02 9.33 2.38 17.48 3.65 40.13 7.85 9.04 2.3 6.47 1.96 5.04 1.75 4.1 1.62 3.44 1.53 2.94 1.45 2.56 1.4 2.24 1.36 2 1.32 1.78 1.3 1.6 1.26 1.46 1.26 1.33 1.25 1.2 1.23 1.12 1.23 1.02 1.24.95 1.25.87 1.26.8 1.3.76 1.3.4.73.73 1.5.7 1.58.67 1.7.62 1.8.58 1.96.54 2.1.48 2.3.42 2.54.34 2.8.26 3.13.14 3.55v4.06l-.23 4.75-.5 5.65-.9 6.97-1.55 8.98-2.75 12.66-6.26 23.78-18.46 66.32-3.32 15.34-1.98 11.4-1.18 9.15-.68 7.67-.3 6.6v5.78l.2 5.15.36 4.63.4 3.2" stroke="#000" stroke-width="2" fill="none"/><path d="M153.5 96.34l-2 .04v-1.05h2z"/><path d="M291.73 430.2l-7.87-12.78 9-2.2z" stroke="#000" stroke-width="2"/><path d="M452.24 236.3l-15.15 59.1" stroke="#000" stroke-width="2" fill="none"/><path d="M453.2 236.58l-1.93-.5.2-.75h2.05z"/><path d="M433.3 310.2l-.95-14.97 8.98 2.3z" stroke="#000" stroke-width="2"/><path d="M452.5 236.33l.02.44.1 1.35.12 1.26.17 1.2.23 1.1.25 1.08.28 1.02.32.97.34.93.38.9.4.86.44.83.47.8.5.8.54.77.57.75.62.72.65.72.7.7.73.7.8.68.84.67.9.65 1 .66 1.05.65 1.14.63 1.25.62 1.36.6 1.5.6 1.63.57 1.8.54 2 .52 2.2.47 2.46.4 2.75.35 3.1.26 3.44.16h3.87l4.36-.2 4.86-.4 5.4-.7 5.97-1 6.47-1.38 6.93-1.78 7.24-2.2 7.4-2.56 7.3-2.9 7.08-3.15 6.66-3.3 6.12-3.37 5.54-3.36 4.94-3.27 4.36-3.17 1.12-.86 3.8-3.1 3.57-3.15 3.36-3.22 3.15-3.3 3-3.4 2.82-3.5 2.7-3.64 2.54-3.77 2.44-3.94 2.3-4.12 2.2-4.33 2.1-4.58 2-4.88 1.87-5.24 1.77-5.66 1.65-6.2 1.52-6.85 1.38-7.73 1.2-8.95 1-10.83.73-14.58v-.9" stroke="#000" stroke-width="2" fill="none"/><path d="M453.5 236.34l-2 .04v-1.05h2z"/><path d="M632.45 98.57l4.46 14.32-9.26-.12z" stroke="#000" stroke-width="2"/><path d="M635.14 96.1l105.33 123.17" stroke="#000" stroke-width="2" fill="none"/><path d="M635.92 95.46l-1.52 1.3-1.22-1.43h2.63z"/><path d="M750.4 230.87l-12.8-7.83 7.04-6.02z" stroke="#000" stroke-width="2"/><path d="M433.36 375.84l83.13 48.2" stroke="#000" stroke-width="2" fill="none"/><path d="M432.88 376.7l-2.38-1.37h3.18z"/><path d="M529.7 431.7l-14.67-3.14 4.65-8.02z" stroke="#000" stroke-width="2"/><path d="M751.65 295.86L548.17 423.5" stroke="#000" stroke-width="2" fill="none"/><path d="M752.15 296.73l-.87-1.4h3.1z"/><path d="M535.23 431.6l9.63-11.5 4.92 7.86z" stroke="#000" stroke-width="2"/><path d="M752.5 296.33v118.5M752.5 296.36v-1.03" stroke="#000" stroke-width="2" fill="none"/><path d="M752.5 430.1l-4.64-14.27h9.27z" stroke="#000" stroke-width="2"/><path d="M193.44 235.64L414.9 307.6" stroke="#000" stroke-width="2" fill="none"/><path d="M193.16 236.6l-3.83-1.24v-.03h4.24z"/><path d="M429.4 312.33h-15l2.88-8.8z" stroke="#000" stroke-width="2"/><path d="M373.2 96.03l66.04 64.4" stroke="#000" stroke-width="2" fill="none"/><path d="M372.53 96.77l-1.47-1.44h2.86z"/><path d="M450.18 171.07l-13.45-6.64 6.47-6.63z" stroke="#000" stroke-width="2"/><path d="M454.5 64.33H533" stroke="#000" stroke-width="2" fill="none"/><path d="M454.52 65.33h-1.03v-2h1.02z"/><path d="M548.26 64.33L534 68.97V59.7z" stroke="#000" stroke-width="2"/><path d="M234.5 64.28l5.46-.27 4.6-.73 3.47-.96 2.78-1.1 2.33-1.2 2-1.36 1.82-1.53 1.68-1.75 1.63-2.14 1.7-2.8 2.15-4.67 5.7-14.14 1.62-2.68 1.53-2 1.56-1.64 1.67-1.4 1.82-1.23 1.83-.98 1.16-.52 1.48-.6 1.97-.68 2.68-.8 3.75-.95 5.48-1.12 8.47-1.36 13.96-1.62 24.7-1.77 42.74-1.22 8.25-.03 6.96.24 9.4.95 11.47 1.9L434.7 17l11.86 3.62 10.48 3.95 8.8 4L470.5 31l16.86 8.74 8.2 3.57 6.95 2.52 6.78 1.98 7.23 1.64 8.3 1.35 8.2.8" stroke="#000" stroke-width="2" fill="none"/><path d="M234.57 65.28l-1.08.05v-2l.97-.05z"/><path d="M548.26 52.2l-14.44 4.07.37-9.26z" stroke="#000" stroke-width="2"/><path d="M193.44 395.65l79.84 26.73" stroke="#000" stroke-width="2" fill="none"/><path d="M193.15 396.6l-3.8-1.27h4.22z"/><path d="M287.76 427.22l-15-.13 2.94-8.8z" stroke="#000" stroke-width="2"/><path d="M514.38 343.88l140.6-71.2" stroke="#000" stroke-width="2" fill="none"/><path d="M514.86 344.76l-1.37.7v-2.25l.46-.22z"/><path d="M668.6 265.8l-10.63 10.57-4.2-8.27z" stroke="#000" stroke-width="2"/><path d="M352.5 646.33c0 4.42-26.87 8-60 8-33.14 0-60-3.58-60-8v-64c0-4.4 26.86-8 60-8 33.13 0 60 3.6 60 8z" stroke="#000" stroke-width="2" fill="#fff"/><path d="M352.5 582.33c0 4.42-26.87 8-60 8-33.14 0-60-3.58-60-8" stroke="#000" stroke-width="2" fill="none"/><path d="M572.5 646.33c0 4.42-26.87 8-60 8-33.14 0-60-3.58-60-8v-64c0-4.4 26.86-8 60-8 33.13 0 60 3.6 60 8z" stroke="#000" stroke-width="2" fill="#fff"/><path d="M572.5 582.33c0 4.42-26.87 8-60 8-33.14 0-60-3.58-60-8" stroke="#000" stroke-width="2" fill="none"/><path d="M772.5 646.33c0 4.42-26.87 8-60 8-33.14 0-60-3.58-60-8v-64c0-4.4 26.86-8 60-8 33.13 0 60 3.6 60 8z" stroke="#000" stroke-width="2" fill="#fff"/><path d="M772.5 582.33c0 4.42-26.87 8-60 8-33.14 0-60-3.58-60-8M292.5 496.33v58.5" stroke="#000" stroke-width="2" fill="none"/><path d="M293.5 496.36h-2v-1.03h2z"/><path d="M292.5 570.1l-4.64-14.27h9.27z" stroke="#000" stroke-width="2"/><path d="M293.43 495.67l201.62 71.48" stroke="#000" stroke-width="2" fill="none"/><path d="M293.12 496.62l-3.62-1.3h4.08z"/><path d="M509.44 572.25l-15-.4 3.1-8.73z" stroke="#000" stroke-width="2"/><path d="M533.4 495.73l162.12 70.25" stroke="#000" stroke-width="2" fill="none"/><path d="M533.04 496.66l-3.06-1.33h3.63z"/><path d="M709.52 572.05l-14.93-1.42 3.68-8.5z" stroke="#000" stroke-width="2"/><path d="M752.04 496.22l-31.1 60.65" stroke="#000" stroke-width="2" fill="none"/><path d="M752.9 496.7l-1.77-.9.24-.47h2.25z"/><path d="M713.97 570.45l2.38-14.8 8.25 4.22z" stroke="#000" stroke-width="2"/><path d="M752.52 296.33l.02.9.15 1.9.24 1.9.36 1.93.47 1.97.6 2.02.74 2.1.92 2.2 1.12 2.34 1.36 2.5 1.67 2.73 2.1 3.05 2.66 3.48 3.54 4.14 5 5.28 8.36 7.9 43.73 38.77 7.2 7.6 1.73 1.95 5.23 6.3 5.23 6.96 5.16 7.58 5 8.14 4.7 8.57 4.3 8.77 3.76 8.68 3.12 8.26 2.44 7.54 1.8 6.62 1.25 5.62.8 4.67.48 3.83.24 3.1.07 2.53-.05 2.06-.1 1.7-.17 1.4-.2 1.18-.2 1-.22.83-.2.62-.2.6-.25.6-.25.57-.3.57-.3.56-.36.57-.4.57-.42.57-.46.58-.52.58-.56.6-.63.6-.7.62-.77.64-.88.65-1 .68-1.15.7-1.33.77-1.56.8-1.84.85-2.25.92-2.8 1.02-3.64 1.13-5.06 1.37-8.18 1.83-46.96 9.07-7.2 1.94-5.54 1.75-4.5 1.62-3.8 1.56-3.23 1.5-2.83 1.43-2.48 1.4-2.2 1.4-2 1.34-1.78 1.33-1.62 1.32-1.47 1.3-1.36 1.3-1.24 1.3-1.15 1.3-1.06 1.33-.98 1.33-.92 1.35-.84 1.38-.78 1.4-.73 1.42-.65 1.43" stroke="#000" stroke-width="2" fill="none"/><path d="M753.52 296.33l-2 .06-.03-1.07h2z"/><path d="M742.97 571.3l-1.86-14.9 9.1 1.76z" stroke="#000" stroke-width="2"/><path d="M151.64 95.88l-11.23 7.2-11.3 7.9-10.6 8.13-9.96 8.3-9.34 8.5-8.78 8.66-8.25 8.85-7.75 9.06-7.27 9.25-6.8 9.46-6.37 9.66-5.94 9.9-5.5 10.1-5.08 10.34-4.67 10.6-4.24 10.82-3.8 11.1-3.4 11.32-2.9 11.6-2.48 11.84-2 12.08-1.5 12.32-1 12.53-.48 12.7.05 12.9.6 13 1.15 13.08 1.7 13.12 2.28 13.1 2.82 13 3.36 12.86 3.88 12.65 4.36 12.38 4.83 12.05 5.24 11.66 5.63 11.22 5.96 10.74 6.25 10.23 6.5 9.7 6.7 9.16 6.9 8.6 7 8.06 7.1 7.5 7.18 6.98 7.23 6.46 7.27 5.96 7.28 5.5 7.3 5 7.3 4.6 7.27 4.17 7.28 3.77 7.27 3.38 7.27 3.02 7.27 2.67 7.28 2.33 7.28 2 7.3 1.7 7.34 1.36 7.37 1.05 3.26.34" stroke="#000" stroke-width="2" fill="none"/><path d="M152.16 96.73l-.9-1.4h3.1z"/><path d="M228.26 614.16l-14.5 3.87.5-9.26z" stroke="#000" stroke-width="2"/><path d="M192.47 396.34l-.27 12.27-1.36 20.84-5.12 60.16-.24 10.98.16 8.2.4 6.64.6 5.6.7 4.84.83 4.28.9 3.84.97 3.48 1.04 3.2 1.1 2.96 1.15 2.75 1.22 2.6 1.27 2.42 1.34 2.3 1.4 2.2 1.46 2.12 1.54 2.03 1.62 1.95 1.7 1.9 1.8 1.84 1.92 1.8 2.03 1.75 2.17 1.7 2.32 1.7.23.14" stroke="#000" stroke-width="2" fill="none"/><path d="M193.47 396.38l-2-.04.02-1h2z"/><path d="M228.82 579.94l-14.78-2.55 4.32-8.2z" stroke="#000" stroke-width="2"/><path d="M714.5 64.35l2.34.05 3.44.22 3.55.37 3.68.54 3.83.73 3.98.93 4.17 1.16 4.35 1.42 4.58 1.7 4.82 2.03 5.1 2.4 5.4 2.84 5.72 3.3 6.1 3.87 6.48 4.53 6.92 5.25 7.38 6.1 7.86 7.1 8.35 8.18 8.84 9.42 9.3 10.78 9.7 12.25 10 13.8 10.18 15.3 10.16 16.8 9.95 18.1 9.52 19.18 8.88 19.94L907.1 273l7.14 20.46 6.1 20.24 5.1 19.76 4.05 19.08 3.08 18.28 2.2 17.4 1.4 16.47.64 15.55v14.66l-.57 13.8-1.1 13-1.54 12.24-1.94 11.54-2.3 10.9-2.65 10.28-2.93 9.75-3.22 9.26-3.5 8.8-2.56 5.88-4 8.32-4.48 8.37-4.96 8.44-5.5 8.5-6.08 8.6-6.7 8.67-7.38 8.76-8.1 8.84-8.85 8.9-9.7 8.94-10.53 8.94-11.45 8.92-12.36 8.82-13.25 8.65-14.12 8.4-14.9 8.03-15.54 7.55-16 6.97-16.24 6.27-16.2 5.5-15.9 4.65-15.36 3.8-14.6 3-13.67 2.2-12.65 1.5-11.6.87-10.55.35-9.55-.08-8.6-.43-7.76-.72-6.97-.94-6.27-1.1-5.65-1.26-5.1-1.35-4.6-1.43-4.18-1.5-3.8-1.54-3.47-1.57-3.16-1.62-2.9-1.62-2.66-1.64-2.45-1.66-2.26-1.67-2.1-1.7-1.92-1.7-1.8-1.7-1.67-1.75-1.55-1.75-1.45-1.78-1.34-1.8-1.24-1.83-1.17-1.88-1.1-1.9-.98-1.95-.92-2-.85-2.05-.76-2.12-.5-1.52" stroke="#000" stroke-width="2" fill="none"/><path d="M714.54 63.36l-.04 2-1-.03v-2z"/><path d="M512.95 658.54l6.6 13.46-9.16 1.32z" stroke="#000" stroke-width="2"/></g></svg>