<svg xmlns="http://www.w3.org/2000/svg" xmlns:xlink="http://www.w3.org/1999/xlink" xmlns:lucid="lucid" width="800" height="320"><g transform="translate(-100 -80)" lucid:page-tab-id="0_0"><path d="M0 0h1870.4v1323.2H0z" fill="#fff"/><path d="M340 180h280v120H340z" stroke="#000" stroke-width="2" fill="#fff"/><use xlink:href="#a" transform="matrix(1,0,0,1,345,185) translate(94.32716049382717 29.868055555555557)"/><use xlink:href="#b" transform="matrix(1,0,0,1,345,185) translate(135 59.20138888888889)"/><use xlink:href="#c" transform="matrix(1,0,0,1,345,185) translate(37.358024691358 88.53472222222223)"/><path d="M120 200h120v80H120z" stroke="#000" stroke-width="2" fill="#fff"/><use xlink:href="#d" transform="matrix(1,0,0,1,125,205) translate(10.049999999999997 27.525)"/><use xlink:href="#e" transform="matrix(1,0,0,1,125,205) translate(79.95 27.525)"/><use xlink:href="#f" transform="matrix(1,0,0,1,125,205) translate(25 49.125)"/><path d="M760 100h120v80H760z" stroke="#000" stroke-width="2" fill="#fff"/><use xlink:href="#d" transform="matrix(1,0,0,1,765,105) translate(10.049999999999997 27.525)"/><use xlink:href="#e" transform="matrix(1,0,0,1,765,105) translate(79.95 27.525)"/><use xlink:href="#g" transform="matrix(1,0,0,1,765,105) translate(14.075000000000003 49.125)"/><path d="M760 200h120v80H760z" stroke="#000" stroke-width="2" fill="#fff"/><use xlink:href="#d" transform="matrix(1,0,0,1,765,205) translate(10.049999999999997 27.525)"/><use xlink:href="#e" transform="matrix(1,0,0,1,765,205) translate(79.95 27.525)"/><use xlink:href="#h" transform="matrix(1,0,0,1,765,205) translate(15.574999999999996 49.125)"/><path d="M760 300h120v80H760z" stroke="#000" stroke-width="2" fill="#fff"/><use xlink:href="#i" transform="matrix(1,0,0,1,765,305) translate(22.549999999999997 27.525)"/><use xlink:href="#j" transform="matrix(1,0,0,1,765,305) translate(22.074999999999996 49.125)"/><path d="M242 240h78.5" stroke="#000" stroke-width="2" fill="none"/><path d="M242.03 241H241v-2h1.03z"/><path d="M335.76 240l-14.26 4.64v-9.28z" stroke="#000" stroke-width="2"/><path d="M621.8 239.4l122.22-88.54" stroke="#000" stroke-width="2" fill="none"/><path d="M622.42 240.2l-1.42 1.03v-2.46l.24-.18z"/><path d="M756.38 141.9l-8.83 12.12-5.44-7.5z" stroke="#000" stroke-width="2"/><path d="M622 240h118.5M621 240" stroke="#000" stroke-width="2" fill="none"/><path d="M755.76 240l-14.26 4.64v-9.28z" stroke="#000" stroke-width="2"/><path d="M621.8 240.6l122.22 88.54" stroke="#000" stroke-width="2" fill="none"/><path d="M622.42 239.8l-1.18 1.6-.24-.17v-2.46z"/><path d="M756.38 338.1l-14.27-4.62 5.45-7.5z" stroke="#000" stroke-width="2"/><path d="M240 180h100v60H240z" stroke="#000" stroke-opacity="0" stroke-width="2" fill="#fff" fill-opacity="0"/><g><use xlink:href="#k" transform="matrix(1,0,0,1,245,185) translate(10.599999999999994 30.025)"/></g><path d="M640 120h100v60H640z" stroke="#000" stroke-opacity="0" stroke-width="2" fill="#fff" fill-opacity="0"/><g><use xlink:href="#l" transform="matrix(1,0,0,1,645,125) translate(17.574999999999996 30.025)"/></g><path d="M660 200h100v60H660z" stroke="#000" stroke-opacity="0" stroke-width="2" fill="#fff" fill-opacity="0"/><g><use xlink:href="#l" transform="matrix(1,0,0,1,665,205) translate(17.574999999999996 30.025)"/></g><path d="M640 300h100v60H640z" stroke="#000" stroke-opacity="0" stroke-width="2" fill="#fff" fill-opacity="0"/><g><use xlink:href="#l" transform="matrix(1,0,0,1,645,305) translate(17.574999999999996 30.025)"/></g><defs><path d="M185-189c-5-48-123-54-124 2 14 75 158 14 163 119 3 78-121 87-175 55-17-10-28-26-33-46l33-7c5 56 141 63 141-1 0-78-155-14-162-118-5-82 145-84 179-34 5 7 8 16 11 25" id="m"/><path d="M100-194c63 0 86 42 84 106H49c0 40 14 67 53 68 26 1 43-12 49-29l28 8c-11 28-37 45-77 45C44 4 14-33 15-96c1-61 26-98 85-98zm52 81c6-60-76-77-97-28-3 7-6 17-6 28h103" id="n"/><path d="M114-163C36-179 61-72 57 0H25l-1-190h30c1 12-1 29 2 39 6-27 23-49 58-41v29" id="o"/><path d="M108 0H70L1-190h34L89-25l56-165h34" id="p"/><path d="M24-231v-30h32v30H24zM24 0v-190h32V0H24" id="q"/><path d="M96-169c-40 0-48 33-48 73s9 75 48 75c24 0 41-14 43-38l32 2c-6 37-31 61-74 61-59 0-76-41-82-99-10-93 101-131 147-64 4 7 5 14 7 22l-32 3c-4-21-16-35-41-35zm3 187c19-1 33 8 33 26 0 31-30 33-64 32V58c18 2 39 4 41-13 1-15-18-13-34-13L87 0h19" id="r"/><path d="M100-194c62-1 85 37 85 99 1 63-27 99-86 99S16-35 15-95c0-66 28-99 85-99zM99-20c44 1 53-31 53-75 0-43-8-75-51-75s-53 32-53 75 10 74 51 75" id="s"/><g id="a"><use transform="matrix(0.06790123456790124,0,0,0.06790123456790124,0,0)" xlink:href="#m"/><use transform="matrix(0.06790123456790124,0,0,0.06790123456790124,16.296296296296298,0)" xlink:href="#n"/><use transform="matrix(0.06790123456790124,0,0,0.06790123456790124,29.876543209876544,0)" xlink:href="#o"/><use transform="matrix(0.06790123456790124,0,0,0.06790123456790124,37.95679012345679,0)" xlink:href="#p"/><use transform="matrix(0.06790123456790124,0,0,0.06790123456790124,50.17901234567901,0)" xlink:href="#q"/><use transform="matrix(0.06790123456790124,0,0,0.06790123456790124,55.54320987654321,0)" xlink:href="#r"/><use transform="matrix(0.06790123456790124,0,0,0.06790123456790124,67.76543209876543,0)" xlink:href="#s"/></g><path d="M30-248c87 1 191-15 191 75 0 78-77 80-158 76V0H30v-248zm33 125c57 0 124 11 124-50 0-59-68-47-124-48v98" id="t"/><path d="M84 4C-5 8 30-112 23-190h32v120c0 31 7 50 39 49 72-2 45-101 50-169h31l1 190h-30c-1-10 1-25-2-33-11 22-28 36-60 37" id="u"/><path d="M115-194c53 0 69 39 70 98 0 66-23 100-70 100C84 3 66-7 56-30L54 0H23l1-261h32v101c10-23 28-34 59-34zm-8 174c40 0 45-34 45-75 0-40-5-75-45-74-42 0-51 32-51 76 0 43 10 73 51 73" id="v"/><path d="M24 0v-261h32V0H24" id="w"/><path d="M135-143c-3-34-86-38-87 0 15 53 115 12 119 90S17 21 10-45l28-5c4 36 97 45 98 0-10-56-113-15-118-90-4-57 82-63 122-42 12 7 21 19 24 35" id="x"/><path d="M106-169C34-169 62-67 57 0H25v-261h32l-1 103c12-21 28-36 61-36 89 0 53 116 60 194h-32v-121c2-32-8-49-39-48" id="y"/><path d="M0 4l72-265h28L28 4H0" id="z"/><path d="M96-169c-40 0-48 33-48 73s9 75 48 75c24 0 41-14 43-38l32 2c-6 37-31 61-74 61-59 0-76-41-82-99-10-93 101-131 147-64 4 7 5 14 7 22l-32 3c-4-21-16-35-41-35" id="A"/><g id="c"><use transform="matrix(0.06790123456790124,0,0,0.06790123456790124,0,0)" xlink:href="#t"/><use transform="matrix(0.06790123456790124,0,0,0.06790123456790124,16.296296296296298,0)" xlink:href="#u"/><use transform="matrix(0.06790123456790124,0,0,0.06790123456790124,29.876543209876544,0)" xlink:href="#v"/><use transform="matrix(0.06790123456790124,0,0,0.06790123456790124,43.45679012345679,0)" xlink:href="#w"/><use transform="matrix(0.06790123456790124,0,0,0.06790123456790124,48.82098765432099,0)" xlink:href="#q"/><use transform="matrix(0.06790123456790124,0,0,0.06790123456790124,54.18518518518518,0)" xlink:href="#x"/><use transform="matrix(0.06790123456790124,0,0,0.06790123456790124,66.4074074074074,0)" xlink:href="#y"/><use transform="matrix(0.06790123456790124,0,0,0.06790123456790124,79.98765432098767,0)" xlink:href="#z"/><use transform="matrix(0.06790123456790124,0,0,0.06790123456790124,86.77777777777779,0)" xlink:href="#m"/><use transform="matrix(0.06790123456790124,0,0,0.06790123456790124,103.07407407407408,0)" xlink:href="#u"/><use transform="matrix(0.06790123456790124,0,0,0.06790123456790124,116.65432098765432,0)" xlink:href="#v"/><use transform="matrix(0.06790123456790124,0,0,0.06790123456790124,130.23456790123458,0)" xlink:href="#x"/><use transform="matrix(0.06790123456790124,0,0,0.06790123456790124,142.4567901234568,0)" xlink:href="#A"/><use transform="matrix(0.06790123456790124,0,0,0.06790123456790124,154.67901234567904,0)" xlink:href="#o"/><use transform="matrix(0.06790123456790124,0,0,0.06790123456790124,162.7592592592593,0)" xlink:href="#q"/><use transform="matrix(0.06790123456790124,0,0,0.06790123456790124,168.12345679012353,0)" xlink:href="#v"/><use transform="matrix(0.06790123456790124,0,0,0.06790123456790124,181.70370370370375,0)" xlink:href="#n"/></g><path d="M59-47c-2 24 18 29 38 22v24C64 9 27 4 27-40v-127H5v-23h24l9-43h21v43h35v23H59v120" id="B"/><path d="M210-169c-67 3-38 105-44 169h-31v-121c0-29-5-50-35-48C34-165 62-65 56 0H25l-1-190h30c1 10-1 24 2 32 10-44 99-50 107 0 11-21 27-35 58-36 85-2 47 119 55 194h-31v-121c0-29-5-49-35-48" id="C"/><path d="M141-36C126-15 110 5 73 4 37 3 15-17 15-53c-1-64 63-63 125-63 3-35-9-54-41-54-24 1-41 7-42 31l-33-3c5-37 33-52 76-52 45 0 72 20 72 64v82c-1 20 7 32 28 27v20c-31 9-61-2-59-35zM48-53c0 20 12 33 32 33 41-3 63-29 60-74-43 2-92-5-92 41" id="D"/><g id="d"><use transform="matrix(0.05,0,0,0.05,0,0)" xlink:href="#m"/><use transform="matrix(0.05,0,0,0.05,12,0)" xlink:href="#q"/><use transform="matrix(0.05,0,0,0.05,15.949999999999998,0)" xlink:href="#x"/><use transform="matrix(0.05,0,0,0.05,24.95,0)" xlink:href="#B"/><use transform="matrix(0.05,0,0,0.05,29.950000000000003,0)" xlink:href="#n"/><use transform="matrix(0.05,0,0,0.05,39.95,0)" xlink:href="#C"/><use transform="matrix(0.05,0,0,0.05,54.900000000000006,0)" xlink:href="#D"/></g><path d="M85-194c31 0 48 13 60 33l-1-100h32l1 261h-30c-2-10 0-23-3-31C134-8 116 4 85 4 32 4 16-35 15-94c0-66 23-100 70-100zm9 24c-40 0-46 34-46 75 0 40 6 74 45 74 42 0 51-32 51-76 0-42-9-74-50-73" id="E"/><g id="e"><use transform="matrix(0.05,0,0,0.05,0,0)" xlink:href="#E"/><use transform="matrix(0.05,0,0,0.05,10,0)" xlink:href="#n"/></g><path d="M137 0h-34L2-248h35l83 218 83-218h36" id="F"/><path d="M117-194c89-4 53 116 60 194h-32v-121c0-31-8-49-39-48C34-167 62-67 57 0H25l-1-190h30c1 10-1 24 2 32 11-22 29-35 61-36" id="G"/><g id="f"><use transform="matrix(0.05,0,0,0.05,0,0)" xlink:href="#F"/><use transform="matrix(0.05,0,0,0.05,11,0)" xlink:href="#n"/><use transform="matrix(0.05,0,0,0.05,21,0)" xlink:href="#G"/><use transform="matrix(0.05,0,0,0.05,31,0)" xlink:href="#E"/><use transform="matrix(0.05,0,0,0.05,41,0)" xlink:href="#D"/><use transform="matrix(0.05,0,0,0.05,51,0)" xlink:href="#x"/></g><path d="M240 0l2-218c-23 76-54 145-80 218h-23L58-218 59 0H30v-248h44l77 211c21-75 51-140 76-211h43V0h-30" id="H"/><path d="M177-190C167-65 218 103 67 71c-23-6-38-20-44-43l32-5c15 47 100 32 89-28v-30C133-14 115 1 83 1 29 1 15-40 15-95c0-56 16-97 71-98 29-1 48 16 59 35 1-10 0-23 2-32h30zM94-22c36 0 50-32 50-73 0-42-14-75-50-75-39 0-46 34-46 75s6 73 46 73" id="I"/><g id="g"><use transform="matrix(0.05,0,0,0.05,0,0)" xlink:href="#H"/><use transform="matrix(0.05,0,0,0.05,14.950000000000001,0)" xlink:href="#q"/><use transform="matrix(0.05,0,0,0.05,18.900000000000002,0)" xlink:href="#w"/><use transform="matrix(0.05,0,0,0.05,22.85,0)" xlink:href="#y"/><use transform="matrix(0.05,0,0,0.05,32.85,0)" xlink:href="#D"/><use transform="matrix(0.05,0,0,0.05,42.85,0)" xlink:href="#I"/><use transform="matrix(0.05,0,0,0.05,52.85,0)" xlink:href="#n"/><use transform="matrix(0.05,0,0,0.05,62.85,0)" xlink:href="#G"/><use transform="matrix(0.05,0,0,0.05,72.85,0)" xlink:href="#x"/></g><path d="M143 0L79-87 56-68V0H24v-261h32v163l83-92h37l-77 82L181 0h-38" id="J"/><g id="h"><use transform="matrix(0.05,0,0,0.05,0,0)" xlink:href="#H"/><use transform="matrix(0.05,0,0,0.05,14.950000000000001,0)" xlink:href="#D"/><use transform="matrix(0.05,0,0,0.05,24.950000000000003,0)" xlink:href="#o"/><use transform="matrix(0.05,0,0,0.05,30.900000000000002,0)" xlink:href="#J"/><use transform="matrix(0.05,0,0,0.05,39.900000000000006,0)" xlink:href="#n"/><use transform="matrix(0.05,0,0,0.05,49.900000000000006,0)" xlink:href="#B"/><use transform="matrix(0.05,0,0,0.05,54.900000000000006,0)" xlink:href="#q"/><use transform="matrix(0.05,0,0,0.05,58.85,0)" xlink:href="#G"/><use transform="matrix(0.05,0,0,0.05,68.85000000000001,0)" xlink:href="#I"/></g><g id="i"><use transform="matrix(0.05,0,0,0.05,0,0)" xlink:href="#m"/><use transform="matrix(0.05,0,0,0.05,12,0)" xlink:href="#q"/><use transform="matrix(0.05,0,0,0.05,15.949999999999998,0)" xlink:href="#x"/><use transform="matrix(0.05,0,0,0.05,24.95,0)" xlink:href="#B"/><use transform="matrix(0.05,0,0,0.05,29.950000000000003,0)" xlink:href="#n"/><use transform="matrix(0.05,0,0,0.05,39.95,0)" xlink:href="#C"/><use transform="matrix(0.05,0,0,0.05,54.900000000000006,0)" xlink:href="#D"/></g><path d="M212-179c-10-28-35-45-73-45-59 0-87 40-87 99 0 60 29 101 89 101 43 0 62-24 78-52l27 14C228-24 195 4 139 4 59 4 22-46 18-125c-6-104 99-153 187-111 19 9 31 26 39 46" id="K"/><path d="M141-36C126-15 110 5 73 4 37 3 15-17 15-53c-1-64 63-63 125-63 3-35-9-54-41-54-24 1-41 7-42 31l-33-3c5-37 33-52 76-52 45 0 72 20 72 64v82c-1 20 7 32 28 27v20c-31 9-61-2-59-35zM48-53c0 20 12 33 32 33 41-3 63-29 60-74-43 2-92-5-92 41zm25-158c8-23 27-35 38-54h36v5l-58 49H73" id="L"/><g id="j"><use transform="matrix(0.05,0,0,0.05,0,0)" xlink:href="#K"/><use transform="matrix(0.05,0,0,0.05,12.950000000000001,0)" xlink:href="#s"/><use transform="matrix(0.05,0,0,0.05,22.950000000000003,0)" xlink:href="#G"/><use transform="matrix(0.05,0,0,0.05,32.95,0)" xlink:href="#B"/><use transform="matrix(0.05,0,0,0.05,37.95,0)" xlink:href="#L"/><use transform="matrix(0.05,0,0,0.05,47.95,0)" xlink:href="#v"/><use transform="matrix(0.05,0,0,0.05,57.95,0)" xlink:href="#q"/><use transform="matrix(0.05,0,0,0.05,61.900000000000006,0)" xlink:href="#w"/></g><path d="M115-194c55 1 70 41 70 98S169 2 115 4C84 4 66-9 55-30l1 105H24l-1-265h31l2 30c10-21 28-34 59-34zm-8 174c40 0 45-34 45-75s-6-73-45-74c-42 0-51 32-51 76 0 43 10 73 51 73" id="M"/><path d="M87 75C49 33 22-17 22-94c0-76 28-126 65-167h31c-38 41-64 92-64 168S80 34 118 75H87" id="N"/><path d="M33-261c38 41 65 92 65 168S71 34 33 75H2C39 34 66-17 66-93S39-220 2-261h31" id="O"/><g id="k"><use transform="matrix(0.05,0,0,0.05,0,0)" xlink:href="#M"/><use transform="matrix(0.05,0,0,0.05,10,0)" xlink:href="#u"/><use transform="matrix(0.05,0,0,0.05,20,0)" xlink:href="#v"/><use transform="matrix(0.05,0,0,0.05,30,0)" xlink:href="#w"/><use transform="matrix(0.05,0,0,0.05,33.95,0)" xlink:href="#q"/><use transform="matrix(0.05,0,0,0.05,37.900000000000006,0)" xlink:href="#x"/><use transform="matrix(0.05,0,0,0.05,46.900000000000006,0)" xlink:href="#y"/><use transform="matrix(0.05,0,0,0.05,56.900000000000006,0)" xlink:href="#N"/><use transform="matrix(0.05,0,0,0.05,62.85,0)" xlink:href="#O"/></g><path d="M101-234c-31-9-42 10-38 44h38v23H63V0H32v-167H5v-23h27c-7-52 17-82 69-68v24" id="P"/><path d="M179-190L93 31C79 59 56 82 12 73V49c39 6 53-20 64-50L1-190h34L92-34l54-156h33" id="Q"/><g id="l"><use transform="matrix(0.05,0,0,0.05,0,0)" xlink:href="#G"/><use transform="matrix(0.05,0,0,0.05,10,0)" xlink:href="#s"/><use transform="matrix(0.05,0,0,0.05,20,0)" xlink:href="#B"/><use transform="matrix(0.05,0,0,0.05,25,0)" xlink:href="#q"/><use transform="matrix(0.05,0,0,0.05,28.950000000000003,0)" xlink:href="#P"/><use transform="matrix(0.05,0,0,0.05,33.95,0)" xlink:href="#Q"/><use transform="matrix(0.05,0,0,0.05,42.95,0)" xlink:href="#N"/><use transform="matrix(0.05,0,0,0.05,48.900000000000006,0)" xlink:href="#O"/></g></defs></g></svg>