<svg xmlns="http://www.w3.org/2000/svg" xmlns:xlink="http://www.w3.org/1999/xlink" xmlns:lucid="lucid" width="300" height="280"><g transform="translate(-280 -60)" lucid:page-tab-id="0_0"><path d="M0 0h1870.4v1323.2H0z" fill="#fff"/><path d="M300 80h120v240H300z" stroke="#000" stroke-width="2" fill="#fff"/><path d="M320 100h80v80h-80z" fill="#ccc"/><use xlink:href="#a" transform="matrix(1,0,0,1,325,105) translate(22.525 38.4625)"/><path d="M440 80h120v240H440z" stroke="#000" stroke-width="2" fill="#fff"/><path d="M460 100h80v80h-80z" fill="#ccc"/><use xlink:href="#b" transform="matrix(1,0,0,1,465,105) translate(22.525 38.4625)"/><path d="M400 292c0 4.42-17.9 8-40 8s-40-3.58-40-8v-64c0-4.42 17.9-8 40-8s40 3.58 40 8z" stroke="#000" stroke-width="2" fill="#fff"/><path d="M400 228c0 4.42-17.9 8-40 8s-40-3.58-40-8" stroke="#000" stroke-width="2" fill="none"/><use xlink:href="#c" transform="matrix(1,0,0,1,325,241) translate(9.024999999999999 21.15)"/><use xlink:href="#d" transform="matrix(1,0,0,1,325,241) translate(22.525 42.75)"/><path d="M540 292c0 4.42-17.9 8-40 8s-40-3.58-40-8v-64c0-4.42 17.9-8 40-8s40 3.58 40 8z" stroke="#000" stroke-width="2" fill="#fff"/><path d="M540 228c0 4.42-17.9 8-40 8s-40-3.58-40-8" stroke="#000" stroke-width="2" fill="none"/><use xlink:href="#c" transform="matrix(1,0,0,1,465,241) translate(9.024999999999999 21.15)"/><use xlink:href="#e" transform="matrix(1,0,0,1,465,241) translate(22.525 42.75)"/><path d="M360 181v19.5" stroke="#000" stroke-width="2" fill="none"/><path d="M361 181.03h-2V180h2z"/><path d="M360 215.76l-4.64-14.26h9.28z" stroke="#000" stroke-width="2"/><path d="M360 182v18.5M360 182.03V181" stroke="#000" stroke-width="2" fill="none"/><path d="M360 215.76l-4.64-14.26h9.28z" stroke="#000" stroke-width="2"/><path d="M500 181v18.5M500 181.03V180" stroke="#000" stroke-width="2" fill="none"/><path d="M500 214.76l-4.64-14.26h9.28z" stroke="#000" stroke-width="2"/><defs><path d="M240 0l2-218c-23 76-54 145-80 218h-23L58-218 59 0H30v-248h44l77 211c21-75 51-140 76-211h43V0h-30" id="f"/><path d="M27 0v-27h64v-190l-56 39v-29l58-41h29v221h61V0H27" id="g"/><g id="a"><use transform="matrix(0.05,0,0,0.05,0,0)" xlink:href="#f"/><use transform="matrix(0.05,0,0,0.05,14.950000000000001,0)" xlink:href="#g"/></g><path d="M101-251c82-7 93 87 43 132L82-64C71-53 59-42 53-27h129V0H18c2-99 128-94 128-182 0-28-16-43-45-43s-46 15-49 41l-32-3c6-41 34-60 81-64" id="h"/><g id="b"><use transform="matrix(0.05,0,0,0.05,0,0)" xlink:href="#f"/><use transform="matrix(0.05,0,0,0.05,14.950000000000001,0)" xlink:href="#h"/></g><path d="M30-248c118-7 216 8 213 122C240-48 200 0 122 0H30v-248zM63-27c89 8 146-16 146-99s-60-101-146-95v194" id="i"/><path d="M141-36C126-15 110 5 73 4 37 3 15-17 15-53c-1-64 63-63 125-63 3-35-9-54-41-54-24 1-41 7-42 31l-33-3c5-37 33-52 76-52 45 0 72 20 72 64v82c-1 20 7 32 28 27v20c-31 9-61-2-59-35zM48-53c0 20 12 33 32 33 41-3 63-29 60-74-43 2-92-5-92 41" id="j"/><path d="M85-194c31 0 48 13 60 33l-1-100h32l1 261h-30c-2-10 0-23-3-31C134-8 116 4 85 4 32 4 16-35 15-94c0-66 23-100 70-100zm9 24c-40 0-46 34-46 75 0 40 6 74 45 74 42 0 51-32 51-76 0-42-9-74-50-73" id="k"/><path d="M100-194c62-1 85 37 85 99 1 63-27 99-86 99S16-35 15-95c0-66 28-99 85-99zM99-20c44 1 53-31 53-75 0-43-8-75-51-75s-53 32-53 75 10 74 51 75" id="l"/><path d="M135-143c-3-34-86-38-87 0 15 53 115 12 119 90S17 21 10-45l28-5c4 36 97 45 98 0-10-56-113-15-118-90-4-57 82-63 122-42 12 7 21 19 24 35" id="m"/><g id="c"><use transform="matrix(0.05,0,0,0.05,0,0)" xlink:href="#i"/><use transform="matrix(0.05,0,0,0.05,12.950000000000001,0)" xlink:href="#j"/><use transform="matrix(0.05,0,0,0.05,22.950000000000003,0)" xlink:href="#k"/><use transform="matrix(0.05,0,0,0.05,32.95,0)" xlink:href="#l"/><use transform="matrix(0.05,0,0,0.05,42.95,0)" xlink:href="#m"/></g><g id="d"><use transform="matrix(0.05,0,0,0.05,0,0)" xlink:href="#f"/><use transform="matrix(0.05,0,0,0.05,14.950000000000001,0)" xlink:href="#g"/></g><g id="e"><use transform="matrix(0.05,0,0,0.05,0,0)" xlink:href="#f"/><use transform="matrix(0.05,0,0,0.05,14.950000000000001,0)" xlink:href="#h"/></g></defs></g></svg>