<svg xmlns="http://www.w3.org/2000/svg" xmlns:xlink="http://www.w3.org/1999/xlink" xmlns:lucid="lucid" width="440" height="320"><g transform="translate(-280 -220)" lucid:page-tab-id="0_0"><path d="M0 0h1870.4v1323.2H0z" fill="#fff"/><path d="M300 400h120v120H300z" stroke="#000" stroke-width="2" fill="#fff"/><use xlink:href="#a" transform="matrix(1,0,0,1,305,405) translate(38.525 59.0875)"/><path d="M320 420h80v80h-80z" fill="#ccc"/><use xlink:href="#b" transform="matrix(1,0,0,1,325,425) translate(22.525 38.4625)"/><path d="M440 400h120v120H440z" stroke="#000" stroke-width="2" fill="#fff"/><use xlink:href="#a" transform="matrix(1,0,0,1,445,405) translate(38.525 59.0875)"/><path d="M460 420h80v80h-80z" fill="#ccc"/><use xlink:href="#b" transform="matrix(1,0,0,1,465,425) translate(22.525 38.4625)"/><path d="M580 400h120v120H580z" stroke="#000" stroke-width="2" fill="#fff"/><use xlink:href="#a" transform="matrix(1,0,0,1,585,405) translate(38.525 59.0875)"/><path d="M600 420h80v80h-80z" fill="#ccc"/><use xlink:href="#b" transform="matrix(1,0,0,1,605,425) translate(22.525 38.4625)"/><path d="M300 240h120v120H300z" stroke="#000" stroke-width="2" fill="#fff"/><use xlink:href="#a" transform="matrix(1,0,0,1,305,245) translate(38.525 59.0875)"/><path d="M320 260h80v80h-80z" fill="#ccc"/><use xlink:href="#b" transform="matrix(1,0,0,1,325,265) translate(22.525 38.4625)"/><path d="M440 240h120v120H440z" stroke="#000" stroke-width="2" fill="#fff"/><use xlink:href="#a" transform="matrix(1,0,0,1,445,245) translate(38.525 59.0875)"/><path d="M460 260h80v80h-80z" fill="#ccc"/><use xlink:href="#b" transform="matrix(1,0,0,1,465,265) translate(22.525 38.4625)"/><path d="M580 240h120v120H580z" stroke="#000" stroke-width="2" fill="#fff"/><use xlink:href="#a" transform="matrix(1,0,0,1,585,245) translate(38.525 59.0875)"/><path d="M600 260h80v80h-80z" fill="#ccc"/><use xlink:href="#b" transform="matrix(1,0,0,1,605,265) translate(22.525 38.4625)"/><defs><path d="M127-220V0H93v-220H8v-28h204v28h-85" id="c"/><path d="M100-194c63 0 86 42 84 106H49c0 40 14 67 53 68 26 1 43-12 49-29l28 8c-11 28-37 45-77 45C44 4 14-33 15-96c1-61 26-98 85-98zm52 81c6-60-76-77-97-28-3 7-6 17-6 28h103" id="d"/><path d="M141 0L90-78 38 0H4l68-98-65-92h35l48 74 47-74h35l-64 92 68 98h-35" id="e"/><path d="M59-47c-2 24 18 29 38 22v24C64 9 27 4 27-40v-127H5v-23h24l9-43h21v43h35v23H59v120" id="f"/><g id="a"><use transform="matrix(0.05,0,0,0.05,0,0)" xlink:href="#c"/><use transform="matrix(0.05,0,0,0.05,8.950000000000001,0)" xlink:href="#d"/><use transform="matrix(0.05,0,0,0.05,18.950000000000003,0)" xlink:href="#e"/><use transform="matrix(0.05,0,0,0.05,27.950000000000003,0)" xlink:href="#f"/></g><path d="M240 0l2-218c-23 76-54 145-80 218h-23L58-218 59 0H30v-248h44l77 211c21-75 51-140 76-211h43V0h-30" id="g"/><path d="M27 0v-27h64v-190l-56 39v-29l58-41h29v221h61V0H27" id="h"/><g id="b"><use transform="matrix(0.05,0,0,0.05,0,0)" xlink:href="#g"/><use transform="matrix(0.05,0,0,0.05,14.950000000000001,0)" xlink:href="#h"/></g></defs></g></svg>