<svg xmlns="http://www.w3.org/2000/svg" xmlns:xlink="http://www.w3.org/1999/xlink" xmlns:lucid="lucid" width="440" height="460"><g transform="translate(-280 -100)" lucid:page-tab-id="0_0"><path d="M0 0h1870.4v1323.2H0z" fill="#fff"/><path d="M300 120h120v120H300z" stroke="#000" stroke-width="2" fill="#fff"/><use xlink:href="#a" transform="matrix(1,0,0,1,305,125) translate(38.525 59.0875)"/><path d="M320 140h80v80h-80z" fill="#ccc"/><use xlink:href="#b" transform="matrix(1,0,0,1,325,145) translate(22.525 38.4625)"/><path d="M440 120h120v120H440z" stroke="#000" stroke-width="2" fill="#fff"/><use xlink:href="#a" transform="matrix(1,0,0,1,445,125) translate(38.525 59.0875)"/><path d="M460 140h80v80h-80z" fill="#ccc"/><use xlink:href="#c" transform="matrix(1,0,0,1,465,145) translate(22.525 38.4625)"/><path d="M580 120h120v120H580z" stroke="#000" stroke-width="2" fill="#fff"/><use xlink:href="#a" transform="matrix(1,0,0,1,585,125) translate(38.525 59.0875)"/><path d="M600 140h80v80h-80z" fill="#ccc"/><use xlink:href="#d" transform="matrix(1,0,0,1,605,145) translate(22.525 38.4625)"/><path d="M300 280h260v120H300z" stroke="#000" stroke-width="2" fill="#fff"/><path d="M340 300h80v80h-80z" fill="#ccc"/><use xlink:href="#e" transform="matrix(1,0,0,1,345,305) translate(22.525 38.4625)"/><path d="M440 300h80v80h-80z" fill="#ccc"/><use xlink:href="#f" transform="matrix(1,0,0,1,445,305) translate(22.525 38.4625)"/><path d="M580 280h120v120H580z" stroke="#000" stroke-width="2" fill="#fff"/><use xlink:href="#a" transform="matrix(1,0,0,1,585,285) translate(38.525 59.0875)"/><path d="M600 300h80v80h-80z" fill="#ccc"/><use xlink:href="#g" transform="matrix(1,0,0,1,605,305) translate(22.525 38.4625)"/><path d="M300 420h400v120H300z" stroke="#000" stroke-width="2" fill="#fff"/><path d="M340 440h80v80h-80z" fill="#ccc"/><use xlink:href="#h" transform="matrix(1,0,0,1,345,445) translate(22.525 38.4625)"/><path d="M460 440h80v80h-80z" fill="#ccc"/><use xlink:href="#i" transform="matrix(1,0,0,1,465,445) translate(22.525 38.4625)"/><path d="M580 440h80v80h-80z" fill="#ccc"/><use xlink:href="#j" transform="matrix(1,0,0,1,585,445) translate(22.525 38.4625)"/><defs><path d="M127-220V0H93v-220H8v-28h204v28h-85" id="k"/><path d="M100-194c63 0 86 42 84 106H49c0 40 14 67 53 68 26 1 43-12 49-29l28 8c-11 28-37 45-77 45C44 4 14-33 15-96c1-61 26-98 85-98zm52 81c6-60-76-77-97-28-3 7-6 17-6 28h103" id="l"/><path d="M141 0L90-78 38 0H4l68-98-65-92h35l48 74 47-74h35l-64 92 68 98h-35" id="m"/><path d="M59-47c-2 24 18 29 38 22v24C64 9 27 4 27-40v-127H5v-23h24l9-43h21v43h35v23H59v120" id="n"/><g id="a"><use transform="matrix(0.05,0,0,0.05,0,0)" xlink:href="#k"/><use transform="matrix(0.05,0,0,0.05,8.950000000000001,0)" xlink:href="#l"/><use transform="matrix(0.05,0,0,0.05,18.950000000000003,0)" xlink:href="#m"/><use transform="matrix(0.05,0,0,0.05,27.950000000000003,0)" xlink:href="#n"/></g><path d="M240 0l2-218c-23 76-54 145-80 218h-23L58-218 59 0H30v-248h44l77 211c21-75 51-140 76-211h43V0h-30" id="o"/><path d="M27 0v-27h64v-190l-56 39v-29l58-41h29v221h61V0H27" id="p"/><g id="b"><use transform="matrix(0.05,0,0,0.05,0,0)" xlink:href="#o"/><use transform="matrix(0.05,0,0,0.05,14.950000000000001,0)" xlink:href="#p"/></g><path d="M101-251c82-7 93 87 43 132L82-64C71-53 59-42 53-27h129V0H18c2-99 128-94 128-182 0-28-16-43-45-43s-46 15-49 41l-32-3c6-41 34-60 81-64" id="q"/><g id="c"><use transform="matrix(0.05,0,0,0.05,0,0)" xlink:href="#o"/><use transform="matrix(0.05,0,0,0.05,14.950000000000001,0)" xlink:href="#q"/></g><path d="M126-127c33 6 58 20 58 59 0 88-139 92-164 29-3-8-5-16-6-25l32-3c6 27 21 44 54 44 32 0 52-15 52-46 0-38-36-46-79-43v-28c39 1 72-4 72-42 0-27-17-43-46-43-28 0-47 15-49 41l-32-3c6-42 35-63 81-64 48-1 79 21 79 65 0 36-21 52-52 59" id="r"/><g id="d"><use transform="matrix(0.05,0,0,0.05,0,0)" xlink:href="#o"/><use transform="matrix(0.05,0,0,0.05,14.950000000000001,0)" xlink:href="#r"/></g><path d="M155-56V0h-30v-56H8v-25l114-167h33v167h35v25h-35zm-30-156c-27 46-58 90-88 131h88v-131" id="s"/><g id="e"><use transform="matrix(0.05,0,0,0.05,0,0)" xlink:href="#o"/><use transform="matrix(0.05,0,0,0.05,14.950000000000001,0)" xlink:href="#s"/></g><path d="M54-142c48-35 137-8 131 61C196 18 31 33 14-55l32-4c7 23 22 37 52 37 35-1 51-22 54-58 4-55-73-65-99-34H22l8-134h141v27H59" id="t"/><g id="f"><use transform="matrix(0.05,0,0,0.05,0,0)" xlink:href="#o"/><use transform="matrix(0.05,0,0,0.05,14.950000000000001,0)" xlink:href="#t"/></g><path d="M110-160c48 1 74 30 74 79 0 53-28 85-80 85-65 0-83-55-86-122-5-90 50-162 133-122 14 7 22 21 27 39l-31 6c-5-40-67-38-82-6-9 19-15 44-15 74 11-20 30-34 60-33zm-7 138c34 0 49-23 49-58s-16-56-50-56c-29 0-50 16-49 49 1 36 15 65 50 65" id="u"/><g id="g"><use transform="matrix(0.05,0,0,0.05,0,0)" xlink:href="#o"/><use transform="matrix(0.05,0,0,0.05,14.950000000000001,0)" xlink:href="#u"/></g><path d="M64 0c3-98 48-159 88-221H18v-27h164v26C143-157 98-101 97 0H64" id="v"/><g id="h"><use transform="matrix(0.05,0,0,0.05,0,0)" xlink:href="#o"/><use transform="matrix(0.05,0,0,0.05,14.950000000000001,0)" xlink:href="#v"/></g><path d="M134-131c28 9 52 24 51 62-1 50-34 73-85 73S17-19 16-69c0-36 21-54 49-61-75-25-45-126 34-121 46 3 78 18 79 63 0 33-17 51-44 57zm-34-11c31 1 46-15 46-44 0-28-17-43-47-42-29 0-46 13-45 42 1 28 16 44 46 44zm1 122c35 0 51-18 51-52 0-30-18-46-53-46-33 0-51 17-51 47 0 34 19 51 53 51" id="w"/><g id="i"><use transform="matrix(0.05,0,0,0.05,0,0)" xlink:href="#o"/><use transform="matrix(0.05,0,0,0.05,14.950000000000001,0)" xlink:href="#w"/></g><path d="M99-251c64 0 84 50 84 122C183-37 130 33 47-8c-14-7-20-23-25-40l30-5c6 39 69 39 84 7 9-19 16-44 16-74-10 22-31 35-62 35-49 0-73-33-73-83 0-54 28-83 82-83zm-1 141c31-1 51-18 51-49 0-36-14-67-51-67-34 0-49 23-49 58 0 34 15 58 49 58" id="x"/><g id="j"><use transform="matrix(0.05,0,0,0.05,0,0)" xlink:href="#o"/><use transform="matrix(0.05,0,0,0.05,14.950000000000001,0)" xlink:href="#x"/></g></defs></g></svg>