<svg xmlns="http://www.w3.org/2000/svg" xmlns:xlink="http://www.w3.org/1999/xlink" xmlns:lucid="lucid" width="1040" height="480"><g transform="translate(-180 20)" lucid:page-tab-id="0_0"><path d="M0 0h1870.4v1323.2H0z" fill="#fff"/><path d="M460 160h460v120H460z" stroke="#000" stroke-width="2" fill="#fff"/><path d="M500 190h60v60h-60z" stroke="#000" stroke-width="2" fill="#fff"/><use xlink:href="#a" transform="matrix(1,0,0,1,505,195) translate(3.0249999999999986 30.025)"/><path d="M560 190h60v60h-60z" stroke="#000" stroke-width="2" fill="#fff"/><use xlink:href="#b" transform="matrix(1,0,0,1,565,195) translate(17.5 30.025)"/><path d="M620 190h60v60h-60z" stroke="#000" stroke-width="2" fill="#fff"/><use xlink:href="#c" transform="matrix(1,0,0,1,625,195) translate(3.0249999999999986 30.025)"/><path d="M680 190h60v60h-60z" stroke="#000" stroke-width="2" fill="#fff"/><use xlink:href="#d" transform="matrix(1,0,0,1,685,195) translate(3.0249999999999986 30.025)"/><path d="M740 190h60v60h-60z" stroke="#000" stroke-width="2" fill="#fff"/><use xlink:href="#e" transform="matrix(1,0,0,1,745,195) translate(3.0249999999999986 30.025)"/><path d="M801 190h60v60h-60z" stroke="#000" stroke-width="2" fill="#fff"/><use xlink:href="#f" transform="matrix(1,0,0,1,806,195) translate(3.0249999999999986 30.025)"/><path d="M200 160h160v120H200z" stroke="#000" stroke-width="2" fill="#fff"/><use xlink:href="#g" transform="matrix(1,0,0,1,205,165) translate(47.075 59.0875)"/><path d="M1040 160h160v120h-160z" stroke="#000" stroke-width="2" fill="#fff"/><use xlink:href="#h" transform="matrix(1,0,0,1,1045,165) translate(41.574999999999996 59.0875)"/><path d="M362.5 219.67h115.88M362.5 225.67h115.88" stroke="#000" stroke-width="3" fill="none"/><path d="M362.54 221.17H361v-3h1.54zM362.54 227.17H361v-3h1.54z"/><path d="M494.15 222.67l-14.27 4.63v-9.27z" stroke="#000" stroke-width="3"/><path d="M863.5 217h154.88M863.5 223h154.88" stroke="#000" stroke-width="3" fill="none"/><path d="M863.54 218.5H862v-3h1.54zM863.54 224.5H862v-3h1.54z"/><path d="M1034.15 220l-14.27 4.64v-9.28z" stroke="#000" stroke-width="3"/><path d="M1040 320h160v120h-160z" stroke="#000" stroke-width="2" fill="#fff"/><use xlink:href="#h" transform="matrix(1,0,0,1,1045,325) translate(41.574999999999996 59.0875)"/><path d="M863.5 217h87l2.12.88.88 2.12v157h64.88" stroke="#000" stroke-width="3" fill="none"/><path d="M863.5 223h84v157l.88 2.12 2.12.88h67.88" stroke="#000" stroke-width="3" fill="none"/><path d="M863.54 218.5H862v-3h1.54zM863.54 224.5H862v-3h1.54z"/><path d="M1034.15 380l-14.27 4.64v-9.28z" stroke="#000" stroke-width="3"/><path d="M1040 0h160v120h-160z" stroke="#000" stroke-width="2" fill="#fff"/><use xlink:href="#h" transform="matrix(1,0,0,1,1045,5) translate(41.574999999999996 59.0875)"/><path d="M863.5 217h84V60l.88-2.12 2.12-.88h67.88" stroke="#000" stroke-width="3" fill="none"/><path d="M863.5 223h87l2.12-.88.88-2.12V63h64.88" stroke="#000" stroke-width="3" fill="none"/><path d="M863.54 218.5H862v-3h1.54zM863.54 224.5H862v-3h1.54z"/><path d="M1034.15 60l-14.27 4.64v-9.28z" stroke="#000" stroke-width="3"/><defs><path d="M210-169c-67 3-38 105-44 169h-31v-121c0-29-5-50-35-48C34-165 62-65 56 0H25l-1-190h30c1 10-1 24 2 32 10-44 99-50 107 0 11-21 27-35 58-36 85-2 47 119 55 194h-31v-121c0-29-5-49-35-48" id="i"/><path d="M135-143c-3-34-86-38-87 0 15 53 115 12 119 90S17 21 10-45l28-5c4 36 97 45 98 0-10-56-113-15-118-90-4-57 82-63 122-42 12 7 21 19 24 35" id="j"/><path d="M177-190C167-65 218 103 67 71c-23-6-38-20-44-43l32-5c15 47 100 32 89-28v-30C133-14 115 1 83 1 29 1 15-40 15-95c0-56 16-97 71-98 29-1 48 16 59 35 1-10 0-23 2-32h30zM94-22c36 0 50-32 50-73 0-42-14-75-50-75-39 0-46 34-46 75s6 73 46 73" id="k"/><path d="M117-194c89-4 53 116 60 194h-32v-121c0-31-8-49-39-48C34-167 62-67 57 0H25l-1-190h30c1 10-1 24 2 32 11-22 29-35 61-36" id="l"/><g id="a"><use transform="matrix(0.05,0,0,0.05,0,0)" xlink:href="#i"/><use transform="matrix(0.05,0,0,0.05,14.950000000000001,0)" xlink:href="#j"/><use transform="matrix(0.05,0,0,0.05,23.950000000000003,0)" xlink:href="#k"/><use transform="matrix(0.05,0,0,0.05,33.95,0)" xlink:href="#l"/></g><path d="M33 0v-38h34V0H33" id="m"/><g id="b"><use transform="matrix(0.05,0,0,0.05,0,0)" xlink:href="#m"/><use transform="matrix(0.05,0,0,0.05,5,0)" xlink:href="#m"/><use transform="matrix(0.05,0,0,0.05,10,0)" xlink:href="#m"/></g><path d="M155-56V0h-30v-56H8v-25l114-167h33v167h35v25h-35zm-30-156c-27 46-58 90-88 131h88v-131" id="n"/><g id="c"><use transform="matrix(0.05,0,0,0.05,0,0)" xlink:href="#i"/><use transform="matrix(0.05,0,0,0.05,14.950000000000001,0)" xlink:href="#j"/><use transform="matrix(0.05,0,0,0.05,23.950000000000003,0)" xlink:href="#k"/><use transform="matrix(0.05,0,0,0.05,33.95,0)" xlink:href="#n"/></g><path d="M126-127c33 6 58 20 58 59 0 88-139 92-164 29-3-8-5-16-6-25l32-3c6 27 21 44 54 44 32 0 52-15 52-46 0-38-36-46-79-43v-28c39 1 72-4 72-42 0-27-17-43-46-43-28 0-47 15-49 41l-32-3c6-42 35-63 81-64 48-1 79 21 79 65 0 36-21 52-52 59" id="o"/><g id="d"><use transform="matrix(0.05,0,0,0.05,0,0)" xlink:href="#i"/><use transform="matrix(0.05,0,0,0.05,14.950000000000001,0)" xlink:href="#j"/><use transform="matrix(0.05,0,0,0.05,23.950000000000003,0)" xlink:href="#k"/><use transform="matrix(0.05,0,0,0.05,33.95,0)" xlink:href="#o"/></g><path d="M101-251c82-7 93 87 43 132L82-64C71-53 59-42 53-27h129V0H18c2-99 128-94 128-182 0-28-16-43-45-43s-46 15-49 41l-32-3c6-41 34-60 81-64" id="p"/><g id="e"><use transform="matrix(0.05,0,0,0.05,0,0)" xlink:href="#i"/><use transform="matrix(0.05,0,0,0.05,14.950000000000001,0)" xlink:href="#j"/><use transform="matrix(0.05,0,0,0.05,23.950000000000003,0)" xlink:href="#k"/><use transform="matrix(0.05,0,0,0.05,33.95,0)" xlink:href="#p"/></g><path d="M27 0v-27h64v-190l-56 39v-29l58-41h29v221h61V0H27" id="q"/><g id="f"><use transform="matrix(0.05,0,0,0.05,0,0)" xlink:href="#i"/><use transform="matrix(0.05,0,0,0.05,14.950000000000001,0)" xlink:href="#j"/><use transform="matrix(0.05,0,0,0.05,23.950000000000003,0)" xlink:href="#k"/><use transform="matrix(0.05,0,0,0.05,33.95,0)" xlink:href="#q"/></g><path d="M212-179c-10-28-35-45-73-45-59 0-87 40-87 99 0 60 29 101 89 101 43 0 62-24 78-52l27 14C228-24 195 4 139 4 59 4 22-46 18-125c-6-104 99-153 187-111 19 9 31 26 39 46" id="r"/><path d="M24 0v-261h32V0H24" id="s"/><path d="M24-231v-30h32v30H24zM24 0v-190h32V0H24" id="t"/><path d="M100-194c63 0 86 42 84 106H49c0 40 14 67 53 68 26 1 43-12 49-29l28 8c-11 28-37 45-77 45C44 4 14-33 15-96c1-61 26-98 85-98zm52 81c6-60-76-77-97-28-3 7-6 17-6 28h103" id="u"/><path d="M59-47c-2 24 18 29 38 22v24C64 9 27 4 27-40v-127H5v-23h24l9-43h21v43h35v23H59v120" id="v"/><g id="g"><use transform="matrix(0.05,0,0,0.05,0,0)" xlink:href="#r"/><use transform="matrix(0.05,0,0,0.05,12.950000000000001,0)" xlink:href="#s"/><use transform="matrix(0.05,0,0,0.05,16.900000000000002,0)" xlink:href="#t"/><use transform="matrix(0.05,0,0,0.05,20.85,0)" xlink:href="#u"/><use transform="matrix(0.05,0,0,0.05,30.85,0)" xlink:href="#l"/><use transform="matrix(0.05,0,0,0.05,40.85,0)" xlink:href="#v"/><use transform="matrix(0.05,0,0,0.05,45.85,0)" xlink:href="#u"/></g><path d="M185-189c-5-48-123-54-124 2 14 75 158 14 163 119 3 78-121 87-175 55-17-10-28-26-33-46l33-7c5 56 141 63 141-1 0-78-155-14-162-118-5-82 145-84 179-34 5 7 8 16 11 25" id="w"/><path d="M114-163C36-179 61-72 57 0H25l-1-190h30c1 12-1 29 2 39 6-27 23-49 58-41v29" id="x"/><path d="M108 0H70L1-190h34L89-25l56-165h34" id="y"/><path d="M85-194c31 0 48 13 60 33l-1-100h32l1 261h-30c-2-10 0-23-3-31C134-8 116 4 85 4 32 4 16-35 15-94c0-66 23-100 70-100zm9 24c-40 0-46 34-46 75 0 40 6 74 45 74 42 0 51-32 51-76 0-42-9-74-50-73" id="z"/><path d="M100-194c62-1 85 37 85 99 1 63-27 99-86 99S16-35 15-95c0-66 28-99 85-99zM99-20c44 1 53-31 53-75 0-43-8-75-51-75s-53 32-53 75 10 74 51 75" id="A"/><g id="h"><use transform="matrix(0.05,0,0,0.05,0,0)" xlink:href="#w"/><use transform="matrix(0.05,0,0,0.05,12,0)" xlink:href="#u"/><use transform="matrix(0.05,0,0,0.05,22,0)" xlink:href="#x"/><use transform="matrix(0.05,0,0,0.05,27.950000000000003,0)" xlink:href="#y"/><use transform="matrix(0.05,0,0,0.05,36.95,0)" xlink:href="#t"/><use transform="matrix(0.05,0,0,0.05,40.900000000000006,0)" xlink:href="#z"/><use transform="matrix(0.05,0,0,0.05,50.900000000000006,0)" xlink:href="#A"/><use transform="matrix(0.05,0,0,0.05,60.900000000000006,0)" xlink:href="#x"/></g></defs></g></svg>