<svg xmlns="http://www.w3.org/2000/svg" xmlns:xlink="http://www.w3.org/1999/xlink" xmlns:lucid="lucid" width="360" height="360"><g transform="translate(-160 -100)" lucid:page-tab-id="0_0"><path d="M0 0h1870.4v1323.2H0z" fill="#fff"/><path d="M180 120h320v320H180z" stroke="#000" stroke-width="2" fill="#fff"/><path d="M200 140h80v80h-80z" fill="#ccc"/><use xlink:href="#a" transform="matrix(1,0,0,1,205,145) translate(22.525 38.4625)"/><path d="M300 140h80v80h-80z" fill="#ccc"/><use xlink:href="#b" transform="matrix(1,0,0,1,305,145) translate(22.525 38.4625)"/><path d="M400 140h80v80h-80z" fill="#ccc"/><use xlink:href="#c" transform="matrix(1,0,0,1,405,145) translate(22.525 38.4625)"/><path d="M200 240h80v80h-80z" fill="#ccc"/><use xlink:href="#d" transform="matrix(1,0,0,1,205,245) translate(22.525 38.4625)"/><path d="M300 240h80v80h-80z" fill="#ccc"/><use xlink:href="#e" transform="matrix(1,0,0,1,305,245) translate(22.525 38.4625)"/><path d="M400 240h80v80h-80z" fill="#ccc"/><use xlink:href="#f" transform="matrix(1,0,0,1,405,245) translate(22.525 38.4625)"/><path d="M200 340h80v80h-80z" fill="#ccc"/><use xlink:href="#g" transform="matrix(1,0,0,1,205,345) translate(22.525 38.4625)"/><path d="M300 340h80v80h-80z" fill="#ccc"/><use xlink:href="#h" transform="matrix(1,0,0,1,305,345) translate(22.525 38.4625)"/><path d="M400 340h80v80h-80z" fill="#ccc"/><use xlink:href="#i" transform="matrix(1,0,0,1,405,345) translate(22.525 38.4625)"/><defs><path d="M240 0l2-218c-23 76-54 145-80 218h-23L58-218 59 0H30v-248h44l77 211c21-75 51-140 76-211h43V0h-30" id="j"/><path d="M27 0v-27h64v-190l-56 39v-29l58-41h29v221h61V0H27" id="k"/><g id="a"><use transform="matrix(0.05,0,0,0.05,0,0)" xlink:href="#j"/><use transform="matrix(0.05,0,0,0.05,14.950000000000001,0)" xlink:href="#k"/></g><path d="M101-251c82-7 93 87 43 132L82-64C71-53 59-42 53-27h129V0H18c2-99 128-94 128-182 0-28-16-43-45-43s-46 15-49 41l-32-3c6-41 34-60 81-64" id="l"/><g id="b"><use transform="matrix(0.05,0,0,0.05,0,0)" xlink:href="#j"/><use transform="matrix(0.05,0,0,0.05,14.950000000000001,0)" xlink:href="#l"/></g><path d="M126-127c33 6 58 20 58 59 0 88-139 92-164 29-3-8-5-16-6-25l32-3c6 27 21 44 54 44 32 0 52-15 52-46 0-38-36-46-79-43v-28c39 1 72-4 72-42 0-27-17-43-46-43-28 0-47 15-49 41l-32-3c6-42 35-63 81-64 48-1 79 21 79 65 0 36-21 52-52 59" id="m"/><g id="c"><use transform="matrix(0.05,0,0,0.05,0,0)" xlink:href="#j"/><use transform="matrix(0.05,0,0,0.05,14.950000000000001,0)" xlink:href="#m"/></g><path d="M155-56V0h-30v-56H8v-25l114-167h33v167h35v25h-35zm-30-156c-27 46-58 90-88 131h88v-131" id="n"/><g id="d"><use transform="matrix(0.05,0,0,0.05,0,0)" xlink:href="#j"/><use transform="matrix(0.05,0,0,0.05,14.950000000000001,0)" xlink:href="#n"/></g><path d="M54-142c48-35 137-8 131 61C196 18 31 33 14-55l32-4c7 23 22 37 52 37 35-1 51-22 54-58 4-55-73-65-99-34H22l8-134h141v27H59" id="o"/><g id="e"><use transform="matrix(0.05,0,0,0.05,0,0)" xlink:href="#j"/><use transform="matrix(0.05,0,0,0.05,14.950000000000001,0)" xlink:href="#o"/></g><path d="M110-160c48 1 74 30 74 79 0 53-28 85-80 85-65 0-83-55-86-122-5-90 50-162 133-122 14 7 22 21 27 39l-31 6c-5-40-67-38-82-6-9 19-15 44-15 74 11-20 30-34 60-33zm-7 138c34 0 49-23 49-58s-16-56-50-56c-29 0-50 16-49 49 1 36 15 65 50 65" id="p"/><g id="f"><use transform="matrix(0.05,0,0,0.05,0,0)" xlink:href="#j"/><use transform="matrix(0.05,0,0,0.05,14.950000000000001,0)" xlink:href="#p"/></g><path d="M64 0c3-98 48-159 88-221H18v-27h164v26C143-157 98-101 97 0H64" id="q"/><g id="g"><use transform="matrix(0.05,0,0,0.05,0,0)" xlink:href="#j"/><use transform="matrix(0.05,0,0,0.05,14.950000000000001,0)" xlink:href="#q"/></g><path d="M134-131c28 9 52 24 51 62-1 50-34 73-85 73S17-19 16-69c0-36 21-54 49-61-75-25-45-126 34-121 46 3 78 18 79 63 0 33-17 51-44 57zm-34-11c31 1 46-15 46-44 0-28-17-43-47-42-29 0-46 13-45 42 1 28 16 44 46 44zm1 122c35 0 51-18 51-52 0-30-18-46-53-46-33 0-51 17-51 47 0 34 19 51 53 51" id="r"/><g id="h"><use transform="matrix(0.05,0,0,0.05,0,0)" xlink:href="#j"/><use transform="matrix(0.05,0,0,0.05,14.950000000000001,0)" xlink:href="#r"/></g><path d="M99-251c64 0 84 50 84 122C183-37 130 33 47-8c-14-7-20-23-25-40l30-5c6 39 69 39 84 7 9-19 16-44 16-74-10 22-31 35-62 35-49 0-73-33-73-83 0-54 28-83 82-83zm-1 141c31-1 51-18 51-49 0-36-14-67-51-67-34 0-49 23-49 58 0 34 15 58 49 58" id="s"/><g id="i"><use transform="matrix(0.05,0,0,0.05,0,0)" xlink:href="#j"/><use transform="matrix(0.05,0,0,0.05,14.950000000000001,0)" xlink:href="#s"/></g></defs></g></svg>