<svg xmlns="http://www.w3.org/2000/svg" xmlns:xlink="http://www.w3.org/1999/xlink" xmlns:lucid="lucid" width="720" height="420"><g transform="translate(-180 -120)" lucid:page-tab-id="0_0"><path d="M0 0h1870.4v1323.2H0z" fill="#fff"/><path d="M200 140h120v100H200z" stroke="#000" stroke-width="2" fill="#fff"/><use xlink:href="#a" transform="matrix(1,0,0,1,205,145) translate(27.075 36.9)"/><use xlink:href="#b" transform="matrix(1,0,0,1,205,145) translate(17.125 58.5)"/><path d="M200 280h120v100H200z" stroke="#000" stroke-width="2" fill="#fff"/><use xlink:href="#a" transform="matrix(1,0,0,1,205,285) translate(27.075 36.9)"/><use xlink:href="#b" transform="matrix(1,0,0,1,205,285) translate(17.125 58.5)"/><path d="M200 420h120v100H200z" stroke="#000" stroke-width="2" fill="#fff"/><use xlink:href="#a" transform="matrix(1,0,0,1,205,425) translate(27.075 36.9)"/><use xlink:href="#b" transform="matrix(1,0,0,1,205,425) translate(17.125 58.5)"/><path d="M440 250h80v160h-80z" stroke="#000" stroke-width="2" fill="#fff"/><use xlink:href="#c" transform="matrix(1,0,0,1,445,255) translate(12.7 80.025)"/><path d="M880 368c0 6.63-26.86 12-60 12s-60-5.37-60-12v-96c0-6.63 26.86-12 60-12s60 5.37 60 12z" stroke="#000" stroke-width="2" fill="#fff"/><path d="M880 272c0 6.63-26.86 12-60 12s-60-5.37-60-12" stroke="#000" stroke-width="2" fill="none"/><use xlink:href="#d" transform="matrix(1,0,0,1,765,289) translate(12.5 35.9)"/><use xlink:href="#e" transform="matrix(1,0,0,1,765,289) translate(77.5 35.9)"/><use xlink:href="#f" transform="matrix(1,0,0,1,765,289) translate(29.025 57.5)"/><path d="M322 200h58v90.86h40.5" stroke="#000" stroke-width="2" fill="none"/><path d="M322.03 201H321v-2h1.03z"/><path d="M435.76 290.86l-14.26 4.63v-9.28z" stroke="#000" stroke-width="2"/><path d="M322 330h98.5" stroke="#000" stroke-width="2" fill="none"/><path d="M322.03 331H321v-2h1.03z"/><path d="M435.76 330l-14.26 4.64v-9.28z" stroke="#000" stroke-width="2"/><path d="M322 470h58v-98.16h40.5" stroke="#000" stroke-width="2" fill="none"/><path d="M322.03 471H321v-2h1.03z"/><path d="M435.76 371.84l-14.26 4.64v-9.27z" stroke="#000" stroke-width="2"/><path d="M520 250h80v160h-80z" stroke="#000" stroke-width="2" fill="#fff"/><use xlink:href="#g" transform="matrix(1,0,0,1,525,255) translate(-1.9000000000000057 67.8)"/><use xlink:href="#h" transform="matrix(1,0,0,1,525,255) translate(12.524999999999999 89.4)"/><path d="M600 250h80v160h-80z" stroke="#000" stroke-width="2" fill="#fff"/><use xlink:href="#i" transform="matrix(1,0,0,1,605,255) translate(5.549999999999997 80.025)"/><path d="M682 330h58.5" stroke="#000" stroke-width="2" fill="none"/><path d="M682.03 331H681v-2h1.03z"/><path d="M755.76 330l-14.26 4.64v-9.28z" stroke="#000" stroke-width="2"/><path d="M440 200h240v60H440z" stroke="#000" stroke-opacity="0" stroke-width="2" fill="#fff" fill-opacity="0"/><g><use xlink:href="#j" transform="matrix(1,0,0,1,445,205) translate(55.25 30.025)"/><use xlink:href="#k" transform="matrix(1,0,0,1,445,205) translate(138.15 30.025)"/></g><defs><path d="M212-179c-10-28-35-45-73-45-59 0-87 40-87 99 0 60 29 101 89 101 43 0 62-24 78-52l27 14C228-24 195 4 139 4 59 4 22-46 18-125c-6-104 99-153 187-111 19 9 31 26 39 46" id="l"/><path d="M24 0v-261h32V0H24" id="m"/><path d="M24-231v-30h32v30H24zM24 0v-190h32V0H24" id="n"/><path d="M100-194c63 0 86 42 84 106H49c0 40 14 67 53 68 26 1 43-12 49-29l28 8c-11 28-37 45-77 45C44 4 14-33 15-96c1-61 26-98 85-98zm52 81c6-60-76-77-97-28-3 7-6 17-6 28h103" id="o"/><path d="M117-194c89-4 53 116 60 194h-32v-121c0-31-8-49-39-48C34-167 62-67 57 0H25l-1-190h30c1 10-1 24 2 32 11-22 29-35 61-36" id="p"/><path d="M59-47c-2 24 18 29 38 22v24C64 9 27 4 27-40v-127H5v-23h24l9-43h21v43h35v23H59v120" id="q"/><g id="a"><use transform="matrix(0.05,0,0,0.05,0,0)" xlink:href="#l"/><use transform="matrix(0.05,0,0,0.05,12.950000000000001,0)" xlink:href="#m"/><use transform="matrix(0.05,0,0,0.05,16.900000000000002,0)" xlink:href="#n"/><use transform="matrix(0.05,0,0,0.05,20.85,0)" xlink:href="#o"/><use transform="matrix(0.05,0,0,0.05,30.85,0)" xlink:href="#p"/><use transform="matrix(0.05,0,0,0.05,40.85,0)" xlink:href="#q"/><use transform="matrix(0.05,0,0,0.05,45.85,0)" xlink:href="#o"/></g><path d="M87 75C49 33 22-17 22-94c0-76 28-126 65-167h31c-38 41-64 92-64 168S80 34 118 75H87" id="r"/><path d="M115-194c53 0 69 39 70 98 0 66-23 100-70 100C84 3 66-7 56-30L54 0H23l1-261h32v101c10-23 28-34 59-34zm-8 174c40 0 45-34 45-75 0-40-5-75-45-74-42 0-51 32-51 76 0 43 10 73 51 73" id="s"/><path d="M114-163C36-179 61-72 57 0H25l-1-190h30c1 12-1 29 2 39 6-27 23-49 58-41v29" id="t"/><path d="M100-194c62-1 85 37 85 99 1 63-27 99-86 99S16-35 15-95c0-66 28-99 85-99zM99-20c44 1 53-31 53-75 0-43-8-75-51-75s-53 32-53 75 10 74 51 75" id="u"/><path d="M206 0h-36l-40-164L89 0H53L-1-190h32L70-26l43-164h34l41 164 42-164h31" id="v"/><path d="M135-143c-3-34-86-38-87 0 15 53 115 12 119 90S17 21 10-45l28-5c4 36 97 45 98 0-10-56-113-15-118-90-4-57 82-63 122-42 12 7 21 19 24 35" id="w"/><path d="M33-261c38 41 65 92 65 168S71 34 33 75H2C39 34 66-17 66-93S39-220 2-261h31" id="x"/><g id="b"><use transform="matrix(0.05,0,0,0.05,0,0)" xlink:href="#r"/><use transform="matrix(0.05,0,0,0.05,5.95,0)" xlink:href="#s"/><use transform="matrix(0.05,0,0,0.05,15.949999999999998,0)" xlink:href="#t"/><use transform="matrix(0.05,0,0,0.05,21.9,0)" xlink:href="#u"/><use transform="matrix(0.05,0,0,0.05,31.899999999999995,0)" xlink:href="#v"/><use transform="matrix(0.05,0,0,0.05,44.85,0)" xlink:href="#w"/><use transform="matrix(0.05,0,0,0.05,53.85,0)" xlink:href="#o"/><use transform="matrix(0.05,0,0,0.05,63.85,0)" xlink:href="#t"/><use transform="matrix(0.05,0,0,0.05,69.8,0)" xlink:href="#x"/></g><path d="M137 0h-34L2-248h35l83 218 83-218h36" id="y"/><path d="M141-36C126-15 110 5 73 4 37 3 15-17 15-53c-1-64 63-63 125-63 3-35-9-54-41-54-24 1-41 7-42 31l-33-3c5-37 33-52 76-52 45 0 72 20 72 64v82c-1 20 7 32 28 27v20c-31 9-61-2-59-35zM48-53c0 20 12 33 32 33 41-3 63-29 60-74-43 2-92-5-92 41zm117-205c-3 23-9 48-36 47-26-1-65-44-74 0H39c4-23 8-48 36-47s64 44 74 0h16" id="z"/><g id="c"><use transform="matrix(0.05,0,0,0.05,0,0)" xlink:href="#y"/><use transform="matrix(0.05,0,0,0.05,11.65,0)" xlink:href="#n"/><use transform="matrix(0.05,0,0,0.05,15.600000000000001,0)" xlink:href="#w"/><use transform="matrix(0.05,0,0,0.05,24.6,0)" xlink:href="#z"/><use transform="matrix(0.05,0,0,0.05,34.6,0)" xlink:href="#u"/></g><path d="M160-131c35 5 61 23 61 61C221 17 115-2 30 0v-248c76 3 177-17 177 60 0 33-19 50-47 57zm-97-11c50-1 110 9 110-42 0-47-63-36-110-37v79zm0 115c55-2 124 14 124-45 0-56-70-42-124-44v89" id="A"/><path d="M141-36C126-15 110 5 73 4 37 3 15-17 15-53c-1-64 63-63 125-63 3-35-9-54-41-54-24 1-41 7-42 31l-33-3c5-37 33-52 76-52 45 0 72 20 72 64v82c-1 20 7 32 28 27v20c-31 9-61-2-59-35zM48-53c0 20 12 33 32 33 41-3 63-29 60-74-43 2-92-5-92 41" id="B"/><path d="M96-169c-40 0-48 33-48 73s9 75 48 75c24 0 41-14 43-38l32 2c-6 37-31 61-74 61-59 0-76-41-82-99-10-93 101-131 147-64 4 7 5 14 7 22l-32 3c-4-21-16-35-41-35" id="C"/><g id="d"><use transform="matrix(0.05,0,0,0.05,0,0)" xlink:href="#A"/><use transform="matrix(0.05,0,0,0.05,12,0)" xlink:href="#B"/><use transform="matrix(0.05,0,0,0.05,22,0)" xlink:href="#p"/><use transform="matrix(0.05,0,0,0.05,32,0)" xlink:href="#C"/><use transform="matrix(0.05,0,0,0.05,41,0)" xlink:href="#u"/><use transform="matrix(0.05,0,0,0.05,51,0)" xlink:href="#w"/></g><path d="M85-194c31 0 48 13 60 33l-1-100h32l1 261h-30c-2-10 0-23-3-31C134-8 116 4 85 4 32 4 16-35 15-94c0-66 23-100 70-100zm9 24c-40 0-46 34-46 75 0 40 6 74 45 74 42 0 51-32 51-76 0-42-9-74-50-73" id="D"/><g id="e"><use transform="matrix(0.05,0,0,0.05,0,0)" xlink:href="#D"/><use transform="matrix(0.05,0,0,0.05,10,0)" xlink:href="#o"/></g><path d="M30-248c118-7 216 8 213 122C240-48 200 0 122 0H30v-248zM63-27c89 8 146-16 146-99s-60-101-146-95v194" id="E"/><g id="f"><use transform="matrix(0.05,0,0,0.05,0,0)" xlink:href="#E"/><use transform="matrix(0.05,0,0,0.05,12.950000000000001,0)" xlink:href="#B"/><use transform="matrix(0.05,0,0,0.05,22.950000000000003,0)" xlink:href="#D"/><use transform="matrix(0.05,0,0,0.05,32.95,0)" xlink:href="#u"/><use transform="matrix(0.05,0,0,0.05,42.95,0)" xlink:href="#w"/></g><path d="M16-82v-28h88v28H16" id="F"/><g id="g"><use transform="matrix(0.05,0,0,0.05,0,0)" xlink:href="#l"/><use transform="matrix(0.05,0,0,0.05,12.950000000000001,0)" xlink:href="#u"/><use transform="matrix(0.05,0,0,0.05,22.950000000000003,0)" xlink:href="#p"/><use transform="matrix(0.05,0,0,0.05,32.95,0)" xlink:href="#q"/><use transform="matrix(0.05,0,0,0.05,37.95,0)" xlink:href="#t"/><use transform="matrix(0.05,0,0,0.05,43.900000000000006,0)" xlink:href="#u"/><use transform="matrix(0.05,0,0,0.05,53.900000000000006,0)" xlink:href="#m"/><use transform="matrix(0.05,0,0,0.05,57.85,0)" xlink:href="#B"/><use transform="matrix(0.05,0,0,0.05,67.85000000000001,0)" xlink:href="#F"/></g><g id="h"><use transform="matrix(0.05,0,0,0.05,0,0)" xlink:href="#D"/><use transform="matrix(0.05,0,0,0.05,10,0)" xlink:href="#u"/><use transform="matrix(0.05,0,0,0.05,20,0)" xlink:href="#t"/><use transform="matrix(0.05,0,0,0.05,25.950000000000003,0)" xlink:href="#o"/><use transform="matrix(0.05,0,0,0.05,35.95,0)" xlink:href="#w"/></g><path d="M240 0l2-218c-23 76-54 145-80 218h-23L58-218 59 0H30v-248h44l77 211c21-75 51-140 76-211h43V0h-30" id="G"/><g id="i"><use transform="matrix(0.05,0,0,0.05,0,0)" xlink:href="#G"/><use transform="matrix(0.05,0,0,0.05,14.950000000000001,0)" xlink:href="#u"/><use transform="matrix(0.05,0,0,0.05,24.950000000000003,0)" xlink:href="#D"/><use transform="matrix(0.05,0,0,0.05,34.95,0)" xlink:href="#o"/><use transform="matrix(0.05,0,0,0.05,44.95,0)" xlink:href="#m"/><use transform="matrix(0.05,0,0,0.05,48.900000000000006,0)" xlink:href="#u"/></g><path d="M205 0l-28-72H64L36 0H1l101-248h38L239 0h-34zm-38-99l-47-123c-12 45-31 82-46 123h93" id="H"/><path d="M115-194c55 1 70 41 70 98S169 2 115 4C84 4 66-9 55-30l1 105H24l-1-265h31l2 30c10-21 28-34 59-34zm-8 174c40 0 45-34 45-75s-6-73-45-74c-42 0-51 32-51 76 0 43 10 73 51 73" id="I"/><path d="M96-169c-40 0-48 33-48 73s9 75 48 75c24 0 41-14 43-38l32 2c-6 37-31 61-74 61-59 0-76-41-82-99-10-93 101-131 147-64 4 7 5 14 7 22l-32 3c-4-21-16-35-41-35zm3 187c19-1 33 8 33 26 0 31-30 33-64 32V58c18 2 39 4 41-13 1-15-18-13-34-13L87 0h19" id="J"/><g id="j"><use transform="matrix(0.05,0,0,0.05,0,0)" xlink:href="#H"/><use transform="matrix(0.05,0,0,0.05,12,0)" xlink:href="#I"/><use transform="matrix(0.05,0,0,0.05,22,0)" xlink:href="#m"/><use transform="matrix(0.05,0,0,0.05,25.950000000000003,0)" xlink:href="#n"/><use transform="matrix(0.05,0,0,0.05,29.899999999999995,0)" xlink:href="#C"/><use transform="matrix(0.05,0,0,0.05,38.9,0)" xlink:href="#B"/><use transform="matrix(0.05,0,0,0.05,48.9,0)" xlink:href="#J"/><use transform="matrix(0.05,0,0,0.05,57.900000000000006,0)" xlink:href="#z"/><use transform="matrix(0.05,0,0,0.05,67.9,0)" xlink:href="#u"/></g><path d="M266 0h-40l-56-210L115 0H75L2-248h35L96-30l15-64 43-154h32l59 218 59-218h35" id="K"/><g id="k"><use transform="matrix(0.05,0,0,0.05,0,0)" xlink:href="#K"/><use transform="matrix(0.05,0,0,0.05,16.599999999999998,0)" xlink:href="#o"/><use transform="matrix(0.05,0,0,0.05,26.599999999999994,0)" xlink:href="#s"/></g></defs></g></svg>