<svg xmlns="http://www.w3.org/2000/svg" xmlns:xlink="http://www.w3.org/1999/xlink" xmlns:lucid="lucid" width="800" height="520"><g transform="translate(-120 -120)" lucid:page-tab-id="0_0"><path d="M0 0h1870.4v1323.2H0z" fill="#fff"/><path d="M200 140h120v100H200z" stroke="#000" stroke-width="2" fill="#fff"/><use xlink:href="#a" transform="matrix(1,0,0,1,205,145) translate(27.075 25.65)"/><use xlink:href="#b" transform="matrix(1,0,0,1,205,145) translate(17.575000000000003 47.25)"/><use xlink:href="#c" transform="matrix(1,0,0,1,205,145) translate(25.075 68.85000000000001)"/><path d="M200 280h120v100H200z" stroke="#000" stroke-width="2" fill="#fff"/><use xlink:href="#a" transform="matrix(1,0,0,1,205,285) translate(27.075 25.65)"/><use xlink:href="#b" transform="matrix(1,0,0,1,205,285) translate(17.575000000000003 47.25)"/><use xlink:href="#c" transform="matrix(1,0,0,1,205,285) translate(25.075 68.85000000000001)"/><path d="M200 420h120v100H200z" stroke="#000" stroke-width="2" fill="#fff"/><use xlink:href="#a" transform="matrix(1,0,0,1,205,425) translate(27.075 25.65)"/><use xlink:href="#b" transform="matrix(1,0,0,1,205,425) translate(17.575000000000003 47.25)"/><use xlink:href="#c" transform="matrix(1,0,0,1,205,425) translate(25.075 68.85000000000001)"/><path d="M440 250h160v160H440z" stroke="#000" stroke-width="2" fill="#fff"/><use xlink:href="#d" transform="matrix(1,0,0,1,445,255) translate(7.125 65.9625)"/><use xlink:href="#e" transform="matrix(1,0,0,1,445,255) translate(90.025 65.9625)"/><use xlink:href="#f" transform="matrix(1,0,0,1,445,255) translate(28.049999999999997 87.5625)"/><use xlink:href="#g" transform="matrix(1,0,0,1,445,255) translate(53.05 87.5625)"/><path d="M840 368c0 6.63-26.86 12-60 12s-60-5.37-60-12v-96c0-6.63 26.86-12 60-12s60 5.37 60 12z" stroke="#000" stroke-width="2" fill="#fff"/><path d="M840 272c0 6.63-26.86 12-60 12s-60-5.37-60-12" stroke="#000" stroke-width="2" fill="none"/><use xlink:href="#h" transform="matrix(1,0,0,1,725,289) translate(12.5 35.9)"/><use xlink:href="#i" transform="matrix(1,0,0,1,725,289) translate(77.5 35.9)"/><use xlink:href="#j" transform="matrix(1,0,0,1,725,289) translate(29.025 57.5)"/><path d="M322 200h58v91.33h40.5" stroke="#000" stroke-width="2" fill="none"/><path d="M322.03 201H321v-2h1.03z"/><path d="M435.76 291.33l-14.26 4.64v-9.27z" stroke="#000" stroke-width="2"/><path d="M322 330h98.5" stroke="#000" stroke-width="2" fill="none"/><path d="M322.03 331H321v-2h1.03z"/><path d="M435.76 330l-14.26 4.64v-9.28z" stroke="#000" stroke-width="2"/><path d="M322 470h58v-98.67h40.5" stroke="#000" stroke-width="2" fill="none"/><path d="M322.03 471H321v-2h1.03z"/><path d="M435.76 371.33l-14.26 4.64v-9.27z" stroke="#000" stroke-width="2"/><path d="M602 330h98.5" stroke="#000" stroke-width="2" fill="none"/><path d="M602.03 331H601v-2h1.03z"/><path d="M715.76 330l-14.26 4.64v-9.28z" stroke="#000" stroke-width="2"/><g fill="none"><path d="M340 540v42.67H180V540z"/><path d="M180 540c0 5.52 4.48 10 10 10h60c5.52 0 10 4.48 10 10 0-5.52 4.48-10 10-10h60c5.52 0 10-4.48 10-10" stroke="#000" stroke-width="2"/></g><g fill="none"><path d="M600 540v42.67H440V540z"/><path d="M440 540c0 5.52 4.48 10 10 10h60c5.52 0 10 4.48 10 10 0-5.52 4.48-10 10-10h60c5.52 0 10-4.48 10-10" stroke="#000" stroke-width="2"/></g><g fill="none"><path d="M860 540v42.67H700V540z"/><path d="M700 540c0 5.52 4.48 10 10 10h60c5.52 0 10 4.48 10 10 0-5.52 4.48-10 10-10h60c5.52 0 10-4.48 10-10" stroke="#000" stroke-width="2"/></g><path d="M140 560h240v60H140z" stroke="#000" stroke-opacity="0" stroke-width="2" fill="#fff" fill-opacity="0"/><g><use xlink:href="#k" transform="matrix(1,0,0,1,145,565) translate(73.55 30.025)"/><use xlink:href="#l" transform="matrix(1,0,0,1,145,565) translate(146.45 30.025)"/></g><path d="M400 560h240v60H400z" stroke="#000" stroke-opacity="0" stroke-width="2" fill="#fff" fill-opacity="0"/><g><use xlink:href="#k" transform="matrix(1,0,0,1,405,565) translate(73.55 30.025)"/><use xlink:href="#m" transform="matrix(1,0,0,1,405,565) translate(146.45 30.025)"/></g><path d="M660 560h240v60H660z" stroke="#000" stroke-opacity="0" stroke-width="2" fill="#fff" fill-opacity="0"/><g><use xlink:href="#k" transform="matrix(1,0,0,1,665,565) translate(73.55 30.025)"/><use xlink:href="#n" transform="matrix(1,0,0,1,665,565) translate(146.45 30.025)"/></g><defs><path d="M212-179c-10-28-35-45-73-45-59 0-87 40-87 99 0 60 29 101 89 101 43 0 62-24 78-52l27 14C228-24 195 4 139 4 59 4 22-46 18-125c-6-104 99-153 187-111 19 9 31 26 39 46" id="o"/><path d="M24 0v-261h32V0H24" id="p"/><path d="M24-231v-30h32v30H24zM24 0v-190h32V0H24" id="q"/><path d="M100-194c63 0 86 42 84 106H49c0 40 14 67 53 68 26 1 43-12 49-29l28 8c-11 28-37 45-77 45C44 4 14-33 15-96c1-61 26-98 85-98zm52 81c6-60-76-77-97-28-3 7-6 17-6 28h103" id="r"/><path d="M117-194c89-4 53 116 60 194h-32v-121c0-31-8-49-39-48C34-167 62-67 57 0H25l-1-190h30c1 10-1 24 2 32 11-22 29-35 61-36" id="s"/><path d="M59-47c-2 24 18 29 38 22v24C64 9 27 4 27-40v-127H5v-23h24l9-43h21v43h35v23H59v120" id="t"/><g id="a"><use transform="matrix(0.05,0,0,0.05,0,0)" xlink:href="#o"/><use transform="matrix(0.05,0,0,0.05,12.950000000000001,0)" xlink:href="#p"/><use transform="matrix(0.05,0,0,0.05,16.900000000000002,0)" xlink:href="#q"/><use transform="matrix(0.05,0,0,0.05,20.85,0)" xlink:href="#r"/><use transform="matrix(0.05,0,0,0.05,30.85,0)" xlink:href="#s"/><use transform="matrix(0.05,0,0,0.05,40.85,0)" xlink:href="#t"/><use transform="matrix(0.05,0,0,0.05,45.85,0)" xlink:href="#r"/></g><path d="M87 75C49 33 22-17 22-94c0-76 28-126 65-167h31c-38 41-64 92-64 168S80 34 118 75H87" id="u"/><path d="M114-163C36-179 61-72 57 0H25l-1-190h30c1 12-1 29 2 39 6-27 23-49 58-41v29" id="v"/><path d="M101-234c-31-9-42 10-38 44h38v23H63V0H32v-167H5v-23h27c-7-52 17-82 69-68v24" id="w"/><path d="M141-36C126-15 110 5 73 4 37 3 15-17 15-53c-1-64 63-63 125-63 3-35-9-54-41-54-24 1-41 7-42 31l-33-3c5-37 33-52 76-52 45 0 72 20 72 64v82c-1 20 7 32 28 27v20c-31 9-61-2-59-35zM48-53c0 20 12 33 32 33 41-3 63-29 60-74-43 2-92-5-92 41" id="x"/><path d="M96-169c-40 0-48 33-48 73s9 75 48 75c24 0 41-14 43-38l32 2c-6 37-31 61-74 61-59 0-76-41-82-99-10-93 101-131 147-64 4 7 5 14 7 22l-32 3c-4-21-16-35-41-35" id="y"/><g id="b"><use transform="matrix(0.05,0,0,0.05,0,0)" xlink:href="#u"/><use transform="matrix(0.05,0,0,0.05,5.95,0)" xlink:href="#q"/><use transform="matrix(0.05,0,0,0.05,9.9,0)" xlink:href="#s"/><use transform="matrix(0.05,0,0,0.05,19.9,0)" xlink:href="#t"/><use transform="matrix(0.05,0,0,0.05,24.9,0)" xlink:href="#r"/><use transform="matrix(0.05,0,0,0.05,34.9,0)" xlink:href="#v"/><use transform="matrix(0.05,0,0,0.05,40.85,0)" xlink:href="#w"/><use transform="matrix(0.05,0,0,0.05,45.85,0)" xlink:href="#x"/><use transform="matrix(0.05,0,0,0.05,55.85,0)" xlink:href="#y"/><use transform="matrix(0.05,0,0,0.05,64.85,0)" xlink:href="#r"/></g><path d="M177-190C167-65 218 103 67 71c-23-6-38-20-44-43l32-5c15 47 100 32 89-28v-30C133-14 115 1 83 1 29 1 15-40 15-95c0-56 16-97 71-98 29-1 48 16 59 35 1-10 0-23 2-32h30zM94-22c36 0 50-32 50-73 0-42-14-75-50-75-39 0-46 34-46 75s6 73 46 73" id="z"/><path d="M141-36C126-15 110 5 73 4 37 3 15-17 15-53c-1-64 63-63 125-63 3-35-9-54-41-54-24 1-41 7-42 31l-33-3c5-37 33-52 76-52 45 0 72 20 72 64v82c-1 20 7 32 28 27v20c-31 9-61-2-59-35zM48-53c0 20 12 33 32 33 41-3 63-29 60-74-43 2-92-5-92 41zm25-158c8-23 27-35 38-54h36v5l-58 49H73" id="A"/><path d="M33-261c38 41 65 92 65 168S71 34 33 75H2C39 34 66-17 66-93S39-220 2-261h31" id="B"/><g id="c"><use transform="matrix(0.05,0,0,0.05,0,0)" xlink:href="#z"/><use transform="matrix(0.05,0,0,0.05,10,0)" xlink:href="#v"/><use transform="matrix(0.05,0,0,0.05,15.949999999999998,0)" xlink:href="#A"/><use transform="matrix(0.05,0,0,0.05,25.950000000000003,0)" xlink:href="#w"/><use transform="matrix(0.05,0,0,0.05,30.950000000000003,0)" xlink:href="#q"/><use transform="matrix(0.05,0,0,0.05,34.9,0)" xlink:href="#y"/><use transform="matrix(0.05,0,0,0.05,43.9,0)" xlink:href="#x"/><use transform="matrix(0.05,0,0,0.05,53.900000000000006,0)" xlink:href="#B"/></g><path d="M205 0l-28-72H64L36 0H1l101-248h38L239 0h-34zm-38-99l-47-123c-12 45-31 82-46 123h93" id="C"/><path d="M115-194c55 1 70 41 70 98S169 2 115 4C84 4 66-9 55-30l1 105H24l-1-265h31l2 30c10-21 28-34 59-34zm-8 174c40 0 45-34 45-75s-6-73-45-74c-42 0-51 32-51 76 0 43 10 73 51 73" id="D"/><path d="M96-169c-40 0-48 33-48 73s9 75 48 75c24 0 41-14 43-38l32 2c-6 37-31 61-74 61-59 0-76-41-82-99-10-93 101-131 147-64 4 7 5 14 7 22l-32 3c-4-21-16-35-41-35zm3 187c19-1 33 8 33 26 0 31-30 33-64 32V58c18 2 39 4 41-13 1-15-18-13-34-13L87 0h19" id="E"/><path d="M141-36C126-15 110 5 73 4 37 3 15-17 15-53c-1-64 63-63 125-63 3-35-9-54-41-54-24 1-41 7-42 31l-33-3c5-37 33-52 76-52 45 0 72 20 72 64v82c-1 20 7 32 28 27v20c-31 9-61-2-59-35zM48-53c0 20 12 33 32 33 41-3 63-29 60-74-43 2-92-5-92 41zm117-205c-3 23-9 48-36 47-26-1-65-44-74 0H39c4-23 8-48 36-47s64 44 74 0h16" id="F"/><path d="M100-194c62-1 85 37 85 99 1 63-27 99-86 99S16-35 15-95c0-66 28-99 85-99zM99-20c44 1 53-31 53-75 0-43-8-75-51-75s-53 32-53 75 10 74 51 75" id="G"/><g id="d"><use transform="matrix(0.05,0,0,0.05,0,0)" xlink:href="#C"/><use transform="matrix(0.05,0,0,0.05,12,0)" xlink:href="#D"/><use transform="matrix(0.05,0,0,0.05,22,0)" xlink:href="#p"/><use transform="matrix(0.05,0,0,0.05,25.950000000000003,0)" xlink:href="#q"/><use transform="matrix(0.05,0,0,0.05,29.899999999999995,0)" xlink:href="#y"/><use transform="matrix(0.05,0,0,0.05,38.9,0)" xlink:href="#x"/><use transform="matrix(0.05,0,0,0.05,48.9,0)" xlink:href="#E"/><use transform="matrix(0.05,0,0,0.05,57.900000000000006,0)" xlink:href="#F"/><use transform="matrix(0.05,0,0,0.05,67.9,0)" xlink:href="#G"/></g><path d="M100-194c62-1 85 37 85 99 1 63-27 99-86 99S16-35 15-95c0-66 28-99 85-99zM99-20c44 1 53-31 53-75 0-43-8-75-51-75s-53 32-53 75 10 74 51 75zM76-211c8-23 27-35 38-54h36v5l-58 49H76" id="H"/><g id="e"><use transform="matrix(0.05,0,0,0.05,0,0)" xlink:href="#u"/><use transform="matrix(0.05,0,0,0.05,5.95,0)" xlink:href="#p"/><use transform="matrix(0.05,0,0,0.05,9.9,0)" xlink:href="#H"/><use transform="matrix(0.05,0,0,0.05,19.9,0)" xlink:href="#z"/><use transform="matrix(0.05,0,0,0.05,29.899999999999995,0)" xlink:href="#q"/><use transform="matrix(0.05,0,0,0.05,33.85,0)" xlink:href="#y"/><use transform="matrix(0.05,0,0,0.05,42.85,0)" xlink:href="#x"/></g><path d="M85-194c31 0 48 13 60 33l-1-100h32l1 261h-30c-2-10 0-23-3-31C134-8 116 4 85 4 32 4 16-35 15-94c0-66 23-100 70-100zm9 24c-40 0-46 34-46 75 0 40 6 74 45 74 42 0 51-32 51-76 0-42-9-74-50-73" id="I"/><g id="f"><use transform="matrix(0.05,0,0,0.05,0,0)" xlink:href="#I"/><use transform="matrix(0.05,0,0,0.05,10,0)" xlink:href="#r"/></g><g id="g"><use transform="matrix(0.05,0,0,0.05,0,0)" xlink:href="#s"/><use transform="matrix(0.05,0,0,0.05,10,0)" xlink:href="#r"/><use transform="matrix(0.05,0,0,0.05,20,0)" xlink:href="#z"/><use transform="matrix(0.05,0,0,0.05,30,0)" xlink:href="#H"/><use transform="matrix(0.05,0,0,0.05,40,0)" xlink:href="#y"/><use transform="matrix(0.05,0,0,0.05,49,0)" xlink:href="#q"/><use transform="matrix(0.05,0,0,0.05,52.95,0)" xlink:href="#G"/><use transform="matrix(0.05,0,0,0.05,62.95,0)" xlink:href="#B"/></g><path d="M160-131c35 5 61 23 61 61C221 17 115-2 30 0v-248c76 3 177-17 177 60 0 33-19 50-47 57zm-97-11c50-1 110 9 110-42 0-47-63-36-110-37v79zm0 115c55-2 124 14 124-45 0-56-70-42-124-44v89" id="J"/><path d="M135-143c-3-34-86-38-87 0 15 53 115 12 119 90S17 21 10-45l28-5c4 36 97 45 98 0-10-56-113-15-118-90-4-57 82-63 122-42 12 7 21 19 24 35" id="K"/><g id="h"><use transform="matrix(0.05,0,0,0.05,0,0)" xlink:href="#J"/><use transform="matrix(0.05,0,0,0.05,12,0)" xlink:href="#x"/><use transform="matrix(0.05,0,0,0.05,22,0)" xlink:href="#s"/><use transform="matrix(0.05,0,0,0.05,32,0)" xlink:href="#y"/><use transform="matrix(0.05,0,0,0.05,41,0)" xlink:href="#G"/><use transform="matrix(0.05,0,0,0.05,51,0)" xlink:href="#K"/></g><g id="i"><use transform="matrix(0.05,0,0,0.05,0,0)" xlink:href="#I"/><use transform="matrix(0.05,0,0,0.05,10,0)" xlink:href="#r"/></g><path d="M30-248c118-7 216 8 213 122C240-48 200 0 122 0H30v-248zM63-27c89 8 146-16 146-99s-60-101-146-95v194" id="L"/><g id="j"><use transform="matrix(0.05,0,0,0.05,0,0)" xlink:href="#L"/><use transform="matrix(0.05,0,0,0.05,12.950000000000001,0)" xlink:href="#x"/><use transform="matrix(0.05,0,0,0.05,22.950000000000003,0)" xlink:href="#I"/><use transform="matrix(0.05,0,0,0.05,32.95,0)" xlink:href="#G"/><use transform="matrix(0.05,0,0,0.05,42.95,0)" xlink:href="#K"/></g><path d="M210-169c-67 3-38 105-44 169h-31v-121c0-29-5-50-35-48C34-165 62-65 56 0H25l-1-190h30c1 10-1 24 2 32 10-44 99-50 107 0 11-21 27-35 58-36 85-2 47 119 55 194h-31v-121c0-29-5-49-35-48" id="M"/><g id="k"><use transform="matrix(0.05,0,0,0.05,0,0)" xlink:href="#o"/><use transform="matrix(0.05,0,0,0.05,12.950000000000001,0)" xlink:href="#x"/><use transform="matrix(0.05,0,0,0.05,22.950000000000003,0)" xlink:href="#M"/><use transform="matrix(0.05,0,0,0.05,37.900000000000006,0)" xlink:href="#x"/><use transform="matrix(0.05,0,0,0.05,47.900000000000006,0)" xlink:href="#I"/><use transform="matrix(0.05,0,0,0.05,57.900000000000006,0)" xlink:href="#x"/></g><path d="M27 0v-27h64v-190l-56 39v-29l58-41h29v221h61V0H27" id="N"/><use transform="matrix(0.05,0,0,0.05,0,0)" xlink:href="#N" id="l"/><path d="M101-251c82-7 93 87 43 132L82-64C71-53 59-42 53-27h129V0H18c2-99 128-94 128-182 0-28-16-43-45-43s-46 15-49 41l-32-3c6-41 34-60 81-64" id="O"/><use transform="matrix(0.05,0,0,0.05,0,0)" xlink:href="#O" id="m"/><path d="M126-127c33 6 58 20 58 59 0 88-139 92-164 29-3-8-5-16-6-25l32-3c6 27 21 44 54 44 32 0 52-15 52-46 0-38-36-46-79-43v-28c39 1 72-4 72-42 0-27-17-43-46-43-28 0-47 15-49 41l-32-3c6-42 35-63 81-64 48-1 79 21 79 65 0 36-21 52-52 59" id="P"/><use transform="matrix(0.05,0,0,0.05,0,0)" xlink:href="#P" id="n"/></defs></g></svg>