<svg xmlns="http://www.w3.org/2000/svg" xmlns:xlink="http://www.w3.org/1999/xlink" xmlns:lucid="lucid" width="380" height="512"><g transform="translate(-300 -100)" lucid:page-tab-id="0_0"><path d="M0 0h1870.4v1323.2H0z" fill="#fff"/><path d="M400 120h160v80H400z" stroke="#000" stroke-width="2" fill="#fff"/><use xlink:href="#a" transform="matrix(1,0,0,1,400,120) translate(55.505 44.4)"/><path d="M480 247l20 20-20 20-20-20zM320 320h160v80H320z" stroke="#000" stroke-width="2" fill="#fff"/><use xlink:href="#a" transform="matrix(1,0,0,1,320,320) translate(55.505 44.4)"/><path d="M500 320h160v80H500z" stroke="#000" stroke-width="2" fill="#fff"/><use xlink:href="#a" transform="matrix(1,0,0,1,500,320) translate(55.505 44.4)"/><path d="M502.4 267H580v33.5" stroke="#000" stroke-width="2" fill="none"/><path d="M502.44 268h-2.03l1-1-1-1h2.04z"/><path d="M580 315.76l-4.64-14.26h9.28z" stroke="#000" stroke-width="2"/><path d="M400 300.5V267h57.6" stroke="#000" stroke-width="2" fill="none"/><path d="M400 315.76l-4.64-14.26h9.28z" stroke="#000" stroke-width="2"/><path d="M458.6 267l1 1h-2.04v-2h2.03z"/><path d="M480 202v25.08" stroke="#000" stroke-width="2" fill="none"/><path d="M481 202.03h-2V201h2z"/><path d="M480 242.35l-4.64-14.27h9.28zM400 480h160v20H400z" stroke="#000" stroke-width="2"/><path d="M360 220h100v60H360z" stroke="#000" stroke-opacity="0" stroke-width="2" fill="#fff" fill-opacity="0"/><use xlink:href="#b" transform="matrix(1,0,0,1,365,225) translate(12.024999999999999 28.6)"/><path d="M500 220h100v60H500z" stroke="#000" stroke-opacity="0" stroke-width="2" fill="#fff" fill-opacity="0"/><use xlink:href="#c" transform="matrix(1,0,0,1,505,225) translate(23.525 28.6)"/><path d="M459.42 402v58.5" stroke="#000" stroke-width="2" fill="none"/><path d="M460.42 402.03h-2V401h2z"/><path d="M459.42 475.76l-4.64-14.26h9.27z" stroke="#000" stroke-width="2"/><path d="M518.64 402v58.5" stroke="#000" stroke-width="2" fill="none"/><path d="M519.64 402.03h-2V401h2z"/><path d="M518.64 475.76L514 461.5h9.27z" stroke="#000" stroke-width="2"/><path d="M489.08 502v60.5" stroke="#000" stroke-width="2" fill="none"/><path d="M490.08 502.03h-2V501h2z"/><path d="M489.08 577.76l-4.63-14.26h9.27z" stroke="#000" stroke-width="2"/><defs><path d="M26 75v-336h71v23H56V52h41v23H26" id="d"/><path d="M141-36C126-15 110 5 73 4 37 3 15-17 15-53c-1-64 63-63 125-63 3-35-9-54-41-54-24 1-41 7-42 31l-33-3c5-37 33-52 76-52 45 0 72 20 72 64v82c-1 20 7 32 28 27v20c-31 9-61-2-59-35zM48-53c0 20 12 33 32 33 41-3 63-29 60-74-43 2-92-5-92 41" id="e"/><path d="M96-169c-40 0-48 33-48 73s9 75 48 75c24 0 41-14 43-38l32 2c-6 37-31 61-74 61-59 0-76-41-82-99-10-93 101-131 147-64 4 7 5 14 7 22l-32 3c-4-21-16-35-41-35zm3 187c19-1 33 8 33 26 0 31-30 33-64 32V58c18 2 39 4 41-13 1-15-18-13-34-13L87 0h19" id="f"/><path d="M141-36C126-15 110 5 73 4 37 3 15-17 15-53c-1-64 63-63 125-63 3-35-9-54-41-54-24 1-41 7-42 31l-33-3c5-37 33-52 76-52 45 0 72 20 72 64v82c-1 20 7 32 28 27v20c-31 9-61-2-59-35zM48-53c0 20 12 33 32 33 41-3 63-29 60-74-43 2-92-5-92 41zm117-205c-3 23-9 48-36 47-26-1-65-44-74 0H39c4-23 8-48 36-47s64 44 74 0h16" id="g"/><path d="M100-194c62-1 85 37 85 99 1 63-27 99-86 99S16-35 15-95c0-66 28-99 85-99zM99-20c44 1 53-31 53-75 0-43-8-75-51-75s-53 32-53 75 10 74 51 75" id="h"/><path d="M3 75V52h41v-290H3v-23h71V75H3" id="i"/><g id="a"><use transform="matrix(0.05,0,0,0.05,0,0)" xlink:href="#d"/><use transform="matrix(0.05,0,0,0.05,5,0)" xlink:href="#e"/><use transform="matrix(0.05,0,0,0.05,15,0)" xlink:href="#f"/><use transform="matrix(0.05,0,0,0.05,24,0)" xlink:href="#g"/><use transform="matrix(0.05,0,0,0.05,34,0)" xlink:href="#h"/><use transform="matrix(0.05,0,0,0.05,44,0)" xlink:href="#i"/></g><path d="M177-190C167-65 218 103 67 71c-23-6-38-20-44-43l32-5c15 47 100 32 89-28v-30C133-14 115 1 83 1 29 1 15-40 15-95c0-56 16-97 71-98 29-1 48 16 59 35 1-10 0-23 2-32h30zM94-22c36 0 50-32 50-73 0-42-14-75-50-75-39 0-46 34-46 75s6 73 46 73" id="j"/><path d="M84 4C-5 8 30-112 23-190h32v120c0 31 7 50 39 49 72-2 45-101 50-169h31l1 190h-30c-1-10 1-25-2-33-11 22-28 36-60 37" id="k"/><path d="M114-163C36-179 61-72 57 0H25l-1-190h30c1 12-1 29 2 39 6-27 23-49 58-41v29" id="l"/><path d="M85-194c31 0 48 13 60 33l-1-100h32l1 261h-30c-2-10 0-23-3-31C134-8 116 4 85 4 32 4 16-35 15-94c0-66 23-100 70-100zm9 24c-40 0-46 34-46 75 0 40 6 74 45 74 42 0 51-32 51-76 0-42-9-74-50-73" id="m"/><g id="b"><use transform="matrix(0.05,0,0,0.05,0,0)" xlink:href="#d"/><use transform="matrix(0.05,0,0,0.05,5,0)" xlink:href="#j"/><use transform="matrix(0.05,0,0,0.05,15,0)" xlink:href="#k"/><use transform="matrix(0.05,0,0,0.05,25,0)" xlink:href="#e"/><use transform="matrix(0.05,0,0,0.05,35,0)" xlink:href="#l"/><use transform="matrix(0.05,0,0,0.05,40.95,0)" xlink:href="#m"/><use transform="matrix(0.05,0,0,0.05,50.95,0)" xlink:href="#e"/><use transform="matrix(0.05,0,0,0.05,60.95,0)" xlink:href="#i"/></g><path d="M100-194c63 0 86 42 84 106H49c0 40 14 67 53 68 26 1 43-12 49-29l28 8c-11 28-37 45-77 45C44 4 14-33 15-96c1-61 26-98 85-98zm52 81c6-60-76-77-97-28-3 7-6 17-6 28h103" id="n"/><path d="M24 0v-261h32V0H24" id="o"/><path d="M135-143c-3-34-86-38-87 0 15 53 115 12 119 90S17 21 10-45l28-5c4 36 97 45 98 0-10-56-113-15-118-90-4-57 82-63 122-42 12 7 21 19 24 35" id="p"/><g id="c"><use transform="matrix(0.05,0,0,0.05,0,0)" xlink:href="#d"/><use transform="matrix(0.05,0,0,0.05,5,0)" xlink:href="#n"/><use transform="matrix(0.05,0,0,0.05,15,0)" xlink:href="#o"/><use transform="matrix(0.05,0,0,0.05,18.95,0)" xlink:href="#p"/><use transform="matrix(0.05,0,0,0.05,27.950000000000003,0)" xlink:href="#n"/><use transform="matrix(0.05,0,0,0.05,37.95,0)" xlink:href="#i"/></g></defs></g></svg>