<svg xmlns="http://www.w3.org/2000/svg" xmlns:xlink="http://www.w3.org/1999/xlink" xmlns:lucid="lucid" width="280" height="181"><g transform="translate(-340 -190)" lucid:page-tab-id="0_0"><path d="M0 0h1870.4v1323.2H0z" fill="#fff"/><path d="M480 247l20 20-20 20-20-20z" stroke="#000" stroke-width="2" fill="#fff"/><path d="M502.4 267H560v54.5" stroke="#000" stroke-width="2" fill="none"/><path d="M502.44 268h-2.03l1-1-1-1h2.04z"/><path d="M560 336.76l-4.64-14.26h9.28z" stroke="#000" stroke-width="2"/><path d="M400 321.5V267h57.6" stroke="#000" stroke-width="2" fill="none"/><path d="M400 336.76l-4.64-14.26h9.28z" stroke="#000" stroke-width="2"/><path d="M458.6 267l1 1h-2.04v-2h2.03z"/><path d="M480 202v25.08M480 202.03V201" stroke="#000" stroke-width="2" fill="none"/><path d="M480 242.35l-4.64-14.27h9.28z" stroke="#000" stroke-width="2"/><path d="M360 220h100v60H360z" stroke="#000" stroke-opacity="0" stroke-width="2" fill="#fff" fill-opacity="0"/><use xlink:href="#a" transform="matrix(1,0,0,1,365,225) translate(7.024999999999999 28.6)"/><path d="M500 220h100v60H500z" stroke="#000" stroke-opacity="0" stroke-width="2" fill="#fff" fill-opacity="0"/><use xlink:href="#b" transform="matrix(1,0,0,1,505,225) translate(7.024999999999999 28.6)"/><defs><path d="M26 75v-336h71v23H56V52h41v23H26" id="c"/><path d="M177-190C167-65 218 103 67 71c-23-6-38-20-44-43l32-5c15 47 100 32 89-28v-30C133-14 115 1 83 1 29 1 15-40 15-95c0-56 16-97 71-98 29-1 48 16 59 35 1-10 0-23 2-32h30zM94-22c36 0 50-32 50-73 0-42-14-75-50-75-39 0-46 34-46 75s6 73 46 73" id="d"/><path d="M84 4C-5 8 30-112 23-190h32v120c0 31 7 50 39 49 72-2 45-101 50-169h31l1 190h-30c-1-10 1-25-2-33-11 22-28 36-60 37" id="e"/><path d="M141-36C126-15 110 5 73 4 37 3 15-17 15-53c-1-64 63-63 125-63 3-35-9-54-41-54-24 1-41 7-42 31l-33-3c5-37 33-52 76-52 45 0 72 20 72 64v82c-1 20 7 32 28 27v20c-31 9-61-2-59-35zM48-53c0 20 12 33 32 33 41-3 63-29 60-74-43 2-92-5-92 41" id="f"/><path d="M114-163C36-179 61-72 57 0H25l-1-190h30c1 12-1 29 2 39 6-27 23-49 58-41v29" id="g"/><path d="M85-194c31 0 48 13 60 33l-1-100h32l1 261h-30c-2-10 0-23-3-31C134-8 116 4 85 4 32 4 16-35 15-94c0-66 23-100 70-100zm9 24c-40 0-46 34-46 75 0 40 6 74 45 74 42 0 51-32 51-76 0-42-9-74-50-73" id="h"/><path d="M27 0v-27h64v-190l-56 39v-29l58-41h29v221h61V0H27" id="i"/><path d="M3 75V52h41v-290H3v-23h71V75H3" id="j"/><g id="a"><use transform="matrix(0.05,0,0,0.05,0,0)" xlink:href="#c"/><use transform="matrix(0.05,0,0,0.05,5,0)" xlink:href="#d"/><use transform="matrix(0.05,0,0,0.05,15,0)" xlink:href="#e"/><use transform="matrix(0.05,0,0,0.05,25,0)" xlink:href="#f"/><use transform="matrix(0.05,0,0,0.05,35,0)" xlink:href="#g"/><use transform="matrix(0.05,0,0,0.05,40.95,0)" xlink:href="#h"/><use transform="matrix(0.05,0,0,0.05,50.95,0)" xlink:href="#f"/><use transform="matrix(0.05,0,0,0.05,60.95,0)" xlink:href="#i"/><use transform="matrix(0.05,0,0,0.05,70.95,0)" xlink:href="#j"/></g><path d="M101-251c82-7 93 87 43 132L82-64C71-53 59-42 53-27h129V0H18c2-99 128-94 128-182 0-28-16-43-45-43s-46 15-49 41l-32-3c6-41 34-60 81-64" id="k"/><g id="b"><use transform="matrix(0.05,0,0,0.05,0,0)" xlink:href="#c"/><use transform="matrix(0.05,0,0,0.05,5,0)" xlink:href="#d"/><use transform="matrix(0.05,0,0,0.05,15,0)" xlink:href="#e"/><use transform="matrix(0.05,0,0,0.05,25,0)" xlink:href="#f"/><use transform="matrix(0.05,0,0,0.05,35,0)" xlink:href="#g"/><use transform="matrix(0.05,0,0,0.05,40.95,0)" xlink:href="#h"/><use transform="matrix(0.05,0,0,0.05,50.95,0)" xlink:href="#f"/><use transform="matrix(0.05,0,0,0.05,60.95,0)" xlink:href="#k"/><use transform="matrix(0.05,0,0,0.05,70.95,0)" xlink:href="#j"/></g></defs></g></svg>