<svg xmlns="http://www.w3.org/2000/svg" xmlns:xlink="http://www.w3.org/1999/xlink" xmlns:lucid="lucid" width="960" height="282"><g transform="translate(-220 -40)" lucid:page-tab-id="0_0"><path d="M0 0h1870.4v1323.2H0z" fill="#fff"/><path d="M240 80h360v199H240z" stroke="#000" stroke-width="2" fill="#fff"/><path d="M240 117.6h360m-360 80.7h360" stroke="#000" stroke-width="2" fill="none"/><use xlink:href="#a" transform="matrix(1,0,0,1,248,88) translate(140.525 14.6)"/><use xlink:href="#b" transform="matrix(1,0,0,1,252,125.6) translate(0 25.299999999999997)"/><use xlink:href="#c" transform="matrix(1,0,0,1,252,125.6) translate(54.95 25.299999999999997)"/><use xlink:href="#d" transform="matrix(1,0,0,1,252,125.6) translate(0 46.9)"/><use xlink:href="#e" transform="matrix(1,0,0,1,252,125.6) translate(99.9 46.9)"/><use xlink:href="#f" transform="matrix(1,0,0,1,252,206.3) translate(0 25.299999999999997)"/><use xlink:href="#g" transform="matrix(1,0,0,1,252,206.3) translate(144.9 25.299999999999997)"/><use xlink:href="#h" transform="matrix(1,0,0,1,252,206.3) translate(244.8 25.299999999999997)"/><use xlink:href="#i" transform="matrix(1,0,0,1,252,206.3) translate(0 46.9)"/><use xlink:href="#j" transform="matrix(1,0,0,1,252,206.3) translate(106.9 46.9)"/><path d="M800 60h360v242H800z" stroke="#000" stroke-width="2" fill="#fff"/><path d="M800 97.6h360M800 199.9h360" stroke="#000" stroke-width="2" fill="none"/><use xlink:href="#k" transform="matrix(1,0,0,1,808,68) translate(150.575 14.6)"/><use xlink:href="#l" transform="matrix(1,0,0,1,812,105.6) translate(0 25.5)"/><use xlink:href="#c" transform="matrix(1,0,0,1,812,105.6) translate(62.95 25.5)"/><use xlink:href="#m" transform="matrix(1,0,0,1,812,105.6) translate(0 47.1)"/><use xlink:href="#c" transform="matrix(1,0,0,1,812,105.6) translate(70.9 47.1)"/><use xlink:href="#n" transform="matrix(1,0,0,1,812,105.6) translate(0 68.7)"/><use xlink:href="#o" transform="matrix(1,0,0,1,812,105.6) translate(62.85000000000001 68.7)"/><use xlink:href="#p" transform="matrix(1,0,0,1,812,207.89999999999998) translate(0 25.5)"/><use xlink:href="#q" transform="matrix(1,0,0,1,812,207.89999999999998) translate(133.85000000000002 25.5)"/><use xlink:href="#r" transform="matrix(1,0,0,1,812,207.89999999999998) translate(204.75000000000003 25.5)"/><use xlink:href="#s" transform="matrix(1,0,0,1,812,207.89999999999998) translate(0 47.1)"/><use xlink:href="#c" transform="matrix(1,0,0,1,812,207.89999999999998) translate(87.85000000000001 47.1)"/><use xlink:href="#t" transform="matrix(1,0,0,1,812,207.89999999999998) translate(0 68.7)"/><use xlink:href="#o" transform="matrix(1,0,0,1,812,207.89999999999998) translate(91.65 68.7)"/><path d="M619.5 180h161" stroke="#000" stroke-width="2" fill="none"/><path d="M604.24 180l14.26-4.64v9.28zM795.76 180l-14.26 4.64v-9.28z" stroke="#000" stroke-width="2"/><path d="M640 180h240v60H640z" stroke="#000" stroke-opacity="0" stroke-width="2" fill="#fff" fill-opacity="0"/><g><use xlink:href="#u" transform="matrix(1,0,0,1,645,185) translate(92.5 28.6)"/><use xlink:href="#v" transform="matrix(1,0,0,1,645,185) translate(102.5 28.6)"/></g><path d="M640 120h240v60H640z" stroke="#000" stroke-opacity="0" stroke-width="2" fill="#fff" fill-opacity="0"/><g><use xlink:href="#w" transform="matrix(1,0,0,1,645,125) translate(100 28.6)"/></g><path d="M500 120h240v60H500z" stroke="#000" stroke-opacity="0" stroke-width="2" fill="#fff" fill-opacity="0"/><g><use xlink:href="#x" transform="matrix(1,0,0,1,505,125) translate(109.81481481481481 30.333333333333336)"/></g><path d="M520 180h240v60H520z" stroke="#000" stroke-opacity="0" stroke-width="2" fill="#fff" fill-opacity="0"/><g><use xlink:href="#y" transform="matrix(1,0,0,1,525,185) translate(95 28.6)"/></g><defs><path d="M24-248c93 1 206-16 204 79-1 75-69 88-152 82V0H24v-248zm52 121c47 0 100 7 100-41 0-47-54-39-100-39v80" id="z"/><path d="M185-48c-13 30-37 53-82 52C43 2 14-33 14-96s30-98 90-98c62 0 83 45 84 108H66c0 31 8 55 39 56 18 0 30-7 34-22zm-45-69c5-46-57-63-70-21-2 6-4 13-4 21h74" id="A"/><path d="M137-138c1-29-70-34-71-4 15 46 118 7 119 86 1 83-164 76-172 9l43-7c4 19 20 25 44 25 33 8 57-30 24-41C81-84 22-81 20-136c-2-80 154-74 161-7" id="B"/><path d="M110-194c64 0 96 36 96 99 0 64-35 99-97 99-61 0-95-36-95-99 0-62 34-99 96-99zm-1 164c35 0 45-28 45-65 0-40-10-65-43-65-34 0-45 26-45 65 0 36 10 65 43 65" id="C"/><path d="M133-34C117-15 103 5 69 4 32 3 11-16 11-54c-1-60 55-63 116-61 1-26-3-47-28-47-18 1-26 9-28 27l-52-2c7-38 36-58 82-57s74 22 75 68l1 82c-1 14 12 18 25 15v27c-30 8-71 5-69-32zm-48 3c29 0 43-24 42-57-32 0-66-3-65 30 0 17 8 27 23 27" id="D"/><g id="a"><use transform="matrix(0.05,0,0,0.05,0,0)" xlink:href="#z"/><use transform="matrix(0.05,0,0,0.05,12,0)" xlink:href="#A"/><use transform="matrix(0.05,0,0,0.05,22,0)" xlink:href="#B"/><use transform="matrix(0.05,0,0,0.05,32,0)" xlink:href="#B"/><use transform="matrix(0.05,0,0,0.05,42,0)" xlink:href="#C"/><use transform="matrix(0.05,0,0,0.05,52.95,0)" xlink:href="#D"/></g><path d="M117-194c89-4 53 116 60 194h-32v-121c0-31-8-49-39-48C34-167 62-67 57 0H25l-1-190h30c1 10-1 24 2 32 11-22 29-35 61-36" id="E"/><path d="M100-194c62-1 85 37 85 99 1 63-27 99-86 99S16-35 15-95c0-66 28-99 85-99zM99-20c44 1 53-31 53-75 0-43-8-75-51-75s-53 32-53 75 10 74 51 75" id="F"/><path d="M210-169c-67 3-38 105-44 169h-31v-121c0-29-5-50-35-48C34-165 62-65 56 0H25l-1-190h30c1 10-1 24 2 32 10-44 99-50 107 0 11-21 27-35 58-36 85-2 47 119 55 194h-31v-121c0-29-5-49-35-48" id="G"/><path d="M100-194c63 0 86 42 84 106H49c0 40 14 67 53 68 26 1 43-12 49-29l28 8c-11 28-37 45-77 45C44 4 14-33 15-96c1-61 26-98 85-98zm52 81c6-60-76-77-97-28-3 7-6 17-6 28h103" id="H"/><path d="M33-154v-36h34v36H33zM33 0v-36h34V0H33" id="I"/><g id="b"><use transform="matrix(0.05,0,0,0.05,0,0)" xlink:href="#E"/><use transform="matrix(0.05,0,0,0.05,10,0)" xlink:href="#F"/><use transform="matrix(0.05,0,0,0.05,20,0)" xlink:href="#G"/><use transform="matrix(0.05,0,0,0.05,34.95,0)" xlink:href="#H"/><use transform="matrix(0.05,0,0,0.05,44.95,0)" xlink:href="#I"/></g><path d="M185-189c-5-48-123-54-124 2 14 75 158 14 163 119 3 78-121 87-175 55-17-10-28-26-33-46l33-7c5 56 141 63 141-1 0-78-155-14-162-118-5-82 145-84 179-34 5 7 8 16 11 25" id="J"/><path d="M59-47c-2 24 18 29 38 22v24C64 9 27 4 27-40v-127H5v-23h24l9-43h21v43h35v23H59v120" id="K"/><path d="M114-163C36-179 61-72 57 0H25l-1-190h30c1 12-1 29 2 39 6-27 23-49 58-41v29" id="L"/><path d="M24-231v-30h32v30H24zM24 0v-190h32V0H24" id="M"/><path d="M177-190C167-65 218 103 67 71c-23-6-38-20-44-43l32-5c15 47 100 32 89-28v-30C133-14 115 1 83 1 29 1 15-40 15-95c0-56 16-97 71-98 29-1 48 16 59 35 1-10 0-23 2-32h30zM94-22c36 0 50-32 50-73 0-42-14-75-50-75-39 0-46 34-46 75s6 73 46 73" id="N"/><g id="c"><use transform="matrix(0.05,0,0,0.05,0,0)" xlink:href="#J"/><use transform="matrix(0.05,0,0,0.05,12,0)" xlink:href="#K"/><use transform="matrix(0.05,0,0,0.05,17,0)" xlink:href="#L"/><use transform="matrix(0.05,0,0,0.05,22.95,0)" xlink:href="#M"/><use transform="matrix(0.05,0,0,0.05,26.899999999999995,0)" xlink:href="#E"/><use transform="matrix(0.05,0,0,0.05,36.9,0)" xlink:href="#N"/></g><path d="M135-143c-3-34-86-38-87 0 15 53 115 12 119 90S17 21 10-45l28-5c4 36 97 45 98 0-10-56-113-15-118-90-4-57 82-63 122-42 12 7 21 19 24 35" id="O"/><path d="M115-194c53 0 69 39 70 98 0 66-23 100-70 100C84 3 66-7 56-30L54 0H23l1-261h32v101c10-23 28-34 59-34zm-8 174c40 0 45-34 45-75 0-40-5-75-45-74-42 0-51 32-51 76 0 43 10 73 51 73" id="P"/><g id="d"><use transform="matrix(0.05,0,0,0.05,0,0)" xlink:href="#O"/><use transform="matrix(0.05,0,0,0.05,9,0)" xlink:href="#F"/><use transform="matrix(0.05,0,0,0.05,19,0)" xlink:href="#P"/><use transform="matrix(0.05,0,0,0.05,29,0)" xlink:href="#L"/><use transform="matrix(0.05,0,0,0.05,34.95,0)" xlink:href="#H"/><use transform="matrix(0.05,0,0,0.05,44.95,0)" xlink:href="#E"/><use transform="matrix(0.05,0,0,0.05,54.95,0)" xlink:href="#F"/><use transform="matrix(0.05,0,0,0.05,64.95,0)" xlink:href="#G"/><use transform="matrix(0.05,0,0,0.05,79.9,0)" xlink:href="#H"/><use transform="matrix(0.05,0,0,0.05,89.9,0)" xlink:href="#I"/></g><g id="e"><use transform="matrix(0.05,0,0,0.05,0,0)" xlink:href="#J"/><use transform="matrix(0.05,0,0,0.05,12,0)" xlink:href="#K"/><use transform="matrix(0.05,0,0,0.05,17,0)" xlink:href="#L"/><use transform="matrix(0.05,0,0,0.05,22.95,0)" xlink:href="#M"/><use transform="matrix(0.05,0,0,0.05,26.899999999999995,0)" xlink:href="#E"/><use transform="matrix(0.05,0,0,0.05,36.9,0)" xlink:href="#N"/></g><path d="M30-248c87 1 191-15 191 75 0 78-77 80-158 76V0H30v-248zm33 125c57 0 124 11 124-50 0-59-68-47-124-48v98" id="Q"/><path d="M141-36C126-15 110 5 73 4 37 3 15-17 15-53c-1-64 63-63 125-63 3-35-9-54-41-54-24 1-41 7-42 31l-33-3c5-37 33-52 76-52 45 0 72 20 72 64v82c-1 20 7 32 28 27v20c-31 9-61-2-59-35zM48-53c0 20 12 33 32 33 41-3 63-29 60-74-43 2-92-5-92 41" id="R"/><path d="M87 75C49 33 22-17 22-94c0-76 28-126 65-167h31c-38 41-64 92-64 168S80 34 118 75H87" id="S"/><path d="M68-38c1 34 0 65-14 84H32c9-13 17-26 17-46H33v-38h35" id="T"/><g id="f"><use transform="matrix(0.05,0,0,0.05,0,0)" xlink:href="#O"/><use transform="matrix(0.05,0,0,0.05,9,0)" xlink:href="#H"/><use transform="matrix(0.05,0,0,0.05,19,0)" xlink:href="#K"/><use transform="matrix(0.05,0,0,0.05,24,0)" xlink:href="#Q"/><use transform="matrix(0.05,0,0,0.05,36,0)" xlink:href="#H"/><use transform="matrix(0.05,0,0,0.05,46,0)" xlink:href="#O"/><use transform="matrix(0.05,0,0,0.05,55,0)" xlink:href="#O"/><use transform="matrix(0.05,0,0,0.05,64,0)" xlink:href="#F"/><use transform="matrix(0.05,0,0,0.05,74,0)" xlink:href="#R"/><use transform="matrix(0.05,0,0,0.05,84,0)" xlink:href="#S"/><use transform="matrix(0.05,0,0,0.05,89.95,0)" xlink:href="#E"/><use transform="matrix(0.05,0,0,0.05,99.95,0)" xlink:href="#F"/><use transform="matrix(0.05,0,0,0.05,109.95,0)" xlink:href="#G"/><use transform="matrix(0.05,0,0,0.05,124.9,0)" xlink:href="#H"/><use transform="matrix(0.05,0,0,0.05,134.9,0)" xlink:href="#T"/></g><g id="g"><use transform="matrix(0.05,0,0,0.05,0,0)" xlink:href="#O"/><use transform="matrix(0.05,0,0,0.05,9,0)" xlink:href="#F"/><use transform="matrix(0.05,0,0,0.05,19,0)" xlink:href="#P"/><use transform="matrix(0.05,0,0,0.05,29,0)" xlink:href="#L"/><use transform="matrix(0.05,0,0,0.05,34.95,0)" xlink:href="#H"/><use transform="matrix(0.05,0,0,0.05,44.95,0)" xlink:href="#E"/><use transform="matrix(0.05,0,0,0.05,54.95,0)" xlink:href="#F"/><use transform="matrix(0.05,0,0,0.05,64.95,0)" xlink:href="#G"/><use transform="matrix(0.05,0,0,0.05,79.9,0)" xlink:href="#H"/><use transform="matrix(0.05,0,0,0.05,89.9,0)" xlink:href="#T"/></g><path d="M101-234c-31-9-42 10-38 44h38v23H63V0H32v-167H5v-23h27c-7-52 17-82 69-68v24" id="U"/><path d="M33-261c38 41 65 92 65 168S71 34 33 75H2C39 34 66-17 66-93S39-220 2-261h31" id="V"/><g id="h"><use transform="matrix(0.05,0,0,0.05,0,0)" xlink:href="#U"/><use transform="matrix(0.05,0,0,0.05,5,0)" xlink:href="#F"/><use transform="matrix(0.05,0,0,0.05,15,0)" xlink:href="#E"/><use transform="matrix(0.05,0,0,0.05,25,0)" xlink:href="#H"/><use transform="matrix(0.05,0,0,0.05,35,0)" xlink:href="#V"/></g><g id="i"><use transform="matrix(0.05,0,0,0.05,0,0)" xlink:href="#N"/><use transform="matrix(0.05,0,0,0.05,10,0)" xlink:href="#H"/><use transform="matrix(0.05,0,0,0.05,20,0)" xlink:href="#K"/><use transform="matrix(0.05,0,0,0.05,25,0)" xlink:href="#Q"/><use transform="matrix(0.05,0,0,0.05,37,0)" xlink:href="#H"/><use transform="matrix(0.05,0,0,0.05,47,0)" xlink:href="#O"/><use transform="matrix(0.05,0,0,0.05,56,0)" xlink:href="#O"/><use transform="matrix(0.05,0,0,0.05,65,0)" xlink:href="#F"/><use transform="matrix(0.05,0,0,0.05,75,0)" xlink:href="#R"/><use transform="matrix(0.05,0,0,0.05,85,0)" xlink:href="#S"/><use transform="matrix(0.05,0,0,0.05,90.95,0)" xlink:href="#V"/><use transform="matrix(0.05,0,0,0.05,96.9,0)" xlink:href="#I"/></g><g id="j"><use transform="matrix(0.05,0,0,0.05,0,0)" xlink:href="#Q"/><use transform="matrix(0.05,0,0,0.05,12,0)" xlink:href="#H"/><use transform="matrix(0.05,0,0,0.05,22,0)" xlink:href="#O"/><use transform="matrix(0.05,0,0,0.05,31,0)" xlink:href="#O"/><use transform="matrix(0.05,0,0,0.05,40,0)" xlink:href="#F"/><use transform="matrix(0.05,0,0,0.05,50,0)" xlink:href="#R"/></g><path d="M76-208v77h127v40H76V0H24v-248h183v40H76" id="W"/><path d="M135-194c87-1 58 113 63 194h-50c-7-57 23-157-34-157-59 0-34 97-39 157H25l-1-190h47c2 12-1 28 3 38 12-26 28-41 61-42" id="X"/><g id="k"><use transform="matrix(0.05,0,0,0.05,0,0)" xlink:href="#W"/><use transform="matrix(0.05,0,0,0.05,10.950000000000001,0)" xlink:href="#C"/><use transform="matrix(0.05,0,0,0.05,21.900000000000002,0)" xlink:href="#X"/><use transform="matrix(0.05,0,0,0.05,32.85,0)" xlink:href="#A"/></g><path d="M96-169c-40 0-48 33-48 73s9 75 48 75c24 0 41-14 43-38l32 2c-6 37-31 61-74 61-59 0-76-41-82-99-10-93 101-131 147-64 4 7 5 14 7 22l-32 3c-4-21-16-35-41-35" id="Y"/><path d="M85-194c31 0 48 13 60 33l-1-100h32l1 261h-30c-2-10 0-23-3-31C134-8 116 4 85 4 32 4 16-35 15-94c0-66 23-100 70-100zm9 24c-40 0-46 34-46 75 0 40 6 74 45 74 42 0 51-32 51-76 0-42-9-74-50-73" id="Z"/><g id="l"><use transform="matrix(0.05,0,0,0.05,0,0)" xlink:href="#Y"/><use transform="matrix(0.05,0,0,0.05,9,0)" xlink:href="#F"/><use transform="matrix(0.05,0,0,0.05,19,0)" xlink:href="#Z"/><use transform="matrix(0.05,0,0,0.05,29,0)" xlink:href="#M"/><use transform="matrix(0.05,0,0,0.05,32.95,0)" xlink:href="#N"/><use transform="matrix(0.05,0,0,0.05,42.95,0)" xlink:href="#F"/><use transform="matrix(0.05,0,0,0.05,52.95,0)" xlink:href="#I"/></g><path d="M84 4C-5 8 30-112 23-190h32v120c0 31 7 50 39 49 72-2 45-101 50-169h31l1 190h-30c-1-10 1-25-2-33-11 22-28 36-60 37" id="aa"/><g id="m"><use transform="matrix(0.05,0,0,0.05,0,0)" xlink:href="#E"/><use transform="matrix(0.05,0,0,0.05,10,0)" xlink:href="#aa"/><use transform="matrix(0.05,0,0,0.05,20,0)" xlink:href="#G"/><use transform="matrix(0.05,0,0,0.05,34.95,0)" xlink:href="#H"/><use transform="matrix(0.05,0,0,0.05,44.95,0)" xlink:href="#L"/><use transform="matrix(0.05,0,0,0.05,50.900000000000006,0)" xlink:href="#F"/><use transform="matrix(0.05,0,0,0.05,60.900000000000006,0)" xlink:href="#I"/></g><path d="M24 0v-261h32V0H24" id="ab"/><g id="n"><use transform="matrix(0.05,0,0,0.05,0,0)" xlink:href="#Y"/><use transform="matrix(0.05,0,0,0.05,9,0)" xlink:href="#H"/><use transform="matrix(0.05,0,0,0.05,19,0)" xlink:href="#ab"/><use transform="matrix(0.05,0,0,0.05,22.95,0)" xlink:href="#aa"/><use transform="matrix(0.05,0,0,0.05,32.95,0)" xlink:href="#ab"/><use transform="matrix(0.05,0,0,0.05,36.900000000000006,0)" xlink:href="#R"/><use transform="matrix(0.05,0,0,0.05,46.900000000000006,0)" xlink:href="#L"/><use transform="matrix(0.05,0,0,0.05,52.85,0)" xlink:href="#I"/></g><path d="M160-131c35 5 61 23 61 61C221 17 115-2 30 0v-248c76 3 177-17 177 60 0 33-19 50-47 57zm-97-11c50-1 110 9 110-42 0-47-63-36-110-37v79zm0 115c55-2 124 14 124-45 0-56-70-42-124-44v89" id="ac"/><g id="o"><use transform="matrix(0.05,0,0,0.05,0,0)" xlink:href="#ac"/><use transform="matrix(0.05,0,0,0.05,12,0)" xlink:href="#F"/><use transform="matrix(0.05,0,0,0.05,22,0)" xlink:href="#F"/><use transform="matrix(0.05,0,0,0.05,32,0)" xlink:href="#ab"/><use transform="matrix(0.05,0,0,0.05,35.95,0)" xlink:href="#H"/><use transform="matrix(0.05,0,0,0.05,45.95,0)" xlink:href="#R"/><use transform="matrix(0.05,0,0,0.05,55.95,0)" xlink:href="#E"/></g><path d="M63-220v92h138v28H63V0H30v-248h175v28H63" id="ad"/><g id="p"><use transform="matrix(0.05,0,0,0.05,0,0)" xlink:href="#O"/><use transform="matrix(0.05,0,0,0.05,9,0)" xlink:href="#H"/><use transform="matrix(0.05,0,0,0.05,19,0)" xlink:href="#K"/><use transform="matrix(0.05,0,0,0.05,24,0)" xlink:href="#ad"/><use transform="matrix(0.05,0,0,0.05,34.95,0)" xlink:href="#F"/><use transform="matrix(0.05,0,0,0.05,44.95,0)" xlink:href="#E"/><use transform="matrix(0.05,0,0,0.05,54.95,0)" xlink:href="#H"/><use transform="matrix(0.05,0,0,0.05,64.95,0)" xlink:href="#S"/><use transform="matrix(0.05,0,0,0.05,70.9,0)" xlink:href="#Y"/><use transform="matrix(0.05,0,0,0.05,79.9,0)" xlink:href="#F"/><use transform="matrix(0.05,0,0,0.05,89.9,0)" xlink:href="#Z"/><use transform="matrix(0.05,0,0,0.05,99.9,0)" xlink:href="#M"/><use transform="matrix(0.05,0,0,0.05,103.85000000000001,0)" xlink:href="#N"/><use transform="matrix(0.05,0,0,0.05,113.85000000000001,0)" xlink:href="#F"/><use transform="matrix(0.05,0,0,0.05,123.85000000000001,0)" xlink:href="#T"/></g><g id="q"><use transform="matrix(0.05,0,0,0.05,0,0)" xlink:href="#E"/><use transform="matrix(0.05,0,0,0.05,10,0)" xlink:href="#aa"/><use transform="matrix(0.05,0,0,0.05,20,0)" xlink:href="#G"/><use transform="matrix(0.05,0,0,0.05,34.95,0)" xlink:href="#H"/><use transform="matrix(0.05,0,0,0.05,44.95,0)" xlink:href="#L"/><use transform="matrix(0.05,0,0,0.05,50.900000000000006,0)" xlink:href="#F"/><use transform="matrix(0.05,0,0,0.05,60.900000000000006,0)" xlink:href="#T"/></g><g id="r"><use transform="matrix(0.05,0,0,0.05,0,0)" xlink:href="#Y"/><use transform="matrix(0.05,0,0,0.05,9,0)" xlink:href="#H"/><use transform="matrix(0.05,0,0,0.05,19,0)" xlink:href="#ab"/><use transform="matrix(0.05,0,0,0.05,22.95,0)" xlink:href="#aa"/><use transform="matrix(0.05,0,0,0.05,32.95,0)" xlink:href="#ab"/><use transform="matrix(0.05,0,0,0.05,36.900000000000006,0)" xlink:href="#R"/><use transform="matrix(0.05,0,0,0.05,46.900000000000006,0)" xlink:href="#L"/><use transform="matrix(0.05,0,0,0.05,52.85,0)" xlink:href="#V"/></g><g id="s"><use transform="matrix(0.05,0,0,0.05,0,0)" xlink:href="#N"/><use transform="matrix(0.05,0,0,0.05,10,0)" xlink:href="#H"/><use transform="matrix(0.05,0,0,0.05,20,0)" xlink:href="#K"/><use transform="matrix(0.05,0,0,0.05,25,0)" xlink:href="#ad"/><use transform="matrix(0.05,0,0,0.05,35.95,0)" xlink:href="#F"/><use transform="matrix(0.05,0,0,0.05,45.95,0)" xlink:href="#E"/><use transform="matrix(0.05,0,0,0.05,55.95,0)" xlink:href="#H"/><use transform="matrix(0.05,0,0,0.05,65.95,0)" xlink:href="#S"/><use transform="matrix(0.05,0,0,0.05,71.9,0)" xlink:href="#V"/><use transform="matrix(0.05,0,0,0.05,77.85000000000001,0)" xlink:href="#I"/></g><path d="M212-179c-10-28-35-45-73-45-59 0-87 40-87 99 0 60 29 101 89 101 43 0 62-24 78-52l27 14C228-24 195 4 139 4 59 4 22-46 18-125c-6-104 99-153 187-111 19 9 31 26 39 46" id="ae"/><g id="t"><use transform="matrix(0.05,0,0,0.05,0,0)" xlink:href="#M"/><use transform="matrix(0.05,0,0,0.05,3.95,0)" xlink:href="#O"/><use transform="matrix(0.05,0,0,0.05,12.949999999999998,0)" xlink:href="#ae"/><use transform="matrix(0.05,0,0,0.05,25.899999999999995,0)" xlink:href="#H"/><use transform="matrix(0.05,0,0,0.05,35.9,0)" xlink:href="#ab"/><use transform="matrix(0.05,0,0,0.05,39.85,0)" xlink:href="#aa"/><use transform="matrix(0.05,0,0,0.05,49.85,0)" xlink:href="#ab"/><use transform="matrix(0.05,0,0,0.05,53.800000000000004,0)" xlink:href="#R"/><use transform="matrix(0.05,0,0,0.05,63.800000000000004,0)" xlink:href="#L"/><use transform="matrix(0.05,0,0,0.05,69.75,0)" xlink:href="#S"/><use transform="matrix(0.05,0,0,0.05,75.7,0)" xlink:href="#V"/><use transform="matrix(0.05,0,0,0.05,81.65,0)" xlink:href="#I"/></g><g id="v"><use transform="matrix(0.05,0,0,0.05,0,0)" xlink:href="#U"/><use transform="matrix(0.05,0,0,0.05,5,0)" xlink:href="#F"/><use transform="matrix(0.05,0,0,0.05,15,0)" xlink:href="#E"/><use transform="matrix(0.05,0,0,0.05,25,0)" xlink:href="#H"/></g><path d="M101-251c68 0 85 55 85 127S166 4 100 4C33 4 14-52 14-124c0-73 17-127 87-127zm-1 229c47 0 54-49 54-102s-4-102-53-102c-51 0-55 48-55 102 0 53 5 102 54 102" id="af"/><path d="M33 0v-38h34V0H33" id="ag"/><path d="M27 0v-27h64v-190l-56 39v-29l58-41h29v221h61V0H27" id="ah"/><g id="w"><use transform="matrix(0.05,0,0,0.05,0,0)" xlink:href="#af"/><use transform="matrix(0.05,0,0,0.05,10,0)" xlink:href="#ag"/><use transform="matrix(0.05,0,0,0.05,15,0)" xlink:href="#ag"/><use transform="matrix(0.05,0,0,0.05,20,0)" xlink:href="#ah"/></g><path d="M80-196l47-18 7 23-49 13 32 44-20 13-27-46-27 45-21-12 33-44-49-13 8-23 47 19-2-53h23" id="ai"/><use transform="matrix(0.07407407407407408,0,0,0.07407407407407408,0,0)" xlink:href="#ai" id="x"/><g id="y"><use transform="matrix(0.05,0,0,0.05,0,0)" xlink:href="#Z"/><use transform="matrix(0.05,0,0,0.05,10,0)" xlink:href="#F"/><use transform="matrix(0.05,0,0,0.05,20,0)" xlink:href="#E"/><use transform="matrix(0.05,0,0,0.05,30,0)" xlink:href="#F"/></g></defs></g></svg>