<svg xmlns="http://www.w3.org/2000/svg" xmlns:xlink="http://www.w3.org/1999/xlink" xmlns:lucid="lucid" width="440" height="160"><g transform="translate(-20 -60)" lucid:page-tab-id="0_0"><path d="M0 0h1870.4v1323.2H0z" fill="#fff"/><path d="M40 80h120v120H40z" stroke="#000" stroke-width="2" fill="#fff"/><path d="M40 117.6h120M40 158.7h120" stroke="#000" stroke-width="2" fill="none"/><use xlink:href="#a" transform="matrix(1,0,0,1,48,88) translate(45.525 14.6)"/><path d="M320 80h120v120H320z" stroke="#000" stroke-width="2" fill="#fff"/><path d="M320 117.6h120m-120 41.1h120" stroke="#000" stroke-width="2" fill="none"/><use xlink:href="#b" transform="matrix(1,0,0,1,328,88) translate(45.525 14.6)"/><path d="M162 140h138.5" stroke="#000" stroke-width="2" fill="none"/><path d="M162.03 141H161v-2h1.03z"/><path d="M315.76 140l-14.26 4.64v-9.28z" stroke="#000" stroke-width="2"/><path d="M180 140h240v60H180z" stroke="#000" stroke-opacity="0" stroke-width="2" fill="#fff" fill-opacity="0"/><use xlink:href="#c" transform="matrix(1,0,0,1,185,145) translate(104.525 28.6)"/><use xlink:href="#d" transform="matrix(1,0,0,1,185,145) translate(115.47500000000001 28.6)"/><defs><path d="M199 0l-22-63H83L61 0H9l90-248h61L250 0h-51zm-33-102l-36-108c-10 38-24 72-36 108h72" id="e"/><use transform="matrix(0.05,0,0,0.05,0,0)" xlink:href="#e" id="a"/><path d="M182-130c37 4 62 22 62 59C244 23 116-4 24 0v-248c84 5 203-23 205 63 0 31-19 50-47 55zM76-148c40-3 101 13 101-30 0-44-60-28-101-31v61zm0 110c48-3 116 14 116-37 0-48-69-32-116-35v72" id="f"/><use transform="matrix(0.05,0,0,0.05,0,0)" xlink:href="#f" id="b"/><path d="M16-82v-28h88v28H16" id="g"/><use transform="matrix(0.05,0,0,0.05,0,0)" xlink:href="#g" id="c"/><path d="M115-194c53 0 69 39 70 98 0 66-23 100-70 100C84 3 66-7 56-30L54 0H23l1-261h32v101c10-23 28-34 59-34zm-8 174c40 0 45-34 45-75 0-40-5-75-45-74-42 0-51 32-51 76 0 43 10 73 51 73" id="h"/><use transform="matrix(0.05,0,0,0.05,0,0)" xlink:href="#h" id="d"/></defs></g></svg>