<svg xmlns="http://www.w3.org/2000/svg" xmlns:xlink="http://www.w3.org/1999/xlink" xmlns:lucid="lucid" width="540" height="160"><g transform="translate(-120 -60)" lucid:page-tab-id="0_0"><path d="M0 0h1870.4v1323.2H0z" fill="#fff"/><path d="M140 80h160v120H140z" stroke="#000" stroke-width="2" fill="#fff"/><path d="M140 117.6h160m-160 40.83h160" stroke="#000" stroke-width="2" fill="none"/><use xlink:href="#a" transform="matrix(1,0,0,1,148,88) translate(17.099999999999994 14.6)"/><use xlink:href="#b" transform="matrix(1,0,0,1,152,125.6) translate(0 16.055555555555557)"/><use xlink:href="#c" transform="matrix(1,0,0,1,152,166.43333333333334) translate(0 16.6)"/><use xlink:href="#d" transform="matrix(1,0,0,1,152,166.43333333333334) translate(10.95 16.6)"/><path d="M480 80h160v120H480z" stroke="#000" stroke-width="2" fill="#fff"/><path d="M480 117.6h160m-160 41.1h160" stroke="#000" stroke-width="2" fill="none"/><use xlink:href="#e" transform="matrix(1,0,0,1,488,88) translate(12.074999999999996 14.6)"/><path d="M302 140h158.5" fill="none"/><path d="M302 140h2.03m8.13 0h4.06m8.13 0h4.07m8.12 0h4.07m8.14 0h4.06m8.13 0H365m8.12 0h4.06m8.13 0h4.08m8.13 0h4.07m8.13 0h4.06m8.13 0h4.05m8.13 0h4.07m8.12 0h4.07m8.13 0h2.03" stroke="#000" stroke-width="2" fill="none"/><path d="M302.03 141H301v-2h1.03z"/><path d="M475.76 140l-14.26 4.64v-9.28z" stroke="#000" stroke-width="2"/><defs><path d="M230 0l2-204L168 0h-37L68-204 70 0H24v-248h70l56 185 57-185h69V0h-46" id="f"/><path d="M25-224v-37h50v37H25zM25 0v-190h50V0H25" id="g"/><path d="M135-194c87-1 58 113 63 194h-50c-7-57 23-157-34-157-59 0-34 97-39 157H25l-1-190h47c2 12-1 28 3 38 12-26 28-41 61-42" id="h"/><path d="M114-157C55-157 80-60 75 0H25v-261h50l-1 109c12-26 28-41 61-42 86-1 58 113 63 194h-50c-7-57 23-157-34-157" id="i"/><path d="M133-34C117-15 103 5 69 4 32 3 11-16 11-54c-1-60 55-63 116-61 1-26-3-47-28-47-18 1-26 9-28 27l-52-2c7-38 36-58 82-57s74 22 75 68l1 82c-1 14 12 18 25 15v27c-30 8-71 5-69-32zm-48 3c29 0 43-24 42-57-32 0-66-3-65 30 0 17 8 27 23 27" id="j"/><path d="M67-125c0 53 21 87 73 88 37 1 54-22 65-47l45 17C233-25 199 4 140 4 58 4 20-42 15-125 8-235 124-281 211-232c18 10 29 29 36 50l-46 12c-8-25-30-41-62-41-52 0-71 34-72 86" id="k"/><path d="M25 0v-261h50V0H25" id="l"/><path d="M137-138c1-29-70-34-71-4 15 46 118 7 119 86 1 83-164 76-172 9l43-7c4 19 20 25 44 25 33 8 57-30 24-41C81-84 22-81 20-136c-2-80 154-74 161-7" id="m"/><path d="M185-48c-13 30-37 53-82 52C43 2 14-33 14-96s30-98 90-98c62 0 83 45 84 108H66c0 31 8 55 39 56 18 0 30-7 34-22zm-45-69c5-46-57-63-70-21-2 6-4 13-4 21h74" id="n"/><g id="a"><use transform="matrix(0.05,0,0,0.05,0,0)" xlink:href="#f"/><use transform="matrix(0.05,0,0,0.05,14.950000000000001,0)" xlink:href="#g"/><use transform="matrix(0.05,0,0,0.05,19.950000000000003,0)" xlink:href="#h"/><use transform="matrix(0.05,0,0,0.05,30.900000000000006,0)" xlink:href="#i"/><use transform="matrix(0.05,0,0,0.05,41.85000000000001,0)" xlink:href="#j"/><use transform="matrix(0.05,0,0,0.05,51.85,0)" xlink:href="#k"/><use transform="matrix(0.05,0,0,0.05,64.80000000000001,0)" xlink:href="#l"/><use transform="matrix(0.05,0,0,0.05,69.80000000000001,0)" xlink:href="#j"/><use transform="matrix(0.05,0,0,0.05,79.80000000000001,0)" xlink:href="#m"/><use transform="matrix(0.05,0,0,0.05,89.80000000000001,0)" xlink:href="#m"/><use transform="matrix(0.05,0,0,0.05,99.80000000000001,0)" xlink:href="#n"/></g><path d="M33 0v-38h34V0H33" id="o"/><g id="b"><use transform="matrix(0.04938271604938272,0,0,0.04938271604938272,0,0)" xlink:href="#o"/><use transform="matrix(0.04938271604938272,0,0,0.04938271604938272,4.938271604938272,0)" xlink:href="#o"/><use transform="matrix(0.04938271604938272,0,0,0.04938271604938272,9.876543209876544,0)" xlink:href="#o"/></g><path d="M16-82v-28h88v28H16" id="p"/><use transform="matrix(0.05,0,0,0.05,0,0)" xlink:href="#p" id="c"/><path d="M210-169c-67 3-38 105-44 169h-31v-121c0-29-5-50-35-48C34-165 62-65 56 0H25l-1-190h30c1 10-1 24 2 32 10-44 99-50 107 0 11-21 27-35 58-36 85-2 47 119 55 194h-31v-121c0-29-5-49-35-48" id="q"/><path d="M100-194c63 0 86 42 84 106H49c0 40 14 67 53 68 26 1 43-12 49-29l28 8c-11 28-37 45-77 45C44 4 14-33 15-96c1-61 26-98 85-98zm52 81c6-60-76-77-97-28-3 7-6 17-6 28h103" id="r"/><path d="M59-47c-2 24 18 29 38 22v24C64 9 27 4 27-40v-127H5v-23h24l9-43h21v43h35v23H59v120" id="s"/><path d="M100-194c62-1 85 37 85 99 1 63-27 99-86 99S16-35 15-95c0-66 28-99 85-99zM99-20c44 1 53-31 53-75 0-43-8-75-51-75s-53 32-53 75 10 74 51 75" id="t"/><path d="M85-194c31 0 48 13 60 33l-1-100h32l1 261h-30c-2-10 0-23-3-31C134-8 116 4 85 4 32 4 16-35 15-94c0-66 23-100 70-100zm9 24c-40 0-46 34-46 75 0 40 6 74 45 74 42 0 51-32 51-76 0-42-9-74-50-73" id="u"/><path d="M195 0l-74-108L45 0H8l94-129-87-119h37l69 98 67-98h37l-84 118L233 0h-38" id="v"/><path d="M87 75C49 33 22-17 22-94c0-76 28-126 65-167h31c-38 41-64 92-64 168S80 34 118 75H87" id="w"/><path d="M33-261c38 41 65 92 65 168S71 34 33 75H2C39 34 66-17 66-93S39-220 2-261h31" id="x"/><g id="d"><use transform="matrix(0.05,0,0,0.05,0,0)" xlink:href="#q"/><use transform="matrix(0.05,0,0,0.05,14.950000000000001,0)" xlink:href="#r"/><use transform="matrix(0.05,0,0,0.05,24.950000000000003,0)" xlink:href="#s"/><use transform="matrix(0.05,0,0,0.05,29.950000000000003,0)" xlink:href="#t"/><use transform="matrix(0.05,0,0,0.05,39.95,0)" xlink:href="#u"/><use transform="matrix(0.05,0,0,0.05,49.95,0)" xlink:href="#t"/><use transform="matrix(0.05,0,0,0.05,59.95,0)" xlink:href="#v"/><use transform="matrix(0.05,0,0,0.05,71.95,0)" xlink:href="#w"/><use transform="matrix(0.05,0,0,0.05,77.9,0)" xlink:href="#x"/></g><path d="M25-224v-37h50v37H25zM75 22c2 45-34 59-81 51V38c22 5 31-5 31-27v-201h50V22" id="y"/><path d="M128 0H69L1-190h53L99-40l48-150h52" id="z"/><path d="M24 0v-54h51V0H24" id="A"/><path d="M85 4C-2 5 27-109 22-190h50c7 57-23 150 33 157 60-5 35-97 40-157h50l1 190h-47c-2-12 1-28-3-38-12 25-28 42-61 42" id="B"/><path d="M115-3C79 11 28 4 28-45v-112H4v-33h27l15-45h31v45h36v33H77v99c-1 23 16 31 38 25v30" id="C"/><path d="M169-182c-1-43-94-46-97-3 18 66 151 10 154 114 3 95-165 93-204 36-6-8-10-19-12-30l50-8c3 46 112 56 116 5-17-69-150-10-154-114-4-87 153-88 188-35 5 8 8 18 10 28" id="D"/><path d="M190-63c-7 42-38 67-86 67-59 0-84-38-90-98-12-110 154-137 174-36l-49 2c-2-19-15-32-35-32-30 0-35 28-38 64-6 74 65 87 74 30" id="E"/><path d="M147 0L96-86 75-71V0H25v-261h50v150l67-79h53l-66 74L201 0h-54" id="F"/><g id="e"><use transform="matrix(0.05,0,0,0.05,0,0)" xlink:href="#y"/><use transform="matrix(0.05,0,0,0.05,5,0)" xlink:href="#j"/><use transform="matrix(0.05,0,0,0.05,15,0)" xlink:href="#z"/><use transform="matrix(0.05,0,0,0.05,25,0)" xlink:href="#j"/><use transform="matrix(0.05,0,0,0.05,35,0)" xlink:href="#A"/><use transform="matrix(0.05,0,0,0.05,40,0)" xlink:href="#B"/><use transform="matrix(0.05,0,0,0.05,50.95,0)" xlink:href="#C"/><use transform="matrix(0.05,0,0,0.05,56.900000000000006,0)" xlink:href="#g"/><use transform="matrix(0.05,0,0,0.05,61.900000000000006,0)" xlink:href="#l"/><use transform="matrix(0.05,0,0,0.05,66.9,0)" xlink:href="#A"/><use transform="matrix(0.05,0,0,0.05,71.9,0)" xlink:href="#D"/><use transform="matrix(0.05,0,0,0.05,83.9,0)" xlink:href="#C"/><use transform="matrix(0.05,0,0,0.05,89.85000000000001,0)" xlink:href="#j"/><use transform="matrix(0.05,0,0,0.05,99.85000000000001,0)" xlink:href="#E"/><use transform="matrix(0.05,0,0,0.05,109.85000000000001,0)" xlink:href="#F"/></g></defs></g></svg>