<svg xmlns="http://www.w3.org/2000/svg" xmlns:xlink="http://www.w3.org/1999/xlink" xmlns:lucid="lucid" width="680" height="557"><g transform="translate(-100 -20)" lucid:page-tab-id="0_0"><path d="M0 0h1870.4v1323.2H0z" fill="#fff"/><path d="M280 40h300v199H280z" stroke="#000" stroke-width="2" fill="#fff"/><path d="M280 77.6h300m-300 80.7h300" stroke="#000" stroke-width="2" fill="none"/><use xlink:href="#a" transform="matrix(1,0,0,1,288,48) translate(110.525 14.6)"/><use xlink:href="#b" transform="matrix(1,0,0,1,292,85.6) translate(0 25.299999999999997)"/><use xlink:href="#c" transform="matrix(1,0,0,1,292,85.6) translate(10.95 25.299999999999997)"/><use xlink:href="#d" transform="matrix(1,0,0,1,292,85.6) translate(65.9 25.299999999999997)"/><use xlink:href="#b" transform="matrix(1,0,0,1,292,85.6) translate(0 46.9)"/><use xlink:href="#e" transform="matrix(1,0,0,1,292,85.6) translate(10.95 46.9)"/><use xlink:href="#f" transform="matrix(1,0,0,1,292,85.6) translate(110.85000000000001 46.9)"/><use xlink:href="#g" transform="matrix(1,0,0,1,292,166.3) translate(0 25.299999999999997)"/><use xlink:href="#h" transform="matrix(1,0,0,1,292,166.3) translate(15.5 25.299999999999997)"/><use xlink:href="#g" transform="matrix(1,0,0,1,292,166.3) translate(0 46.9)"/><use xlink:href="#i" transform="matrix(1,0,0,1,292,166.3) translate(15.5 46.9)"/><use xlink:href="#j" transform="matrix(1,0,0,1,292,166.3) translate(122.4 46.9)"/><path d="M120 380h280v177H120z" stroke="#000" stroke-width="2" fill="#fff"/><path d="M120 417.6h280m-280 59.1h280" stroke="#000" stroke-width="2" fill="none"/><use xlink:href="#k" transform="matrix(1,0,0,1,128,388) translate(69.19999999999999 14.6)"/><use xlink:href="#b" transform="matrix(1,0,0,1,132,425.6) translate(0 25.6)"/><use xlink:href="#l" transform="matrix(1,0,0,1,132,425.6) translate(10.95 25.6)"/><use xlink:href="#m" transform="matrix(1,0,0,1,132,425.6) translate(54.95 25.6)"/><use xlink:href="#g" transform="matrix(1,0,0,1,132,484.70000000000005) translate(0 25.299999999999997)"/><use xlink:href="#n" transform="matrix(1,0,0,1,132,484.70000000000005) translate(15.5 25.299999999999997)"/><use xlink:href="#g" transform="matrix(1,0,0,1,132,484.70000000000005) translate(0 46.9)"/><use xlink:href="#o" transform="matrix(1,0,0,1,132,484.70000000000005) translate(15.5 46.9)"/><path d="M480 380h280v156H480z" stroke="#000" stroke-width="2" fill="#fff"/><path d="M480 417.6h280m-280 59.1h280" stroke="#000" stroke-width="2" fill="none"/><g><use xlink:href="#p" transform="matrix(1,0,0,1,488,388) translate(51.22500000000002 14.6)"/></g><g><use xlink:href="#b" transform="matrix(1,0,0,1,492,425.6) translate(0 25.6)"/><use xlink:href="#q" transform="matrix(1,0,0,1,492,425.6) translate(10.95 25.6)"/><use xlink:href="#f" transform="matrix(1,0,0,1,492,425.6) translate(65.95 25.6)"/></g><g><use xlink:href="#g" transform="matrix(1,0,0,1,492,484.70000000000005) translate(0 25.6)"/><use xlink:href="#r" transform="matrix(1,0,0,1,492,484.70000000000005) translate(15.5 25.6)"/></g><path d="M260 378v-68.5h139.2v-51" stroke="#000" stroke-width="2" fill="none"/><path d="M261 379h-2v-1.03h2z"/><path d="M399.2 243.24l4.64 14.26h-9.28z" stroke="#000" stroke-width="2" fill="#fff"/><path d="M620 378v-68.5H463.88v-51" stroke="#000" stroke-width="2" fill="none"/><path d="M621 379h-2v-1.03h2z"/><path d="M463.88 243.24l4.64 14.26h-9.28z" stroke="#000" stroke-width="2" fill="#fff"/><defs><path d="M24-248c93 1 206-16 204 79-1 75-69 88-152 82V0H24v-248zm52 121c47 0 100 7 100-41 0-47-54-39-100-39v80" id="s"/><path d="M185-48c-13 30-37 53-82 52C43 2 14-33 14-96s30-98 90-98c62 0 83 45 84 108H66c0 31 8 55 39 56 18 0 30-7 34-22zm-45-69c5-46-57-63-70-21-2 6-4 13-4 21h74" id="t"/><path d="M137-138c1-29-70-34-71-4 15 46 118 7 119 86 1 83-164 76-172 9l43-7c4 19 20 25 44 25 33 8 57-30 24-41C81-84 22-81 20-136c-2-80 154-74 161-7" id="u"/><path d="M110-194c64 0 96 36 96 99 0 64-35 99-97 99-61 0-95-36-95-99 0-62 34-99 96-99zm-1 164c35 0 45-28 45-65 0-40-10-65-43-65-34 0-45 26-45 65 0 36 10 65 43 65" id="v"/><path d="M133-34C117-15 103 5 69 4 32 3 11-16 11-54c-1-60 55-63 116-61 1-26-3-47-28-47-18 1-26 9-28 27l-52-2c7-38 36-58 82-57s74 22 75 68l1 82c-1 14 12 18 25 15v27c-30 8-71 5-69-32zm-48 3c29 0 43-24 42-57-32 0-66-3-65 30 0 17 8 27 23 27" id="w"/><g id="a"><use transform="matrix(0.05,0,0,0.05,0,0)" xlink:href="#s"/><use transform="matrix(0.05,0,0,0.05,12,0)" xlink:href="#t"/><use transform="matrix(0.05,0,0,0.05,22,0)" xlink:href="#u"/><use transform="matrix(0.05,0,0,0.05,32,0)" xlink:href="#u"/><use transform="matrix(0.05,0,0,0.05,42,0)" xlink:href="#v"/><use transform="matrix(0.05,0,0,0.05,52.95,0)" xlink:href="#w"/></g><path d="M16-82v-28h88v28H16" id="x"/><use transform="matrix(0.05,0,0,0.05,0,0)" xlink:href="#x" id="b"/><path d="M117-194c89-4 53 116 60 194h-32v-121c0-31-8-49-39-48C34-167 62-67 57 0H25l-1-190h30c1 10-1 24 2 32 11-22 29-35 61-36" id="y"/><path d="M100-194c62-1 85 37 85 99 1 63-27 99-86 99S16-35 15-95c0-66 28-99 85-99zM99-20c44 1 53-31 53-75 0-43-8-75-51-75s-53 32-53 75 10 74 51 75" id="z"/><path d="M210-169c-67 3-38 105-44 169h-31v-121c0-29-5-50-35-48C34-165 62-65 56 0H25l-1-190h30c1 10-1 24 2 32 10-44 99-50 107 0 11-21 27-35 58-36 85-2 47 119 55 194h-31v-121c0-29-5-49-35-48" id="A"/><path d="M100-194c63 0 86 42 84 106H49c0 40 14 67 53 68 26 1 43-12 49-29l28 8c-11 28-37 45-77 45C44 4 14-33 15-96c1-61 26-98 85-98zm52 81c6-60-76-77-97-28-3 7-6 17-6 28h103" id="B"/><path d="M33-154v-36h34v36H33zM33 0v-36h34V0H33" id="C"/><g id="c"><use transform="matrix(0.05,0,0,0.05,0,0)" xlink:href="#y"/><use transform="matrix(0.05,0,0,0.05,10,0)" xlink:href="#z"/><use transform="matrix(0.05,0,0,0.05,20,0)" xlink:href="#A"/><use transform="matrix(0.05,0,0,0.05,34.95,0)" xlink:href="#B"/><use transform="matrix(0.05,0,0,0.05,44.95,0)" xlink:href="#C"/></g><path d="M185-189c-5-48-123-54-124 2 14 75 158 14 163 119 3 78-121 87-175 55-17-10-28-26-33-46l33-7c5 56 141 63 141-1 0-78-155-14-162-118-5-82 145-84 179-34 5 7 8 16 11 25" id="D"/><path d="M59-47c-2 24 18 29 38 22v24C64 9 27 4 27-40v-127H5v-23h24l9-43h21v43h35v23H59v120" id="E"/><path d="M114-163C36-179 61-72 57 0H25l-1-190h30c1 12-1 29 2 39 6-27 23-49 58-41v29" id="F"/><path d="M24-231v-30h32v30H24zM24 0v-190h32V0H24" id="G"/><path d="M177-190C167-65 218 103 67 71c-23-6-38-20-44-43l32-5c15 47 100 32 89-28v-30C133-14 115 1 83 1 29 1 15-40 15-95c0-56 16-97 71-98 29-1 48 16 59 35 1-10 0-23 2-32h30zM94-22c36 0 50-32 50-73 0-42-14-75-50-75-39 0-46 34-46 75s6 73 46 73" id="H"/><g id="d"><use transform="matrix(0.05,0,0,0.05,0,0)" xlink:href="#D"/><use transform="matrix(0.05,0,0,0.05,12,0)" xlink:href="#E"/><use transform="matrix(0.05,0,0,0.05,17,0)" xlink:href="#F"/><use transform="matrix(0.05,0,0,0.05,22.95,0)" xlink:href="#G"/><use transform="matrix(0.05,0,0,0.05,26.899999999999995,0)" xlink:href="#y"/><use transform="matrix(0.05,0,0,0.05,36.9,0)" xlink:href="#H"/></g><path d="M135-143c-3-34-86-38-87 0 15 53 115 12 119 90S17 21 10-45l28-5c4 36 97 45 98 0-10-56-113-15-118-90-4-57 82-63 122-42 12 7 21 19 24 35" id="I"/><path d="M115-194c53 0 69 39 70 98 0 66-23 100-70 100C84 3 66-7 56-30L54 0H23l1-261h32v101c10-23 28-34 59-34zm-8 174c40 0 45-34 45-75 0-40-5-75-45-74-42 0-51 32-51 76 0 43 10 73 51 73" id="J"/><g id="e"><use transform="matrix(0.05,0,0,0.05,0,0)" xlink:href="#I"/><use transform="matrix(0.05,0,0,0.05,9,0)" xlink:href="#z"/><use transform="matrix(0.05,0,0,0.05,19,0)" xlink:href="#J"/><use transform="matrix(0.05,0,0,0.05,29,0)" xlink:href="#F"/><use transform="matrix(0.05,0,0,0.05,34.95,0)" xlink:href="#B"/><use transform="matrix(0.05,0,0,0.05,44.95,0)" xlink:href="#y"/><use transform="matrix(0.05,0,0,0.05,54.95,0)" xlink:href="#z"/><use transform="matrix(0.05,0,0,0.05,64.95,0)" xlink:href="#A"/><use transform="matrix(0.05,0,0,0.05,79.9,0)" xlink:href="#B"/><use transform="matrix(0.05,0,0,0.05,89.9,0)" xlink:href="#C"/></g><g id="f"><use transform="matrix(0.05,0,0,0.05,0,0)" xlink:href="#D"/><use transform="matrix(0.05,0,0,0.05,12,0)" xlink:href="#E"/><use transform="matrix(0.05,0,0,0.05,17,0)" xlink:href="#F"/><use transform="matrix(0.05,0,0,0.05,22.95,0)" xlink:href="#G"/><use transform="matrix(0.05,0,0,0.05,26.899999999999995,0)" xlink:href="#y"/><use transform="matrix(0.05,0,0,0.05,36.9,0)" xlink:href="#H"/></g><path d="M118-107v75H92v-75H18v-26h74v-75h26v75h74v26h-74" id="K"/><use transform="matrix(0.05,0,0,0.05,0,0)" xlink:href="#K" id="g"/><path d="M30-248c87 1 191-15 191 75 0 78-77 80-158 76V0H30v-248zm33 125c57 0 124 11 124-50 0-59-68-47-124-48v98" id="L"/><path d="M141-36C126-15 110 5 73 4 37 3 15-17 15-53c-1-64 63-63 125-63 3-35-9-54-41-54-24 1-41 7-42 31l-33-3c5-37 33-52 76-52 45 0 72 20 72 64v82c-1 20 7 32 28 27v20c-31 9-61-2-59-35zM48-53c0 20 12 33 32 33 41-3 63-29 60-74-43 2-92-5-92 41" id="M"/><path d="M87 75C49 33 22-17 22-94c0-76 28-126 65-167h31c-38 41-64 92-64 168S80 34 118 75H87" id="N"/><path d="M68-38c1 34 0 65-14 84H32c9-13 17-26 17-46H33v-38h35" id="O"/><path d="M33-261c38 41 65 92 65 168S71 34 33 75H2C39 34 66-17 66-93S39-220 2-261h31" id="P"/><g id="h"><use transform="matrix(0.05,0,0,0.05,0,0)" xlink:href="#I"/><use transform="matrix(0.05,0,0,0.05,9,0)" xlink:href="#B"/><use transform="matrix(0.05,0,0,0.05,19,0)" xlink:href="#E"/><use transform="matrix(0.05,0,0,0.05,24,0)" xlink:href="#L"/><use transform="matrix(0.05,0,0,0.05,36,0)" xlink:href="#B"/><use transform="matrix(0.05,0,0,0.05,46,0)" xlink:href="#I"/><use transform="matrix(0.05,0,0,0.05,55,0)" xlink:href="#I"/><use transform="matrix(0.05,0,0,0.05,64,0)" xlink:href="#z"/><use transform="matrix(0.05,0,0,0.05,74,0)" xlink:href="#M"/><use transform="matrix(0.05,0,0,0.05,84,0)" xlink:href="#N"/><use transform="matrix(0.05,0,0,0.05,89.95,0)" xlink:href="#y"/><use transform="matrix(0.05,0,0,0.05,99.95,0)" xlink:href="#z"/><use transform="matrix(0.05,0,0,0.05,109.95,0)" xlink:href="#A"/><use transform="matrix(0.05,0,0,0.05,124.9,0)" xlink:href="#B"/><use transform="matrix(0.05,0,0,0.05,134.9,0)" xlink:href="#O"/><use transform="matrix(0.05,0,0,0.05,139.9,0)" xlink:href="#I"/><use transform="matrix(0.05,0,0,0.05,148.9,0)" xlink:href="#z"/><use transform="matrix(0.05,0,0,0.05,158.9,0)" xlink:href="#J"/><use transform="matrix(0.05,0,0,0.05,168.9,0)" xlink:href="#F"/><use transform="matrix(0.05,0,0,0.05,174.85,0)" xlink:href="#B"/><use transform="matrix(0.05,0,0,0.05,184.85,0)" xlink:href="#y"/><use transform="matrix(0.05,0,0,0.05,194.85,0)" xlink:href="#z"/><use transform="matrix(0.05,0,0,0.05,204.85000000000002,0)" xlink:href="#A"/><use transform="matrix(0.05,0,0,0.05,219.79999999999995,0)" xlink:href="#B"/><use transform="matrix(0.05,0,0,0.05,229.79999999999995,0)" xlink:href="#P"/><use transform="matrix(0.05,0,0,0.05,235.74999999999997,0)" xlink:href="#C"/></g><g id="i"><use transform="matrix(0.05,0,0,0.05,0,0)" xlink:href="#H"/><use transform="matrix(0.05,0,0,0.05,10,0)" xlink:href="#B"/><use transform="matrix(0.05,0,0,0.05,20,0)" xlink:href="#E"/><use transform="matrix(0.05,0,0,0.05,25,0)" xlink:href="#L"/><use transform="matrix(0.05,0,0,0.05,37,0)" xlink:href="#B"/><use transform="matrix(0.05,0,0,0.05,47,0)" xlink:href="#I"/><use transform="matrix(0.05,0,0,0.05,56,0)" xlink:href="#I"/><use transform="matrix(0.05,0,0,0.05,65,0)" xlink:href="#z"/><use transform="matrix(0.05,0,0,0.05,75,0)" xlink:href="#M"/><use transform="matrix(0.05,0,0,0.05,85,0)" xlink:href="#N"/><use transform="matrix(0.05,0,0,0.05,90.95,0)" xlink:href="#P"/><use transform="matrix(0.05,0,0,0.05,96.9,0)" xlink:href="#C"/></g><g id="j"><use transform="matrix(0.05,0,0,0.05,0,0)" xlink:href="#L"/><use transform="matrix(0.05,0,0,0.05,12,0)" xlink:href="#B"/><use transform="matrix(0.05,0,0,0.05,22,0)" xlink:href="#I"/><use transform="matrix(0.05,0,0,0.05,31,0)" xlink:href="#I"/><use transform="matrix(0.05,0,0,0.05,40,0)" xlink:href="#z"/><use transform="matrix(0.05,0,0,0.05,50,0)" xlink:href="#M"/></g><path d="M67-125c0 53 21 87 73 88 37 1 54-22 65-47l45 17C233-25 199 4 140 4 58 4 20-42 15-125 8-235 124-281 211-232c18 10 29 29 36 50l-46 12c-8-25-30-41-62-41-52 0-71 34-72 86" id="Q"/><path d="M135-194c87-1 58 113 63 194h-50c-7-57 23-157-34-157-59 0-34 97-39 157H25l-1-190h47c2 12-1 28 3 38 12-26 28-41 61-42" id="R"/><path d="M115-3C79 11 28 4 28-45v-112H4v-33h27l15-45h31v45h36v33H77v99c-1 23 16 31 38 25v30" id="S"/><path d="M135-150c-39-12-60 13-60 57V0H25l-1-190h47c2 13-1 29 3 40 6-28 27-53 61-41v41" id="T"/><g id="k"><use transform="matrix(0.05,0,0,0.05,0,0)" xlink:href="#Q"/><use transform="matrix(0.05,0,0,0.05,12.950000000000001,0)" xlink:href="#v"/><use transform="matrix(0.05,0,0,0.05,23.900000000000002,0)" xlink:href="#R"/><use transform="matrix(0.05,0,0,0.05,34.85,0)" xlink:href="#S"/><use transform="matrix(0.05,0,0,0.05,40.800000000000004,0)" xlink:href="#w"/><use transform="matrix(0.05,0,0,0.05,50.800000000000004,0)" xlink:href="#Q"/><use transform="matrix(0.05,0,0,0.05,63.75,0)" xlink:href="#v"/><use transform="matrix(0.05,0,0,0.05,74.7,0)" xlink:href="#T"/><use transform="matrix(0.05,0,0,0.05,81.7,0)" xlink:href="#T"/><use transform="matrix(0.05,0,0,0.05,88.7,0)" xlink:href="#t"/><use transform="matrix(0.05,0,0,0.05,98.7,0)" xlink:href="#R"/><use transform="matrix(0.05,0,0,0.05,109.65,0)" xlink:href="#S"/><use transform="matrix(0.05,0,0,0.05,115.60000000000001,0)" xlink:href="#t"/></g><path d="M141 0L90-78 38 0H4l68-98-65-92h35l48 74 47-74h35l-64 92 68 98h-35" id="U"/><g id="l"><use transform="matrix(0.05,0,0,0.05,0,0)" xlink:href="#E"/><use transform="matrix(0.05,0,0,0.05,5,0)" xlink:href="#M"/><use transform="matrix(0.05,0,0,0.05,15,0)" xlink:href="#U"/><use transform="matrix(0.05,0,0,0.05,24,0)" xlink:href="#M"/><use transform="matrix(0.05,0,0,0.05,34,0)" xlink:href="#C"/></g><path d="M63-220v92h138v28H63V0H30v-248h175v28H63" id="V"/><path d="M24 0v-261h32V0H24" id="W"/><g id="m"><use transform="matrix(0.05,0,0,0.05,0,0)" xlink:href="#V"/><use transform="matrix(0.05,0,0,0.05,10.950000000000001,0)" xlink:href="#W"/><use transform="matrix(0.05,0,0,0.05,14.9,0)" xlink:href="#z"/><use transform="matrix(0.05,0,0,0.05,24.900000000000002,0)" xlink:href="#M"/><use transform="matrix(0.05,0,0,0.05,34.900000000000006,0)" xlink:href="#E"/></g><path d="M127-220V0H93v-220H8v-28h204v28h-85" id="X"/><path d="M101-234c-31-9-42 10-38 44h38v23H63V0H32v-167H5v-23h27c-7-52 17-82 69-68v24" id="Y"/><g id="n"><use transform="matrix(0.05,0,0,0.05,0,0)" xlink:href="#I"/><use transform="matrix(0.05,0,0,0.05,9,0)" xlink:href="#B"/><use transform="matrix(0.05,0,0,0.05,19,0)" xlink:href="#E"/><use transform="matrix(0.05,0,0,0.05,24,0)" xlink:href="#X"/><use transform="matrix(0.05,0,0,0.05,32.95,0)" xlink:href="#M"/><use transform="matrix(0.05,0,0,0.05,42.95,0)" xlink:href="#U"/><use transform="matrix(0.05,0,0,0.05,51.95,0)" xlink:href="#M"/><use transform="matrix(0.05,0,0,0.05,61.95,0)" xlink:href="#N"/><use transform="matrix(0.05,0,0,0.05,67.9,0)" xlink:href="#Y"/><use transform="matrix(0.05,0,0,0.05,72.9,0)" xlink:href="#W"/><use transform="matrix(0.05,0,0,0.05,76.85000000000001,0)" xlink:href="#z"/><use transform="matrix(0.05,0,0,0.05,86.85000000000001,0)" xlink:href="#M"/><use transform="matrix(0.05,0,0,0.05,96.85000000000001,0)" xlink:href="#E"/><use transform="matrix(0.05,0,0,0.05,101.85000000000001,0)" xlink:href="#P"/></g><g id="o"><use transform="matrix(0.05,0,0,0.05,0,0)" xlink:href="#H"/><use transform="matrix(0.05,0,0,0.05,10,0)" xlink:href="#B"/><use transform="matrix(0.05,0,0,0.05,20,0)" xlink:href="#E"/><use transform="matrix(0.05,0,0,0.05,25,0)" xlink:href="#X"/><use transform="matrix(0.05,0,0,0.05,33.95,0)" xlink:href="#M"/><use transform="matrix(0.05,0,0,0.05,43.95,0)" xlink:href="#U"/><use transform="matrix(0.05,0,0,0.05,52.95,0)" xlink:href="#M"/><use transform="matrix(0.05,0,0,0.05,62.95,0)" xlink:href="#N"/><use transform="matrix(0.05,0,0,0.05,68.9,0)" xlink:href="#P"/></g><path d="M24 0v-248h52V0H24" id="Z"/><path d="M128 0H69L1-190h53L99-40l48-150h52" id="aa"/><path d="M25-224v-37h50v37H25zM25 0v-190h50V0H25" id="ab"/><path d="M220-157c-53 9-28 100-34 157h-49v-107c1-27-5-49-29-50C55-147 81-57 75 0H25l-1-190h47c2 12-1 28 3 38 10-53 101-56 108 0 13-22 24-43 59-42 82 1 51 116 57 194h-49v-107c-1-25-5-48-29-50" id="ac"/><g id="p"><use transform="matrix(0.05,0,0,0.05,0,0)" xlink:href="#Q"/><use transform="matrix(0.05,0,0,0.05,12.950000000000001,0)" xlink:href="#v"/><use transform="matrix(0.05,0,0,0.05,23.900000000000002,0)" xlink:href="#R"/><use transform="matrix(0.05,0,0,0.05,34.85,0)" xlink:href="#S"/><use transform="matrix(0.05,0,0,0.05,40.800000000000004,0)" xlink:href="#w"/><use transform="matrix(0.05,0,0,0.05,50.800000000000004,0)" xlink:href="#Z"/><use transform="matrix(0.05,0,0,0.05,55.800000000000004,0)" xlink:href="#R"/><use transform="matrix(0.05,0,0,0.05,66.75,0)" xlink:href="#aa"/><use transform="matrix(0.05,0,0,0.05,76.75,0)" xlink:href="#t"/><use transform="matrix(0.05,0,0,0.05,86.75,0)" xlink:href="#u"/><use transform="matrix(0.05,0,0,0.05,96.75,0)" xlink:href="#S"/><use transform="matrix(0.05,0,0,0.05,102.7,0)" xlink:href="#ab"/><use transform="matrix(0.05,0,0,0.05,107.7,0)" xlink:href="#ac"/><use transform="matrix(0.05,0,0,0.05,123.7,0)" xlink:href="#t"/><use transform="matrix(0.05,0,0,0.05,133.7,0)" xlink:href="#R"/><use transform="matrix(0.05,0,0,0.05,144.64999999999998,0)" xlink:href="#S"/><use transform="matrix(0.05,0,0,0.05,150.59999999999997,0)" xlink:href="#v"/></g><path d="M84 4C-5 8 30-112 23-190h32v120c0 31 7 50 39 49 72-2 45-101 50-169h31l1 190h-30c-1-10 1-25-2-33-11 22-28 36-60 37" id="ad"/><path d="M85-194c31 0 48 13 60 33l-1-100h32l1 261h-30c-2-10 0-23-3-31C134-8 116 4 85 4 32 4 16-35 15-94c0-66 23-100 70-100zm9 24c-40 0-46 34-46 75 0 40 6 74 45 74 42 0 51-32 51-76 0-42-9-74-50-73" id="ae"/><g id="q"><use transform="matrix(0.05,0,0,0.05,0,0)" xlink:href="#Y"/><use transform="matrix(0.05,0,0,0.05,5,0)" xlink:href="#ad"/><use transform="matrix(0.05,0,0,0.05,15,0)" xlink:href="#y"/><use transform="matrix(0.05,0,0,0.05,25,0)" xlink:href="#ae"/><use transform="matrix(0.05,0,0,0.05,35,0)" xlink:href="#z"/><use transform="matrix(0.05,0,0,0.05,45,0)" xlink:href="#C"/></g><g id="r"><use transform="matrix(0.05,0,0,0.05,0,0)" xlink:href="#H"/><use transform="matrix(0.05,0,0,0.05,10,0)" xlink:href="#B"/><use transform="matrix(0.05,0,0,0.05,20,0)" xlink:href="#E"/><use transform="matrix(0.05,0,0,0.05,25,0)" xlink:href="#V"/><use transform="matrix(0.05,0,0,0.05,35.95,0)" xlink:href="#ad"/><use transform="matrix(0.05,0,0,0.05,45.95,0)" xlink:href="#y"/><use transform="matrix(0.05,0,0,0.05,55.95,0)" xlink:href="#ae"/><use transform="matrix(0.05,0,0,0.05,65.95,0)" xlink:href="#z"/><use transform="matrix(0.05,0,0,0.05,75.95,0)" xlink:href="#N"/><use transform="matrix(0.05,0,0,0.05,81.9,0)" xlink:href="#P"/></g></defs></g></svg>