<svg xmlns="http://www.w3.org/2000/svg" xmlns:xlink="http://www.w3.org/1999/xlink" xmlns:lucid="lucid" width="740" height="840"><g transform="translate(-540 -20)" lucid:page-tab-id="0_0"><path d="M0 0h1760v1360H0z" fill="#fff"/><path d="M724 66h91c2.76 0 5 2.24 5 5v144c0 2.76-2.24 5-5 5H565c-2.76 0-5-2.24-5-5V45c0-2.76 2.24-5 5-5h146c2.76 0 5.66 2.14 6.47 4.78zm-164 0h164" stroke="#000" stroke-width="2" fill="#fff"/><use xlink:href="#a" transform="matrix(1,0,0,1,572,74) translate(46.27777777777777 74.33333333333334)"/><path d="M962 426h113c2.76 0 5 2.24 5 5v144c0 2.76-2.24 5-5 5H765c-2.76 0-5-2.24-5-5V405c0-2.76 2.24-5 5-5h182c2.76 0 5.8 2.1 6.8 4.67zm-202 0h202" stroke="#000" stroke-width="2" fill="#fff"/><use xlink:href="#b" transform="matrix(1,0,0,1,772,434) translate(53.33333333333333 74.33333333333334)"/><path d="M962 706h113c2.76 0 5 2.24 5 5v124c0 2.76-2.24 5-5 5H765c-2.76 0-5-2.24-5-5V685c0-2.76 2.24-5 5-5h182c2.76 0 5.8 2.1 6.8 4.67zm-202 0h202" stroke="#000" stroke-width="2" fill="#fff"/><use xlink:href="#c" transform="matrix(1,0,0,1,772,714) translate(73.25925925925927 64.33333333333334)"/><path d="M1164 66h91c2.76 0 5 2.24 5 5v144c0 2.76-2.24 5-5 5h-250c-2.76 0-5-2.24-5-5V45c0-2.76 2.24-5 5-5h146c2.76 0 5.66 2.14 6.47 4.78zm-164 0h164" stroke="#000" stroke-width="2" fill="#fff"/><use xlink:href="#d" transform="matrix(1,0,0,1,1012,74) translate(56.87037037037037 74.33333333333334)"/><use xlink:href="#e" transform="matrix(1,0,0,1,1012,74) translate(64.27777777777777 74.33333333333334)"/><path d="M690 239.5V305c0 2.76 2.24 5 5 5h123.03c2.76 0 5 2.24 5 5v65.5" fill="none"/><path d="M690 239.5v2.2m0 8.72v4.36m0 8.74v4.36m0 8.74v4.36m0 8.74v4.36m0 8.74V305l.96 2.95 2.46 1.8 1.58.25h2.05m8.2 0h4.1m8.2 0h4.1m8.2 0h4.1m8.2 0h4.1m8.2 0h4.12m8.2 0h4.1m8.2 0h4.1m8.2 0h4.1m8.2 0h4.1m8.2 0h2.06l2.95.96 1.8 2.46.25 1.58v2.18m0 8.74v4.36m0 8.74v4.36m0 8.74v4.36m0 8.74v4.36m0 8.73v2.2" stroke="#000" stroke-width="2" fill="none"/><path d="M690 224.24l4.64 14.26h-9.28zM823.03 395.76l-4.63-14.26h9.27z" stroke="#000" stroke-width="2"/><path d="M1130 239.5V318c0 2.76-2.24 5-5 5h-103.03c-2.76 0-5 2.24-5 5v78.5" fill="none"/><path d="M1130 239.5v1.87m0 7.48v3.73m0 7.48v3.74m0 7.47V275m0 7.5v3.73m0 7.47v3.74m0 7.48v3.73m0 7.48V318l-.96 2.95-2.46 1.8-1.58.25h-1.9m-7.64 0h-3.82m-7.63 0h-3.8m-7.64 0h-3.8m-7.64 0h-3.82m-7.63 0h-3.82m-7.63 0h-3.8m-7.65 0h-3.8m-7.64 0h-3.82m-7.62 0h-1.9l-2.96.96-1.8 2.46-.25 1.58v1.87m0 7.48v3.73m0 7.48v3.74m0 7.47v3.74m0 7.5v3.73m0 7.47v3.74m0 7.48v3.73m0 7.48v1.87" stroke="#000" stroke-width="2" fill="none"/><path d="M1130 224.24l4.64 14.26h-9.28zM1016.97 421.76l-4.64-14.26h9.27z" stroke="#000" stroke-width="2"/><path d="M920 582v47.64c0 .2-.16.36-.36.36-.2 0-.37.16-.37.36v30.14" fill="none"/><path d="M920 582v1.98m0 7.94v3.97m0 7.93v3.97m0 7.94v3.97m0 7.95v2l-.1.24-.26.1-.26.1-.1.26v1.68m0 6.7v3.34m0 6.7v3.35m0 6.7v1.67" stroke="#000" stroke-width="2" fill="none"/><path d="M921 582.03h-2V581h2z"/><path d="M919.27 675.76l-4.63-14.26h9.27z" stroke="#000" stroke-width="2"/><path d="M920 582v59.5" stroke="#000" stroke-width="2" fill="none"/><path d="M921 582.03h-2V581h2z"/><path d="M920 656.76l-4.64-14.26h9.28z" stroke="#000" stroke-width="2"/><defs><path d="M230 0l2-204L168 0h-37L68-204 70 0H24v-248h70l56 185 57-185h69V0h-46" id="f"/><path d="M110-194c64 0 96 36 96 99 0 64-35 99-97 99-61 0-95-36-95-99 0-62 34-99 96-99zm-1 164c35 0 45-28 45-65 0-40-10-65-43-65-34 0-45 26-45 65 0 36 10 65 43 65" id="g"/><path d="M135-194c52 0 70 43 70 98 0 56-19 99-73 100-30 1-46-15-58-35L72 0H24l1-261h50v104c11-23 29-37 60-37zM114-30c31 0 40-27 40-66 0-37-7-63-39-63s-41 28-41 65c0 36 8 64 40 64" id="h"/><path d="M25-224v-37h50v37H25zM25 0v-190h50V0H25" id="i"/><path d="M25 0v-261h50V0H25" id="j"/><path d="M185-48c-13 30-37 53-82 52C43 2 14-33 14-96s30-98 90-98c62 0 83 45 84 108H66c0 31 8 55 39 56 18 0 30-7 34-22zm-45-69c5-46-57-63-70-21-2 6-4 13-4 21h74" id="k"/><path d="M147 0H94L2-248h55l64 206c17-72 42-137 63-206h54" id="l"/><path d="M231 0h-52l-39-155L100 0H48L-1-190h46L77-45c9-52 24-97 36-145h53l37 145 32-145h46" id="m"/><g id="a"><use transform="matrix(0.07407407407407408,0,0,0.07407407407407408,0,0)" xlink:href="#f"/><use transform="matrix(0.07407407407407408,0,0,0.07407407407407408,22.148148148148152,0)" xlink:href="#g"/><use transform="matrix(0.07407407407407408,0,0,0.07407407407407408,38.37037037037038,0)" xlink:href="#h"/><use transform="matrix(0.07407407407407408,0,0,0.07407407407407408,54.59259259259261,0)" xlink:href="#i"/><use transform="matrix(0.07407407407407408,0,0,0.07407407407407408,62.000000000000014,0)" xlink:href="#j"/><use transform="matrix(0.07407407407407408,0,0,0.07407407407407408,69.40740740740742,0)" xlink:href="#k"/><use transform="matrix(0.07407407407407408,0,0,0.07407407407407408,84.22222222222223,0)" xlink:href="#l"/><use transform="matrix(0.07407407407407408,0,0,0.07407407407407408,101.4814814814815,0)" xlink:href="#i"/><use transform="matrix(0.07407407407407408,0,0,0.07407407407407408,108.8888888888889,0)" xlink:href="#k"/><use transform="matrix(0.07407407407407408,0,0,0.07407407407407408,123.70370370370372,0)" xlink:href="#m"/></g><path d="M182-130c37 4 62 22 62 59C244 23 116-4 24 0v-248c84 5 203-23 205 63 0 31-19 50-47 55zM76-148c40-3 101 13 101-30 0-44-60-28-101-31v61zm0 110c48-3 116 14 116-37 0-48-69-32-116-35v72" id="n"/><path d="M85 4C-2 5 27-109 22-190h50c7 57-23 150 33 157 60-5 35-97 40-157h50l1 190h-47c-2-12 1-28-3-38-12 25-28 42-61 42" id="o"/><path d="M137-138c1-29-70-34-71-4 15 46 118 7 119 86 1 83-164 76-172 9l43-7c4 19 20 25 44 25 33 8 57-30 24-41C81-84 22-81 20-136c-2-80 154-74 161-7" id="p"/><path d="M135-194c87-1 58 113 63 194h-50c-7-57 23-157-34-157-59 0-34 97-39 157H25l-1-190h47c2 12-1 28 3 38 12-26 28-41 61-42" id="q"/><path d="M24 0v-248h52v208h133V0H24" id="r"/><path d="M133-34C117-15 103 5 69 4 32 3 11-16 11-54c-1-60 55-63 116-61 1-26-3-47-28-47-18 1-26 9-28 27l-52-2c7-38 36-58 82-57s74 22 75 68l1 82c-1 14 12 18 25 15v27c-30 8-71 5-69-32zm-48 3c29 0 43-24 42-57-32 0-66-3-65 30 0 17 8 27 23 27" id="s"/><path d="M123 10C108 53 80 86 19 72V37c35 8 53-11 59-39L3-190h52l48 148c12-52 28-100 44-148h51" id="t"/><path d="M135-150c-39-12-60 13-60 57V0H25l-1-190h47c2 13-1 29 3 40 6-28 27-53 61-41v41" id="u"/><g id="b"><use transform="matrix(0.07407407407407408,0,0,0.07407407407407408,0,0)" xlink:href="#n"/><use transform="matrix(0.07407407407407408,0,0,0.07407407407407408,19.185185185185187,0)" xlink:href="#o"/><use transform="matrix(0.07407407407407408,0,0,0.07407407407407408,35.40740740740741,0)" xlink:href="#p"/><use transform="matrix(0.07407407407407408,0,0,0.07407407407407408,50.22222222222223,0)" xlink:href="#i"/><use transform="matrix(0.07407407407407408,0,0,0.07407407407407408,57.62962962962964,0)" xlink:href="#q"/><use transform="matrix(0.07407407407407408,0,0,0.07407407407407408,73.85185185185186,0)" xlink:href="#k"/><use transform="matrix(0.07407407407407408,0,0,0.07407407407407408,88.66666666666667,0)" xlink:href="#p"/><use transform="matrix(0.07407407407407408,0,0,0.07407407407407408,103.4814814814815,0)" xlink:href="#p"/><use transform="matrix(0.07407407407407408,0,0,0.07407407407407408,118.29629629629632,0)" xlink:href="#r"/><use transform="matrix(0.07407407407407408,0,0,0.07407407407407408,134.51851851851853,0)" xlink:href="#s"/><use transform="matrix(0.07407407407407408,0,0,0.07407407407407408,149.33333333333334,0)" xlink:href="#t"/><use transform="matrix(0.07407407407407408,0,0,0.07407407407407408,164.14814814814812,0)" xlink:href="#k"/><use transform="matrix(0.07407407407407408,0,0,0.07407407407407408,178.96296296296296,0)" xlink:href="#u"/></g><path d="M24-248c93 1 206-16 204 79-1 75-69 88-152 82V0H24v-248zm52 121c47 0 100 7 100-41 0-47-54-39-100-39v80" id="v"/><path d="M115-3C79 11 28 4 28-45v-112H4v-33h27l15-45h31v45h36v33H77v99c-1 23 16 31 38 25v30" id="w"/><path d="M190-63c-7 42-38 67-86 67-59 0-84-38-90-98-12-110 154-137 174-36l-49 2c-2-19-15-32-35-32-30 0-35 28-38 64-6 74 65 87 74 30" id="x"/><g id="c"><use transform="matrix(0.07407407407407408,0,0,0.07407407407407408,0,0)" xlink:href="#v"/><use transform="matrix(0.07407407407407408,0,0,0.07407407407407408,17.77777777777778,0)" xlink:href="#k"/><use transform="matrix(0.07407407407407408,0,0,0.07407407407407408,32.592592592592595,0)" xlink:href="#u"/><use transform="matrix(0.07407407407407408,0,0,0.07407407407407408,42.96296296296297,0)" xlink:href="#p"/><use transform="matrix(0.07407407407407408,0,0,0.07407407407407408,57.777777777777786,0)" xlink:href="#i"/><use transform="matrix(0.07407407407407408,0,0,0.07407407407407408,65.18518518518519,0)" xlink:href="#p"/><use transform="matrix(0.07407407407407408,0,0,0.07407407407407408,80,0)" xlink:href="#w"/><use transform="matrix(0.07407407407407408,0,0,0.07407407407407408,88.81481481481481,0)" xlink:href="#k"/><use transform="matrix(0.07407407407407408,0,0,0.07407407407407408,103.62962962962963,0)" xlink:href="#q"/><use transform="matrix(0.07407407407407408,0,0,0.07407407407407408,119.85185185185185,0)" xlink:href="#x"/><use transform="matrix(0.07407407407407408,0,0,0.07407407407407408,134.66666666666666,0)" xlink:href="#k"/></g><path d="M275 0h-61l-44-196L126 0H64L0-248h53L97-49l45-199h58l43 199 44-199h52" id="y"/><g id="e"><use transform="matrix(0.07407407407407408,0,0,0.07407407407407408,0,0)" xlink:href="#y"/><use transform="matrix(0.07407407407407408,0,0,0.07407407407407408,24.592592592592595,0)" xlink:href="#k"/><use transform="matrix(0.07407407407407408,0,0,0.07407407407407408,39.40740740740741,0)" xlink:href="#h"/><use transform="matrix(0.07407407407407408,0,0,0.07407407407407408,55.62962962962964,0)" xlink:href="#l"/><use transform="matrix(0.07407407407407408,0,0,0.07407407407407408,72.88888888888889,0)" xlink:href="#i"/><use transform="matrix(0.07407407407407408,0,0,0.07407407407407408,80.29629629629629,0)" xlink:href="#k"/><use transform="matrix(0.07407407407407408,0,0,0.07407407407407408,95.1111111111111,0)" xlink:href="#m"/></g></defs></g></svg>