<svg xmlns="http://www.w3.org/2000/svg" xmlns:xlink="http://www.w3.org/1999/xlink" xmlns:lucid="lucid" width="301.9" height="551"><g transform="translate(-40 -40)" lucid:page-tab-id="0_0"><path d="M0 0h1870.4v1323.2H0z" fill="#fff"/><path d="M140 60h140v80H140z" stroke="#000" stroke-width="2" fill="#fff"/><use xlink:href="#a" transform="matrix(1,0,0,1,140,60) translate(65.005 44.4)"/><path d="M210 142v437" fill="none"/><path d="M210 142v2.98m0 3.97v5.96m0 3.98v5.96m0 3.98v5.96m0 3.97v5.96m0 3.98v5.96m0 3.97v5.97m0 3.97v5.96m0 3.98v5.95m0 3.98v5.97m0 3.97v5.96m0 3.97v5.96m0 3.97v5.96m0 3.97v5.96m0 3.97v5.96m0 3.97v5.96m0 3.97v5.96m0 3.96v5.96m0 3.97v5.95m0 3.98v5.95m0 3.98v5.96m0 3.97v5.95m0 3.97v5.96m0 3.97v5.96m0 3.98v5.96m0 3.98v5.96m0 3.97v5.96m0 3.98v5.96m0 3.97v5.97m0 3.97V433m0 3.98v5.95m0 3.98v5.97m0 3.97v5.96m0 3.97v5.96m0 3.97v5.96m0 3.97v5.96m0 3.97v5.96m0 3.97v5.96m0 3.97v5.96m0 3.96v5.96m0 3.97v5.95m0 3.98v5.95m0 3.98v5.96m0 3.97v5.95m0 3.97V579" stroke="#000" stroke-width="2" fill="none"/><path d="M211 142.03h-2V141h2z"/><path d="M210 578.97V580" stroke="#000" stroke-width="2" fill="none"/><path d="M190 200h40v300h-40z" stroke="#000" stroke-width="2" fill="#fff"/><path d="M81 200h89.5M81.03 200H80" stroke="#000" stroke-width="2" fill="none"/><path d="M185.76 200l-14.26 4.64v-9.28z" stroke="#000" stroke-width="2"/><path d="M60 160h160v60H60z" stroke="#000" stroke-opacity="0" stroke-width="2" fill="#fff" fill-opacity="0"/><use xlink:href="#b" transform="matrix(1,0,0,1,65,165) translate(66.55 28.6)"/><path d="M220 280h40v160h-40z" stroke="#000" stroke-width="2" fill="#fff"/><path d="M232 238h69v46.67h-21.5" stroke="#000" stroke-width="2" fill="none"/><path d="M232.03 239H231v-2h1.03z"/><path d="M264.24 284.67l14.26-4.64v9.27z" stroke="#000" stroke-width="2"/><use xlink:href="#c" transform="matrix(1,0,0,1,309,235.53333333333333) translate(0 14.4)"/><defs><path d="M141-36C126-15 110 5 73 4 37 3 15-17 15-53c-1-64 63-63 125-63 3-35-9-54-41-54-24 1-41 7-42 31l-33-3c5-37 33-52 76-52 45 0 72 20 72 64v82c-1 20 7 32 28 27v20c-31 9-61-2-59-35zM48-53c0 20 12 33 32 33 41-3 63-29 60-74-43 2-92-5-92 41" id="d"/><use transform="matrix(0.05,0,0,0.05,0,0)" xlink:href="#d" id="a"/><path d="M101-234c-31-9-42 10-38 44h38v23H63V0H32v-167H5v-23h27c-7-52 17-82 69-68v24" id="e"/><path d="M87 75C49 33 22-17 22-94c0-76 28-126 65-167h31c-38 41-64 92-64 168S80 34 118 75H87" id="f"/><path d="M33-261c38 41 65 92 65 168S71 34 33 75H2C39 34 66-17 66-93S39-220 2-261h31" id="g"/><g id="b"><use transform="matrix(0.05,0,0,0.05,0,0)" xlink:href="#e"/><use transform="matrix(0.05,0,0,0.05,5,0)" xlink:href="#f"/><use transform="matrix(0.05,0,0,0.05,10.95,0)" xlink:href="#g"/></g><path d="M177-190C167-65 218 103 67 71c-23-6-38-20-44-43l32-5c15 47 100 32 89-28v-30C133-14 115 1 83 1 29 1 15-40 15-95c0-56 16-97 71-98 29-1 48 16 59 35 1-10 0-23 2-32h30zM94-22c36 0 50-32 50-73 0-42-14-75-50-75-39 0-46 34-46 75s6 73 46 73" id="h"/><g id="c"><use transform="matrix(0.05,0,0,0.05,0,0)" xlink:href="#h"/><use transform="matrix(0.05,0,0,0.05,10,0)" xlink:href="#f"/><use transform="matrix(0.05,0,0,0.05,15.949999999999998,0)" xlink:href="#g"/></g></defs></g></svg>