<svg xmlns="http://www.w3.org/2000/svg" xmlns:xlink="http://www.w3.org/1999/xlink" xmlns:lucid="lucid" width="775" height="560"><g transform="translate(-120 -40)" lucid:page-tab-id="0_0"><path d="M0 0h1870.4v1323.2H0z" fill="#fff"/><path d="M140 60h140v80H140z" stroke="#000" stroke-width="2" fill="#fff"/><use xlink:href="#a" transform="matrix(1,0,0,1,140,60) translate(55.029999999999994 44.4)"/><path d="M210 142v437" fill="none"/><path d="M210 142v2.98m0 3.97v5.96m0 3.98v5.96m0 3.98v5.96m0 3.97v5.96m0 3.98v5.96m0 3.97v5.97m0 3.97v5.96m0 3.98v5.95m0 3.98v5.97m0 3.97v5.96m0 3.97v5.96m0 3.97v5.96m0 3.97v5.96m0 3.97v5.96m0 3.97v5.96m0 3.97v5.96m0 3.96v5.96m0 3.97v5.95m0 3.98v5.95m0 3.98v5.96m0 3.97v5.95m0 3.97v5.96m0 3.97v5.96m0 3.98v5.96m0 3.98v5.96m0 3.97v5.96m0 3.98v5.96m0 3.97v5.97m0 3.97V433m0 3.98v5.95m0 3.98v5.97m0 3.97v5.96m0 3.97v5.96m0 3.97v5.96m0 3.97v5.96m0 3.97v5.96m0 3.97v5.96m0 3.97v5.96m0 3.96v5.96m0 3.97v5.95m0 3.98v5.95m0 3.98v5.96m0 3.97v5.95m0 3.97V579" stroke="#000" stroke-width="2" fill="none"/><path d="M211 142.03h-2V141h2z"/><path d="M210 578.97V580" stroke="#000" stroke-width="2" fill="none"/><path d="M190 200h40v380h-40zM434 60h140v80H434z" stroke="#000" stroke-width="2" fill="#fff"/><use xlink:href="#b" transform="matrix(1,0,0,1,434,60) translate(48.005 44.4)"/><path d="M504 142v435" fill="none"/><path d="M504 142v2.97m0 3.95v5.93m0 3.96v5.94m0 3.95v5.92m0 3.96v5.93m0 3.97v5.93m0 3.95v5.93m0 3.96v5.93m0 3.95v5.94m0 3.95v5.94m0 3.96v5.93m0 3.95v5.94m0 3.95v5.93m0 3.96v5.93m0 3.94v5.93m0 3.96v5.93m0 3.96v5.93m0 3.95v5.93m0 3.96v5.92m0 3.95v5.94m0 3.96v5.93m0 3.95v5.93m0 3.95v5.94m0 3.95v5.93m0 3.96v5.94m0 3.95v5.92m0 3.96V402m0 3.97v5.93m0 3.95v5.93m0 3.96v5.93m0 3.95v5.94m0 3.95v5.94m0 3.96v5.93m0 3.95v5.94m0 3.95v5.93m0 3.96V491m0 3.94v5.94m0 3.95v5.93m0 3.96v5.93m0 3.95v5.93m0 3.96v5.92m0 3.96v5.93m0 3.96v5.93m0 3.95v5.93m0 3.95V577" stroke="#000" stroke-width="2" fill="none"/><path d="M505 142.03h-2V141h2z"/><path d="M504 576.97V578" stroke="#000" stroke-width="2" fill="none"/><path d="M484 240h40v280h-40zM735 60h140v80H735z" stroke="#000" stroke-width="2" fill="#fff"/><use xlink:href="#c" transform="matrix(1,0,0,1,735,60) translate(33.004999999999995 44.4)"/><path d="M232 246h232.5" stroke="#000" stroke-width="2" fill="none"/><path d="M232.03 247H231v-2h1.03z"/><path d="M479.76 246l-14.26 4.64v-9.28z" stroke="#000" stroke-width="2"/><use xlink:href="#d" transform="matrix(1,0,0,1,294.65,220.39999999999995) translate(0 14.4)"/><path d="M505 300h40v80h-40z" stroke="#000" stroke-width="2" fill="#fff"/><path d="M815 142v435" fill="none"/><path d="M815 142v2.97m0 3.95v5.93m0 3.96v5.94m0 3.95v5.92m0 3.96v5.93m0 3.97v5.93m0 3.95v5.93m0 3.96v5.93m0 3.95v5.94m0 3.95v5.94m0 3.96v5.93m0 3.95v5.94m0 3.95v5.93m0 3.96v5.93m0 3.94v5.93m0 3.96v5.93m0 3.96v5.93m0 3.95v5.93m0 3.96v5.92m0 3.95v5.94m0 3.96v5.93m0 3.95v5.93m0 3.95v5.94m0 3.95v5.93m0 3.96v5.94m0 3.95v5.92m0 3.96V402m0 3.97v5.93m0 3.95v5.93m0 3.96v5.93m0 3.95v5.94m0 3.95v5.94m0 3.96v5.93m0 3.95v5.94m0 3.95v5.93m0 3.96V491m0 3.94v5.94m0 3.95v5.93m0 3.96v5.93m0 3.95v5.93m0 3.96v5.92m0 3.96v5.93m0 3.96v5.93m0 3.95v5.93m0 3.95V577M815 142.03V141M815 576.97V578" stroke="#000" stroke-width="2" fill="none"/><path d="M795 420h40v40h-40z" stroke="#000" stroke-width="2" fill="#fff"/><path d="M526 259.33h60V302h-21.5" stroke="#000" stroke-width="2" fill="none"/><path d="M526.03 260.33H525v-2h1.03z"/><path d="M549.24 302l14.26-4.64v9.28z" stroke="#000" stroke-width="2"/><use xlink:href="#e" transform="matrix(1,0,0,1,594,259.3666666666667) translate(0 14.4)"/><path d="M526 424.67h249.5" stroke="#000" stroke-width="2" fill="none"/><path d="M526.03 425.67H525v-2h1.03z"/><path d="M790.76 424.67l-14.26 4.63v-9.27z" stroke="#000" stroke-width="2"/><use xlink:href="#f" transform="matrix(1,0,0,1,626.05,399.06666666666666) translate(0 14.4)"/><path d="M543.5 460H793" fill="none"/><path d="M543.5 460h1.98m7.92 0h3.96m7.92 0h3.96m7.92 0h3.96m7.93 0H593m7.93 0h3.96m7.9 0h3.97m7.92 0h3.95m7.92 0h3.96m7.92 0h3.96m7.93 0h3.96m7.9 0h3.97m7.92 0h3.95m7.92 0h3.96m7.92 0h3.96m7.93 0h3.96m7.9 0h3.98m7.92 0h3.96m7.92 0h3.96m7.92 0h3.96m7.92 0h3.96m7.92 0H793" stroke="#000" stroke-width="2" fill="none"/><path d="M528.24 460l14.26-4.64v9.28z" stroke="#000" stroke-width="2"/><path d="M792.97 460H794" stroke="#000" stroke-width="2" fill="none"/><path d="M249.5 520H482" fill="none"/><path d="M249.5 520h2.04m8.16 0h4.08m8.16 0H276m8.17 0h4.08m8.16 0h4.1m8.15 0h4.08m8.15 0h4.08m8.16 0h4.08m8.16 0h4.08m8.15 0h4.07m8.16 0h4.08m8.17 0h4.08m8.15 0h4.08m8.16 0h4.08m8.16 0h4.08m8.15 0h4.1m8.15 0h4.08m8.16 0h4.07m8.15 0h4.08m8.16 0H482" stroke="#000" stroke-width="2" fill="none"/><path d="M234.24 520l14.26-4.64v9.28z" stroke="#000" stroke-width="2"/><path d="M481.97 520H483" stroke="#000" stroke-width="2" fill="none"/><defs><path d="M141-36C126-15 110 5 73 4 37 3 15-17 15-53c-1-64 63-63 125-63 3-35-9-54-41-54-24 1-41 7-42 31l-33-3c5-37 33-52 76-52 45 0 72 20 72 64v82c-1 20 7 32 28 27v20c-31 9-61-2-59-35zM48-53c0 20 12 33 32 33 41-3 63-29 60-74-43 2-92-5-92 41" id="g"/><path d="M59-47c-2 24 18 29 38 22v24C64 9 27 4 27-40v-127H5v-23h24l9-43h21v43h35v23H59v120" id="h"/><path d="M210-169c-67 3-38 105-44 169h-31v-121c0-29-5-50-35-48C34-165 62-65 56 0H25l-1-190h30c1 10-1 24 2 32 10-44 99-50 107 0 11-21 27-35 58-36 85-2 47 119 55 194h-31v-121c0-29-5-49-35-48" id="i"/><g id="a"><use transform="matrix(0.05,0,0,0.05,0,0)" xlink:href="#g"/><use transform="matrix(0.05,0,0,0.05,10,0)" xlink:href="#h"/><use transform="matrix(0.05,0,0,0.05,15,0)" xlink:href="#i"/></g><path d="M96-169c-40 0-48 33-48 73s9 75 48 75c24 0 41-14 43-38l32 2c-6 37-31 61-74 61-59 0-76-41-82-99-10-93 101-131 147-64 4 7 5 14 7 22l-32 3c-4-21-16-35-41-35" id="j"/><path d="M100-194c62-1 85 37 85 99 1 63-27 99-86 99S16-35 15-95c0-66 28-99 85-99zM99-20c44 1 53-31 53-75 0-43-8-75-51-75s-53 32-53 75 10 74 51 75" id="k"/><path d="M117-194c89-4 53 116 60 194h-32v-121c0-31-8-49-39-48C34-167 62-67 57 0H25l-1-190h30c1 10-1 24 2 32 11-22 29-35 61-36" id="l"/><g id="b"><use transform="matrix(0.05,0,0,0.05,0,0)" xlink:href="#j"/><use transform="matrix(0.05,0,0,0.05,9,0)" xlink:href="#k"/><use transform="matrix(0.05,0,0,0.05,19,0)" xlink:href="#l"/><use transform="matrix(0.05,0,0,0.05,29,0)" xlink:href="#h"/><use transform="matrix(0.05,0,0,0.05,34,0)" xlink:href="#g"/></g><path d="M85-194c31 0 48 13 60 33l-1-100h32l1 261h-30c-2-10 0-23-3-31C134-8 116 4 85 4 32 4 16-35 15-94c0-66 23-100 70-100zm9 24c-40 0-46 34-46 75 0 40 6 74 45 74 42 0 51-32 51-76 0-42-9-74-50-73" id="m"/><path d="M115-194c53 0 69 39 70 98 0 66-23 100-70 100C84 3 66-7 56-30L54 0H23l1-261h32v101c10-23 28-34 59-34zm-8 174c40 0 45-34 45-75 0-40-5-75-45-74-42 0-51 32-51 76 0 43 10 73 51 73" id="n"/><path d="M135-143c-3-34-86-38-87 0 15 53 115 12 119 90S17 21 10-45l28-5c4 36 97 45 98 0-10-56-113-15-118-90-4-57 82-63 122-42 12 7 21 19 24 35" id="o"/><path d="M100-194c63 0 86 42 84 106H49c0 40 14 67 53 68 26 1 43-12 49-29l28 8c-11 28-37 45-77 45C44 4 14-33 15-96c1-61 26-98 85-98zm52 81c6-60-76-77-97-28-3 7-6 17-6 28h103" id="p"/><g id="c"><use transform="matrix(0.05,0,0,0.05,0,0)" xlink:href="#m"/><use transform="matrix(0.05,0,0,0.05,10,0)" xlink:href="#g"/><use transform="matrix(0.05,0,0,0.05,20,0)" xlink:href="#h"/><use transform="matrix(0.05,0,0,0.05,25,0)" xlink:href="#g"/><use transform="matrix(0.05,0,0,0.05,35,0)" xlink:href="#n"/><use transform="matrix(0.05,0,0,0.05,45,0)" xlink:href="#g"/><use transform="matrix(0.05,0,0,0.05,55,0)" xlink:href="#o"/><use transform="matrix(0.05,0,0,0.05,64,0)" xlink:href="#p"/></g><path d="M115-194c55 1 70 41 70 98S169 2 115 4C84 4 66-9 55-30l1 105H24l-1-265h31l2 30c10-21 28-34 59-34zm-8 174c40 0 45-34 45-75s-6-73-45-74c-42 0-51 32-51 76 0 43 10 73 51 73" id="q"/><path d="M24-231v-30h32v30H24zM24 0v-190h32V0H24" id="r"/><path d="M114-163C36-179 61-72 57 0H25l-1-190h30c1 12-1 29 2 39 6-27 23-49 58-41v29" id="s"/><path d="M87 75C49 33 22-17 22-94c0-76 28-126 65-167h31c-38 41-64 92-64 168S80 34 118 75H87" id="t"/><path d="M108 0H70L1-190h34L89-25l56-165h34" id="u"/><path d="M24 0v-261h32V0H24" id="v"/><path d="M33-261c38 41 65 92 65 168S71 34 33 75H2C39 34 66-17 66-93S39-220 2-261h31" id="w"/><g id="d"><use transform="matrix(0.05,0,0,0.05,0,0)" xlink:href="#m"/><use transform="matrix(0.05,0,0,0.05,10,0)" xlink:href="#p"/><use transform="matrix(0.05,0,0,0.05,20,0)" xlink:href="#q"/><use transform="matrix(0.05,0,0,0.05,30,0)" xlink:href="#k"/><use transform="matrix(0.05,0,0,0.05,40,0)" xlink:href="#o"/><use transform="matrix(0.05,0,0,0.05,49,0)" xlink:href="#r"/><use transform="matrix(0.05,0,0,0.05,52.95,0)" xlink:href="#h"/><use transform="matrix(0.05,0,0,0.05,57.95,0)" xlink:href="#g"/><use transform="matrix(0.05,0,0,0.05,67.95,0)" xlink:href="#s"/><use transform="matrix(0.05,0,0,0.05,73.9,0)" xlink:href="#t"/><use transform="matrix(0.05,0,0,0.05,79.85000000000001,0)" xlink:href="#u"/><use transform="matrix(0.05,0,0,0.05,88.85000000000001,0)" xlink:href="#g"/><use transform="matrix(0.05,0,0,0.05,98.85000000000001,0)" xlink:href="#v"/><use transform="matrix(0.05,0,0,0.05,102.80000000000001,0)" xlink:href="#k"/><use transform="matrix(0.05,0,0,0.05,112.80000000000001,0)" xlink:href="#s"/><use transform="matrix(0.05,0,0,0.05,118.75,0)" xlink:href="#w"/></g><path d="M185-189c-5-48-123-54-124 2 14 75 158 14 163 119 3 78-121 87-175 55-17-10-28-26-33-46l33-7c5 56 141 63 141-1 0-78-155-14-162-118-5-82 145-84 179-34 5 7 8 16 11 25" id="x"/><g id="e"><use transform="matrix(0.05,0,0,0.05,0,0)" xlink:href="#o"/><use transform="matrix(0.05,0,0,0.05,9,0)" xlink:href="#p"/><use transform="matrix(0.05,0,0,0.05,19,0)" xlink:href="#h"/><use transform="matrix(0.05,0,0,0.05,24,0)" xlink:href="#x"/><use transform="matrix(0.05,0,0,0.05,36,0)" xlink:href="#g"/><use transform="matrix(0.05,0,0,0.05,46,0)" xlink:href="#v"/><use transform="matrix(0.05,0,0,0.05,49.95,0)" xlink:href="#m"/><use transform="matrix(0.05,0,0,0.05,59.95,0)" xlink:href="#k"/></g><path d="M84 4C-5 8 30-112 23-190h32v120c0 31 7 50 39 49 72-2 45-101 50-169h31l1 190h-30c-1-10 1-25-2-33-11 22-28 36-60 37" id="y"/><g id="f"><use transform="matrix(0.05,0,0,0.05,0,0)" xlink:href="#y"/><use transform="matrix(0.05,0,0,0.05,10,0)" xlink:href="#q"/><use transform="matrix(0.05,0,0,0.05,20,0)" xlink:href="#m"/><use transform="matrix(0.05,0,0,0.05,30,0)" xlink:href="#g"/><use transform="matrix(0.05,0,0,0.05,40,0)" xlink:href="#h"/><use transform="matrix(0.05,0,0,0.05,45,0)" xlink:href="#p"/><use transform="matrix(0.05,0,0,0.05,55,0)" xlink:href="#t"/><use transform="matrix(0.05,0,0,0.05,60.95,0)" xlink:href="#w"/></g></defs></g></svg>