<svg xmlns="http://www.w3.org/2000/svg" xmlns:xlink="http://www.w3.org/1999/xlink" xmlns:lucid="lucid" width="500" height="551"><g transform="translate(-40 -40)" lucid:page-tab-id="0_0"><path d="M0 0h1870.4v1323.2H0z" fill="#fff"/><path d="M140 60h140v80H140z" stroke="#000" stroke-width="2" fill="#fff"/><use xlink:href="#a" transform="matrix(1,0,0,1,140,60) translate(60.005 44.4)"/><path d="M210 142v437" fill="none"/><path d="M210 142v2.98m0 3.97v5.96m0 3.98v5.96m0 3.98v5.96m0 3.97v5.96m0 3.98v5.96m0 3.97v5.97m0 3.97v5.96m0 3.98v5.95m0 3.98v5.97m0 3.97v5.96m0 3.97v5.96m0 3.97v5.96m0 3.97v5.96m0 3.97v5.96m0 3.97v5.96m0 3.97v5.96m0 3.96v5.96m0 3.97v5.95m0 3.98v5.95m0 3.98v5.96m0 3.97v5.95m0 3.97v5.96m0 3.97v5.96m0 3.98v5.96m0 3.98v5.96m0 3.97v5.96m0 3.98v5.96m0 3.97v5.97m0 3.97V433m0 3.98v5.95m0 3.98v5.97m0 3.97v5.96m0 3.97v5.96m0 3.97v5.96m0 3.97v5.96m0 3.97v5.96m0 3.97v5.96m0 3.97v5.96m0 3.96v5.96m0 3.97v5.95m0 3.98v5.95m0 3.98v5.96m0 3.97v5.95m0 3.97V579" stroke="#000" stroke-width="2" fill="none"/><path d="M211 142.03h-2V141h2z"/><path d="M210 578.97V580" stroke="#000" stroke-width="2" fill="none"/><path d="M190 200h40v300h-40zM380 60h140v80H380z" stroke="#000" stroke-width="2" fill="#fff"/><use xlink:href="#b" transform="matrix(1,0,0,1,380,60) translate(60.005 44.4)"/><path d="M450 142v437" fill="none"/><path d="M450 142v2.98m0 3.97v5.96m0 3.98v5.96m0 3.98v5.96m0 3.97v5.96m0 3.98v5.96m0 3.97v5.97m0 3.97v5.96m0 3.98v5.95m0 3.98v5.97m0 3.97v5.96m0 3.97v5.96m0 3.97v5.96m0 3.97v5.96m0 3.97v5.96m0 3.97v5.96m0 3.97v5.96m0 3.96v5.96m0 3.97v5.95m0 3.98v5.95m0 3.98v5.96m0 3.97v5.95m0 3.97v5.96m0 3.97v5.96m0 3.98v5.96m0 3.98v5.96m0 3.97v5.96m0 3.98v5.96m0 3.97v5.97m0 3.97V433m0 3.98v5.95m0 3.98v5.97m0 3.97v5.96m0 3.97v5.96m0 3.97v5.96m0 3.97v5.96m0 3.97v5.96m0 3.97v5.96m0 3.97v5.96m0 3.96v5.96m0 3.97v5.95m0 3.98v5.95m0 3.98v5.96m0 3.97v5.95m0 3.97V579" stroke="#000" stroke-width="2" fill="none"/><path d="M451 142.03h-2V141h2z"/><path d="M450 578.97V580" stroke="#000" stroke-width="2" fill="none"/><path d="M430 280h40v160h-40z" stroke="#000" stroke-width="2" fill="#fff"/><path d="M81 200h89.5M81.03 200H80" stroke="#000" stroke-width="2" fill="none"/><path d="M185.76 200l-14.26 4.64v-9.28z" stroke="#000" stroke-width="2"/><path d="M232 280h178.5" stroke="#000" stroke-width="2" fill="none"/><path d="M232.03 281H231v-2h1.03z"/><path d="M425.76 280l-14.26 4.64v-9.28z" stroke="#000" stroke-width="2"/><path d="M98.5 500H188" fill="none"/><path d="M98.5 500h2.13m8.53 0h4.26m8.52 0h4.26m8.53 0H139m8.5 0h4.27m8.53 0h4.26m8.52 0h4.27m8.52 0H188" stroke="#000" stroke-width="2" fill="none"/><path d="M83.24 500l14.26-4.64v9.28z" stroke="#000" stroke-width="2"/><path d="M187.97 500H189" stroke="#000" stroke-width="2" fill="none"/><path d="M60 160h160v60H60z" stroke="#000" stroke-opacity="0" stroke-width="2" fill="#fff" fill-opacity="0"/><use xlink:href="#c" transform="matrix(1,0,0,1,65,165) translate(66.55 28.6)"/><path d="M220 240h240v60H220z" stroke="#000" stroke-opacity="0" stroke-width="2" fill="#fff" fill-opacity="0"/><use xlink:href="#d" transform="matrix(1,0,0,1,225,245) translate(104.05 28.6)"/><path d="M60 460h160v60H60z" stroke="#000" stroke-opacity="0" stroke-width="2" fill="#fff" fill-opacity="0"/><use xlink:href="#e" transform="matrix(1,0,0,1,65,465) translate(65.5 28.6)"/><defs><path d="M141-36C126-15 110 5 73 4 37 3 15-17 15-53c-1-64 63-63 125-63 3-35-9-54-41-54-24 1-41 7-42 31l-33-3c5-37 33-52 76-52 45 0 72 20 72 64v82c-1 20 7 32 28 27v20c-31 9-61-2-59-35zM48-53c0 20 12 33 32 33 41-3 63-29 60-74-43 2-92-5-92 41" id="f"/><path d="M27 0v-27h64v-190l-56 39v-29l58-41h29v221h61V0H27" id="g"/><g id="a"><use transform="matrix(0.05,0,0,0.05,0,0)" xlink:href="#f"/><use transform="matrix(0.05,0,0,0.05,10,0)" xlink:href="#g"/></g><path d="M115-194c53 0 69 39 70 98 0 66-23 100-70 100C84 3 66-7 56-30L54 0H23l1-261h32v101c10-23 28-34 59-34zm-8 174c40 0 45-34 45-75 0-40-5-75-45-74-42 0-51 32-51 76 0 43 10 73 51 73" id="h"/><g id="b"><use transform="matrix(0.05,0,0,0.05,0,0)" xlink:href="#h"/><use transform="matrix(0.05,0,0,0.05,10,0)" xlink:href="#g"/></g><path d="M101-234c-31-9-42 10-38 44h38v23H63V0H32v-167H5v-23h27c-7-52 17-82 69-68v24" id="i"/><path d="M87 75C49 33 22-17 22-94c0-76 28-126 65-167h31c-38 41-64 92-64 168S80 34 118 75H87" id="j"/><path d="M33-261c38 41 65 92 65 168S71 34 33 75H2C39 34 66-17 66-93S39-220 2-261h31" id="k"/><g id="c"><use transform="matrix(0.05,0,0,0.05,0,0)" xlink:href="#i"/><use transform="matrix(0.05,0,0,0.05,5,0)" xlink:href="#j"/><use transform="matrix(0.05,0,0,0.05,10.95,0)" xlink:href="#k"/></g><path d="M177-190C167-65 218 103 67 71c-23-6-38-20-44-43l32-5c15 47 100 32 89-28v-30C133-14 115 1 83 1 29 1 15-40 15-95c0-56 16-97 71-98 29-1 48 16 59 35 1-10 0-23 2-32h30zM94-22c36 0 50-32 50-73 0-42-14-75-50-75-39 0-46 34-46 75s6 73 46 73" id="l"/><g id="d"><use transform="matrix(0.05,0,0,0.05,0,0)" xlink:href="#l"/><use transform="matrix(0.05,0,0,0.05,10,0)" xlink:href="#j"/><use transform="matrix(0.05,0,0,0.05,15.949999999999998,0)" xlink:href="#k"/></g><path d="M96-169c-40 0-48 33-48 73s9 75 48 75c24 0 41-14 43-38l32 2c-6 37-31 61-74 61-59 0-76-41-82-99-10-93 101-131 147-64 4 7 5 14 7 22l-32 3c-4-21-16-35-41-35" id="m"/><g id="e"><use transform="matrix(0.05,0,0,0.05,0,0)" xlink:href="#m"/><use transform="matrix(0.05,0,0,0.05,9,0)" xlink:href="#g"/></g></defs></g></svg>