<svg xmlns="http://www.w3.org/2000/svg" xmlns:xlink="http://www.w3.org/1999/xlink" xmlns:lucid="lucid" width="870" height="480"><g transform="translate(-120 -80)" lucid:page-tab-id="0_0"><path d="M0 0h1870.4v1323.2H0z" fill="#fff"/><path d="M240 300c0 22.1-17.9 40-40 40s-40-17.9-40-40 17.9-40 40-40 40 17.9 40 40z" stroke="#000" stroke-width="2" fill="#fff"/><use xlink:href="#a" transform="matrix(1,0,0,1,165,265) translate(30 38.4625)"/><path d="M380 300c0 22.1-17.9 40-40 40s-40-17.9-40-40 17.9-40 40-40 40 17.9 40 40z" stroke="#000" stroke-width="2" fill="#fff"/><use xlink:href="#b" transform="matrix(1,0,0,1,305,265) translate(30 38.4625)"/><path d="M520 300c0 22.1-17.9 40-40 40s-40-17.9-40-40 17.9-40 40-40 40 17.9 40 40z" stroke="#000" stroke-width="2" fill="#fff"/><use xlink:href="#c" transform="matrix(1,0,0,1,445,265) translate(30 38.4625)"/><path d="M680 420c0 22.1-17.9 40-40 40s-40-17.9-40-40 17.9-40 40-40 40 17.9 40 40z" stroke="#000" stroke-width="2" fill="#fff"/><use xlink:href="#d" transform="matrix(1,0,0,1,605,385) translate(30 38.4625)"/><path d="M438 300h-38.5" stroke="#000" stroke-width="2" fill="none"/><path d="M439 300l.03 1h-1.06v-2h1.1z"/><path d="M384.24 300l14.26-4.64v9.28z" stroke="#000" stroke-width="2"/><path d="M298 300h-38.5" stroke="#000" stroke-width="2" fill="none"/><path d="M299 300l.03 1h-1.06v-2h1.1z"/><path d="M244.24 300l14.26-4.64v9.28z" stroke="#000" stroke-width="2"/><path d="M160 280h240v60H160z" stroke="#000" stroke-opacity="0" stroke-width="2" fill="#fff" fill-opacity="0"/><use xlink:href="#e" transform="matrix(1,0,0,1,165,285) translate(103.025 30.025)"/><path d="M140 340h100v60H140z" stroke="#000" stroke-opacity="0" stroke-width="2" fill="#fff" fill-opacity="0"/><use xlink:href="#f" transform="matrix(1,0,0,1,145,345) translate(4.074999999999996 30.025)"/><use xlink:href="#g" transform="matrix(1,0,0,1,145,345) translate(29.074999999999996 30.025)"/><path d="M598.45 419.16L531.08 315.5" stroke="#000" stroke-width="2" fill="none"/><path d="M599 420l.07 1.94-1.47-2.25 1.48-.97z"/><path d="M522.76 302.7l11.67 9.45-7.78 5.05z" stroke="#000" stroke-width="2"/><path d="M820 420c0 22.1-17.9 40-40 40s-40-17.9-40-40 17.9-40 40-40 40 17.9 40 40z" stroke="#000" stroke-width="2" fill="#fff"/><use xlink:href="#h" transform="matrix(1,0,0,1,745,385) translate(30 38.4625)"/><path d="M960 420c0 22.1-17.9 40-40 40s-40-17.9-40-40 17.9-40 40-40 40 17.9 40 40z" stroke="#000" stroke-width="2" fill="#fff"/><use xlink:href="#i" transform="matrix(1,0,0,1,885,385) translate(30 38.4625)"/><path d="M738 420h-38.5" stroke="#000" stroke-width="2" fill="none"/><path d="M739 420l.03 1h-1.06v-2h1.1z"/><path d="M684.24 420l14.26-4.64v9.28z" stroke="#000" stroke-width="2"/><path d="M878 420h-38.5" stroke="#000" stroke-width="2" fill="none"/><path d="M879 420l.03 1h-1.06v-2h1.1z"/><path d="M824.24 420l14.26-4.64v9.28z" stroke="#000" stroke-width="2"/><path d="M420 180h120v40H420z" stroke="#000" stroke-width="2" fill="#ffeca9"/><use xlink:href="#j" transform="matrix(1,0,0,1,425,185) translate(17.574999999999996 18.15)"/><path d="M870 500h100v40H870z" stroke="#000" stroke-width="2" fill="#ffeca9"/><use xlink:href="#k" transform="matrix(1,0,0,1,875,505) translate(5.049999999999997 18.15)"/><path d="M480 222v18.5" stroke="#000" stroke-width="2" fill="none"/><path d="M481 222.03h-2V221h2z"/><path d="M480 255.76l-4.64-14.26h9.28z" stroke="#000" stroke-width="2"/><path d="M420 100h120v40H420z" stroke="#000" stroke-width="2" fill="#c7e8ac"/><use xlink:href="#l" transform="matrix(1,0,0,1,425,105) translate(30.049999999999997 18.15)"/><path d="M480 142v18.5" stroke="#000" stroke-width="2" fill="none"/><path d="M481 142.03h-2V141h2z"/><path d="M480 175.76l-4.64-14.26h9.28z" stroke="#000" stroke-width="2"/><path d="M920 498v-18.5" stroke="#000" stroke-width="2" fill="none"/><path d="M921 499h-2v-1.03h2z"/><path d="M920 464.24l4.64 14.26h-9.28z" stroke="#000" stroke-width="2"/><defs><path d="M27 0v-27h64v-190l-56 39v-29l58-41h29v221h61V0H27" id="m"/><use transform="matrix(0.05,0,0,0.05,0,0)" xlink:href="#m" id="a"/><path d="M101-251c82-7 93 87 43 132L82-64C71-53 59-42 53-27h129V0H18c2-99 128-94 128-182 0-28-16-43-45-43s-46 15-49 41l-32-3c6-41 34-60 81-64" id="n"/><use transform="matrix(0.05,0,0,0.05,0,0)" xlink:href="#n" id="b"/><path d="M126-127c33 6 58 20 58 59 0 88-139 92-164 29-3-8-5-16-6-25l32-3c6 27 21 44 54 44 32 0 52-15 52-46 0-38-36-46-79-43v-28c39 1 72-4 72-42 0-27-17-43-46-43-28 0-47 15-49 41l-32-3c6-42 35-63 81-64 48-1 79 21 79 65 0 36-21 52-52 59" id="o"/><use transform="matrix(0.05,0,0,0.05,0,0)" xlink:href="#o" id="c"/><path d="M155-56V0h-30v-56H8v-25l114-167h33v167h35v25h-35zm-30-156c-27 46-58 90-88 131h88v-131" id="p"/><use transform="matrix(0.05,0,0,0.05,0,0)" xlink:href="#p" id="d"/><path d="M115-194c55 1 70 41 70 98S169 2 115 4C84 4 66-9 55-30l1 105H24l-1-265h31l2 30c10-21 28-34 59-34zm-8 174c40 0 45-34 45-75s-6-73-45-74c-42 0-51 32-51 76 0 43 10 73 51 73" id="q"/><path d="M141-36C126-15 110 5 73 4 37 3 15-17 15-53c-1-64 63-63 125-63 3-35-9-54-41-54-24 1-41 7-42 31l-33-3c5-37 33-52 76-52 45 0 72 20 72 64v82c-1 20 7 32 28 27v20c-31 9-61-2-59-35zM48-53c0 20 12 33 32 33 41-3 63-29 60-74-43 2-92-5-92 41" id="r"/><path d="M24-231v-30h32v30H24zM24 0v-190h32V0H24" id="s"/><g id="e"><use transform="matrix(0.05,0,0,0.05,0,0)" xlink:href="#q"/><use transform="matrix(0.05,0,0,0.05,10,0)" xlink:href="#r"/><use transform="matrix(0.05,0,0,0.05,20,0)" xlink:href="#s"/></g><path d="M100-194c62-1 85 37 85 99 1 63-27 99-86 99S16-35 15-95c0-66 28-99 85-99zM99-20c44 1 53-31 53-75 0-43-8-75-51-75s-53 32-53 75 10 74 51 75" id="t"/><g id="f"><use transform="matrix(0.05,0,0,0.05,0,0)" xlink:href="#m"/><use transform="matrix(0.05,0,0,0.05,10,0)" xlink:href="#t"/></g><path d="M96-169c-40 0-48 33-48 73s9 75 48 75c24 0 41-14 43-38l32 2c-6 37-31 61-74 61-59 0-76-41-82-99-10-93 101-131 147-64 4 7 5 14 7 22l-32 3c-4-21-16-35-41-35" id="u"/><path d="M210-169c-67 3-38 105-44 169h-31v-121c0-29-5-50-35-48C34-165 62-65 56 0H25l-1-190h30c1 10-1 24 2 32 10-44 99-50 107 0 11-21 27-35 58-36 85-2 47 119 55 194h-31v-121c0-29-5-49-35-48" id="v"/><path d="M59-47c-2 24 18 29 38 22v24C64 9 27 4 27-40v-127H5v-23h24l9-43h21v43h35v23H59v120" id="w"/><g id="g"><use transform="matrix(0.05,0,0,0.05,0,0)" xlink:href="#u"/><use transform="matrix(0.05,0,0,0.05,9,0)" xlink:href="#t"/><use transform="matrix(0.05,0,0,0.05,19,0)" xlink:href="#v"/><use transform="matrix(0.05,0,0,0.05,33.95,0)" xlink:href="#v"/><use transform="matrix(0.05,0,0,0.05,48.900000000000006,0)" xlink:href="#s"/><use transform="matrix(0.05,0,0,0.05,52.85,0)" xlink:href="#w"/></g><path d="M54-142c48-35 137-8 131 61C196 18 31 33 14-55l32-4c7 23 22 37 52 37 35-1 51-22 54-58 4-55-73-65-99-34H22l8-134h141v27H59" id="x"/><use transform="matrix(0.05,0,0,0.05,0,0)" xlink:href="#x" id="h"/><path d="M110-160c48 1 74 30 74 79 0 53-28 85-80 85-65 0-83-55-86-122-5-90 50-162 133-122 14 7 22 21 27 39l-31 6c-5-40-67-38-82-6-9 19-15 44-15 74 11-20 30-34 60-33zm-7 138c34 0 49-23 49-58s-16-56-50-56c-29 0-50 16-49 49 1 36 15 65 50 65" id="y"/><use transform="matrix(0.05,0,0,0.05,0,0)" xlink:href="#y" id="i"/><path d="M240 0l2-218c-23 76-54 145-80 218h-23L58-218 59 0H30v-248h44l77 211c21-75 51-140 76-211h43V0h-30" id="z"/><path d="M205 0l-28-72H64L36 0H1l101-248h38L239 0h-34zm-38-99l-47-123c-12 45-31 82-46 123h93" id="A"/><path d="M185-189c-5-48-123-54-124 2 14 75 158 14 163 119 3 78-121 87-175 55-17-10-28-26-33-46l33-7c5 56 141 63 141-1 0-78-155-14-162-118-5-82 145-84 179-34 5 7 8 16 11 25" id="B"/><path d="M127-220V0H93v-220H8v-28h204v28h-85" id="C"/><path d="M30 0v-248h187v28H63v79h144v27H63v87h162V0H30" id="D"/><path d="M233-177c-1 41-23 64-60 70L243 0h-38l-65-103H63V0H30v-248c88 3 205-21 203 71zM63-129c60-2 137 13 137-47 0-61-80-42-137-45v92" id="E"/><g id="j"><use transform="matrix(0.05,0,0,0.05,0,0)" xlink:href="#z"/><use transform="matrix(0.05,0,0,0.05,14.950000000000001,0)" xlink:href="#A"/><use transform="matrix(0.05,0,0,0.05,26.950000000000003,0)" xlink:href="#B"/><use transform="matrix(0.05,0,0,0.05,38.95,0)" xlink:href="#C"/><use transform="matrix(0.05,0,0,0.05,49.900000000000006,0)" xlink:href="#D"/><use transform="matrix(0.05,0,0,0.05,61.900000000000006,0)" xlink:href="#E"/></g><path d="M33 0v-248h34V0H33" id="F"/><path d="M232-93c-1 65-40 97-104 97C67 4 28-28 28-90v-158h33c8 89-33 224 67 224 102 0 64-133 71-224h33v155" id="G"/><path d="M16-82v-28h88v28H16" id="H"/><g id="k"><use transform="matrix(0.05,0,0,0.05,0,0)" xlink:href="#F"/><use transform="matrix(0.05,0,0,0.05,5,0)" xlink:href="#B"/><use transform="matrix(0.05,0,0,0.05,17,0)" xlink:href="#B"/><use transform="matrix(0.05,0,0,0.05,29,0)" xlink:href="#G"/><use transform="matrix(0.05,0,0,0.05,41.95,0)" xlink:href="#D"/><use transform="matrix(0.05,0,0,0.05,53.95,0)" xlink:href="#H"/><use transform="matrix(0.05,0,0,0.05,59.900000000000006,0)" xlink:href="#p"/><use transform="matrix(0.05,0,0,0.05,69.9,0)" xlink:href="#x"/></g><path d="M197 0v-115H63V0H30v-248h33v105h134v-105h34V0h-34" id="I"/><path d="M30-248c118-7 216 8 213 122C240-48 200 0 122 0H30v-248zM63-27c89 8 146-16 146-99s-60-101-146-95v194" id="J"/><g id="l"><use transform="matrix(0.05,0,0,0.05,0,0)" xlink:href="#I"/><use transform="matrix(0.05,0,0,0.05,12.950000000000001,0)" xlink:href="#D"/><use transform="matrix(0.05,0,0,0.05,24.950000000000003,0)" xlink:href="#A"/><use transform="matrix(0.05,0,0,0.05,36.95,0)" xlink:href="#J"/></g></defs></g></svg>