<svg xmlns="http://www.w3.org/2000/svg" xmlns:xlink="http://www.w3.org/1999/xlink" xmlns:lucid="lucid" width="668" height="486.25"><g transform="translate(-12 46.250000000000085)" lucid:page-tab-id="0_0"><path d="M0-1259.2h1870.4v2582.4H0z" fill="#fff"/><path d="M32-26.25h628V420H32z" stroke="#000" stroke-width="2" fill="#e5e5e5"/><use xlink:href="#a" transform="matrix(1,0,0,1,37,-21.250000000000085) translate(0 26.383680555555557)"/><use xlink:href="#b" transform="matrix(1,0,0,1,37,-21.250000000000085) translate(0 50.828125)"/><use xlink:href="#c" transform="matrix(1,0,0,1,37,-21.250000000000085) translate(16.296296296296298 50.828125)"/><use xlink:href="#d" transform="matrix(1,0,0,1,37,-21.250000000000085) translate(124.73456790123458 50.828125)"/><use xlink:href="#e" transform="matrix(1,0,0,1,37,-21.250000000000085) translate(279.3456790123457 50.828125)"/><use xlink:href="#f" transform="matrix(1,0,0,1,37,-21.250000000000085) translate(332.2407407407408 50.828125)"/><use xlink:href="#g" transform="matrix(1,0,0,1,37,-21.250000000000085) translate(446.246913580247 50.828125)"/><use xlink:href="#h" transform="matrix(1,0,0,1,37,-21.250000000000085) translate(0 75.27256944444446)"/><use xlink:href="#i" transform="matrix(1,0,0,1,37,-21.250000000000085) translate(20.370370370370374 75.27256944444446)"/><use xlink:href="#f" transform="matrix(1,0,0,1,37,-21.250000000000085) translate(36.66666666666667 75.27256944444446)"/><use xlink:href="#e" transform="matrix(1,0,0,1,37,-21.250000000000085) translate(150.67283950617286 75.27256944444446)"/><use xlink:href="#j" transform="matrix(1,0,0,1,37,-21.250000000000085) translate(203.56790123456793 75.27256944444446)"/><use xlink:href="#k" transform="matrix(1,0,0,1,37,-21.250000000000085) translate(223.9382716049383 75.27256944444446)"/><use xlink:href="#h" transform="matrix(1,0,0,1,37,-21.250000000000085) translate(0 99.7170138888889)"/><use xlink:href="#i" transform="matrix(1,0,0,1,37,-21.250000000000085) translate(20.370370370370374 99.7170138888889)"/><use xlink:href="#f" transform="matrix(1,0,0,1,37,-21.250000000000085) translate(36.66666666666667 99.7170138888889)"/><use xlink:href="#e" transform="matrix(1,0,0,1,37,-21.250000000000085) translate(150.67283950617286 99.7170138888889)"/><use xlink:href="#l" transform="matrix(1,0,0,1,37,-21.250000000000085) translate(203.56790123456793 99.7170138888889)"/><use xlink:href="#h" transform="matrix(1,0,0,1,37,-21.250000000000085) translate(0 124.16145833333334)"/><use xlink:href="#i" transform="matrix(1,0,0,1,37,-21.250000000000085) translate(20.370370370370374 124.16145833333334)"/><use xlink:href="#f" transform="matrix(1,0,0,1,37,-21.250000000000085) translate(36.66666666666667 124.16145833333334)"/><use xlink:href="#e" transform="matrix(1,0,0,1,37,-21.250000000000085) translate(150.67283950617286 124.16145833333334)"/><use xlink:href="#m" transform="matrix(1,0,0,1,37,-21.250000000000085) translate(203.56790123456793 124.16145833333334)"/><use xlink:href="#n" transform="matrix(1,0,0,1,37,-21.250000000000085) translate(283.6234567901235 124.16145833333334)"/><use xlink:href="#o" transform="matrix(1,0,0,1,37,-21.250000000000085) translate(390.7716049382717 124.16145833333334)"/><use xlink:href="#p" transform="matrix(1,0,0,1,37,-21.250000000000085) translate(424.72222222222234 124.16145833333334)"/><use xlink:href="#h" transform="matrix(1,0,0,1,37,-21.250000000000085) translate(0 148.60590277777777)"/><use xlink:href="#i" transform="matrix(1,0,0,1,37,-21.250000000000085) translate(20.370370370370374 148.60590277777777)"/><use xlink:href="#f" transform="matrix(1,0,0,1,37,-21.250000000000085) translate(36.66666666666667 148.60590277777777)"/><use xlink:href="#o" transform="matrix(1,0,0,1,37,-21.250000000000085) translate(150.67283950617286 148.60590277777777)"/><use xlink:href="#q" transform="matrix(1,0,0,1,37,-21.250000000000085) translate(184.6234567901235 148.60590277777777)"/><use xlink:href="#a" transform="matrix(1,0,0,1,37,-21.250000000000085) translate(0 173.05034722222223)"/><use xlink:href="#b" transform="matrix(1,0,0,1,37,-21.250000000000085) translate(0 197.49479166666669)"/><use xlink:href="#r" transform="matrix(1,0,0,1,37,-21.250000000000085) translate(16.296296296296298 197.49479166666669)"/><use xlink:href="#s" transform="matrix(1,0,0,1,37,-21.250000000000085) translate(136.9567901234568 197.49479166666669)"/><use xlink:href="#h" transform="matrix(1,0,0,1,37,-21.250000000000085) translate(0 221.93923611111114)"/><use xlink:href="#i" transform="matrix(1,0,0,1,37,-21.250000000000085) translate(20.370370370370374 221.93923611111114)"/><use xlink:href="#c" transform="matrix(1,0,0,1,37,-21.250000000000085) translate(36.66666666666667 221.93923611111114)"/><use xlink:href="#t" transform="matrix(1,0,0,1,37,-21.250000000000085) translate(145.10493827160496 221.93923611111114)"/><use xlink:href="#u" transform="matrix(1,0,0,1,37,-21.250000000000085) translate(257.6172839506173 221.93923611111114)"/><use xlink:href="#h" transform="matrix(1,0,0,1,37,-21.250000000000085) translate(0 246.3836805555556)"/><use xlink:href="#i" transform="matrix(1,0,0,1,37,-21.250000000000085) translate(20.370370370370374 246.3836805555556)"/><use xlink:href="#c" transform="matrix(1,0,0,1,37,-21.250000000000085) translate(36.66666666666667 246.3836805555556)"/><use xlink:href="#t" transform="matrix(1,0,0,1,37,-21.250000000000085) translate(145.10493827160496 246.3836805555556)"/><use xlink:href="#v" transform="matrix(1,0,0,1,37,-21.250000000000085) translate(257.6172839506173 246.3836805555556)"/><use xlink:href="#h" transform="matrix(1,0,0,1,37,-21.250000000000085) translate(0 270.82812500000006)"/><use xlink:href="#i" transform="matrix(1,0,0,1,37,-21.250000000000085) translate(20.370370370370374 270.82812500000006)"/><use xlink:href="#w" transform="matrix(1,0,0,1,37,-21.250000000000085) translate(36.66666666666667 270.82812500000006)"/><use xlink:href="#a" transform="matrix(1,0,0,1,37,-21.250000000000085) translate(0 295.2725694444445)"/><use xlink:href="#b" transform="matrix(1,0,0,1,37,-21.250000000000085) translate(0 319.71701388888897)"/><use xlink:href="#r" transform="matrix(1,0,0,1,37,-21.250000000000085) translate(16.296296296296298 319.71701388888897)"/><use xlink:href="#o" transform="matrix(1,0,0,1,37,-21.250000000000085) translate(136.9567901234568 319.71701388888897)"/><use xlink:href="#x" transform="matrix(1,0,0,1,37,-21.250000000000085) translate(170.90740740740745 319.71701388888897)"/><use xlink:href="#a" transform="matrix(1,0,0,1,37,-21.250000000000085) translate(0 344.1614583333334)"/><use xlink:href="#b" transform="matrix(1,0,0,1,37,-21.250000000000085) translate(0 368.6059027777779)"/><use xlink:href="#r" transform="matrix(1,0,0,1,37,-21.250000000000085) translate(16.296296296296298 368.6059027777779)"/><use xlink:href="#o" transform="matrix(1,0,0,1,37,-21.250000000000085) translate(136.9567901234568 368.6059027777779)"/><use xlink:href="#y" transform="matrix(1,0,0,1,37,-21.250000000000085) translate(170.90740740740745 368.6059027777779)"/><use xlink:href="#a" transform="matrix(1,0,0,1,37,-21.250000000000085) translate(0 393.05034722222234)"/><use xlink:href="#b" transform="matrix(1,0,0,1,37,-21.250000000000085) translate(0 417.4947916666668)"/><use xlink:href="#m" transform="matrix(1,0,0,1,37,-21.250000000000085) translate(16.296296296296298 417.4947916666668)"/><use xlink:href="#z" transform="matrix(1,0,0,1,37,-21.250000000000085) translate(96.35185185185188 417.4947916666668)"/><defs><path d="M80-196l47-18 7 23-49 13 32 44-20 13-27-46-27 45-21-12 33-44-49-13 8-23 47 19-2-53h23" id="A"/><use transform="matrix(0.06790123456790124,0,0,0.06790123456790124,0,0)" xlink:href="#A" id="b"/><path d="M233-177c-1 41-23 64-60 70L243 0h-38l-65-103H63V0H30v-248c88 3 205-21 203 71zM63-129c60-2 137 13 137-47 0-61-80-42-137-45v92" id="B"/><path d="M100-194c63 0 86 42 84 106H49c0 40 14 67 53 68 26 1 43-12 49-29l28 8c-11 28-37 45-77 45C44 4 14-33 15-96c1-61 26-98 85-98zm52 81c6-60-76-77-97-28-3 7-6 17-6 28h103" id="C"/><path d="M145-31C134-9 116 4 85 4 32 4 16-35 15-94c0-59 17-99 70-100 32-1 48 14 60 33 0-11-1-24 2-32h30l-1 268h-32zM93-21c41 0 51-33 51-76s-8-73-50-73c-40 0-46 35-46 75s5 74 45 74" id="D"/><path d="M84 4C-5 8 30-112 23-190h32v120c0 31 7 50 39 49 72-2 45-101 50-169h31l1 190h-30c-1-10 1-25-2-33-11 22-28 36-60 37" id="E"/><path d="M24-231v-30h32v30H24zM24 0v-190h32V0H24" id="F"/><path d="M135-143c-3-34-86-38-87 0 15 53 115 12 119 90S17 21 10-45l28-5c4 36 97 45 98 0-10-56-113-15-118-90-4-57 82-63 122-42 12 7 21 19 24 35" id="G"/><path d="M59-47c-2 24 18 29 38 22v24C64 9 27 4 27-40v-127H5v-23h24l9-43h21v43h35v23H59v120" id="H"/><path d="M100-194c62-1 85 37 85 99 1 63-27 99-86 99S16-35 15-95c0-66 28-99 85-99zM99-20c44 1 53-31 53-75 0-43-8-75-51-75s-53 32-53 75 10 74 51 75" id="I"/><g id="c"><use transform="matrix(0.06790123456790124,0,0,0.06790123456790124,0,0)" xlink:href="#B"/><use transform="matrix(0.06790123456790124,0,0,0.06790123456790124,17.58641975308642,0)" xlink:href="#C"/><use transform="matrix(0.06790123456790124,0,0,0.06790123456790124,31.16666666666667,0)" xlink:href="#D"/><use transform="matrix(0.06790123456790124,0,0,0.06790123456790124,44.74691358024692,0)" xlink:href="#E"/><use transform="matrix(0.06790123456790124,0,0,0.06790123456790124,58.32716049382716,0)" xlink:href="#F"/><use transform="matrix(0.06790123456790124,0,0,0.06790123456790124,63.69135802469136,0)" xlink:href="#G"/><use transform="matrix(0.06790123456790124,0,0,0.06790123456790124,75.91358024691358,0)" xlink:href="#F"/><use transform="matrix(0.06790123456790124,0,0,0.06790123456790124,81.27777777777779,0)" xlink:href="#H"/><use transform="matrix(0.06790123456790124,0,0,0.06790123456790124,88.06790123456791,0)" xlink:href="#I"/></g><path d="M24 0v-261h32V0H24" id="J"/><path d="M141-36C126-15 110 5 73 4 37 3 15-17 15-53c-1-64 63-63 125-63 3-35-9-54-41-54-24 1-41 7-42 31l-33-3c5-37 33-52 76-52 45 0 72 20 72 64v82c-1 20 7 32 28 27v20c-31 9-61-2-59-35zM48-53c0 20 12 33 32 33 41-3 63-29 60-74-43 2-92-5-92 41" id="K"/><path d="M96-169c-40 0-48 33-48 73s9 75 48 75c24 0 41-14 43-38l32 2c-6 37-31 61-74 61-59 0-76-41-82-99-10-93 101-131 147-64 4 7 5 14 7 22l-32 3c-4-21-16-35-41-35" id="L"/><path d="M117-194c89-4 53 116 60 194h-32v-121c0-31-8-49-39-48C34-167 62-67 57 0H25l-1-190h30c1 10-1 24 2 32 11-22 29-35 61-36" id="M"/><path d="M85-194c31 0 48 13 60 33l-1-100h32l1 261h-30c-2-10 0-23-3-31C134-8 116 4 85 4 32 4 16-35 15-94c0-66 23-100 70-100zm9 24c-40 0-46 34-46 75 0 40 6 74 45 74 42 0 51-32 51-76 0-42-9-74-50-73" id="N"/><g id="d"><use transform="matrix(0.06790123456790124,0,0,0.06790123456790124,0,0)" xlink:href="#B"/><use transform="matrix(0.06790123456790124,0,0,0.06790123456790124,17.58641975308642,0)" xlink:href="#C"/><use transform="matrix(0.06790123456790124,0,0,0.06790123456790124,31.16666666666667,0)" xlink:href="#J"/><use transform="matrix(0.06790123456790124,0,0,0.06790123456790124,36.53086419753087,0)" xlink:href="#K"/><use transform="matrix(0.06790123456790124,0,0,0.06790123456790124,50.111111111111114,0)" xlink:href="#L"/><use transform="matrix(0.06790123456790124,0,0,0.06790123456790124,62.333333333333336,0)" xlink:href="#F"/><use transform="matrix(0.06790123456790124,0,0,0.06790123456790124,67.69753086419753,0)" xlink:href="#I"/><use transform="matrix(0.06790123456790124,0,0,0.06790123456790124,81.27777777777779,0)" xlink:href="#M"/><use transform="matrix(0.06790123456790124,0,0,0.06790123456790124,94.85802469135804,0)" xlink:href="#K"/><use transform="matrix(0.06790123456790124,0,0,0.06790123456790124,108.4382716049383,0)" xlink:href="#N"/><use transform="matrix(0.06790123456790124,0,0,0.06790123456790124,122.01851851851855,0)" xlink:href="#I"/><use transform="matrix(0.06790123456790124,0,0,0.06790123456790124,135.5987654320988,0)" xlink:href="#G"/></g><path d="M210-169c-67 3-38 105-44 169h-31v-121c0-29-5-50-35-48C34-165 62-65 56 0H25l-1-190h30c1 10-1 24 2 32 10-44 99-50 107 0 11-21 27-35 58-36 85-2 47 119 55 194h-31v-121c0-29-5-49-35-48" id="O"/><g id="e"><use transform="matrix(0.06790123456790124,0,0,0.06790123456790124,0,0)" xlink:href="#L"/><use transform="matrix(0.06790123456790124,0,0,0.06790123456790124,12.222222222222223,0)" xlink:href="#I"/><use transform="matrix(0.06790123456790124,0,0,0.06790123456790124,25.802469135802472,0)" xlink:href="#O"/></g><path d="M33 0v-248h34V0H33" id="P"/><path d="M114-163C36-179 61-72 57 0H25l-1-190h30c1 12-1 29 2 39 6-27 23-49 58-41v29" id="Q"/><path d="M101-234c-31-9-42 10-38 44h38v23H63V0H32v-167H5v-23h27c-7-52 17-82 69-68v24" id="R"/><g id="f"><use transform="matrix(0.06790123456790124,0,0,0.06790123456790124,0,0)" xlink:href="#P"/><use transform="matrix(0.06790123456790124,0,0,0.06790123456790124,6.790123456790124,0)" xlink:href="#M"/><use transform="matrix(0.06790123456790124,0,0,0.06790123456790124,20.370370370370374,0)" xlink:href="#H"/><use transform="matrix(0.06790123456790124,0,0,0.06790123456790124,27.160493827160497,0)" xlink:href="#C"/><use transform="matrix(0.06790123456790124,0,0,0.06790123456790124,40.74074074074075,0)" xlink:href="#Q"/><use transform="matrix(0.06790123456790124,0,0,0.06790123456790124,48.820987654320994,0)" xlink:href="#R"/><use transform="matrix(0.06790123456790124,0,0,0.06790123456790124,55.61111111111112,0)" xlink:href="#K"/><use transform="matrix(0.06790123456790124,0,0,0.06790123456790124,69.19135802469137,0)" xlink:href="#L"/><use transform="matrix(0.06790123456790124,0,0,0.06790123456790124,81.4135802469136,0)" xlink:href="#C"/><use transform="matrix(0.06790123456790124,0,0,0.06790123456790124,94.99382716049385,0)" xlink:href="#G"/></g><path d="M30 0v-248h187v28H63v79h144v27H63v87h162V0H30" id="S"/><path d="M141 0L90-78 38 0H4l68-98-65-92h35l48 74 47-74h35l-64 92 68 98h-35" id="T"/><g id="g"><use transform="matrix(0.06790123456790124,0,0,0.06790123456790124,0,0)" xlink:href="#S"/><use transform="matrix(0.06790123456790124,0,0,0.06790123456790124,16.296296296296298,0)" xlink:href="#T"/><use transform="matrix(0.06790123456790124,0,0,0.06790123456790124,28.51851851851852,0)" xlink:href="#H"/><use transform="matrix(0.06790123456790124,0,0,0.06790123456790124,35.308641975308646,0)" xlink:href="#C"/><use transform="matrix(0.06790123456790124,0,0,0.06790123456790124,48.88888888888889,0)" xlink:href="#Q"/><use transform="matrix(0.06790123456790124,0,0,0.06790123456790124,56.96913580246914,0)" xlink:href="#M"/><use transform="matrix(0.06790123456790124,0,0,0.06790123456790124,70.5493827160494,0)" xlink:href="#K"/><use transform="matrix(0.06790123456790124,0,0,0.06790123456790124,84.12962962962965,0)" xlink:href="#G"/></g><use transform="matrix(0.06790123456790124,0,0,0.06790123456790124,0,0)" xlink:href="#A" id="i"/><use transform="matrix(0.06790123456790124,0,0,0.06790123456790124,0,0)" xlink:href="#I" id="j"/><path d="M232-93c-1 65-40 97-104 97C67 4 28-28 28-90v-158h33c8 89-33 224 67 224 102 0 64-133 71-224h33v155" id="U"/><path d="M141-36C126-15 110 5 73 4 37 3 15-17 15-53c-1-64 63-63 125-63 3-35-9-54-41-54-24 1-41 7-42 31l-33-3c5-37 33-52 76-52 45 0 72 20 72 64v82c-1 20 7 32 28 27v20c-31 9-61-2-59-35zM48-53c0 20 12 33 32 33 41-3 63-29 60-74-43 2-92-5-92 41zm25-158c8-23 27-35 38-54h36v5l-58 49H73" id="V"/><g id="k"><use transform="matrix(0.06790123456790124,0,0,0.06790123456790124,0,0)" xlink:href="#U"/><use transform="matrix(0.06790123456790124,0,0,0.06790123456790124,17.58641975308642,0)" xlink:href="#G"/><use transform="matrix(0.06790123456790124,0,0,0.06790123456790124,29.808641975308646,0)" xlink:href="#E"/><use transform="matrix(0.06790123456790124,0,0,0.06790123456790124,43.38888888888889,0)" xlink:href="#V"/><use transform="matrix(0.06790123456790124,0,0,0.06790123456790124,56.96913580246914,0)" xlink:href="#Q"/><use transform="matrix(0.06790123456790124,0,0,0.06790123456790124,65.0493827160494,0)" xlink:href="#F"/><use transform="matrix(0.06790123456790124,0,0,0.06790123456790124,70.4135802469136,0)" xlink:href="#I"/></g><path d="M197 0v-115H63V0H30v-248h33v105h134v-105h34V0h-34" id="W"/><path d="M206 0h-36l-40-164L89 0H53L-1-190h32L70-26l43-164h34l41 164 42-164h31" id="X"/><g id="l"><use transform="matrix(0.06790123456790124,0,0,0.06790123456790124,0,0)" xlink:href="#W"/><use transform="matrix(0.06790123456790124,0,0,0.06790123456790124,17.58641975308642,0)" xlink:href="#K"/><use transform="matrix(0.06790123456790124,0,0,0.06790123456790124,31.16666666666667,0)" xlink:href="#Q"/><use transform="matrix(0.06790123456790124,0,0,0.06790123456790124,39.24691358024692,0)" xlink:href="#N"/><use transform="matrix(0.06790123456790124,0,0,0.06790123456790124,52.827160493827165,0)" xlink:href="#X"/><use transform="matrix(0.06790123456790124,0,0,0.06790123456790124,70.41358024691357,0)" xlink:href="#K"/><use transform="matrix(0.06790123456790124,0,0,0.06790123456790124,83.99382716049384,0)" xlink:href="#Q"/><use transform="matrix(0.06790123456790124,0,0,0.06790123456790124,92.07407407407409,0)" xlink:href="#C"/></g><path d="M140-251c81 0 123 46 123 126C263-46 219 4 140 4 59 4 17-45 17-125s42-126 123-126zm0 227c63 0 89-41 89-101s-29-99-89-99c-61 0-89 39-89 99S79-25 140-24" id="Y"/><g id="m"><use transform="matrix(0.06790123456790124,0,0,0.06790123456790124,0,0)" xlink:href="#Y"/><use transform="matrix(0.06790123456790124,0,0,0.06790123456790124,19.01234567901235,0)" xlink:href="#E"/><use transform="matrix(0.06790123456790124,0,0,0.06790123456790124,32.592592592592595,0)" xlink:href="#H"/><use transform="matrix(0.06790123456790124,0,0,0.06790123456790124,39.38271604938272,0)" xlink:href="#Q"/><use transform="matrix(0.06790123456790124,0,0,0.06790123456790124,47.46296296296297,0)" xlink:href="#I"/><use transform="matrix(0.06790123456790124,0,0,0.06790123456790124,61.043209876543216,0)" xlink:href="#G"/></g><path d="M185-189c-5-48-123-54-124 2 14 75 158 14 163 119 3 78-121 87-175 55-17-10-28-26-33-46l33-7c5 56 141 63 141-1 0-78-155-14-162-118-5-82 145-84 179-34 5 7 8 16 11 25" id="Z"/><g id="n"><use transform="matrix(0.06790123456790124,0,0,0.06790123456790124,0,0)" xlink:href="#Z"/><use transform="matrix(0.06790123456790124,0,0,0.06790123456790124,16.296296296296298,0)" xlink:href="#F"/><use transform="matrix(0.06790123456790124,0,0,0.06790123456790124,21.660493827160497,0)" xlink:href="#G"/><use transform="matrix(0.06790123456790124,0,0,0.06790123456790124,33.88271604938272,0)" xlink:href="#H"/><use transform="matrix(0.06790123456790124,0,0,0.06790123456790124,40.67283950617284,0)" xlink:href="#C"/><use transform="matrix(0.06790123456790124,0,0,0.06790123456790124,54.253086419753096,0)" xlink:href="#O"/><use transform="matrix(0.06790123456790124,0,0,0.06790123456790124,74.55555555555557,0)" xlink:href="#K"/><use transform="matrix(0.06790123456790124,0,0,0.06790123456790124,88.13580246913583,0)" xlink:href="#G"/></g><g id="o"><use transform="matrix(0.06790123456790124,0,0,0.06790123456790124,0,0)" xlink:href="#N"/><use transform="matrix(0.06790123456790124,0,0,0.06790123456790124,13.580246913580249,0)" xlink:href="#C"/></g><g id="p"><use transform="matrix(0.06790123456790124,0,0,0.06790123456790124,0,0)" xlink:href="#Z"/><use transform="matrix(0.06790123456790124,0,0,0.06790123456790124,16.296296296296298,0)" xlink:href="#I"/><use transform="matrix(0.06790123456790124,0,0,0.06790123456790124,29.876543209876544,0)" xlink:href="#R"/><use transform="matrix(0.06790123456790124,0,0,0.06790123456790124,36.66666666666667,0)" xlink:href="#H"/><use transform="matrix(0.06790123456790124,0,0,0.06790123456790124,43.4567901234568,0)" xlink:href="#X"/><use transform="matrix(0.06790123456790124,0,0,0.06790123456790124,61.043209876543216,0)" xlink:href="#K"/><use transform="matrix(0.06790123456790124,0,0,0.06790123456790124,74.62345679012347,0)" xlink:href="#Q"/><use transform="matrix(0.06790123456790124,0,0,0.06790123456790124,82.70370370370371,0)" xlink:href="#C"/></g><path d="M212-179c-10-28-35-45-73-45-59 0-87 40-87 99 0 60 29 101 89 101 43 0 62-24 78-52l27 14C228-24 195 4 139 4 59 4 22-46 18-125c-6-104 99-153 187-111 19 9 31 26 39 46" id="aa"/><path d="M96-169c-40 0-48 33-48 73s9 75 48 75c24 0 41-14 43-38l32 2c-6 37-31 61-74 61-59 0-76-41-82-99-10-93 101-131 147-64 4 7 5 14 7 22l-32 3c-4-21-16-35-41-35zm3 187c19-1 33 8 33 26 0 31-30 33-64 32V58c18 2 39 4 41-13 1-15-18-13-34-13L87 0h19" id="ab"/><path d="M141-36C126-15 110 5 73 4 37 3 15-17 15-53c-1-64 63-63 125-63 3-35-9-54-41-54-24 1-41 7-42 31l-33-3c5-37 33-52 76-52 45 0 72 20 72 64v82c-1 20 7 32 28 27v20c-31 9-61-2-59-35zM48-53c0 20 12 33 32 33 41-3 63-29 60-74-43 2-92-5-92 41zm117-205c-3 23-9 48-36 47-26-1-65-44-74 0H39c4-23 8-48 36-47s64 44 74 0h16" id="ac"/><g id="q"><use transform="matrix(0.06790123456790124,0,0,0.06790123456790124,0,0)" xlink:href="#aa"/><use transform="matrix(0.06790123456790124,0,0,0.06790123456790124,17.58641975308642,0)" xlink:href="#I"/><use transform="matrix(0.06790123456790124,0,0,0.06790123456790124,31.16666666666667,0)" xlink:href="#O"/><use transform="matrix(0.06790123456790124,0,0,0.06790123456790124,51.46913580246915,0)" xlink:href="#E"/><use transform="matrix(0.06790123456790124,0,0,0.06790123456790124,65.0493827160494,0)" xlink:href="#M"/><use transform="matrix(0.06790123456790124,0,0,0.06790123456790124,78.62962962962965,0)" xlink:href="#F"/><use transform="matrix(0.06790123456790124,0,0,0.06790123456790124,83.99382716049385,0)" xlink:href="#L"/><use transform="matrix(0.06790123456790124,0,0,0.06790123456790124,96.21604938271608,0)" xlink:href="#K"/><use transform="matrix(0.06790123456790124,0,0,0.06790123456790124,109.79629629629633,0)" xlink:href="#ab"/><use transform="matrix(0.06790123456790124,0,0,0.06790123456790124,122.01851851851856,0)" xlink:href="#ac"/><use transform="matrix(0.06790123456790124,0,0,0.06790123456790124,135.59876543209882,0)" xlink:href="#I"/></g><g id="r"><use transform="matrix(0.06790123456790124,0,0,0.06790123456790124,0,0)" xlink:href="#B"/><use transform="matrix(0.06790123456790124,0,0,0.06790123456790124,17.58641975308642,0)" xlink:href="#C"/><use transform="matrix(0.06790123456790124,0,0,0.06790123456790124,31.16666666666667,0)" xlink:href="#D"/><use transform="matrix(0.06790123456790124,0,0,0.06790123456790124,44.74691358024692,0)" xlink:href="#E"/><use transform="matrix(0.06790123456790124,0,0,0.06790123456790124,58.32716049382716,0)" xlink:href="#F"/><use transform="matrix(0.06790123456790124,0,0,0.06790123456790124,63.69135802469136,0)" xlink:href="#G"/><use transform="matrix(0.06790123456790124,0,0,0.06790123456790124,75.91358024691358,0)" xlink:href="#F"/><use transform="matrix(0.06790123456790124,0,0,0.06790123456790124,81.27777777777779,0)" xlink:href="#H"/><use transform="matrix(0.06790123456790124,0,0,0.06790123456790124,88.06790123456791,0)" xlink:href="#I"/><use transform="matrix(0.06790123456790124,0,0,0.06790123456790124,101.64814814814817,0)" xlink:href="#G"/></g><path d="M63-220v92h138v28H63V0H30v-248h175v28H63" id="ad"/><g id="s"><use transform="matrix(0.06790123456790124,0,0,0.06790123456790124,0,0)" xlink:href="#ad"/><use transform="matrix(0.06790123456790124,0,0,0.06790123456790124,14.870370370370372,0)" xlink:href="#E"/><use transform="matrix(0.06790123456790124,0,0,0.06790123456790124,28.45061728395062,0)" xlink:href="#M"/><use transform="matrix(0.06790123456790124,0,0,0.06790123456790124,42.03086419753087,0)" xlink:href="#L"/><use transform="matrix(0.06790123456790124,0,0,0.06790123456790124,54.25308641975309,0)" xlink:href="#F"/><use transform="matrix(0.06790123456790124,0,0,0.06790123456790124,59.617283950617285,0)" xlink:href="#I"/><use transform="matrix(0.06790123456790124,0,0,0.06790123456790124,73.19753086419753,0)" xlink:href="#M"/><use transform="matrix(0.06790123456790124,0,0,0.06790123456790124,86.77777777777779,0)" xlink:href="#K"/><use transform="matrix(0.06790123456790124,0,0,0.06790123456790124,100.35802469135804,0)" xlink:href="#F"/><use transform="matrix(0.06790123456790124,0,0,0.06790123456790124,105.72222222222224,0)" xlink:href="#G"/></g><g id="t"><use transform="matrix(0.06790123456790124,0,0,0.06790123456790124,0,0)" xlink:href="#ad"/><use transform="matrix(0.06790123456790124,0,0,0.06790123456790124,14.870370370370372,0)" xlink:href="#E"/><use transform="matrix(0.06790123456790124,0,0,0.06790123456790124,28.45061728395062,0)" xlink:href="#M"/><use transform="matrix(0.06790123456790124,0,0,0.06790123456790124,42.03086419753087,0)" xlink:href="#L"/><use transform="matrix(0.06790123456790124,0,0,0.06790123456790124,54.25308641975309,0)" xlink:href="#F"/><use transform="matrix(0.06790123456790124,0,0,0.06790123456790124,59.617283950617285,0)" xlink:href="#I"/><use transform="matrix(0.06790123456790124,0,0,0.06790123456790124,73.19753086419753,0)" xlink:href="#M"/><use transform="matrix(0.06790123456790124,0,0,0.06790123456790124,86.77777777777779,0)" xlink:href="#K"/><use transform="matrix(0.06790123456790124,0,0,0.06790123456790124,100.35802469135804,0)" xlink:href="#J"/></g><path d="M158-156l-14 65h45v19h-49L124 0h-19l15-72H56L41 0H22l15-72H2v-19h39l14-65H11v-19h48l15-71h20l-16 71h64l16-71h19l-16 71h37v19h-40zm-83 0L61-91h63l14-65H75" id="ae"/><path d="M27 0v-27h64v-190l-56 39v-29l58-41h29v221h61V0H27" id="af"/><g id="u"><use transform="matrix(0.06790123456790124,0,0,0.06790123456790124,0,0)" xlink:href="#ae"/><use transform="matrix(0.06790123456790124,0,0,0.06790123456790124,13.580246913580249,0)" xlink:href="#af"/></g><path d="M101-251c82-7 93 87 43 132L82-64C71-53 59-42 53-27h129V0H18c2-99 128-94 128-182 0-28-16-43-45-43s-46 15-49 41l-32-3c6-41 34-60 81-64" id="ag"/><g id="v"><use transform="matrix(0.06790123456790124,0,0,0.06790123456790124,0,0)" xlink:href="#ae"/><use transform="matrix(0.06790123456790124,0,0,0.06790123456790124,13.580246913580249,0)" xlink:href="#ag"/></g><path d="M277 0v-38h34V0h-34zM163 0v-38h34V0h-34zM49 0v-38h34V0H49" id="ah"/><path d="M33 0v-38h34V0H33" id="ai"/><g id="w"><use transform="matrix(0.06790123456790124,0,0,0.06790123456790124,0,0)" xlink:href="#ah"/><use transform="matrix(0.06790123456790124,0,0,0.06790123456790124,24.444444444444446,0)" xlink:href="#ai"/></g><path d="M30-248c118-7 216 8 213 122C240-48 200 0 122 0H30v-248zM63-27c89 8 146-16 146-99s-60-101-146-95v194" id="aj"/><path d="M115-194c55 1 70 41 70 98S169 2 115 4C84 4 66-9 55-30l1 105H24l-1-265h31l2 30c10-21 28-34 59-34zm-8 174c40 0 45-34 45-75s-6-73-45-74c-42 0-51 32-51 76 0 43 10 73 51 73" id="ak"/><path d="M106-169C34-169 62-67 57 0H25v-261h32l-1 103c12-21 28-36 61-36 89 0 53 116 60 194h-32v-121c2-32-8-49-39-48" id="al"/><g id="x"><use transform="matrix(0.06790123456790124,0,0,0.06790123456790124,0,0)" xlink:href="#aj"/><use transform="matrix(0.06790123456790124,0,0,0.06790123456790124,17.58641975308642,0)" xlink:href="#C"/><use transform="matrix(0.06790123456790124,0,0,0.06790123456790124,31.16666666666667,0)" xlink:href="#G"/><use transform="matrix(0.06790123456790124,0,0,0.06790123456790124,43.38888888888889,0)" xlink:href="#C"/><use transform="matrix(0.06790123456790124,0,0,0.06790123456790124,56.96913580246914,0)" xlink:href="#O"/><use transform="matrix(0.06790123456790124,0,0,0.06790123456790124,77.27160493827161,0)" xlink:href="#ak"/><use transform="matrix(0.06790123456790124,0,0,0.06790123456790124,90.85185185185186,0)" xlink:href="#C"/><use transform="matrix(0.06790123456790124,0,0,0.06790123456790124,104.43209876543212,0)" xlink:href="#M"/><use transform="matrix(0.06790123456790124,0,0,0.06790123456790124,118.01234567901237,0)" xlink:href="#al"/><use transform="matrix(0.06790123456790124,0,0,0.06790123456790124,131.5925925925926,0)" xlink:href="#I"/></g><path d="M30-248c87 1 191-15 191 75 0 78-77 80-158 76V0H30v-248zm33 125c57 0 124 11 124-50 0-59-68-47-124-48v98" id="am"/><path d="M24-231v-30h32v30H24zM-9 49c24 4 33-6 33-30v-209h32V24c2 40-23 58-65 49V49" id="an"/><g id="y"><use transform="matrix(0.06790123456790124,0,0,0.06790123456790124,0,0)" xlink:href="#am"/><use transform="matrix(0.06790123456790124,0,0,0.06790123456790124,16.296296296296298,0)" xlink:href="#Q"/><use transform="matrix(0.06790123456790124,0,0,0.06790123456790124,24.376543209876544,0)" xlink:href="#I"/><use transform="matrix(0.06790123456790124,0,0,0.06790123456790124,37.95679012345679,0)" xlink:href="#an"/><use transform="matrix(0.06790123456790124,0,0,0.06790123456790124,43.32098765432099,0)" xlink:href="#C"/><use transform="matrix(0.06790123456790124,0,0,0.06790123456790124,56.901234567901234,0)" xlink:href="#H"/><use transform="matrix(0.06790123456790124,0,0,0.06790123456790124,63.69135802469136,0)" xlink:href="#I"/></g><g id="z"><use transform="matrix(0.06790123456790124,0,0,0.06790123456790124,0,0)" xlink:href="#B"/><use transform="matrix(0.06790123456790124,0,0,0.06790123456790124,17.58641975308642,0)" xlink:href="#C"/><use transform="matrix(0.06790123456790124,0,0,0.06790123456790124,31.16666666666667,0)" xlink:href="#D"/><use transform="matrix(0.06790123456790124,0,0,0.06790123456790124,44.74691358024692,0)" xlink:href="#E"/><use transform="matrix(0.06790123456790124,0,0,0.06790123456790124,58.32716049382716,0)" xlink:href="#F"/><use transform="matrix(0.06790123456790124,0,0,0.06790123456790124,63.69135802469136,0)" xlink:href="#G"/><use transform="matrix(0.06790123456790124,0,0,0.06790123456790124,75.91358024691358,0)" xlink:href="#F"/><use transform="matrix(0.06790123456790124,0,0,0.06790123456790124,81.27777777777779,0)" xlink:href="#H"/><use transform="matrix(0.06790123456790124,0,0,0.06790123456790124,88.06790123456791,0)" xlink:href="#I"/><use transform="matrix(0.06790123456790124,0,0,0.06790123456790124,101.64814814814817,0)" xlink:href="#G"/></g></defs></g></svg>