<svg version="1.1" viewBox="0.0 0.0 600.0 371.0" fill="none" stroke="none" stroke-linecap="square" stroke-miterlimit="10" width="600" height="371" xmlns:xlink="http://www.w3.org/1999/xlink" xmlns="http://www.w3.org/2000/svg"><path fill="#ffffff" d="M0 0L600.0 0L600.0 371.0L0 371.0L0 0Z" fill-rule="nonzero"/><path stroke="#cccccc" stroke-width="1.0" stroke-linecap="butt" d="M135.5 62.5L135.5 288.5" fill-rule="nonzero"/><path stroke="#cccccc" stroke-width="1.0" stroke-linecap="butt" d="M201.5 62.5L201.5 288.5" fill-rule="nonzero"/><path stroke="#cccccc" stroke-width="1.0" stroke-linecap="butt" d="M268.5 62.5L268.5 288.5" fill-rule="nonzero"/><path stroke="#cccccc" stroke-width="1.0" stroke-linecap="butt" d="M335.5 62.5L335.5 288.5" fill-rule="nonzero"/><path stroke="#cccccc" stroke-width="1.0" stroke-linecap="butt" d="M401.5 62.5L401.5 288.5" fill-rule="nonzero"/><path stroke="#cccccc" stroke-width="1.0" stroke-linecap="butt" d="M468.5 62.5L468.5 288.5" fill-rule="nonzero"/><path stroke="#cccccc" stroke-width="1.0" stroke-linecap="butt" d="M534.5 62.5L534.5 288.5" fill-rule="nonzero"/><path stroke="#333333" stroke-width="1.0" stroke-linecap="butt" d="M88.5 288.5L581.5 288.5" fill-rule="nonzero"/><path stroke="#cccccc" stroke-width="1.0" stroke-linecap="butt" d="M88.5 231.5L581.5 231.5" fill-rule="nonzero"/><path stroke="#cccccc" stroke-width="1.0" stroke-linecap="butt" d="M88.5 175.5L581.5 175.5" fill-rule="nonzero"/><path stroke="#cccccc" stroke-width="1.0" stroke-linecap="butt" d="M88.5 118.5L581.5 118.5" fill-rule="nonzero"/><path stroke="#cccccc" stroke-width="1.0" stroke-linecap="butt" d="M88.5 62.5L581.5 62.5" fill-rule="nonzero"/><path stroke="#eeeeee" stroke-width="1.0" stroke-linecap="butt" d="M235.05605 102.925L235.05605 118.925" fill-rule="nonzero"/><path stroke="#eeeeee" stroke-width="1.0" stroke-linecap="butt" d="M268.3707 114.22667L268.3707 130.22667" fill-rule="nonzero"/><path stroke="#eeeeee" stroke-width="1.0" stroke-linecap="butt" d="M301.68536 114.22667L301.68536 130.22667" fill-rule="nonzero"/><path stroke="#eeeeee" stroke-width="1.0" stroke-linecap="butt" d="M335.0 125.528336L335.0 141.52834" fill-rule="nonzero"/><path stroke="#eeeeee" stroke-width="1.0" stroke-linecap="butt" d="M368.31464 159.43333L368.31464 175.43333" fill-rule="nonzero"/><path stroke="#eeeeee" stroke-width="1.0" stroke-linecap="butt" d="M401.6293 176.38583L401.6293 192.38583" fill-rule="nonzero"/><path stroke="#eeeeee" stroke-width="1.0" stroke-linecap="butt" d="M434.94394 193.33833L434.94394 209.33833" fill-rule="nonzero"/><path stroke="#eeeeee" stroke-width="1.0" stroke-linecap="butt" d="M468.2586 204.64L468.2586 220.64" fill-rule="nonzero"/><path stroke="#eeeeee" stroke-width="1.0" stroke-linecap="butt" d="M501.57324 232.89417L501.57324 248.89417" fill-rule="nonzero"/><path stroke="#eeeeee" stroke-width="1.0" stroke-linecap="butt" d="M534.8879 252.67209L534.8879 268.6721" fill-rule="nonzero"/><path stroke="#eeeeee" stroke-width="1.0" stroke-linecap="butt" d="M568.2025 272.45L568.2025 288.45" fill-rule="nonzero"/><clipPath id="id_0"><path d="M88.55 62.416668L581.45 62.416668L581.45 288.45L88.55 288.45L88.55 62.416668Z" clip-rule="nonzero"/></clipPath><path stroke="#4285f4" stroke-width="4.0" stroke-linecap="butt" clip-path="url(#id_0)" d="M101.797455 62.416668L135.1121 68.0675L168.42676 85.02L201.74141 85.02L235.05605 118.925L268.3707 130.22667L301.68536 130.22667L335.0 141.52834L368.31464 175.43333L401.6293 192.38583L434.94394 209.33833L468.2586 220.64L501.57324 248.89417L534.8879 268.6721L568.2025 288.45" fill-rule="nonzero"/><path fill="#4285f4" clip-path="url(#id_0)" d="M101.797455 54.416668L109.797455 62.416668L101.797455 70.416664L93.797455 62.416668Z" fill-rule="nonzero"/><path fill="#4285f4" clip-path="url(#id_0)" d="M135.1121 60.0675L143.1121 68.0675L135.1121 76.0675L127.11211 68.0675Z" fill-rule="nonzero"/><path fill="#4285f4" clip-path="url(#id_0)" d="M168.42676 77.02L176.42676 85.02L168.42676 93.02L160.42676 85.02Z" fill-rule="nonzero"/><path fill="#4285f4" clip-path="url(#id_0)" d="M201.74141 77.02L209.74141 85.02L201.74141 93.02L193.74141 85.02Z" fill-rule="nonzero"/><path fill="#4285f4" clip-path="url(#id_0)" d="M235.05605 110.925L243.05605 118.925L235.05605 126.925L227.05605 118.925Z" fill-rule="nonzero"/><path fill="#4285f4" clip-path="url(#id_0)" d="M268.3707 122.22667L276.3707 130.22667L268.3707 138.22667L260.3707 130.22667Z" fill-rule="nonzero"/><path fill="#4285f4" clip-path="url(#id_0)" d="M301.68536 122.22667L309.68536 130.22667L301.68536 138.22667L293.68536 130.22667Z" fill-rule="nonzero"/><path fill="#4285f4" clip-path="url(#id_0)" d="M335.0 133.52834L343.0 141.52834L335.0 149.52834L327.0 141.52834Z" fill-rule="nonzero"/><path fill="#4285f4" clip-path="url(#id_0)" d="M368.31464 167.43333L376.31464 175.43333L368.31464 183.43333L360.31464 175.43333Z" fill-rule="nonzero"/><path fill="#4285f4" clip-path="url(#id_0)" d="M401.6293 184.38583L409.6293 192.38583L401.6293 200.38583L393.6293 192.38583Z" fill-rule="nonzero"/><path fill="#4285f4" clip-path="url(#id_0)" d="M434.94394 201.33833L442.94394 209.33833L434.94394 217.33833L426.94394 209.33833Z" fill-rule="nonzero"/><path fill="#4285f4" clip-path="url(#id_0)" d="M468.2586 212.64L476.2586 220.64L468.2586 228.64L460.2586 220.64Z" fill-rule="nonzero"/><path fill="#4285f4" clip-path="url(#id_0)" d="M501.57324 240.89417L509.57324 248.89417L501.57324 256.89417L493.57324 248.89417Z" fill-rule="nonzero"/><path fill="#4285f4" clip-path="url(#id_0)" d="M534.8879 260.6721L542.8879 268.6721L534.8879 276.6721L526.8879 268.6721Z" fill-rule="nonzero"/><path fill="#4285f4" clip-path="url(#id_0)" d="M568.2025 280.45L576.2025 288.45L568.2025 296.45L560.2025 288.45Z" fill-rule="nonzero"/><path stroke="#ffffff" stroke-width="3.0" stroke-linejoin="round" stroke-linecap="round" d="M226.8373 96.12813L227.6498 96.12813Q228.43105 96.1125 228.86855 95.72188Q229.30605 95.33125 229.30605 94.65938Q229.30605 93.15938 227.80605 93.15938Q227.10292 93.15938 226.68105 93.56563Q226.2748 93.97188 226.2748 94.62813L225.18105 94.62813Q225.18105 93.6125 225.91542 92.94063Q226.66542 92.26875 227.80605 92.26875Q229.00917 92.26875 229.69667 92.90938Q230.38417 93.55 230.38417 94.69063Q230.38417 95.25313 230.0248 95.76875Q229.66542 96.28438 229.04042 96.55Q229.74355 96.76875 230.11855 97.28438Q230.50917 97.8 230.50917 98.55Q230.50917 99.69063 229.75917 100.37813Q229.00917 101.05 227.80605 101.05Q226.61855 101.05 225.85292 100.39375Q225.10292 99.7375 225.10292 98.675L226.19667 98.675Q226.19667 99.34688 226.63417 99.75313Q227.07167 100.15938 227.82167 100.15938Q228.60292 100.15938 229.00917 99.75313Q229.43105 99.33125 229.43105 98.56563Q229.43105 97.83125 228.97792 97.44063Q228.5248 97.03438 227.6498 97.01875L226.8373 97.01875L226.8373 96.12813ZM237.61855 97.28438Q237.61855 99.19063 236.9623 100.12813Q236.32167 101.05 234.93105 101.05Q233.57167 101.05 232.91542 100.14375Q232.25917 99.2375 232.22792 97.425L232.22792 95.9875Q232.22792 94.09688 232.86855 93.19063Q233.5248 92.26875 234.91542 92.26875Q236.29042 92.26875 236.94667 93.15938Q237.60292 94.03438 237.61855 95.87813L237.61855 97.28438ZM236.5248 95.8Q236.5248 94.425 236.13417 93.8Q235.75917 93.15938 234.91542 93.15938Q234.0873 93.15938 233.69667 93.8Q233.32167 94.425 233.32167 95.72188L233.32167 97.45625Q233.32167 98.83125 233.7123 99.50313Q234.11855 100.15938 234.93105 100.15938Q235.72792 100.15938 236.11855 99.53438Q236.50917 98.90938 236.5248 97.58125L236.5248 95.8ZM244.61855 97.28438Q244.61855 99.19063 243.9623 100.12813Q243.32167 101.05 241.93105 101.05Q240.57167 101.05 239.91542 100.14375Q239.25917 99.2375 239.22792 97.425L239.22792 95.9875Q239.22792 94.09688 239.86855 93.19063Q240.5248 92.26875 241.91542 92.26875Q243.29042 92.26875 243.94667 93.15938Q244.60292 94.03438 244.61855 95.87813L244.61855 97.28438ZM243.5248 95.8Q243.5248 94.425 243.13417 93.8Q242.75917 93.15938 241.91542 93.15938Q241.0873 93.15938 240.69667 93.8Q240.32167 94.425 240.32167 95.72188L240.32167 97.45625Q240.32167 98.83125 240.7123 99.50313Q241.11855 100.15938 241.93105 100.15938Q242.72792 100.15938 243.11855 99.53438Q243.50917 98.90938 243.5248 97.58125L243.5248 95.8Z" fill-rule="nonzero"/><path fill="#4285f4" d="M226.8373 96.12813L227.6498 96.12813Q228.43105 96.1125 228.86855 95.72188Q229.30605 95.33125 229.30605 94.65938Q229.30605 93.15938 227.80605 93.15938Q227.10292 93.15938 226.68105 93.56563Q226.2748 93.97188 226.2748 94.62813L225.18105 94.62813Q225.18105 93.6125 225.91542 92.94063Q226.66542 92.26875 227.80605 92.26875Q229.00917 92.26875 229.69667 92.90938Q230.38417 93.55 230.38417 94.69063Q230.38417 95.25313 230.0248 95.76875Q229.66542 96.28438 229.04042 96.55Q229.74355 96.76875 230.11855 97.28438Q230.50917 97.8 230.50917 98.55Q230.50917 99.69063 229.75917 100.37813Q229.00917 101.05 227.80605 101.05Q226.61855 101.05 225.85292 100.39375Q225.10292 99.7375 225.10292 98.675L226.19667 98.675Q226.19667 99.34688 226.63417 99.75313Q227.07167 100.15938 227.82167 100.15938Q228.60292 100.15938 229.00917 99.75313Q229.43105 99.33125 229.43105 98.56563Q229.43105 97.83125 228.97792 97.44063Q228.5248 97.03438 227.6498 97.01875L226.8373 97.01875L226.8373 96.12813ZM237.61855 97.28438Q237.61855 99.19063 236.9623 100.12813Q236.32167 101.05 234.93105 101.05Q233.57167 101.05 232.91542 100.14375Q232.25917 99.2375 232.22792 97.425L232.22792 95.9875Q232.22792 94.09688 232.86855 93.19063Q233.5248 92.26875 234.91542 92.26875Q236.29042 92.26875 236.94667 93.15938Q237.60292 94.03438 237.61855 95.87813L237.61855 97.28438ZM236.5248 95.8Q236.5248 94.425 236.13417 93.8Q235.75917 93.15938 234.91542 93.15938Q234.0873 93.15938 233.69667 93.8Q233.32167 94.425 233.32167 95.72188L233.32167 97.45625Q233.32167 98.83125 233.7123 99.50313Q234.11855 100.15938 234.93105 100.15938Q235.72792 100.15938 236.11855 99.53438Q236.50917 98.90938 236.5248 97.58125L236.5248 95.8ZM244.61855 97.28438Q244.61855 99.19063 243.9623 100.12813Q243.32167 101.05 241.93105 101.05Q240.57167 101.05 239.91542 100.14375Q239.25917 99.2375 239.22792 97.425L239.22792 95.9875Q239.22792 94.09688 239.86855 93.19063Q240.5248 92.26875 241.91542 92.26875Q243.29042 92.26875 243.94667 93.15938Q244.60292 94.03438 244.61855 95.87813L244.61855 97.28438ZM243.5248 95.8Q243.5248 94.425 243.13417 93.8Q242.75917 93.15938 241.91542 93.15938Q241.0873 93.15938 240.69667 93.8Q240.32167 94.425 240.32167 95.72188L240.32167 97.45625Q240.32167 98.83125 240.7123 99.50313Q241.11855 100.15938 241.93105 100.15938Q242.72792 100.15938 243.11855 99.53438Q243.50917 98.90938 243.5248 97.58125L243.5248 95.8Z" fill-rule="nonzero"/><path stroke="#ffffff" stroke-width="3.0" stroke-linejoin="round" stroke-linecap="round" d="M264.16757 112.22667L258.57382 112.22667L258.57382 111.44542L261.52695 108.16417Q262.1832 107.41417 262.4332 106.961044Q262.6832 106.492294 262.6832 105.992294Q262.6832 105.32042 262.27695 104.898544Q261.88632 104.461044 261.19882 104.461044Q260.40195 104.461044 259.94882 104.929794Q259.4957 105.38292 259.4957 106.211044L258.41757 106.211044Q258.41757 105.023544 259.16757 104.304794Q259.9332 103.57042 261.19882 103.57042Q262.40195 103.57042 263.08945 104.19542Q263.77695 104.82042 263.77695 105.867294Q263.77695 107.117294 262.16757 108.867294L259.88632 111.336044L264.16757 111.336044L264.16757 112.22667ZM270.76132 105.91417Q270.76132 106.554794 270.41757 107.054794Q270.07382 107.554794 269.51132 107.836044Q270.16757 108.117294 270.5582 108.679794Q270.94882 109.22667 270.94882 109.929794Q270.94882 111.023544 270.19882 111.69542Q269.46445 112.35167 268.2457 112.35167Q267.01132 112.35167 266.26132 111.69542Q265.52695 111.023544 265.52695 109.929794Q265.52695 109.22667 265.90195 108.679794Q266.27695 108.117294 266.94882 107.836044Q266.38632 107.554794 266.0582 107.054794Q265.73007 106.554794 265.73007 105.91417Q265.73007 104.836044 266.41757 104.211044Q267.10507 103.57042 268.2457 103.57042Q269.3707 103.57042 270.0582 104.211044Q270.76132 104.836044 270.76132 105.91417ZM269.8707 109.898544Q269.8707 109.179794 269.41757 108.742294Q268.96445 108.28917 268.23007 108.28917Q267.4957 108.28917 267.04257 108.742294Q266.60507 109.179794 266.60507 109.91417Q266.60507 110.63292 267.04257 111.054794Q267.48007 111.461044 268.2457 111.461044Q268.9957 111.461044 269.4332 111.03917Q269.8707 110.617294 269.8707 109.898544ZM268.2457 104.461044Q267.60507 104.461044 267.19882 104.867294Q266.8082 105.25792 266.8082 105.94542Q266.8082 106.586044 267.19882 106.992294Q267.58945 107.398544 268.23007 107.398544Q268.88632 107.398544 269.27695 106.992294Q269.66757 106.586044 269.66757 105.94542Q269.66757 105.28917 269.26132 104.88292Q268.85507 104.461044 268.2457 104.461044ZM277.9332 108.586044Q277.9332 110.492294 277.27695 111.429794Q276.63632 112.35167 275.2457 112.35167Q273.88632 112.35167 273.23007 111.44542Q272.57382 110.53917 272.54257 108.72667L272.54257 107.28917Q272.54257 105.398544 273.1832 104.492294Q273.83945 103.57042 275.23007 103.57042Q276.60507 103.57042 277.26132 104.461044Q277.91757 105.336044 277.9332 107.179794L277.9332 108.586044ZM276.83945 107.10167Q276.83945 105.72667 276.44882 105.10167Q276.07382 104.461044 275.23007 104.461044Q274.40195 104.461044 274.01132 105.10167Q273.63632 105.72667 273.63632 107.023544L273.63632 108.75792Q273.63632 110.13292 274.02695 110.804794Q274.4332 111.461044 275.2457 111.461044Q276.04257 111.461044 276.4332 110.836044Q276.82382 110.211044 276.83945 108.88292L276.83945 107.10167Z" fill-rule="nonzero"/><path fill="#4285f4" d="M264.16757 112.22667L258.57382 112.22667L258.57382 111.44542L261.52695 108.16417Q262.1832 107.41417 262.4332 106.961044Q262.6832 106.492294 262.6832 105.992294Q262.6832 105.32042 262.27695 104.898544Q261.88632 104.461044 261.19882 104.461044Q260.40195 104.461044 259.94882 104.929794Q259.4957 105.38292 259.4957 106.211044L258.41757 106.211044Q258.41757 105.023544 259.16757 104.304794Q259.9332 103.57042 261.19882 103.57042Q262.40195 103.57042 263.08945 104.19542Q263.77695 104.82042 263.77695 105.867294Q263.77695 107.117294 262.16757 108.867294L259.88632 111.336044L264.16757 111.336044L264.16757 112.22667ZM270.76132 105.91417Q270.76132 106.554794 270.41757 107.054794Q270.07382 107.554794 269.51132 107.836044Q270.16757 108.117294 270.5582 108.679794Q270.94882 109.22667 270.94882 109.929794Q270.94882 111.023544 270.19882 111.69542Q269.46445 112.35167 268.2457 112.35167Q267.01132 112.35167 266.26132 111.69542Q265.52695 111.023544 265.52695 109.929794Q265.52695 109.22667 265.90195 108.679794Q266.27695 108.117294 266.94882 107.836044Q266.38632 107.554794 266.0582 107.054794Q265.73007 106.554794 265.73007 105.91417Q265.73007 104.836044 266.41757 104.211044Q267.10507 103.57042 268.2457 103.57042Q269.3707 103.57042 270.0582 104.211044Q270.76132 104.836044 270.76132 105.91417ZM269.8707 109.898544Q269.8707 109.179794 269.41757 108.742294Q268.96445 108.28917 268.23007 108.28917Q267.4957 108.28917 267.04257 108.742294Q266.60507 109.179794 266.60507 109.91417Q266.60507 110.63292 267.04257 111.054794Q267.48007 111.461044 268.2457 111.461044Q268.9957 111.461044 269.4332 111.03917Q269.8707 110.617294 269.8707 109.898544ZM268.2457 104.461044Q267.60507 104.461044 267.19882 104.867294Q266.8082 105.25792 266.8082 105.94542Q266.8082 106.586044 267.19882 106.992294Q267.58945 107.398544 268.23007 107.398544Q268.88632 107.398544 269.27695 106.992294Q269.66757 106.586044 269.66757 105.94542Q269.66757 105.28917 269.26132 104.88292Q268.85507 104.461044 268.2457 104.461044ZM277.9332 108.586044Q277.9332 110.492294 277.27695 111.429794Q276.63632 112.35167 275.2457 112.35167Q273.88632 112.35167 273.23007 111.44542Q272.57382 110.53917 272.54257 108.72667L272.54257 107.28917Q272.54257 105.398544 273.1832 104.492294Q273.83945 103.57042 275.23007 103.57042Q276.60507 103.57042 277.26132 104.461044Q277.91757 105.336044 277.9332 107.179794L277.9332 108.586044ZM276.83945 107.10167Q276.83945 105.72667 276.44882 105.10167Q276.07382 104.461044 275.23007 104.461044Q274.40195 104.461044 274.01132 105.10167Q273.63632 105.72667 273.63632 107.023544L273.63632 108.75792Q273.63632 110.13292 274.02695 110.804794Q274.4332 111.461044 275.2457 111.461044Q276.04257 111.461044 276.4332 110.836044Q276.82382 110.211044 276.83945 108.88292L276.83945 107.10167Z" fill-rule="nonzero"/><path stroke="#ffffff" stroke-width="3.0" stroke-linejoin="round" stroke-linecap="round" d="M297.48224 112.22667L291.8885 112.22667L291.8885 111.44542L294.8416 108.16417Q295.49786 107.41417 295.74786 106.961044Q295.99786 106.492294 295.99786 105.992294Q295.99786 105.32042 295.5916 104.898544Q295.201 104.461044 294.5135 104.461044Q293.7166 104.461044 293.2635 104.929794Q292.81036 105.38292 292.81036 106.211044L291.73224 106.211044Q291.73224 105.023544 292.48224 104.304794Q293.24786 103.57042 294.5135 103.57042Q295.7166 103.57042 296.4041 104.19542Q297.0916 104.82042 297.0916 105.867294Q297.0916 107.117294 295.48224 108.867294L293.201 111.336044L297.48224 111.336044L297.48224 112.22667ZM304.076 105.91417Q304.076 106.554794 303.73224 107.054794Q303.3885 107.554794 302.826 107.836044Q303.48224 108.117294 303.87286 108.679794Q304.2635 109.22667 304.2635 109.929794Q304.2635 111.023544 303.5135 111.69542Q302.7791 112.35167 301.56036 112.35167Q300.326 112.35167 299.576 111.69542Q298.8416 111.023544 298.8416 109.929794Q298.8416 109.22667 299.2166 108.679794Q299.5916 108.117294 300.2635 107.836044Q299.701 107.554794 299.37286 107.054794Q299.04474 106.554794 299.04474 105.91417Q299.04474 104.836044 299.73224 104.211044Q300.41974 103.57042 301.56036 103.57042Q302.68536 103.57042 303.37286 104.211044Q304.076 104.836044 304.076 105.91417ZM303.18536 109.898544Q303.18536 109.179794 302.73224 108.742294Q302.2791 108.28917 301.54474 108.28917Q300.81036 108.28917 300.35724 108.742294Q299.91974 109.179794 299.91974 109.91417Q299.91974 110.63292 300.35724 111.054794Q300.79474 111.461044 301.56036 111.461044Q302.31036 111.461044 302.74786 111.03917Q303.18536 110.617294 303.18536 109.898544ZM301.56036 104.461044Q300.91974 104.461044 300.5135 104.867294Q300.12286 105.25792 300.12286 105.94542Q300.12286 106.586044 300.5135 106.992294Q300.9041 107.398544 301.54474 107.398544Q302.201 107.398544 302.5916 106.992294Q302.98224 106.586044 302.98224 105.94542Q302.98224 105.28917 302.576 104.88292Q302.16974 104.461044 301.56036 104.461044ZM311.24786 108.586044Q311.24786 110.492294 310.5916 111.429794Q309.951 112.35167 308.56036 112.35167Q307.201 112.35167 306.54474 111.44542Q305.8885 110.53917 305.85724 108.72667L305.85724 107.28917Q305.85724 105.398544 306.49786 104.492294Q307.1541 103.57042 308.54474 103.57042Q309.91974 103.57042 310.576 104.461044Q311.23224 105.336044 311.24786 107.179794L311.24786 108.586044ZM310.1541 107.10167Q310.1541 105.72667 309.7635 105.10167Q309.3885 104.461044 308.54474 104.461044Q307.7166 104.461044 307.326 105.10167Q306.951 105.72667 306.951 107.023544L306.951 108.75792Q306.951 110.13292 307.3416 110.804794Q307.74786 111.461044 308.56036 111.461044Q309.35724 111.461044 309.74786 110.836044Q310.1385 110.211044 310.1541 108.88292L310.1541 107.10167Z" fill-rule="nonzero"/><path fill="#4285f4" d="M297.48224 112.22667L291.8885 112.22667L291.8885 111.44542L294.8416 108.16417Q295.49786 107.41417 295.74786 106.961044Q295.99786 106.492294 295.99786 105.992294Q295.99786 105.32042 295.5916 104.898544Q295.201 104.461044 294.5135 104.461044Q293.7166 104.461044 293.2635 104.929794Q292.81036 105.38292 292.81036 106.211044L291.73224 106.211044Q291.73224 105.023544 292.48224 104.304794Q293.24786 103.57042 294.5135 103.57042Q295.7166 103.57042 296.4041 104.19542Q297.0916 104.82042 297.0916 105.867294Q297.0916 107.117294 295.48224 108.867294L293.201 111.336044L297.48224 111.336044L297.48224 112.22667ZM304.076 105.91417Q304.076 106.554794 303.73224 107.054794Q303.3885 107.554794 302.826 107.836044Q303.48224 108.117294 303.87286 108.679794Q304.2635 109.22667 304.2635 109.929794Q304.2635 111.023544 303.5135 111.69542Q302.7791 112.35167 301.56036 112.35167Q300.326 112.35167 299.576 111.69542Q298.8416 111.023544 298.8416 109.929794Q298.8416 109.22667 299.2166 108.679794Q299.5916 108.117294 300.2635 107.836044Q299.701 107.554794 299.37286 107.054794Q299.04474 106.554794 299.04474 105.91417Q299.04474 104.836044 299.73224 104.211044Q300.41974 103.57042 301.56036 103.57042Q302.68536 103.57042 303.37286 104.211044Q304.076 104.836044 304.076 105.91417ZM303.18536 109.898544Q303.18536 109.179794 302.73224 108.742294Q302.2791 108.28917 301.54474 108.28917Q300.81036 108.28917 300.35724 108.742294Q299.91974 109.179794 299.91974 109.91417Q299.91974 110.63292 300.35724 111.054794Q300.79474 111.461044 301.56036 111.461044Q302.31036 111.461044 302.74786 111.03917Q303.18536 110.617294 303.18536 109.898544ZM301.56036 104.461044Q300.91974 104.461044 300.5135 104.867294Q300.12286 105.25792 300.12286 105.94542Q300.12286 106.586044 300.5135 106.992294Q300.9041 107.398544 301.54474 107.398544Q302.201 107.398544 302.5916 106.992294Q302.98224 106.586044 302.98224 105.94542Q302.98224 105.28917 302.576 104.88292Q302.16974 104.461044 301.56036 104.461044ZM311.24786 108.586044Q311.24786 110.492294 310.5916 111.429794Q309.951 112.35167 308.56036 112.35167Q307.201 112.35167 306.54474 111.44542Q305.8885 110.53917 305.85724 108.72667L305.85724 107.28917Q305.85724 105.398544 306.49786 104.492294Q307.1541 103.57042 308.54474 103.57042Q309.91974 103.57042 310.576 104.461044Q311.23224 105.336044 311.24786 107.179794L311.24786 108.586044ZM310.1541 107.10167Q310.1541 105.72667 309.7635 105.10167Q309.3885 104.461044 308.54474 104.461044Q307.7166 104.461044 307.326 105.10167Q306.951 105.72667 306.951 107.023544L306.951 108.75792Q306.951 110.13292 307.3416 110.804794Q307.74786 111.461044 308.56036 111.461044Q309.35724 111.461044 309.74786 110.836044Q310.1385 110.211044 310.1541 108.88292L310.1541 107.10167Z" fill-rule="nonzero"/><path stroke="#ffffff" stroke-width="3.0" stroke-linejoin="round" stroke-linecap="round" d="M330.79688 123.528336L325.20312 123.528336L325.20312 122.747086L328.15625 119.465836Q328.8125 118.715836 329.0625 118.26271Q329.3125 117.79396 329.3125 117.29396Q329.3125 116.622086 328.90625 116.20021Q328.51562 115.76271 327.82812 115.76271Q327.03125 115.76271 326.57812 116.23146Q326.125 116.684586 326.125 117.51271L325.04688 117.51271Q325.04688 116.32521 325.79688 115.60646Q326.5625 114.872086 327.82812 114.872086Q329.03125 114.872086 329.71875 115.497086Q330.40625 116.122086 330.40625 117.16896Q330.40625 118.41896 328.79688 120.16896L326.51562 122.63771L330.79688 122.63771L330.79688 123.528336ZM336.46875 114.997086L336.46875 115.903336L336.26562 115.903336Q335.0 115.934586 334.25 116.66896Q333.5 117.38771 333.375 118.70021Q334.0625 117.934586 335.21875 117.934586Q336.32812 117.934586 337.0 118.715836Q337.67188 119.497086 337.67188 120.747086Q337.67188 122.059586 336.95312 122.85646Q336.23438 123.653336 335.01562 123.653336Q333.79688 123.653336 333.03125 122.715836Q332.28125 121.76271 332.28125 120.278336L332.28125 119.872086Q332.28125 117.51271 333.28125 116.26271Q334.28125 115.01271 336.26562 114.997086L336.46875 114.997086ZM335.04688 118.840836Q334.48438 118.840836 334.01562 119.16896Q333.54688 119.497086 333.35938 120.01271L333.35938 120.403336Q333.35938 121.465836 333.82812 122.10646Q334.3125 122.747086 335.01562 122.747086Q335.75 122.747086 336.17188 122.215836Q336.59375 121.66896 336.59375 120.79396Q336.59375 119.91896 336.17188 119.38771Q335.75 118.840836 335.04688 118.840836ZM344.5625 119.88771Q344.5625 121.79396 343.90625 122.73146Q343.26562 123.653336 341.875 123.653336Q340.51562 123.653336 339.85938 122.747086Q339.20312 121.840836 339.17188 120.028336L339.17188 118.590836Q339.17188 116.70021 339.8125 115.79396Q340.46875 114.872086 341.85938 114.872086Q343.23438 114.872086 343.89062 115.76271Q344.54688 116.63771 344.5625 118.48146L344.5625 119.88771ZM343.46875 118.403336Q343.46875 117.028336 343.07812 116.403336Q342.70312 115.76271 341.85938 115.76271Q341.03125 115.76271 340.64062 116.403336Q340.26562 117.028336 340.26562 118.32521L340.26562 120.059586Q340.26562 121.434586 340.65625 122.10646Q341.0625 122.76271 341.875 122.76271Q342.67188 122.76271 343.0625 122.13771Q343.45312 121.51271 343.46875 120.184586L343.46875 118.403336Z" fill-rule="nonzero"/><path fill="#4285f4" d="M330.79688 123.528336L325.20312 123.528336L325.20312 122.747086L328.15625 119.465836Q328.8125 118.715836 329.0625 118.26271Q329.3125 117.79396 329.3125 117.29396Q329.3125 116.622086 328.90625 116.20021Q328.51562 115.76271 327.82812 115.76271Q327.03125 115.76271 326.57812 116.23146Q326.125 116.684586 326.125 117.51271L325.04688 117.51271Q325.04688 116.32521 325.79688 115.60646Q326.5625 114.872086 327.82812 114.872086Q329.03125 114.872086 329.71875 115.497086Q330.40625 116.122086 330.40625 117.16896Q330.40625 118.41896 328.79688 120.16896L326.51562 122.63771L330.79688 122.63771L330.79688 123.528336ZM336.46875 114.997086L336.46875 115.903336L336.26562 115.903336Q335.0 115.934586 334.25 116.66896Q333.5 117.38771 333.375 118.70021Q334.0625 117.934586 335.21875 117.934586Q336.32812 117.934586 337.0 118.715836Q337.67188 119.497086 337.67188 120.747086Q337.67188 122.059586 336.95312 122.85646Q336.23438 123.653336 335.01562 123.653336Q333.79688 123.653336 333.03125 122.715836Q332.28125 121.76271 332.28125 120.278336L332.28125 119.872086Q332.28125 117.51271 333.28125 116.26271Q334.28125 115.01271 336.26562 114.997086L336.46875 114.997086ZM335.04688 118.840836Q334.48438 118.840836 334.01562 119.16896Q333.54688 119.497086 333.35938 120.01271L333.35938 120.403336Q333.35938 121.465836 333.82812 122.10646Q334.3125 122.747086 335.01562 122.747086Q335.75 122.747086 336.17188 122.215836Q336.59375 121.66896 336.59375 120.79396Q336.59375 119.91896 336.17188 119.38771Q335.75 118.840836 335.04688 118.840836ZM344.5625 119.88771Q344.5625 121.79396 343.90625 122.73146Q343.26562 123.653336 341.875 123.653336Q340.51562 123.653336 339.85938 122.747086Q339.20312 121.840836 339.17188 120.028336L339.17188 118.590836Q339.17188 116.70021 339.8125 115.79396Q340.46875 114.872086 341.85938 114.872086Q343.23438 114.872086 343.89062 115.76271Q344.54688 116.63771 344.5625 118.48146L344.5625 119.88771ZM343.46875 118.403336Q343.46875 117.028336 343.07812 116.403336Q342.70312 115.76271 341.85938 115.76271Q341.03125 115.76271 340.64062 116.403336Q340.26562 117.028336 340.26562 118.32521L340.26562 120.059586Q340.26562 121.434586 340.65625 122.10646Q341.0625 122.76271 341.875 122.76271Q342.67188 122.76271 343.0625 122.13771Q343.45312 121.51271 343.46875 120.184586L343.46875 118.403336Z" fill-rule="nonzero"/><path stroke="#ffffff" stroke-width="3.0" stroke-linejoin="round" stroke-linecap="round" d="M364.1115 157.43333L358.51776 157.43333L358.51776 156.65208L361.4709 153.37083Q362.12714 152.62083 362.37714 152.16771Q362.62714 151.69896 362.62714 151.19896Q362.62714 150.52708 362.2209 150.10521Q361.83026 149.66771 361.14276 149.66771Q360.3459 149.66771 359.89276 150.13646Q359.43964 150.58958 359.43964 151.41771L358.3615 151.41771Q358.3615 150.23021 359.1115 149.51146Q359.87714 148.77708 361.14276 148.77708Q362.3459 148.77708 363.0334 149.40208Q363.7209 150.02708 363.7209 151.07396Q363.7209 152.32396 362.1115 154.07396L359.83026 156.54271L364.1115 156.54271L364.1115 157.43333ZM370.87714 153.79271Q370.87714 155.69896 370.2209 156.63646Q369.58026 157.55833 368.18964 157.55833Q366.83026 157.55833 366.174 156.65208Q365.51776 155.74583 365.4865 153.93333L365.4865 152.49583Q365.4865 150.60521 366.12714 149.69896Q366.7834 148.77708 368.174 148.77708Q369.549 148.77708 370.20526 149.66771Q370.8615 150.54271 370.87714 152.38646L370.87714 153.79271ZM369.7834 152.30833Q369.7834 150.93333 369.39276 150.30833Q369.01776 149.66771 368.174 149.66771Q367.3459 149.66771 366.95526 150.30833Q366.58026 150.93333 366.58026 152.23021L366.58026 153.96458Q366.58026 155.33958 366.9709 156.01146Q367.37714 156.66771 368.18964 156.66771Q368.9865 156.66771 369.37714 156.04271Q369.76776 155.41771 369.7834 154.08958L369.7834 152.30833ZM377.87714 153.79271Q377.87714 155.69896 377.2209 156.63646Q376.58026 157.55833 375.18964 157.55833Q373.83026 157.55833 373.174 156.65208Q372.51776 155.74583 372.4865 153.93333L372.4865 152.49583Q372.4865 150.60521 373.12714 149.69896Q373.7834 148.77708 375.174 148.77708Q376.549 148.77708 377.20526 149.66771Q377.8615 150.54271 377.87714 152.38646L377.87714 153.79271ZM376.7834 152.30833Q376.7834 150.93333 376.39276 150.30833Q376.01776 149.66771 375.174 149.66771Q374.3459 149.66771 373.95526 150.30833Q373.58026 150.93333 373.58026 152.23021L373.58026 153.96458Q373.58026 155.33958 373.9709 156.01146Q374.37714 156.66771 375.18964 156.66771Q375.9865 156.66771 376.37714 156.04271Q376.76776 155.41771 376.7834 154.08958L376.7834 152.30833Z" fill-rule="nonzero"/><path fill="#4285f4" d="M364.1115 157.43333L358.51776 157.43333L358.51776 156.65208L361.4709 153.37083Q362.12714 152.62083 362.37714 152.16771Q362.62714 151.69896 362.62714 151.19896Q362.62714 150.52708 362.2209 150.10521Q361.83026 149.66771 361.14276 149.66771Q360.3459 149.66771 359.89276 150.13646Q359.43964 150.58958 359.43964 151.41771L358.3615 151.41771Q358.3615 150.23021 359.1115 149.51146Q359.87714 148.77708 361.14276 148.77708Q362.3459 148.77708 363.0334 149.40208Q363.7209 150.02708 363.7209 151.07396Q363.7209 152.32396 362.1115 154.07396L359.83026 156.54271L364.1115 156.54271L364.1115 157.43333ZM370.87714 153.79271Q370.87714 155.69896 370.2209 156.63646Q369.58026 157.55833 368.18964 157.55833Q366.83026 157.55833 366.174 156.65208Q365.51776 155.74583 365.4865 153.93333L365.4865 152.49583Q365.4865 150.60521 366.12714 149.69896Q366.7834 148.77708 368.174 148.77708Q369.549 148.77708 370.20526 149.66771Q370.8615 150.54271 370.87714 152.38646L370.87714 153.79271ZM369.7834 152.30833Q369.7834 150.93333 369.39276 150.30833Q369.01776 149.66771 368.174 149.66771Q367.3459 149.66771 366.95526 150.30833Q366.58026 150.93333 366.58026 152.23021L366.58026 153.96458Q366.58026 155.33958 366.9709 156.01146Q367.37714 156.66771 368.18964 156.66771Q368.9865 156.66771 369.37714 156.04271Q369.76776 155.41771 369.7834 154.08958L369.7834 152.30833ZM377.87714 153.79271Q377.87714 155.69896 377.2209 156.63646Q376.58026 157.55833 375.18964 157.55833Q373.83026 157.55833 373.174 156.65208Q372.51776 155.74583 372.4865 153.93333L372.4865 152.49583Q372.4865 150.60521 373.12714 149.69896Q373.7834 148.77708 375.174 148.77708Q376.549 148.77708 377.20526 149.66771Q377.8615 150.54271 377.87714 152.38646L377.87714 153.79271ZM376.7834 152.30833Q376.7834 150.93333 376.39276 150.30833Q376.01776 149.66771 375.174 149.66771Q374.3459 149.66771 373.95526 150.30833Q373.58026 150.93333 373.58026 152.23021L373.58026 153.96458Q373.58026 155.33958 373.9709 156.01146Q374.37714 156.66771 375.18964 156.66771Q375.9865 156.66771 376.37714 156.04271Q376.76776 155.41771 376.7834 154.08958L376.7834 152.30833Z" fill-rule="nonzero"/><path stroke="#ffffff" stroke-width="3.0" stroke-linejoin="round" stroke-linecap="round" d="M395.39493 174.38583L394.3168 174.38583L394.3168 167.16708L392.1293 167.96396L392.1293 166.97958L395.23868 165.80771L395.39493 165.80771L395.39493 174.38583ZM404.34805 166.46396L400.8168 174.38583L399.67618 174.38583L403.1918 166.74521L398.58243 166.74521L398.58243 165.85458L404.34805 165.85458L404.34805 166.46396ZM411.1918 170.74521Q411.1918 172.65146 410.53555 173.58896Q409.89493 174.51083 408.5043 174.51083Q407.14493 174.51083 406.48868 173.60458Q405.83243 172.69833 405.80118 170.88583L405.80118 169.44833Q405.80118 167.55771 406.4418 166.65146Q407.09805 165.72958 408.48868 165.72958Q409.86368 165.72958 410.51993 166.62021Q411.17618 167.49521 411.1918 169.33896L411.1918 170.74521ZM410.09805 169.26083Q410.09805 167.88583 409.70743 167.26083Q409.33243 166.62021 408.48868 166.62021Q407.66055 166.62021 407.26993 167.26083Q406.89493 167.88583 406.89493 169.18271L406.89493 170.91708Q406.89493 172.29208 407.28555 172.96396Q407.6918 173.62021 408.5043 173.62021Q409.30118 173.62021 409.6918 172.99521Q410.08243 172.37021 410.09805 171.04208L410.09805 169.26083Z" fill-rule="nonzero"/><path fill="#4285f4" d="M395.39493 174.38583L394.3168 174.38583L394.3168 167.16708L392.1293 167.96396L392.1293 166.97958L395.23868 165.80771L395.39493 165.80771L395.39493 174.38583ZM404.34805 166.46396L400.8168 174.38583L399.67618 174.38583L403.1918 166.74521L398.58243 166.74521L398.58243 165.85458L404.34805 165.85458L404.34805 166.46396ZM411.1918 170.74521Q411.1918 172.65146 410.53555 173.58896Q409.89493 174.51083 408.5043 174.51083Q407.14493 174.51083 406.48868 173.60458Q405.83243 172.69833 405.80118 170.88583L405.80118 169.44833Q405.80118 167.55771 406.4418 166.65146Q407.09805 165.72958 408.48868 165.72958Q409.86368 165.72958 410.51993 166.62021Q411.17618 167.49521 411.1918 169.33896L411.1918 170.74521ZM410.09805 169.26083Q410.09805 167.88583 409.70743 167.26083Q409.33243 166.62021 408.48868 166.62021Q407.66055 166.62021 407.26993 167.26083Q406.89493 167.88583 406.89493 169.18271L406.89493 170.91708Q406.89493 172.29208 407.28555 172.96396Q407.6918 173.62021 408.5043 173.62021Q409.30118 173.62021 409.6918 172.99521Q410.08243 172.37021 410.09805 171.04208L410.09805 169.26083Z" fill-rule="nonzero"/><path stroke="#ffffff" stroke-width="3.0" stroke-linejoin="round" stroke-linecap="round" d="M428.70956 191.33833L427.63144 191.33833L427.63144 184.11958L425.44394 184.91646L425.44394 183.93208L428.5533 182.76021L428.70956 182.76021L428.70956 191.33833ZM436.7252 188.47896L437.9127 188.47896L437.9127 189.35396L436.7252 189.35396L436.7252 191.33833L435.64706 191.33833L435.64706 189.35396L431.75644 189.35396L431.75644 188.71333L435.56894 182.80708L436.7252 182.80708L436.7252 188.47896ZM432.9908 188.47896L435.64706 188.47896L435.64706 184.29146L435.50644 184.52583L432.9908 188.47896ZM444.50644 187.69771Q444.50644 189.60396 443.8502 190.54146Q443.20956 191.46333 441.81894 191.46333Q440.45956 191.46333 439.8033 190.55708Q439.14706 189.65083 439.1158 187.83833L439.1158 186.40083Q439.1158 184.51021 439.75644 183.60396Q440.4127 182.68208 441.8033 182.68208Q443.1783 182.68208 443.83456 183.57271Q444.4908 184.44771 444.50644 186.29146L444.50644 187.69771ZM443.4127 186.21333Q443.4127 184.83833 443.02206 184.21333Q442.64706 183.57271 441.8033 183.57271Q440.9752 183.57271 440.58456 184.21333Q440.20956 184.83833 440.20956 186.13521L440.20956 187.86958Q440.20956 189.24458 440.6002 189.91646Q441.00644 190.57271 441.81894 190.57271Q442.6158 190.57271 443.00644 189.94771Q443.39706 189.32271 443.4127 187.99458L443.4127 186.21333Z" fill-rule="nonzero"/><path fill="#4285f4" d="M428.70956 191.33833L427.63144 191.33833L427.63144 184.11958L425.44394 184.91646L425.44394 183.93208L428.5533 182.76021L428.70956 182.76021L428.70956 191.33833ZM436.7252 188.47896L437.9127 188.47896L437.9127 189.35396L436.7252 189.35396L436.7252 191.33833L435.64706 191.33833L435.64706 189.35396L431.75644 189.35396L431.75644 188.71333L435.56894 182.80708L436.7252 182.80708L436.7252 188.47896ZM432.9908 188.47896L435.64706 188.47896L435.64706 184.29146L435.50644 184.52583L432.9908 188.47896ZM444.50644 187.69771Q444.50644 189.60396 443.8502 190.54146Q443.20956 191.46333 441.81894 191.46333Q440.45956 191.46333 439.8033 190.55708Q439.14706 189.65083 439.1158 187.83833L439.1158 186.40083Q439.1158 184.51021 439.75644 183.60396Q440.4127 182.68208 441.8033 182.68208Q443.1783 182.68208 443.83456 183.57271Q444.4908 184.44771 444.50644 186.29146L444.50644 187.69771ZM443.4127 186.21333Q443.4127 184.83833 443.02206 184.21333Q442.64706 183.57271 441.8033 183.57271Q440.9752 183.57271 440.58456 184.21333Q440.20956 184.83833 440.20956 186.13521L440.20956 187.86958Q440.20956 189.24458 440.6002 189.91646Q441.00644 190.57271 441.81894 190.57271Q442.6158 190.57271 443.00644 189.94771Q443.39706 189.32271 443.4127 187.99458L443.4127 186.21333Z" fill-rule="nonzero"/><path stroke="#ffffff" stroke-width="3.0" stroke-linejoin="round" stroke-linecap="round" d="M462.02423 202.64L460.9461 202.64L460.9461 195.42125L458.7586 196.21812L458.7586 195.23375L461.86798 194.06187L462.02423 194.06187L462.02423 202.64ZM471.05548 202.64L465.46173 202.64L465.46173 201.85875L468.41486 198.5775Q469.0711 197.8275 469.3211 197.37437Q469.5711 196.90562 469.5711 196.40562Q469.5711 195.73375 469.16486 195.31187Q468.77423 194.87437 468.08673 194.87437Q467.28986 194.87437 466.83673 195.34312Q466.3836 195.79625 466.3836 196.62437L465.30548 196.62437Q465.30548 195.43687 466.05548 194.71812Q466.8211 193.98375 468.08673 193.98375Q469.28986 193.98375 469.97736 194.60875Q470.66486 195.23375 470.66486 196.28062Q470.66486 197.53062 469.05548 199.28062L466.77423 201.74937L471.05548 201.74937L471.05548 202.64ZM477.8211 198.99937Q477.8211 200.90562 477.16486 201.84312Q476.52423 202.765 475.1336 202.765Q473.77423 202.765 473.11798 201.85875Q472.46173 200.9525 472.43048 199.14L472.43048 197.7025Q472.43048 195.81187 473.0711 194.90562Q473.72736 193.98375 475.11798 193.98375Q476.49298 193.98375 477.14923 194.87437Q477.80548 195.74937 477.8211 197.59312L477.8211 198.99937ZM476.72736 197.515Q476.72736 196.14 476.33673 195.515Q475.96173 194.87437 475.11798 194.87437Q474.28986 194.87437 473.89923 195.515Q473.52423 196.14 473.52423 197.43687L473.52423 199.17125Q473.52423 200.54625 473.91486 201.21812Q474.3211 201.87437 475.1336 201.87437Q475.93048 201.87437 476.3211 201.24937Q476.71173 200.62437 476.72736 199.29625L476.72736 197.515Z" fill-rule="nonzero"/><path fill="#4285f4" d="M462.02423 202.64L460.9461 202.64L460.9461 195.42125L458.7586 196.21812L458.7586 195.23375L461.86798 194.06187L462.02423 194.06187L462.02423 202.64ZM471.05548 202.64L465.46173 202.64L465.46173 201.85875L468.41486 198.5775Q469.0711 197.8275 469.3211 197.37437Q469.5711 196.90562 469.5711 196.40562Q469.5711 195.73375 469.16486 195.31187Q468.77423 194.87437 468.08673 194.87437Q467.28986 194.87437 466.83673 195.34312Q466.3836 195.79625 466.3836 196.62437L465.30548 196.62437Q465.30548 195.43687 466.05548 194.71812Q466.8211 193.98375 468.08673 193.98375Q469.28986 193.98375 469.97736 194.60875Q470.66486 195.23375 470.66486 196.28062Q470.66486 197.53062 469.05548 199.28062L466.77423 201.74937L471.05548 201.74937L471.05548 202.64ZM477.8211 198.99937Q477.8211 200.90562 477.16486 201.84312Q476.52423 202.765 475.1336 202.765Q473.77423 202.765 473.11798 201.85875Q472.46173 200.9525 472.43048 199.14L472.43048 197.7025Q472.43048 195.81187 473.0711 194.90562Q473.72736 193.98375 475.11798 193.98375Q476.49298 193.98375 477.14923 194.87437Q477.80548 195.74937 477.8211 197.59312L477.8211 198.99937ZM476.72736 197.515Q476.72736 196.14 476.33673 195.515Q475.96173 194.87437 475.11798 194.87437Q474.28986 194.87437 473.89923 195.515Q473.52423 196.14 473.52423 197.43687L473.52423 199.17125Q473.52423 200.54625 473.91486 201.21812Q474.3211 201.87437 475.1336 201.87437Q475.93048 201.87437 476.3211 201.24937Q476.71173 200.62437 476.72736 199.29625L476.72736 197.515Z" fill-rule="nonzero"/><path stroke="#ffffff" stroke-width="3.0" stroke-linejoin="round" stroke-linecap="round" d="M500.792 222.97229L497.26074 230.89417L496.12012 230.89417L499.63574 223.25354L495.02637 223.25354L495.02637 222.36292L500.792 222.36292L500.792 222.97229ZM507.63574 227.25354Q507.63574 229.15979 506.9795 230.09729Q506.33887 231.01917 504.94824 231.01917Q503.58887 231.01917 502.93262 230.11292Q502.27637 229.20667 502.24512 227.39417L502.24512 225.95667Q502.24512 224.06604 502.88574 223.15979Q503.542 222.23792 504.93262 222.23792Q506.30762 222.23792 506.96387 223.12854Q507.62012 224.00354 507.63574 225.84729L507.63574 227.25354ZM506.542 225.76917Q506.542 224.39417 506.15137 223.76917Q505.77637 223.12854 504.93262 223.12854Q504.1045 223.12854 503.71387 223.76917Q503.33887 224.39417 503.33887 225.69104L503.33887 227.42542Q503.33887 228.80042 503.7295 229.47229Q504.13574 230.12854 504.94824 230.12854Q505.74512 230.12854 506.13574 229.50354Q506.52637 228.87854 506.542 227.55042L506.542 225.76917Z" fill-rule="nonzero"/><path fill="#4285f4" d="M500.792 222.97229L497.26074 230.89417L496.12012 230.89417L499.63574 223.25354L495.02637 223.25354L495.02637 222.36292L500.792 222.36292L500.792 222.97229ZM507.63574 227.25354Q507.63574 229.15979 506.9795 230.09729Q506.33887 231.01917 504.94824 231.01917Q503.58887 231.01917 502.93262 230.11292Q502.27637 229.20667 502.24512 227.39417L502.24512 225.95667Q502.24512 224.06604 502.88574 223.15979Q503.542 222.23792 504.93262 222.23792Q506.30762 222.23792 506.96387 223.12854Q507.62012 224.00354 507.63574 225.84729L507.63574 227.25354ZM506.542 225.76917Q506.542 224.39417 506.15137 223.76917Q505.77637 223.12854 504.93262 223.12854Q504.1045 223.12854 503.71387 223.76917Q503.33887 224.39417 503.33887 225.69104L503.33887 227.42542Q503.33887 228.80042 503.7295 229.47229Q504.13574 230.12854 504.94824 230.12854Q505.74512 230.12854 506.13574 229.50354Q506.52637 228.87854 506.542 227.55042L506.542 225.76917Z" fill-rule="nonzero"/><path stroke="#ffffff" stroke-width="3.0" stroke-linejoin="round" stroke-linecap="round" d="M530.1691 245.87521L530.9816 245.87521Q531.7629 245.85959 532.2004 245.46896Q532.6379 245.07834 532.6379 244.40646Q532.6379 242.90646 531.1379 242.90646Q530.43475 242.90646 530.0129 243.31271Q529.6066 243.71896 529.6066 244.37521L528.5129 244.37521Q528.5129 243.35959 529.24725 242.68771Q529.99725 242.01584 531.1379 242.01584Q532.341 242.01584 533.0285 242.65646Q533.716 243.29709 533.716 244.43771Q533.716 245.00021 533.3566 245.51584Q532.99725 246.03146 532.37225 246.29709Q533.0754 246.51584 533.4504 247.03146Q533.841 247.54709 533.841 248.29709Q533.841 249.43771 533.091 250.12521Q532.341 250.79709 531.1379 250.79709Q529.9504 250.79709 529.18475 250.14084Q528.43475 249.48459 528.43475 248.42209L529.5285 248.42209Q529.5285 249.09396 529.966 249.50021Q530.4035 249.90646 531.1535 249.90646Q531.93475 249.90646 532.341 249.50021Q532.7629 249.07834 532.7629 248.31271Q532.7629 247.57834 532.30975 247.18771Q531.8566 246.78146 530.9816 246.76584L530.1691 246.76584L530.1691 245.87521ZM536.091 246.39084L536.5285 242.14084L540.9035 242.14084L540.9035 243.14084L537.4504 243.14084L537.18475 245.46896Q537.8254 245.09396 538.62225 245.09396Q539.7785 245.09396 540.466 245.87521Q541.1535 246.64084 541.1535 247.95334Q541.1535 249.26584 540.43475 250.03146Q539.7316 250.79709 538.4504 250.79709Q537.3254 250.79709 536.6066 250.17209Q535.8879 249.53146 535.7941 248.42209L536.80975 248.42209Q536.9191 249.15646 537.341 249.53146Q537.7629 249.90646 538.4504 249.90646Q539.2004 249.90646 539.6379 249.39084Q540.0754 248.87521 540.0754 247.96896Q540.0754 247.10959 539.6066 246.59396Q539.1379 246.07834 538.3566 246.07834Q537.6535 246.07834 537.24725 246.37521L536.966 246.60959L536.091 246.39084Z" fill-rule="nonzero"/><path fill="#4285f4" d="M530.1691 245.87521L530.9816 245.87521Q531.7629 245.85959 532.2004 245.46896Q532.6379 245.07834 532.6379 244.40646Q532.6379 242.90646 531.1379 242.90646Q530.43475 242.90646 530.0129 243.31271Q529.6066 243.71896 529.6066 244.37521L528.5129 244.37521Q528.5129 243.35959 529.24725 242.68771Q529.99725 242.01584 531.1379 242.01584Q532.341 242.01584 533.0285 242.65646Q533.716 243.29709 533.716 244.43771Q533.716 245.00021 533.3566 245.51584Q532.99725 246.03146 532.37225 246.29709Q533.0754 246.51584 533.4504 247.03146Q533.841 247.54709 533.841 248.29709Q533.841 249.43771 533.091 250.12521Q532.341 250.79709 531.1379 250.79709Q529.9504 250.79709 529.18475 250.14084Q528.43475 249.48459 528.43475 248.42209L529.5285 248.42209Q529.5285 249.09396 529.966 249.50021Q530.4035 249.90646 531.1535 249.90646Q531.93475 249.90646 532.341 249.50021Q532.7629 249.07834 532.7629 248.31271Q532.7629 247.57834 532.30975 247.18771Q531.8566 246.78146 530.9816 246.76584L530.1691 246.76584L530.1691 245.87521ZM536.091 246.39084L536.5285 242.14084L540.9035 242.14084L540.9035 243.14084L537.4504 243.14084L537.18475 245.46896Q537.8254 245.09396 538.62225 245.09396Q539.7785 245.09396 540.466 245.87521Q541.1535 246.64084 541.1535 247.95334Q541.1535 249.26584 540.43475 250.03146Q539.7316 250.79709 538.4504 250.79709Q537.3254 250.79709 536.6066 250.17209Q535.8879 249.53146 535.7941 248.42209L536.80975 248.42209Q536.9191 249.15646 537.341 249.53146Q537.7629 249.90646 538.4504 249.90646Q539.2004 249.90646 539.6379 249.39084Q540.0754 248.87521 540.0754 247.96896Q540.0754 247.10959 539.6066 246.59396Q539.1379 246.07834 538.3566 246.07834Q537.6535 246.07834 537.24725 246.37521L536.966 246.60959L536.091 246.39084Z" fill-rule="nonzero"/><path stroke="#ffffff" stroke-width="3.0" stroke-linejoin="round" stroke-linecap="round" d="M570.765 266.8094Q570.765 268.71564 570.10876 269.65314Q569.46814 270.575 568.0775 270.575Q566.71814 270.575 566.0619 269.66876Q565.40564 268.7625 565.3744 266.95L565.3744 265.5125Q565.3744 263.6219 566.015 262.71564Q566.67126 261.79376 568.0619 261.79376Q569.4369 261.79376 570.09314 262.6844Q570.7494 263.5594 570.765 265.40314L570.765 266.8094ZM569.67126 265.325Q569.67126 263.95 569.28064 263.325Q568.90564 262.6844 568.0619 262.6844Q567.23376 262.6844 566.84314 263.325Q566.46814 263.95 566.46814 265.2469L566.46814 266.98126Q566.46814 268.35626 566.85876 269.02814Q567.265 269.6844 568.0775 269.6844Q568.8744 269.6844 569.265 269.0594Q569.65564 268.4344 569.67126 267.10626L569.67126 265.325Z" fill-rule="nonzero"/><path fill="#4285f4" d="M570.765 266.8094Q570.765 268.71564 570.10876 269.65314Q569.46814 270.575 568.0775 270.575Q566.71814 270.575 566.0619 269.66876Q565.40564 268.7625 565.3744 266.95L565.3744 265.5125Q565.3744 263.6219 566.015 262.71564Q566.67126 261.79376 568.0619 261.79376Q569.4369 261.79376 570.09314 262.6844Q570.7494 263.5594 570.765 265.40314L570.765 266.8094ZM569.67126 265.325Q569.67126 263.95 569.28064 263.325Q568.90564 262.6844 568.0619 262.6844Q567.23376 262.6844 566.84314 263.325Q566.46814 263.95 566.46814 265.2469L566.46814 266.98126Q566.46814 268.35626 566.85876 269.02814Q567.265 269.6844 568.0775 269.6844Q568.8744 269.6844 569.265 269.0594Q569.65564 268.4344 569.67126 267.10626L569.67126 265.325Z" fill-rule="nonzero"/><path fill="#424242" d="M285.82812 348.45L285.82812 337.075L289.03125 337.075Q290.51562 337.075 291.65625 337.73126Q292.79688 338.3875 293.42188 339.60626Q294.04688 340.8094 294.04688 342.3719L294.04688 343.10626Q294.04688 344.71564 293.42188 345.9344Q292.8125 347.1375 291.65625 347.79376Q290.5 348.4344 288.96875 348.45L285.82812 348.45ZM287.32812 338.3094L287.32812 347.21564L288.90625 347.21564Q290.64062 347.21564 291.59375 346.1375Q292.5625 345.0594 292.5625 343.075L292.5625 342.40314Q292.5625 340.46564 291.65625 339.40314Q290.75 338.325 289.07812 338.3094L287.32812 338.3094ZM298.17188 348.45L296.71875 348.45L296.71875 339.9969L298.17188 339.9969L298.17188 348.45ZM296.60938 337.7469Q296.60938 337.40314 296.8125 337.16876Q297.03125 336.91876 297.45312 336.91876Q297.875 336.91876 298.09375 337.16876Q298.3125 337.40314 298.3125 337.7625Q298.3125 338.10626 298.09375 338.34064Q297.875 338.575 297.45312 338.575Q297.03125 338.575 296.8125 338.34064Q296.60938 338.10626 296.60938 337.7469ZM305.8125 348.45Q305.6875 348.2 305.60938 347.5594Q304.60938 348.60626 303.20312 348.60626Q301.95312 348.60626 301.15625 347.90314Q300.35938 347.1844 300.35938 346.10626Q300.35938 344.77814 301.35938 344.0594Q302.35938 343.325 304.1875 343.325L305.59375 343.325L305.59375 342.65314Q305.59375 341.90314 305.14062 341.45Q304.6875 340.9969 303.79688 340.9969Q303.03125 340.9969 302.5 341.3875Q301.98438 341.77814 301.98438 342.34064L300.53125 342.34064Q300.53125 341.7 300.96875 341.1219Q301.42188 340.52814 302.1875 340.1844Q302.96875 339.84064 303.89062 339.84064Q305.34375 339.84064 306.17188 340.575Q307.0 341.29376 307.03125 342.575L307.03125 346.46564Q307.03125 347.6375 307.32812 348.325L307.32812 348.45L305.8125 348.45ZM303.42188 347.34064Q304.09375 347.34064 304.70312 346.9969Q305.3125 346.6375 305.59375 346.075L305.59375 344.34064L304.45312 344.34064Q301.79688 344.34064 301.79688 345.90314Q301.79688 346.575 302.25 346.96564Q302.70312 347.34064 303.42188 347.34064ZM313.54688 343.825Q313.54688 342.0594 314.01562 340.4344Q314.48438 338.8094 315.42188 337.48126Q316.35938 336.15314 317.375 335.60626L317.67188 336.5594Q316.53125 337.4344 315.79688 339.23126Q315.0625 341.02814 315.0 343.2625L314.98438 343.91876Q314.98438 346.9344 316.09375 349.16876Q316.75 350.4969 317.67188 351.2469L317.375 352.1219Q316.32812 351.54376 315.39062 350.1844Q313.54688 347.52814 313.54688 343.825ZM318.25 344.15314Q318.25 342.2 319.17188 341.02814Q320.09375 339.84064 321.57812 339.84064Q323.0625 339.84064 323.9375 340.85626L323.9375 336.45L325.375 336.45L325.375 348.45L324.04688 348.45L323.98438 347.54376Q323.10938 348.60626 321.5625 348.60626Q320.09375 348.60626 319.17188 347.40314Q318.25 346.2 318.25 344.2625L318.25 344.15314ZM319.6875 344.3094Q319.6875 345.7469 320.28125 346.5594Q320.875 347.3719 321.92188 347.3719Q323.29688 347.3719 323.9375 346.1375L323.9375 342.2625Q323.28125 341.0594 321.9375 341.0594Q320.875 341.0594 320.28125 341.8875Q319.6875 342.7 319.6875 344.3094ZM327.21875 344.1375Q327.21875 342.90314 327.70312 341.91876Q328.1875 340.91876 329.0625 340.3875Q329.9375 339.84064 331.04688 339.84064Q332.78125 339.84064 333.84375 341.04376Q334.90625 342.23126 334.90625 344.21564L334.90625 344.3094Q334.90625 345.54376 334.4375 346.52814Q333.96875 347.5125 333.07812 348.0594Q332.20312 348.60626 331.0625 348.60626Q329.34375 348.60626 328.28125 347.41876Q327.21875 346.21564 327.21875 344.2469L327.21875 344.1375ZM328.67188 344.3094Q328.67188 345.71564 329.3125 346.575Q329.96875 347.41876 331.0625 347.41876Q332.17188 347.41876 332.8125 346.5594Q333.46875 345.7 333.46875 344.1375Q333.46875 342.7469 332.79688 341.8875Q332.14062 341.02814 331.04688 341.02814Q329.98438 341.02814 329.32812 341.8875Q328.67188 342.73126 328.67188 344.3094ZM345.51562 346.2Q345.51562 345.6219 345.07812 345.29376Q344.64062 344.96564 343.53125 344.73126Q342.4375 344.4969 341.79688 344.16876Q341.15625 343.84064 340.84375 343.3875Q340.53125 342.9344 340.53125 342.3094Q340.53125 341.27814 341.40625 340.5594Q342.29688 339.84064 343.65625 339.84064Q345.09375 339.84064 345.98438 340.59064Q346.89062 341.325 346.89062 342.48126L345.4375 342.48126Q345.4375 341.8875 344.92188 341.46564Q344.42188 341.02814 343.65625 341.02814Q342.875 341.02814 342.42188 341.3719Q341.98438 341.71564 341.98438 342.2625Q341.98438 342.79376 342.39062 343.0594Q342.8125 343.325 343.89062 343.575Q344.96875 343.8094 345.64062 344.15314Q346.3125 344.48126 346.64062 344.95Q346.96875 345.41876 346.96875 346.10626Q346.96875 347.23126 346.0625 347.91876Q345.15625 348.60626 343.70312 348.60626Q342.6875 348.60626 341.90625 348.2469Q341.125 347.8875 340.6875 347.2469Q340.25 346.59064 340.25 345.84064L341.6875 345.84064Q341.73438 346.575 342.26562 346.9969Q342.8125 347.41876 343.70312 347.41876Q344.53125 347.41876 345.01562 347.09064Q345.51562 346.7625 345.51562 346.2ZM355.73438 344.3094Q355.73438 346.2469 354.84375 347.4344Q353.96875 348.60626 352.46875 348.60626Q350.92188 348.60626 350.04688 347.6219L350.04688 351.7L348.59375 351.7L348.59375 339.9969L349.92188 339.9969L349.98438 340.9344Q350.875 339.84064 352.4375 339.84064Q353.96875 339.84064 354.84375 340.9969Q355.73438 342.1375 355.73438 344.1844L355.73438 344.3094ZM354.29688 344.15314Q354.29688 342.71564 353.6875 341.8875Q353.07812 341.0594 352.01562 341.0594Q350.70312 341.0594 350.04688 342.23126L350.04688 346.2625Q350.6875 347.41876 352.03125 347.41876Q353.0625 347.41876 353.67188 346.60626Q354.29688 345.77814 354.29688 344.15314ZM361.6875 341.29376Q361.35938 341.23126 360.96875 341.23126Q359.54688 341.23126 359.04688 342.45L359.04688 348.45L357.59375 348.45L357.59375 339.9969L359.0 339.9969L359.03125 340.96564Q359.73438 339.84064 361.04688 339.84064Q361.46875 339.84064 361.6875 339.95L361.6875 341.29376ZM364.17188 348.45L362.71875 348.45L362.71875 339.9969L364.17188 339.9969L364.17188 348.45ZM362.60938 337.7469Q362.60938 337.40314 362.8125 337.16876Q363.03125 336.91876 363.45312 336.91876Q363.875 336.91876 364.09375 337.16876Q364.3125 337.40314 364.3125 337.7625Q364.3125 338.10626 364.09375 338.34064Q363.875 338.575 363.45312 338.575Q363.03125 338.575 362.8125 338.34064Q362.60938 338.10626 362.60938 337.7469ZM367.96875 339.9969L368.01562 341.0594Q368.98438 339.84064 370.54688 339.84064Q373.21875 339.84064 373.25 342.85626L373.25 348.45L371.79688 348.45L371.79688 342.85626Q371.79688 341.9344 371.375 341.4969Q370.96875 341.0594 370.10938 341.0594Q369.40625 341.0594 368.875 341.4344Q368.34375 341.8094 368.04688 342.41876L368.04688 348.45L366.59375 348.45L366.59375 339.9969L367.96875 339.9969ZM377.5625 337.95L377.5625 339.9969L379.14062 339.9969L379.14062 341.10626L377.5625 341.10626L377.5625 346.35626Q377.5625 346.85626 377.76562 347.1219Q377.98438 347.3719 378.48438 347.3719Q378.73438 347.3719 379.17188 347.27814L379.17188 348.45Q378.60938 348.60626 378.0625 348.60626Q377.09375 348.60626 376.59375 348.02814Q376.10938 347.4344 376.10938 346.35626L376.10938 341.10626L374.57812 341.10626L374.57812 339.9969L376.10938 339.9969L376.10938 337.95L377.5625 337.95ZM383.9375 343.90314Q383.9375 345.65314 383.46875 347.2625Q383.01562 348.85626 382.07812 350.2Q381.14062 351.5594 380.10938 352.1219L379.79688 351.2469Q381.0 350.325 381.73438 348.3875Q382.46875 346.4344 382.48438 344.0594L382.48438 343.8094Q382.48438 342.16876 382.14062 340.7625Q381.79688 339.35626 381.17188 338.2469Q380.5625 337.1219 379.79688 336.4969L380.10938 335.60626Q381.14062 336.1844 382.0625 337.52814Q383.0 338.85626 383.46875 340.46564Q383.9375 342.075 383.9375 343.90314Z" fill-rule="nonzero"/><path fill="#424242" d="M28.471888 293.51147Q27.925013 295.43335 27.112513 296.32394Q26.300013 297.19894 25.112513 297.19894Q23.768763 297.19894 22.893763 296.12082Q22.018763 295.04272 22.018763 293.32397Q22.018763 292.1521 22.471888 291.24585Q22.925013 290.32397 23.721888 289.82397Q24.518763 289.30835 25.456263 289.30835L25.456263 290.82397Q24.425013 290.82397 23.846888 291.48022Q23.253138 292.13647 23.253138 293.32397Q23.253138 294.43335 23.737513 295.05835Q24.221888 295.68335 25.096888 295.68335Q25.784388 295.68335 26.268763 295.0896Q26.753138 294.49585 27.159388 293.0896Q27.550013 291.66772 28.034388 290.87085Q28.503138 290.05835 29.143763 289.68335Q29.784388 289.29272 30.659388 289.29272Q32.034386 289.29272 32.878136 290.37085Q33.70626 291.44897 33.70626 293.24585Q33.70626 294.41772 33.253136 295.43335Q32.80001 296.44894 32.01876 297.01144Q31.237513 297.55832 30.253138 297.55832L30.253138 296.0427Q31.284388 296.0427 31.878138 295.29272Q32.471886 294.5271 32.471886 293.24585Q32.471886 292.05835 31.987513 291.43335Q31.503138 290.79272 30.675013 290.79272Q29.831263 290.79272 29.378138 291.38647Q28.925013 291.9646 28.471888 293.51147ZM29.237513 287.4646Q28.003138 287.4646 27.018763 286.98022Q26.018763 286.49585 25.487513 285.62085Q24.940638 284.74585 24.940638 283.63647Q24.940638 281.9021 26.143763 280.8396Q27.331263 279.7771 29.315638 279.7771L29.409388 279.7771Q30.643763 279.7771 31.628138 280.24585Q32.61251 280.7146 33.159386 281.60522Q33.70626 282.48022 33.70626 283.62085Q33.70626 285.3396 32.51876 286.4021Q31.315638 287.4646 29.346888 287.4646L29.237513 287.4646ZM29.409388 286.01147Q30.815638 286.01147 31.675013 285.37085Q32.51876 284.7146 32.51876 283.62085Q32.51876 282.51147 31.659388 281.87085Q30.800013 281.2146 29.237513 281.2146Q27.846888 281.2146 26.987513 281.88647Q26.128138 282.54272 26.128138 283.63647Q26.128138 284.69897 26.987513 285.35522Q27.831263 286.01147 29.409388 286.01147ZM25.096888 276.73022L26.034388 276.68335Q24.940638 275.76147 24.940638 274.18335Q24.940638 272.4021 26.300013 271.76147Q25.690638 271.3396 25.315638 270.66772Q24.940638 269.99585 24.940638 269.07397Q24.940638 266.29272 27.878138 266.24585L33.55001 266.24585L33.55001 267.68335L27.971888 267.68335Q27.065638 267.68335 26.612513 268.10522Q26.159388 268.51147 26.159388 269.49585Q26.159388 270.29272 26.643763 270.82397Q27.128138 271.35522 27.940638 271.44897L33.55001 271.44897L33.55001 272.9021L28.003138 272.9021Q26.159388 272.9021 26.159388 274.69897Q26.159388 276.12085 27.378138 276.6521L33.55001 276.6521L33.55001 278.0896L25.096888 278.0896L25.096888 276.73022ZM33.55001 258.87085Q33.30001 258.99585 32.659386 259.07397Q33.70626 260.07397 33.70626 261.48022Q33.70626 262.73022 33.003136 263.5271Q32.284386 264.32397 31.206263 264.32397Q29.878138 264.32397 29.159388 263.32397Q28.425013 262.32397 28.425013 260.49585L28.425013 259.0896L27.753138 259.0896Q27.003138 259.0896 26.550013 259.54272Q26.096888 259.99585 26.096888 260.88647Q26.096888 261.6521 26.487513 262.18335Q26.878138 262.69897 27.440638 262.69897L27.440638 264.1521Q26.800013 264.1521 26.221888 263.7146Q25.628138 263.26147 25.284388 262.49585Q24.940638 261.7146 24.940638 260.79272Q24.940638 259.3396 25.675013 258.51147Q26.393763 257.68335 27.675013 257.6521L31.565638 257.6521Q32.73751 257.6521 33.42501 257.35522L33.55001 257.35522L33.55001 258.87085ZM32.440636 261.26147Q32.440636 260.5896 32.096886 259.98022Q31.737513 259.37085 31.175013 259.0896L29.440638 259.0896L29.440638 260.23022Q29.440638 262.88647 31.003138 262.88647Q31.675013 262.88647 32.065636 262.43335Q32.440636 261.98022 32.440636 261.26147ZM23.050013 253.12083L25.096888 253.12083L25.096888 251.54271L26.206263 251.54271L26.206263 253.12083L31.456263 253.12083Q31.956263 253.12083 32.221886 252.91771Q32.471886 252.69896 32.471886 252.19896Q32.471886 251.94896 32.378136 251.51146L33.55001 251.51146Q33.70626 252.07396 33.70626 252.62083Q33.70626 253.58958 33.128136 254.08958Q32.534386 254.57396 31.456263 254.57396L26.206263 254.57396L26.206263 256.10522L25.096888 256.10522L25.096888 254.57396L23.050013 254.57396L23.050013 253.12083ZM29.237513 250.46458Q28.003138 250.46458 27.018763 249.98021Q26.018763 249.49583 25.487513 248.62083Q24.940638 247.74583 24.940638 246.63646Q24.940638 244.90208 26.143763 243.83958Q27.331263 242.77708 29.315638 242.77708L29.409388 242.77708Q30.643763 242.77708 31.628138 243.24583Q32.61251 243.71458 33.159386 244.60521Q33.70626 245.48021 33.70626 246.62083Q33.70626 248.33958 32.51876 249.40208Q31.315638 250.46458 29.346888 250.46458L29.237513 250.46458ZM29.409388 249.01146Q30.815638 249.01146 31.675013 248.37083Q32.51876 247.71458 32.51876 246.62083Q32.51876 245.51146 31.659388 244.87083Q30.800013 244.21458 29.237513 244.21458Q27.846888 244.21458 26.987513 244.88646Q26.128138 245.54271 26.128138 246.63646Q26.128138 247.69896 26.987513 248.35521Q27.831263 249.01146 29.409388 249.01146ZM21.550013 245.71458L21.550013 243.96458L23.846888 246.05833L23.846888 247.21458L21.550013 245.71458ZM26.393763 236.99583Q26.331263 237.32396 26.331263 237.71458Q26.331263 239.13646 27.550013 239.63646L33.55001 239.63646L33.55001 241.08958L25.096888 241.08958L25.096888 239.68333L26.065638 239.65208Q24.940638 238.94896 24.940638 237.63646Q24.940638 237.21458 25.050013 236.99583L26.393763 236.99583ZM33.55001 234.51146L33.55001 235.96458L25.096888 235.96458L25.096888 234.51146L33.55001 234.51146ZM22.846888 236.07396Q22.503138 236.07396 22.268763 235.87083Q22.018763 235.65208 22.018763 235.23021Q22.018763 234.80833 22.268763 234.58958Q22.503138 234.37083 22.862513 234.37083Q23.206263 234.37083 23.440638 234.58958Q23.675013 234.80833 23.675013 235.23021Q23.675013 235.65208 23.440638 235.87083Q23.206263 236.07396 22.846888 236.07396ZM29.237513 232.46458Q28.003138 232.46458 27.018763 231.98021Q26.018763 231.49583 25.487513 230.62083Q24.940638 229.74583 24.940638 228.63646Q24.940638 226.90208 26.143763 225.83958Q27.331263 224.77708 29.315638 224.77708L29.409388 224.77708Q30.643763 224.77708 31.628138 225.24583Q32.61251 225.71458 33.159386 226.60521Q33.70626 227.48021 33.70626 228.62083Q33.70626 230.33958 32.51876 231.40208Q31.315638 232.46458 29.346888 232.46458L29.237513 232.46458ZM29.409388 231.01146Q30.815638 231.01146 31.675013 230.37083Q32.51876 229.71458 32.51876 228.62083Q32.51876 227.51146 31.659388 226.87083Q30.800013 226.21458 29.237513 226.21458Q27.846888 226.21458 26.987513 226.88646Q26.128138 227.54271 26.128138 228.63646Q26.128138 229.69896 26.987513 230.35521Q27.831263 231.01146 29.409388 231.01146ZM29.253138 219.43333Q27.300013 219.43333 26.128138 218.51146Q24.940638 217.58958 24.940638 216.10521Q24.940638 214.62083 25.956263 213.74583L21.550013 213.74583L21.550013 212.30833L33.55001 212.30833L33.55001 213.63646L32.64376 213.69896Q33.70626 214.57396 33.70626 216.12083Q33.70626 217.58958 32.503136 218.51146Q31.300013 219.43333 29.362513 219.43333L29.253138 219.43333ZM29.409388 217.99583Q30.846888 217.99583 31.659388 217.40208Q32.471886 216.80833 32.471886 215.76146Q32.471886 214.38646 31.237513 213.74583L27.362513 213.74583Q26.159388 214.40208 26.159388 215.74583Q26.159388 216.80833 26.987513 217.40208Q27.800013 217.99583 29.409388 217.99583ZM33.55001 204.87083Q33.30001 204.99583 32.659386 205.07396Q33.70626 206.07396 33.70626 207.48021Q33.70626 208.73021 33.003136 209.52708Q32.284386 210.32396 31.206263 210.32396Q29.878138 210.32396 29.159388 209.32396Q28.425013 208.32396 28.425013 206.49583L28.425013 205.08958L27.753138 205.08958Q27.003138 205.08958 26.550013 205.54271Q26.096888 205.99583 26.096888 206.88646Q26.096888 207.65208 26.487513 208.18333Q26.878138 208.69896 27.440638 208.69896L27.440638 210.15208Q26.800013 210.15208 26.221888 209.71458Q25.628138 209.26146 25.284388 208.49583Q24.940638 207.71458 24.940638 206.79271Q24.940638 205.33958 25.675013 204.51146Q26.393763 203.68333 27.675013 203.65208L31.565638 203.65208Q32.73751 203.65208 33.42501 203.35521L33.55001 203.35521L33.55001 204.87083ZM32.440636 207.26146Q32.440636 206.58958 32.096886 205.98021Q31.737513 205.37083 31.175013 205.08958L29.440638 205.08958L29.440638 206.23021Q29.440638 208.88646 31.003138 208.88646Q31.675013 208.88646 32.065636 208.43333Q32.440636 207.98021 32.440636 207.26146ZM31.300013 196.16771Q30.721888 196.16771 30.393763 196.60521Q30.065638 197.04271 29.831263 198.15208Q29.596888 199.24583 29.268763 199.88646Q28.940638 200.52708 28.487513 200.83958Q28.034388 201.15208 27.409388 201.15208Q26.378138 201.15208 25.659388 200.27708Q24.940638 199.38646 24.940638 198.02708Q24.940638 196.58958 25.690638 195.69896Q26.425013 194.79271 27.581263 194.79271L27.581263 196.24583Q26.987513 196.24583 26.565638 196.76146Q26.128138 197.26146 26.128138 198.02708Q26.128138 198.80833 26.471888 199.26146Q26.815638 199.69896 27.362513 199.69896Q27.893763 199.69896 28.159388 199.29271Q28.425013 198.87083 28.675013 197.79271Q28.909388 196.71458 29.253138 196.04271Q29.581263 195.37083 30.050013 195.04271Q30.518763 194.71458 31.206263 194.71458Q32.33126 194.71458 33.01876 195.62083Q33.70626 196.52708 33.70626 197.98021Q33.70626 198.99583 33.346886 199.77708Q32.98751 200.55833 32.346886 200.99583Q31.690638 201.43333 30.940638 201.43333L30.940638 199.99583Q31.675013 199.94896 32.096886 199.41771Q32.51876 198.87083 32.51876 197.98021Q32.51876 197.15208 32.190636 196.66771Q31.862513 196.16771 31.300013 196.16771ZM26.112513 187.63646Q24.940638 186.68333 24.940638 185.13646Q24.940638 182.46458 27.956263 182.43333L33.55001 182.43333L33.55001 183.88646L27.956263 183.88646Q27.034388 183.88646 26.596888 184.30833Q26.159388 184.71458 26.159388 185.57396Q26.159388 186.27708 26.534388 186.80833Q26.909388 187.33958 27.518763 187.63646L33.55001 187.63646L33.55001 189.08958L21.550013 189.08958L21.550013 187.63646L26.112513 187.63646ZM29.237513 180.46458Q28.003138 180.46458 27.018763 179.98021Q26.018763 179.49583 25.487513 178.62083Q24.940638 177.74583 24.940638 176.63646Q24.940638 174.90208 26.143763 173.83958Q27.331263 172.77708 29.315638 172.77708L29.409388 172.77708Q30.643763 172.77708 31.628138 173.24583Q32.61251 173.71458 33.159386 174.60521Q33.70626 175.48021 33.70626 176.62083Q33.70626 178.33958 32.51876 179.40208Q31.315638 180.46458 29.346888 180.46458L29.237513 180.46458ZM29.409388 179.01146Q30.815638 179.01146 31.675013 178.37083Q32.51876 177.71458 32.51876 176.62083Q32.51876 175.51146 31.659388 174.87083Q30.800013 174.21458 29.237513 174.21458Q27.846888 174.21458 26.987513 174.88646Q26.128138 175.54271 26.128138 176.63646Q26.128138 177.69896 26.987513 178.35521Q27.831263 179.01146 29.409388 179.01146ZM26.393763 166.99583Q26.331263 167.32396 26.331263 167.71458Q26.331263 169.13646 27.550013 169.63646L33.55001 169.63646L33.55001 171.08958L25.096888 171.08958L25.096888 169.68333L26.065638 169.65208Q24.940638 168.94896 24.940638 167.63646Q24.940638 167.21458 25.050013 166.99583L26.393763 166.99583ZM33.55001 160.87083Q33.30001 160.99583 32.659386 161.07396Q33.70626 162.07396 33.70626 163.48021Q33.70626 164.73021 33.003136 165.52708Q32.284386 166.32396 31.206263 166.32396Q29.878138 166.32396 29.159388 165.32396Q28.425013 164.32396 28.425013 162.49583L28.425013 161.08958L27.753138 161.08958Q27.003138 161.08958 26.550013 161.54271Q26.096888 161.99583 26.096888 162.88646Q26.096888 163.65208 26.487513 164.18333Q26.878138 164.69896 27.440638 164.69896L27.440638 166.15208Q26.800013 166.15208 26.221888 165.71458Q25.628138 165.26146 25.284388 164.49583Q24.940638 163.71458 24.940638 162.79271Q24.940638 161.33958 25.675013 160.51146Q26.393763 159.68333 27.675013 159.65208L31.565638 159.65208Q32.73751 159.65208 33.42501 159.35521L33.55001 159.35521L33.55001 160.87083ZM32.440636 163.26146Q32.440636 162.58958 32.096886 161.98021Q31.737513 161.37083 31.175013 161.08958L29.440638 161.08958L29.440638 162.23021Q29.440638 164.88646 31.003138 164.88646Q31.675013 164.88646 32.065636 164.43333Q32.440636 163.98021 32.440636 163.26146ZM31.300013 152.16771Q30.721888 152.16771 30.393763 152.60521Q30.065638 153.04271 29.831263 154.15208Q29.596888 155.24583 29.268763 155.88646Q28.940638 156.52708 28.487513 156.83958Q28.034388 157.15208 27.409388 157.15208Q26.378138 157.15208 25.659388 156.27708Q24.940638 155.38646 24.940638 154.02708Q24.940638 152.58958 25.690638 151.69896Q26.425013 150.79271 27.581263 150.79271L27.581263 152.24583Q26.987513 152.24583 26.565638 152.76146Q26.128138 153.26146 26.128138 154.02708Q26.128138 154.80833 26.471888 155.26146Q26.815638 155.69896 27.362513 155.69896Q27.893763 155.69896 28.159388 155.29271Q28.425013 154.87083 28.675013 153.79271Q28.909388 152.71458 29.253138 152.04271Q29.581263 151.37083 30.050013 151.04271Q30.518763 150.71458 31.206263 150.71458Q32.33126 150.71458 33.01876 151.62083Q33.70626 152.52708 33.70626 153.98021Q33.70626 154.99583 33.346886 155.77708Q32.98751 156.55833 32.346886 156.99583Q31.690638 157.43333 30.940638 157.43333L30.940638 155.99583Q31.675013 155.94896 32.096886 155.41771Q32.51876 154.87083 32.51876 153.98021Q32.51876 153.15208 32.190636 152.66771Q31.862513 152.16771 31.300013 152.16771ZM29.253138 145.43333Q27.300013 145.43333 26.128138 144.51146Q24.940638 143.58958 24.940638 142.10521Q24.940638 140.62083 25.956263 139.74583L21.550013 139.74583L21.550013 138.30833L33.55001 138.30833L33.55001 139.63646L32.64376 139.69896Q33.70626 140.57396 33.70626 142.12083Q33.70626 143.58958 32.503136 144.51146Q31.300013 145.43333 29.362513 145.43333L29.253138 145.43333ZM29.409388 143.99583Q30.846888 143.99583 31.659388 143.40208Q32.471886 142.80833 32.471886 141.76146Q32.471886 140.38646 31.237513 139.74583L27.362513 139.74583Q26.159388 140.40208 26.159388 141.74583Q26.159388 142.80833 26.987513 143.40208Q27.800013 143.99583 29.409388 143.99583ZM33.55001 130.87083Q33.30001 130.99583 32.659386 131.07396Q33.70626 132.07396 33.70626 133.48021Q33.70626 134.73021 33.003136 135.52708Q32.284386 136.32396 31.206263 136.32396Q29.878138 136.32396 29.159388 135.32396Q28.425013 134.32396 28.425013 132.49583L28.425013 131.08958L27.753138 131.08958Q27.003138 131.08958 26.550013 131.54271Q26.096888 131.99583 26.096888 132.88646Q26.096888 133.65208 26.487513 134.18333Q26.878138 134.69896 27.440638 134.69896L27.440638 136.15208Q26.800013 136.15208 26.221888 135.71458Q25.628138 135.26146 25.284388 134.49583Q24.940638 133.71458 24.940638 132.79271Q24.940638 131.33958 25.675013 130.51146Q26.393763 129.68333 27.675013 129.65208L31.565638 129.65208Q32.73751 129.65208 33.42501 129.35521L33.55001 129.35521L33.55001 130.87083ZM32.440636 133.26146Q32.440636 132.58958 32.096886 131.98021Q31.737513 131.37083 31.175013 131.08958L29.440638 131.08958L29.440638 132.23021Q29.440638 134.88646 31.003138 134.88646Q31.675013 134.88646 32.065636 134.43333Q32.440636 133.98021 32.440636 133.26146ZM31.300013 122.16771Q30.721888 122.16771 30.393763 122.60521Q30.065638 123.04271 29.831263 124.152084Q29.596888 125.245834 29.268763 125.88646Q28.940638 126.527084 28.487513 126.839584Q28.034388 127.152084 27.409388 127.152084Q26.378138 127.152084 25.659388 126.277084Q24.940638 125.38646 24.940638 124.027084Q24.940638 122.589584 25.690638 121.69896Q26.425013 120.79271 27.581263 120.79271L27.581263 122.245834Q26.987513 122.245834 26.565638 122.76146Q26.128138 123.26146 26.128138 124.027084Q26.128138 124.808334 26.471888 125.26146Q26.815638 125.69896 27.362513 125.69896Q27.893763 125.69896 28.159388 125.29271Q28.425013 124.870834 28.675013 123.79271Q28.909388 122.714584 29.253138 122.04271Q29.581263 121.370834 30.050013 121.04271Q30.518763 120.714584 31.206263 120.714584Q32.33126 120.714584 33.01876 121.620834Q33.70626 122.527084 33.70626 123.98021Q33.70626 124.995834 33.346886 125.777084Q32.98751 126.558334 32.346886 126.995834Q31.690638 127.433334 30.940638 127.433334L30.940638 125.995834Q31.675013 125.94896 32.096886 125.41771Q32.51876 124.870834 32.51876 123.98021Q32.51876 123.152084 32.190636 122.66771Q31.862513 122.16771 31.300013 122.16771ZM23.050013 113.120834L25.096888 113.120834L25.096888 111.54271L26.206263 111.54271L26.206263 113.120834L31.456263 113.120834Q31.956263 113.120834 32.221886 112.91771Q32.471886 112.69896 32.471886 112.19896Q32.471886 111.94896 32.378136 111.51146L33.55001 111.51146Q33.70626 112.07396 33.70626 112.620834Q33.70626 113.589584 33.128136 114.089584Q32.534386 114.57396 31.456263 114.57396L26.206263 114.57396L26.206263 116.10521L25.096888 116.10521L25.096888 114.57396L23.050013 114.57396L23.050013 113.120834ZM33.55001 104.870834Q33.30001 104.995834 32.659386 105.07396Q33.70626 106.07396 33.70626 107.48021Q33.70626 108.73021 33.003136 109.527084Q32.284386 110.32396 31.206263 110.32396Q29.878138 110.32396 29.159388 109.32396Q28.425013 108.32396 28.425013 106.495834L28.425013 105.089584L27.753138 105.089584Q27.003138 105.089584 26.550013 105.54271Q26.096888 105.995834 26.096888 106.88646Q26.096888 107.652084 26.487513 108.183334Q26.878138 108.69896 27.440638 108.69896L27.440638 110.152084Q26.800013 110.152084 26.221888 109.714584Q25.628138 109.26146 25.284388 108.495834Q24.940638 107.714584 24.940638 106.79271Q24.940638 105.339584 25.675013 104.51146Q26.393763 103.683334 27.675013 103.652084L31.565638 103.652084Q32.73751 103.652084 33.42501 103.35521L33.55001 103.35521L33.55001 104.870834ZM32.440636 107.26146Q32.440636 106.589584 32.096886 105.98021Q31.737513 105.370834 31.175013 105.089584L29.440638 105.089584L29.440638 106.23021Q29.440638 108.88646 31.003138 108.88646Q31.675013 108.88646 32.065636 108.433334Q32.440636 107.98021 32.440636 107.26146ZM26.393763 96.995834Q26.331263 97.32396 26.331263 97.714584Q26.331263 99.13646 27.550013 99.63646L33.55001 99.63646L33.55001 101.089584L25.096888 101.089584L25.096888 99.683334L26.065638 99.652084Q24.940638 98.94896 24.940638 97.63646Q24.940638 97.214584 25.050013 96.995834L26.393763 96.995834ZM33.70626 92.57396Q33.70626 94.29271 32.58126 95.370834Q31.440638 96.44896 29.550013 96.44896L29.284388 96.44896Q28.034388 96.44896 27.050013 95.98021Q26.050013 95.495834 25.503138 94.63646Q24.940638 93.76146 24.940638 92.76146Q24.940638 91.10521 26.034388 90.19896Q27.112513 89.277084 29.128138 89.277084L29.737513 89.277084L29.737513 95.01146Q30.987513 94.98021 31.753138 94.277084Q32.51876 93.57396 32.51876 92.495834Q32.51876 91.73021 32.20626 91.19896Q31.893763 90.66771 31.378138 90.277084L32.065636 89.38646Q33.70626 90.44896 33.70626 92.57396ZM26.128138 92.76146Q26.128138 93.63646 26.768763 94.23021Q27.393763 94.82396 28.550013 94.964584L28.550013 90.73021L28.440638 90.73021Q27.331263 90.79271 26.737513 91.32396Q26.128138 91.85521 26.128138 92.76146ZM33.55001 87.370834L26.206263 87.370834L26.206263 88.714584L25.096888 88.714584L25.096888 87.370834L24.221888 87.370834Q22.862513 87.370834 22.128138 86.652084Q21.378138 85.91771 21.378138 84.589584Q21.378138 84.089584 21.518763 83.60521L22.690638 83.683334Q22.612513 84.04271 22.612513 84.464584Q22.612513 85.16771 23.034388 85.558334Q23.440638 85.933334 24.206263 85.933334L25.096888 85.933334L25.096888 84.120834L26.206263 84.120834L26.206263 85.933334L33.55001 85.933334L33.55001 87.370834ZM33.55001 76.870834Q33.30001 76.995834 32.659386 77.07396Q33.70626 78.07396 33.70626 79.48021Q33.70626 80.73021 33.003136 81.527084Q32.284386 82.32396 31.206263 82.32396Q29.878138 82.32396 29.159388 81.32396Q28.425013 80.32396 28.425013 78.495834L28.425013 77.089584L27.753138 77.089584Q27.003138 77.089584 26.550013 77.54271Q26.096888 77.995834 26.096888 78.88646Q26.096888 79.652084 26.487513 80.183334Q26.878138 80.69896 27.440638 80.69896L27.440638 82.152084Q26.800013 82.152084 26.221888 81.714584Q25.628138 81.26146 25.284388 80.495834Q24.940638 79.714584 24.940638 78.79271Q24.940638 77.339584 25.675013 76.51146Q26.393763 75.683334 27.675013 75.652084L31.565638 75.652084Q32.73751 75.652084 33.42501 75.35521L33.55001 75.35521L33.55001 76.870834ZM32.440636 79.26146Q32.440636 78.589584 32.096886 77.98021Q31.737513 77.370834 31.175013 77.089584L29.440638 77.089584L29.440638 78.23021Q29.440638 80.88646 31.003138 80.88646Q31.675013 80.88646 32.065636 80.433334Q32.440636 79.98021 32.440636 79.26146ZM31.300013 68.167725Q30.721888 68.167725 30.393763 68.605225Q30.065638 69.042725 29.831263 70.1521Q29.596888 71.24585 29.268763 71.886475Q28.940638 72.527084 28.487513 72.839584Q28.034388 73.152084 27.409388 73.152084Q26.378138 73.152084 25.659388 72.277084Q24.940638 71.386475 24.940638 70.0271Q24.940638 68.5896 25.690638 67.698975Q26.425013 66.792725 27.581263 66.792725L27.581263 68.24585Q26.987513 68.24585 26.565638 68.761475Q26.128138 69.261475 26.128138 70.0271Q26.128138 70.80835 26.471888 71.261475Q26.815638 71.698975 27.362513 71.698975Q27.893763 71.698975 28.159388 71.292725Q28.425013 70.87085 28.675013 69.792725Q28.909388 68.7146 29.253138 68.042725Q29.581263 67.37085 30.050013 67.042725Q30.518763 66.7146 31.206263 66.7146Q32.33126 66.7146 33.01876 67.62085Q33.70626 68.5271 33.70626 69.980225Q33.70626 70.99585 33.346886 71.7771Q32.98751 72.558334 32.346886 72.995834Q31.690638 73.433334 30.940638 73.433334L30.940638 71.99585Q31.675013 71.948975 32.096886 71.417725Q32.51876 70.87085 32.51876 69.980225Q32.51876 69.1521 32.190636 68.667725Q31.862513 68.167725 31.300013 68.167725Z" fill-rule="nonzero"/><path fill="#757575" d="M81.6125 289.3094Q81.6125 291.21564 80.95625 292.15314Q80.31563 293.075 78.925 293.075Q77.56563 293.075 76.90938 292.16876Q76.25313 291.2625 76.22188 289.45L76.22188 288.0125Q76.22188 286.1219 76.8625 285.21564Q77.51875 284.29376 78.90938 284.29376Q80.28438 284.29376 80.94063 285.1844Q81.59688 286.0594 81.6125 287.90314L81.6125 289.3094ZM80.51875 287.825Q80.51875 286.45 80.12813 285.825Q79.75313 285.1844 78.90938 285.1844Q78.08125 285.1844 77.69063 285.825Q77.31563 286.45 77.31563 287.7469L77.31563 289.48126Q77.31563 290.85626 77.70625 291.52814Q78.1125 292.1844 78.925 292.1844Q79.72188 292.1844 80.1125 291.5594Q80.50313 290.9344 80.51875 289.60626L80.51875 287.825Z" fill-rule="nonzero"/><path fill="#757575" d="M65.81563 236.44167L64.7375 236.44167L64.7375 229.22292L62.55 230.01979L62.55 229.03542L65.65938 227.86354L65.81563 227.86354L65.81563 236.44167ZM74.6125 232.80104Q74.6125 234.70729 73.95625 235.64479Q73.31563 236.56667 71.925 236.56667Q70.56563 236.56667 69.90938 235.66042Q69.25313 234.75417 69.22188 232.94167L69.22188 231.50417Q69.22188 229.61354 69.8625 228.70729Q70.51875 227.78542 71.90938 227.78542Q73.28438 227.78542 73.94063 228.67604Q74.59688 229.55104 74.6125 231.39479L74.6125 232.80104ZM73.51875 231.31667Q73.51875 229.94167 73.12813 229.31667Q72.75313 228.67604 71.90938 228.67604Q71.08125 228.67604 70.69063 229.31667Q70.31563 229.94167 70.31563 231.23854L70.31563 232.97292Q70.31563 234.34792 70.70625 235.01979Q71.1125 235.67604 71.925 235.67604Q72.72188 235.67604 73.1125 235.05104Q73.50313 234.42604 73.51875 233.09792L73.51875 231.31667ZM81.6125 232.80104Q81.6125 234.70729 80.95625 235.64479Q80.31563 236.56667 78.925 236.56667Q77.56563 236.56667 76.90938 235.66042Q76.25313 234.75417 76.22188 232.94167L76.22188 231.50417Q76.22188 229.61354 76.8625 228.70729Q77.51875 227.78542 78.90938 227.78542Q80.28438 227.78542 80.94063 228.67604Q81.59688 229.55104 81.6125 231.39479L81.6125 232.80104ZM80.51875 231.31667Q80.51875 229.94167 80.12813 229.31667Q79.75313 228.67604 78.90938 228.67604Q78.08125 228.67604 77.69063 229.31667Q77.31563 229.94167 77.31563 231.23854L77.31563 232.97292Q77.31563 234.34792 77.70625 235.01979Q78.1125 235.67604 78.925 235.67604Q79.72188 235.67604 80.1125 235.05104Q80.50313 234.42604 80.51875 233.09792L80.51875 231.31667Z" fill-rule="nonzero"/><path fill="#757575" d="M67.84688 179.93333L62.253124 179.93333L62.253124 179.15208L65.20625 175.87083Q65.8625 175.12083 66.1125 174.66771Q66.3625 174.19896 66.3625 173.69896Q66.3625 173.02708 65.95625 172.60521Q65.56563 172.16771 64.87813 172.16771Q64.08125 172.16771 63.628124 172.63646Q63.175 173.08958 63.175 173.91771L62.096874 173.91771Q62.096874 172.73021 62.846874 172.01146Q63.6125 171.27708 64.87813 171.27708Q66.08125 171.27708 66.76875 171.90208Q67.45625 172.52708 67.45625 173.57396Q67.45625 174.82396 65.84688 176.57396L63.565624 179.04271L67.84688 179.04271L67.84688 179.93333ZM74.6125 176.29271Q74.6125 178.19896 73.95625 179.13646Q73.31563 180.05833 71.925 180.05833Q70.56563 180.05833 69.90938 179.15208Q69.25313 178.24583 69.22188 176.43333L69.22188 174.99583Q69.22188 173.10521 69.8625 172.19896Q70.51875 171.27708 71.90938 171.27708Q73.28438 171.27708 73.94063 172.16771Q74.59688 173.04271 74.6125 174.88646L74.6125 176.29271ZM73.51875 174.80833Q73.51875 173.43333 73.12813 172.80833Q72.75313 172.16771 71.90938 172.16771Q71.08125 172.16771 70.69063 172.80833Q70.31563 173.43333 70.31563 174.73021L70.31563 176.46458Q70.31563 177.83958 70.70625 178.51146Q71.1125 179.16771 71.925 179.16771Q72.72188 179.16771 73.1125 178.54271Q73.50313 177.91771 73.51875 176.58958L73.51875 174.80833ZM81.6125 176.29271Q81.6125 178.19896 80.95625 179.13646Q80.31563 180.05833 78.925 180.05833Q77.56563 180.05833 76.90938 179.15208Q76.25313 178.24583 76.22188 176.43333L76.22188 174.99583Q76.22188 173.10521 76.8625 172.19896Q77.51875 171.27708 78.90938 171.27708Q80.28438 171.27708 80.94063 172.16771Q81.59688 173.04271 81.6125 174.88646L81.6125 176.29271ZM80.51875 174.80833Q80.51875 173.43333 80.12813 172.80833Q79.75313 172.16771 78.90938 172.16771Q78.08125 172.16771 77.69063 172.80833Q77.31563 173.43333 77.31563 174.73021L77.31563 176.46458Q77.31563 177.83958 77.70625 178.51146Q78.1125 179.16771 78.925 179.16771Q79.72188 179.16771 80.1125 178.54271Q80.50313 177.91771 80.51875 176.58958L80.51875 174.80833Z" fill-rule="nonzero"/><path fill="#757575" d="M63.83125 118.62813L64.64375 118.62813Q65.425 118.6125 65.8625 118.22188Q66.3 117.83125 66.3 117.15938Q66.3 115.65938 64.8 115.65938Q64.09688 115.65938 63.675 116.06563Q63.26875 116.47188 63.26875 117.12813L62.175 117.12813Q62.175 116.1125 62.909374 115.44063Q63.659374 114.76875 64.8 114.76875Q66.00313 114.76875 66.69063 115.40938Q67.37813 116.05 67.37813 117.19063Q67.37813 117.75313 67.01875 118.26875Q66.65938 118.78438 66.03438 119.05Q66.7375 119.26875 67.1125 119.78438Q67.50313 120.3 67.50313 121.05Q67.50313 122.19063 66.75313 122.87813Q66.00313 123.55 64.8 123.55Q63.6125 123.55 62.846874 122.89375Q62.096874 122.2375 62.096874 121.175L63.190624 121.175Q63.190624 121.84688 63.628124 122.25313Q64.06563 122.65938 64.81563 122.65938Q65.59688 122.65938 66.00313 122.25313Q66.425 121.83125 66.425 121.06563Q66.425 120.33125 65.97188 119.94063Q65.51875 119.53438 64.64375 119.51875L63.83125 119.51875L63.83125 118.62813ZM74.6125 119.78438Q74.6125 121.69063 73.95625 122.62813Q73.31563 123.55 71.925 123.55Q70.56563 123.55 69.90938 122.64375Q69.25313 121.7375 69.22188 119.925L69.22188 118.4875Q69.22188 116.59688 69.8625 115.69063Q70.51875 114.76875 71.90938 114.76875Q73.28438 114.76875 73.94063 115.65938Q74.59688 116.53438 74.6125 118.37813L74.6125 119.78438ZM73.51875 118.3Q73.51875 116.925 73.12813 116.3Q72.75313 115.65938 71.90938 115.65938Q71.08125 115.65938 70.69063 116.3Q70.31563 116.925 70.31563 118.22188L70.31563 119.95625Q70.31563 121.33125 70.70625 122.00313Q71.1125 122.65938 71.925 122.65938Q72.72188 122.65938 73.1125 122.03438Q73.50313 121.40938 73.51875 120.08125L73.51875 118.3ZM81.6125 119.78438Q81.6125 121.69063 80.95625 122.62813Q80.31563 123.55 78.925 123.55Q77.56563 123.55 76.90938 122.64375Q76.25313 121.7375 76.22188 119.925L76.22188 118.4875Q76.22188 116.59688 76.8625 115.69063Q77.51875 114.76875 78.90938 114.76875Q80.28438 114.76875 80.94063 115.65938Q81.59688 116.53438 81.6125 118.37813L81.6125 119.78438ZM80.51875 118.3Q80.51875 116.925 80.12813 116.3Q79.75313 115.65938 78.90938 115.65938Q78.08125 115.65938 77.69063 116.3Q77.31563 116.925 77.31563 118.22188L77.31563 119.95625Q77.31563 121.33125 77.70625 122.00313Q78.1125 122.65938 78.925 122.65938Q79.72188 122.65938 80.1125 122.03438Q80.50313 121.40938 80.51875 120.08125L80.51875 118.3Z" fill-rule="nonzero"/><path fill="#757575" d="M66.83125 64.05729L68.01875 64.05729L68.01875 64.93229L66.83125 64.93229L66.83125 66.916664L65.75313 66.916664L65.75313 64.93229L61.8625 64.93229L61.8625 64.291664L65.675 58.385414L66.83125 58.385414L66.83125 64.05729ZM63.096874 64.05729L65.75313 64.05729L65.75313 59.86979L65.6125 60.104164L63.096874 64.05729ZM74.6125 63.27604Q74.6125 65.18229 73.95625 66.11979Q73.31563 67.041664 71.925 67.041664Q70.56563 67.041664 69.90938 66.135414Q69.25313 65.229164 69.22188 63.416664L69.22188 61.979164Q69.22188 60.08854 69.8625 59.18229Q70.51875 58.260414 71.90938 58.260414Q73.28438 58.260414 73.94063 59.15104Q74.59688 60.02604 74.6125 61.86979L74.6125 63.27604ZM73.51875 61.791664Q73.51875 60.416664 73.12813 59.791664Q72.75313 59.15104 71.90938 59.15104Q71.08125 59.15104 70.69063 59.791664Q70.31563 60.416664 70.31563 61.71354L70.31563 63.447914Q70.31563 64.822914 70.70625 65.49479Q71.1125 66.15104 71.925 66.15104Q72.72188 66.15104 73.1125 65.52604Q73.50313 64.90104 73.51875 63.572914L73.51875 61.791664ZM81.6125 63.27604Q81.6125 65.18229 80.95625 66.11979Q80.31563 67.041664 78.925 67.041664Q77.56563 67.041664 76.90938 66.135414Q76.25313 65.229164 76.22188 63.416664L76.22188 61.979164Q76.22188 60.08854 76.8625 59.18229Q77.51875 58.260414 78.90938 58.260414Q80.28438 58.260414 80.94063 59.15104Q81.59688 60.02604 81.6125 61.86979L81.6125 63.27604ZM80.51875 61.791664Q80.51875 60.416664 80.12813 59.791664Q79.75313 59.15104 78.90938 59.15104Q78.08125 59.15104 77.69063 59.791664Q77.31563 60.416664 77.31563 61.71354L77.31563 63.447914Q77.31563 64.822914 77.70625 65.49479Q78.1125 66.15104 78.925 66.15104Q79.72188 66.15104 80.1125 65.52604Q80.50313 64.90104 80.51875 63.572914L80.51875 61.791664Z" fill-rule="nonzero"/><path fill="#757575" d="M137.90898 306.45L132.31523 306.45L132.31523 305.66876L135.26836 302.3875Q135.9246 301.6375 136.1746 301.1844Q136.4246 300.71564 136.4246 300.21564Q136.4246 299.54376 136.01836 299.1219Q135.62773 298.6844 134.94023 298.6844Q134.14336 298.6844 133.69023 299.15314Q133.2371 299.60626 133.2371 300.4344L132.15898 300.4344Q132.15898 299.2469 132.90898 298.52814Q133.6746 297.79376 134.94023 297.79376Q136.14336 297.79376 136.83086 298.41876Q137.51836 299.04376 137.51836 300.09064Q137.51836 301.34064 135.90898 303.09064L133.62773 305.5594L137.90898 305.5594L137.90898 306.45Z" fill-rule="nonzero"/><path fill="#757575" d="M203.52266 303.59064L204.71016 303.59064L204.71016 304.46564L203.52266 304.46564L203.52266 306.45L202.44453 306.45L202.44453 304.46564L198.55391 304.46564L198.55391 303.825L202.36641 297.91876L203.52266 297.91876L203.52266 303.59064ZM199.78828 303.59064L202.44453 303.59064L202.44453 299.40314L202.30391 299.6375L199.78828 303.59064Z" fill-rule="nonzero"/><path fill="#757575" d="M269.83945 297.91876L269.83945 298.825L269.63632 298.825Q268.3707 298.85626 267.6207 299.59064Q266.8707 300.3094 266.7457 301.6219Q267.4332 300.85626 268.58945 300.85626Q269.69882 300.85626 270.3707 301.6375Q271.04257 302.41876 271.04257 303.66876Q271.04257 304.98126 270.32382 305.77814Q269.60507 306.575 268.38632 306.575Q267.16757 306.575 266.40195 305.6375Q265.65195 304.6844 265.65195 303.2L265.65195 302.79376Q265.65195 300.4344 266.65195 299.1844Q267.65195 297.9344 269.63632 297.91876L269.83945 297.91876ZM268.41757 301.7625Q267.85507 301.7625 267.38632 302.09064Q266.91757 302.41876 266.73007 302.9344L266.73007 303.325Q266.73007 304.3875 267.19882 305.02814Q267.6832 305.66876 268.38632 305.66876Q269.1207 305.66876 269.54257 305.1375Q269.96445 304.59064 269.96445 303.71564Q269.96445 302.84064 269.54257 302.3094Q269.1207 301.7625 268.41757 301.7625Z" fill-rule="nonzero"/><path fill="#757575" d="M337.39062 300.1375Q337.39062 300.77814 337.04688 301.27814Q336.70312 301.77814 336.14062 302.0594Q336.79688 302.34064 337.1875 302.90314Q337.57812 303.45 337.57812 304.15314Q337.57812 305.2469 336.82812 305.91876Q336.09375 306.575 334.875 306.575Q333.64062 306.575 332.89062 305.91876Q332.15625 305.2469 332.15625 304.15314Q332.15625 303.45 332.53125 302.90314Q332.90625 302.34064 333.57812 302.0594Q333.01562 301.77814 332.6875 301.27814Q332.35938 300.77814 332.35938 300.1375Q332.35938 299.0594 333.04688 298.4344Q333.73438 297.79376 334.875 297.79376Q336.0 297.79376 336.6875 298.4344Q337.39062 299.0594 337.39062 300.1375ZM336.5 304.1219Q336.5 303.40314 336.04688 302.96564Q335.59375 302.5125 334.85938 302.5125Q334.125 302.5125 333.67188 302.96564Q333.23438 303.40314 333.23438 304.1375Q333.23438 304.85626 333.67188 305.27814Q334.10938 305.6844 334.875 305.6844Q335.625 305.6844 336.0625 305.2625Q336.5 304.84064 336.5 304.1219ZM334.875 298.6844Q334.23438 298.6844 333.82812 299.09064Q333.4375 299.48126 333.4375 300.16876Q333.4375 300.8094 333.82812 301.21564Q334.21875 301.6219 334.85938 301.6219Q335.51562 301.6219 335.90625 301.21564Q336.29688 300.8094 336.29688 300.16876Q336.29688 299.5125 335.89062 299.10626Q335.48438 298.6844 334.875 298.6844Z" fill-rule="nonzero"/><path fill="#757575" d="M398.89493 306.45L397.8168 306.45L397.8168 299.23126L395.6293 300.02814L395.6293 299.04376L398.73868 297.8719L398.89493 297.8719L398.89493 306.45ZM407.6918 302.8094Q407.6918 304.71564 407.03555 305.65314Q406.39493 306.575 405.0043 306.575Q403.64493 306.575 402.98868 305.66876Q402.33243 304.7625 402.30118 302.95L402.30118 301.5125Q402.30118 299.6219 402.9418 298.71564Q403.59805 297.79376 404.98868 297.79376Q406.36368 297.79376 407.01993 298.6844Q407.67618 299.5594 407.6918 301.40314L407.6918 302.8094ZM406.59805 301.325Q406.59805 299.95 406.20743 299.325Q405.83243 298.6844 404.98868 298.6844Q404.16055 298.6844 403.76993 299.325Q403.39493 299.95 403.39493 301.2469L403.39493 302.98126Q403.39493 304.35626 403.78555 305.02814Q404.1918 305.6844 405.0043 305.6844Q405.80118 305.6844 406.1918 305.0594Q406.58243 304.4344 406.59805 303.10626L406.59805 301.325Z" fill-rule="nonzero"/><path fill="#757575" d="M465.52423 306.45L464.4461 306.45L464.4461 299.23126L462.2586 300.02814L462.2586 299.04376L465.36798 297.8719L465.52423 297.8719L465.52423 306.45ZM474.55548 306.45L468.96173 306.45L468.96173 305.66876L471.91486 302.3875Q472.5711 301.6375 472.8211 301.1844Q473.0711 300.71564 473.0711 300.21564Q473.0711 299.54376 472.66486 299.1219Q472.27423 298.6844 471.58673 298.6844Q470.78986 298.6844 470.33673 299.15314Q469.8836 299.60626 469.8836 300.4344L468.80548 300.4344Q468.80548 299.2469 469.55548 298.52814Q470.3211 297.79376 471.58673 297.79376Q472.78986 297.79376 473.47736 298.41876Q474.16486 299.04376 474.16486 300.09064Q474.16486 301.34064 472.55548 303.09064L470.27423 305.5594L474.55548 305.5594L474.55548 306.45Z" fill-rule="nonzero"/><path fill="#757575" d="M532.1535 306.45L531.0754 306.45L531.0754 299.23126L528.8879 300.02814L528.8879 299.04376L531.99725 297.8719L532.1535 297.8719L532.1535 306.45ZM540.1691 303.59064L541.3566 303.59064L541.3566 304.46564L540.1691 304.46564L540.1691 306.45L539.091 306.45L539.091 304.46564L535.2004 304.46564L535.2004 303.825L539.0129 297.91876L540.1691 297.91876L540.1691 303.59064ZM536.43475 303.59064L539.091 303.59064L539.091 299.40314L538.9504 299.6375L536.43475 303.59064Z" fill-rule="nonzero"/><path fill="#757575" d="M20.20625 37.55L20.20625 23.33125L24.846874 23.33125Q27.159374 23.33125 28.33125 24.284374Q29.503124 25.2375 29.503124 27.1125Q29.503124 28.1125 28.925 28.878124Q28.3625 29.64375 27.39375 30.065624Q28.534374 30.39375 29.20625 31.3Q29.878124 32.190624 29.878124 33.440624Q29.878124 35.3625 28.628124 36.45625Q27.39375 37.55 25.128124 37.55L20.20625 37.55ZM22.08125 30.89375L22.08125 36.01875L25.175 36.01875Q26.4875 36.01875 27.2375 35.346874Q27.9875 34.659374 27.9875 33.471874Q27.9875 30.89375 25.20625 30.89375L22.08125 30.89375ZM22.08125 29.39375L24.909374 29.39375Q26.14375 29.39375 26.878124 28.784374Q27.6125 28.159374 27.6125 27.1125Q27.6125 25.940624 26.925 25.409374Q26.253124 24.878124 24.846874 24.878124L22.08125 24.878124L22.08125 29.39375ZM38.440624 36.503124Q37.39375 37.753124 35.346874 37.753124Q33.659374 37.753124 32.76875 36.76875Q31.89375 35.784374 31.878124 33.8625L31.878124 26.9875L33.690624 26.9875L33.690624 33.815624Q33.690624 36.20625 35.64375 36.20625Q37.70625 36.20625 38.39375 34.675L38.39375 26.9875L40.20625 26.9875L40.20625 37.55L38.4875 37.55L38.440624 36.503124ZM48.01875 28.596874Q47.6125 28.534374 47.14375 28.534374Q45.3625 28.534374 44.721874 30.05L44.721874 37.55L42.925 37.55L42.925 26.9875L44.675 26.9875L44.70625 28.20625Q45.596874 26.784374 47.221874 26.784374Q47.753124 26.784374 48.01875 26.925L48.01875 28.596874ZM51.628124 26.9875L51.690624 28.315624Q52.89375 26.784374 54.846874 26.784374Q58.20625 26.784374 58.221874 30.565624L58.221874 37.55L56.425 37.55L56.425 30.55Q56.409374 29.409374 55.89375 28.8625Q55.39375 28.315624 54.3 28.315624Q53.425 28.315624 52.753124 28.784374Q52.096874 29.253124 51.721874 30.01875L51.721874 37.55L49.925 37.55L49.925 26.9875L51.628124 26.9875ZM60.471874 32.175Q60.471874 29.753124 61.628124 28.26875Q62.784374 26.784374 64.64375 26.784374Q66.50313 26.784374 67.58125 28.05L67.58125 22.55L69.39375 22.55L69.39375 37.55L67.7375 37.55L67.64375 36.409374Q66.56563 37.753124 64.62813 37.753124Q62.8 37.753124 61.628124 36.253124Q60.471874 34.7375 60.471874 32.315624L60.471874 32.175ZM62.284374 32.378124Q62.284374 34.175 63.01875 35.190624Q63.76875 36.20625 65.08125 36.20625Q66.8 36.20625 67.58125 34.675L67.58125 29.815624Q66.78438 28.315624 65.09688 28.315624Q63.76875 28.315624 63.01875 29.346874Q62.284374 30.378124 62.284374 32.378124ZM71.44063 32.175Q71.44063 30.6125 72.05 29.378124Q72.65938 28.128124 73.7375 27.45625Q74.83125 26.784374 76.2375 26.784374Q78.39375 26.784374 79.72188 28.284374Q81.06563 29.76875 81.06563 32.253124L81.06563 32.378124Q81.06563 33.925 80.47188 35.159374Q79.87813 36.378124 78.76875 37.065624Q77.675 37.753124 76.25313 37.753124Q74.1125 37.753124 72.76875 36.253124Q71.44063 34.753124 71.44063 32.3L71.44063 32.175ZM73.25313 32.378124Q73.25313 34.14375 74.06563 35.20625Q74.89375 36.26875 76.25313 36.26875Q77.62813 36.26875 78.44063 35.190624Q79.25313 34.1125 79.25313 32.175Q79.25313 30.425 78.425 29.346874Q77.59688 28.26875 76.2375 28.26875Q74.89375 28.26875 74.06563 29.33125Q73.25313 30.39375 73.25313 32.378124ZM92.26875 35.065624L94.3 26.9875L96.1125 26.9875L93.03438 37.55L91.56563 37.55L89.00313 29.534374L86.50313 37.55L85.03438 37.55L81.97188 26.9875L83.76875 26.9875L85.84688 34.89375L88.31563 26.9875L89.76875 26.9875L92.26875 35.065624ZM99.62813 26.9875L99.69063 28.315624Q100.89375 26.784374 102.84688 26.784374Q106.20625 26.784374 106.22188 30.565624L106.22188 37.55L104.425 37.55L104.425 30.55Q104.40938 29.409374 103.89375 28.8625Q103.39375 28.315624 102.3 28.315624Q101.425 28.315624 100.75313 28.784374Q100.09688 29.253124 99.72188 30.01875L99.72188 37.55L97.925 37.55L97.925 26.9875L99.62813 26.9875ZM124.65938 33.034374Q124.39375 35.3 122.9875 36.534374Q121.59688 37.753124 119.26875 37.753124Q116.75313 37.753124 115.22188 35.940624Q113.70625 34.128124 113.70625 31.096874L113.70625 29.7375Q113.70625 27.753124 114.40938 26.253124Q115.12813 24.753124 116.425 23.940624Q117.72188 23.128124 119.44063 23.128124Q121.70625 23.128124 123.06563 24.39375Q124.44063 25.659374 124.65938 27.89375L122.76875 27.89375Q122.53438 26.20625 121.70625 25.440624Q120.89375 24.675 119.44063 24.675Q117.64375 24.675 116.6125 26.003124Q115.59688 27.33125 115.59688 29.784374L115.59688 31.159374Q115.59688 33.471874 116.56563 34.846874Q117.53438 36.20625 119.26875 36.20625Q120.83125 36.20625 121.65938 35.503124Q122.50313 34.8 122.76875 33.034374L124.65938 33.034374ZM128.72188 28.26875Q129.925 26.784374 131.84688 26.784374Q135.20625 26.784374 135.22188 30.565624L135.22188 37.55L133.425 37.55L133.425 30.55Q133.40938 29.409374 132.89375 28.8625Q132.39375 28.315624 131.3 28.315624Q130.425 28.315624 129.75313 28.784374Q129.09688 29.253124 128.72188 30.01875L128.72188 37.55L126.925 37.55L126.925 22.55L128.72188 22.55L128.72188 28.26875ZM144.44063 37.55Q144.28438 37.2375 144.19063 36.440624Q142.925 37.753124 141.175 37.753124Q139.6125 37.753124 138.6125 36.8625Q137.6125 35.971874 137.6125 34.6125Q137.6125 32.971874 138.8625 32.065624Q140.12813 31.14375 142.39375 31.14375L144.15938 31.14375L144.15938 30.315624Q144.15938 29.3625 143.58125 28.8Q143.01875 28.2375 141.925 28.2375Q140.95625 28.2375 140.3 28.7375Q139.64375 29.221874 139.64375 29.909374L137.83125 29.909374Q137.83125 29.128124 138.39375 28.39375Q138.95625 27.64375 139.90938 27.221874Q140.87813 26.784374 142.03438 26.784374Q143.8625 26.784374 144.89375 27.70625Q145.925 28.6125 145.97188 30.221874L145.97188 35.08125Q145.97188 36.534374 146.33125 37.39375L146.33125 37.55L144.44063 37.55ZM141.44063 36.175Q142.3 36.175 143.05 35.7375Q143.81563 35.3 144.15938 34.596874L144.15938 32.425L142.7375 32.425Q139.425 32.425 139.425 34.3625Q139.425 35.221874 139.9875 35.70625Q140.55 36.175 141.44063 36.175ZM154.01875 28.596874Q153.6125 28.534374 153.14375 28.534374Q151.3625 28.534374 150.72188 30.05L150.72188 37.55L148.925 37.55L148.925 26.9875L150.675 26.9875L150.70625 28.20625Q151.59688 26.784374 153.22188 26.784374Q153.75313 26.784374 154.01875 26.925L154.01875 28.596874ZM158.3625 24.425L158.3625 26.9875L160.34688 26.9875L160.34688 28.378124L158.3625 28.378124L158.3625 34.925Q158.3625 35.565624 158.62813 35.89375Q158.89375 36.20625 159.53438 36.20625Q159.84688 36.20625 160.39375 36.08125L160.39375 37.55Q159.675 37.753124 159.00313 37.753124Q157.8 37.753124 157.175 37.01875Q156.56563 36.284374 156.56563 34.925L156.56563 28.378124L154.64375 28.378124L154.64375 26.9875L156.56563 26.9875L156.56563 24.425L158.3625 24.425Z" fill-rule="nonzero"/></svg>