<svg version="1.1" viewBox="0.0 0.0 600.0 371.0" fill="none" stroke="none" stroke-linecap="square" stroke-miterlimit="10" width="600" height="371" xmlns:xlink="http://www.w3.org/1999/xlink" xmlns="http://www.w3.org/2000/svg"><path fill="#ffffff" d="M0 0L600.0 0L600.0 371.0L0 371.0L0 0Z" fill-rule="nonzero"/><path stroke="#cccccc" stroke-width="1.0" stroke-linecap="butt" d="M135.5 26.5L135.5 288.5" fill-rule="nonzero"/><path stroke="#cccccc" stroke-width="1.0" stroke-linecap="butt" d="M201.5 26.5L201.5 288.5" fill-rule="nonzero"/><path stroke="#cccccc" stroke-width="1.0" stroke-linecap="butt" d="M268.5 26.5L268.5 288.5" fill-rule="nonzero"/><path stroke="#cccccc" stroke-width="1.0" stroke-linecap="butt" d="M335.5 26.5L335.5 288.5" fill-rule="nonzero"/><path stroke="#cccccc" stroke-width="1.0" stroke-linecap="butt" d="M401.5 26.5L401.5 288.5" fill-rule="nonzero"/><path stroke="#cccccc" stroke-width="1.0" stroke-linecap="butt" d="M468.5 26.5L468.5 288.5" fill-rule="nonzero"/><path stroke="#cccccc" stroke-width="1.0" stroke-linecap="butt" d="M534.5 26.5L534.5 288.5" fill-rule="nonzero"/><path stroke="#333333" stroke-width="1.0" stroke-linecap="butt" d="M88.5 288.5L581.5 288.5" fill-rule="nonzero"/><path stroke="#cccccc" stroke-width="1.0" stroke-linecap="butt" d="M88.5 222.5L581.5 222.5" fill-rule="nonzero"/><path stroke="#cccccc" stroke-width="1.0" stroke-linecap="butt" d="M88.5 157.5L581.5 157.5" fill-rule="nonzero"/><path stroke="#cccccc" stroke-width="1.0" stroke-linecap="butt" d="M88.5 91.5L581.5 91.5" fill-rule="nonzero"/><path stroke="#cccccc" stroke-width="1.0" stroke-linecap="butt" d="M88.5 26.5L581.5 26.5" fill-rule="nonzero"/><path stroke="#eeeeee" stroke-width="1.0" stroke-linecap="butt" d="M235.05605 75.65L235.05605 91.65" fill-rule="nonzero"/><path stroke="#eeeeee" stroke-width="1.0" stroke-linecap="butt" d="M268.3707 88.77L268.3707 104.77" fill-rule="nonzero"/><path stroke="#eeeeee" stroke-width="1.0" stroke-linecap="butt" d="M301.68536 88.77L301.68536 104.77" fill-rule="nonzero"/><path stroke="#eeeeee" stroke-width="1.0" stroke-linecap="butt" d="M335.0 101.89L335.0 117.89" fill-rule="nonzero"/><path stroke="#eeeeee" stroke-width="1.0" stroke-linecap="butt" d="M368.31464 141.25L368.31464 157.25" fill-rule="nonzero"/><path stroke="#eeeeee" stroke-width="1.0" stroke-linecap="butt" d="M401.6293 160.93L401.6293 176.93" fill-rule="nonzero"/><path stroke="#eeeeee" stroke-width="1.0" stroke-linecap="butt" d="M434.94394 180.61L434.94394 196.61" fill-rule="nonzero"/><path stroke="#eeeeee" stroke-width="1.0" stroke-linecap="butt" d="M468.2586 193.73L468.2586 209.73" fill-rule="nonzero"/><path stroke="#eeeeee" stroke-width="1.0" stroke-linecap="butt" d="M501.57324 226.53L501.57324 242.53" fill-rule="nonzero"/><path stroke="#eeeeee" stroke-width="1.0" stroke-linecap="butt" d="M534.8879 249.49L534.8879 265.49" fill-rule="nonzero"/><path stroke="#eeeeee" stroke-width="1.0" stroke-linecap="butt" d="M568.2025 272.45L568.2025 288.45" fill-rule="nonzero"/><clipPath id="id_0"><path d="M88.55 26.05L581.45 26.05L581.45 288.45L88.55 288.45L88.55 26.05Z" clip-rule="nonzero"/></clipPath><path stroke="#4285f4" stroke-width="4.0" stroke-linecap="butt" clip-path="url(#id_0)" d="M101.797455 26.05L135.1121 32.61L168.42676 52.29L201.74141 52.29L235.05605 91.65L268.3707 104.77L301.68536 104.77L335.0 117.89L368.31464 157.25L401.6293 176.93L434.94394 196.61L468.2586 209.73L501.57324 242.53L534.8879 265.49L568.2025 288.45" fill-rule="nonzero"/><path fill="#4285f4" clip-path="url(#id_0)" d="M101.797455 18.05L109.797455 26.05L101.797455 34.05L93.797455 26.05Z" fill-rule="nonzero"/><path fill="#4285f4" clip-path="url(#id_0)" d="M135.1121 24.61L143.1121 32.61L135.1121 40.61L127.11211 32.61Z" fill-rule="nonzero"/><path fill="#4285f4" clip-path="url(#id_0)" d="M168.42676 44.29L176.42676 52.29L168.42676 60.29L160.42676 52.29Z" fill-rule="nonzero"/><path fill="#4285f4" clip-path="url(#id_0)" d="M201.74141 44.29L209.74141 52.29L201.74141 60.29L193.74141 52.29Z" fill-rule="nonzero"/><path fill="#4285f4" clip-path="url(#id_0)" d="M235.05605 83.65L243.05605 91.65L235.05605 99.65L227.05605 91.65Z" fill-rule="nonzero"/><path fill="#4285f4" clip-path="url(#id_0)" d="M268.3707 96.77L276.3707 104.77L268.3707 112.77L260.3707 104.77Z" fill-rule="nonzero"/><path fill="#4285f4" clip-path="url(#id_0)" d="M301.68536 96.77L309.68536 104.77L301.68536 112.77L293.68536 104.77Z" fill-rule="nonzero"/><path fill="#4285f4" clip-path="url(#id_0)" d="M335.0 109.89L343.0 117.89L335.0 125.89L327.0 117.89Z" fill-rule="nonzero"/><path fill="#4285f4" clip-path="url(#id_0)" d="M368.31464 149.25L376.31464 157.25L368.31464 165.25L360.31464 157.25Z" fill-rule="nonzero"/><path fill="#4285f4" clip-path="url(#id_0)" d="M401.6293 168.93L409.6293 176.93L401.6293 184.93L393.6293 176.93Z" fill-rule="nonzero"/><path fill="#4285f4" clip-path="url(#id_0)" d="M434.94394 188.61L442.94394 196.61L434.94394 204.61L426.94394 196.61Z" fill-rule="nonzero"/><path fill="#4285f4" clip-path="url(#id_0)" d="M468.2586 201.73L476.2586 209.73L468.2586 217.73L460.2586 209.73Z" fill-rule="nonzero"/><path fill="#4285f4" clip-path="url(#id_0)" d="M501.57324 234.53L509.57324 242.53L501.57324 250.53L493.57324 242.53Z" fill-rule="nonzero"/><path fill="#4285f4" clip-path="url(#id_0)" d="M534.8879 257.49L542.8879 265.49L534.8879 273.49L526.8879 265.49Z" fill-rule="nonzero"/><path fill="#4285f4" clip-path="url(#id_0)" d="M568.2025 280.45L576.2025 288.45L568.2025 296.45L560.2025 288.45Z" fill-rule="nonzero"/><path stroke="#ffffff" stroke-width="3.0" stroke-linejoin="round" stroke-linecap="round" d="M226.8373 68.85313L227.6498 68.85313Q228.43105 68.8375 228.86855 68.44688Q229.30605 68.05625 229.30605 67.38438Q229.30605 65.88438 227.80605 65.88438Q227.10292 65.88438 226.68105 66.29063Q226.2748 66.69688 226.2748 67.35313L225.18105 67.35313Q225.18105 66.3375 225.91542 65.66563Q226.66542 64.99375 227.80605 64.99375Q229.00917 64.99375 229.69667 65.63438Q230.38417 66.275 230.38417 67.41563Q230.38417 67.97813 230.0248 68.49375Q229.66542 69.00938 229.04042 69.275Q229.74355 69.49375 230.11855 70.00938Q230.50917 70.525 230.50917 71.275Q230.50917 72.41563 229.75917 73.10313Q229.00917 73.775 227.80605 73.775Q226.61855 73.775 225.85292 73.11875Q225.10292 72.4625 225.10292 71.4L226.19667 71.4Q226.19667 72.07188 226.63417 72.47813Q227.07167 72.88438 227.82167 72.88438Q228.60292 72.88438 229.00917 72.47813Q229.43105 72.05625 229.43105 71.29063Q229.43105 70.55625 228.97792 70.16563Q228.5248 69.75938 227.6498 69.74375L226.8373 69.74375L226.8373 68.85313ZM237.61855 70.00938Q237.61855 71.91563 236.9623 72.85313Q236.32167 73.775 234.93105 73.775Q233.57167 73.775 232.91542 72.86875Q232.25917 71.9625 232.22792 70.15L232.22792 68.7125Q232.22792 66.82188 232.86855 65.91563Q233.5248 64.99375 234.91542 64.99375Q236.29042 64.99375 236.94667 65.88438Q237.60292 66.75938 237.61855 68.60313L237.61855 70.00938ZM236.5248 68.525Q236.5248 67.15 236.13417 66.525Q235.75917 65.88438 234.91542 65.88438Q234.0873 65.88438 233.69667 66.525Q233.32167 67.15 233.32167 68.44688L233.32167 70.18125Q233.32167 71.55625 233.7123 72.22813Q234.11855 72.88438 234.93105 72.88438Q235.72792 72.88438 236.11855 72.25938Q236.50917 71.63438 236.5248 70.30625L236.5248 68.525ZM244.61855 70.00938Q244.61855 71.91563 243.9623 72.85313Q243.32167 73.775 241.93105 73.775Q240.57167 73.775 239.91542 72.86875Q239.25917 71.9625 239.22792 70.15L239.22792 68.7125Q239.22792 66.82188 239.86855 65.91563Q240.5248 64.99375 241.91542 64.99375Q243.29042 64.99375 243.94667 65.88438Q244.60292 66.75938 244.61855 68.60313L244.61855 70.00938ZM243.5248 68.525Q243.5248 67.15 243.13417 66.525Q242.75917 65.88438 241.91542 65.88438Q241.0873 65.88438 240.69667 66.525Q240.32167 67.15 240.32167 68.44688L240.32167 70.18125Q240.32167 71.55625 240.7123 72.22813Q241.11855 72.88438 241.93105 72.88438Q242.72792 72.88438 243.11855 72.25938Q243.50917 71.63438 243.5248 70.30625L243.5248 68.525Z" fill-rule="nonzero"/><path fill="#4285f4" d="M226.8373 68.85313L227.6498 68.85313Q228.43105 68.8375 228.86855 68.44688Q229.30605 68.05625 229.30605 67.38438Q229.30605 65.88438 227.80605 65.88438Q227.10292 65.88438 226.68105 66.29063Q226.2748 66.69688 226.2748 67.35313L225.18105 67.35313Q225.18105 66.3375 225.91542 65.66563Q226.66542 64.99375 227.80605 64.99375Q229.00917 64.99375 229.69667 65.63438Q230.38417 66.275 230.38417 67.41563Q230.38417 67.97813 230.0248 68.49375Q229.66542 69.00938 229.04042 69.275Q229.74355 69.49375 230.11855 70.00938Q230.50917 70.525 230.50917 71.275Q230.50917 72.41563 229.75917 73.10313Q229.00917 73.775 227.80605 73.775Q226.61855 73.775 225.85292 73.11875Q225.10292 72.4625 225.10292 71.4L226.19667 71.4Q226.19667 72.07188 226.63417 72.47813Q227.07167 72.88438 227.82167 72.88438Q228.60292 72.88438 229.00917 72.47813Q229.43105 72.05625 229.43105 71.29063Q229.43105 70.55625 228.97792 70.16563Q228.5248 69.75938 227.6498 69.74375L226.8373 69.74375L226.8373 68.85313ZM237.61855 70.00938Q237.61855 71.91563 236.9623 72.85313Q236.32167 73.775 234.93105 73.775Q233.57167 73.775 232.91542 72.86875Q232.25917 71.9625 232.22792 70.15L232.22792 68.7125Q232.22792 66.82188 232.86855 65.91563Q233.5248 64.99375 234.91542 64.99375Q236.29042 64.99375 236.94667 65.88438Q237.60292 66.75938 237.61855 68.60313L237.61855 70.00938ZM236.5248 68.525Q236.5248 67.15 236.13417 66.525Q235.75917 65.88438 234.91542 65.88438Q234.0873 65.88438 233.69667 66.525Q233.32167 67.15 233.32167 68.44688L233.32167 70.18125Q233.32167 71.55625 233.7123 72.22813Q234.11855 72.88438 234.93105 72.88438Q235.72792 72.88438 236.11855 72.25938Q236.50917 71.63438 236.5248 70.30625L236.5248 68.525ZM244.61855 70.00938Q244.61855 71.91563 243.9623 72.85313Q243.32167 73.775 241.93105 73.775Q240.57167 73.775 239.91542 72.86875Q239.25917 71.9625 239.22792 70.15L239.22792 68.7125Q239.22792 66.82188 239.86855 65.91563Q240.5248 64.99375 241.91542 64.99375Q243.29042 64.99375 243.94667 65.88438Q244.60292 66.75938 244.61855 68.60313L244.61855 70.00938ZM243.5248 68.525Q243.5248 67.15 243.13417 66.525Q242.75917 65.88438 241.91542 65.88438Q241.0873 65.88438 240.69667 66.525Q240.32167 67.15 240.32167 68.44688L240.32167 70.18125Q240.32167 71.55625 240.7123 72.22813Q241.11855 72.88438 241.93105 72.88438Q242.72792 72.88438 243.11855 72.25938Q243.50917 71.63438 243.5248 70.30625L243.5248 68.525Z" fill-rule="nonzero"/><path stroke="#ffffff" stroke-width="3.0" stroke-linejoin="round" stroke-linecap="round" d="M264.16757 86.77L258.57382 86.77L258.57382 85.98875L261.52695 82.7075Q262.1832 81.9575 262.4332 81.50437Q262.6832 81.03562 262.6832 80.53562Q262.6832 79.86375 262.27695 79.44187Q261.88632 79.00437 261.19882 79.00437Q260.40195 79.00437 259.94882 79.47312Q259.4957 79.92625 259.4957 80.75437L258.41757 80.75437Q258.41757 79.56687 259.16757 78.84812Q259.9332 78.11375 261.19882 78.11375Q262.40195 78.11375 263.08945 78.73875Q263.77695 79.36375 263.77695 80.41062Q263.77695 81.66062 262.16757 83.41062L259.88632 85.87937L264.16757 85.87937L264.16757 86.77ZM270.76132 80.4575Q270.76132 81.09812 270.41757 81.59812Q270.07382 82.09812 269.51132 82.37937Q270.16757 82.66062 270.5582 83.22312Q270.94882 83.77 270.94882 84.47312Q270.94882 85.56687 270.19882 86.23875Q269.46445 86.895 268.2457 86.895Q267.01132 86.895 266.26132 86.23875Q265.52695 85.56687 265.52695 84.47312Q265.52695 83.77 265.90195 83.22312Q266.27695 82.66062 266.94882 82.37937Q266.38632 82.09812 266.0582 81.59812Q265.73007 81.09812 265.73007 80.4575Q265.73007 79.37937 266.41757 78.75437Q267.10507 78.11375 268.2457 78.11375Q269.3707 78.11375 270.0582 78.75437Q270.76132 79.37937 270.76132 80.4575ZM269.8707 84.44187Q269.8707 83.72312 269.41757 83.28562Q268.96445 82.8325 268.23007 82.8325Q267.4957 82.8325 267.04257 83.28562Q266.60507 83.72312 266.60507 84.4575Q266.60507 85.17625 267.04257 85.59812Q267.48007 86.00437 268.2457 86.00437Q268.9957 86.00437 269.4332 85.5825Q269.8707 85.16062 269.8707 84.44187ZM268.2457 79.00437Q267.60507 79.00437 267.19882 79.41062Q266.8082 79.80125 266.8082 80.48875Q266.8082 81.12937 267.19882 81.53562Q267.58945 81.94187 268.23007 81.94187Q268.88632 81.94187 269.27695 81.53562Q269.66757 81.12937 269.66757 80.48875Q269.66757 79.8325 269.26132 79.42625Q268.85507 79.00437 268.2457 79.00437ZM277.9332 83.12937Q277.9332 85.03562 277.27695 85.97312Q276.63632 86.895 275.2457 86.895Q273.88632 86.895 273.23007 85.98875Q272.57382 85.0825 272.54257 83.27L272.54257 81.8325Q272.54257 79.94187 273.1832 79.03562Q273.83945 78.11375 275.23007 78.11375Q276.60507 78.11375 277.26132 79.00437Q277.91757 79.87937 277.9332 81.72312L277.9332 83.12937ZM276.83945 81.645Q276.83945 80.27 276.44882 79.645Q276.07382 79.00437 275.23007 79.00437Q274.40195 79.00437 274.01132 79.645Q273.63632 80.27 273.63632 81.56687L273.63632 83.30125Q273.63632 84.67625 274.02695 85.34812Q274.4332 86.00437 275.2457 86.00437Q276.04257 86.00437 276.4332 85.37937Q276.82382 84.75437 276.83945 83.42625L276.83945 81.645Z" fill-rule="nonzero"/><path fill="#4285f4" d="M264.16757 86.77L258.57382 86.77L258.57382 85.98875L261.52695 82.7075Q262.1832 81.9575 262.4332 81.50437Q262.6832 81.03562 262.6832 80.53562Q262.6832 79.86375 262.27695 79.44187Q261.88632 79.00437 261.19882 79.00437Q260.40195 79.00437 259.94882 79.47312Q259.4957 79.92625 259.4957 80.75437L258.41757 80.75437Q258.41757 79.56687 259.16757 78.84812Q259.9332 78.11375 261.19882 78.11375Q262.40195 78.11375 263.08945 78.73875Q263.77695 79.36375 263.77695 80.41062Q263.77695 81.66062 262.16757 83.41062L259.88632 85.87937L264.16757 85.87937L264.16757 86.77ZM270.76132 80.4575Q270.76132 81.09812 270.41757 81.59812Q270.07382 82.09812 269.51132 82.37937Q270.16757 82.66062 270.5582 83.22312Q270.94882 83.77 270.94882 84.47312Q270.94882 85.56687 270.19882 86.23875Q269.46445 86.895 268.2457 86.895Q267.01132 86.895 266.26132 86.23875Q265.52695 85.56687 265.52695 84.47312Q265.52695 83.77 265.90195 83.22312Q266.27695 82.66062 266.94882 82.37937Q266.38632 82.09812 266.0582 81.59812Q265.73007 81.09812 265.73007 80.4575Q265.73007 79.37937 266.41757 78.75437Q267.10507 78.11375 268.2457 78.11375Q269.3707 78.11375 270.0582 78.75437Q270.76132 79.37937 270.76132 80.4575ZM269.8707 84.44187Q269.8707 83.72312 269.41757 83.28562Q268.96445 82.8325 268.23007 82.8325Q267.4957 82.8325 267.04257 83.28562Q266.60507 83.72312 266.60507 84.4575Q266.60507 85.17625 267.04257 85.59812Q267.48007 86.00437 268.2457 86.00437Q268.9957 86.00437 269.4332 85.5825Q269.8707 85.16062 269.8707 84.44187ZM268.2457 79.00437Q267.60507 79.00437 267.19882 79.41062Q266.8082 79.80125 266.8082 80.48875Q266.8082 81.12937 267.19882 81.53562Q267.58945 81.94187 268.23007 81.94187Q268.88632 81.94187 269.27695 81.53562Q269.66757 81.12937 269.66757 80.48875Q269.66757 79.8325 269.26132 79.42625Q268.85507 79.00437 268.2457 79.00437ZM277.9332 83.12937Q277.9332 85.03562 277.27695 85.97312Q276.63632 86.895 275.2457 86.895Q273.88632 86.895 273.23007 85.98875Q272.57382 85.0825 272.54257 83.27L272.54257 81.8325Q272.54257 79.94187 273.1832 79.03562Q273.83945 78.11375 275.23007 78.11375Q276.60507 78.11375 277.26132 79.00437Q277.91757 79.87937 277.9332 81.72312L277.9332 83.12937ZM276.83945 81.645Q276.83945 80.27 276.44882 79.645Q276.07382 79.00437 275.23007 79.00437Q274.40195 79.00437 274.01132 79.645Q273.63632 80.27 273.63632 81.56687L273.63632 83.30125Q273.63632 84.67625 274.02695 85.34812Q274.4332 86.00437 275.2457 86.00437Q276.04257 86.00437 276.4332 85.37937Q276.82382 84.75437 276.83945 83.42625L276.83945 81.645Z" fill-rule="nonzero"/><path stroke="#ffffff" stroke-width="3.0" stroke-linejoin="round" stroke-linecap="round" d="M297.48224 86.77L291.8885 86.77L291.8885 85.98875L294.8416 82.7075Q295.49786 81.9575 295.74786 81.50437Q295.99786 81.03562 295.99786 80.53562Q295.99786 79.86375 295.5916 79.44187Q295.201 79.00437 294.5135 79.00437Q293.7166 79.00437 293.2635 79.47312Q292.81036 79.92625 292.81036 80.75437L291.73224 80.75437Q291.73224 79.56687 292.48224 78.84812Q293.24786 78.11375 294.5135 78.11375Q295.7166 78.11375 296.4041 78.73875Q297.0916 79.36375 297.0916 80.41062Q297.0916 81.66062 295.48224 83.41062L293.201 85.87937L297.48224 85.87937L297.48224 86.77ZM304.076 80.4575Q304.076 81.09812 303.73224 81.59812Q303.3885 82.09812 302.826 82.37937Q303.48224 82.66062 303.87286 83.22312Q304.2635 83.77 304.2635 84.47312Q304.2635 85.56687 303.5135 86.23875Q302.7791 86.895 301.56036 86.895Q300.326 86.895 299.576 86.23875Q298.8416 85.56687 298.8416 84.47312Q298.8416 83.77 299.2166 83.22312Q299.5916 82.66062 300.2635 82.37937Q299.701 82.09812 299.37286 81.59812Q299.04474 81.09812 299.04474 80.4575Q299.04474 79.37937 299.73224 78.75437Q300.41974 78.11375 301.56036 78.11375Q302.68536 78.11375 303.37286 78.75437Q304.076 79.37937 304.076 80.4575ZM303.18536 84.44187Q303.18536 83.72312 302.73224 83.28562Q302.2791 82.8325 301.54474 82.8325Q300.81036 82.8325 300.35724 83.28562Q299.91974 83.72312 299.91974 84.4575Q299.91974 85.17625 300.35724 85.59812Q300.79474 86.00437 301.56036 86.00437Q302.31036 86.00437 302.74786 85.5825Q303.18536 85.16062 303.18536 84.44187ZM301.56036 79.00437Q300.91974 79.00437 300.5135 79.41062Q300.12286 79.80125 300.12286 80.48875Q300.12286 81.12937 300.5135 81.53562Q300.9041 81.94187 301.54474 81.94187Q302.201 81.94187 302.5916 81.53562Q302.98224 81.12937 302.98224 80.48875Q302.98224 79.8325 302.576 79.42625Q302.16974 79.00437 301.56036 79.00437ZM311.24786 83.12937Q311.24786 85.03562 310.5916 85.97312Q309.951 86.895 308.56036 86.895Q307.201 86.895 306.54474 85.98875Q305.8885 85.0825 305.85724 83.27L305.85724 81.8325Q305.85724 79.94187 306.49786 79.03562Q307.1541 78.11375 308.54474 78.11375Q309.91974 78.11375 310.576 79.00437Q311.23224 79.87937 311.24786 81.72312L311.24786 83.12937ZM310.1541 81.645Q310.1541 80.27 309.7635 79.645Q309.3885 79.00437 308.54474 79.00437Q307.7166 79.00437 307.326 79.645Q306.951 80.27 306.951 81.56687L306.951 83.30125Q306.951 84.67625 307.3416 85.34812Q307.74786 86.00437 308.56036 86.00437Q309.35724 86.00437 309.74786 85.37937Q310.1385 84.75437 310.1541 83.42625L310.1541 81.645Z" fill-rule="nonzero"/><path fill="#4285f4" d="M297.48224 86.77L291.8885 86.77L291.8885 85.98875L294.8416 82.7075Q295.49786 81.9575 295.74786 81.50437Q295.99786 81.03562 295.99786 80.53562Q295.99786 79.86375 295.5916 79.44187Q295.201 79.00437 294.5135 79.00437Q293.7166 79.00437 293.2635 79.47312Q292.81036 79.92625 292.81036 80.75437L291.73224 80.75437Q291.73224 79.56687 292.48224 78.84812Q293.24786 78.11375 294.5135 78.11375Q295.7166 78.11375 296.4041 78.73875Q297.0916 79.36375 297.0916 80.41062Q297.0916 81.66062 295.48224 83.41062L293.201 85.87937L297.48224 85.87937L297.48224 86.77ZM304.076 80.4575Q304.076 81.09812 303.73224 81.59812Q303.3885 82.09812 302.826 82.37937Q303.48224 82.66062 303.87286 83.22312Q304.2635 83.77 304.2635 84.47312Q304.2635 85.56687 303.5135 86.23875Q302.7791 86.895 301.56036 86.895Q300.326 86.895 299.576 86.23875Q298.8416 85.56687 298.8416 84.47312Q298.8416 83.77 299.2166 83.22312Q299.5916 82.66062 300.2635 82.37937Q299.701 82.09812 299.37286 81.59812Q299.04474 81.09812 299.04474 80.4575Q299.04474 79.37937 299.73224 78.75437Q300.41974 78.11375 301.56036 78.11375Q302.68536 78.11375 303.37286 78.75437Q304.076 79.37937 304.076 80.4575ZM303.18536 84.44187Q303.18536 83.72312 302.73224 83.28562Q302.2791 82.8325 301.54474 82.8325Q300.81036 82.8325 300.35724 83.28562Q299.91974 83.72312 299.91974 84.4575Q299.91974 85.17625 300.35724 85.59812Q300.79474 86.00437 301.56036 86.00437Q302.31036 86.00437 302.74786 85.5825Q303.18536 85.16062 303.18536 84.44187ZM301.56036 79.00437Q300.91974 79.00437 300.5135 79.41062Q300.12286 79.80125 300.12286 80.48875Q300.12286 81.12937 300.5135 81.53562Q300.9041 81.94187 301.54474 81.94187Q302.201 81.94187 302.5916 81.53562Q302.98224 81.12937 302.98224 80.48875Q302.98224 79.8325 302.576 79.42625Q302.16974 79.00437 301.56036 79.00437ZM311.24786 83.12937Q311.24786 85.03562 310.5916 85.97312Q309.951 86.895 308.56036 86.895Q307.201 86.895 306.54474 85.98875Q305.8885 85.0825 305.85724 83.27L305.85724 81.8325Q305.85724 79.94187 306.49786 79.03562Q307.1541 78.11375 308.54474 78.11375Q309.91974 78.11375 310.576 79.00437Q311.23224 79.87937 311.24786 81.72312L311.24786 83.12937ZM310.1541 81.645Q310.1541 80.27 309.7635 79.645Q309.3885 79.00437 308.54474 79.00437Q307.7166 79.00437 307.326 79.645Q306.951 80.27 306.951 81.56687L306.951 83.30125Q306.951 84.67625 307.3416 85.34812Q307.74786 86.00437 308.56036 86.00437Q309.35724 86.00437 309.74786 85.37937Q310.1385 84.75437 310.1541 83.42625L310.1541 81.645Z" fill-rule="nonzero"/><path stroke="#ffffff" stroke-width="3.0" stroke-linejoin="round" stroke-linecap="round" d="M330.79688 99.89L325.20312 99.89L325.20312 99.10875L328.15625 95.8275Q328.8125 95.0775 329.0625 94.624374Q329.3125 94.155624 329.3125 93.655624Q329.3125 92.98375 328.90625 92.561874Q328.51562 92.124374 327.82812 92.124374Q327.03125 92.124374 326.57812 92.593124Q326.125 93.04625 326.125 93.874374L325.04688 93.874374Q325.04688 92.686874 325.79688 91.968124Q326.5625 91.23375 327.82812 91.23375Q329.03125 91.23375 329.71875 91.85875Q330.40625 92.48375 330.40625 93.530624Q330.40625 94.780624 328.79688 96.530624L326.51562 98.999374L330.79688 98.999374L330.79688 99.89ZM336.46875 91.35875L336.46875 92.265L336.26562 92.265Q335.0 92.29625 334.25 93.030624Q333.5 93.749374 333.375 95.061874Q334.0625 94.29625 335.21875 94.29625Q336.32812 94.29625 337.0 95.0775Q337.67188 95.85875 337.67188 97.10875Q337.67188 98.42125 336.95312 99.218124Q336.23438 100.015 335.01562 100.015Q333.79688 100.015 333.03125 99.0775Q332.28125 98.124374 332.28125 96.64L332.28125 96.23375Q332.28125 93.874374 333.28125 92.624374Q334.28125 91.374374 336.26562 91.35875L336.46875 91.35875ZM335.04688 95.2025Q334.48438 95.2025 334.01562 95.530624Q333.54688 95.85875 333.35938 96.374374L333.35938 96.765Q333.35938 97.8275 333.82812 98.468124Q334.3125 99.10875 335.01562 99.10875Q335.75 99.10875 336.17188 98.5775Q336.59375 98.030624 336.59375 97.155624Q336.59375 96.280624 336.17188 95.749374Q335.75 95.2025 335.04688 95.2025ZM344.5625 96.249374Q344.5625 98.155624 343.90625 99.093124Q343.26562 100.015 341.875 100.015Q340.51562 100.015 339.85938 99.10875Q339.20312 98.2025 339.17188 96.39L339.17188 94.9525Q339.17188 93.061874 339.8125 92.155624Q340.46875 91.23375 341.85938 91.23375Q343.23438 91.23375 343.89062 92.124374Q344.54688 92.999374 344.5625 94.843124L344.5625 96.249374ZM343.46875 94.765Q343.46875 93.39 343.07812 92.765Q342.70312 92.124374 341.85938 92.124374Q341.03125 92.124374 340.64062 92.765Q340.26562 93.39 340.26562 94.686874L340.26562 96.42125Q340.26562 97.79625 340.65625 98.468124Q341.0625 99.124374 341.875 99.124374Q342.67188 99.124374 343.0625 98.499374Q343.45312 97.874374 343.46875 96.54625L343.46875 94.765Z" fill-rule="nonzero"/><path fill="#4285f4" d="M330.79688 99.89L325.20312 99.89L325.20312 99.10875L328.15625 95.8275Q328.8125 95.0775 329.0625 94.624374Q329.3125 94.155624 329.3125 93.655624Q329.3125 92.98375 328.90625 92.561874Q328.51562 92.124374 327.82812 92.124374Q327.03125 92.124374 326.57812 92.593124Q326.125 93.04625 326.125 93.874374L325.04688 93.874374Q325.04688 92.686874 325.79688 91.968124Q326.5625 91.23375 327.82812 91.23375Q329.03125 91.23375 329.71875 91.85875Q330.40625 92.48375 330.40625 93.530624Q330.40625 94.780624 328.79688 96.530624L326.51562 98.999374L330.79688 98.999374L330.79688 99.89ZM336.46875 91.35875L336.46875 92.265L336.26562 92.265Q335.0 92.29625 334.25 93.030624Q333.5 93.749374 333.375 95.061874Q334.0625 94.29625 335.21875 94.29625Q336.32812 94.29625 337.0 95.0775Q337.67188 95.85875 337.67188 97.10875Q337.67188 98.42125 336.95312 99.218124Q336.23438 100.015 335.01562 100.015Q333.79688 100.015 333.03125 99.0775Q332.28125 98.124374 332.28125 96.64L332.28125 96.23375Q332.28125 93.874374 333.28125 92.624374Q334.28125 91.374374 336.26562 91.35875L336.46875 91.35875ZM335.04688 95.2025Q334.48438 95.2025 334.01562 95.530624Q333.54688 95.85875 333.35938 96.374374L333.35938 96.765Q333.35938 97.8275 333.82812 98.468124Q334.3125 99.10875 335.01562 99.10875Q335.75 99.10875 336.17188 98.5775Q336.59375 98.030624 336.59375 97.155624Q336.59375 96.280624 336.17188 95.749374Q335.75 95.2025 335.04688 95.2025ZM344.5625 96.249374Q344.5625 98.155624 343.90625 99.093124Q343.26562 100.015 341.875 100.015Q340.51562 100.015 339.85938 99.10875Q339.20312 98.2025 339.17188 96.39L339.17188 94.9525Q339.17188 93.061874 339.8125 92.155624Q340.46875 91.23375 341.85938 91.23375Q343.23438 91.23375 343.89062 92.124374Q344.54688 92.999374 344.5625 94.843124L344.5625 96.249374ZM343.46875 94.765Q343.46875 93.39 343.07812 92.765Q342.70312 92.124374 341.85938 92.124374Q341.03125 92.124374 340.64062 92.765Q340.26562 93.39 340.26562 94.686874L340.26562 96.42125Q340.26562 97.79625 340.65625 98.468124Q341.0625 99.124374 341.875 99.124374Q342.67188 99.124374 343.0625 98.499374Q343.45312 97.874374 343.46875 96.54625L343.46875 94.765Z" fill-rule="nonzero"/><path stroke="#ffffff" stroke-width="3.0" stroke-linejoin="round" stroke-linecap="round" d="M364.1115 139.25L358.51776 139.25L358.51776 138.46875L361.4709 135.1875Q362.12714 134.4375 362.37714 133.98438Q362.62714 133.51562 362.62714 133.01562Q362.62714 132.34375 362.2209 131.92188Q361.83026 131.48438 361.14276 131.48438Q360.3459 131.48438 359.89276 131.95312Q359.43964 132.40625 359.43964 133.23438L358.3615 133.23438Q358.3615 132.04688 359.1115 131.32812Q359.87714 130.59375 361.14276 130.59375Q362.3459 130.59375 363.0334 131.21875Q363.7209 131.84375 363.7209 132.89062Q363.7209 134.14062 362.1115 135.89062L359.83026 138.35938L364.1115 138.35938L364.1115 139.25ZM370.87714 135.60938Q370.87714 137.51562 370.2209 138.45312Q369.58026 139.375 368.18964 139.375Q366.83026 139.375 366.174 138.46875Q365.51776 137.5625 365.4865 135.75L365.4865 134.3125Q365.4865 132.42188 366.12714 131.51562Q366.7834 130.59375 368.174 130.59375Q369.549 130.59375 370.20526 131.48438Q370.8615 132.35938 370.87714 134.20312L370.87714 135.60938ZM369.7834 134.125Q369.7834 132.75 369.39276 132.125Q369.01776 131.48438 368.174 131.48438Q367.3459 131.48438 366.95526 132.125Q366.58026 132.75 366.58026 134.04688L366.58026 135.78125Q366.58026 137.15625 366.9709 137.82812Q367.37714 138.48438 368.18964 138.48438Q368.9865 138.48438 369.37714 137.85938Q369.76776 137.23438 369.7834 135.90625L369.7834 134.125ZM377.87714 135.60938Q377.87714 137.51562 377.2209 138.45312Q376.58026 139.375 375.18964 139.375Q373.83026 139.375 373.174 138.46875Q372.51776 137.5625 372.4865 135.75L372.4865 134.3125Q372.4865 132.42188 373.12714 131.51562Q373.7834 130.59375 375.174 130.59375Q376.549 130.59375 377.20526 131.48438Q377.8615 132.35938 377.87714 134.20312L377.87714 135.60938ZM376.7834 134.125Q376.7834 132.75 376.39276 132.125Q376.01776 131.48438 375.174 131.48438Q374.3459 131.48438 373.95526 132.125Q373.58026 132.75 373.58026 134.04688L373.58026 135.78125Q373.58026 137.15625 373.9709 137.82812Q374.37714 138.48438 375.18964 138.48438Q375.9865 138.48438 376.37714 137.85938Q376.76776 137.23438 376.7834 135.90625L376.7834 134.125Z" fill-rule="nonzero"/><path fill="#4285f4" d="M364.1115 139.25L358.51776 139.25L358.51776 138.46875L361.4709 135.1875Q362.12714 134.4375 362.37714 133.98438Q362.62714 133.51562 362.62714 133.01562Q362.62714 132.34375 362.2209 131.92188Q361.83026 131.48438 361.14276 131.48438Q360.3459 131.48438 359.89276 131.95312Q359.43964 132.40625 359.43964 133.23438L358.3615 133.23438Q358.3615 132.04688 359.1115 131.32812Q359.87714 130.59375 361.14276 130.59375Q362.3459 130.59375 363.0334 131.21875Q363.7209 131.84375 363.7209 132.89062Q363.7209 134.14062 362.1115 135.89062L359.83026 138.35938L364.1115 138.35938L364.1115 139.25ZM370.87714 135.60938Q370.87714 137.51562 370.2209 138.45312Q369.58026 139.375 368.18964 139.375Q366.83026 139.375 366.174 138.46875Q365.51776 137.5625 365.4865 135.75L365.4865 134.3125Q365.4865 132.42188 366.12714 131.51562Q366.7834 130.59375 368.174 130.59375Q369.549 130.59375 370.20526 131.48438Q370.8615 132.35938 370.87714 134.20312L370.87714 135.60938ZM369.7834 134.125Q369.7834 132.75 369.39276 132.125Q369.01776 131.48438 368.174 131.48438Q367.3459 131.48438 366.95526 132.125Q366.58026 132.75 366.58026 134.04688L366.58026 135.78125Q366.58026 137.15625 366.9709 137.82812Q367.37714 138.48438 368.18964 138.48438Q368.9865 138.48438 369.37714 137.85938Q369.76776 137.23438 369.7834 135.90625L369.7834 134.125ZM377.87714 135.60938Q377.87714 137.51562 377.2209 138.45312Q376.58026 139.375 375.18964 139.375Q373.83026 139.375 373.174 138.46875Q372.51776 137.5625 372.4865 135.75L372.4865 134.3125Q372.4865 132.42188 373.12714 131.51562Q373.7834 130.59375 375.174 130.59375Q376.549 130.59375 377.20526 131.48438Q377.8615 132.35938 377.87714 134.20312L377.87714 135.60938ZM376.7834 134.125Q376.7834 132.75 376.39276 132.125Q376.01776 131.48438 375.174 131.48438Q374.3459 131.48438 373.95526 132.125Q373.58026 132.75 373.58026 134.04688L373.58026 135.78125Q373.58026 137.15625 373.9709 137.82812Q374.37714 138.48438 375.18964 138.48438Q375.9865 138.48438 376.37714 137.85938Q376.76776 137.23438 376.7834 135.90625L376.7834 134.125Z" fill-rule="nonzero"/><path stroke="#ffffff" stroke-width="3.0" stroke-linejoin="round" stroke-linecap="round" d="M395.39493 158.93L394.3168 158.93L394.3168 151.71124L392.1293 152.50812L392.1293 151.52374L395.23868 150.35187L395.39493 150.35187L395.39493 158.93ZM404.34805 151.00812L400.8168 158.93L399.67618 158.93L403.1918 151.28937L398.58243 151.28937L398.58243 150.39874L404.34805 150.39874L404.34805 151.00812ZM411.1918 155.28937Q411.1918 157.19562 410.53555 158.13312Q409.89493 159.055 408.5043 159.055Q407.14493 159.055 406.48868 158.14874Q405.83243 157.2425 405.80118 155.43L405.80118 153.9925Q405.80118 152.10187 406.4418 151.19562Q407.09805 150.27374 408.48868 150.27374Q409.86368 150.27374 410.51993 151.16437Q411.17618 152.03937 411.1918 153.88312L411.1918 155.28937ZM410.09805 153.805Q410.09805 152.43 409.70743 151.805Q409.33243 151.16437 408.48868 151.16437Q407.66055 151.16437 407.26993 151.805Q406.89493 152.43 406.89493 153.72687L406.89493 155.46124Q406.89493 156.83624 407.28555 157.50812Q407.6918 158.16437 408.5043 158.16437Q409.30118 158.16437 409.6918 157.53937Q410.08243 156.91437 410.09805 155.58624L410.09805 153.805Z" fill-rule="nonzero"/><path fill="#4285f4" d="M395.39493 158.93L394.3168 158.93L394.3168 151.71124L392.1293 152.50812L392.1293 151.52374L395.23868 150.35187L395.39493 150.35187L395.39493 158.93ZM404.34805 151.00812L400.8168 158.93L399.67618 158.93L403.1918 151.28937L398.58243 151.28937L398.58243 150.39874L404.34805 150.39874L404.34805 151.00812ZM411.1918 155.28937Q411.1918 157.19562 410.53555 158.13312Q409.89493 159.055 408.5043 159.055Q407.14493 159.055 406.48868 158.14874Q405.83243 157.2425 405.80118 155.43L405.80118 153.9925Q405.80118 152.10187 406.4418 151.19562Q407.09805 150.27374 408.48868 150.27374Q409.86368 150.27374 410.51993 151.16437Q411.17618 152.03937 411.1918 153.88312L411.1918 155.28937ZM410.09805 153.805Q410.09805 152.43 409.70743 151.805Q409.33243 151.16437 408.48868 151.16437Q407.66055 151.16437 407.26993 151.805Q406.89493 152.43 406.89493 153.72687L406.89493 155.46124Q406.89493 156.83624 407.28555 157.50812Q407.6918 158.16437 408.5043 158.16437Q409.30118 158.16437 409.6918 157.53937Q410.08243 156.91437 410.09805 155.58624L410.09805 153.805Z" fill-rule="nonzero"/><path stroke="#ffffff" stroke-width="3.0" stroke-linejoin="round" stroke-linecap="round" d="M428.70956 178.61L427.63144 178.61L427.63144 171.39125L425.44394 172.18813L425.44394 171.20375L428.5533 170.03188L428.70956 170.03188L428.70956 178.61ZM436.7252 175.75063L437.9127 175.75063L437.9127 176.62563L436.7252 176.62563L436.7252 178.61L435.64706 178.61L435.64706 176.62563L431.75644 176.62563L431.75644 175.985L435.56894 170.07875L436.7252 170.07875L436.7252 175.75063ZM432.9908 175.75063L435.64706 175.75063L435.64706 171.56313L435.50644 171.7975L432.9908 175.75063ZM444.50644 174.96938Q444.50644 176.87563 443.8502 177.81313Q443.20956 178.735 441.81894 178.735Q440.45956 178.735 439.8033 177.82875Q439.14706 176.9225 439.1158 175.11L439.1158 173.6725Q439.1158 171.78188 439.75644 170.87563Q440.4127 169.95375 441.8033 169.95375Q443.1783 169.95375 443.83456 170.84438Q444.4908 171.71938 444.50644 173.56313L444.50644 174.96938ZM443.4127 173.485Q443.4127 172.11 443.02206 171.485Q442.64706 170.84438 441.8033 170.84438Q440.9752 170.84438 440.58456 171.485Q440.20956 172.11 440.20956 173.40688L440.20956 175.14125Q440.20956 176.51625 440.6002 177.18813Q441.00644 177.84438 441.81894 177.84438Q442.6158 177.84438 443.00644 177.21938Q443.39706 176.59438 443.4127 175.26625L443.4127 173.485Z" fill-rule="nonzero"/><path fill="#4285f4" d="M428.70956 178.61L427.63144 178.61L427.63144 171.39125L425.44394 172.18813L425.44394 171.20375L428.5533 170.03188L428.70956 170.03188L428.70956 178.61ZM436.7252 175.75063L437.9127 175.75063L437.9127 176.62563L436.7252 176.62563L436.7252 178.61L435.64706 178.61L435.64706 176.62563L431.75644 176.62563L431.75644 175.985L435.56894 170.07875L436.7252 170.07875L436.7252 175.75063ZM432.9908 175.75063L435.64706 175.75063L435.64706 171.56313L435.50644 171.7975L432.9908 175.75063ZM444.50644 174.96938Q444.50644 176.87563 443.8502 177.81313Q443.20956 178.735 441.81894 178.735Q440.45956 178.735 439.8033 177.82875Q439.14706 176.9225 439.1158 175.11L439.1158 173.6725Q439.1158 171.78188 439.75644 170.87563Q440.4127 169.95375 441.8033 169.95375Q443.1783 169.95375 443.83456 170.84438Q444.4908 171.71938 444.50644 173.56313L444.50644 174.96938ZM443.4127 173.485Q443.4127 172.11 443.02206 171.485Q442.64706 170.84438 441.8033 170.84438Q440.9752 170.84438 440.58456 171.485Q440.20956 172.11 440.20956 173.40688L440.20956 175.14125Q440.20956 176.51625 440.6002 177.18813Q441.00644 177.84438 441.81894 177.84438Q442.6158 177.84438 443.00644 177.21938Q443.39706 176.59438 443.4127 175.26625L443.4127 173.485Z" fill-rule="nonzero"/><path stroke="#ffffff" stroke-width="3.0" stroke-linejoin="round" stroke-linecap="round" d="M462.02423 191.73L460.9461 191.73L460.9461 184.51125L458.7586 185.30812L458.7586 184.32375L461.86798 183.15187L462.02423 183.15187L462.02423 191.73ZM471.05548 191.73L465.46173 191.73L465.46173 190.94875L468.41486 187.6675Q469.0711 186.9175 469.3211 186.46437Q469.5711 185.99562 469.5711 185.49562Q469.5711 184.82375 469.16486 184.40187Q468.77423 183.96437 468.08673 183.96437Q467.28986 183.96437 466.83673 184.43312Q466.3836 184.88625 466.3836 185.71437L465.30548 185.71437Q465.30548 184.52687 466.05548 183.80812Q466.8211 183.07375 468.08673 183.07375Q469.28986 183.07375 469.97736 183.69875Q470.66486 184.32375 470.66486 185.37062Q470.66486 186.62062 469.05548 188.37062L466.77423 190.83937L471.05548 190.83937L471.05548 191.73ZM477.8211 188.08937Q477.8211 189.99562 477.16486 190.93312Q476.52423 191.855 475.1336 191.855Q473.77423 191.855 473.11798 190.94875Q472.46173 190.0425 472.43048 188.23L472.43048 186.7925Q472.43048 184.90187 473.0711 183.99562Q473.72736 183.07375 475.11798 183.07375Q476.49298 183.07375 477.14923 183.96437Q477.80548 184.83937 477.8211 186.68312L477.8211 188.08937ZM476.72736 186.605Q476.72736 185.23 476.33673 184.605Q475.96173 183.96437 475.11798 183.96437Q474.28986 183.96437 473.89923 184.605Q473.52423 185.23 473.52423 186.52687L473.52423 188.26125Q473.52423 189.63625 473.91486 190.30812Q474.3211 190.96437 475.1336 190.96437Q475.93048 190.96437 476.3211 190.33937Q476.71173 189.71437 476.72736 188.38625L476.72736 186.605Z" fill-rule="nonzero"/><path fill="#4285f4" d="M462.02423 191.73L460.9461 191.73L460.9461 184.51125L458.7586 185.30812L458.7586 184.32375L461.86798 183.15187L462.02423 183.15187L462.02423 191.73ZM471.05548 191.73L465.46173 191.73L465.46173 190.94875L468.41486 187.6675Q469.0711 186.9175 469.3211 186.46437Q469.5711 185.99562 469.5711 185.49562Q469.5711 184.82375 469.16486 184.40187Q468.77423 183.96437 468.08673 183.96437Q467.28986 183.96437 466.83673 184.43312Q466.3836 184.88625 466.3836 185.71437L465.30548 185.71437Q465.30548 184.52687 466.05548 183.80812Q466.8211 183.07375 468.08673 183.07375Q469.28986 183.07375 469.97736 183.69875Q470.66486 184.32375 470.66486 185.37062Q470.66486 186.62062 469.05548 188.37062L466.77423 190.83937L471.05548 190.83937L471.05548 191.73ZM477.8211 188.08937Q477.8211 189.99562 477.16486 190.93312Q476.52423 191.855 475.1336 191.855Q473.77423 191.855 473.11798 190.94875Q472.46173 190.0425 472.43048 188.23L472.43048 186.7925Q472.43048 184.90187 473.0711 183.99562Q473.72736 183.07375 475.11798 183.07375Q476.49298 183.07375 477.14923 183.96437Q477.80548 184.83937 477.8211 186.68312L477.8211 188.08937ZM476.72736 186.605Q476.72736 185.23 476.33673 184.605Q475.96173 183.96437 475.11798 183.96437Q474.28986 183.96437 473.89923 184.605Q473.52423 185.23 473.52423 186.52687L473.52423 188.26125Q473.52423 189.63625 473.91486 190.30812Q474.3211 190.96437 475.1336 190.96437Q475.93048 190.96437 476.3211 190.33937Q476.71173 189.71437 476.72736 188.38625L476.72736 186.605Z" fill-rule="nonzero"/><path stroke="#ffffff" stroke-width="3.0" stroke-linejoin="round" stroke-linecap="round" d="M500.792 216.60812L497.26074 224.53L496.12012 224.53L499.63574 216.88937L495.02637 216.88937L495.02637 215.99875L500.792 215.99875L500.792 216.60812ZM507.63574 220.88937Q507.63574 222.79562 506.9795 223.73312Q506.33887 224.655 504.94824 224.655Q503.58887 224.655 502.93262 223.74875Q502.27637 222.8425 502.24512 221.03L502.24512 219.5925Q502.24512 217.70187 502.88574 216.79562Q503.542 215.87375 504.93262 215.87375Q506.30762 215.87375 506.96387 216.76437Q507.62012 217.63937 507.63574 219.48312L507.63574 220.88937ZM506.542 219.405Q506.542 218.03 506.15137 217.405Q505.77637 216.76437 504.93262 216.76437Q504.1045 216.76437 503.71387 217.405Q503.33887 218.03 503.33887 219.32687L503.33887 221.06125Q503.33887 222.43625 503.7295 223.10812Q504.13574 223.76437 504.94824 223.76437Q505.74512 223.76437 506.13574 223.13937Q506.52637 222.51437 506.542 221.18625L506.542 219.405Z" fill-rule="nonzero"/><path fill="#4285f4" d="M500.792 216.60812L497.26074 224.53L496.12012 224.53L499.63574 216.88937L495.02637 216.88937L495.02637 215.99875L500.792 215.99875L500.792 216.60812ZM507.63574 220.88937Q507.63574 222.79562 506.9795 223.73312Q506.33887 224.655 504.94824 224.655Q503.58887 224.655 502.93262 223.74875Q502.27637 222.8425 502.24512 221.03L502.24512 219.5925Q502.24512 217.70187 502.88574 216.79562Q503.542 215.87375 504.93262 215.87375Q506.30762 215.87375 506.96387 216.76437Q507.62012 217.63937 507.63574 219.48312L507.63574 220.88937ZM506.542 219.405Q506.542 218.03 506.15137 217.405Q505.77637 216.76437 504.93262 216.76437Q504.1045 216.76437 503.71387 217.405Q503.33887 218.03 503.33887 219.32687L503.33887 221.06125Q503.33887 222.43625 503.7295 223.10812Q504.13574 223.76437 504.94824 223.76437Q505.74512 223.76437 506.13574 223.13937Q506.52637 222.51437 506.542 221.18625L506.542 219.405Z" fill-rule="nonzero"/><path stroke="#ffffff" stroke-width="3.0" stroke-linejoin="round" stroke-linecap="round" d="M530.1691 242.69313L530.9816 242.69313Q531.7629 242.6775 532.2004 242.28688Q532.6379 241.89626 532.6379 241.22438Q532.6379 239.72438 531.1379 239.72438Q530.43475 239.72438 530.0129 240.13063Q529.6066 240.53688 529.6066 241.19313L528.5129 241.19313Q528.5129 240.1775 529.24725 239.50563Q529.99725 238.83376 531.1379 238.83376Q532.341 238.83376 533.0285 239.47438Q533.716 240.115 533.716 241.25563Q533.716 241.81813 533.3566 242.33376Q532.99725 242.84938 532.37225 243.115Q533.0754 243.33376 533.4504 243.84938Q533.841 244.365 533.841 245.115Q533.841 246.25563 533.091 246.94313Q532.341 247.615 531.1379 247.615Q529.9504 247.615 529.18475 246.95876Q528.43475 246.3025 528.43475 245.24L529.5285 245.24Q529.5285 245.91188 529.966 246.31813Q530.4035 246.72438 531.1535 246.72438Q531.93475 246.72438 532.341 246.31813Q532.7629 245.89626 532.7629 245.13063Q532.7629 244.39626 532.30975 244.00563Q531.8566 243.59938 530.9816 243.58376L530.1691 243.58376L530.1691 242.69313ZM536.091 243.20876L536.5285 238.95876L540.9035 238.95876L540.9035 239.95876L537.4504 239.95876L537.18475 242.28688Q537.8254 241.91188 538.62225 241.91188Q539.7785 241.91188 540.466 242.69313Q541.1535 243.45876 541.1535 244.77126Q541.1535 246.08376 540.43475 246.84938Q539.7316 247.615 538.4504 247.615Q537.3254 247.615 536.6066 246.99Q535.8879 246.34938 535.7941 245.24L536.80975 245.24Q536.9191 245.97438 537.341 246.34938Q537.7629 246.72438 538.4504 246.72438Q539.2004 246.72438 539.6379 246.20876Q540.0754 245.69313 540.0754 244.78688Q540.0754 243.9275 539.6066 243.41188Q539.1379 242.89626 538.3566 242.89626Q537.6535 242.89626 537.24725 243.19313L536.966 243.4275L536.091 243.20876Z" fill-rule="nonzero"/><path fill="#4285f4" d="M530.1691 242.69313L530.9816 242.69313Q531.7629 242.6775 532.2004 242.28688Q532.6379 241.89626 532.6379 241.22438Q532.6379 239.72438 531.1379 239.72438Q530.43475 239.72438 530.0129 240.13063Q529.6066 240.53688 529.6066 241.19313L528.5129 241.19313Q528.5129 240.1775 529.24725 239.50563Q529.99725 238.83376 531.1379 238.83376Q532.341 238.83376 533.0285 239.47438Q533.716 240.115 533.716 241.25563Q533.716 241.81813 533.3566 242.33376Q532.99725 242.84938 532.37225 243.115Q533.0754 243.33376 533.4504 243.84938Q533.841 244.365 533.841 245.115Q533.841 246.25563 533.091 246.94313Q532.341 247.615 531.1379 247.615Q529.9504 247.615 529.18475 246.95876Q528.43475 246.3025 528.43475 245.24L529.5285 245.24Q529.5285 245.91188 529.966 246.31813Q530.4035 246.72438 531.1535 246.72438Q531.93475 246.72438 532.341 246.31813Q532.7629 245.89626 532.7629 245.13063Q532.7629 244.39626 532.30975 244.00563Q531.8566 243.59938 530.9816 243.58376L530.1691 243.58376L530.1691 242.69313ZM536.091 243.20876L536.5285 238.95876L540.9035 238.95876L540.9035 239.95876L537.4504 239.95876L537.18475 242.28688Q537.8254 241.91188 538.62225 241.91188Q539.7785 241.91188 540.466 242.69313Q541.1535 243.45876 541.1535 244.77126Q541.1535 246.08376 540.43475 246.84938Q539.7316 247.615 538.4504 247.615Q537.3254 247.615 536.6066 246.99Q535.8879 246.34938 535.7941 245.24L536.80975 245.24Q536.9191 245.97438 537.341 246.34938Q537.7629 246.72438 538.4504 246.72438Q539.2004 246.72438 539.6379 246.20876Q540.0754 245.69313 540.0754 244.78688Q540.0754 243.9275 539.6066 243.41188Q539.1379 242.89626 538.3566 242.89626Q537.6535 242.89626 537.24725 243.19313L536.966 243.4275L536.091 243.20876Z" fill-rule="nonzero"/><path stroke="#ffffff" stroke-width="3.0" stroke-linejoin="round" stroke-linecap="round" d="M570.765 266.8094Q570.765 268.71564 570.10876 269.65314Q569.46814 270.575 568.0775 270.575Q566.71814 270.575 566.0619 269.66876Q565.40564 268.7625 565.3744 266.95L565.3744 265.5125Q565.3744 263.6219 566.015 262.71564Q566.67126 261.79376 568.0619 261.79376Q569.4369 261.79376 570.09314 262.6844Q570.7494 263.5594 570.765 265.40314L570.765 266.8094ZM569.67126 265.325Q569.67126 263.95 569.28064 263.325Q568.90564 262.6844 568.0619 262.6844Q567.23376 262.6844 566.84314 263.325Q566.46814 263.95 566.46814 265.2469L566.46814 266.98126Q566.46814 268.35626 566.85876 269.02814Q567.265 269.6844 568.0775 269.6844Q568.8744 269.6844 569.265 269.0594Q569.65564 268.4344 569.67126 267.10626L569.67126 265.325Z" fill-rule="nonzero"/><path fill="#4285f4" d="M570.765 266.8094Q570.765 268.71564 570.10876 269.65314Q569.46814 270.575 568.0775 270.575Q566.71814 270.575 566.0619 269.66876Q565.40564 268.7625 565.3744 266.95L565.3744 265.5125Q565.3744 263.6219 566.015 262.71564Q566.67126 261.79376 568.0619 261.79376Q569.4369 261.79376 570.09314 262.6844Q570.7494 263.5594 570.765 265.40314L570.765 266.8094ZM569.67126 265.325Q569.67126 263.95 569.28064 263.325Q568.90564 262.6844 568.0619 262.6844Q567.23376 262.6844 566.84314 263.325Q566.46814 263.95 566.46814 265.2469L566.46814 266.98126Q566.46814 268.35626 566.85876 269.02814Q567.265 269.6844 568.0775 269.6844Q568.8744 269.6844 569.265 269.0594Q569.65564 268.4344 569.67126 267.10626L569.67126 265.325Z" fill-rule="nonzero"/><path fill="#424242" d="M285.82812 348.45L285.82812 337.075L289.03125 337.075Q290.51562 337.075 291.65625 337.73126Q292.79688 338.3875 293.42188 339.60626Q294.04688 340.8094 294.04688 342.3719L294.04688 343.10626Q294.04688 344.71564 293.42188 345.9344Q292.8125 347.1375 291.65625 347.79376Q290.5 348.4344 288.96875 348.45L285.82812 348.45ZM287.32812 338.3094L287.32812 347.21564L288.90625 347.21564Q290.64062 347.21564 291.59375 346.1375Q292.5625 345.0594 292.5625 343.075L292.5625 342.40314Q292.5625 340.46564 291.65625 339.40314Q290.75 338.325 289.07812 338.3094L287.32812 338.3094ZM298.17188 348.45L296.71875 348.45L296.71875 339.9969L298.17188 339.9969L298.17188 348.45ZM296.60938 337.7469Q296.60938 337.40314 296.8125 337.16876Q297.03125 336.91876 297.45312 336.91876Q297.875 336.91876 298.09375 337.16876Q298.3125 337.40314 298.3125 337.7625Q298.3125 338.10626 298.09375 338.34064Q297.875 338.575 297.45312 338.575Q297.03125 338.575 296.8125 338.34064Q296.60938 338.10626 296.60938 337.7469ZM305.8125 348.45Q305.6875 348.2 305.60938 347.5594Q304.60938 348.60626 303.20312 348.60626Q301.95312 348.60626 301.15625 347.90314Q300.35938 347.1844 300.35938 346.10626Q300.35938 344.77814 301.35938 344.0594Q302.35938 343.325 304.1875 343.325L305.59375 343.325L305.59375 342.65314Q305.59375 341.90314 305.14062 341.45Q304.6875 340.9969 303.79688 340.9969Q303.03125 340.9969 302.5 341.3875Q301.98438 341.77814 301.98438 342.34064L300.53125 342.34064Q300.53125 341.7 300.96875 341.1219Q301.42188 340.52814 302.1875 340.1844Q302.96875 339.84064 303.89062 339.84064Q305.34375 339.84064 306.17188 340.575Q307.0 341.29376 307.03125 342.575L307.03125 346.46564Q307.03125 347.6375 307.32812 348.325L307.32812 348.45L305.8125 348.45ZM303.42188 347.34064Q304.09375 347.34064 304.70312 346.9969Q305.3125 346.6375 305.59375 346.075L305.59375 344.34064L304.45312 344.34064Q301.79688 344.34064 301.79688 345.90314Q301.79688 346.575 302.25 346.96564Q302.70312 347.34064 303.42188 347.34064ZM313.54688 343.825Q313.54688 342.0594 314.01562 340.4344Q314.48438 338.8094 315.42188 337.48126Q316.35938 336.15314 317.375 335.60626L317.67188 336.5594Q316.53125 337.4344 315.79688 339.23126Q315.0625 341.02814 315.0 343.2625L314.98438 343.91876Q314.98438 346.9344 316.09375 349.16876Q316.75 350.4969 317.67188 351.2469L317.375 352.1219Q316.32812 351.54376 315.39062 350.1844Q313.54688 347.52814 313.54688 343.825ZM318.25 344.15314Q318.25 342.2 319.17188 341.02814Q320.09375 339.84064 321.57812 339.84064Q323.0625 339.84064 323.9375 340.85626L323.9375 336.45L325.375 336.45L325.375 348.45L324.04688 348.45L323.98438 347.54376Q323.10938 348.60626 321.5625 348.60626Q320.09375 348.60626 319.17188 347.40314Q318.25 346.2 318.25 344.2625L318.25 344.15314ZM319.6875 344.3094Q319.6875 345.7469 320.28125 346.5594Q320.875 347.3719 321.92188 347.3719Q323.29688 347.3719 323.9375 346.1375L323.9375 342.2625Q323.28125 341.0594 321.9375 341.0594Q320.875 341.0594 320.28125 341.8875Q319.6875 342.7 319.6875 344.3094ZM327.21875 344.1375Q327.21875 342.90314 327.70312 341.91876Q328.1875 340.91876 329.0625 340.3875Q329.9375 339.84064 331.04688 339.84064Q332.78125 339.84064 333.84375 341.04376Q334.90625 342.23126 334.90625 344.21564L334.90625 344.3094Q334.90625 345.54376 334.4375 346.52814Q333.96875 347.5125 333.07812 348.0594Q332.20312 348.60626 331.0625 348.60626Q329.34375 348.60626 328.28125 347.41876Q327.21875 346.21564 327.21875 344.2469L327.21875 344.1375ZM328.67188 344.3094Q328.67188 345.71564 329.3125 346.575Q329.96875 347.41876 331.0625 347.41876Q332.17188 347.41876 332.8125 346.5594Q333.46875 345.7 333.46875 344.1375Q333.46875 342.7469 332.79688 341.8875Q332.14062 341.02814 331.04688 341.02814Q329.98438 341.02814 329.32812 341.8875Q328.67188 342.73126 328.67188 344.3094ZM345.51562 346.2Q345.51562 345.6219 345.07812 345.29376Q344.64062 344.96564 343.53125 344.73126Q342.4375 344.4969 341.79688 344.16876Q341.15625 343.84064 340.84375 343.3875Q340.53125 342.9344 340.53125 342.3094Q340.53125 341.27814 341.40625 340.5594Q342.29688 339.84064 343.65625 339.84064Q345.09375 339.84064 345.98438 340.59064Q346.89062 341.325 346.89062 342.48126L345.4375 342.48126Q345.4375 341.8875 344.92188 341.46564Q344.42188 341.02814 343.65625 341.02814Q342.875 341.02814 342.42188 341.3719Q341.98438 341.71564 341.98438 342.2625Q341.98438 342.79376 342.39062 343.0594Q342.8125 343.325 343.89062 343.575Q344.96875 343.8094 345.64062 344.15314Q346.3125 344.48126 346.64062 344.95Q346.96875 345.41876 346.96875 346.10626Q346.96875 347.23126 346.0625 347.91876Q345.15625 348.60626 343.70312 348.60626Q342.6875 348.60626 341.90625 348.2469Q341.125 347.8875 340.6875 347.2469Q340.25 346.59064 340.25 345.84064L341.6875 345.84064Q341.73438 346.575 342.26562 346.9969Q342.8125 347.41876 343.70312 347.41876Q344.53125 347.41876 345.01562 347.09064Q345.51562 346.7625 345.51562 346.2ZM355.73438 344.3094Q355.73438 346.2469 354.84375 347.4344Q353.96875 348.60626 352.46875 348.60626Q350.92188 348.60626 350.04688 347.6219L350.04688 351.7L348.59375 351.7L348.59375 339.9969L349.92188 339.9969L349.98438 340.9344Q350.875 339.84064 352.4375 339.84064Q353.96875 339.84064 354.84375 340.9969Q355.73438 342.1375 355.73438 344.1844L355.73438 344.3094ZM354.29688 344.15314Q354.29688 342.71564 353.6875 341.8875Q353.07812 341.0594 352.01562 341.0594Q350.70312 341.0594 350.04688 342.23126L350.04688 346.2625Q350.6875 347.41876 352.03125 347.41876Q353.0625 347.41876 353.67188 346.60626Q354.29688 345.77814 354.29688 344.15314ZM361.6875 341.29376Q361.35938 341.23126 360.96875 341.23126Q359.54688 341.23126 359.04688 342.45L359.04688 348.45L357.59375 348.45L357.59375 339.9969L359.0 339.9969L359.03125 340.96564Q359.73438 339.84064 361.04688 339.84064Q361.46875 339.84064 361.6875 339.95L361.6875 341.29376ZM364.17188 348.45L362.71875 348.45L362.71875 339.9969L364.17188 339.9969L364.17188 348.45ZM362.60938 337.7469Q362.60938 337.40314 362.8125 337.16876Q363.03125 336.91876 363.45312 336.91876Q363.875 336.91876 364.09375 337.16876Q364.3125 337.40314 364.3125 337.7625Q364.3125 338.10626 364.09375 338.34064Q363.875 338.575 363.45312 338.575Q363.03125 338.575 362.8125 338.34064Q362.60938 338.10626 362.60938 337.7469ZM367.96875 339.9969L368.01562 341.0594Q368.98438 339.84064 370.54688 339.84064Q373.21875 339.84064 373.25 342.85626L373.25 348.45L371.79688 348.45L371.79688 342.85626Q371.79688 341.9344 371.375 341.4969Q370.96875 341.0594 370.10938 341.0594Q369.40625 341.0594 368.875 341.4344Q368.34375 341.8094 368.04688 342.41876L368.04688 348.45L366.59375 348.45L366.59375 339.9969L367.96875 339.9969ZM377.5625 337.95L377.5625 339.9969L379.14062 339.9969L379.14062 341.10626L377.5625 341.10626L377.5625 346.35626Q377.5625 346.85626 377.76562 347.1219Q377.98438 347.3719 378.48438 347.3719Q378.73438 347.3719 379.17188 347.27814L379.17188 348.45Q378.60938 348.60626 378.0625 348.60626Q377.09375 348.60626 376.59375 348.02814Q376.10938 347.4344 376.10938 346.35626L376.10938 341.10626L374.57812 341.10626L374.57812 339.9969L376.10938 339.9969L376.10938 337.95L377.5625 337.95ZM383.9375 343.90314Q383.9375 345.65314 383.46875 347.2625Q383.01562 348.85626 382.07812 350.2Q381.14062 351.5594 380.10938 352.1219L379.79688 351.2469Q381.0 350.325 381.73438 348.3875Q382.46875 346.4344 382.48438 344.0594L382.48438 343.8094Q382.48438 342.16876 382.14062 340.7625Q381.79688 339.35626 381.17188 338.2469Q380.5625 337.1219 379.79688 336.4969L380.10938 335.60626Q381.14062 336.1844 382.0625 337.52814Q383.0 338.85626 383.46875 340.46564Q383.9375 342.075 383.9375 343.90314Z" fill-rule="nonzero"/><path fill="#424242" d="M28.471888 275.32812Q27.925013 277.25 27.112513 278.14062Q26.300013 279.01562 25.112513 279.01562Q23.768763 279.01562 22.893763 277.9375Q22.018763 276.85938 22.018763 275.14062Q22.018763 273.96875 22.471888 273.0625Q22.925013 272.14062 23.721888 271.64062Q24.518763 271.125 25.456263 271.125L25.456263 272.64062Q24.425013 272.64062 23.846888 273.29688Q23.253138 273.95312 23.253138 275.14062Q23.253138 276.25 23.737513 276.875Q24.221888 277.5 25.096888 277.5Q25.784388 277.5 26.268763 276.90625Q26.753138 276.3125 27.159388 274.90625Q27.550013 273.48438 28.034388 272.6875Q28.503138 271.875 29.143763 271.5Q29.784388 271.10938 30.659388 271.10938Q32.034386 271.10938 32.878136 272.1875Q33.70626 273.26562 33.70626 275.0625Q33.70626 276.23438 33.253136 277.25Q32.80001 278.26562 32.01876 278.82812Q31.237513 279.375 30.253138 279.375L30.253138 277.85938Q31.284388 277.85938 31.878138 277.10938Q32.471886 276.34375 32.471886 275.0625Q32.471886 273.875 31.987513 273.25Q31.503138 272.60938 30.675013 272.60938Q29.831263 272.60938 29.378138 273.20312Q28.925013 273.78125 28.471888 275.32812ZM29.237513 269.28125Q28.003138 269.28125 27.018763 268.79688Q26.018763 268.3125 25.487513 267.4375Q24.940638 266.5625 24.940638 265.45312Q24.940638 263.71875 26.143763 262.65625Q27.331263 261.59375 29.315638 261.59375L29.409388 261.59375Q30.643763 261.59375 31.628138 262.0625Q32.61251 262.53125 33.159386 263.42188Q33.70626 264.29688 33.70626 265.4375Q33.70626 267.15625 32.51876 268.21875Q31.315638 269.28125 29.346888 269.28125L29.237513 269.28125ZM29.409388 267.82812Q30.815638 267.82812 31.675013 267.1875Q32.51876 266.53125 32.51876 265.4375Q32.51876 264.32812 31.659388 263.6875Q30.800013 263.03125 29.237513 263.03125Q27.846888 263.03125 26.987513 263.70312Q26.128138 264.35938 26.128138 265.45312Q26.128138 266.51562 26.987513 267.17188Q27.831263 267.82812 29.409388 267.82812ZM25.096888 258.54688L26.034388 258.5Q24.940638 257.57812 24.940638 256.0Q24.940638 254.21875 26.300013 253.57812Q25.690638 253.15625 25.315638 252.48438Q24.940638 251.8125 24.940638 250.89062Q24.940638 248.10938 27.878138 248.0625L33.55001 248.0625L33.55001 249.5L27.971888 249.5Q27.065638 249.5 26.612513 249.92188Q26.159388 250.32812 26.159388 251.3125Q26.159388 252.10938 26.643763 252.64062Q27.128138 253.17188 27.940638 253.26562L33.55001 253.26562L33.55001 254.71875L28.003138 254.71875Q26.159388 254.71875 26.159388 256.51562Q26.159388 257.9375 27.378138 258.46875L33.55001 258.46875L33.55001 259.90625L25.096888 259.90625L25.096888 258.54688ZM33.55001 240.6875Q33.30001 240.8125 32.659386 240.89062Q33.70626 241.89062 33.70626 243.29688Q33.70626 244.54688 33.003136 245.34375Q32.284386 246.14062 31.206263 246.14062Q29.878138 246.14062 29.159388 245.14062Q28.425013 244.14062 28.425013 242.3125L28.425013 240.90625L27.753138 240.90625Q27.003138 240.90625 26.550013 241.35938Q26.096888 241.8125 26.096888 242.70312Q26.096888 243.46875 26.487513 244.0Q26.878138 244.51562 27.440638 244.51562L27.440638 245.96875Q26.800013 245.96875 26.221888 245.53125Q25.628138 245.07812 25.284388 244.3125Q24.940638 243.53125 24.940638 242.60938Q24.940638 241.15625 25.675013 240.32812Q26.393763 239.5 27.675013 239.46875L31.565638 239.46875Q32.73751 239.46875 33.42501 239.17188L33.55001 239.17188L33.55001 240.6875ZM32.440636 243.07812Q32.440636 242.40625 32.096886 241.79688Q31.737513 241.1875 31.175013 240.90625L29.440638 240.90625L29.440638 242.04688Q29.440638 244.70312 31.003138 244.70312Q31.675013 244.70312 32.065636 244.25Q32.440636 243.79688 32.440636 243.07812ZM23.050013 234.9375L25.096888 234.9375L25.096888 233.35938L26.206263 233.35938L26.206263 234.9375L31.456263 234.9375Q31.956263 234.9375 32.221886 234.73438Q32.471886 234.51562 32.471886 234.01562Q32.471886 233.76562 32.378136 233.32812L33.55001 233.32812Q33.70626 233.89062 33.70626 234.4375Q33.70626 235.40625 33.128136 235.90625Q32.534386 236.39062 31.456263 236.39062L26.206263 236.39062L26.206263 237.92188L25.096888 237.92188L25.096888 236.39062L23.050013 236.39062L23.050013 234.9375ZM29.237513 232.28125Q28.003138 232.28125 27.018763 231.79688Q26.018763 231.3125 25.487513 230.4375Q24.940638 229.5625 24.940638 228.45312Q24.940638 226.71875 26.143763 225.65625Q27.331263 224.59375 29.315638 224.59375L29.409388 224.59375Q30.643763 224.59375 31.628138 225.0625Q32.61251 225.53125 33.159386 226.42188Q33.70626 227.29688 33.70626 228.4375Q33.70626 230.15625 32.51876 231.21875Q31.315638 232.28125 29.346888 232.28125L29.237513 232.28125ZM29.409388 230.82812Q30.815638 230.82812 31.675013 230.1875Q32.51876 229.53125 32.51876 228.4375Q32.51876 227.32812 31.659388 226.6875Q30.800013 226.03125 29.237513 226.03125Q27.846888 226.03125 26.987513 226.70312Q26.128138 227.35938 26.128138 228.45312Q26.128138 229.51562 26.987513 230.17188Q27.831263 230.82812 29.409388 230.82812ZM21.550013 227.53125L21.550013 225.78125L23.846888 227.875L23.846888 229.03125L21.550013 227.53125ZM26.393763 218.8125Q26.331263 219.14062 26.331263 219.53125Q26.331263 220.95312 27.550013 221.45312L33.55001 221.45312L33.55001 222.90625L25.096888 222.90625L25.096888 221.5L26.065638 221.46875Q24.940638 220.76562 24.940638 219.45312Q24.940638 219.03125 25.050013 218.8125L26.393763 218.8125ZM33.55001 216.32812L33.55001 217.78125L25.096888 217.78125L25.096888 216.32812L33.55001 216.32812ZM22.846888 217.89062Q22.503138 217.89062 22.268763 217.6875Q22.018763 217.46875 22.018763 217.04688Q22.018763 216.625 22.268763 216.40625Q22.503138 216.1875 22.862513 216.1875Q23.206263 216.1875 23.440638 216.40625Q23.675013 216.625 23.675013 217.04688Q23.675013 217.46875 23.440638 217.6875Q23.206263 217.89062 22.846888 217.89062ZM29.237513 214.28125Q28.003138 214.28125 27.018763 213.79688Q26.018763 213.3125 25.487513 212.4375Q24.940638 211.5625 24.940638 210.45312Q24.940638 208.71875 26.143763 207.65625Q27.331263 206.59375 29.315638 206.59375L29.409388 206.59375Q30.643763 206.59375 31.628138 207.0625Q32.61251 207.53125 33.159386 208.42188Q33.70626 209.29688 33.70626 210.4375Q33.70626 212.15625 32.51876 213.21875Q31.315638 214.28125 29.346888 214.28125L29.237513 214.28125ZM29.409388 212.82812Q30.815638 212.82812 31.675013 212.1875Q32.51876 211.53125 32.51876 210.4375Q32.51876 209.32812 31.659388 208.6875Q30.800013 208.03125 29.237513 208.03125Q27.846888 208.03125 26.987513 208.70312Q26.128138 209.35938 26.128138 210.45312Q26.128138 211.51562 26.987513 212.17188Q27.831263 212.82812 29.409388 212.82812ZM29.253138 201.25Q27.300013 201.25 26.128138 200.32812Q24.940638 199.40625 24.940638 197.92188Q24.940638 196.4375 25.956263 195.5625L21.550013 195.5625L21.550013 194.125L33.55001 194.125L33.55001 195.45312L32.64376 195.51562Q33.70626 196.39062 33.70626 197.9375Q33.70626 199.40625 32.503136 200.32812Q31.300013 201.25 29.362513 201.25L29.253138 201.25ZM29.409388 199.8125Q30.846888 199.8125 31.659388 199.21875Q32.471886 198.625 32.471886 197.57812Q32.471886 196.20312 31.237513 195.5625L27.362513 195.5625Q26.159388 196.21875 26.159388 197.5625Q26.159388 198.625 26.987513 199.21875Q27.800013 199.8125 29.409388 199.8125ZM33.55001 186.6875Q33.30001 186.8125 32.659386 186.89062Q33.70626 187.89062 33.70626 189.29688Q33.70626 190.54688 33.003136 191.34375Q32.284386 192.14062 31.206263 192.14062Q29.878138 192.14062 29.159388 191.14062Q28.425013 190.14062 28.425013 188.3125L28.425013 186.90625L27.753138 186.90625Q27.003138 186.90625 26.550013 187.35938Q26.096888 187.8125 26.096888 188.70312Q26.096888 189.46875 26.487513 190.0Q26.878138 190.51562 27.440638 190.51562L27.440638 191.96875Q26.800013 191.96875 26.221888 191.53125Q25.628138 191.07812 25.284388 190.3125Q24.940638 189.53125 24.940638 188.60938Q24.940638 187.15625 25.675013 186.32812Q26.393763 185.5 27.675013 185.46875L31.565638 185.46875Q32.73751 185.46875 33.42501 185.17188L33.55001 185.17188L33.55001 186.6875ZM32.440636 189.07812Q32.440636 188.40625 32.096886 187.79688Q31.737513 187.1875 31.175013 186.90625L29.440638 186.90625L29.440638 188.04688Q29.440638 190.70312 31.003138 190.70312Q31.675013 190.70312 32.065636 190.25Q32.440636 189.79688 32.440636 189.07812ZM31.300013 177.98438Q30.721888 177.98438 30.393763 178.42188Q30.065638 178.85938 29.831263 179.96875Q29.596888 181.0625 29.268763 181.70312Q28.940638 182.34375 28.487513 182.65625Q28.034388 182.96875 27.409388 182.96875Q26.378138 182.96875 25.659388 182.09375Q24.940638 181.20312 24.940638 179.84375Q24.940638 178.40625 25.690638 177.51562Q26.425013 176.60938 27.581263 176.60938L27.581263 178.0625Q26.987513 178.0625 26.565638 178.57812Q26.128138 179.07812 26.128138 179.84375Q26.128138 180.625 26.471888 181.07812Q26.815638 181.51562 27.362513 181.51562Q27.893763 181.51562 28.159388 181.10938Q28.425013 180.6875 28.675013 179.60938Q28.909388 178.53125 29.253138 177.85938Q29.581263 177.1875 30.050013 176.85938Q30.518763 176.53125 31.206263 176.53125Q32.33126 176.53125 33.01876 177.4375Q33.70626 178.34375 33.70626 179.79688Q33.70626 180.8125 33.346886 181.59375Q32.98751 182.375 32.346886 182.8125Q31.690638 183.25 30.940638 183.25L30.940638 181.8125Q31.675013 181.76562 32.096886 181.23438Q32.51876 180.6875 32.51876 179.79688Q32.51876 178.96875 32.190636 178.48438Q31.862513 177.98438 31.300013 177.98438ZM26.112513 169.45312Q24.940638 168.5 24.940638 166.95312Q24.940638 164.28125 27.956263 164.25L33.55001 164.25L33.55001 165.70312L27.956263 165.70312Q27.034388 165.70312 26.596888 166.125Q26.159388 166.53125 26.159388 167.39062Q26.159388 168.09375 26.534388 168.625Q26.909388 169.15625 27.518763 169.45312L33.55001 169.45312L33.55001 170.90625L21.550013 170.90625L21.550013 169.45312L26.112513 169.45312ZM29.237513 162.28125Q28.003138 162.28125 27.018763 161.79688Q26.018763 161.3125 25.487513 160.4375Q24.940638 159.5625 24.940638 158.45312Q24.940638 156.71875 26.143763 155.65625Q27.331263 154.59375 29.315638 154.59375L29.409388 154.59375Q30.643763 154.59375 31.628138 155.0625Q32.61251 155.53125 33.159386 156.42188Q33.70626 157.29688 33.70626 158.4375Q33.70626 160.15625 32.51876 161.21875Q31.315638 162.28125 29.346888 162.28125L29.237513 162.28125ZM29.409388 160.82812Q30.815638 160.82812 31.675013 160.1875Q32.51876 159.53125 32.51876 158.4375Q32.51876 157.32812 31.659388 156.6875Q30.800013 156.03125 29.237513 156.03125Q27.846888 156.03125 26.987513 156.70312Q26.128138 157.35938 26.128138 158.45312Q26.128138 159.51562 26.987513 160.17188Q27.831263 160.82812 29.409388 160.82812ZM26.393763 148.8125Q26.331263 149.14062 26.331263 149.53125Q26.331263 150.95312 27.550013 151.45312L33.55001 151.45312L33.55001 152.90625L25.096888 152.90625L25.096888 151.5L26.065638 151.46875Q24.940638 150.76562 24.940638 149.45312Q24.940638 149.03125 25.050013 148.8125L26.393763 148.8125ZM33.55001 142.6875Q33.30001 142.8125 32.659386 142.89062Q33.70626 143.89062 33.70626 145.29688Q33.70626 146.54688 33.003136 147.34375Q32.284386 148.14062 31.206263 148.14062Q29.878138 148.14062 29.159388 147.14062Q28.425013 146.14062 28.425013 144.3125L28.425013 142.90625L27.753138 142.90625Q27.003138 142.90625 26.550013 143.35938Q26.096888 143.8125 26.096888 144.70312Q26.096888 145.46875 26.487513 146.0Q26.878138 146.51562 27.440638 146.51562L27.440638 147.96875Q26.800013 147.96875 26.221888 147.53125Q25.628138 147.07812 25.284388 146.3125Q24.940638 145.53125 24.940638 144.60938Q24.940638 143.15625 25.675013 142.32812Q26.393763 141.5 27.675013 141.46875L31.565638 141.46875Q32.73751 141.46875 33.42501 141.17188L33.55001 141.17188L33.55001 142.6875ZM32.440636 145.07812Q32.440636 144.40625 32.096886 143.79688Q31.737513 143.1875 31.175013 142.90625L29.440638 142.90625L29.440638 144.04688Q29.440638 146.70312 31.003138 146.70312Q31.675013 146.70312 32.065636 146.25Q32.440636 145.79688 32.440636 145.07812ZM31.300013 133.98438Q30.721888 133.98438 30.393763 134.42188Q30.065638 134.85938 29.831263 135.96875Q29.596888 137.0625 29.268763 137.70312Q28.940638 138.34375 28.487513 138.65625Q28.034388 138.96875 27.409388 138.96875Q26.378138 138.96875 25.659388 138.09375Q24.940638 137.20312 24.940638 135.84375Q24.940638 134.40625 25.690638 133.51562Q26.425013 132.60938 27.581263 132.60938L27.581263 134.0625Q26.987513 134.0625 26.565638 134.57812Q26.128138 135.07812 26.128138 135.84375Q26.128138 136.625 26.471888 137.07812Q26.815638 137.51562 27.362513 137.51562Q27.893763 137.51562 28.159388 137.10938Q28.425013 136.6875 28.675013 135.60938Q28.909388 134.53125 29.253138 133.85938Q29.581263 133.1875 30.050013 132.85938Q30.518763 132.53125 31.206263 132.53125Q32.33126 132.53125 33.01876 133.4375Q33.70626 134.34375 33.70626 135.79688Q33.70626 136.8125 33.346886 137.59375Q32.98751 138.375 32.346886 138.8125Q31.690638 139.25 30.940638 139.25L30.940638 137.8125Q31.675013 137.76562 32.096886 137.23438Q32.51876 136.6875 32.51876 135.79688Q32.51876 134.96875 32.190636 134.48438Q31.862513 133.98438 31.300013 133.98438ZM29.253138 127.25Q27.300013 127.25 26.128138 126.328125Q24.940638 125.40625 24.940638 123.921875Q24.940638 122.4375 25.956263 121.5625L21.550013 121.5625L21.550013 120.125L33.55001 120.125L33.55001 121.453125L32.64376 121.515625Q33.70626 122.390625 33.70626 123.9375Q33.70626 125.40625 32.503136 126.328125Q31.300013 127.25 29.362513 127.25L29.253138 127.25ZM29.409388 125.8125Q30.846888 125.8125 31.659388 125.21875Q32.471886 124.625 32.471886 123.578125Q32.471886 122.203125 31.237513 121.5625L27.362513 121.5625Q26.159388 122.21875 26.159388 123.5625Q26.159388 124.625 26.987513 125.21875Q27.800013 125.8125 29.409388 125.8125ZM33.55001 112.6875Q33.30001 112.8125 32.659386 112.890625Q33.70626 113.890625 33.70626 115.296875Q33.70626 116.546875 33.003136 117.34375Q32.284386 118.140625 31.206263 118.140625Q29.878138 118.140625 29.159388 117.140625Q28.425013 116.140625 28.425013 114.3125L28.425013 112.90625L27.753138 112.90625Q27.003138 112.90625 26.550013 113.359375Q26.096888 113.8125 26.096888 114.703125Q26.096888 115.46875 26.487513 116.0Q26.878138 116.515625 27.440638 116.515625L27.440638 117.96875Q26.800013 117.96875 26.221888 117.53125Q25.628138 117.078125 25.284388 116.3125Q24.940638 115.53125 24.940638 114.609375Q24.940638 113.15625 25.675013 112.328125Q26.393763 111.5 27.675013 111.46875L31.565638 111.46875Q32.73751 111.46875 33.42501 111.171875L33.55001 111.171875L33.55001 112.6875ZM32.440636 115.078125Q32.440636 114.40625 32.096886 113.796875Q31.737513 113.1875 31.175013 112.90625L29.440638 112.90625L29.440638 114.046875Q29.440638 116.703125 31.003138 116.703125Q31.675013 116.703125 32.065636 116.25Q32.440636 115.796875 32.440636 115.078125ZM31.300013 103.984375Q30.721888 103.984375 30.393763 104.421875Q30.065638 104.859375 29.831263 105.96875Q29.596888 107.0625 29.268763 107.703125Q28.940638 108.34375 28.487513 108.65625Q28.034388 108.96875 27.409388 108.96875Q26.378138 108.96875 25.659388 108.09375Q24.940638 107.203125 24.940638 105.84375Q24.940638 104.40625 25.690638 103.515625Q26.425013 102.609375 27.581263 102.609375L27.581263 104.0625Q26.987513 104.0625 26.565638 104.578125Q26.128138 105.078125 26.128138 105.84375Q26.128138 106.625 26.471888 107.078125Q26.815638 107.515625 27.362513 107.515625Q27.893763 107.515625 28.159388 107.109375Q28.425013 106.6875 28.675013 105.609375Q28.909388 104.53125 29.253138 103.859375Q29.581263 103.1875 30.050013 102.859375Q30.518763 102.53125 31.206263 102.53125Q32.33126 102.53125 33.01876 103.4375Q33.70626 104.34375 33.70626 105.796875Q33.70626 106.8125 33.346886 107.59375Q32.98751 108.375 32.346886 108.8125Q31.690638 109.25 30.940638 109.25L30.940638 107.8125Q31.675013 107.765625 32.096886 107.234375Q32.51876 106.6875 32.51876 105.796875Q32.51876 104.96875 32.190636 104.484375Q31.862513 103.984375 31.300013 103.984375ZM23.050013 94.9375L25.096888 94.9375L25.096888 93.359375L26.206263 93.359375L26.206263 94.9375L31.456263 94.9375Q31.956263 94.9375 32.221886 94.734375Q32.471886 94.515625 32.471886 94.015625Q32.471886 93.765625 32.378136 93.328125L33.55001 93.328125Q33.70626 93.890625 33.70626 94.4375Q33.70626 95.40625 33.128136 95.90625Q32.534386 96.390625 31.456263 96.390625L26.206263 96.390625L26.206263 97.921875L25.096888 97.921875L25.096888 96.390625L23.050013 96.390625L23.050013 94.9375ZM33.55001 86.6875Q33.30001 86.8125 32.659386 86.890625Q33.70626 87.890625 33.70626 89.296875Q33.70626 90.546875 33.003136 91.34375Q32.284386 92.140625 31.206263 92.140625Q29.878138 92.140625 29.159388 91.140625Q28.425013 90.140625 28.425013 88.3125L28.425013 86.90625L27.753138 86.90625Q27.003138 86.90625 26.550013 87.359375Q26.096888 87.8125 26.096888 88.703125Q26.096888 89.46875 26.487513 90.0Q26.878138 90.515625 27.440638 90.515625L27.440638 91.96875Q26.800013 91.96875 26.221888 91.53125Q25.628138 91.078125 25.284388 90.3125Q24.940638 89.53125 24.940638 88.609375Q24.940638 87.15625 25.675013 86.328125Q26.393763 85.5 27.675013 85.46875L31.565638 85.46875Q32.73751 85.46875 33.42501 85.171875L33.55001 85.171875L33.55001 86.6875ZM32.440636 89.078125Q32.440636 88.40625 32.096886 87.796875Q31.737513 87.1875 31.175013 86.90625L29.440638 86.90625L29.440638 88.046875Q29.440638 90.703125 31.003138 90.703125Q31.675013 90.703125 32.065636 90.25Q32.440636 89.796875 32.440636 89.078125ZM26.393763 78.8125Q26.331263 79.140625 26.331263 79.53125Q26.331263 80.953125 27.550013 81.453125L33.55001 81.453125L33.55001 82.90625L25.096888 82.90625L25.096888 81.5L26.065638 81.46875Q24.940638 80.765625 24.940638 79.453125Q24.940638 79.03125 25.050013 78.8125L26.393763 78.8125ZM33.70626 74.390625Q33.70626 76.109375 32.58126 77.1875Q31.440638 78.265625 29.550013 78.265625L29.284388 78.265625Q28.034388 78.265625 27.050013 77.796875Q26.050013 77.3125 25.503138 76.453125Q24.940638 75.578125 24.940638 74.578125Q24.940638 72.921875 26.034388 72.015625Q27.112513 71.09375 29.128138 71.09375L29.737513 71.09375L29.737513 76.828125Q30.987513 76.796875 31.753138 76.09375Q32.51876 75.390625 32.51876 74.3125Q32.51876 73.546875 32.20626 73.015625Q31.893763 72.484375 31.378138 72.09375L32.065636 71.203125Q33.70626 72.265625 33.70626 74.390625ZM26.128138 74.578125Q26.128138 75.453125 26.768763 76.046875Q27.393763 76.640625 28.550013 76.78125L28.550013 72.546875L28.440638 72.546875Q27.331263 72.609375 26.737513 73.140625Q26.128138 73.671875 26.128138 74.578125ZM33.55001 69.1875L26.206263 69.1875L26.206263 70.53125L25.096888 70.53125L25.096888 69.1875L24.221888 69.1875Q22.862513 69.1875 22.128138 68.46875Q21.378138 67.734375 21.378138 66.40625Q21.378138 65.90625 21.518763 65.421875L22.690638 65.5Q22.612513 65.859375 22.612513 66.28125Q22.612513 66.984375 23.034388 67.375Q23.440638 67.75 24.206263 67.75L25.096888 67.75L25.096888 65.9375L26.206263 65.9375L26.206263 67.75L33.55001 67.75L33.55001 69.1875ZM33.55001 58.6875Q33.30001 58.8125 32.659386 58.890625Q33.70626 59.890625 33.70626 61.296875Q33.70626 62.546875 33.003136 63.34375Q32.284386 64.140625 31.206263 64.140625Q29.878138 64.140625 29.159388 63.140625Q28.425013 62.140625 28.425013 60.3125L28.425013 58.90625L27.753138 58.90625Q27.003138 58.90625 26.550013 59.359375Q26.096888 59.8125 26.096888 60.703125Q26.096888 61.46875 26.487513 62.0Q26.878138 62.515625 27.440638 62.515625L27.440638 63.96875Q26.800013 63.96875 26.221888 63.53125Q25.628138 63.078125 25.284388 62.3125Q24.940638 61.53125 24.940638 60.609375Q24.940638 59.15625 25.675013 58.328125Q26.393763 57.5 27.675013 57.46875L31.565638 57.46875Q32.73751 57.46875 33.42501 57.171875L33.55001 57.171875L33.55001 58.6875ZM32.440636 61.078125Q32.440636 60.40625 32.096886 59.796875Q31.737513 59.1875 31.175013 58.90625L29.440638 58.90625L29.440638 60.046875Q29.440638 62.703125 31.003138 62.703125Q31.675013 62.703125 32.065636 62.25Q32.440636 61.796875 32.440636 61.078125ZM31.300013 49.984375Q30.721888 49.984375 30.393763 50.421875Q30.065638 50.859375 29.831263 51.96875Q29.596888 53.0625 29.268763 53.703125Q28.940638 54.34375 28.487513 54.65625Q28.034388 54.96875 27.409388 54.96875Q26.378138 54.96875 25.659388 54.09375Q24.940638 53.203125 24.940638 51.84375Q24.940638 50.40625 25.690638 49.515625Q26.425013 48.609375 27.581263 48.609375L27.581263 50.0625Q26.987513 50.0625 26.565638 50.578125Q26.128138 51.078125 26.128138 51.84375Q26.128138 52.625 26.471888 53.078125Q26.815638 53.515625 27.362513 53.515625Q27.893763 53.515625 28.159388 53.109375Q28.425013 52.6875 28.675013 51.609375Q28.909388 50.53125 29.253138 49.859375Q29.581263 49.1875 30.050013 48.859375Q30.518763 48.53125 31.206263 48.53125Q32.33126 48.53125 33.01876 49.4375Q33.70626 50.34375 33.70626 51.796875Q33.70626 52.8125 33.346886 53.59375Q32.98751 54.375 32.346886 54.8125Q31.690638 55.25 30.940638 55.25L30.940638 53.8125Q31.675013 53.765625 32.096886 53.234375Q32.51876 52.6875 32.51876 51.796875Q32.51876 50.96875 32.190636 50.484375Q31.862513 49.984375 31.300013 49.984375Z" fill-rule="nonzero"/><path fill="#757575" d="M81.6125 289.3094Q81.6125 291.21564 80.95625 292.15314Q80.31563 293.075 78.925 293.075Q77.56563 293.075 76.90938 292.16876Q76.25313 291.2625 76.22188 289.45L76.22188 288.0125Q76.22188 286.1219 76.8625 285.21564Q77.51875 284.29376 78.90938 284.29376Q80.28438 284.29376 80.94063 285.1844Q81.59688 286.0594 81.6125 287.90314L81.6125 289.3094ZM80.51875 287.825Q80.51875 286.45 80.12813 285.825Q79.75313 285.1844 78.90938 285.1844Q78.08125 285.1844 77.69063 285.825Q77.31563 286.45 77.31563 287.7469L77.31563 289.48126Q77.31563 290.85626 77.70625 291.52814Q78.1125 292.1844 78.925 292.1844Q79.72188 292.1844 80.1125 291.5594Q80.50313 290.9344 80.51875 289.60626L80.51875 287.825Z" fill-rule="nonzero"/><path fill="#757575" d="M65.81563 227.35L64.7375 227.35L64.7375 220.13126L62.55 220.92813L62.55 219.94376L65.65938 218.77188L65.81563 218.77188L65.81563 227.35ZM74.6125 223.70938Q74.6125 225.61563 73.95625 226.55313Q73.31563 227.475 71.925 227.475Q70.56563 227.475 69.90938 226.56876Q69.25313 225.6625 69.22188 223.85L69.22188 222.4125Q69.22188 220.52188 69.8625 219.61563Q70.51875 218.69376 71.90938 218.69376Q73.28438 218.69376 73.94063 219.58438Q74.59688 220.45938 74.6125 222.30313L74.6125 223.70938ZM73.51875 222.225Q73.51875 220.85 73.12813 220.225Q72.75313 219.58438 71.90938 219.58438Q71.08125 219.58438 70.69063 220.225Q70.31563 220.85 70.31563 222.14688L70.31563 223.88126Q70.31563 225.25626 70.70625 225.92813Q71.1125 226.58438 71.925 226.58438Q72.72188 226.58438 73.1125 225.95938Q73.50313 225.33438 73.51875 224.00626L73.51875 222.225ZM81.6125 223.70938Q81.6125 225.61563 80.95625 226.55313Q80.31563 227.475 78.925 227.475Q77.56563 227.475 76.90938 226.56876Q76.25313 225.6625 76.22188 223.85L76.22188 222.4125Q76.22188 220.52188 76.8625 219.61563Q77.51875 218.69376 78.90938 218.69376Q80.28438 218.69376 80.94063 219.58438Q81.59688 220.45938 81.6125 222.30313L81.6125 223.70938ZM80.51875 222.225Q80.51875 220.85 80.12813 220.225Q79.75313 219.58438 78.90938 219.58438Q78.08125 219.58438 77.69063 220.225Q77.31563 220.85 77.31563 222.14688L77.31563 223.88126Q77.31563 225.25626 77.70625 225.92813Q78.1125 226.58438 78.925 226.58438Q79.72188 226.58438 80.1125 225.95938Q80.50313 225.33438 80.51875 224.00626L80.51875 222.225Z" fill-rule="nonzero"/><path fill="#757575" d="M67.84688 161.75L62.253124 161.75L62.253124 160.96875L65.20625 157.6875Q65.8625 156.9375 66.1125 156.48438Q66.3625 156.01562 66.3625 155.51562Q66.3625 154.84375 65.95625 154.42188Q65.56563 153.98438 64.87813 153.98438Q64.08125 153.98438 63.628124 154.45312Q63.175 154.90625 63.175 155.73438L62.096874 155.73438Q62.096874 154.54688 62.846874 153.82812Q63.6125 153.09375 64.87813 153.09375Q66.08125 153.09375 66.76875 153.71875Q67.45625 154.34375 67.45625 155.39062Q67.45625 156.64062 65.84688 158.39062L63.565624 160.85938L67.84688 160.85938L67.84688 161.75ZM74.6125 158.10938Q74.6125 160.01562 73.95625 160.95312Q73.31563 161.875 71.925 161.875Q70.56563 161.875 69.90938 160.96875Q69.25313 160.0625 69.22188 158.25L69.22188 156.8125Q69.22188 154.92188 69.8625 154.01562Q70.51875 153.09375 71.90938 153.09375Q73.28438 153.09375 73.94063 153.98438Q74.59688 154.85938 74.6125 156.70312L74.6125 158.10938ZM73.51875 156.625Q73.51875 155.25 73.12813 154.625Q72.75313 153.98438 71.90938 153.98438Q71.08125 153.98438 70.69063 154.625Q70.31563 155.25 70.31563 156.54688L70.31563 158.28125Q70.31563 159.65625 70.70625 160.32812Q71.1125 160.98438 71.925 160.98438Q72.72188 160.98438 73.1125 160.35938Q73.50313 159.73438 73.51875 158.40625L73.51875 156.625ZM81.6125 158.10938Q81.6125 160.01562 80.95625 160.95312Q80.31563 161.875 78.925 161.875Q77.56563 161.875 76.90938 160.96875Q76.25313 160.0625 76.22188 158.25L76.22188 156.8125Q76.22188 154.92188 76.8625 154.01562Q77.51875 153.09375 78.90938 153.09375Q80.28438 153.09375 80.94063 153.98438Q81.59688 154.85938 81.6125 156.70312L81.6125 158.10938ZM80.51875 156.625Q80.51875 155.25 80.12813 154.625Q79.75313 153.98438 78.90938 153.98438Q78.08125 153.98438 77.69063 154.625Q77.31563 155.25 77.31563 156.54688L77.31563 158.28125Q77.31563 159.65625 77.70625 160.32812Q78.1125 160.98438 78.925 160.98438Q79.72188 160.98438 80.1125 160.35938Q80.50313 159.73438 80.51875 158.40625L80.51875 156.625Z" fill-rule="nonzero"/><path fill="#757575" d="M63.83125 91.35313L64.64375 91.35313Q65.425 91.3375 65.8625 90.94688Q66.3 90.55625 66.3 89.88438Q66.3 88.38438 64.8 88.38438Q64.09688 88.38438 63.675 88.79063Q63.26875 89.19688 63.26875 89.85313L62.175 89.85313Q62.175 88.8375 62.909374 88.16563Q63.659374 87.49375 64.8 87.49375Q66.00313 87.49375 66.69063 88.13438Q67.37813 88.775 67.37813 89.91563Q67.37813 90.47813 67.01875 90.99375Q66.65938 91.50938 66.03438 91.775Q66.7375 91.99375 67.1125 92.50938Q67.50313 93.025 67.50313 93.775Q67.50313 94.91563 66.75313 95.60313Q66.00313 96.275 64.8 96.275Q63.6125 96.275 62.846874 95.61875Q62.096874 94.9625 62.096874 93.9L63.190624 93.9Q63.190624 94.57188 63.628124 94.97813Q64.06563 95.38438 64.81563 95.38438Q65.59688 95.38438 66.00313 94.97813Q66.425 94.55625 66.425 93.79063Q66.425 93.05625 65.97188 92.66563Q65.51875 92.25938 64.64375 92.24375L63.83125 92.24375L63.83125 91.35313ZM74.6125 92.50938Q74.6125 94.41563 73.95625 95.35313Q73.31563 96.275 71.925 96.275Q70.56563 96.275 69.90938 95.36875Q69.25313 94.4625 69.22188 92.65L69.22188 91.2125Q69.22188 89.32188 69.8625 88.41563Q70.51875 87.49375 71.90938 87.49375Q73.28438 87.49375 73.94063 88.38438Q74.59688 89.25938 74.6125 91.10313L74.6125 92.50938ZM73.51875 91.025Q73.51875 89.65 73.12813 89.025Q72.75313 88.38438 71.90938 88.38438Q71.08125 88.38438 70.69063 89.025Q70.31563 89.65 70.31563 90.94688L70.31563 92.68125Q70.31563 94.05625 70.70625 94.72813Q71.1125 95.38438 71.925 95.38438Q72.72188 95.38438 73.1125 94.75938Q73.50313 94.13438 73.51875 92.80625L73.51875 91.025ZM81.6125 92.50938Q81.6125 94.41563 80.95625 95.35313Q80.31563 96.275 78.925 96.275Q77.56563 96.275 76.90938 95.36875Q76.25313 94.4625 76.22188 92.65L76.22188 91.2125Q76.22188 89.32188 76.8625 88.41563Q77.51875 87.49375 78.90938 87.49375Q80.28438 87.49375 80.94063 88.38438Q81.59688 89.25938 81.6125 91.10313L81.6125 92.50938ZM80.51875 91.025Q80.51875 89.65 80.12813 89.025Q79.75313 88.38438 78.90938 88.38438Q78.08125 88.38438 77.69063 89.025Q77.31563 89.65 77.31563 90.94688L77.31563 92.68125Q77.31563 94.05625 77.70625 94.72813Q78.1125 95.38438 78.925 95.38438Q79.72188 95.38438 80.1125 94.75938Q80.50313 94.13438 80.51875 92.80625L80.51875 91.025Z" fill-rule="nonzero"/><path fill="#757575" d="M66.83125 27.690624L68.01875 27.690624L68.01875 28.565624L66.83125 28.565624L66.83125 30.55L65.75313 30.55L65.75313 28.565624L61.8625 28.565624L61.8625 27.925L65.675 22.01875L66.83125 22.01875L66.83125 27.690624ZM63.096874 27.690624L65.75313 27.690624L65.75313 23.503124L65.6125 23.7375L63.096874 27.690624ZM74.6125 26.909374Q74.6125 28.815624 73.95625 29.753124Q73.31563 30.675 71.925 30.675Q70.56563 30.675 69.90938 29.76875Q69.25313 28.8625 69.22188 27.05L69.22188 25.6125Q69.22188 23.721874 69.8625 22.815624Q70.51875 21.89375 71.90938 21.89375Q73.28438 21.89375 73.94063 22.784374Q74.59688 23.659374 74.6125 25.503124L74.6125 26.909374ZM73.51875 25.425Q73.51875 24.05 73.12813 23.425Q72.75313 22.784374 71.90938 22.784374Q71.08125 22.784374 70.69063 23.425Q70.31563 24.05 70.31563 25.346874L70.31563 27.08125Q70.31563 28.45625 70.70625 29.128124Q71.1125 29.784374 71.925 29.784374Q72.72188 29.784374 73.1125 29.159374Q73.50313 28.534374 73.51875 27.20625L73.51875 25.425ZM81.6125 26.909374Q81.6125 28.815624 80.95625 29.753124Q80.31563 30.675 78.925 30.675Q77.56563 30.675 76.90938 29.76875Q76.25313 28.8625 76.22188 27.05L76.22188 25.6125Q76.22188 23.721874 76.8625 22.815624Q77.51875 21.89375 78.90938 21.89375Q80.28438 21.89375 80.94063 22.784374Q81.59688 23.659374 81.6125 25.503124L81.6125 26.909374ZM80.51875 25.425Q80.51875 24.05 80.12813 23.425Q79.75313 22.784374 78.90938 22.784374Q78.08125 22.784374 77.69063 23.425Q77.31563 24.05 77.31563 25.346874L77.31563 27.08125Q77.31563 28.45625 77.70625 29.128124Q78.1125 29.784374 78.925 29.784374Q79.72188 29.784374 80.1125 29.159374Q80.50313 28.534374 80.51875 27.20625L80.51875 25.425Z" fill-rule="nonzero"/><path fill="#757575" d="M137.90898 306.45L132.31523 306.45L132.31523 305.66876L135.26836 302.3875Q135.9246 301.6375 136.1746 301.1844Q136.4246 300.71564 136.4246 300.21564Q136.4246 299.54376 136.01836 299.1219Q135.62773 298.6844 134.94023 298.6844Q134.14336 298.6844 133.69023 299.15314Q133.2371 299.60626 133.2371 300.4344L132.15898 300.4344Q132.15898 299.2469 132.90898 298.52814Q133.6746 297.79376 134.94023 297.79376Q136.14336 297.79376 136.83086 298.41876Q137.51836 299.04376 137.51836 300.09064Q137.51836 301.34064 135.90898 303.09064L133.62773 305.5594L137.90898 305.5594L137.90898 306.45Z" fill-rule="nonzero"/><path fill="#757575" d="M203.52266 303.59064L204.71016 303.59064L204.71016 304.46564L203.52266 304.46564L203.52266 306.45L202.44453 306.45L202.44453 304.46564L198.55391 304.46564L198.55391 303.825L202.36641 297.91876L203.52266 297.91876L203.52266 303.59064ZM199.78828 303.59064L202.44453 303.59064L202.44453 299.40314L202.30391 299.6375L199.78828 303.59064Z" fill-rule="nonzero"/><path fill="#757575" d="M269.83945 297.91876L269.83945 298.825L269.63632 298.825Q268.3707 298.85626 267.6207 299.59064Q266.8707 300.3094 266.7457 301.6219Q267.4332 300.85626 268.58945 300.85626Q269.69882 300.85626 270.3707 301.6375Q271.04257 302.41876 271.04257 303.66876Q271.04257 304.98126 270.32382 305.77814Q269.60507 306.575 268.38632 306.575Q267.16757 306.575 266.40195 305.6375Q265.65195 304.6844 265.65195 303.2L265.65195 302.79376Q265.65195 300.4344 266.65195 299.1844Q267.65195 297.9344 269.63632 297.91876L269.83945 297.91876ZM268.41757 301.7625Q267.85507 301.7625 267.38632 302.09064Q266.91757 302.41876 266.73007 302.9344L266.73007 303.325Q266.73007 304.3875 267.19882 305.02814Q267.6832 305.66876 268.38632 305.66876Q269.1207 305.66876 269.54257 305.1375Q269.96445 304.59064 269.96445 303.71564Q269.96445 302.84064 269.54257 302.3094Q269.1207 301.7625 268.41757 301.7625Z" fill-rule="nonzero"/><path fill="#757575" d="M337.39062 300.1375Q337.39062 300.77814 337.04688 301.27814Q336.70312 301.77814 336.14062 302.0594Q336.79688 302.34064 337.1875 302.90314Q337.57812 303.45 337.57812 304.15314Q337.57812 305.2469 336.82812 305.91876Q336.09375 306.575 334.875 306.575Q333.64062 306.575 332.89062 305.91876Q332.15625 305.2469 332.15625 304.15314Q332.15625 303.45 332.53125 302.90314Q332.90625 302.34064 333.57812 302.0594Q333.01562 301.77814 332.6875 301.27814Q332.35938 300.77814 332.35938 300.1375Q332.35938 299.0594 333.04688 298.4344Q333.73438 297.79376 334.875 297.79376Q336.0 297.79376 336.6875 298.4344Q337.39062 299.0594 337.39062 300.1375ZM336.5 304.1219Q336.5 303.40314 336.04688 302.96564Q335.59375 302.5125 334.85938 302.5125Q334.125 302.5125 333.67188 302.96564Q333.23438 303.40314 333.23438 304.1375Q333.23438 304.85626 333.67188 305.27814Q334.10938 305.6844 334.875 305.6844Q335.625 305.6844 336.0625 305.2625Q336.5 304.84064 336.5 304.1219ZM334.875 298.6844Q334.23438 298.6844 333.82812 299.09064Q333.4375 299.48126 333.4375 300.16876Q333.4375 300.8094 333.82812 301.21564Q334.21875 301.6219 334.85938 301.6219Q335.51562 301.6219 335.90625 301.21564Q336.29688 300.8094 336.29688 300.16876Q336.29688 299.5125 335.89062 299.10626Q335.48438 298.6844 334.875 298.6844Z" fill-rule="nonzero"/><path fill="#757575" d="M398.89493 306.45L397.8168 306.45L397.8168 299.23126L395.6293 300.02814L395.6293 299.04376L398.73868 297.8719L398.89493 297.8719L398.89493 306.45ZM407.6918 302.8094Q407.6918 304.71564 407.03555 305.65314Q406.39493 306.575 405.0043 306.575Q403.64493 306.575 402.98868 305.66876Q402.33243 304.7625 402.30118 302.95L402.30118 301.5125Q402.30118 299.6219 402.9418 298.71564Q403.59805 297.79376 404.98868 297.79376Q406.36368 297.79376 407.01993 298.6844Q407.67618 299.5594 407.6918 301.40314L407.6918 302.8094ZM406.59805 301.325Q406.59805 299.95 406.20743 299.325Q405.83243 298.6844 404.98868 298.6844Q404.16055 298.6844 403.76993 299.325Q403.39493 299.95 403.39493 301.2469L403.39493 302.98126Q403.39493 304.35626 403.78555 305.02814Q404.1918 305.6844 405.0043 305.6844Q405.80118 305.6844 406.1918 305.0594Q406.58243 304.4344 406.59805 303.10626L406.59805 301.325Z" fill-rule="nonzero"/><path fill="#757575" d="M465.52423 306.45L464.4461 306.45L464.4461 299.23126L462.2586 300.02814L462.2586 299.04376L465.36798 297.8719L465.52423 297.8719L465.52423 306.45ZM474.55548 306.45L468.96173 306.45L468.96173 305.66876L471.91486 302.3875Q472.5711 301.6375 472.8211 301.1844Q473.0711 300.71564 473.0711 300.21564Q473.0711 299.54376 472.66486 299.1219Q472.27423 298.6844 471.58673 298.6844Q470.78986 298.6844 470.33673 299.15314Q469.8836 299.60626 469.8836 300.4344L468.80548 300.4344Q468.80548 299.2469 469.55548 298.52814Q470.3211 297.79376 471.58673 297.79376Q472.78986 297.79376 473.47736 298.41876Q474.16486 299.04376 474.16486 300.09064Q474.16486 301.34064 472.55548 303.09064L470.27423 305.5594L474.55548 305.5594L474.55548 306.45Z" fill-rule="nonzero"/><path fill="#757575" d="M532.1535 306.45L531.0754 306.45L531.0754 299.23126L528.8879 300.02814L528.8879 299.04376L531.99725 297.8719L532.1535 297.8719L532.1535 306.45ZM540.1691 303.59064L541.3566 303.59064L541.3566 304.46564L540.1691 304.46564L540.1691 306.45L539.091 306.45L539.091 304.46564L535.2004 304.46564L535.2004 303.825L539.0129 297.91876L540.1691 297.91876L540.1691 303.59064ZM536.43475 303.59064L539.091 303.59064L539.091 299.40314L538.9504 299.6375L536.43475 303.59064Z" fill-rule="nonzero"/></svg>