<svg version="1.1" viewBox="0.0 0.0 600.0 371.0" fill="none" stroke="none" stroke-linecap="square" stroke-miterlimit="10" width="600" height="371" xmlns:xlink="http://www.w3.org/1999/xlink" xmlns="http://www.w3.org/2000/svg"><path fill="#ffffff" d="M0 0L600.0 0L600.0 371.0L0 371.0L0 0Z" fill-rule="nonzero"/><path fill="#4285f4" d="M300.0 18.55C355.29413 18.55 407.0012 45.927483 438.08112 91.66018L300.0 185.5Z" fill-rule="nonzero"/><path fill="#db4437" d="M438.08112 91.66018C469.6832 138.16124 475.75735 197.4456 454.2417 249.38899C432.72604 301.3324 386.51056 338.9577 331.28333 349.49286L300.0 185.5Z" fill-rule="nonzero"/><path fill="#0f9d58" d="M176.8722 72.75319C208.49669 38.2169 253.17197 18.55 300.0 18.55L300.0 185.5Z" fill-rule="nonzero"/><path fill="#f4b400" d="M331.28333 349.49286C260.61682 362.9732 189.26198 329.66956 154.20883 266.8464C119.15569 204.02325 128.28824 125.81043 176.8722 72.75319L300.0 185.5Z" fill-rule="nonzero"/><path fill="#757575" d="M24.253124 33.606087L20.675 33.606087L19.878124 35.84046L18.721874 35.84046L21.971874 27.309212L22.95625 27.309212L26.221874 35.84046L25.065624 35.84046L24.253124 33.606087ZM21.01875 32.68421L23.925 32.68421L22.471874 28.699837L21.01875 32.68421ZM29.909374 35.074837Q30.4875 35.074837 30.925 34.731087Q31.3625 34.37171 31.409374 33.84046L32.440624 33.84046Q32.409374 34.387337 32.05 34.887337Q31.70625 35.37171 31.128124 35.668587Q30.565624 35.96546 29.909374 35.96546Q28.6125 35.96546 27.846874 35.106087Q27.096874 34.231087 27.096874 32.731087L27.096874 32.543587Q27.096874 31.621712 27.425 30.902962Q27.76875 30.184212 28.39375 29.793587Q29.034374 29.387337 29.909374 29.387337Q30.971874 29.387337 31.675 30.027962Q32.39375 30.652962 32.440624 31.684212L31.409374 31.684212Q31.3625 31.059212 30.940624 30.668587Q30.51875 30.277962 29.909374 30.277962Q29.08125 30.277962 28.628124 30.871712Q28.175 31.465462 28.175 32.59046L28.175 32.793587Q28.175 33.887337 28.628124 34.481087Q29.08125 35.074837 29.909374 35.074837ZM34.55 35.84046L33.471874 35.84046L33.471874 29.496712L34.55 29.496712L34.55 35.84046ZM33.378124 27.824837Q33.378124 27.559212 33.534374 27.371712Q33.70625 27.184212 34.01875 27.184212Q34.33125 27.184212 34.4875 27.371712Q34.659374 27.559212 34.659374 27.824837Q34.659374 28.074837 34.4875 28.262337Q34.33125 28.434212 34.01875 28.434212Q33.70625 28.434212 33.534374 28.262337Q33.378124 28.074837 33.378124 27.824837ZM37.39375 29.496712L37.425 30.199837Q38.1125 29.387337 39.3 29.387337Q40.628124 29.387337 41.1125 30.402962Q41.425 29.949837 41.925 29.668587Q42.440624 29.387337 43.128124 29.387337Q45.221874 29.387337 45.253124 31.590462L45.253124 35.84046L44.175 35.84046L44.175 31.652962Q44.175 30.981087 43.8625 30.652962Q43.55 30.309212 42.815624 30.309212Q42.20625 30.309212 41.8 30.668587Q41.409374 31.027962 41.346874 31.637337L41.346874 35.84046L40.26875 35.84046L40.26875 31.684212Q40.26875 30.309212 38.909374 30.309212Q37.846874 30.309212 37.45625 31.215462L37.45625 35.84046L36.3625 35.84046L36.3625 29.496712L37.39375 29.496712ZM51.284374 35.84046Q51.190624 35.65296 51.128124 35.168587Q50.378124 35.96546 49.33125 35.96546Q48.39375 35.96546 47.784374 35.43421Q47.190624 34.90296 47.190624 34.074837Q47.190624 33.09046 47.940624 32.543587Q48.690624 31.996712 50.065624 31.996712L51.1125 31.996712L51.1125 31.496712Q51.1125 30.934212 50.76875 30.606087Q50.440624 30.262337 49.76875 30.262337Q49.190624 30.262337 48.8 30.559212Q48.409374 30.840462 48.409374 31.262337L47.315624 31.262337Q47.315624 30.777962 47.64375 30.340462Q47.9875 29.902962 48.565624 29.652962Q49.14375 29.387337 49.83125 29.387337Q50.940624 29.387337 51.55 29.934212Q52.175 30.481087 52.20625 31.434212L52.20625 34.356087Q52.20625 35.231087 52.425 35.74671L52.425 35.84046L51.284374 35.84046ZM49.4875 35.012337Q50.003124 35.012337 50.45625 34.74671Q50.909374 34.481087 51.1125 34.05921L51.1125 32.762337L50.26875 32.762337Q48.26875 32.762337 48.26875 33.93421Q48.26875 34.43421 48.6125 34.731087Q48.95625 35.012337 49.4875 35.012337ZM57.1125 32.62171Q57.1125 31.152962 57.8 30.277962Q58.4875 29.387337 59.6125 29.387337Q60.721874 29.387337 61.378124 30.137337L61.378124 26.840462L62.45625 26.840462L62.45625 35.84046L61.45625 35.84046L61.409374 35.15296Q60.753124 35.96546 59.596874 35.96546Q58.503124 35.96546 57.8 35.05921Q57.1125 34.15296 57.1125 32.699837L57.1125 32.62171ZM58.190624 32.74671Q58.190624 33.824837 58.628124 34.43421Q59.08125 35.043587 59.8625 35.043587Q60.89375 35.043587 61.378124 34.106087L61.378124 31.199837Q60.89375 30.309212 59.878124 30.309212Q59.08125 30.309212 58.628124 30.918587Q58.190624 31.527962 58.190624 32.74671ZM67.00313 35.96546Q65.70625 35.96546 64.89375 35.12171Q64.09688 34.262337 64.09688 32.84046L64.09688 32.65296Q64.09688 31.699837 64.45625 30.965462Q64.81563 30.215462 65.45625 29.809212Q66.1125 29.387337 66.8625 29.387337Q68.09688 29.387337 68.78438 30.199837Q69.47188 31.012337 69.47188 32.52796L69.47188 32.981087L65.175 32.981087Q65.20625 33.918587 65.72188 34.49671Q66.25313 35.074837 67.06563 35.074837Q67.62813 35.074837 68.01875 34.84046Q68.425 34.606087 68.7375 34.21546L69.39375 34.731087Q68.59688 35.96546 67.00313 35.96546ZM66.8625 30.277962Q66.20625 30.277962 65.75313 30.762337Q65.31563 31.231087 65.22188 32.09046L68.39375 32.09046L68.39375 32.012337Q68.34688 31.184212 67.94063 30.731087Q67.55 30.277962 66.8625 30.277962ZM78.84688 35.84046L73.25313 35.84046L73.25313 35.05921L76.20625 31.777962Q76.8625 31.027962 77.1125 30.574837Q77.3625 30.106087 77.3625 29.606087Q77.3625 28.934212 76.95625 28.512337Q76.56563 28.074837 75.87813 28.074837Q75.08125 28.074837 74.62813 28.543587Q74.175 28.996712 74.175 29.824837L73.09688 29.824837Q73.09688 28.637337 73.84688 27.918587Q74.6125 27.184212 75.87813 27.184212Q77.08125 27.184212 77.76875 27.809212Q78.45625 28.434212 78.45625 29.481087Q78.45625 30.731087 76.84688 32.481087L74.56563 34.949837L78.84688 34.949837L78.84688 35.84046ZM85.6125 32.199837Q85.6125 34.106087 84.95625 35.043587Q84.31563 35.96546 82.925 35.96546Q81.56563 35.96546 80.90938 35.05921Q80.25313 34.15296 80.22188 32.34046L80.22188 30.902962Q80.22188 29.012337 80.8625 28.106087Q81.51875 27.184212 82.90938 27.184212Q84.28438 27.184212 84.94063 28.074837Q85.59688 28.949837 85.6125 30.793587L85.6125 32.199837ZM84.51875 30.715462Q84.51875 29.340462 84.12813 28.715462Q83.75313 28.074837 82.90938 28.074837Q82.08125 28.074837 81.69063 28.715462Q81.31563 29.340462 81.31563 30.637337L81.31563 32.37171Q81.31563 33.74671 81.70625 34.418587Q82.1125 35.074837 82.925 35.074837Q83.72188 35.074837 84.1125 34.449837Q84.50313 33.824837 84.51875 32.49671L84.51875 30.715462ZM92.6125 32.199837Q92.6125 34.106087 91.95625 35.043587Q91.31563 35.96546 89.925 35.96546Q88.56563 35.96546 87.90938 35.05921Q87.25313 34.15296 87.22188 32.34046L87.22188 30.902962Q87.22188 29.012337 87.8625 28.106087Q88.51875 27.184212 89.90938 27.184212Q91.28438 27.184212 91.94063 28.074837Q92.59688 28.949837 92.6125 30.793587L92.6125 32.199837ZM91.51875 30.715462Q91.51875 29.340462 91.12813 28.715462Q90.75313 28.074837 89.90938 28.074837Q89.08125 28.074837 88.69063 28.715462Q88.31563 29.340462 88.31563 30.637337L88.31563 32.37171Q88.31563 33.74671 88.70625 34.418587Q89.1125 35.074837 89.925 35.074837Q90.72188 35.074837 91.1125 34.449837Q91.50313 33.824837 91.51875 32.49671L91.51875 30.715462ZM94.15938 28.949837Q94.15938 28.184212 94.64375 27.684212Q95.14375 27.184212 95.90938 27.184212Q96.69063 27.184212 97.175 27.684212Q97.65938 28.184212 97.65938 28.981087L97.65938 29.402962Q97.65938 30.168587 97.15938 30.668587Q96.675 31.152962 95.925 31.152962Q95.15938 31.152962 94.65938 30.668587Q94.15938 30.168587 94.15938 29.356087L94.15938 28.949837ZM94.97188 29.402962Q94.97188 29.856087 95.22188 30.152962Q95.4875 30.449837 95.925 30.449837Q96.34688 30.449837 96.59688 30.168587Q96.84688 29.871712 96.84688 29.371712L96.84688 28.949837Q96.84688 28.496712 96.59688 28.199837Q96.34688 27.887337 95.90938 27.887337Q95.47188 27.887337 95.22188 28.199837Q94.97188 28.496712 94.97188 28.965462L94.97188 29.402962ZM98.31563 33.74671Q98.31563 32.981087 98.8 32.49671Q99.3 31.996712 100.06563 31.996712Q100.83125 31.996712 101.31563 32.49671Q101.81563 32.981087 101.81563 33.793587L101.81563 34.199837Q101.81563 34.96546 101.33125 35.46546Q100.84688 35.96546 100.08125 35.96546Q99.31563 35.96546 98.81563 35.481087Q98.31563 34.981087 98.31563 34.168587L98.31563 33.74671ZM99.12813 34.199837Q99.12813 34.668587 99.37813 34.96546Q99.64375 35.262337 100.08125 35.262337Q100.50313 35.262337 100.75313 34.981087Q101.00313 34.68421 101.00313 34.18421L101.00313 33.74671Q101.00313 33.27796 100.7375 32.99671Q100.4875 32.699837 100.06563 32.699837Q99.64375 32.699837 99.37813 32.99671Q99.12813 33.27796 99.12813 33.77796L99.12813 34.199837ZM96.175 35.199837L95.55 34.80921L99.72188 28.137337L100.33125 28.527962L96.175 35.199837Z" fill-rule="nonzero"/><path fill="#9e9e9e" d="M22.815624 53.84046L21.7375 53.84046L21.7375 46.62171L19.55 47.418587L19.55 46.43421L22.659374 45.262337L22.815624 45.262337L22.815624 53.84046ZM27.83125 49.043587L28.64375 49.043587Q29.425 49.02796 29.8625 48.637337Q30.3 48.24671 30.3 47.574837Q30.3 46.074837 28.8 46.074837Q28.096874 46.074837 27.675 46.481087Q27.26875 46.887337 27.26875 47.543587L26.175 47.543587Q26.175 46.52796 26.909374 45.856087Q27.659374 45.18421 28.8 45.18421Q30.003124 45.18421 30.690624 45.824837Q31.378124 46.46546 31.378124 47.606087Q31.378124 48.168587 31.01875 48.68421Q30.659374 49.199837 30.034374 49.46546Q30.7375 49.68421 31.1125 50.199837Q31.503124 50.71546 31.503124 51.46546Q31.503124 52.606087 30.753124 53.293587Q30.003124 53.96546 28.8 53.96546Q27.6125 53.96546 26.846874 53.30921Q26.096874 52.65296 26.096874 51.59046L27.190624 51.59046Q27.190624 52.262337 27.628124 52.668587Q28.065624 53.074837 28.815624 53.074837Q29.596874 53.074837 30.003124 52.668587Q30.425 52.24671 30.425 51.481087Q30.425 50.74671 29.971874 50.356087Q29.51875 49.949837 28.64375 49.93421L27.83125 49.93421L27.83125 49.043587ZM33.39375 53.27796Q33.39375 52.99671 33.55 52.80921Q33.721874 52.62171 34.05 52.62171Q34.39375 52.62171 34.565624 52.80921Q34.7375 52.99671 34.7375 53.27796Q34.7375 53.543587 34.565624 53.731087Q34.39375 53.90296 34.05 53.90296Q33.721874 53.90296 33.55 53.731087Q33.39375 53.543587 33.39375 53.27796ZM41.846874 53.84046L36.253124 53.84046L36.253124 53.05921L39.20625 49.77796Q39.8625 49.02796 40.1125 48.574837Q40.3625 48.106087 40.3625 47.606087Q40.3625 46.93421 39.95625 46.512337Q39.565624 46.074837 38.878124 46.074837Q38.08125 46.074837 37.628124 46.543587Q37.175 46.99671 37.175 47.824837L36.096874 47.824837Q36.096874 46.637337 36.846874 45.918587Q37.6125 45.18421 38.878124 45.18421Q40.08125 45.18421 40.76875 45.80921Q41.45625 46.43421 41.45625 47.481087Q41.45625 48.731087 39.846874 50.481087L37.565624 52.949837L41.846874 52.949837L41.846874 53.84046ZM43.159374 46.949837Q43.159374 46.18421 43.64375 45.68421Q44.14375 45.18421 44.909374 45.18421Q45.690624 45.18421 46.175 45.68421Q46.659374 46.18421 46.659374 46.981087L46.659374 47.40296Q46.659374 48.168587 46.159374 48.668587Q45.675 49.15296 44.925 49.15296Q44.159374 49.15296 43.659374 48.668587Q43.159374 48.168587 43.159374 47.356087L43.159374 46.949837ZM43.971874 47.40296Q43.971874 47.856087 44.221874 48.15296Q44.4875 48.449837 44.925 48.449837Q45.346874 48.449837 45.596874 48.168587Q45.846874 47.87171 45.846874 47.37171L45.846874 46.949837Q45.846874 46.49671 45.596874 46.199837Q45.346874 45.887337 44.909374 45.887337Q44.471874 45.887337 44.221874 46.199837Q43.971874 46.49671 43.971874 46.96546L43.971874 47.40296ZM47.315624 51.74671Q47.315624 50.981087 47.8 50.49671Q48.3 49.99671 49.065624 49.99671Q49.83125 49.99671 50.315624 50.49671Q50.815624 50.981087 50.815624 51.793587L50.815624 52.199837Q50.815624 52.96546 50.33125 53.46546Q49.846874 53.96546 49.08125 53.96546Q48.315624 53.96546 47.815624 53.481087Q47.315624 52.981087 47.315624 52.168587L47.315624 51.74671ZM48.128124 52.199837Q48.128124 52.668587 48.378124 52.96546Q48.64375 53.262337 49.08125 53.262337Q49.503124 53.262337 49.753124 52.981087Q50.003124 52.68421 50.003124 52.18421L50.003124 51.74671Q50.003124 51.27796 49.7375 50.99671Q49.4875 50.699837 49.065624 50.699837Q48.64375 50.699837 48.378124 50.99671Q48.128124 51.27796 48.128124 51.77796L48.128124 52.199837ZM45.175 53.199837L44.55 52.80921L48.721874 46.137337L49.33125 46.52796L45.175 53.199837Z" fill-rule="nonzero"/><path stroke="#757575" stroke-width="1.0" stroke-linecap="butt" d="M18.55 40.34046L127.05 40.34046L236.09804 40.34046" fill-rule="nonzero"/><path fill="#9e9e9e" d="M238.09804 40.34046C238.09804 39.235893 237.2026 38.34046 236.09804 38.34046C234.99347 38.34046 234.09804 39.235893 234.09804 40.34046C234.09804 41.44503 234.99347 42.34046 236.09804 42.34046C237.2026 42.34046 238.09804 41.44503 238.09804 40.34046" fill-rule="nonzero"/><path fill="#757575" d="M24.3625 254.34158L20.659374 254.34158L20.659374 257.3572L24.95625 257.3572L24.95625 258.27908L19.534374 258.27908L19.534374 249.74783L24.909374 249.74783L24.909374 250.66971L20.659374 250.66971L20.659374 253.41971L24.3625 253.41971L24.3625 254.34158ZM27.39375 251.93533L27.425 252.73221Q28.159374 251.82596 29.33125 251.82596Q31.346874 251.82596 31.3625 254.09158L31.3625 258.27908L30.26875 258.27908L30.26875 254.07596Q30.26875 253.40408 29.95625 253.07596Q29.659374 252.74783 29.003124 252.74783Q28.471874 252.74783 28.065624 253.02908Q27.675 253.31033 27.45625 253.76346L27.45625 258.27908L26.378124 258.27908L26.378124 251.93533L27.39375 251.93533ZM34.846874 250.40408L34.846874 251.93533L36.01875 251.93533L36.01875 252.77908L34.846874 252.77908L34.846874 256.70096Q34.846874 257.09158 35.003124 257.27908Q35.159374 257.46658 35.534374 257.46658Q35.721874 257.46658 36.05 257.40408L36.05 258.27908Q35.628124 258.40408 35.221874 258.40408Q34.503124 258.40408 34.128124 257.96658Q33.753124 257.51346 33.753124 256.70096L33.753124 252.77908L32.596874 252.77908L32.596874 251.93533L33.753124 251.93533L33.753124 250.40408L34.846874 250.40408ZM40.440624 252.90408Q40.190624 252.87283 39.909374 252.87283Q38.83125 252.87283 38.45625 253.77908L38.45625 258.27908L37.378124 258.27908L37.378124 251.93533L38.425 251.93533L38.440624 252.66971Q38.971874 251.82596 39.95625 251.82596Q40.26875 251.82596 40.440624 251.90408L40.440624 252.90408ZM44.003124 258.40408Q42.70625 258.40408 41.89375 257.56033Q41.096874 256.70096 41.096874 255.27908L41.096874 255.09158Q41.096874 254.13846 41.45625 253.40408Q41.815624 252.65408 42.45625 252.24783Q43.1125 251.82596 43.8625 251.82596Q45.096874 251.82596 45.784374 252.63846Q46.471874 253.45096 46.471874 254.96658L46.471874 255.41971L42.175 255.41971Q42.20625 256.3572 42.721874 256.93533Q43.253124 257.51346 44.065624 257.51346Q44.628124 257.51346 45.01875 257.27908Q45.425 257.0447 45.7375 256.65408L46.39375 257.1697Q45.596874 258.40408 44.003124 258.40408ZM43.8625 252.71658Q43.20625 252.71658 42.753124 253.20096Q42.315624 253.66971 42.221874 254.52908L45.39375 254.52908L45.39375 254.45096Q45.346874 253.62283 44.940624 253.16971Q44.55 252.71658 43.8625 252.71658ZM50.753124 253.99783L51.190624 249.74783L55.565624 249.74783L55.565624 250.74783L52.1125 250.74783L51.846874 253.07596Q52.4875 252.70096 53.284374 252.70096Q54.440624 252.70096 55.128124 253.48221Q55.815624 254.24783 55.815624 255.56033Q55.815624 256.87283 55.096874 257.63846Q54.39375 258.40408 53.1125 258.40408Q51.9875 258.40408 51.26875 257.77908Q50.55 257.13846 50.45625 256.02908L51.471874 256.02908Q51.58125 256.76346 52.003124 257.13846Q52.425 257.51346 53.1125 257.51346Q53.8625 257.51346 54.3 256.99783Q54.7375 256.4822 54.7375 255.57596Q54.7375 254.71658 54.26875 254.20096Q53.8 253.68533 53.01875 253.68533Q52.315624 253.68533 51.909374 253.98221L51.628124 254.21658L50.753124 253.99783ZM60.815624 258.27908L59.7375 258.27908L59.7375 251.06033L57.55 251.85721L57.55 250.87283L60.659374 249.70096L60.815624 249.70096L60.815624 258.27908ZM64.15938 251.38846Q64.15938 250.62283 64.64375 250.12283Q65.14375 249.62283 65.90938 249.62283Q66.69063 249.62283 67.175 250.12283Q67.65938 250.62283 67.65938 251.41971L67.65938 251.84158Q67.65938 252.60721 67.15938 253.10721Q66.675 253.59158 65.925 253.59158Q65.15938 253.59158 64.65938 253.10721Q64.15938 252.60721 64.15938 251.79471L64.15938 251.38846ZM64.97188 251.84158Q64.97188 252.29471 65.22188 252.59158Q65.4875 252.88846 65.925 252.88846Q66.34688 252.88846 66.59688 252.60721Q66.84688 252.31033 66.84688 251.81033L66.84688 251.38846Q66.84688 250.93533 66.59688 250.63846Q66.34688 250.32596 65.90938 250.32596Q65.47188 250.32596 65.22188 250.63846Q64.97188 250.93533 64.97188 251.40408L64.97188 251.84158ZM68.31563 256.18533Q68.31563 255.41971 68.8 254.93533Q69.3 254.43533 70.06563 254.43533Q70.83125 254.43533 71.31563 254.93533Q71.81563 255.41971 71.81563 256.2322L71.81563 256.63846Q71.81563 257.40408 71.33125 257.90408Q70.84688 258.40408 70.08125 258.40408Q69.31563 258.40408 68.81563 257.9197Q68.31563 257.4197 68.31563 256.6072L68.31563 256.18533ZM69.12813 256.63846Q69.12813 257.1072 69.37813 257.40408Q69.64375 257.70096 70.08125 257.70096Q70.50313 257.70096 70.75313 257.4197Q71.00313 257.12283 71.00313 256.62283L71.00313 256.18533Q71.00313 255.71658 70.7375 255.43533Q70.4875 255.13846 70.06563 255.13846Q69.64375 255.13846 69.37813 255.43533Q69.12813 255.71658 69.12813 256.21658L69.12813 256.63846ZM66.175 257.63846L65.55 257.24783L69.72188 250.57596L70.33125 250.96658L66.175 257.63846ZM79.00313 258.40408Q77.70625 258.40408 76.89375 257.56033Q76.09688 256.70096 76.09688 255.27908L76.09688 255.09158Q76.09688 254.13846 76.45625 253.40408Q76.81563 252.65408 77.45625 252.24783Q78.1125 251.82596 78.8625 251.82596Q80.09688 251.82596 80.78438 252.63846Q81.47188 253.45096 81.47188 254.96658L81.47188 255.41971L77.175 255.41971Q77.20625 256.3572 77.72188 256.93533Q78.25313 257.51346 79.06563 257.51346Q79.62813 257.51346 80.01875 257.27908Q80.425 257.0447 80.7375 256.65408L81.39375 257.1697Q80.59688 258.40408 79.00313 258.40408ZM78.8625 252.71658Q78.20625 252.71658 77.75313 253.20096Q77.31563 253.66971 77.22188 254.52908L80.39375 254.52908L80.39375 254.45096Q80.34688 253.62283 79.94063 253.16971Q79.55 252.71658 78.8625 252.71658ZM90.84688 258.27908L85.25313 258.27908L85.25313 257.49783L88.20625 254.21658Q88.8625 253.46658 89.1125 253.01346Q89.3625 252.54471 89.3625 252.04471Q89.3625 251.37283 88.95625 250.95096Q88.56563 250.51346 87.87813 250.51346Q87.08125 250.51346 86.62813 250.98221Q86.175 251.43533 86.175 252.26346L85.09688 252.26346Q85.09688 251.07596 85.84688 250.35721Q86.6125 249.62283 87.87813 249.62283Q89.08125 249.62283 89.76875 250.24783Q90.45625 250.87283 90.45625 251.91971Q90.45625 253.16971 88.84688 254.91971L86.56563 257.38846L90.84688 257.38846L90.84688 258.27908ZM97.6125 254.63846Q97.6125 256.5447 96.95625 257.4822Q96.31563 258.40408 94.925 258.40408Q93.56563 258.40408 92.90938 257.49783Q92.25313 256.59158 92.22188 254.77908L92.22188 253.34158Q92.22188 251.45096 92.8625 250.54471Q93.51875 249.62283 94.90938 249.62283Q96.28438 249.62283 96.94063 250.51346Q97.59688 251.38846 97.6125 253.23221L97.6125 254.63846ZM96.51875 253.15408Q96.51875 251.77908 96.12813 251.15408Q95.75313 250.51346 94.90938 250.51346Q94.08125 250.51346 93.69063 251.15408Q93.31563 251.77908 93.31563 253.07596L93.31563 254.81033Q93.31563 256.18533 93.70625 256.8572Q94.1125 257.51346 94.925 257.51346Q95.72188 257.51346 96.1125 256.88846Q96.50313 256.26346 96.51875 254.93533L96.51875 253.15408ZM104.6125 254.63846Q104.6125 256.5447 103.95625 257.4822Q103.31563 258.40408 101.925 258.40408Q100.56563 258.40408 99.90938 257.49783Q99.25313 256.59158 99.22188 254.77908L99.22188 253.34158Q99.22188 251.45096 99.8625 250.54471Q100.51875 249.62283 101.90938 249.62283Q103.28438 249.62283 103.94063 250.51346Q104.59688 251.38846 104.6125 253.23221L104.6125 254.63846ZM103.51875 253.15408Q103.51875 251.77908 103.12813 251.15408Q102.75313 250.51346 101.90938 250.51346Q101.08125 250.51346 100.69063 251.15408Q100.31563 251.77908 100.31563 253.07596L100.31563 254.81033Q100.31563 256.18533 100.70625 256.8572Q101.1125 257.51346 101.925 257.51346Q102.72188 257.51346 103.1125 256.88846Q103.50313 256.26346 103.51875 254.93533L103.51875 253.15408ZM106.15938 251.38846Q106.15938 250.62283 106.64375 250.12283Q107.14375 249.62283 107.90938 249.62283Q108.69063 249.62283 109.175 250.12283Q109.65938 250.62283 109.65938 251.41971L109.65938 251.84158Q109.65938 252.60721 109.15938 253.10721Q108.675 253.59158 107.925 253.59158Q107.15938 253.59158 106.65938 253.10721Q106.15938 252.60721 106.15938 251.79471L106.15938 251.38846ZM106.97188 251.84158Q106.97188 252.29471 107.22188 252.59158Q107.4875 252.88846 107.925 252.88846Q108.34688 252.88846 108.59688 252.60721Q108.84688 252.31033 108.84688 251.81033L108.84688 251.38846Q108.84688 250.93533 108.59688 250.63846Q108.34688 250.32596 107.90938 250.32596Q107.47188 250.32596 107.22188 250.63846Q106.97188 250.93533 106.97188 251.40408L106.97188 251.84158ZM110.31563 256.18533Q110.31563 255.41971 110.8 254.93533Q111.3 254.43533 112.06563 254.43533Q112.83125 254.43533 113.31563 254.93533Q113.81563 255.41971 113.81563 256.2322L113.81563 256.63846Q113.81563 257.40408 113.33125 257.90408Q112.84688 258.40408 112.08125 258.40408Q111.31563 258.40408 110.81563 257.9197Q110.31563 257.4197 110.31563 256.6072L110.31563 256.18533ZM111.12813 256.63846Q111.12813 257.1072 111.37813 257.40408Q111.64375 257.70096 112.08125 257.70096Q112.50313 257.70096 112.75313 257.4197Q113.00313 257.12283 113.00313 256.62283L113.00313 256.18533Q113.00313 255.71658 112.7375 255.43533Q112.4875 255.13846 112.06563 255.13846Q111.64375 255.13846 111.37813 255.43533Q111.12813 255.71658 111.12813 256.21658L111.12813 256.63846ZM108.175 257.63846L107.55 257.24783L111.72188 250.57596L112.33125 250.96658L108.175 257.63846Z" fill-rule="nonzero"/><path fill="#9e9e9e" d="M20.83125 271.4822L21.64375 271.4822Q22.425 271.46658 22.8625 271.07596Q23.3 270.68533 23.3 270.01346Q23.3 268.51346 21.8 268.51346Q21.096874 268.51346 20.675 268.9197Q20.26875 269.32596 20.26875 269.9822L19.175 269.9822Q19.175 268.96658 19.909374 268.2947Q20.659374 267.62283 21.8 267.62283Q23.003124 267.62283 23.690624 268.26346Q24.378124 268.90408 24.378124 270.0447Q24.378124 270.6072 24.01875 271.12283Q23.659374 271.63846 23.034374 271.90408Q23.7375 272.12283 24.1125 272.63846Q24.503124 273.15408 24.503124 273.90408Q24.503124 275.0447 23.753124 275.7322Q23.003124 276.40408 21.8 276.40408Q20.6125 276.40408 19.846874 275.74783Q19.096874 275.09158 19.096874 274.02908L20.190624 274.02908Q20.190624 274.70096 20.628124 275.1072Q21.065624 275.51346 21.815624 275.51346Q22.596874 275.51346 23.003124 275.1072Q23.425 274.68533 23.425 273.9197Q23.425 273.18533 22.971874 272.7947Q22.51875 272.38846 21.64375 272.37283L20.83125 272.37283L20.83125 271.4822ZM30.409374 272.52908Q30.08125 272.93533 29.596874 273.18533Q29.128124 273.4197 28.565624 273.4197Q27.83125 273.4197 27.284374 273.06033Q26.7375 272.70096 26.440624 272.0447Q26.14375 271.37283 26.14375 270.57596Q26.14375 269.7322 26.45625 269.0447Q26.784374 268.3572 27.378124 267.99783Q27.9875 267.62283 28.784374 267.62283Q30.05 267.62283 30.76875 268.57596Q31.503124 269.52908 31.503124 271.15408L31.503124 271.46658Q31.503124 273.96658 30.51875 275.1072Q29.534374 276.24783 27.55 276.27908L27.33125 276.27908L27.33125 275.37283L27.565624 275.37283Q28.909374 275.34158 29.628124 274.6697Q30.346874 273.99783 30.409374 272.52908ZM28.7375 272.52908Q29.284374 272.52908 29.7375 272.20096Q30.20625 271.8572 30.425 271.37283L30.425 270.93533Q30.425 269.87283 29.95625 269.20096Q29.4875 268.52908 28.784374 268.52908Q28.065624 268.52908 27.628124 269.07596Q27.20625 269.62283 27.20625 270.52908Q27.20625 271.40408 27.6125 271.96658Q28.034374 272.52908 28.7375 272.52908ZM33.39375 275.71658Q33.39375 275.43533 33.55 275.24783Q33.721874 275.06033 34.05 275.06033Q34.39375 275.06033 34.565624 275.24783Q34.7375 275.43533 34.7375 275.71658Q34.7375 275.9822 34.565624 276.1697Q34.39375 276.34158 34.05 276.34158Q33.721874 276.34158 33.55 276.1697Q33.39375 275.9822 33.39375 275.71658ZM41.440624 269.96658Q41.440624 270.6072 41.096874 271.1072Q40.753124 271.6072 40.190624 271.88846Q40.846874 272.1697 41.2375 272.7322Q41.628124 273.27908 41.628124 273.9822Q41.628124 275.07596 40.878124 275.74783Q40.14375 276.40408 38.925 276.40408Q37.690624 276.40408 36.940624 275.74783Q36.20625 275.07596 36.20625 273.9822Q36.20625 273.27908 36.58125 272.7322Q36.95625 272.1697 37.628124 271.88846Q37.065624 271.6072 36.7375 271.1072Q36.409374 270.6072 36.409374 269.96658Q36.409374 268.88846 37.096874 268.26346Q37.784374 267.62283 38.925 267.62283Q40.05 267.62283 40.7375 268.26346Q41.440624 268.88846 41.440624 269.96658ZM40.55 273.95096Q40.55 273.2322 40.096874 272.7947Q39.64375 272.34158 38.909374 272.34158Q38.175 272.34158 37.721874 272.7947Q37.284374 273.2322 37.284374 273.96658Q37.284374 274.68533 37.721874 275.1072Q38.159374 275.51346 38.925 275.51346Q39.675 275.51346 40.1125 275.09158Q40.55 274.6697 40.55 273.95096ZM38.925 268.51346Q38.284374 268.51346 37.878124 268.9197Q37.4875 269.31033 37.4875 269.99783Q37.4875 270.63846 37.878124 271.0447Q38.26875 271.45096 38.909374 271.45096Q39.565624 271.45096 39.95625 271.0447Q40.346874 270.63846 40.346874 269.99783Q40.346874 269.34158 39.940624 268.93533Q39.534374 268.51346 38.925 268.51346ZM43.159374 269.38846Q43.159374 268.62283 43.64375 268.12283Q44.14375 267.62283 44.909374 267.62283Q45.690624 267.62283 46.175 268.12283Q46.659374 268.62283 46.659374 269.4197L46.659374 269.84158Q46.659374 270.6072 46.159374 271.1072Q45.675 271.59158 44.925 271.59158Q44.159374 271.59158 43.659374 271.1072Q43.159374 270.6072 43.159374 269.7947L43.159374 269.38846ZM43.971874 269.84158Q43.971874 270.2947 44.221874 270.59158Q44.4875 270.88846 44.925 270.88846Q45.346874 270.88846 45.596874 270.6072Q45.846874 270.31033 45.846874 269.81033L45.846874 269.38846Q45.846874 268.93533 45.596874 268.63846Q45.346874 268.32596 44.909374 268.32596Q44.471874 268.32596 44.221874 268.63846Q43.971874 268.93533 43.971874 269.40408L43.971874 269.84158ZM47.315624 274.18533Q47.315624 273.4197 47.8 272.93533Q48.3 272.43533 49.065624 272.43533Q49.83125 272.43533 50.315624 272.93533Q50.815624 273.4197 50.815624 274.2322L50.815624 274.63846Q50.815624 275.40408 50.33125 275.90408Q49.846874 276.40408 49.08125 276.40408Q48.315624 276.40408 47.815624 275.9197Q47.315624 275.4197 47.315624 274.6072L47.315624 274.18533ZM48.128124 274.63846Q48.128124 275.1072 48.378124 275.40408Q48.64375 275.70096 49.08125 275.70096Q49.503124 275.70096 49.753124 275.4197Q50.003124 275.12283 50.003124 274.62283L50.003124 274.18533Q50.003124 273.71658 49.7375 273.43533Q49.4875 273.13846 49.065624 273.13846Q48.64375 273.13846 48.378124 273.43533Q48.128124 273.71658 48.128124 274.21658L48.128124 274.63846ZM45.175 275.63846L44.55 275.24783L48.721874 268.57596L49.33125 268.96658L45.175 275.63846Z" fill-rule="nonzero"/><path stroke="#757575" stroke-width="1.0" stroke-linecap="butt" d="M18.55 262.77908L127.05 262.77908L161.4984 262.77908" fill-rule="nonzero"/><path fill="#9e9e9e" d="M163.4984 262.77908C163.4984 261.67453 162.60297 260.77908 161.4984 260.77908C160.39383 260.77908 159.4984 261.67453 159.4984 262.77908C159.4984 263.88367 160.39383 264.77908 161.4984 264.77908C162.60297 264.77908 163.4984 263.88367 163.4984 262.77908" fill-rule="nonzero"/><path fill="#757575" d="M507.15314 38.598186L503.575 38.598186L502.77814 40.83256L501.6219 40.83256L504.8719 32.30131L505.85626 32.30131L509.1219 40.83256L507.96564 40.83256L507.15314 38.598186ZM503.91876 37.67631L506.825 37.67631L505.3719 33.691936L503.91876 37.67631ZM515.6375 37.73881Q515.6375 39.191936 514.96564 40.08256Q514.3094 40.95756 513.1844 40.95756Q511.98126 40.95756 511.325 40.098186L511.2625 40.83256L510.27814 40.83256L510.27814 31.832561L511.35626 31.832561L511.35626 35.191936Q512.0125 34.379436 513.16876 34.379436Q514.325 34.379436 514.98126 35.254436Q515.6375 36.11381 515.6375 37.64506L515.6375 37.73881ZM514.5594 37.61381Q514.5594 36.504436 514.1219 35.910686Q513.7 35.30131 512.90314 35.30131Q511.825 35.30131 511.35626 36.285686L511.35626 39.035686Q511.85626 40.035686 512.90314 40.035686Q513.6844 40.035686 514.1219 39.42631Q514.5594 38.816936 514.5594 37.61381ZM521.1844 40.83256Q521.09064 40.64506 521.02814 40.160686Q520.27814 40.95756 519.23126 40.95756Q518.29376 40.95756 517.6844 40.42631Q517.09064 39.89506 517.09064 39.066936Q517.09064 38.08256 517.84064 37.535686Q518.59064 36.98881 519.96564 36.98881L521.0125 36.98881L521.0125 36.48881Q521.0125 35.92631 520.66876 35.598186Q520.34064 35.254436 519.66876 35.254436Q519.09064 35.254436 518.7 35.55131Q518.3094 35.83256 518.3094 36.254436L517.21564 36.254436Q517.21564 35.77006 517.54376 35.33256Q517.8875 34.89506 518.46564 34.64506Q519.04376 34.379436 519.73126 34.379436Q520.84064 34.379436 521.45 34.92631Q522.075 35.473186 522.10626 36.42631L522.10626 39.348186Q522.10626 40.223186 522.325 40.73881L522.325 40.83256L521.1844 40.83256ZM519.3875 40.004436Q519.90314 40.004436 520.35626 39.73881Q520.8094 39.473186 521.0125 39.05131L521.0125 37.754436L520.16876 37.754436Q518.16876 37.754436 518.16876 38.92631Q518.16876 39.42631 518.5125 39.723186Q518.85626 40.004436 519.3875 40.004436ZM525.45 40.83256L524.3719 40.83256L524.3719 34.48881L525.45 34.48881L525.45 40.83256ZM524.27814 32.816936Q524.27814 32.55131 524.4344 32.36381Q524.60626 32.17631 524.91876 32.17631Q525.23126 32.17631 525.3875 32.36381Q525.5594 32.55131 525.5594 32.816936Q525.5594 33.066936 525.3875 33.254436Q525.23126 33.42631 524.91876 33.42631Q524.60626 33.42631 524.4344 33.254436Q524.27814 33.066936 524.27814 32.816936ZM529.40314 36.80131L530.8094 34.48881L532.075 34.48881L529.9969 37.629436L532.1375 40.83256L530.8875 40.83256L529.41876 38.45756L527.95 40.83256L526.6844 40.83256L528.825 37.629436L526.7625 34.48881L528.0125 34.48881L529.40314 36.80131ZM532.98126 37.598186Q532.98126 36.67631 533.34064 35.92631Q533.71564 35.17631 534.3719 34.785686Q535.02814 34.379436 535.85626 34.379436Q537.15314 34.379436 537.95 35.27006Q538.7625 36.160686 538.7625 37.660686L538.7625 37.73881Q538.7625 38.660686 538.40314 39.39506Q538.04376 40.129436 537.3875 40.55131Q536.73126 40.95756 535.8719 40.95756Q534.59064 40.95756 533.77814 40.066936Q532.98126 39.160686 532.98126 37.67631L532.98126 37.598186ZM534.075 37.73881Q534.075 38.785686 534.5594 39.42631Q535.0594 40.066936 535.8719 40.066936Q536.7 40.066936 537.1844 39.42631Q537.66876 38.77006 537.66876 37.598186Q537.66876 36.566936 537.16876 35.92631Q536.6844 35.27006 535.85626 35.27006Q535.0594 35.27006 534.5594 35.910686Q534.075 36.535686 534.075 37.73881ZM543.0125 37.61381Q543.0125 36.14506 543.7 35.27006Q544.3875 34.379436 545.5125 34.379436Q546.6219 34.379436 547.27814 35.129436L547.27814 31.832561L548.35626 31.832561L548.35626 40.83256L547.35626 40.83256L547.3094 40.14506Q546.65314 40.95756 545.4969 40.95756Q544.40314 40.95756 543.7 40.05131Q543.0125 39.14506 543.0125 37.691936L543.0125 37.61381ZM544.09064 37.73881Q544.09064 38.816936 544.52814 39.42631Q544.98126 40.035686 545.7625 40.035686Q546.79376 40.035686 547.27814 39.098186L547.27814 36.191936Q546.79376 35.30131 545.77814 35.30131Q544.98126 35.30131 544.52814 35.910686Q544.09064 36.52006 544.09064 37.73881ZM552.90314 40.95756Q551.60626 40.95756 550.79376 40.11381Q549.9969 39.254436 549.9969 37.83256L549.9969 37.64506Q549.9969 36.691936 550.35626 35.95756Q550.71564 35.20756 551.35626 34.80131Q552.0125 34.379436 552.7625 34.379436Q553.9969 34.379436 554.6844 35.191936Q555.3719 36.004436 555.3719 37.52006L555.3719 37.973186L551.075 37.973186Q551.10626 38.910686 551.6219 39.48881Q552.15314 40.066936 552.96564 40.066936Q553.52814 40.066936 553.91876 39.83256Q554.325 39.598186 554.6375 39.20756L555.29376 39.723186Q554.4969 40.95756 552.90314 40.95756ZM552.7625 35.27006Q552.10626 35.27006 551.65314 35.754436Q551.21564 36.223186 551.1219 37.08256L554.29376 37.08256L554.29376 37.004436Q554.2469 36.17631 553.84064 35.723186Q553.45 35.27006 552.7625 35.27006ZM564.7469 40.83256L559.15314 40.83256L559.15314 40.05131L562.10626 36.77006Q562.7625 36.02006 563.0125 35.566936Q563.2625 35.098186 563.2625 34.598186Q563.2625 33.92631 562.85626 33.504436Q562.46564 33.066936 561.77814 33.066936Q560.98126 33.066936 560.52814 33.535686Q560.075 33.98881 560.075 34.816936L558.9969 34.816936Q558.9969 33.629436 559.7469 32.910686Q560.5125 32.17631 561.77814 32.17631Q562.98126 32.17631 563.66876 32.80131Q564.35626 33.42631 564.35626 34.473186Q564.35626 35.723186 562.7469 37.473186L560.46564 39.941936L564.7469 39.941936L564.7469 40.83256ZM571.5125 37.191936Q571.5125 39.098186 570.85626 40.035686Q570.21564 40.95756 568.825 40.95756Q567.46564 40.95756 566.8094 40.05131Q566.15314 39.14506 566.1219 37.33256L566.1219 35.89506Q566.1219 34.004436 566.7625 33.098186Q567.41876 32.17631 568.8094 32.17631Q570.1844 32.17631 570.84064 33.066936Q571.4969 33.941936 571.5125 35.785686L571.5125 37.191936ZM570.41876 35.70756Q570.41876 34.33256 570.02814 33.70756Q569.65314 33.066936 568.8094 33.066936Q567.98126 33.066936 567.59064 33.70756Q567.21564 34.33256 567.21564 35.629436L567.21564 37.36381Q567.21564 38.73881 567.60626 39.410686Q568.0125 40.066936 568.825 40.066936Q569.6219 40.066936 570.0125 39.441936Q570.40314 38.816936 570.41876 37.48881L570.41876 35.70756ZM573.0594 33.941936Q573.0594 33.17631 573.54376 32.67631Q574.04376 32.17631 574.8094 32.17631Q575.59064 32.17631 576.075 32.67631Q576.5594 33.17631 576.5594 33.973186L576.5594 34.39506Q576.5594 35.160686 576.0594 35.660686Q575.575 36.14506 574.825 36.14506Q574.0594 36.14506 573.5594 35.660686Q573.0594 35.160686 573.0594 34.348186L573.0594 33.941936ZM573.8719 34.39506Q573.8719 34.848186 574.1219 35.14506Q574.3875 35.441936 574.825 35.441936Q575.2469 35.441936 575.4969 35.160686Q575.7469 34.86381 575.7469 34.36381L575.7469 33.941936Q575.7469 33.48881 575.4969 33.191936Q575.2469 32.879436 574.8094 32.879436Q574.3719 32.879436 574.1219 33.191936Q573.8719 33.48881 573.8719 33.95756L573.8719 34.39506ZM577.21564 38.73881Q577.21564 37.973186 577.7 37.48881Q578.2 36.98881 578.96564 36.98881Q579.73126 36.98881 580.21564 37.48881Q580.71564 37.973186 580.71564 38.785686L580.71564 39.191936Q580.71564 39.95756 580.23126 40.45756Q579.7469 40.95756 578.98126 40.95756Q578.21564 40.95756 577.71564 40.473186Q577.21564 39.973186 577.21564 39.160686L577.21564 38.73881ZM578.02814 39.191936Q578.02814 39.660686 578.27814 39.95756Q578.54376 40.254436 578.98126 40.254436Q579.40314 40.254436 579.65314 39.973186Q579.90314 39.67631 579.90314 39.17631L579.90314 38.73881Q579.90314 38.27006 579.6375 37.98881Q579.3875 37.691936 578.96564 37.691936Q578.54376 37.691936 578.27814 37.98881Q578.02814 38.27006 578.02814 38.77006L578.02814 39.191936ZM575.075 40.191936L574.45 39.80131L578.6219 33.129436L579.23126 33.52006L575.075 40.191936Z" fill-rule="nonzero"/><path fill="#9e9e9e" d="M552.71564 58.83256L551.6375 58.83256L551.6375 51.61381L549.45 52.410686L549.45 51.42631L552.5594 50.254436L552.71564 50.254436L552.71564 58.83256ZM556.65314 54.55131L557.09064 50.30131L561.46564 50.30131L561.46564 51.30131L558.0125 51.30131L557.7469 53.629436Q558.3875 53.254436 559.1844 53.254436Q560.34064 53.254436 561.02814 54.035686Q561.71564 54.80131 561.71564 56.11381Q561.71564 57.42631 560.9969 58.191936Q560.29376 58.95756 559.0125 58.95756Q557.8875 58.95756 557.16876 58.33256Q556.45 57.691936 556.35626 56.58256L557.3719 56.58256Q557.48126 57.316936 557.90314 57.691936Q558.325 58.066936 559.0125 58.066936Q559.7625 58.066936 560.2 57.55131Q560.6375 57.035686 560.6375 56.129436Q560.6375 55.27006 560.16876 54.754436Q559.7 54.23881 558.91876 54.23881Q558.21564 54.23881 557.8094 54.535686L557.52814 54.77006L556.65314 54.55131ZM563.29376 58.27006Q563.29376 57.98881 563.45 57.80131Q563.6219 57.61381 563.95 57.61381Q564.29376 57.61381 564.46564 57.80131Q564.6375 57.98881 564.6375 58.27006Q564.6375 58.535686 564.46564 58.723186Q564.29376 58.89506 563.95 58.89506Q563.6219 58.89506 563.45 58.723186Q563.29376 58.535686 563.29376 58.27006ZM566.65314 54.55131L567.09064 50.30131L571.46564 50.30131L571.46564 51.30131L568.0125 51.30131L567.7469 53.629436Q568.3875 53.254436 569.1844 53.254436Q570.34064 53.254436 571.02814 54.035686Q571.71564 54.80131 571.71564 56.11381Q571.71564 57.42631 570.9969 58.191936Q570.29376 58.95756 569.0125 58.95756Q567.8875 58.95756 567.16876 58.33256Q566.45 57.691936 566.35626 56.58256L567.3719 56.58256Q567.48126 57.316936 567.90314 57.691936Q568.325 58.066936 569.0125 58.066936Q569.7625 58.066936 570.2 57.55131Q570.6375 57.035686 570.6375 56.129436Q570.6375 55.27006 570.16876 54.754436Q569.7 54.23881 568.91876 54.23881Q568.21564 54.23881 567.8094 54.535686L567.52814 54.77006L566.65314 54.55131ZM573.0594 51.941936Q573.0594 51.17631 573.54376 50.67631Q574.04376 50.17631 574.8094 50.17631Q575.59064 50.17631 576.075 50.67631Q576.5594 51.17631 576.5594 51.973186L576.5594 52.39506Q576.5594 53.160686 576.0594 53.660686Q575.575 54.14506 574.825 54.14506Q574.0594 54.14506 573.5594 53.660686Q573.0594 53.160686 573.0594 52.348186L573.0594 51.941936ZM573.8719 52.39506Q573.8719 52.848186 574.1219 53.14506Q574.3875 53.441936 574.825 53.441936Q575.2469 53.441936 575.4969 53.160686Q575.7469 52.86381 575.7469 52.36381L575.7469 51.941936Q575.7469 51.48881 575.4969 51.191936Q575.2469 50.879436 574.8094 50.879436Q574.3719 50.879436 574.1219 51.191936Q573.8719 51.48881 573.8719 51.95756L573.8719 52.39506ZM577.21564 56.73881Q577.21564 55.973186 577.7 55.48881Q578.2 54.98881 578.96564 54.98881Q579.73126 54.98881 580.21564 55.48881Q580.71564 55.973186 580.71564 56.785686L580.71564 57.191936Q580.71564 57.95756 580.23126 58.45756Q579.7469 58.95756 578.98126 58.95756Q578.21564 58.95756 577.71564 58.473186Q577.21564 57.973186 577.21564 57.160686L577.21564 56.73881ZM578.02814 57.191936Q578.02814 57.660686 578.27814 57.95756Q578.54376 58.254436 578.98126 58.254436Q579.40314 58.254436 579.65314 57.973186Q579.90314 57.67631 579.90314 57.17631L579.90314 56.73881Q579.90314 56.27006 579.6375 55.98881Q579.3875 55.691936 578.96564 55.691936Q578.54376 55.691936 578.27814 55.98881Q578.02814 56.27006 578.02814 56.77006L578.02814 57.191936ZM575.075 58.191936L574.45 57.80131L578.6219 51.129436L579.23126 51.52006L575.075 58.191936Z" fill-rule="nonzero"/><path stroke="#757575" stroke-width="1.0" stroke-linecap="butt" d="M581.45 45.33256L472.95 45.33256L374.21484 45.33256" fill-rule="nonzero"/><path fill="#9e9e9e" d="M376.21484 45.33256C376.21484 44.227993 375.3194 43.33256 374.21484 43.33256C373.11026 43.33256 372.21484 44.227993 372.21484 45.33256C372.21484 46.43713 373.11026 47.33256 374.21484 47.33256C375.3194 47.33256 376.21484 46.43713 376.21484 45.33256" fill-rule="nonzero"/><path fill="#757575" d="M498.2625 237.75705L494.5594 237.75705L494.5594 240.77267L498.85626 240.77267L498.85626 241.69455L493.4344 241.69455L493.4344 233.1633L498.8094 233.1633L498.8094 234.08517L494.5594 234.08517L494.5594 236.83517L498.2625 236.83517L498.2625 237.75705ZM501.29376 235.3508L501.325 236.14767Q502.0594 235.24142 503.23126 235.24142Q505.2469 235.24142 505.2625 237.50705L505.2625 241.69455L504.16876 241.69455L504.16876 237.49142Q504.16876 236.81955 503.85626 236.49142Q503.5594 236.1633 502.90314 236.1633Q502.3719 236.1633 501.96564 236.44455Q501.575 236.7258 501.35626 237.17892L501.35626 241.69455L500.27814 241.69455L500.27814 235.3508L501.29376 235.3508ZM508.7469 233.81955L508.7469 235.3508L509.91876 235.3508L509.91876 236.19455L508.7469 236.19455L508.7469 240.11642Q508.7469 240.50705 508.90314 240.69455Q509.0594 240.88205 509.4344 240.88205Q509.6219 240.88205 509.95 240.81955L509.95 241.69455Q509.52814 241.81955 509.1219 241.81955Q508.40314 241.81955 508.02814 241.38205Q507.65314 240.92892 507.65314 240.11642L507.65314 236.19455L506.4969 236.19455L506.4969 235.3508L507.65314 235.3508L507.65314 233.81955L508.7469 233.81955ZM514.34064 236.31955Q514.09064 236.2883 513.8094 236.2883Q512.73126 236.2883 512.35626 237.19455L512.35626 241.69455L511.27814 241.69455L511.27814 235.3508L512.325 235.3508L512.34064 236.08517Q512.8719 235.24142 513.85626 235.24142Q514.16876 235.24142 514.34064 235.31955L514.34064 236.31955ZM517.90314 241.81955Q516.60626 241.81955 515.79376 240.9758Q514.9969 240.11642 514.9969 238.69455L514.9969 238.50705Q514.9969 237.55392 515.35626 236.81955Q515.71564 236.06955 516.35626 235.6633Q517.0125 235.24142 517.7625 235.24142Q518.9969 235.24142 519.6844 236.05392Q520.3719 236.86642 520.3719 238.38205L520.3719 238.83517L516.075 238.83517Q516.10626 239.77267 516.6219 240.3508Q517.15314 240.92892 517.96564 240.92892Q518.52814 240.92892 518.91876 240.69455Q519.325 240.46017 519.6375 240.06955L520.29376 240.58517Q519.4969 241.81955 517.90314 241.81955ZM517.7625 236.13205Q517.10626 236.13205 516.65314 236.61642Q516.21564 237.08517 516.1219 237.94455L519.29376 237.94455L519.29376 237.86642Q519.2469 237.0383 518.84064 236.58517Q518.45 236.13205 517.7625 236.13205ZM529.7469 241.69455L524.15314 241.69455L524.15314 240.9133L527.10626 237.63205Q527.7625 236.88205 528.0125 236.42892Q528.2625 235.96017 528.2625 235.46017Q528.2625 234.7883 527.85626 234.36642Q527.46564 233.92892 526.77814 233.92892Q525.98126 233.92892 525.52814 234.39767Q525.075 234.8508 525.075 235.67892L523.9969 235.67892Q523.9969 234.49142 524.7469 233.77267Q525.5125 233.0383 526.77814 233.0383Q527.98126 233.0383 528.66876 233.6633Q529.35626 234.2883 529.35626 235.33517Q529.35626 236.58517 527.7469 238.33517L525.46564 240.80392L529.7469 240.80392L529.7469 241.69455ZM534.71564 241.69455L533.6375 241.69455L533.6375 234.4758L531.45 235.27267L531.45 234.2883L534.5594 233.11642L534.71564 233.11642L534.71564 241.69455ZM538.0594 234.80392Q538.0594 234.0383 538.54376 233.5383Q539.04376 233.0383 539.8094 233.0383Q540.59064 233.0383 541.075 233.5383Q541.5594 234.0383 541.5594 234.83517L541.5594 235.25705Q541.5594 236.02267 541.0594 236.52267Q540.575 237.00705 539.825 237.00705Q539.0594 237.00705 538.5594 236.52267Q538.0594 236.02267 538.0594 235.21017L538.0594 234.80392ZM538.8719 235.25705Q538.8719 235.71017 539.1219 236.00705Q539.3875 236.30392 539.825 236.30392Q540.2469 236.30392 540.4969 236.02267Q540.7469 235.7258 540.7469 235.2258L540.7469 234.80392Q540.7469 234.3508 540.4969 234.05392Q540.2469 233.74142 539.8094 233.74142Q539.3719 233.74142 539.1219 234.05392Q538.8719 234.3508 538.8719 234.81955L538.8719 235.25705ZM542.21564 239.6008Q542.21564 238.83517 542.7 238.3508Q543.2 237.8508 543.96564 237.8508Q544.73126 237.8508 545.21564 238.3508Q545.71564 238.83517 545.71564 239.64767L545.71564 240.05392Q545.71564 240.81955 545.23126 241.31955Q544.7469 241.81955 543.98126 241.81955Q543.21564 241.81955 542.71564 241.33517Q542.21564 240.83517 542.21564 240.02267L542.21564 239.6008ZM543.02814 240.05392Q543.02814 240.52267 543.27814 240.81955Q543.54376 241.11642 543.98126 241.11642Q544.40314 241.11642 544.65314 240.83517Q544.90314 240.5383 544.90314 240.0383L544.90314 239.6008Q544.90314 239.13205 544.6375 238.8508Q544.3875 238.55392 543.96564 238.55392Q543.54376 238.55392 543.27814 238.8508Q543.02814 239.13205 543.02814 239.63205L543.02814 240.05392ZM540.075 241.05392L539.45 240.6633L543.6219 233.99142L544.23126 234.38205L540.075 241.05392ZM552.90314 241.81955Q551.60626 241.81955 550.79376 240.9758Q549.9969 240.11642 549.9969 238.69455L549.9969 238.50705Q549.9969 237.55392 550.35626 236.81955Q550.71564 236.06955 551.35626 235.6633Q552.0125 235.24142 552.7625 235.24142Q553.9969 235.24142 554.6844 236.05392Q555.3719 236.86642 555.3719 238.38205L555.3719 238.83517L551.075 238.83517Q551.10626 239.77267 551.6219 240.3508Q552.15314 240.92892 552.96564 240.92892Q553.52814 240.92892 553.91876 240.69455Q554.325 240.46017 554.6375 240.06955L555.29376 240.58517Q554.4969 241.81955 552.90314 241.81955ZM552.7625 236.13205Q552.10626 236.13205 551.65314 236.61642Q551.21564 237.08517 551.1219 237.94455L554.29376 237.94455L554.29376 237.86642Q554.2469 237.0383 553.84064 236.58517Q553.45 236.13205 552.7625 236.13205ZM559.65314 237.4133L560.09064 233.1633L564.46564 233.1633L564.46564 234.1633L561.0125 234.1633L560.7469 236.49142Q561.3875 236.11642 562.1844 236.11642Q563.34064 236.11642 564.02814 236.89767Q564.71564 237.6633 564.71564 238.9758Q564.71564 240.2883 563.9969 241.05392Q563.29376 241.81955 562.0125 241.81955Q560.8875 241.81955 560.16876 241.19455Q559.45 240.55392 559.35626 239.44455L560.3719 239.44455Q560.48126 240.17892 560.90314 240.55392Q561.325 240.92892 562.0125 240.92892Q562.7625 240.92892 563.2 240.4133Q563.6375 239.89767 563.6375 238.99142Q563.6375 238.13205 563.16876 237.61642Q562.7 237.1008 561.91876 237.1008Q561.21564 237.1008 560.8094 237.39767L560.52814 237.63205L559.65314 237.4133ZM571.5125 238.05392Q571.5125 239.96017 570.85626 240.89767Q570.21564 241.81955 568.825 241.81955Q567.46564 241.81955 566.8094 240.9133Q566.15314 240.00705 566.1219 238.19455L566.1219 236.75705Q566.1219 234.86642 566.7625 233.96017Q567.41876 233.0383 568.8094 233.0383Q570.1844 233.0383 570.84064 233.92892Q571.4969 234.80392 571.5125 236.64767L571.5125 238.05392ZM570.41876 236.56955Q570.41876 235.19455 570.02814 234.56955Q569.65314 233.92892 568.8094 233.92892Q567.98126 233.92892 567.59064 234.56955Q567.21564 235.19455 567.21564 236.49142L567.21564 238.2258Q567.21564 239.6008 567.60626 240.27267Q568.0125 240.92892 568.825 240.92892Q569.6219 240.92892 570.0125 240.30392Q570.40314 239.67892 570.41876 238.3508L570.41876 236.56955ZM573.0594 234.80392Q573.0594 234.0383 573.54376 233.5383Q574.04376 233.0383 574.8094 233.0383Q575.59064 233.0383 576.075 233.5383Q576.5594 234.0383 576.5594 234.83517L576.5594 235.25705Q576.5594 236.02267 576.0594 236.52267Q575.575 237.00705 574.825 237.00705Q574.0594 237.00705 573.5594 236.52267Q573.0594 236.02267 573.0594 235.21017L573.0594 234.80392ZM573.8719 235.25705Q573.8719 235.71017 574.1219 236.00705Q574.3875 236.30392 574.825 236.30392Q575.2469 236.30392 575.4969 236.02267Q575.7469 235.7258 575.7469 235.2258L575.7469 234.80392Q575.7469 234.3508 575.4969 234.05392Q575.2469 233.74142 574.8094 233.74142Q574.3719 233.74142 574.1219 234.05392Q573.8719 234.3508 573.8719 234.81955L573.8719 235.25705ZM577.21564 239.6008Q577.21564 238.83517 577.7 238.3508Q578.2 237.8508 578.96564 237.8508Q579.73126 237.8508 580.21564 238.3508Q580.71564 238.83517 580.71564 239.64767L580.71564 240.05392Q580.71564 240.81955 580.23126 241.31955Q579.7469 241.81955 578.98126 241.81955Q578.21564 241.81955 577.71564 241.33517Q577.21564 240.83517 577.21564 240.02267L577.21564 239.6008ZM578.02814 240.05392Q578.02814 240.52267 578.27814 240.81955Q578.54376 241.11642 578.98126 241.11642Q579.40314 241.11642 579.65314 240.83517Q579.90314 240.5383 579.90314 240.0383L579.90314 239.6008Q579.90314 239.13205 579.6375 238.8508Q579.3875 238.55392 578.96564 238.55392Q578.54376 238.55392 578.27814 238.8508Q578.02814 239.13205 578.02814 239.63205L578.02814 240.05392ZM575.075 241.05392L574.45 240.6633L578.6219 233.99142L579.23126 234.38205L575.075 241.05392Z" fill-rule="nonzero"/><path fill="#9e9e9e" d="M550.73126 254.89767L551.54376 254.89767Q552.325 254.88205 552.7625 254.49142Q553.2 254.1008 553.2 253.42892Q553.2 251.92892 551.7 251.92892Q550.9969 251.92892 550.575 252.33517Q550.16876 252.74142 550.16876 253.39767L549.075 253.39767Q549.075 252.38205 549.8094 251.71017Q550.5594 251.0383 551.7 251.0383Q552.90314 251.0383 553.59064 251.67892Q554.27814 252.31955 554.27814 253.46017Q554.27814 254.02267 553.91876 254.5383Q553.5594 255.05392 552.9344 255.31955Q553.6375 255.5383 554.0125 256.05392Q554.40314 256.56955 554.40314 257.31955Q554.40314 258.46017 553.65314 259.14767Q552.90314 259.81955 551.7 259.81955Q550.5125 259.81955 549.7469 259.1633Q548.9969 258.50705 548.9969 257.44455L550.09064 257.44455Q550.09064 258.11642 550.52814 258.52267Q550.96564 258.92892 551.71564 258.92892Q552.4969 258.92892 552.90314 258.52267Q553.325 258.1008 553.325 257.33517Q553.325 256.6008 552.8719 256.21017Q552.41876 255.80392 551.54376 255.7883L550.73126 255.7883L550.73126 254.89767ZM559.71564 259.69455L558.6375 259.69455L558.6375 252.4758L556.45 253.27267L556.45 252.2883L559.5594 251.11642L559.71564 251.11642L559.71564 259.69455ZM563.29376 259.13205Q563.29376 258.8508 563.45 258.6633Q563.6219 258.4758 563.95 258.4758Q564.29376 258.4758 564.46564 258.6633Q564.6375 258.8508 564.6375 259.13205Q564.6375 259.39767 564.46564 259.58517Q564.29376 259.75705 563.95 259.75705Q563.6219 259.75705 563.45 259.58517Q563.29376 259.39767 563.29376 259.13205ZM566.65314 255.4133L567.09064 251.1633L571.46564 251.1633L571.46564 252.1633L568.0125 252.1633L567.7469 254.49142Q568.3875 254.11642 569.1844 254.11642Q570.34064 254.11642 571.02814 254.89767Q571.71564 255.6633 571.71564 256.9758Q571.71564 258.2883 570.9969 259.05392Q570.29376 259.81955 569.0125 259.81955Q567.8875 259.81955 567.16876 259.19455Q566.45 258.55392 566.35626 257.44455L567.3719 257.44455Q567.48126 258.17892 567.90314 258.55392Q568.325 258.92892 569.0125 258.92892Q569.7625 258.92892 570.2 258.4133Q570.6375 257.89767 570.6375 256.99142Q570.6375 256.13205 570.16876 255.61642Q569.7 255.1008 568.91876 255.1008Q568.21564 255.1008 567.8094 255.39767L567.52814 255.63205L566.65314 255.4133ZM573.0594 252.80392Q573.0594 252.0383 573.54376 251.5383Q574.04376 251.0383 574.8094 251.0383Q575.59064 251.0383 576.075 251.5383Q576.5594 252.0383 576.5594 252.83517L576.5594 253.25705Q576.5594 254.02267 576.0594 254.52267Q575.575 255.00705 574.825 255.00705Q574.0594 255.00705 573.5594 254.52267Q573.0594 254.02267 573.0594 253.21017L573.0594 252.80392ZM573.8719 253.25705Q573.8719 253.71017 574.1219 254.00705Q574.3875 254.30392 574.825 254.30392Q575.2469 254.30392 575.4969 254.02267Q575.7469 253.7258 575.7469 253.2258L575.7469 252.80392Q575.7469 252.3508 575.4969 252.05392Q575.2469 251.74142 574.8094 251.74142Q574.3719 251.74142 574.1219 252.05392Q573.8719 252.3508 573.8719 252.81955L573.8719 253.25705ZM577.21564 257.6008Q577.21564 256.83517 577.7 256.3508Q578.2 255.8508 578.96564 255.8508Q579.73126 255.8508 580.21564 256.3508Q580.71564 256.83517 580.71564 257.64767L580.71564 258.05392Q580.71564 258.81955 580.23126 259.31955Q579.7469 259.81955 578.98126 259.81955Q578.21564 259.81955 577.71564 259.33517Q577.21564 258.83517 577.21564 258.02267L577.21564 257.6008ZM578.02814 258.05392Q578.02814 258.52267 578.27814 258.81955Q578.54376 259.11642 578.98126 259.11642Q579.40314 259.11642 579.65314 258.83517Q579.90314 258.5383 579.90314 258.0383L579.90314 257.6008Q579.90314 257.13205 579.6375 256.8508Q579.3875 256.55392 578.96564 256.55392Q578.54376 256.55392 578.27814 256.8508Q578.02814 257.13205 578.02814 257.63205L578.02814 258.05392ZM575.075 259.05392L574.45 258.6633L578.6219 251.99142L579.23126 252.38205L575.075 259.05392Z" fill-rule="nonzero"/><path stroke="#757575" stroke-width="1.0" stroke-linecap="butt" d="M581.45 246.19455L472.95 246.19455L446.5296 246.19455" fill-rule="nonzero"/><path fill="#9e9e9e" d="M448.5296 246.19455C448.5296 245.08998 447.6342 244.19455 446.5296 244.19455C445.42505 244.19455 444.5296 245.08998 444.5296 246.19455C444.5296 247.29912 445.42505 248.19455 446.5296 248.19455C447.6342 248.19455 448.5296 247.29912 448.5296 246.19455" fill-rule="nonzero"/></svg>