<svg version="1.1" viewBox="0.0 0.0 600.0 371.0" fill="none" stroke="none" stroke-linecap="square" stroke-miterlimit="10" width="600" height="371" xmlns:xlink="http://www.w3.org/1999/xlink" xmlns="http://www.w3.org/2000/svg"><path fill="#ffffff" d="M0 0L600.0 0L600.0 371.0L0 371.0L0 0Z" fill-rule="nonzero"/><path stroke="#333333" stroke-width="1.0" stroke-linecap="butt" d="M120.5 18.5L120.5 331.5" fill-rule="nonzero"/><path stroke="#cccccc" stroke-width="1.0" stroke-linecap="butt" d="M274.5 18.5L274.5 331.5" fill-rule="nonzero"/><path stroke="#cccccc" stroke-width="1.0" stroke-linecap="butt" d="M427.5 18.5L427.5 331.5" fill-rule="nonzero"/><path stroke="#cccccc" stroke-width="1.0" stroke-linecap="butt" d="M581.5 18.5L581.5 331.5" fill-rule="nonzero"/><clipPath id="id_0"><path d="M120.55 18.55L581.45 18.55L581.45 331.45L120.55 331.45L120.55 18.55Z" clip-rule="nonzero"/></clipPath><path stroke="#000000" stroke-width="0.0" stroke-linecap="butt" stroke-opacity="0.0" clip-path="url(#id_0)" d="M121.0 91.0L121.0 44.0L225.0 44.0C226.10457 44.0 227.0 44.89543 227.0 46.0L227.0 89.0C227.0 90.10457 226.10457 91.0 225.0 91.0Z" fill-rule="nonzero"/><path fill="#4285f4" clip-path="url(#id_0)" d="M121.0 91.0L121.0 44.0L225.0 44.0C226.10457 44.0 227.0 44.89543 227.0 46.0L227.0 89.0C227.0 90.10457 226.10457 91.0 225.0 91.0Z" fill-rule="nonzero"/><path stroke="#000000" stroke-width="0.0" stroke-linecap="butt" stroke-opacity="0.0" clip-path="url(#id_0)" d="M121.0 163.0L121.0 116.0L259.0 116.0C260.10458 116.0 261.0 116.89543 261.0 118.0L261.0 161.0C261.0 162.10457 260.10458 163.0 259.0 163.0Z" fill-rule="nonzero"/><path fill="#4285f4" clip-path="url(#id_0)" d="M121.0 163.0L121.0 116.0L259.0 116.0C260.10458 116.0 261.0 116.89543 261.0 118.0L261.0 161.0C261.0 162.10457 260.10458 163.0 259.0 163.0Z" fill-rule="nonzero"/><path stroke="#000000" stroke-width="0.0" stroke-linecap="butt" stroke-opacity="0.0" clip-path="url(#id_0)" d="M121.0 235.0L121.0 188.0L545.0 188.0C546.10455 188.0 547.0 188.89543 547.0 190.0L547.0 233.0C547.0 234.10457 546.10455 235.0 545.0 235.0Z" fill-rule="nonzero"/><path fill="#4285f4" clip-path="url(#id_0)" d="M121.0 235.0L121.0 188.0L545.0 188.0C546.10455 188.0 547.0 188.89543 547.0 190.0L547.0 233.0C547.0 234.10457 546.10455 235.0 545.0 235.0Z" fill-rule="nonzero"/><path stroke="#000000" stroke-width="0.0" stroke-linecap="butt" stroke-opacity="0.0" clip-path="url(#id_0)" d="M121.0 307.0L121.0 260.0L213.0 260.0C214.10457 260.0 215.0 260.89542 215.0 262.0L215.0 305.0C215.0 306.10458 214.10457 307.0 213.0 307.0Z" fill-rule="nonzero"/><path fill="#4285f4" clip-path="url(#id_0)" d="M121.0 307.0L121.0 260.0L213.0 260.0C214.10457 260.0 215.0 260.89542 215.0 262.0L215.0 305.0C215.0 306.10458 214.10457 307.0 213.0 307.0Z" fill-rule="nonzero"/><path stroke="#4285f4" stroke-width="3.0" stroke-linejoin="round" stroke-linecap="round" d="M202.79079 71.5L201.71266 71.5L201.71266 64.28125L199.52516 65.078125L199.52516 64.09375L202.63454 62.921875L202.79079 62.921875L202.79079 71.5ZM207.80641 66.703125L208.61891 66.703125Q209.40016 66.6875 209.83766 66.296875Q210.27516 65.90625 210.27516 65.234375Q210.27516 63.734375 208.77516 63.734375Q208.07204 63.734375 207.65016 64.140625Q207.24391 64.546875 207.24391 65.203125L206.15016 65.203125Q206.15016 64.1875 206.88454 63.515625Q207.63454 62.84375 208.77516 62.84375Q209.97829 62.84375 210.66579 63.484375Q211.35329 64.125 211.35329 65.265625Q211.35329 65.828125 210.99391 66.34375Q210.63454 66.859375 210.00954 67.125Q210.71266 67.34375 211.08766 67.859375Q211.47829 68.375 211.47829 69.125Q211.47829 70.265625 210.72829 70.953125Q209.97829 71.625 208.77516 71.625Q207.58766 71.625 206.82204 70.96875Q206.07204 70.3125 206.07204 69.25L207.16579 69.25Q207.16579 69.921875 207.60329 70.328125Q208.04079 70.734375 208.79079 70.734375Q209.57204 70.734375 209.97829 70.328125Q210.40016 69.90625 210.40016 69.140625Q210.40016 68.40625 209.94704 68.015625Q209.49391 67.609375 208.61891 67.59375L207.80641 67.59375L207.80641 66.703125ZM213.36891 70.9375Q213.36891 70.65625 213.52516 70.46875Q213.69704 70.28125 214.02516 70.28125Q214.36891 70.28125 214.54079 70.46875Q214.71266 70.65625 214.71266 70.9375Q214.71266 71.203125 214.54079 71.390625Q214.36891 71.5625 214.02516 71.5625Q213.69704 71.5625 213.52516 71.390625Q213.36891 71.203125 213.36891 70.9375ZM220.38454 67.75Q220.05641 68.15625 219.57204 68.40625Q219.10329 68.640625 218.54079 68.640625Q217.80641 68.640625 217.25954 68.28125Q216.71266 67.921875 216.41579 67.265625Q216.11891 66.59375 216.11891 65.796875Q216.11891 64.953125 216.43141 64.265625Q216.75954 63.578125 217.35329 63.21875Q217.96266 62.84375 218.75954 62.84375Q220.02516 62.84375 220.74391 63.796875Q221.47829 64.75 221.47829 66.375L221.47829 66.6875Q221.47829 69.1875 220.49391 70.328125Q219.50954 71.46875 217.52516 71.5L217.30641 71.5L217.30641 70.59375L217.54079 70.59375Q218.88454 70.5625 219.60329 69.890625Q220.32204 69.21875 220.38454 67.75ZM218.71266 67.75Q219.25954 67.75 219.71266 67.421875Q220.18141 67.078125 220.40016 66.59375L220.40016 66.15625Q220.40016 65.09375 219.93141 64.421875Q219.46266 63.75 218.75954 63.75Q218.04079 63.75 217.60329 64.296875Q217.18141 64.84375 217.18141 65.75Q217.18141 66.625 217.58766 67.1875Q218.00954 67.75 218.71266 67.75Z" fill-rule="nonzero"/><path fill="#ffffff" d="M202.79079 71.5L201.71266 71.5L201.71266 64.28125L199.52516 65.078125L199.52516 64.09375L202.63454 62.921875L202.79079 62.921875L202.79079 71.5ZM207.80641 66.703125L208.61891 66.703125Q209.40016 66.6875 209.83766 66.296875Q210.27516 65.90625 210.27516 65.234375Q210.27516 63.734375 208.77516 63.734375Q208.07204 63.734375 207.65016 64.140625Q207.24391 64.546875 207.24391 65.203125L206.15016 65.203125Q206.15016 64.1875 206.88454 63.515625Q207.63454 62.84375 208.77516 62.84375Q209.97829 62.84375 210.66579 63.484375Q211.35329 64.125 211.35329 65.265625Q211.35329 65.828125 210.99391 66.34375Q210.63454 66.859375 210.00954 67.125Q210.71266 67.34375 211.08766 67.859375Q211.47829 68.375 211.47829 69.125Q211.47829 70.265625 210.72829 70.953125Q209.97829 71.625 208.77516 71.625Q207.58766 71.625 206.82204 70.96875Q206.07204 70.3125 206.07204 69.25L207.16579 69.25Q207.16579 69.921875 207.60329 70.328125Q208.04079 70.734375 208.79079 70.734375Q209.57204 70.734375 209.97829 70.328125Q210.40016 69.90625 210.40016 69.140625Q210.40016 68.40625 209.94704 68.015625Q209.49391 67.609375 208.61891 67.59375L207.80641 67.59375L207.80641 66.703125ZM213.36891 70.9375Q213.36891 70.65625 213.52516 70.46875Q213.69704 70.28125 214.02516 70.28125Q214.36891 70.28125 214.54079 70.46875Q214.71266 70.65625 214.71266 70.9375Q214.71266 71.203125 214.54079 71.390625Q214.36891 71.5625 214.02516 71.5625Q213.69704 71.5625 213.52516 71.390625Q213.36891 71.203125 213.36891 70.9375ZM220.38454 67.75Q220.05641 68.15625 219.57204 68.40625Q219.10329 68.640625 218.54079 68.640625Q217.80641 68.640625 217.25954 68.28125Q216.71266 67.921875 216.41579 67.265625Q216.11891 66.59375 216.11891 65.796875Q216.11891 64.953125 216.43141 64.265625Q216.75954 63.578125 217.35329 63.21875Q217.96266 62.84375 218.75954 62.84375Q220.02516 62.84375 220.74391 63.796875Q221.47829 64.75 221.47829 66.375L221.47829 66.6875Q221.47829 69.1875 220.49391 70.328125Q219.50954 71.46875 217.52516 71.5L217.30641 71.5L217.30641 70.59375L217.54079 70.59375Q218.88454 70.5625 219.60329 69.890625Q220.32204 69.21875 220.38454 67.75ZM218.71266 67.75Q219.25954 67.75 219.71266 67.421875Q220.18141 67.078125 220.40016 66.59375L220.40016 66.15625Q220.40016 65.09375 219.93141 64.421875Q219.46266 63.75 218.75954 63.75Q218.04079 63.75 217.60329 64.296875Q217.18141 64.84375 217.18141 65.75Q217.18141 66.625 217.58766 67.1875Q218.00954 67.75 218.71266 67.75Z" fill-rule="nonzero"/><path stroke="#4285f4" stroke-width="3.0" stroke-linejoin="round" stroke-linecap="round" d="M236.59012 143.5L235.512 143.5L235.512 136.28125L233.3245 137.07812L233.3245 136.09375L236.43387 134.92188L236.59012 134.92188L236.59012 143.5ZM245.21512 137.1875Q245.21512 137.82812 244.87137 138.32812Q244.52762 138.82812 243.96512 139.10938Q244.62137 139.39062 245.012 139.95312Q245.40262 140.5 245.40262 141.20312Q245.40262 142.29688 244.65262 142.96875Q243.91824 143.625 242.6995 143.625Q241.46512 143.625 240.71512 142.96875Q239.98074 142.29688 239.98074 141.20312Q239.98074 140.5 240.35574 139.95312Q240.73074 139.39062 241.40262 139.10938Q240.84012 138.82812 240.512 138.32812Q240.18387 137.82812 240.18387 137.1875Q240.18387 136.10938 240.87137 135.48438Q241.55887 134.84375 242.6995 134.84375Q243.8245 134.84375 244.512 135.48438Q245.21512 136.10938 245.21512 137.1875ZM244.3245 141.17188Q244.3245 140.45312 243.87137 140.01562Q243.41824 139.5625 242.68387 139.5625Q241.9495 139.5625 241.49637 140.01562Q241.05887 140.45312 241.05887 141.1875Q241.05887 141.90625 241.49637 142.32812Q241.93387 142.73438 242.6995 142.73438Q243.4495 142.73438 243.887 142.3125Q244.3245 141.89062 244.3245 141.17188ZM242.6995 135.73438Q242.05887 135.73438 241.65262 136.14062Q241.262 136.53125 241.262 137.21875Q241.262 137.85938 241.65262 138.26562Q242.04324 138.67188 242.68387 138.67188Q243.34012 138.67188 243.73074 138.26562Q244.12137 137.85938 244.12137 137.21875Q244.12137 136.5625 243.71512 136.15625Q243.30887 135.73438 242.6995 135.73438ZM247.16824 142.9375Q247.16824 142.65625 247.3245 142.46875Q247.49637 142.28125 247.8245 142.28125Q248.16824 142.28125 248.34012 142.46875Q248.512 142.65625 248.512 142.9375Q248.512 143.20312 248.34012 143.39062Q248.16824 143.5625 247.8245 143.5625Q247.49637 143.5625 247.3245 143.39062Q247.16824 143.20312 247.16824 142.9375ZM251.60574 138.70312L252.41824 138.70312Q253.1995 138.6875 253.637 138.29688Q254.0745 137.90625 254.0745 137.23438Q254.0745 135.73438 252.5745 135.73438Q251.87137 135.73438 251.4495 136.14062Q251.04324 136.54688 251.04324 137.20312L249.9495 137.20312Q249.9495 136.1875 250.68387 135.51562Q251.43387 134.84375 252.5745 134.84375Q253.77762 134.84375 254.46512 135.48438Q255.15262 136.125 255.15262 137.26562Q255.15262 137.82812 254.79324 138.34375Q254.43387 138.85938 253.80887 139.125Q254.512 139.34375 254.887 139.85938Q255.27762 140.375 255.27762 141.125Q255.27762 142.26562 254.52762 142.95312Q253.77762 143.625 252.5745 143.625Q251.387 143.625 250.62137 142.96875Q249.87137 142.3125 249.87137 141.25L250.96512 141.25Q250.96512 141.92188 251.40262 142.32812Q251.84012 142.73438 252.59012 142.73438Q253.37137 142.73438 253.77762 142.32812Q254.1995 141.90625 254.1995 141.14062Q254.1995 140.40625 253.74637 140.01562Q253.29324 139.60938 252.41824 139.59375L251.60574 139.59375L251.60574 138.70312Z" fill-rule="nonzero"/><path fill="#ffffff" d="M236.59012 143.5L235.512 143.5L235.512 136.28125L233.3245 137.07812L233.3245 136.09375L236.43387 134.92188L236.59012 134.92188L236.59012 143.5ZM245.21512 137.1875Q245.21512 137.82812 244.87137 138.32812Q244.52762 138.82812 243.96512 139.10938Q244.62137 139.39062 245.012 139.95312Q245.40262 140.5 245.40262 141.20312Q245.40262 142.29688 244.65262 142.96875Q243.91824 143.625 242.6995 143.625Q241.46512 143.625 240.71512 142.96875Q239.98074 142.29688 239.98074 141.20312Q239.98074 140.5 240.35574 139.95312Q240.73074 139.39062 241.40262 139.10938Q240.84012 138.82812 240.512 138.32812Q240.18387 137.82812 240.18387 137.1875Q240.18387 136.10938 240.87137 135.48438Q241.55887 134.84375 242.6995 134.84375Q243.8245 134.84375 244.512 135.48438Q245.21512 136.10938 245.21512 137.1875ZM244.3245 141.17188Q244.3245 140.45312 243.87137 140.01562Q243.41824 139.5625 242.68387 139.5625Q241.9495 139.5625 241.49637 140.01562Q241.05887 140.45312 241.05887 141.1875Q241.05887 141.90625 241.49637 142.32812Q241.93387 142.73438 242.6995 142.73438Q243.4495 142.73438 243.887 142.3125Q244.3245 141.89062 244.3245 141.17188ZM242.6995 135.73438Q242.05887 135.73438 241.65262 136.14062Q241.262 136.53125 241.262 137.21875Q241.262 137.85938 241.65262 138.26562Q242.04324 138.67188 242.68387 138.67188Q243.34012 138.67188 243.73074 138.26562Q244.12137 137.85938 244.12137 137.21875Q244.12137 136.5625 243.71512 136.15625Q243.30887 135.73438 242.6995 135.73438ZM247.16824 142.9375Q247.16824 142.65625 247.3245 142.46875Q247.49637 142.28125 247.8245 142.28125Q248.16824 142.28125 248.34012 142.46875Q248.512 142.65625 248.512 142.9375Q248.512 143.20312 248.34012 143.39062Q248.16824 143.5625 247.8245 143.5625Q247.49637 143.5625 247.3245 143.39062Q247.16824 143.20312 247.16824 142.9375ZM251.60574 138.70312L252.41824 138.70312Q253.1995 138.6875 253.637 138.29688Q254.0745 137.90625 254.0745 137.23438Q254.0745 135.73438 252.5745 135.73438Q251.87137 135.73438 251.4495 136.14062Q251.04324 136.54688 251.04324 137.20312L249.9495 137.20312Q249.9495 136.1875 250.68387 135.51562Q251.43387 134.84375 252.5745 134.84375Q253.77762 134.84375 254.46512 135.48438Q255.15262 136.125 255.15262 137.26562Q255.15262 137.82812 254.79324 138.34375Q254.43387 138.85938 253.80887 139.125Q254.512 139.34375 254.887 139.85938Q255.27762 140.375 255.27762 141.125Q255.27762 142.26562 254.52762 142.95312Q253.77762 143.625 252.5745 143.625Q251.387 143.625 250.62137 142.96875Q249.87137 142.3125 249.87137 141.25L250.96512 141.25Q250.96512 141.92188 251.40262 142.32812Q251.84012 142.73438 252.59012 142.73438Q253.37137 142.73438 253.77762 142.32812Q254.1995 141.90625 254.1995 141.14062Q254.1995 140.40625 253.74637 140.01562Q253.29324 139.60938 252.41824 139.59375L251.60574 139.59375L251.60574 138.70312Z" fill-rule="nonzero"/><path stroke="#4285f4" stroke-width="3.0" stroke-linejoin="round" stroke-linecap="round" d="M519.28564 211.21875L519.72314 206.96875L524.09814 206.96875L524.09814 207.96875L520.645 207.96875L520.3794 210.29688Q521.02 209.92188 521.8169 209.92188Q522.97314 209.92188 523.66064 210.70312Q524.34814 211.46875 524.34814 212.78125Q524.34814 214.09375 523.6294 214.85938Q522.9263 215.625 521.645 215.625Q520.52 215.625 519.8013 215.0Q519.0825 214.35938 518.9888 213.25L520.0044 213.25Q520.1138 213.98438 520.53564 214.35938Q520.9575 214.73438 521.645 214.73438Q522.395 214.73438 522.8325 214.21875Q523.27 213.70312 523.27 212.79688Q523.27 211.9375 522.8013 211.42188Q522.3325 210.90625 521.5513 210.90625Q520.84814 210.90625 520.4419 211.20312L520.16064 211.4375L519.28564 211.21875ZM526.28564 211.21875L526.72314 206.96875L531.09814 206.96875L531.09814 207.96875L527.645 207.96875L527.3794 210.29688Q528.02 209.92188 528.8169 209.92188Q529.97314 209.92188 530.66064 210.70312Q531.34814 211.46875 531.34814 212.78125Q531.34814 214.09375 530.6294 214.85938Q529.9263 215.625 528.645 215.625Q527.52 215.625 526.8013 215.0Q526.0825 214.35938 525.9888 213.25L527.0044 213.25Q527.1138 213.98438 527.53564 214.35938Q527.9575 214.73438 528.645 214.73438Q529.395 214.73438 529.8325 214.21875Q530.27 213.70312 530.27 212.79688Q530.27 211.9375 529.8013 211.42188Q529.3325 210.90625 528.5513 210.90625Q527.84814 210.90625 527.4419 211.20312L527.16064 211.4375L526.28564 211.21875ZM532.9263 214.9375Q532.9263 214.65625 533.0825 214.46875Q533.2544 214.28125 533.5825 214.28125Q533.9263 214.28125 534.09814 214.46875Q534.27 214.65625 534.27 214.9375Q534.27 215.20312 534.09814 215.39062Q533.9263 215.5625 533.5825 215.5625Q533.2544 215.5625 533.0825 215.39062Q532.9263 215.20312 532.9263 214.9375ZM536.28564 211.21875L536.72314 206.96875L541.09814 206.96875L541.09814 207.96875L537.645 207.96875L537.3794 210.29688Q538.02 209.92188 538.8169 209.92188Q539.97314 209.92188 540.66064 210.70312Q541.34814 211.46875 541.34814 212.78125Q541.34814 214.09375 540.6294 214.85938Q539.9263 215.625 538.645 215.625Q537.52 215.625 536.8013 215.0Q536.0825 214.35938 535.9888 213.25L537.0044 213.25Q537.1138 213.98438 537.53564 214.35938Q537.9575 214.73438 538.645 214.73438Q539.395 214.73438 539.8325 214.21875Q540.27 213.70312 540.27 212.79688Q540.27 211.9375 539.8013 211.42188Q539.3325 210.90625 538.5513 210.90625Q537.84814 210.90625 537.4419 211.20312L537.16064 211.4375L536.28564 211.21875Z" fill-rule="nonzero"/><path fill="#ffffff" d="M519.28564 211.21875L519.72314 206.96875L524.09814 206.96875L524.09814 207.96875L520.645 207.96875L520.3794 210.29688Q521.02 209.92188 521.8169 209.92188Q522.97314 209.92188 523.66064 210.70312Q524.34814 211.46875 524.34814 212.78125Q524.34814 214.09375 523.6294 214.85938Q522.9263 215.625 521.645 215.625Q520.52 215.625 519.8013 215.0Q519.0825 214.35938 518.9888 213.25L520.0044 213.25Q520.1138 213.98438 520.53564 214.35938Q520.9575 214.73438 521.645 214.73438Q522.395 214.73438 522.8325 214.21875Q523.27 213.70312 523.27 212.79688Q523.27 211.9375 522.8013 211.42188Q522.3325 210.90625 521.5513 210.90625Q520.84814 210.90625 520.4419 211.20312L520.16064 211.4375L519.28564 211.21875ZM526.28564 211.21875L526.72314 206.96875L531.09814 206.96875L531.09814 207.96875L527.645 207.96875L527.3794 210.29688Q528.02 209.92188 528.8169 209.92188Q529.97314 209.92188 530.66064 210.70312Q531.34814 211.46875 531.34814 212.78125Q531.34814 214.09375 530.6294 214.85938Q529.9263 215.625 528.645 215.625Q527.52 215.625 526.8013 215.0Q526.0825 214.35938 525.9888 213.25L527.0044 213.25Q527.1138 213.98438 527.53564 214.35938Q527.9575 214.73438 528.645 214.73438Q529.395 214.73438 529.8325 214.21875Q530.27 213.70312 530.27 212.79688Q530.27 211.9375 529.8013 211.42188Q529.3325 210.90625 528.5513 210.90625Q527.84814 210.90625 527.4419 211.20312L527.16064 211.4375L526.28564 211.21875ZM532.9263 214.9375Q532.9263 214.65625 533.0825 214.46875Q533.2544 214.28125 533.5825 214.28125Q533.9263 214.28125 534.09814 214.46875Q534.27 214.65625 534.27 214.9375Q534.27 215.20312 534.09814 215.39062Q533.9263 215.5625 533.5825 215.5625Q533.2544 215.5625 533.0825 215.39062Q532.9263 215.20312 532.9263 214.9375ZM536.28564 211.21875L536.72314 206.96875L541.09814 206.96875L541.09814 207.96875L537.645 207.96875L537.3794 210.29688Q538.02 209.92188 538.8169 209.92188Q539.97314 209.92188 540.66064 210.70312Q541.34814 211.46875 541.34814 212.78125Q541.34814 214.09375 540.6294 214.85938Q539.9263 215.625 538.645 215.625Q537.52 215.625 536.8013 215.0Q536.0825 214.35938 535.9888 213.25L537.0044 213.25Q537.1138 213.98438 537.53564 214.35938Q537.9575 214.73438 538.645 214.73438Q539.395 214.73438 539.8325 214.21875Q540.27 213.70312 540.27 212.79688Q540.27 211.9375 539.8013 211.42188Q539.3325 210.90625 538.5513 210.90625Q537.84814 210.90625 537.4419 211.20312L537.16064 211.4375L536.28564 211.21875Z" fill-rule="nonzero"/><path stroke="#4285f4" stroke-width="3.0" stroke-linejoin="round" stroke-linecap="round" d="M190.50012 287.5L189.422 287.5L189.422 280.28125L187.2345 281.07812L187.2345 280.09375L190.34387 278.92188L190.50012 278.92188L190.50012 287.5ZM199.53137 287.5L193.93762 287.5L193.93762 286.71875L196.89075 283.4375Q197.547 282.6875 197.797 282.23438Q198.047 281.76562 198.047 281.26562Q198.047 280.59375 197.64075 280.17188Q197.25012 279.73438 196.56262 279.73438Q195.76575 279.73438 195.31262 280.20312Q194.8595 280.65625 194.8595 281.48438L193.78137 281.48438Q193.78137 280.29688 194.53137 279.57812Q195.297 278.84375 196.56262 278.84375Q197.76575 278.84375 198.45325 279.46875Q199.14075 280.09375 199.14075 281.14062Q199.14075 282.39062 197.53137 284.14062L195.25012 286.60938L199.53137 286.60938L199.53137 287.5ZM201.07825 286.9375Q201.07825 286.65625 201.2345 286.46875Q201.40637 286.28125 201.7345 286.28125Q202.07825 286.28125 202.25012 286.46875Q202.422 286.65625 202.422 286.9375Q202.422 287.20312 202.25012 287.39062Q202.07825 287.5625 201.7345 287.5625Q201.40637 287.5625 201.2345 287.39062Q201.07825 287.20312 201.07825 286.9375ZM205.51575 282.70312L206.32825 282.70312Q207.1095 282.6875 207.547 282.29688Q207.9845 281.90625 207.9845 281.23438Q207.9845 279.73438 206.4845 279.73438Q205.78137 279.73438 205.3595 280.14062Q204.95325 280.54688 204.95325 281.20312L203.8595 281.20312Q203.8595 280.1875 204.59387 279.51562Q205.34387 278.84375 206.4845 278.84375Q207.68762 278.84375 208.37512 279.48438Q209.06262 280.125 209.06262 281.26562Q209.06262 281.82812 208.70325 282.34375Q208.34387 282.85938 207.71887 283.125Q208.422 283.34375 208.797 283.85938Q209.18762 284.375 209.18762 285.125Q209.18762 286.26562 208.43762 286.95312Q207.68762 287.625 206.4845 287.625Q205.297 287.625 204.53137 286.96875Q203.78137 286.3125 203.78137 285.25L204.87512 285.25Q204.87512 285.92188 205.31262 286.32812Q205.75012 286.73438 206.50012 286.73438Q207.28137 286.73438 207.68762 286.32812Q208.1095 285.90625 208.1095 285.14062Q208.1095 284.40625 207.65637 284.01562Q207.20325 283.60938 206.32825 283.59375L205.51575 283.59375L205.51575 282.70312Z" fill-rule="nonzero"/><path fill="#ffffff" d="M190.50012 287.5L189.422 287.5L189.422 280.28125L187.2345 281.07812L187.2345 280.09375L190.34387 278.92188L190.50012 278.92188L190.50012 287.5ZM199.53137 287.5L193.93762 287.5L193.93762 286.71875L196.89075 283.4375Q197.547 282.6875 197.797 282.23438Q198.047 281.76562 198.047 281.26562Q198.047 280.59375 197.64075 280.17188Q197.25012 279.73438 196.56262 279.73438Q195.76575 279.73438 195.31262 280.20312Q194.8595 280.65625 194.8595 281.48438L193.78137 281.48438Q193.78137 280.29688 194.53137 279.57812Q195.297 278.84375 196.56262 278.84375Q197.76575 278.84375 198.45325 279.46875Q199.14075 280.09375 199.14075 281.14062Q199.14075 282.39062 197.53137 284.14062L195.25012 286.60938L199.53137 286.60938L199.53137 287.5ZM201.07825 286.9375Q201.07825 286.65625 201.2345 286.46875Q201.40637 286.28125 201.7345 286.28125Q202.07825 286.28125 202.25012 286.46875Q202.422 286.65625 202.422 286.9375Q202.422 287.20312 202.25012 287.39062Q202.07825 287.5625 201.7345 287.5625Q201.40637 287.5625 201.2345 287.39062Q201.07825 287.20312 201.07825 286.9375ZM205.51575 282.70312L206.32825 282.70312Q207.1095 282.6875 207.547 282.29688Q207.9845 281.90625 207.9845 281.23438Q207.9845 279.73438 206.4845 279.73438Q205.78137 279.73438 205.3595 280.14062Q204.95325 280.54688 204.95325 281.20312L203.8595 281.20312Q203.8595 280.1875 204.59387 279.51562Q205.34387 278.84375 206.4845 278.84375Q207.68762 278.84375 208.37512 279.48438Q209.06262 280.125 209.06262 281.26562Q209.06262 281.82812 208.70325 282.34375Q208.34387 282.85938 207.71887 283.125Q208.422 283.34375 208.797 283.85938Q209.18762 284.375 209.18762 285.125Q209.18762 286.26562 208.43762 286.95312Q207.68762 287.625 206.4845 287.625Q205.297 287.625 204.53137 286.96875Q203.78137 286.3125 203.78137 285.25L204.87512 285.25Q204.87512 285.92188 205.31262 286.32812Q205.75012 286.73438 206.50012 286.73438Q207.28137 286.73438 207.68762 286.32812Q208.1095 285.90625 208.1095 285.14062Q208.1095 284.40625 207.65637 284.01562Q207.20325 283.60938 206.32825 283.59375L205.51575 283.59375L205.51575 282.70312Z" fill-rule="nonzero"/><path fill="#757575" d="M40.253124 69.36907L36.675 69.36907L35.878124 71.60345L34.721874 71.60345L37.971874 63.072197L38.95625 63.072197L42.221874 71.60345L41.065624 71.60345L40.253124 69.36907ZM37.01875 68.4472L39.925 68.4472L38.471874 64.46282L37.01875 68.4472ZM48.7375 68.5097Q48.7375 69.96282 48.065624 70.85345Q47.409374 71.72845 46.284374 71.72845Q45.08125 71.72845 44.425 70.86907L44.3625 71.60345L43.378124 71.60345L43.378124 62.603447L44.45625 62.603447L44.45625 65.96282Q45.1125 65.15032 46.26875 65.15032Q47.425 65.15032 48.08125 66.02532Q48.7375 66.8847 48.7375 68.41595L48.7375 68.5097ZM47.659374 68.3847Q47.659374 67.27532 47.221874 66.68157Q46.8 66.0722 46.003124 66.0722Q44.925 66.0722 44.45625 67.05657L44.45625 69.80657Q44.95625 70.80657 46.003124 70.80657Q46.784374 70.80657 47.221874 70.1972Q47.659374 69.58782 47.659374 68.3847ZM54.284374 71.60345Q54.190624 71.41595 54.128124 70.93157Q53.378124 71.72845 52.33125 71.72845Q51.39375 71.72845 50.784374 71.1972Q50.190624 70.66595 50.190624 69.83782Q50.190624 68.85345 50.940624 68.30657Q51.690624 67.7597 53.065624 67.7597L54.1125 67.7597L54.1125 67.2597Q54.1125 66.6972 53.76875 66.36907Q53.440624 66.02532 52.76875 66.02532Q52.190624 66.02532 51.8 66.3222Q51.409374 66.60345 51.409374 67.02532L50.315624 67.02532Q50.315624 66.54095 50.64375 66.10345Q50.9875 65.66595 51.565624 65.41595Q52.14375 65.15032 52.83125 65.15032Q53.940624 65.15032 54.55 65.6972Q55.175 66.24407 55.20625 67.1972L55.20625 70.11907Q55.20625 70.99407 55.425 71.5097L55.425 71.60345L54.284374 71.60345ZM52.4875 70.77532Q53.003124 70.77532 53.45625 70.5097Q53.909374 70.24407 54.1125 69.8222L54.1125 68.52532L53.26875 68.52532Q51.26875 68.52532 51.26875 69.6972Q51.26875 70.1972 51.6125 70.49407Q51.95625 70.77532 52.4875 70.77532ZM58.55 71.60345L57.471874 71.60345L57.471874 65.2597L58.55 65.2597L58.55 71.60345ZM57.378124 63.587822Q57.378124 63.322197 57.534374 63.134697Q57.70625 62.947197 58.01875 62.947197Q58.33125 62.947197 58.4875 63.134697Q58.659374 63.322197 58.659374 63.587822Q58.659374 63.837822 58.4875 64.02532Q58.33125 64.1972 58.01875 64.1972Q57.70625 64.1972 57.534374 64.02532Q57.378124 63.837822 57.378124 63.587822ZM62.503124 67.5722L63.909374 65.2597L65.175 65.2597L63.096874 68.40032L65.2375 71.60345L63.9875 71.60345L62.51875 69.22845L61.05 71.60345L59.784374 71.60345L61.925 68.40032L59.8625 65.2597L61.1125 65.2597L62.503124 67.5722ZM66.08125 68.36907Q66.08125 67.4472 66.44063 66.6972Q66.81563 65.9472 67.47188 65.55657Q68.12813 65.15032 68.95625 65.15032Q70.25313 65.15032 71.05 66.04095Q71.8625 66.93157 71.8625 68.43157L71.8625 68.5097Q71.8625 69.43157 71.50313 70.16595Q71.14375 70.90032 70.4875 71.3222Q69.83125 71.72845 68.97188 71.72845Q67.69063 71.72845 66.87813 70.83782Q66.08125 69.93157 66.08125 68.4472L66.08125 68.36907ZM67.175 68.5097Q67.175 69.55657 67.65938 70.1972Q68.15938 70.83782 68.97188 70.83782Q69.8 70.83782 70.28438 70.1972Q70.76875 69.54095 70.76875 68.36907Q70.76875 67.33782 70.26875 66.6972Q69.78438 66.04095 68.95625 66.04095Q68.15938 66.04095 67.65938 66.68157Q67.175 67.30657 67.175 68.5097ZM76.1125 68.3847Q76.1125 66.91595 76.8 66.04095Q77.4875 65.15032 78.6125 65.15032Q79.72188 65.15032 80.37813 65.90032L80.37813 62.603447L81.45625 62.603447L81.45625 71.60345L80.45625 71.60345L80.40938 70.91595Q79.75313 71.72845 78.59688 71.72845Q77.50313 71.72845 76.8 70.8222Q76.1125 69.91595 76.1125 68.46282L76.1125 68.3847ZM77.19063 68.5097Q77.19063 69.58782 77.62813 70.1972Q78.08125 70.80657 78.8625 70.80657Q79.89375 70.80657 80.37813 69.86907L80.37813 66.96282Q79.89375 66.0722 78.87813 66.0722Q78.08125 66.0722 77.62813 66.68157Q77.19063 67.29095 77.19063 68.5097ZM86.00313 71.72845Q84.70625 71.72845 83.89375 70.8847Q83.09688 70.02532 83.09688 68.60345L83.09688 68.41595Q83.09688 67.46282 83.45625 66.72845Q83.81563 65.97845 84.45625 65.5722Q85.1125 65.15032 85.8625 65.15032Q87.09688 65.15032 87.78438 65.96282Q88.47188 66.77532 88.47188 68.29095L88.47188 68.74407L84.175 68.74407Q84.20625 69.68157 84.72188 70.2597Q85.25313 70.83782 86.06563 70.83782Q86.62813 70.83782 87.01875 70.60345Q87.425 70.36907 87.7375 69.97845L88.39375 70.49407Q87.59688 71.72845 86.00313 71.72845ZM85.8625 66.04095Q85.20625 66.04095 84.75313 66.52532Q84.31563 66.99407 84.22188 67.85345L87.39375 67.85345L87.39375 67.77532Q87.34688 66.9472 86.94063 66.49407Q86.55 66.04095 85.8625 66.04095ZM97.84688 71.60345L92.25313 71.60345L92.25313 70.8222L95.20625 67.54095Q95.8625 66.79095 96.1125 66.33782Q96.3625 65.86907 96.3625 65.36907Q96.3625 64.6972 95.95625 64.27532Q95.56563 63.837822 94.87813 63.837822Q94.08125 63.837822 93.62813 64.30657Q93.175 64.7597 93.175 65.58782L92.09688 65.58782Q92.09688 64.40032 92.84688 63.681572Q93.6125 62.947197 94.87813 62.947197Q96.08125 62.947197 96.76875 63.572197Q97.45625 64.1972 97.45625 65.24407Q97.45625 66.49407 95.84688 68.24407L93.56563 70.71282L97.84688 70.71282L97.84688 71.60345ZM104.6125 67.96282Q104.6125 69.86907 103.95625 70.80657Q103.31563 71.72845 101.925 71.72845Q100.56563 71.72845 99.90938 70.8222Q99.25313 69.91595 99.22188 68.10345L99.22188 66.66595Q99.22188 64.77532 99.8625 63.869072Q100.51875 62.947197 101.90938 62.947197Q103.28438 62.947197 103.94063 63.837822Q104.59688 64.71282 104.6125 66.55657L104.6125 67.96282ZM103.51875 66.47845Q103.51875 65.10345 103.12813 64.47845Q102.75313 63.837822 101.90938 63.837822Q101.08125 63.837822 100.69063 64.47845Q100.31563 65.10345 100.31563 66.40032L100.31563 68.1347Q100.31563 69.5097 100.70625 70.18157Q101.1125 70.83782 101.925 70.83782Q102.72188 70.83782 103.1125 70.21282Q103.50313 69.58782 103.51875 68.2597L103.51875 66.47845ZM106.15938 64.71282Q106.15938 63.947197 106.64375 63.447197Q107.14375 62.947197 107.90938 62.947197Q108.69063 62.947197 109.175 63.447197Q109.65938 63.947197 109.65938 64.74407L109.65938 65.16595Q109.65938 65.93157 109.15938 66.43157Q108.675 66.91595 107.925 66.91595Q107.15938 66.91595 106.65938 66.43157Q106.15938 65.93157 106.15938 65.11907L106.15938 64.71282ZM106.97188 65.16595Q106.97188 65.61907 107.22188 65.91595Q107.4875 66.21282 107.925 66.21282Q108.34688 66.21282 108.59688 65.93157Q108.84688 65.6347 108.84688 65.1347L108.84688 64.71282Q108.84688 64.2597 108.59688 63.962822Q108.34688 63.650322 107.90938 63.650322Q107.47188 63.650322 107.22188 63.962822Q106.97188 64.2597 106.97188 64.72845L106.97188 65.16595ZM110.31563 69.5097Q110.31563 68.74407 110.8 68.2597Q111.3 67.7597 112.06563 67.7597Q112.83125 67.7597 113.31563 68.2597Q113.81563 68.74407 113.81563 69.55657L113.81563 69.96282Q113.81563 70.72845 113.33125 71.22845Q112.84688 71.72845 112.08125 71.72845Q111.31563 71.72845 110.81563 71.24407Q110.31563 70.74407 110.31563 69.93157L110.31563 69.5097ZM111.12813 69.96282Q111.12813 70.43157 111.37813 70.72845Q111.64375 71.02532 112.08125 71.02532Q112.50313 71.02532 112.75313 70.74407Q113.00313 70.4472 113.00313 69.9472L113.00313 69.5097Q113.00313 69.04095 112.7375 68.7597Q112.4875 68.46282 112.06563 68.46282Q111.64375 68.46282 111.37813 68.7597Q111.12813 69.04095 111.12813 69.54095L111.12813 69.96282ZM108.175 70.96282L107.55 70.5722L111.72188 63.900322L112.33125 64.29095L108.175 70.96282Z" fill-rule="nonzero"/><path fill="#757575" d="M31.3625 139.59698L27.659374 139.59698L27.659374 142.61261L31.95625 142.61261L31.95625 143.53448L26.534374 143.53448L26.534374 135.00323L31.909374 135.00323L31.909374 135.92511L27.659374 135.92511L27.659374 138.67511L31.3625 138.67511L31.3625 139.59698ZM34.39375 137.19073L34.425 137.98761Q35.159374 137.08136 36.33125 137.08136Q38.346874 137.08136 38.3625 139.34698L38.3625 143.53448L37.26875 143.53448L37.26875 139.33136Q37.26875 138.65948 36.95625 138.33136Q36.659374 138.00323 36.003124 138.00323Q35.471874 138.00323 35.065624 138.28448Q34.675 138.56573 34.45625 139.01886L34.45625 143.53448L33.378124 143.53448L33.378124 137.19073L34.39375 137.19073ZM41.846874 135.65948L41.846874 137.19073L43.01875 137.19073L43.01875 138.03448L41.846874 138.03448L41.846874 141.95636Q41.846874 142.34698 42.003124 142.53448Q42.159374 142.72198 42.534374 142.72198Q42.721874 142.72198 43.05 142.65948L43.05 143.53448Q42.628124 143.65948 42.221874 143.65948Q41.503124 143.65948 41.128124 143.22198Q40.753124 142.76886 40.753124 141.95636L40.753124 138.03448L39.596874 138.03448L39.596874 137.19073L40.753124 137.19073L40.753124 135.65948L41.846874 135.65948ZM47.440624 138.15948Q47.190624 138.12823 46.909374 138.12823Q45.83125 138.12823 45.45625 139.03448L45.45625 143.53448L44.378124 143.53448L44.378124 137.19073L45.425 137.19073L45.440624 137.92511Q45.971874 137.08136 46.95625 137.08136Q47.26875 137.08136 47.440624 137.15948L47.440624 138.15948ZM51.003124 143.65948Q49.70625 143.65948 48.89375 142.81573Q48.096874 141.95636 48.096874 140.53448L48.096874 140.34698Q48.096874 139.39386 48.45625 138.65948Q48.815624 137.90948 49.45625 137.50323Q50.1125 137.08136 50.8625 137.08136Q52.096874 137.08136 52.784374 137.89386Q53.471874 138.70636 53.471874 140.22198L53.471874 140.67511L49.175 140.67511Q49.20625 141.61261 49.721874 142.19073Q50.253124 142.76886 51.065624 142.76886Q51.628124 142.76886 52.01875 142.53448Q52.425 142.30011 52.7375 141.90948L53.39375 142.42511Q52.596874 143.65948 51.003124 143.65948ZM50.8625 137.97198Q50.20625 137.97198 49.753124 138.45636Q49.315624 138.92511 49.221874 139.78448L52.39375 139.78448L52.39375 139.70636Q52.346874 138.87823 51.940624 138.42511Q51.55 137.97198 50.8625 137.97198ZM62.846874 143.53448L57.253124 143.53448L57.253124 142.75323L60.20625 139.47198Q60.8625 138.72198 61.1125 138.26886Q61.3625 137.80011 61.3625 137.30011Q61.3625 136.62823 60.95625 136.20636Q60.565624 135.76886 59.878124 135.76886Q59.08125 135.76886 58.628124 136.23761Q58.175 136.69073 58.175 137.51886L57.096874 137.51886Q57.096874 136.33136 57.846874 135.61261Q58.6125 134.87823 59.878124 134.87823Q61.08125 134.87823 61.76875 135.50323Q62.45625 136.12823 62.45625 137.17511Q62.45625 138.42511 60.846874 140.17511L58.565624 142.64386L62.846874 142.64386L62.846874 143.53448ZM67.81563 143.53448L66.7375 143.53448L66.7375 136.31573L64.55 137.11261L64.55 136.12823L67.65938 134.95636L67.81563 134.95636L67.81563 143.53448ZM71.15938 136.64386Q71.15938 135.87823 71.64375 135.37823Q72.14375 134.87823 72.90938 134.87823Q73.69063 134.87823 74.175 135.37823Q74.65938 135.87823 74.65938 136.67511L74.65938 137.09698Q74.65938 137.86261 74.15938 138.36261Q73.675 138.84698 72.925 138.84698Q72.15938 138.84698 71.65938 138.36261Q71.15938 137.86261 71.15938 137.05011L71.15938 136.64386ZM71.97188 137.09698Q71.97188 137.55011 72.22188 137.84698Q72.4875 138.14386 72.925 138.14386Q73.34688 138.14386 73.59688 137.86261Q73.84688 137.56573 73.84688 137.06573L73.84688 136.64386Q73.84688 136.19073 73.59688 135.89386Q73.34688 135.58136 72.90938 135.58136Q72.47188 135.58136 72.22188 135.89386Q71.97188 136.19073 71.97188 136.65948L71.97188 137.09698ZM75.31563 141.44073Q75.31563 140.67511 75.8 140.19073Q76.3 139.69073 77.06563 139.69073Q77.83125 139.69073 78.31563 140.19073Q78.81563 140.67511 78.81563 141.48761L78.81563 141.89386Q78.81563 142.65948 78.33125 143.15948Q77.84688 143.65948 77.08125 143.65948Q76.31563 143.65948 75.81563 143.17511Q75.31563 142.67511 75.31563 141.86261L75.31563 141.44073ZM76.12813 141.89386Q76.12813 142.36261 76.37813 142.65948Q76.64375 142.95636 77.08125 142.95636Q77.50313 142.95636 77.75313 142.67511Q78.00313 142.37823 78.00313 141.87823L78.00313 141.44073Q78.00313 140.97198 77.7375 140.69073Q77.4875 140.39386 77.06563 140.39386Q76.64375 140.39386 76.37813 140.69073Q76.12813 140.97198 76.12813 141.47198L76.12813 141.89386ZM73.175 142.89386L72.55 142.50323L76.72188 135.83136L77.33125 136.22198L73.175 142.89386ZM86.00313 143.65948Q84.70625 143.65948 83.89375 142.81573Q83.09688 141.95636 83.09688 140.53448L83.09688 140.34698Q83.09688 139.39386 83.45625 138.65948Q83.81563 137.90948 84.45625 137.50323Q85.1125 137.08136 85.8625 137.08136Q87.09688 137.08136 87.78438 137.89386Q88.47188 138.70636 88.47188 140.22198L88.47188 140.67511L84.175 140.67511Q84.20625 141.61261 84.72188 142.19073Q85.25313 142.76886 86.06563 142.76886Q86.62813 142.76886 87.01875 142.53448Q87.425 142.30011 87.7375 141.90948L88.39375 142.42511Q87.59688 143.65948 86.00313 143.65948ZM85.8625 137.97198Q85.20625 137.97198 84.75313 138.45636Q84.31563 138.92511 84.22188 139.78448L87.39375 139.78448L87.39375 139.70636Q87.34688 138.87823 86.94063 138.42511Q86.55 137.97198 85.8625 137.97198ZM92.75313 139.25323L93.19063 135.00323L97.56563 135.00323L97.56563 136.00323L94.1125 136.00323L93.84688 138.33136Q94.4875 137.95636 95.28438 137.95636Q96.44063 137.95636 97.12813 138.73761Q97.81563 139.50323 97.81563 140.81573Q97.81563 142.12823 97.09688 142.89386Q96.39375 143.65948 95.1125 143.65948Q93.9875 143.65948 93.26875 143.03448Q92.55 142.39386 92.45625 141.28448L93.47188 141.28448Q93.58125 142.01886 94.00313 142.39386Q94.425 142.76886 95.1125 142.76886Q95.8625 142.76886 96.3 142.25323Q96.7375 141.73761 96.7375 140.83136Q96.7375 139.97198 96.26875 139.45636Q95.8 138.94073 95.01875 138.94073Q94.31563 138.94073 93.90938 139.23761L93.62813 139.47198L92.75313 139.25323ZM104.6125 139.89386Q104.6125 141.80011 103.95625 142.73761Q103.31563 143.65948 101.925 143.65948Q100.56563 143.65948 99.90938 142.75323Q99.25313 141.84698 99.22188 140.03448L99.22188 138.59698Q99.22188 136.70636 99.8625 135.80011Q100.51875 134.87823 101.90938 134.87823Q103.28438 134.87823 103.94063 135.76886Q104.59688 136.64386 104.6125 138.48761L104.6125 139.89386ZM103.51875 138.40948Q103.51875 137.03448 103.12813 136.40948Q102.75313 135.76886 101.90938 135.76886Q101.08125 135.76886 100.69063 136.40948Q100.31563 137.03448 100.31563 138.33136L100.31563 140.06573Q100.31563 141.44073 100.70625 142.11261Q101.1125 142.76886 101.925 142.76886Q102.72188 142.76886 103.1125 142.14386Q103.50313 141.51886 103.51875 140.19073L103.51875 138.40948ZM106.15938 136.64386Q106.15938 135.87823 106.64375 135.37823Q107.14375 134.87823 107.90938 134.87823Q108.69063 134.87823 109.175 135.37823Q109.65938 135.87823 109.65938 136.67511L109.65938 137.09698Q109.65938 137.86261 109.15938 138.36261Q108.675 138.84698 107.925 138.84698Q107.15938 138.84698 106.65938 138.36261Q106.15938 137.86261 106.15938 137.05011L106.15938 136.64386ZM106.97188 137.09698Q106.97188 137.55011 107.22188 137.84698Q107.4875 138.14386 107.925 138.14386Q108.34688 138.14386 108.59688 137.86261Q108.84688 137.56573 108.84688 137.06573L108.84688 136.64386Q108.84688 136.19073 108.59688 135.89386Q108.34688 135.58136 107.90938 135.58136Q107.47188 135.58136 107.22188 135.89386Q106.97188 136.19073 106.97188 136.65948L106.97188 137.09698ZM110.31563 141.44073Q110.31563 140.67511 110.8 140.19073Q111.3 139.69073 112.06563 139.69073Q112.83125 139.69073 113.31563 140.19073Q113.81563 140.67511 113.81563 141.48761L113.81563 141.89386Q113.81563 142.65948 113.33125 143.15948Q112.84688 143.65948 112.08125 143.65948Q111.31563 143.65948 110.81563 143.17511Q110.31563 142.67511 110.31563 141.86261L110.31563 141.44073ZM111.12813 141.89386Q111.12813 142.36261 111.37813 142.65948Q111.64375 142.95636 112.08125 142.95636Q112.50313 142.95636 112.75313 142.67511Q113.00313 142.37823 113.00313 141.87823L113.00313 141.44073Q113.00313 140.97198 112.7375 140.69073Q112.4875 140.39386 112.06563 140.39386Q111.64375 140.39386 111.37813 140.69073Q111.12813 140.97198 111.12813 141.47198L111.12813 141.89386ZM108.175 142.89386L107.55 142.50323L111.72188 135.83136L112.33125 136.22198L108.175 142.89386Z" fill-rule="nonzero"/><path fill="#757575" d="M24.3625 211.52802L20.659374 211.52802L20.659374 214.54364L24.95625 214.54364L24.95625 215.46552L19.534374 215.46552L19.534374 206.93427L24.909374 206.93427L24.909374 207.85614L20.659374 207.85614L20.659374 210.60614L24.3625 210.60614L24.3625 211.52802ZM27.39375 209.12177L27.425 209.91864Q28.159374 209.01239 29.33125 209.01239Q31.346874 209.01239 31.3625 211.27802L31.3625 215.46552L30.26875 215.46552L30.26875 211.26239Q30.26875 210.59052 29.95625 210.26239Q29.659374 209.93427 29.003124 209.93427Q28.471874 209.93427 28.065624 210.21552Q27.675 210.49677 27.45625 210.94989L27.45625 215.46552L26.378124 215.46552L26.378124 209.12177L27.39375 209.12177ZM34.846874 207.59052L34.846874 209.12177L36.01875 209.12177L36.01875 209.96552L34.846874 209.96552L34.846874 213.88739Q34.846874 214.27802 35.003124 214.46552Q35.159374 214.65302 35.534374 214.65302Q35.721874 214.65302 36.05 214.59052L36.05 215.46552Q35.628124 215.59052 35.221874 215.59052Q34.503124 215.59052 34.128124 215.15302Q33.753124 214.69989 33.753124 213.88739L33.753124 209.96552L32.596874 209.96552L32.596874 209.12177L33.753124 209.12177L33.753124 207.59052L34.846874 207.59052ZM40.440624 210.09052Q40.190624 210.05927 39.909374 210.05927Q38.83125 210.05927 38.45625 210.96552L38.45625 215.46552L37.378124 215.46552L37.378124 209.12177L38.425 209.12177L38.440624 209.85614Q38.971874 209.01239 39.95625 209.01239Q40.26875 209.01239 40.440624 209.09052L40.440624 210.09052ZM44.003124 215.59052Q42.70625 215.59052 41.89375 214.74677Q41.096874 213.88739 41.096874 212.46552L41.096874 212.27802Q41.096874 211.32489 41.45625 210.59052Q41.815624 209.84052 42.45625 209.43427Q43.1125 209.01239 43.8625 209.01239Q45.096874 209.01239 45.784374 209.82489Q46.471874 210.63739 46.471874 212.15302L46.471874 212.60614L42.175 212.60614Q42.20625 213.54364 42.721874 214.12177Q43.253124 214.69989 44.065624 214.69989Q44.628124 214.69989 45.01875 214.46552Q45.425 214.23114 45.7375 213.84052L46.39375 214.35614Q45.596874 215.59052 44.003124 215.59052ZM43.8625 209.90302Q43.20625 209.90302 42.753124 210.38739Q42.315624 210.85614 42.221874 211.71552L45.39375 211.71552L45.39375 211.63739Q45.346874 210.80927 44.940624 210.35614Q44.55 209.90302 43.8625 209.90302ZM50.753124 211.18427L51.190624 206.93427L55.565624 206.93427L55.565624 207.93427L52.1125 207.93427L51.846874 210.26239Q52.4875 209.88739 53.284374 209.88739Q54.440624 209.88739 55.128124 210.66864Q55.815624 211.43427 55.815624 212.74677Q55.815624 214.05927 55.096874 214.82489Q54.39375 215.59052 53.1125 215.59052Q51.9875 215.59052 51.26875 214.96552Q50.55 214.32489 50.45625 213.21552L51.471874 213.21552Q51.58125 213.94989 52.003124 214.32489Q52.425 214.69989 53.1125 214.69989Q53.8625 214.69989 54.3 214.18427Q54.7375 213.66864 54.7375 212.76239Q54.7375 211.90302 54.26875 211.38739Q53.8 210.87177 53.01875 210.87177Q52.315624 210.87177 51.909374 211.16864L51.628124 211.40302L50.753124 211.18427ZM60.815624 215.46552L59.7375 215.46552L59.7375 208.24677L57.55 209.04364L57.55 208.05927L60.659374 206.88739L60.815624 206.88739L60.815624 215.46552ZM64.15938 208.57489Q64.15938 207.80927 64.64375 207.30927Q65.14375 206.80927 65.90938 206.80927Q66.69063 206.80927 67.175 207.30927Q67.65938 207.80927 67.65938 208.60614L67.65938 209.02802Q67.65938 209.79364 67.15938 210.29364Q66.675 210.77802 65.925 210.77802Q65.15938 210.77802 64.65938 210.29364Q64.15938 209.79364 64.15938 208.98114L64.15938 208.57489ZM64.97188 209.02802Q64.97188 209.48114 65.22188 209.77802Q65.4875 210.07489 65.925 210.07489Q66.34688 210.07489 66.59688 209.79364Q66.84688 209.49677 66.84688 208.99677L66.84688 208.57489Q66.84688 208.12177 66.59688 207.82489Q66.34688 207.51239 65.90938 207.51239Q65.47188 207.51239 65.22188 207.82489Q64.97188 208.12177 64.97188 208.59052L64.97188 209.02802ZM68.31563 213.37177Q68.31563 212.60614 68.8 212.12177Q69.3 211.62177 70.06563 211.62177Q70.83125 211.62177 71.31563 212.12177Q71.81563 212.60614 71.81563 213.41864L71.81563 213.82489Q71.81563 214.59052 71.33125 215.09052Q70.84688 215.59052 70.08125 215.59052Q69.31563 215.59052 68.81563 215.10614Q68.31563 214.60614 68.31563 213.79364L68.31563 213.37177ZM69.12813 213.82489Q69.12813 214.29364 69.37813 214.59052Q69.64375 214.88739 70.08125 214.88739Q70.50313 214.88739 70.75313 214.60614Q71.00313 214.30927 71.00313 213.80927L71.00313 213.37177Q71.00313 212.90302 70.7375 212.62177Q70.4875 212.32489 70.06563 212.32489Q69.64375 212.32489 69.37813 212.62177Q69.12813 212.90302 69.12813 213.40302L69.12813 213.82489ZM66.175 214.82489L65.55 214.43427L69.72188 207.76239L70.33125 208.15302L66.175 214.82489ZM79.00313 215.59052Q77.70625 215.59052 76.89375 214.74677Q76.09688 213.88739 76.09688 212.46552L76.09688 212.27802Q76.09688 211.32489 76.45625 210.59052Q76.81563 209.84052 77.45625 209.43427Q78.1125 209.01239 78.8625 209.01239Q80.09688 209.01239 80.78438 209.82489Q81.47188 210.63739 81.47188 212.15302L81.47188 212.60614L77.175 212.60614Q77.20625 213.54364 77.72188 214.12177Q78.25313 214.69989 79.06563 214.69989Q79.62813 214.69989 80.01875 214.46552Q80.425 214.23114 80.7375 213.84052L81.39375 214.35614Q80.59688 215.59052 79.00313 215.59052ZM78.8625 209.90302Q78.20625 209.90302 77.75313 210.38739Q77.31563 210.85614 77.22188 211.71552L80.39375 211.71552L80.39375 211.63739Q80.34688 210.80927 79.94063 210.35614Q79.55 209.90302 78.8625 209.90302ZM90.84688 215.46552L85.25313 215.46552L85.25313 214.68427L88.20625 211.40302Q88.8625 210.65302 89.1125 210.19989Q89.3625 209.73114 89.3625 209.23114Q89.3625 208.55927 88.95625 208.13739Q88.56563 207.69989 87.87813 207.69989Q87.08125 207.69989 86.62813 208.16864Q86.175 208.62177 86.175 209.44989L85.09688 209.44989Q85.09688 208.26239 85.84688 207.54364Q86.6125 206.80927 87.87813 206.80927Q89.08125 206.80927 89.76875 207.43427Q90.45625 208.05927 90.45625 209.10614Q90.45625 210.35614 88.84688 212.10614L86.56563 214.57489L90.84688 214.57489L90.84688 215.46552ZM97.6125 211.82489Q97.6125 213.73114 96.95625 214.66864Q96.31563 215.59052 94.925 215.59052Q93.56563 215.59052 92.90938 214.68427Q92.25313 213.77802 92.22188 211.96552L92.22188 210.52802Q92.22188 208.63739 92.8625 207.73114Q93.51875 206.80927 94.90938 206.80927Q96.28438 206.80927 96.94063 207.69989Q97.59688 208.57489 97.6125 210.41864L97.6125 211.82489ZM96.51875 210.34052Q96.51875 208.96552 96.12813 208.34052Q95.75313 207.69989 94.90938 207.69989Q94.08125 207.69989 93.69063 208.34052Q93.31563 208.96552 93.31563 210.26239L93.31563 211.99677Q93.31563 213.37177 93.70625 214.04364Q94.1125 214.69989 94.925 214.69989Q95.72188 214.69989 96.1125 214.07489Q96.50313 213.44989 96.51875 212.12177L96.51875 210.34052ZM104.6125 211.82489Q104.6125 213.73114 103.95625 214.66864Q103.31563 215.59052 101.925 215.59052Q100.56563 215.59052 99.90938 214.68427Q99.25313 213.77802 99.22188 211.96552L99.22188 210.52802Q99.22188 208.63739 99.8625 207.73114Q100.51875 206.80927 101.90938 206.80927Q103.28438 206.80927 103.94063 207.69989Q104.59688 208.57489 104.6125 210.41864L104.6125 211.82489ZM103.51875 210.34052Q103.51875 208.96552 103.12813 208.34052Q102.75313 207.69989 101.90938 207.69989Q101.08125 207.69989 100.69063 208.34052Q100.31563 208.96552 100.31563 210.26239L100.31563 211.99677Q100.31563 213.37177 100.70625 214.04364Q101.1125 214.69989 101.925 214.69989Q102.72188 214.69989 103.1125 214.07489Q103.50313 213.44989 103.51875 212.12177L103.51875 210.34052ZM106.15938 208.57489Q106.15938 207.80927 106.64375 207.30927Q107.14375 206.80927 107.90938 206.80927Q108.69063 206.80927 109.175 207.30927Q109.65938 207.80927 109.65938 208.60614L109.65938 209.02802Q109.65938 209.79364 109.15938 210.29364Q108.675 210.77802 107.925 210.77802Q107.15938 210.77802 106.65938 210.29364Q106.15938 209.79364 106.15938 208.98114L106.15938 208.57489ZM106.97188 209.02802Q106.97188 209.48114 107.22188 209.77802Q107.4875 210.07489 107.925 210.07489Q108.34688 210.07489 108.59688 209.79364Q108.84688 209.49677 108.84688 208.99677L108.84688 208.57489Q108.84688 208.12177 108.59688 207.82489Q108.34688 207.51239 107.90938 207.51239Q107.47188 207.51239 107.22188 207.82489Q106.97188 208.12177 106.97188 208.59052L106.97188 209.02802ZM110.31563 213.37177Q110.31563 212.60614 110.8 212.12177Q111.3 211.62177 112.06563 211.62177Q112.83125 211.62177 113.31563 212.12177Q113.81563 212.60614 113.81563 213.41864L113.81563 213.82489Q113.81563 214.59052 113.33125 215.09052Q112.84688 215.59052 112.08125 215.59052Q111.31563 215.59052 110.81563 215.10614Q110.31563 214.60614 110.31563 213.79364L110.31563 213.37177ZM111.12813 213.82489Q111.12813 214.29364 111.37813 214.59052Q111.64375 214.88739 112.08125 214.88739Q112.50313 214.88739 112.75313 214.60614Q113.00313 214.30927 113.00313 213.80927L113.00313 213.37177Q113.00313 212.90302 112.7375 212.62177Q112.4875 212.32489 112.06563 212.32489Q111.64375 212.32489 111.37813 212.62177Q111.12813 212.90302 111.12813 213.40302L111.12813 213.82489ZM108.175 214.82489L107.55 214.43427L111.72188 207.76239L112.33125 208.15302L108.175 214.82489Z" fill-rule="nonzero"/><path fill="#757575" d="M36.253124 285.16217L32.675 285.16217L31.878124 287.39655L30.721874 287.39655L33.971874 278.8653L34.95625 278.8653L38.221874 287.39655L37.065624 287.39655L36.253124 285.16217ZM33.01875 284.2403L35.925 284.2403L34.471874 280.25592L33.01875 284.2403ZM41.909374 286.63092Q42.4875 286.63092 42.925 286.28717Q43.3625 285.9278 43.409374 285.39655L44.440624 285.39655Q44.409374 285.94342 44.05 286.44342Q43.70625 286.9278 43.128124 287.22467Q42.565624 287.52155 41.909374 287.52155Q40.6125 287.52155 39.846874 286.66217Q39.096874 285.78717 39.096874 284.28717L39.096874 284.09967Q39.096874 283.1778 39.425 282.45905Q39.76875 281.7403 40.39375 281.34967Q41.034374 280.94342 41.909374 280.94342Q42.971874 280.94342 43.675 281.58405Q44.39375 282.20905 44.440624 283.2403L43.409374 283.2403Q43.3625 282.6153 42.940624 282.22467Q42.51875 281.83405 41.909374 281.83405Q41.08125 281.83405 40.628124 282.4278Q40.175 283.02155 40.175 284.14655L40.175 284.34967Q40.175 285.44342 40.628124 286.03717Q41.08125 286.63092 41.909374 286.63092ZM46.55 287.39655L45.471874 287.39655L45.471874 281.0528L46.55 281.0528L46.55 287.39655ZM45.378124 279.38092Q45.378124 279.1153 45.534374 278.9278Q45.70625 278.7403 46.01875 278.7403Q46.33125 278.7403 46.4875 278.9278Q46.659374 279.1153 46.659374 279.38092Q46.659374 279.63092 46.4875 279.81842Q46.33125 279.9903 46.01875 279.9903Q45.70625 279.9903 45.534374 279.81842Q45.378124 279.63092 45.378124 279.38092ZM49.39375 281.0528L49.425 281.75592Q50.1125 280.94342 51.3 280.94342Q52.628124 280.94342 53.1125 281.95905Q53.425 281.50592 53.925 281.22467Q54.440624 280.94342 55.128124 280.94342Q57.221874 280.94342 57.253124 283.14655L57.253124 287.39655L56.175 287.39655L56.175 283.20905Q56.175 282.53717 55.8625 282.20905Q55.55 281.8653 54.815624 281.8653Q54.20625 281.8653 53.8 282.22467Q53.409374 282.58405 53.346874 283.19342L53.346874 287.39655L52.26875 287.39655L52.26875 283.2403Q52.26875 281.8653 50.909374 281.8653Q49.846874 281.8653 49.45625 282.77155L49.45625 287.39655L48.3625 287.39655L48.3625 281.0528L49.39375 281.0528ZM63.284374 287.39655Q63.190624 287.20905 63.128124 286.72467Q62.378124 287.52155 61.33125 287.52155Q60.39375 287.52155 59.784374 286.9903Q59.190624 286.45905 59.190624 285.63092Q59.190624 284.64655 59.940624 284.09967Q60.690624 283.5528 62.065624 283.5528L63.1125 283.5528L63.1125 283.0528Q63.1125 282.4903 62.76875 282.16217Q62.440624 281.81842 61.76875 281.81842Q61.190624 281.81842 60.8 282.1153Q60.409374 282.39655 60.409374 282.81842L59.315624 282.81842Q59.315624 282.33405 59.64375 281.89655Q59.9875 281.45905 60.565624 281.20905Q61.14375 280.94342 61.83125 280.94342Q62.940624 280.94342 63.55 281.4903Q64.175 282.03717 64.20625 282.9903L64.20625 285.91217Q64.20625 286.78717 64.425 287.3028L64.425 287.39655L63.284374 287.39655ZM61.4875 286.56842Q62.003124 286.56842 62.45625 286.3028Q62.909374 286.03717 63.1125 285.6153L63.1125 284.31842L62.26875 284.31842Q60.26875 284.31842 60.26875 285.4903Q60.26875 285.9903 60.6125 286.28717Q60.95625 286.56842 61.4875 286.56842ZM69.1125 284.1778Q69.1125 282.70905 69.8 281.83405Q70.4875 280.94342 71.6125 280.94342Q72.72188 280.94342 73.37813 281.69342L73.37813 278.39655L74.45625 278.39655L74.45625 287.39655L73.45625 287.39655L73.40938 286.70905Q72.75313 287.52155 71.59688 287.52155Q70.50313 287.52155 69.8 286.6153Q69.1125 285.70905 69.1125 284.25592L69.1125 284.1778ZM70.19063 284.3028Q70.19063 285.38092 70.62813 285.9903Q71.08125 286.59967 71.8625 286.59967Q72.89375 286.59967 73.37813 285.66217L73.37813 282.75592Q72.89375 281.8653 71.87813 281.8653Q71.08125 281.8653 70.62813 282.47467Q70.19063 283.08405 70.19063 284.3028ZM79.00313 287.52155Q77.70625 287.52155 76.89375 286.6778Q76.09688 285.81842 76.09688 284.39655L76.09688 284.20905Q76.09688 283.25592 76.45625 282.52155Q76.81563 281.77155 77.45625 281.3653Q78.1125 280.94342 78.8625 280.94342Q80.09688 280.94342 80.78438 281.75592Q81.47188 282.56842 81.47188 284.08405L81.47188 284.53717L77.175 284.53717Q77.20625 285.47467 77.72188 286.0528Q78.25313 286.63092 79.06563 286.63092Q79.62813 286.63092 80.01875 286.39655Q80.425 286.16217 80.7375 285.77155L81.39375 286.28717Q80.59688 287.52155 79.00313 287.52155ZM78.8625 281.83405Q78.20625 281.83405 77.75313 282.31842Q77.31563 282.78717 77.22188 283.64655L80.39375 283.64655L80.39375 283.56842Q80.34688 282.7403 79.94063 282.28717Q79.55 281.83405 78.8625 281.83405ZM90.84688 287.39655L85.25313 287.39655L85.25313 286.6153L88.20625 283.33405Q88.8625 282.58405 89.1125 282.13092Q89.3625 281.66217 89.3625 281.16217Q89.3625 280.4903 88.95625 280.06842Q88.56563 279.63092 87.87813 279.63092Q87.08125 279.63092 86.62813 280.09967Q86.175 280.5528 86.175 281.38092L85.09688 281.38092Q85.09688 280.19342 85.84688 279.47467Q86.6125 278.7403 87.87813 278.7403Q89.08125 278.7403 89.76875 279.3653Q90.45625 279.9903 90.45625 281.03717Q90.45625 282.28717 88.84688 284.03717L86.56563 286.50592L90.84688 286.50592L90.84688 287.39655ZM97.6125 283.75592Q97.6125 285.66217 96.95625 286.59967Q96.31563 287.52155 94.925 287.52155Q93.56563 287.52155 92.90938 286.6153Q92.25313 285.70905 92.22188 283.89655L92.22188 282.45905Q92.22188 280.56842 92.8625 279.66217Q93.51875 278.7403 94.90938 278.7403Q96.28438 278.7403 96.94063 279.63092Q97.59688 280.50592 97.6125 282.34967L97.6125 283.75592ZM96.51875 282.27155Q96.51875 280.89655 96.12813 280.27155Q95.75313 279.63092 94.90938 279.63092Q94.08125 279.63092 93.69063 280.27155Q93.31563 280.89655 93.31563 282.19342L93.31563 283.9278Q93.31563 285.3028 93.70625 285.97467Q94.1125 286.63092 94.925 286.63092Q95.72188 286.63092 96.1125 286.00592Q96.50313 285.38092 96.51875 284.0528L96.51875 282.27155ZM104.6125 283.75592Q104.6125 285.66217 103.95625 286.59967Q103.31563 287.52155 101.925 287.52155Q100.56563 287.52155 99.90938 286.6153Q99.25313 285.70905 99.22188 283.89655L99.22188 282.45905Q99.22188 280.56842 99.8625 279.66217Q100.51875 278.7403 101.90938 278.7403Q103.28438 278.7403 103.94063 279.63092Q104.59688 280.50592 104.6125 282.34967L104.6125 283.75592ZM103.51875 282.27155Q103.51875 280.89655 103.12813 280.27155Q102.75313 279.63092 101.90938 279.63092Q101.08125 279.63092 100.69063 280.27155Q100.31563 280.89655 100.31563 282.19342L100.31563 283.9278Q100.31563 285.3028 100.70625 285.97467Q101.1125 286.63092 101.925 286.63092Q102.72188 286.63092 103.1125 286.00592Q103.50313 285.38092 103.51875 284.0528L103.51875 282.27155ZM106.15938 280.50592Q106.15938 279.7403 106.64375 279.2403Q107.14375 278.7403 107.90938 278.7403Q108.69063 278.7403 109.175 279.2403Q109.65938 279.7403 109.65938 280.53717L109.65938 280.95905Q109.65938 281.72467 109.15938 282.22467Q108.675 282.70905 107.925 282.70905Q107.15938 282.70905 106.65938 282.22467Q106.15938 281.72467 106.15938 280.91217L106.15938 280.50592ZM106.97188 280.95905Q106.97188 281.41217 107.22188 281.70905Q107.4875 282.00592 107.925 282.00592Q108.34688 282.00592 108.59688 281.72467Q108.84688 281.4278 108.84688 280.9278L108.84688 280.50592Q108.84688 280.0528 108.59688 279.75592Q108.34688 279.44342 107.90938 279.44342Q107.47188 279.44342 107.22188 279.75592Q106.97188 280.0528 106.97188 280.52155L106.97188 280.95905ZM110.31563 285.3028Q110.31563 284.53717 110.8 284.0528Q111.3 283.5528 112.06563 283.5528Q112.83125 283.5528 113.31563 284.0528Q113.81563 284.53717 113.81563 285.34967L113.81563 285.75592Q113.81563 286.52155 113.33125 287.02155Q112.84688 287.52155 112.08125 287.52155Q111.31563 287.52155 110.81563 287.03717Q110.31563 286.53717 110.31563 285.72467L110.31563 285.3028ZM111.12813 285.75592Q111.12813 286.22467 111.37813 286.52155Q111.64375 286.81842 112.08125 286.81842Q112.50313 286.81842 112.75313 286.53717Q113.00313 286.2403 113.00313 285.7403L113.00313 285.3028Q113.00313 284.83405 112.7375 284.5528Q112.4875 284.25592 112.06563 284.25592Q111.64375 284.25592 111.37813 284.5528Q111.12813 284.83405 111.12813 285.33405L111.12813 285.75592ZM108.175 286.75592L107.55 286.3653L111.72188 279.69342L112.33125 280.08405L108.175 286.75592Z" fill-rule="nonzero"/><path fill="#757575" d="M123.1125 345.8094Q123.1125 347.71564 122.45625 348.65314Q121.81563 349.575 120.425 349.575Q119.06563 349.575 118.40938 348.66876Q117.75313 347.7625 117.72188 345.95L117.72188 344.5125Q117.72188 342.6219 118.3625 341.71564Q119.01875 340.79376 120.40938 340.79376Q121.78438 340.79376 122.44063 341.6844Q123.09688 342.5594 123.1125 344.40314L123.1125 345.8094ZM122.01875 344.325Q122.01875 342.95 121.62813 342.325Q121.25313 341.6844 120.40938 341.6844Q119.58125 341.6844 119.19063 342.325Q118.81563 342.95 118.81563 344.2469L118.81563 345.98126Q118.81563 347.35626 119.20625 348.02814Q119.6125 348.6844 120.425 348.6844Q121.22188 348.6844 121.6125 348.0594Q122.00313 347.4344 122.01875 346.10626L122.01875 344.325Z" fill-rule="nonzero"/><path fill="#757575" d="M273.4802 349.45L267.88644 349.45L267.88644 348.66876L270.83957 345.3875Q271.49582 344.6375 271.74582 344.1844Q271.99582 343.71564 271.99582 343.21564Q271.99582 342.54376 271.58957 342.1219Q271.19894 341.6844 270.51144 341.6844Q269.71457 341.6844 269.26144 342.15314Q268.80832 342.60626 268.80832 343.4344L267.7302 343.4344Q267.7302 342.2469 268.4802 341.52814Q269.24582 340.79376 270.51144 340.79376Q271.71457 340.79376 272.40207 341.41876Q273.08957 342.04376 273.08957 343.09064Q273.08957 344.34064 271.4802 346.09064L269.19894 348.5594L273.4802 348.5594L273.4802 349.45ZM280.24582 345.8094Q280.24582 347.71564 279.58957 348.65314Q278.94894 349.575 277.55832 349.575Q276.19894 349.575 275.5427 348.66876Q274.88644 347.7625 274.8552 345.95L274.8552 344.5125Q274.8552 342.6219 275.49582 341.71564Q276.15207 340.79376 277.5427 340.79376Q278.9177 340.79376 279.57394 341.6844Q280.2302 342.5594 280.24582 344.40314L280.24582 345.8094ZM279.15207 344.325Q279.15207 342.95 278.76144 342.325Q278.38644 341.6844 277.5427 341.6844Q276.71457 341.6844 276.32394 342.325Q275.94894 342.95 275.94894 344.2469L275.94894 345.98126Q275.94894 347.35626 276.33957 348.02814Q276.74582 348.6844 277.55832 348.6844Q278.3552 348.6844 278.74582 348.0594Q279.13644 347.4344 279.15207 346.10626L279.15207 344.325Z" fill-rule="nonzero"/><path fill="#757575" d="M426.09793 346.59064L427.28543 346.59064L427.28543 347.46564L426.09793 347.46564L426.09793 349.45L425.0198 349.45L425.0198 347.46564L421.12918 347.46564L421.12918 346.825L424.94168 340.91876L426.09793 340.91876L426.09793 346.59064ZM422.36356 346.59064L425.0198 346.59064L425.0198 342.40314L424.87918 342.6375L422.36356 346.59064ZM433.87918 345.8094Q433.87918 347.71564 433.22293 348.65314Q432.5823 349.575 431.19168 349.575Q429.8323 349.575 429.17606 348.66876Q428.5198 347.7625 428.48856 345.95L428.48856 344.5125Q428.48856 342.6219 429.12918 341.71564Q429.78543 340.79376 431.17606 340.79376Q432.55106 340.79376 433.2073 341.6844Q433.86356 342.5594 433.87918 344.40314L433.87918 345.8094ZM432.78543 344.325Q432.78543 342.95 432.3948 342.325Q432.0198 341.6844 431.17606 341.6844Q430.34793 341.6844 429.9573 342.325Q429.5823 342.95 429.5823 344.2469L429.5823 345.98126Q429.5823 347.35626 429.97293 348.02814Q430.37918 348.6844 431.19168 348.6844Q431.98856 348.6844 432.37918 348.0594Q432.7698 347.4344 432.78543 346.10626L432.78543 344.325Z" fill-rule="nonzero"/><path fill="#757575" d="M579.41876 340.91876L579.41876 341.825L579.21564 341.825Q577.95 341.85626 577.2 342.59064Q576.45 343.3094 576.325 344.6219Q577.0125 343.85626 578.16876 343.85626Q579.27814 343.85626 579.95 344.6375Q580.6219 345.41876 580.6219 346.66876Q580.6219 347.98126 579.90314 348.77814Q579.1844 349.575 577.96564 349.575Q576.7469 349.575 575.98126 348.6375Q575.23126 347.6844 575.23126 346.2L575.23126 345.79376Q575.23126 343.4344 576.23126 342.1844Q577.23126 340.9344 579.21564 340.91876L579.41876 340.91876ZM577.9969 344.7625Q577.4344 344.7625 576.96564 345.09064Q576.4969 345.41876 576.3094 345.9344L576.3094 346.325Q576.3094 347.3875 576.77814 348.02814Q577.2625 348.66876 577.96564 348.66876Q578.7 348.66876 579.1219 348.1375Q579.54376 347.59064 579.54376 346.71564Q579.54376 345.84064 579.1219 345.3094Q578.7 344.7625 577.9969 344.7625ZM587.5125 345.8094Q587.5125 347.71564 586.85626 348.65314Q586.21564 349.575 584.825 349.575Q583.46564 349.575 582.8094 348.66876Q582.15314 347.7625 582.1219 345.95L582.1219 344.5125Q582.1219 342.6219 582.7625 341.71564Q583.41876 340.79376 584.8094 340.79376Q586.1844 340.79376 586.84064 341.6844Q587.4969 342.5594 587.5125 344.40314L587.5125 345.8094ZM586.41876 344.325Q586.41876 342.95 586.02814 342.325Q585.65314 341.6844 584.8094 341.6844Q583.98126 341.6844 583.59064 342.325Q583.21564 342.95 583.21564 344.2469L583.21564 345.98126Q583.21564 347.35626 583.60626 348.02814Q584.0125 348.6844 584.825 348.6844Q585.6219 348.6844 586.0125 348.0594Q586.40314 347.4344 586.41876 346.10626L586.41876 344.325Z" fill-rule="nonzero"/></svg>