<svg version="1.1" viewBox="0.0 0.0 600.0 371.0" fill="none" stroke="none" stroke-linecap="square" stroke-miterlimit="10" width="600" height="371" xmlns:xlink="http://www.w3.org/1999/xlink" xmlns="http://www.w3.org/2000/svg"><path fill="#ffffff" d="M0 0L600.0 0L600.0 371.0L0 371.0L0 0Z" fill-rule="nonzero"/><path fill="#4285f4" d="M300.0 18.55C349.38998 18.55 396.24515 40.418835 427.966 78.27592L300.0 185.5Z" fill-rule="nonzero"/><path fill="#db4437" d="M427.966 78.27592C470.23288 128.7191 478.92245 199.28629 450.1557 258.47647L300.0 185.5Z" fill-rule="nonzero"/><path fill="#0f9d58" d="M183.44128 65.9744C214.62129 35.56835 256.44864 18.55 300.0 18.55L300.0 185.5Z" fill-rule="nonzero"/><path fill="#f4b400" d="M450.1557 258.47647C421.05624 318.35126 359.16666 355.21558 292.65952 352.28854C226.15239 349.3615 167.74066 307.20267 144.01378 245.00296C120.2869 182.80327 135.7803 112.45233 183.44128 65.9744L300.0 185.5Z" fill-rule="nonzero"/><path fill="#757575" d="M26.159374 30.58125L21.39375 30.58125L20.315624 33.55L18.76875 33.55L23.1125 22.175L24.425 22.175L28.784374 33.55L27.2375 33.55L26.159374 30.58125ZM21.846874 29.346874L25.70625 29.346874L23.76875 24.01875L21.846874 29.346874ZM33.034374 32.51875Q33.815624 32.51875 34.39375 32.05Q34.971874 31.58125 35.034374 30.878124L36.39375 30.878124Q36.3625 31.6125 35.89375 32.26875Q35.440624 32.925 34.659374 33.315624Q33.89375 33.70625 33.034374 33.70625Q31.315624 33.70625 30.284374 32.55Q29.26875 31.39375 29.26875 29.39375L29.26875 29.159374Q29.26875 27.925 29.721874 26.971874Q30.175 26.003124 31.01875 25.471874Q31.878124 24.940624 33.034374 24.940624Q34.45625 24.940624 35.39375 25.8Q36.33125 26.64375 36.39375 28.003124L35.034374 28.003124Q34.971874 27.175 34.409374 26.659374Q33.846874 26.128124 33.034374 26.128124Q31.925 26.128124 31.315624 26.925Q30.721874 27.70625 30.721874 29.20625L30.721874 29.4875Q30.721874 30.940624 31.315624 31.7375Q31.925 32.51875 33.034374 32.51875ZM39.221874 33.55L37.76875 33.55L37.76875 25.096874L39.221874 25.096874L39.221874 33.55ZM37.659374 22.846874Q37.659374 22.503124 37.8625 22.26875Q38.08125 22.01875 38.503124 22.01875Q38.925 22.01875 39.14375 22.26875Q39.3625 22.503124 39.3625 22.8625Q39.3625 23.20625 39.14375 23.440624Q38.925 23.675 38.503124 23.675Q38.08125 23.675 37.8625 23.440624Q37.659374 23.20625 37.659374 22.846874ZM43.003124 25.096874L43.05 26.034374Q43.971874 24.940624 45.55 24.940624Q47.33125 24.940624 47.971874 26.3Q48.39375 25.690624 49.065624 25.315624Q49.7375 24.940624 50.659374 24.940624Q53.440624 24.940624 53.4875 27.878124L53.4875 33.55L52.05 33.55L52.05 27.971874Q52.05 27.065624 51.628124 26.6125Q51.221874 26.159374 50.2375 26.159374Q49.440624 26.159374 48.909374 26.64375Q48.378124 27.128124 48.284374 27.940624L48.284374 33.55L46.83125 33.55L46.83125 28.003124Q46.83125 26.159374 45.034374 26.159374Q43.6125 26.159374 43.08125 27.378124L43.08125 33.55L41.64375 33.55L41.64375 25.096874L43.003124 25.096874ZM60.8625 33.55Q60.7375 33.3 60.659374 32.659374Q59.659374 33.70625 58.253124 33.70625Q57.003124 33.70625 56.20625 33.003124Q55.409374 32.284374 55.409374 31.20625Q55.409374 29.878124 56.409374 29.159374Q57.409374 28.425 59.2375 28.425L60.64375 28.425L60.64375 27.753124Q60.64375 27.003124 60.190624 26.55Q59.7375 26.096874 58.846874 26.096874Q58.08125 26.096874 57.55 26.4875Q57.034374 26.878124 57.034374 27.440624L55.58125 27.440624Q55.58125 26.8 56.01875 26.221874Q56.471874 25.628124 57.2375 25.284374Q58.01875 24.940624 58.940624 24.940624Q60.39375 24.940624 61.221874 25.675Q62.05 26.39375 62.08125 27.675L62.08125 31.565624Q62.08125 32.7375 62.378124 33.425L62.378124 33.55L60.8625 33.55ZM58.471874 32.440624Q59.14375 32.440624 59.753124 32.096874Q60.3625 31.7375 60.64375 31.175L60.64375 29.440624L59.503124 29.440624Q56.846874 29.440624 56.846874 31.003124Q56.846874 31.675 57.3 32.065624Q57.753124 32.440624 58.471874 32.440624ZM68.3 29.253124Q68.3 27.3 69.22188 26.128124Q70.14375 24.940624 71.62813 24.940624Q73.1125 24.940624 73.9875 25.95625L73.9875 21.55L75.425 21.55L75.425 33.55L74.09688 33.55L74.03438 32.64375Q73.15938 33.70625 71.6125 33.70625Q70.14375 33.70625 69.22188 32.503124Q68.3 31.3 68.3 29.3625L68.3 29.253124ZM69.7375 29.409374Q69.7375 30.846874 70.33125 31.659374Q70.925 32.471874 71.97188 32.471874Q73.34688 32.471874 73.9875 31.2375L73.9875 27.3625Q73.33125 26.159374 71.9875 26.159374Q70.925 26.159374 70.33125 26.9875Q69.7375 27.8 69.7375 29.409374ZM81.15938 33.70625Q79.44063 33.70625 78.3625 32.58125Q77.28438 31.440624 77.28438 29.55L77.28438 29.284374Q77.28438 28.034374 77.75313 27.05Q78.2375 26.05 79.09688 25.503124Q79.97188 24.940624 80.97188 24.940624Q82.62813 24.940624 83.53438 26.034374Q84.45625 27.1125 84.45625 29.128124L84.45625 29.7375L78.72188 29.7375Q78.75313 30.9875 79.45625 31.753124Q80.15938 32.51875 81.2375 32.51875Q82.00313 32.51875 82.53438 32.20625Q83.06563 31.89375 83.45625 31.378124L84.34688 32.065624Q83.28438 33.70625 81.15938 33.70625ZM80.97188 26.128124Q80.09688 26.128124 79.50313 26.76875Q78.90938 27.39375 78.76875 28.55L83.00313 28.55L83.00313 28.440624Q82.94063 27.33125 82.40938 26.7375Q81.87813 26.128124 80.97188 26.128124Z" fill-rule="nonzero"/><path fill="#9e9e9e" d="M24.253124 55.55L22.8 55.55L22.8 45.909374L19.878124 46.9875L19.878124 45.675L24.01875 44.1125L24.253124 44.1125L24.253124 55.55ZM35.95625 55.55L28.503124 55.55L28.503124 54.503124L32.440624 50.128124Q33.315624 49.14375 33.64375 48.51875Q33.971874 47.89375 33.971874 47.2375Q33.971874 46.346874 33.425 45.784374Q32.89375 45.20625 32.003124 45.20625Q30.925 45.20625 30.315624 45.815624Q29.721874 46.425 29.721874 47.51875L28.284374 47.51875Q28.284374 45.95625 29.284374 44.9875Q30.3 44.01875 32.003124 44.01875Q33.58125 44.01875 34.503124 44.846874Q35.425 45.675 35.425 47.065624Q35.425 48.7375 33.284374 51.065624L30.2375 54.3625L35.95625 54.3625L35.95625 55.55ZM37.675 54.784374Q37.675 54.409374 37.89375 54.159374Q38.128124 53.909374 38.565624 53.909374Q39.01875 53.909374 39.2375 54.159374Q39.471874 54.409374 39.471874 54.784374Q39.471874 55.14375 39.2375 55.39375Q39.01875 55.64375 38.565624 55.64375Q38.128124 55.64375 37.89375 55.39375Q37.675 55.14375 37.675 54.784374ZM43.596874 49.159374L44.690624 49.159374Q45.70625 49.14375 46.284374 48.628124Q46.878124 48.096874 46.878124 47.20625Q46.878124 45.20625 44.89375 45.20625Q43.95625 45.20625 43.39375 45.7375Q42.83125 46.26875 42.83125 47.159374L41.39375 47.159374Q41.39375 45.8 42.378124 44.909374Q43.3625 44.01875 44.89375 44.01875Q46.503124 44.01875 47.409374 44.878124Q48.33125 45.721874 48.33125 47.2375Q48.33125 47.971874 47.846874 48.675Q47.3625 49.3625 46.534374 49.70625Q47.471874 50.003124 47.9875 50.690624Q48.503124 51.378124 48.503124 52.378124Q48.503124 53.909374 47.503124 54.815624Q46.503124 55.70625 44.89375 55.70625Q43.3 55.70625 42.284374 54.846874Q41.284374 53.971874 41.284374 52.55L42.7375 52.55Q42.7375 53.440624 43.315624 53.9875Q43.909374 54.51875 44.89375 54.51875Q45.940624 54.51875 46.4875 53.971874Q47.05 53.425 47.05 52.409374Q47.05 51.409374 46.440624 50.878124Q45.83125 50.346874 44.690624 50.33125L43.596874 50.33125L43.596874 49.159374ZM50.378124 46.3625Q50.378124 45.33125 51.01875 44.675Q51.675 44.003124 52.70625 44.003124Q53.7375 44.003124 54.378124 44.675Q55.034374 45.346874 55.034374 46.409374L55.034374 46.95625Q55.034374 47.9875 54.378124 48.64375Q53.721874 49.3 52.721874 49.3Q51.70625 49.3 51.034374 48.64375Q50.378124 47.9875 50.378124 46.909374L50.378124 46.3625ZM51.45625 46.95625Q51.45625 47.565624 51.8 47.971874Q52.14375 48.3625 52.721874 48.3625Q53.26875 48.3625 53.6125 47.9875Q53.95625 47.596874 53.95625 46.925L53.95625 46.3625Q53.95625 45.753124 53.6125 45.3625Q53.284374 44.95625 52.70625 44.95625Q52.128124 44.95625 51.784374 45.3625Q51.45625 45.753124 51.45625 46.39375L51.45625 46.95625ZM55.909374 52.753124Q55.909374 51.7375 56.565624 51.08125Q57.221874 50.409374 58.2375 50.409374Q59.26875 50.409374 59.925 51.065624Q60.58125 51.721874 60.58125 52.815624L60.58125 53.3625Q60.58125 54.39375 59.925 55.065624Q59.26875 55.721874 58.253124 55.721874Q57.2375 55.721874 56.565624 55.065624Q55.909374 54.409374 55.909374 53.315624L55.909374 52.753124ZM56.9875 53.3625Q56.9875 53.9875 57.33125 54.378124Q57.675 54.76875 58.253124 54.76875Q58.815624 54.76875 59.14375 54.39375Q59.4875 54.003124 59.4875 53.33125L59.4875 52.753124Q59.4875 52.14375 59.14375 51.753124Q58.815624 51.3625 58.2375 51.3625Q57.690624 51.3625 57.33125 51.753124Q56.9875 52.128124 56.9875 52.784374L56.9875 53.3625ZM53.05 54.690624L52.221874 54.175L57.784374 45.284374L58.596874 45.8L53.05 54.690624Z" fill-rule="nonzero"/><path stroke="#757575" stroke-width="1.0" stroke-linecap="butt" d="M18.55 39.05L127.05 39.05L240.22731 38.591938" fill-rule="nonzero"/><path fill="#9e9e9e" d="M242.22731 38.591938C242.22731 37.487366 241.33188 36.591938 240.22731 36.591938C239.12274 36.591938 238.22731 37.487366 238.22731 38.591938C238.22731 39.696507 239.12274 40.591938 240.22731 40.591938C241.33188 40.591938 242.22731 39.696507 242.22731 38.591938" fill-rule="nonzero"/><path fill="#757575" d="M26.3 303.33875L21.378124 303.33875L21.378124 307.37L27.096874 307.37L27.096874 308.60437L19.878124 308.60437L19.878124 297.22937L27.01875 297.22937L27.01875 298.46375L21.378124 298.46375L21.378124 302.12L26.3 302.12L26.3 303.33875ZM30.01875 300.15125L30.065624 301.21375Q31.034374 299.995 32.596874 299.995Q35.26875 299.995 35.3 303.01062L35.3 308.60437L33.846874 308.60437L33.846874 303.01062Q33.846874 302.08875 33.425 301.65125Q33.01875 301.21375 32.159374 301.21375Q31.45625 301.21375 30.925 301.58875Q30.39375 301.96375 30.096874 302.57312L30.096874 308.60437L28.64375 308.60437L28.64375 300.15125L30.01875 300.15125ZM39.6125 298.10437L39.6125 300.15125L41.190624 300.15125L41.190624 301.26062L39.6125 301.26062L39.6125 306.51062Q39.6125 307.01062 39.815624 307.27625Q40.034374 307.52625 40.534374 307.52625Q40.784374 307.52625 41.221874 307.4325L41.221874 308.60437Q40.659374 308.76062 40.1125 308.76062Q39.14375 308.76062 38.64375 308.1825Q38.159374 307.58875 38.159374 306.51062L38.159374 301.26062L36.628124 301.26062L36.628124 300.15125L38.159374 300.15125L38.159374 298.10437L39.6125 298.10437ZM46.7375 301.44812Q46.409374 301.38562 46.01875 301.38562Q44.596874 301.38562 44.096874 302.60437L44.096874 308.60437L42.64375 308.60437L42.64375 300.15125L44.05 300.15125L44.08125 301.12Q44.784374 299.995 46.096874 299.995Q46.51875 299.995 46.7375 300.10437L46.7375 301.44812ZM51.159374 308.76062Q49.440624 308.76062 48.3625 307.63562Q47.284374 306.495 47.284374 304.60437L47.284374 304.33875Q47.284374 303.08875 47.753124 302.10437Q48.2375 301.10437 49.096874 300.5575Q49.971874 299.995 50.971874 299.995Q52.628124 299.995 53.534374 301.08875Q54.45625 302.16687 54.45625 304.1825L54.45625 304.79187L48.721874 304.79187Q48.753124 306.04187 49.45625 306.8075Q50.159374 307.57312 51.2375 307.57312Q52.003124 307.57312 52.534374 307.26062Q53.065624 306.94812 53.45625 306.4325L54.346874 307.12Q53.284374 308.76062 51.159374 308.76062ZM50.971874 301.1825Q50.096874 301.1825 49.503124 301.82312Q48.909374 302.44812 48.76875 303.60437L53.003124 303.60437L53.003124 303.495Q52.940624 302.38562 52.409374 301.79187Q51.878124 301.1825 50.971874 301.1825ZM60.159374 302.90125L60.7375 297.22937L66.56563 297.22937L66.56563 298.5575L61.971874 298.5575L61.628124 301.66687Q62.45625 301.16687 63.51875 301.16687Q65.08125 301.16687 65.9875 302.19812Q66.90938 303.22937 66.90938 304.97937Q66.90938 306.72937 65.95625 307.745Q65.00313 308.76062 63.3 308.76062Q61.8 308.76062 60.846874 307.9325Q59.89375 307.08875 59.753124 305.60437L61.128124 305.60437Q61.253124 306.58875 61.815624 307.08875Q62.378124 307.57312 63.3 307.57312Q64.31563 307.57312 64.87813 306.88562Q65.45625 306.19812 65.45625 304.995Q65.45625 303.85437 64.83125 303.16687Q64.22188 302.46375 63.190624 302.46375Q62.2375 302.46375 61.70625 302.88562L61.315624 303.19812L60.159374 302.90125ZM73.25313 308.60437L71.8 308.60437L71.8 298.96375L68.87813 300.04187L68.87813 298.72937L73.01875 297.16687L73.25313 297.16687L73.25313 308.60437ZM77.37813 299.41687Q77.37813 298.38562 78.01875 297.72937Q78.675 297.0575 79.70625 297.0575Q80.7375 297.0575 81.37813 297.72937Q82.03438 298.40125 82.03438 299.46375L82.03438 300.01062Q82.03438 301.04187 81.37813 301.69812Q80.72188 302.35437 79.72188 302.35437Q78.70625 302.35437 78.03438 301.69812Q77.37813 301.04187 77.37813 299.96375L77.37813 299.41687ZM78.45625 300.01062Q78.45625 300.62 78.8 301.02625Q79.14375 301.41687 79.72188 301.41687Q80.26875 301.41687 80.6125 301.04187Q80.95625 300.65125 80.95625 299.97937L80.95625 299.41687Q80.95625 298.8075 80.6125 298.41687Q80.28438 298.01062 79.70625 298.01062Q79.12813 298.01062 78.78438 298.41687Q78.45625 298.8075 78.45625 299.44812L78.45625 300.01062ZM82.90938 305.8075Q82.90938 304.79187 83.56563 304.13562Q84.22188 303.46375 85.2375 303.46375Q86.26875 303.46375 86.925 304.12Q87.58125 304.77625 87.58125 305.87L87.58125 306.41687Q87.58125 307.44812 86.925 308.12Q86.26875 308.77625 85.25313 308.77625Q84.2375 308.77625 83.56563 308.12Q82.90938 307.46375 82.90938 306.37L82.90938 305.8075ZM83.9875 306.41687Q83.9875 307.04187 84.33125 307.4325Q84.675 307.82312 85.25313 307.82312Q85.81563 307.82312 86.14375 307.44812Q86.4875 307.0575 86.4875 306.38562L86.4875 305.8075Q86.4875 305.19812 86.14375 304.8075Q85.81563 304.41687 85.2375 304.41687Q84.69063 304.41687 84.33125 304.8075Q83.9875 305.1825 83.9875 305.83875L83.9875 306.41687ZM80.05 307.745L79.22188 307.22937L84.78438 298.33875L85.59688 298.85437L80.05 307.745ZM97.15938 308.76062Q95.44063 308.76062 94.3625 307.63562Q93.28438 306.495 93.28438 304.60437L93.28438 304.33875Q93.28438 303.08875 93.75313 302.10437Q94.2375 301.10437 95.09688 300.5575Q95.97188 299.995 96.97188 299.995Q98.62813 299.995 99.53438 301.08875Q100.45625 302.16687 100.45625 304.1825L100.45625 304.79187L94.72188 304.79187Q94.75313 306.04187 95.45625 306.8075Q96.15938 307.57312 97.2375 307.57312Q98.00313 307.57312 98.53438 307.26062Q99.06563 306.94812 99.45625 306.4325L100.34688 307.12Q99.28438 308.76062 97.15938 308.76062ZM96.97188 301.1825Q96.09688 301.1825 95.50313 301.82312Q94.90938 302.44812 94.76875 303.60437L99.00313 303.60437L99.00313 303.495Q98.94063 302.38562 98.40938 301.79187Q97.87813 301.1825 96.97188 301.1825Z" fill-rule="nonzero"/><path fill="#9e9e9e" d="M20.159374 324.90125L20.7375 319.22937L26.565624 319.22937L26.565624 320.5575L21.971874 320.5575L21.628124 323.66687Q22.45625 323.16687 23.51875 323.16687Q25.08125 323.16687 25.9875 324.19812Q26.909374 325.22937 26.909374 326.97937Q26.909374 328.72937 25.95625 329.745Q25.003124 330.76062 23.3 330.76062Q21.8 330.76062 20.846874 329.9325Q19.89375 329.08875 19.753124 327.60437L21.128124 327.60437Q21.253124 328.58875 21.815624 329.08875Q22.378124 329.57312 23.3 329.57312Q24.315624 329.57312 24.878124 328.88562Q25.45625 328.19812 25.45625 326.995Q25.45625 325.85437 24.83125 325.16687Q24.221874 324.46375 23.190624 324.46375Q22.2375 324.46375 21.70625 324.88562L21.315624 325.19812L20.159374 324.90125ZM29.159374 324.90125L29.7375 319.22937L35.565624 319.22937L35.565624 320.5575L30.971874 320.5575L30.628124 323.66687Q31.45625 323.16687 32.51875 323.16687Q34.08125 323.16687 34.9875 324.19812Q35.909374 325.22937 35.909374 326.97937Q35.909374 328.72937 34.95625 329.745Q34.003124 330.76062 32.3 330.76062Q30.8 330.76062 29.846874 329.9325Q28.89375 329.08875 28.753124 327.60437L30.128124 327.60437Q30.253124 328.58875 30.815624 329.08875Q31.378124 329.57312 32.3 329.57312Q33.315624 329.57312 33.878124 328.88562Q34.45625 328.19812 34.45625 326.995Q34.45625 325.85437 33.83125 325.16687Q33.221874 324.46375 32.190624 324.46375Q31.2375 324.46375 30.70625 324.88562L30.315624 325.19812L29.159374 324.90125ZM37.675 329.83875Q37.675 329.46375 37.89375 329.21375Q38.128124 328.96375 38.565624 328.96375Q39.01875 328.96375 39.2375 329.21375Q39.471874 329.46375 39.471874 329.83875Q39.471874 330.19812 39.2375 330.44812Q39.01875 330.69812 38.565624 330.69812Q38.128124 330.69812 37.89375 330.44812Q37.675 330.19812 37.675 329.83875ZM42.159374 324.90125L42.7375 319.22937L48.565624 319.22937L48.565624 320.5575L43.971874 320.5575L43.628124 323.66687Q44.45625 323.16687 45.51875 323.16687Q47.08125 323.16687 47.9875 324.19812Q48.909374 325.22937 48.909374 326.97937Q48.909374 328.72937 47.95625 329.745Q47.003124 330.76062 45.3 330.76062Q43.8 330.76062 42.846874 329.9325Q41.89375 329.08875 41.753124 327.60437L43.128124 327.60437Q43.253124 328.58875 43.815624 329.08875Q44.378124 329.57312 45.3 329.57312Q46.315624 329.57312 46.878124 328.88562Q47.45625 328.19812 47.45625 326.995Q47.45625 325.85437 46.83125 325.16687Q46.221874 324.46375 45.190624 324.46375Q44.2375 324.46375 43.70625 324.88562L43.315624 325.19812L42.159374 324.90125ZM50.378124 321.41687Q50.378124 320.38562 51.01875 319.72937Q51.675 319.0575 52.70625 319.0575Q53.7375 319.0575 54.378124 319.72937Q55.034374 320.40125 55.034374 321.46375L55.034374 322.01062Q55.034374 323.04187 54.378124 323.69812Q53.721874 324.35437 52.721874 324.35437Q51.70625 324.35437 51.034374 323.69812Q50.378124 323.04187 50.378124 321.96375L50.378124 321.41687ZM51.45625 322.01062Q51.45625 322.62 51.8 323.02625Q52.14375 323.41687 52.721874 323.41687Q53.26875 323.41687 53.6125 323.04187Q53.95625 322.65125 53.95625 321.97937L53.95625 321.41687Q53.95625 320.8075 53.6125 320.41687Q53.284374 320.01062 52.70625 320.01062Q52.128124 320.01062 51.784374 320.41687Q51.45625 320.8075 51.45625 321.44812L51.45625 322.01062ZM55.909374 327.8075Q55.909374 326.79187 56.565624 326.13562Q57.221874 325.46375 58.2375 325.46375Q59.26875 325.46375 59.925 326.12Q60.58125 326.77625 60.58125 327.87L60.58125 328.41687Q60.58125 329.44812 59.925 330.12Q59.26875 330.77625 58.253124 330.77625Q57.2375 330.77625 56.565624 330.12Q55.909374 329.46375 55.909374 328.37L55.909374 327.8075ZM56.9875 328.41687Q56.9875 329.04187 57.33125 329.4325Q57.675 329.82312 58.253124 329.82312Q58.815624 329.82312 59.14375 329.44812Q59.4875 329.0575 59.4875 328.38562L59.4875 327.8075Q59.4875 327.19812 59.14375 326.8075Q58.815624 326.41687 58.2375 326.41687Q57.690624 326.41687 57.33125 326.8075Q56.9875 327.1825 56.9875 327.83875L56.9875 328.41687ZM53.05 329.745L52.221874 329.22937L57.784374 320.33875L58.596874 320.85437L53.05 329.745Z" fill-rule="nonzero"/><path stroke="#757575" stroke-width="1.0" stroke-linecap="butt" d="M18.55 314.10437L127.05 314.10437L207.17935 314.10437" fill-rule="nonzero"/><path fill="#9e9e9e" d="M209.17935 314.10437C209.17935 312.9998 208.28392 312.10437 207.17935 312.10437C206.07478 312.10437 205.17935 312.9998 205.17935 314.10437C205.17935 315.20892 206.07478 316.10437 207.17935 316.10437C208.28392 316.10437 209.17935 315.20892 209.17935 314.10437" fill-rule="nonzero"/><path fill="#757575" d="M485.0594 33.311974L480.29376 33.311974L479.21564 36.280724L477.66876 36.280724L482.0125 24.905724L483.325 24.905724L487.6844 36.280724L486.1375 36.280724L485.0594 33.311974ZM480.7469 32.0776L484.60626 32.0776L482.66876 26.749474L480.7469 32.0776ZM495.7 32.1401Q495.7 34.0776 494.8094 35.2651Q493.91876 36.436974 492.41876 36.436974Q490.825 36.436974 489.95 35.29635L489.8719 36.280724L488.54376 36.280724L488.54376 24.280724L489.9969 24.280724L489.9969 28.749474Q490.8719 27.671349 492.40314 27.671349Q493.95 27.671349 494.825 28.843224Q495.7 29.999474 495.7 32.0151L495.7 32.1401ZM494.2625 31.983849Q494.2625 30.499474 493.6844 29.702599Q493.1219 28.890099 492.04376 28.890099Q490.6219 28.890099 489.9969 30.218224L489.9969 33.874474Q490.65314 35.2026 492.0594 35.2026Q493.10626 35.2026 493.6844 34.405724Q494.2625 33.593224 494.2625 31.983849ZM502.7625 36.280724Q502.6375 36.030724 502.5594 35.3901Q501.5594 36.436974 500.15314 36.436974Q498.90314 36.436974 498.10626 35.73385Q497.3094 35.0151 497.3094 33.936974Q497.3094 32.60885 498.3094 31.890099Q499.3094 31.155724 501.1375 31.155724L502.54376 31.155724L502.54376 30.483849Q502.54376 29.733849 502.09064 29.280724Q501.6375 28.827599 500.7469 28.827599Q499.98126 28.827599 499.45 29.218224Q498.9344 29.608849 498.9344 30.171349L497.48126 30.171349Q497.48126 29.530724 497.91876 28.952599Q498.3719 28.358849 499.1375 28.015099Q499.91876 27.671349 500.84064 27.671349Q502.29376 27.671349 503.1219 28.405724Q503.95 29.124474 503.98126 30.405724L503.98126 34.29635Q503.98126 35.468224 504.27814 36.155724L504.27814 36.280724L502.7625 36.280724ZM500.3719 35.17135Q501.04376 35.17135 501.65314 34.8276Q502.2625 34.468224 502.54376 33.905724L502.54376 32.17135L501.40314 32.17135Q498.7469 32.17135 498.7469 33.73385Q498.7469 34.405724 499.2 34.79635Q499.65314 35.17135 500.3719 35.17135ZM508.1219 36.280724L506.66876 36.280724L506.66876 27.827599L508.1219 27.827599L508.1219 36.280724ZM506.5594 25.577599Q506.5594 25.233849 506.7625 24.999474Q506.98126 24.749474 507.40314 24.749474Q507.825 24.749474 508.04376 24.999474Q508.2625 25.233849 508.2625 25.593224Q508.2625 25.936974 508.04376 26.171349Q507.825 26.405724 507.40314 26.405724Q506.98126 26.405724 506.7625 26.171349Q506.5594 25.936974 506.5594 25.577599ZM513.3875 30.905724L515.2625 27.827599L516.95 27.827599L514.1844 31.999474L517.02814 36.280724L515.35626 36.280724L513.40314 33.10885L511.45 36.280724L509.77814 36.280724L512.6219 31.999474L509.85626 27.827599L511.52814 27.827599L513.3875 30.905724ZM518.16876 31.968224Q518.16876 30.733849 518.65314 29.749474Q519.1375 28.749474 520.0125 28.218224Q520.8875 27.671349 521.9969 27.671349Q523.73126 27.671349 524.79376 28.874474Q525.85626 30.061974 525.85626 32.04635L525.85626 32.1401Q525.85626 33.374474 525.3875 34.35885Q524.91876 35.343224 524.02814 35.8901Q523.15314 36.436974 522.0125 36.436974Q520.29376 36.436974 519.23126 35.249474Q518.16876 34.04635 518.16876 32.0776L518.16876 31.968224ZM519.6219 32.1401Q519.6219 33.54635 520.2625 34.405724Q520.91876 35.249474 522.0125 35.249474Q523.1219 35.249474 523.7625 34.3901Q524.41876 33.530724 524.41876 31.968224Q524.41876 30.577599 523.7469 29.718224Q523.09064 28.858849 521.9969 28.858849Q520.9344 28.858849 520.27814 29.718224Q519.6219 30.561974 519.6219 32.1401ZM531.2 31.983849Q531.2 30.030724 532.1219 28.858849Q533.04376 27.671349 534.52814 27.671349Q536.0125 27.671349 536.8875 28.686974L536.8875 24.280724L538.325 24.280724L538.325 36.280724L536.9969 36.280724L536.9344 35.374474Q536.0594 36.436974 534.5125 36.436974Q533.04376 36.436974 532.1219 35.23385Q531.2 34.030724 531.2 32.093224L531.2 31.983849ZM532.6375 32.1401Q532.6375 33.5776 533.23126 34.3901Q533.825 35.2026 534.8719 35.2026Q536.2469 35.2026 536.8875 33.968224L536.8875 30.093224Q536.23126 28.890099 534.8875 28.890099Q533.825 28.890099 533.23126 29.718224Q532.6375 30.530724 532.6375 32.1401ZM544.0594 36.436974Q542.34064 36.436974 541.2625 35.311974Q540.1844 34.17135 540.1844 32.280724L540.1844 32.0151Q540.1844 30.765099 540.65314 29.780724Q541.1375 28.780724 541.9969 28.233849Q542.8719 27.671349 543.8719 27.671349Q545.52814 27.671349 546.4344 28.765099Q547.35626 29.843224 547.35626 31.858849L547.35626 32.468224L541.6219 32.468224Q541.65314 33.718224 542.35626 34.48385Q543.0594 35.249474 544.1375 35.249474Q544.90314 35.249474 545.4344 34.936974Q545.96564 34.624474 546.35626 34.10885L547.2469 34.79635Q546.1844 36.436974 544.0594 36.436974ZM543.8719 28.858849Q542.9969 28.858849 542.40314 29.499474Q541.8094 30.124474 541.66876 31.280724L545.90314 31.280724L545.90314 31.171349Q545.84064 30.061974 545.3094 29.468224Q544.77814 28.858849 543.8719 28.858849ZM559.85626 36.280724L552.40314 36.280724L552.40314 35.23385L556.34064 30.858849Q557.21564 29.874474 557.54376 29.249474Q557.8719 28.624474 557.8719 27.968224Q557.8719 27.077599 557.325 26.515099Q556.79376 25.936974 555.90314 25.936974Q554.825 25.936974 554.21564 26.546349Q553.6219 27.155724 553.6219 28.249474L552.1844 28.249474Q552.1844 26.686974 553.1844 25.718224Q554.2 24.749474 555.90314 24.749474Q557.48126 24.749474 558.40314 25.577599Q559.325 26.405724 559.325 27.796349Q559.325 29.468224 557.1844 31.796349L554.1375 35.093224L559.85626 35.093224L559.85626 36.280724ZM568.52814 31.421349Q568.52814 33.968224 567.65314 35.2026Q566.79376 36.436974 564.95 36.436974Q563.1375 36.436974 562.2625 35.23385Q561.3875 34.0151 561.35626 31.624474L561.35626 29.686974Q561.35626 27.186974 562.21564 25.968224Q563.09064 24.749474 564.9344 24.749474Q566.77814 24.749474 567.6375 25.921349Q568.5125 27.093224 568.52814 29.546349L568.52814 31.421349ZM567.09064 29.452599Q567.09064 27.608849 566.575 26.780724Q566.0594 25.936974 564.9344 25.936974Q563.825 25.936974 563.3094 26.780724Q562.8094 27.608849 562.79376 29.343224L562.79376 31.655724Q562.79376 33.499474 563.325 34.374474Q563.8719 35.249474 564.95 35.249474Q566.02814 35.249474 566.54376 34.42135Q567.0594 33.593224 567.09064 31.811974L567.09064 29.452599ZM570.27814 27.093224Q570.27814 26.061974 570.91876 25.405724Q571.575 24.733849 572.60626 24.733849Q573.6375 24.733849 574.27814 25.405724Q574.9344 26.077599 574.9344 27.140099L574.9344 27.686974Q574.9344 28.718224 574.27814 29.374474Q573.6219 30.030724 572.6219 30.030724Q571.60626 30.030724 570.9344 29.374474Q570.27814 28.718224 570.27814 27.640099L570.27814 27.093224ZM571.35626 27.686974Q571.35626 28.296349 571.7 28.702599Q572.04376 29.093224 572.6219 29.093224Q573.16876 29.093224 573.5125 28.718224Q573.85626 28.327599 573.85626 27.655724L573.85626 27.093224Q573.85626 26.483849 573.5125 26.093224Q573.1844 25.686974 572.60626 25.686974Q572.02814 25.686974 571.6844 26.093224Q571.35626 26.483849 571.35626 27.124474L571.35626 27.686974ZM575.8094 33.48385Q575.8094 32.468224 576.46564 31.811974Q577.1219 31.140099 578.1375 31.140099Q579.16876 31.140099 579.825 31.796349Q580.48126 32.4526 580.48126 33.54635L580.48126 34.093224Q580.48126 35.124474 579.825 35.79635Q579.16876 36.4526 578.15314 36.4526Q577.1375 36.4526 576.46564 35.79635Q575.8094 35.1401 575.8094 34.04635L575.8094 33.48385ZM576.8875 34.093224Q576.8875 34.718224 577.23126 35.10885Q577.575 35.499474 578.15314 35.499474Q578.71564 35.499474 579.04376 35.124474Q579.3875 34.73385 579.3875 34.061974L579.3875 33.48385Q579.3875 32.874474 579.04376 32.48385Q578.71564 32.093224 578.1375 32.093224Q577.59064 32.093224 577.23126 32.48385Q576.8875 32.85885 576.8875 33.5151L576.8875 34.093224ZM572.95 35.42135L572.1219 34.905724L577.6844 26.015099L578.4969 26.530724L572.95 35.42135Z" fill-rule="nonzero"/><path fill="#9e9e9e" d="M544.15314 58.280724L542.7 58.280724L542.7 48.6401L539.77814 49.718224L539.77814 48.405724L543.91876 46.843224L544.15314 46.843224L544.15314 58.280724ZM550.4969 51.8901L551.59064 51.8901Q552.60626 51.874474 553.1844 51.35885Q553.77814 50.8276 553.77814 49.936974Q553.77814 47.936974 551.79376 47.936974Q550.85626 47.936974 550.29376 48.468224Q549.73126 48.999474 549.73126 49.8901L548.29376 49.8901Q548.29376 48.530724 549.27814 47.6401Q550.2625 46.749474 551.79376 46.749474Q553.40314 46.749474 554.3094 47.60885Q555.23126 48.4526 555.23126 49.968224Q555.23126 50.7026 554.7469 51.405724Q554.2625 52.093224 553.4344 52.436974Q554.3719 52.73385 554.8875 53.42135Q555.40314 54.10885 555.40314 55.10885Q555.40314 56.6401 554.40314 57.54635Q553.40314 58.436974 551.79376 58.436974Q550.2 58.436974 549.1844 57.5776Q548.1844 56.7026 548.1844 55.280724L549.6375 55.280724Q549.6375 56.17135 550.21564 56.718224Q550.8094 57.249474 551.79376 57.249474Q552.84064 57.249474 553.3875 56.7026Q553.95 56.155724 553.95 55.1401Q553.95 54.1401 553.34064 53.60885Q552.73126 53.0776 551.59064 53.061974L550.4969 53.061974L550.4969 51.8901ZM557.575 57.5151Q557.575 57.1401 557.79376 56.8901Q558.02814 56.6401 558.46564 56.6401Q558.91876 56.6401 559.1375 56.8901Q559.3719 57.1401 559.3719 57.5151Q559.3719 57.874474 559.1375 58.124474Q558.91876 58.374474 558.46564 58.374474Q558.02814 58.374474 557.79376 58.124474Q557.575 57.874474 557.575 57.5151ZM566.9344 53.280724Q566.48126 53.811974 565.85626 54.1401Q565.23126 54.468224 564.48126 54.468224Q563.4969 54.468224 562.7625 53.98385Q562.02814 53.499474 561.6219 52.624474Q561.23126 51.749474 561.23126 50.686974Q561.23126 49.54635 561.66876 48.6401Q562.10626 47.718224 562.90314 47.23385Q563.7 46.749474 564.7625 46.749474Q566.45 46.749474 567.41876 48.0151Q568.3875 49.2651 568.3875 51.4526L568.3875 51.874474Q568.3875 55.186974 567.075 56.718224Q565.7625 58.249474 563.1219 58.29635L562.84064 58.29635L562.84064 57.061974L563.1375 57.061974Q564.9344 57.030724 565.8875 56.1401Q566.85626 55.23385 566.9344 53.280724ZM564.71564 53.280724Q565.4344 53.280724 566.04376 52.843224Q566.66876 52.3901 566.95 51.73385L566.95 51.155724Q566.95 49.73385 566.325 48.843224Q565.71564 47.9526 564.7625 47.9526Q563.8094 47.9526 563.23126 48.686974Q562.65314 49.405724 562.65314 50.60885Q562.65314 51.7651 563.21564 52.530724Q563.77814 53.280724 564.71564 53.280724ZM570.27814 49.093224Q570.27814 48.061974 570.91876 47.405724Q571.575 46.73385 572.60626 46.73385Q573.6375 46.73385 574.27814 47.405724Q574.9344 48.0776 574.9344 49.1401L574.9344 49.686974Q574.9344 50.718224 574.27814 51.374474Q573.6219 52.030724 572.6219 52.030724Q571.60626 52.030724 570.9344 51.374474Q570.27814 50.718224 570.27814 49.6401L570.27814 49.093224ZM571.35626 49.686974Q571.35626 50.29635 571.7 50.7026Q572.04376 51.093224 572.6219 51.093224Q573.16876 51.093224 573.5125 50.718224Q573.85626 50.3276 573.85626 49.655724L573.85626 49.093224Q573.85626 48.48385 573.5125 48.093224Q573.1844 47.686974 572.60626 47.686974Q572.02814 47.686974 571.6844 48.093224Q571.35626 48.48385 571.35626 49.124474L571.35626 49.686974ZM575.8094 55.48385Q575.8094 54.468224 576.46564 53.811974Q577.1219 53.1401 578.1375 53.1401Q579.16876 53.1401 579.825 53.79635Q580.48126 54.4526 580.48126 55.54635L580.48126 56.093224Q580.48126 57.124474 579.825 57.79635Q579.16876 58.4526 578.15314 58.4526Q577.1375 58.4526 576.46564 57.79635Q575.8094 57.1401 575.8094 56.04635L575.8094 55.48385ZM576.8875 56.093224Q576.8875 56.718224 577.23126 57.10885Q577.575 57.499474 578.15314 57.499474Q578.71564 57.499474 579.04376 57.124474Q579.3875 56.73385 579.3875 56.061974L579.3875 55.48385Q579.3875 54.874474 579.04376 54.48385Q578.71564 54.093224 578.1375 54.093224Q577.59064 54.093224 577.23126 54.48385Q576.8875 54.85885 576.8875 55.5151L576.8875 56.093224ZM572.95 57.42135L572.1219 56.905724L577.6844 48.0151L578.4969 48.530724L572.95 57.42135Z" fill-rule="nonzero"/><path stroke="#757575" stroke-width="1.0" stroke-linecap="butt" d="M581.45 41.780724L472.95 41.780724L367.0785 41.780724" fill-rule="nonzero"/><path fill="#9e9e9e" d="M369.0785 41.780724C369.0785 40.676155 368.18304 39.780724 367.0785 39.780724C365.9739 39.780724 365.0785 40.676155 365.0785 41.780724C365.0785 42.885296 365.9739 43.780724 367.0785 43.780724C368.18304 43.780724 369.0785 42.885296 369.0785 41.780724" fill-rule="nonzero"/><path fill="#757575" d="M507.2 155.35065L502.27814 155.35065L502.27814 159.3819L507.9969 159.3819L507.9969 160.61627L500.77814 160.61627L500.77814 149.24127L507.91876 149.24127L507.91876 150.47565L502.27814 150.47565L502.27814 154.1319L507.2 154.1319L507.2 155.35065ZM510.91876 152.16315L510.96564 153.22565Q511.9344 152.0069 513.4969 152.0069Q516.16876 152.0069 516.2 155.02252L516.2 160.61627L514.7469 160.61627L514.7469 155.02252Q514.7469 154.10065 514.325 153.66315Q513.91876 153.22565 513.0594 153.22565Q512.35626 153.22565 511.825 153.60065Q511.29376 153.97565 510.9969 154.58502L510.9969 160.61627L509.54376 160.61627L509.54376 152.16315L510.91876 152.16315ZM520.5125 150.11627L520.5125 152.16315L522.09064 152.16315L522.09064 153.27252L520.5125 153.27252L520.5125 158.52252Q520.5125 159.02252 520.71564 159.28815Q520.9344 159.53815 521.4344 159.53815Q521.6844 159.53815 522.1219 159.4444L522.1219 160.61627Q521.5594 160.77252 521.0125 160.77252Q520.04376 160.77252 519.54376 160.1944Q519.0594 159.60065 519.0594 158.52252L519.0594 153.27252L517.52814 153.27252L517.52814 152.16315L519.0594 152.16315L519.0594 150.11627L520.5125 150.11627ZM527.6375 153.46002Q527.3094 153.39752 526.91876 153.39752Q525.4969 153.39752 524.9969 154.61627L524.9969 160.61627L523.54376 160.61627L523.54376 152.16315L524.95 152.16315L524.98126 153.1319Q525.6844 152.0069 526.9969 152.0069Q527.41876 152.0069 527.6375 152.11627L527.6375 153.46002ZM532.0594 160.77252Q530.34064 160.77252 529.2625 159.64752Q528.1844 158.5069 528.1844 156.61627L528.1844 156.35065Q528.1844 155.10065 528.65314 154.11627Q529.1375 153.11627 529.9969 152.5694Q530.8719 152.0069 531.8719 152.0069Q533.52814 152.0069 534.4344 153.10065Q535.35626 154.17877 535.35626 156.1944L535.35626 156.80377L529.6219 156.80377Q529.65314 158.05377 530.35626 158.8194Q531.0594 159.58502 532.1375 159.58502Q532.90314 159.58502 533.4344 159.27252Q533.96564 158.96002 534.35626 158.4444L535.2469 159.1319Q534.1844 160.77252 532.0594 160.77252ZM531.8719 153.1944Q530.9969 153.1944 530.40314 153.83502Q529.8094 154.46002 529.66876 155.61627L533.90314 155.61627L533.90314 155.5069Q533.84064 154.39752 533.3094 153.80377Q532.77814 153.1944 531.8719 153.1944ZM547.85626 160.61627L540.40314 160.61627L540.40314 159.5694L544.34064 155.1944Q545.21564 154.21002 545.54376 153.58502Q545.8719 152.96002 545.8719 152.30377Q545.8719 151.41315 545.325 150.85065Q544.79376 150.27252 543.90314 150.27252Q542.825 150.27252 542.21564 150.8819Q541.6219 151.49127 541.6219 152.58502L540.1844 152.58502Q540.1844 151.02252 541.1844 150.05377Q542.2 149.08502 543.90314 149.08502Q545.48126 149.08502 546.40314 149.91315Q547.325 150.74127 547.325 152.1319Q547.325 153.80377 545.1844 156.1319L542.1375 159.42877L547.85626 159.42877L547.85626 160.61627ZM554.15314 160.61627L552.7 160.61627L552.7 150.97565L549.77814 152.05377L549.77814 150.74127L553.91876 149.17877L554.15314 149.17877L554.15314 160.61627ZM558.27814 151.42877Q558.27814 150.39752 558.91876 149.74127Q559.575 149.0694 560.60626 149.0694Q561.6375 149.0694 562.27814 149.74127Q562.9344 150.41315 562.9344 151.47565L562.9344 152.02252Q562.9344 153.05377 562.27814 153.71002Q561.6219 154.36627 560.6219 154.36627Q559.60626 154.36627 558.9344 153.71002Q558.27814 153.05377 558.27814 151.97565L558.27814 151.42877ZM559.35626 152.02252Q559.35626 152.6319 559.7 153.03815Q560.04376 153.42877 560.6219 153.42877Q561.16876 153.42877 561.5125 153.05377Q561.85626 152.66315 561.85626 151.99127L561.85626 151.42877Q561.85626 150.8194 561.5125 150.42877Q561.1844 150.02252 560.60626 150.02252Q560.02814 150.02252 559.6844 150.42877Q559.35626 150.8194 559.35626 151.46002L559.35626 152.02252ZM563.8094 157.8194Q563.8094 156.80377 564.46564 156.14752Q565.1219 155.47565 566.1375 155.47565Q567.16876 155.47565 567.825 156.1319Q568.48126 156.78815 568.48126 157.8819L568.48126 158.42877Q568.48126 159.46002 567.825 160.1319Q567.16876 160.78815 566.15314 160.78815Q565.1375 160.78815 564.46564 160.1319Q563.8094 159.47565 563.8094 158.3819L563.8094 157.8194ZM564.8875 158.42877Q564.8875 159.05377 565.23126 159.4444Q565.575 159.83502 566.15314 159.83502Q566.71564 159.83502 567.04376 159.46002Q567.3875 159.0694 567.3875 158.39752L567.3875 157.8194Q567.3875 157.21002 567.04376 156.8194Q566.71564 156.42877 566.1375 156.42877Q565.59064 156.42877 565.23126 156.8194Q564.8875 157.1944 564.8875 157.85065L564.8875 158.42877ZM560.95 159.7569L560.1219 159.24127L565.6844 150.35065L566.4969 150.86627L560.95 159.7569ZM578.0594 160.77252Q576.34064 160.77252 575.2625 159.64752Q574.1844 158.5069 574.1844 156.61627L574.1844 156.35065Q574.1844 155.10065 574.65314 154.11627Q575.1375 153.11627 575.9969 152.5694Q576.8719 152.0069 577.8719 152.0069Q579.52814 152.0069 580.4344 153.10065Q581.35626 154.17877 581.35626 156.1944L581.35626 156.80377L575.6219 156.80377Q575.65314 158.05377 576.35626 158.8194Q577.0594 159.58502 578.1375 159.58502Q578.90314 159.58502 579.4344 159.27252Q579.96564 158.96002 580.35626 158.4444L581.2469 159.1319Q580.1844 160.77252 578.0594 160.77252ZM577.8719 153.1944Q576.9969 153.1944 576.40314 153.83502Q575.8094 154.46002 575.66876 155.61627L579.90314 155.61627L579.90314 155.5069Q579.84064 154.39752 579.3094 153.80377Q578.77814 153.1944 577.8719 153.1944Z" fill-rule="nonzero"/><path fill="#9e9e9e" d="M544.15314 182.61627L542.7 182.61627L542.7 172.97565L539.77814 174.05377L539.77814 172.74127L543.91876 171.17877L544.15314 171.17877L544.15314 182.61627ZM555.29376 174.21002Q555.29376 175.05377 554.84064 175.72565Q554.40314 176.3819 553.6375 176.7569Q554.52814 177.14752 555.04376 177.8819Q555.5594 178.61627 555.5594 179.53815Q555.5594 181.02252 554.5594 181.89752Q553.575 182.77252 551.95 182.77252Q550.3094 182.77252 549.3094 181.89752Q548.325 181.0069 548.325 179.53815Q548.325 178.61627 548.825 177.8819Q549.34064 177.1319 550.23126 176.7569Q549.46564 176.3819 549.02814 175.72565Q548.59064 175.05377 548.59064 174.21002Q548.59064 172.77252 549.5125 171.92877Q550.4344 171.08502 551.95 171.08502Q553.45 171.08502 554.3719 171.92877Q555.29376 172.77252 555.29376 174.21002ZM554.1219 179.5069Q554.1219 178.55377 553.5125 177.96002Q552.90314 177.35065 551.91876 177.35065Q550.95 177.35065 550.35626 177.9444Q549.77814 178.53815 549.77814 179.5069Q549.77814 180.47565 550.34064 181.03815Q550.91876 181.58502 551.95 181.58502Q552.96564 181.58502 553.54376 181.03815Q554.1219 180.47565 554.1219 179.5069ZM551.95 172.27252Q551.09064 172.27252 550.5594 172.80377Q550.04376 173.3194 550.04376 174.22565Q550.04376 175.10065 550.5594 175.6319Q551.075 176.16315 551.9344 176.16315Q552.8094 176.16315 553.325 175.6319Q553.85626 175.10065 553.85626 174.24127Q553.85626 173.36627 553.3094 172.8194Q552.77814 172.27252 551.95 172.27252ZM557.575 181.85065Q557.575 181.47565 557.79376 181.22565Q558.02814 180.97565 558.46564 180.97565Q558.91876 180.97565 559.1375 181.22565Q559.3719 181.47565 559.3719 181.85065Q559.3719 182.21002 559.1375 182.46002Q558.91876 182.71002 558.46564 182.71002Q558.02814 182.71002 557.79376 182.46002Q557.575 182.21002 557.575 181.85065ZM563.4969 176.22565L564.59064 176.22565Q565.60626 176.21002 566.1844 175.6944Q566.77814 175.16315 566.77814 174.27252Q566.77814 172.27252 564.79376 172.27252Q563.85626 172.27252 563.29376 172.80377Q562.73126 173.33502 562.73126 174.22565L561.29376 174.22565Q561.29376 172.86627 562.27814 171.97565Q563.2625 171.08502 564.79376 171.08502Q566.40314 171.08502 567.3094 171.9444Q568.23126 172.78815 568.23126 174.30377Q568.23126 175.03815 567.7469 175.74127Q567.2625 176.42877 566.4344 176.77252Q567.3719 177.0694 567.8875 177.7569Q568.40314 178.4444 568.40314 179.4444Q568.40314 180.97565 567.40314 181.8819Q566.40314 182.77252 564.79376 182.77252Q563.2 182.77252 562.1844 181.91315Q561.1844 181.03815 561.1844 179.61627L562.6375 179.61627Q562.6375 180.5069 563.21564 181.05377Q563.8094 181.58502 564.79376 181.58502Q565.84064 181.58502 566.3875 181.03815Q566.95 180.49127 566.95 179.47565Q566.95 178.47565 566.34064 177.9444Q565.73126 177.41315 564.59064 177.39752L563.4969 177.39752L563.4969 176.22565ZM570.27814 173.42877Q570.27814 172.39752 570.91876 171.74127Q571.575 171.0694 572.60626 171.0694Q573.6375 171.0694 574.27814 171.74127Q574.9344 172.41315 574.9344 173.47565L574.9344 174.02252Q574.9344 175.05377 574.27814 175.71002Q573.6219 176.36627 572.6219 176.36627Q571.60626 176.36627 570.9344 175.71002Q570.27814 175.05377 570.27814 173.97565L570.27814 173.42877ZM571.35626 174.02252Q571.35626 174.6319 571.7 175.03815Q572.04376 175.42877 572.6219 175.42877Q573.16876 175.42877 573.5125 175.05377Q573.85626 174.66315 573.85626 173.99127L573.85626 173.42877Q573.85626 172.8194 573.5125 172.42877Q573.1844 172.02252 572.60626 172.02252Q572.02814 172.02252 571.6844 172.42877Q571.35626 172.8194 571.35626 173.46002L571.35626 174.02252ZM575.8094 179.8194Q575.8094 178.80377 576.46564 178.14752Q577.1219 177.47565 578.1375 177.47565Q579.16876 177.47565 579.825 178.1319Q580.48126 178.78815 580.48126 179.8819L580.48126 180.42877Q580.48126 181.46002 579.825 182.1319Q579.16876 182.78815 578.15314 182.78815Q577.1375 182.78815 576.46564 182.1319Q575.8094 181.47565 575.8094 180.3819L575.8094 179.8194ZM576.8875 180.42877Q576.8875 181.05377 577.23126 181.4444Q577.575 181.83502 578.15314 181.83502Q578.71564 181.83502 579.04376 181.46002Q579.3875 181.0694 579.3875 180.39752L579.3875 179.8194Q579.3875 179.21002 579.04376 178.8194Q578.71564 178.42877 578.1375 178.42877Q577.59064 178.42877 577.23126 178.8194Q576.8875 179.1944 576.8875 179.85065L576.8875 180.42877ZM572.95 181.7569L572.1219 181.24127L577.6844 172.35065L578.4969 172.86627L572.95 181.7569Z" fill-rule="nonzero"/><path stroke="#757575" stroke-width="1.0" stroke-linecap="butt" d="M581.45 166.11627L472.95 166.11627L457.41354 166.11627" fill-rule="nonzero"/><path fill="#9e9e9e" d="M459.41354 166.11627C459.41354 165.0117 458.51813 164.11627 457.41354 164.11627C456.30896 164.11627 455.41354 165.0117 455.41354 166.11627C455.41354 167.22084 456.30896 168.11627 457.41354 168.11627C458.51813 168.11627 459.41354 167.22084 459.41354 166.11627" fill-rule="nonzero"/></svg>