<svg version="1.1" viewBox="0.0 0.0 600.0 371.0" fill="none" stroke="none" stroke-linecap="square" stroke-miterlimit="10" width="600" height="371" xmlns:xlink="http://www.w3.org/1999/xlink" xmlns="http://www.w3.org/2000/svg"><path fill="#ffffff" d="M0 0L600.0 0L600.0 371.0L0 371.0L0 0Z" fill-rule="nonzero"/><path fill="#4285f4" d="M300.0 18.55C355.29413 18.55 407.0012 45.927483 438.08112 91.66018L300.0 185.5Z" fill-rule="nonzero"/><path fill="#db4437" d="M438.08112 91.66018C469.6832 138.16124 475.75735 197.4456 454.2417 249.38899C432.72604 301.3324 386.51056 338.9577 331.28333 349.49286L300.0 185.5Z" fill-rule="nonzero"/><path fill="#0f9d58" d="M176.8722 72.75319C208.49669 38.2169 253.17197 18.55 300.0 18.55L300.0 185.5Z" fill-rule="nonzero"/><path fill="#f4b400" d="M331.28333 349.49286C260.61682 362.9732 189.26198 329.66956 154.20883 266.8464C119.15569 204.02325 128.28824 125.81043 176.8722 72.75319L300.0 185.5Z" fill-rule="nonzero"/><path fill="#757575" d="M26.159374 31.871712L21.39375 31.871712L20.315624 34.84046L18.76875 34.84046L23.1125 23.465462L24.425 23.465462L28.784374 34.84046L27.2375 34.84046L26.159374 31.871712ZM21.846874 30.637337L25.70625 30.637337L23.76875 25.309212L21.846874 30.637337ZM33.034374 33.80921Q33.815624 33.80921 34.39375 33.34046Q34.971874 32.87171 35.034374 32.168587L36.39375 32.168587Q36.3625 32.90296 35.89375 33.55921Q35.440624 34.21546 34.659374 34.606087Q33.89375 34.99671 33.034374 34.99671Q31.315624 34.99671 30.284374 33.84046Q29.26875 32.68421 29.26875 30.684212L29.26875 30.449837Q29.26875 29.215462 29.721874 28.262337Q30.175 27.293587 31.01875 26.762337Q31.878124 26.231087 33.034374 26.231087Q34.45625 26.231087 35.39375 27.090462Q36.33125 27.934212 36.39375 29.293587L35.034374 29.293587Q34.971874 28.465462 34.409374 27.949837Q33.846874 27.418587 33.034374 27.418587Q31.925 27.418587 31.315624 28.215462Q30.721874 28.996712 30.721874 30.496712L30.721874 30.777962Q30.721874 32.231087 31.315624 33.02796Q31.925 33.80921 33.034374 33.80921ZM39.221874 34.84046L37.76875 34.84046L37.76875 26.387337L39.221874 26.387337L39.221874 34.84046ZM37.659374 24.137337Q37.659374 23.793587 37.8625 23.559212Q38.08125 23.309212 38.503124 23.309212Q38.925 23.309212 39.14375 23.559212Q39.3625 23.793587 39.3625 24.152962Q39.3625 24.496712 39.14375 24.731087Q38.925 24.965462 38.503124 24.965462Q38.08125 24.965462 37.8625 24.731087Q37.659374 24.496712 37.659374 24.137337ZM43.003124 26.387337L43.05 27.324837Q43.971874 26.231087 45.55 26.231087Q47.33125 26.231087 47.971874 27.590462Q48.39375 26.981087 49.065624 26.606087Q49.7375 26.231087 50.659374 26.231087Q53.440624 26.231087 53.4875 29.168587L53.4875 34.84046L52.05 34.84046L52.05 29.262337Q52.05 28.356087 51.628124 27.902962Q51.221874 27.449837 50.2375 27.449837Q49.440624 27.449837 48.909374 27.934212Q48.378124 28.418587 48.284374 29.231087L48.284374 34.84046L46.83125 34.84046L46.83125 29.293587Q46.83125 27.449837 45.034374 27.449837Q43.6125 27.449837 43.08125 28.668587L43.08125 34.84046L41.64375 34.84046L41.64375 26.387337L43.003124 26.387337ZM60.8625 34.84046Q60.7375 34.59046 60.659374 33.949837Q59.659374 34.99671 58.253124 34.99671Q57.003124 34.99671 56.20625 34.293587Q55.409374 33.574837 55.409374 32.49671Q55.409374 31.168587 56.409374 30.449837Q57.409374 29.715462 59.2375 29.715462L60.64375 29.715462L60.64375 29.043587Q60.64375 28.293587 60.190624 27.840462Q59.7375 27.387337 58.846874 27.387337Q58.08125 27.387337 57.55 27.777962Q57.034374 28.168587 57.034374 28.731087L55.58125 28.731087Q55.58125 28.090462 56.01875 27.512337Q56.471874 26.918587 57.2375 26.574837Q58.01875 26.231087 58.940624 26.231087Q60.39375 26.231087 61.221874 26.965462Q62.05 27.684212 62.08125 28.965462L62.08125 32.856087Q62.08125 34.02796 62.378124 34.71546L62.378124 34.84046L60.8625 34.84046ZM58.471874 33.731087Q59.14375 33.731087 59.753124 33.387337Q60.3625 33.02796 60.64375 32.46546L60.64375 30.731087L59.503124 30.731087Q56.846874 30.731087 56.846874 32.293587Q56.846874 32.96546 57.3 33.356087Q57.753124 33.731087 58.471874 33.731087ZM68.3 30.543587Q68.3 28.590462 69.22188 27.418587Q70.14375 26.231087 71.62813 26.231087Q73.1125 26.231087 73.9875 27.246712L73.9875 22.840462L75.425 22.840462L75.425 34.84046L74.09688 34.84046L74.03438 33.93421Q73.15938 34.99671 71.6125 34.99671Q70.14375 34.99671 69.22188 33.793587Q68.3 32.59046 68.3 30.652962L68.3 30.543587ZM69.7375 30.699837Q69.7375 32.137337 70.33125 32.949837Q70.925 33.762337 71.97188 33.762337Q73.34688 33.762337 73.9875 32.52796L73.9875 28.652962Q73.33125 27.449837 71.9875 27.449837Q70.925 27.449837 70.33125 28.277962Q69.7375 29.090462 69.7375 30.699837ZM81.15938 34.99671Q79.44063 34.99671 78.3625 33.87171Q77.28438 32.731087 77.28438 30.840462L77.28438 30.574837Q77.28438 29.324837 77.75313 28.340462Q78.2375 27.340462 79.09688 26.793587Q79.97188 26.231087 80.97188 26.231087Q82.62813 26.231087 83.53438 27.324837Q84.45625 28.402962 84.45625 30.418587L84.45625 31.027962L78.72188 31.027962Q78.75313 32.27796 79.45625 33.043587Q80.15938 33.80921 81.2375 33.80921Q82.00313 33.80921 82.53438 33.49671Q83.06563 33.18421 83.45625 32.668587L84.34688 33.356087Q83.28438 34.99671 81.15938 34.99671ZM80.97188 27.418587Q80.09688 27.418587 79.50313 28.059212Q78.90938 28.684212 78.76875 29.840462L83.00313 29.840462L83.00313 29.731087Q82.94063 28.621712 82.40938 28.027962Q81.87813 27.418587 80.97188 27.418587Z" fill-rule="nonzero"/><path fill="#9e9e9e" d="M24.253124 56.84046L22.8 56.84046L22.8 47.199837L19.878124 48.27796L19.878124 46.96546L24.01875 45.40296L24.253124 45.40296L24.253124 56.84046ZM30.596874 50.449837L31.690624 50.449837Q32.70625 50.43421 33.284374 49.918587Q33.878124 49.387337 33.878124 48.49671Q33.878124 46.49671 31.89375 46.49671Q30.95625 46.49671 30.39375 47.02796Q29.83125 47.55921 29.83125 48.449837L28.39375 48.449837Q28.39375 47.09046 29.378124 46.199837Q30.3625 45.30921 31.89375 45.30921Q33.503124 45.30921 34.409374 46.168587Q35.33125 47.012337 35.33125 48.52796Q35.33125 49.262337 34.846874 49.96546Q34.3625 50.65296 33.534374 50.99671Q34.471874 51.293587 34.9875 51.981087Q35.503124 52.668587 35.503124 53.668587Q35.503124 55.199837 34.503124 56.106087Q33.503124 56.99671 31.89375 56.99671Q30.3 56.99671 29.284374 56.137337Q28.284374 55.262337 28.284374 53.84046L29.7375 53.84046Q29.7375 54.731087 30.315624 55.27796Q30.909374 55.80921 31.89375 55.80921Q32.940624 55.80921 33.4875 55.262337Q34.05 54.71546 34.05 53.699837Q34.05 52.699837 33.440624 52.168587Q32.83125 51.637337 31.690624 51.62171L30.596874 51.62171L30.596874 50.449837ZM37.675 56.074837Q37.675 55.699837 37.89375 55.449837Q38.128124 55.199837 38.565624 55.199837Q39.01875 55.199837 39.2375 55.449837Q39.471874 55.699837 39.471874 56.074837Q39.471874 56.43421 39.2375 56.68421Q39.01875 56.93421 38.565624 56.93421Q38.128124 56.93421 37.89375 56.68421Q37.675 56.43421 37.675 56.074837ZM48.95625 56.84046L41.503124 56.84046L41.503124 55.793587L45.440624 51.418587Q46.315624 50.43421 46.64375 49.80921Q46.971874 49.18421 46.971874 48.52796Q46.971874 47.637337 46.425 47.074837Q45.89375 46.49671 45.003124 46.49671Q43.925 46.49671 43.315624 47.106087Q42.721874 47.71546 42.721874 48.80921L41.284374 48.80921Q41.284374 47.24671 42.284374 46.27796Q43.3 45.30921 45.003124 45.30921Q46.58125 45.30921 47.503124 46.137337Q48.425 46.96546 48.425 48.356087Q48.425 50.02796 46.284374 52.356087L43.2375 55.65296L48.95625 55.65296L48.95625 56.84046ZM50.378124 47.65296Q50.378124 46.62171 51.01875 45.96546Q51.675 45.293587 52.70625 45.293587Q53.7375 45.293587 54.378124 45.96546Q55.034374 46.637337 55.034374 47.699837L55.034374 48.24671Q55.034374 49.27796 54.378124 49.93421Q53.721874 50.59046 52.721874 50.59046Q51.70625 50.59046 51.034374 49.93421Q50.378124 49.27796 50.378124 48.199837L50.378124 47.65296ZM51.45625 48.24671Q51.45625 48.856087 51.8 49.262337Q52.14375 49.65296 52.721874 49.65296Q53.26875 49.65296 53.6125 49.27796Q53.95625 48.887337 53.95625 48.21546L53.95625 47.65296Q53.95625 47.043587 53.6125 46.65296Q53.284374 46.24671 52.70625 46.24671Q52.128124 46.24671 51.784374 46.65296Q51.45625 47.043587 51.45625 47.68421L51.45625 48.24671ZM55.909374 54.043587Q55.909374 53.02796 56.565624 52.37171Q57.221874 51.699837 58.2375 51.699837Q59.26875 51.699837 59.925 52.356087Q60.58125 53.012337 60.58125 54.106087L60.58125 54.65296Q60.58125 55.68421 59.925 56.356087Q59.26875 57.012337 58.253124 57.012337Q57.2375 57.012337 56.565624 56.356087Q55.909374 55.699837 55.909374 54.606087L55.909374 54.043587ZM56.9875 54.65296Q56.9875 55.27796 57.33125 55.668587Q57.675 56.05921 58.253124 56.05921Q58.815624 56.05921 59.14375 55.68421Q59.4875 55.293587 59.4875 54.62171L59.4875 54.043587Q59.4875 53.43421 59.14375 53.043587Q58.815624 52.65296 58.2375 52.65296Q57.690624 52.65296 57.33125 53.043587Q56.9875 53.418587 56.9875 54.074837L56.9875 54.65296ZM53.05 55.981087L52.221874 55.46546L57.784374 46.574837L58.596874 47.09046L53.05 55.981087Z" fill-rule="nonzero"/><path stroke="#757575" stroke-width="1.0" stroke-linecap="butt" d="M18.55 40.34046L127.05 40.34046L236.09804 40.34046" fill-rule="nonzero"/><path fill="#9e9e9e" d="M238.09804 40.34046C238.09804 39.235893 237.2026 38.34046 236.09804 38.34046C234.99347 38.34046 234.09804 39.235893 234.09804 40.34046C234.09804 41.44503 234.99347 42.34046 236.09804 42.34046C237.2026 42.34046 238.09804 41.44503 238.09804 40.34046" fill-rule="nonzero"/><path fill="#757575" d="M26.3 252.01346L21.378124 252.01346L21.378124 256.0447L27.096874 256.0447L27.096874 257.27908L19.878124 257.27908L19.878124 245.90408L27.01875 245.90408L27.01875 247.13846L21.378124 247.13846L21.378124 250.79471L26.3 250.79471L26.3 252.01346ZM30.01875 248.82596L30.065624 249.88846Q31.034374 248.66971 32.596874 248.66971Q35.26875 248.66971 35.3 251.68533L35.3 257.27908L33.846874 257.27908L33.846874 251.68533Q33.846874 250.76346 33.425 250.32596Q33.01875 249.88846 32.159374 249.88846Q31.45625 249.88846 30.925 250.26346Q30.39375 250.63846 30.096874 251.24783L30.096874 257.27908L28.64375 257.27908L28.64375 248.82596L30.01875 248.82596ZM39.6125 246.77908L39.6125 248.82596L41.190624 248.82596L41.190624 249.93533L39.6125 249.93533L39.6125 255.18533Q39.6125 255.68533 39.815624 255.95096Q40.034374 256.20096 40.534374 256.20096Q40.784374 256.20096 41.221874 256.1072L41.221874 257.27908Q40.659374 257.43533 40.1125 257.43533Q39.14375 257.43533 38.64375 256.8572Q38.159374 256.26346 38.159374 255.18533L38.159374 249.93533L36.628124 249.93533L36.628124 248.82596L38.159374 248.82596L38.159374 246.77908L39.6125 246.77908ZM46.7375 250.12283Q46.409374 250.06033 46.01875 250.06033Q44.596874 250.06033 44.096874 251.27908L44.096874 257.27908L42.64375 257.27908L42.64375 248.82596L44.05 248.82596L44.08125 249.79471Q44.784374 248.66971 46.096874 248.66971Q46.51875 248.66971 46.7375 248.77908L46.7375 250.12283ZM51.159374 257.43533Q49.440624 257.43533 48.3625 256.31033Q47.284374 255.16971 47.284374 253.27908L47.284374 253.01346Q47.284374 251.76346 47.753124 250.77908Q48.2375 249.77908 49.096874 249.23221Q49.971874 248.66971 50.971874 248.66971Q52.628124 248.66971 53.534374 249.76346Q54.45625 250.84158 54.45625 252.85721L54.45625 253.46658L48.721874 253.46658Q48.753124 254.71658 49.45625 255.48221Q50.159374 256.24783 51.2375 256.24783Q52.003124 256.24783 52.534374 255.93533Q53.065624 255.62283 53.45625 255.10721L54.346874 255.79471Q53.284374 257.43533 51.159374 257.43533ZM50.971874 249.85721Q50.096874 249.85721 49.503124 250.49783Q48.909374 251.12283 48.76875 252.27908L53.003124 252.27908L53.003124 252.16971Q52.940624 251.06033 52.409374 250.46658Q51.878124 249.85721 50.971874 249.85721ZM60.159374 251.57596L60.7375 245.90408L66.56563 245.90408L66.56563 247.23221L61.971874 247.23221L61.628124 250.34158Q62.45625 249.84158 63.51875 249.84158Q65.08125 249.84158 65.9875 250.87283Q66.90938 251.90408 66.90938 253.65408Q66.90938 255.40408 65.95625 256.4197Q65.00313 257.43533 63.3 257.43533Q61.8 257.43533 60.846874 256.6072Q59.89375 255.76346 59.753124 254.27908L61.128124 254.27908Q61.253124 255.26346 61.815624 255.76346Q62.378124 256.24783 63.3 256.24783Q64.31563 256.24783 64.87813 255.56033Q65.45625 254.87283 65.45625 253.66971Q65.45625 252.52908 64.83125 251.84158Q64.22188 251.13846 63.190624 251.13846Q62.2375 251.13846 61.70625 251.56033L61.315624 251.87283L60.159374 251.57596ZM73.25313 257.27908L71.8 257.27908L71.8 247.63846L68.87813 248.71658L68.87813 247.40408L73.01875 245.84158L73.25313 245.84158L73.25313 257.27908ZM77.37813 248.09158Q77.37813 247.06033 78.01875 246.40408Q78.675 245.73221 79.70625 245.73221Q80.7375 245.73221 81.37813 246.40408Q82.03438 247.07596 82.03438 248.13846L82.03438 248.68533Q82.03438 249.71658 81.37813 250.37283Q80.72188 251.02908 79.72188 251.02908Q78.70625 251.02908 78.03438 250.37283Q77.37813 249.71658 77.37813 248.63846L77.37813 248.09158ZM78.45625 248.68533Q78.45625 249.29471 78.8 249.70096Q79.14375 250.09158 79.72188 250.09158Q80.26875 250.09158 80.6125 249.71658Q80.95625 249.32596 80.95625 248.65408L80.95625 248.09158Q80.95625 247.48221 80.6125 247.09158Q80.28438 246.68533 79.70625 246.68533Q79.12813 246.68533 78.78438 247.09158Q78.45625 247.48221 78.45625 248.12283L78.45625 248.68533ZM82.90938 254.48221Q82.90938 253.46658 83.56563 252.81033Q84.22188 252.13846 85.2375 252.13846Q86.26875 252.13846 86.925 252.79471Q87.58125 253.45096 87.58125 254.54471L87.58125 255.09158Q87.58125 256.12283 86.925 256.7947Q86.26875 257.45096 85.25313 257.45096Q84.2375 257.45096 83.56563 256.7947Q82.90938 256.13846 82.90938 255.04471L82.90938 254.48221ZM83.9875 255.09158Q83.9875 255.71658 84.33125 256.1072Q84.675 256.49783 85.25313 256.49783Q85.81563 256.49783 86.14375 256.12283Q86.4875 255.73221 86.4875 255.06033L86.4875 254.48221Q86.4875 253.87283 86.14375 253.48221Q85.81563 253.09158 85.2375 253.09158Q84.69063 253.09158 84.33125 253.48221Q83.9875 253.85721 83.9875 254.51346L83.9875 255.09158ZM80.05 256.4197L79.22188 255.90408L84.78438 247.01346L85.59688 247.52908L80.05 256.4197ZM97.15938 257.43533Q95.44063 257.43533 94.3625 256.31033Q93.28438 255.16971 93.28438 253.27908L93.28438 253.01346Q93.28438 251.76346 93.75313 250.77908Q94.2375 249.77908 95.09688 249.23221Q95.97188 248.66971 96.97188 248.66971Q98.62813 248.66971 99.53438 249.76346Q100.45625 250.84158 100.45625 252.85721L100.45625 253.46658L94.72188 253.46658Q94.75313 254.71658 95.45625 255.48221Q96.15938 256.24783 97.2375 256.24783Q98.00313 256.24783 98.53438 255.93533Q99.06563 255.62283 99.45625 255.10721L100.34688 255.79471Q99.28438 257.43533 97.15938 257.43533ZM96.97188 249.85721Q96.09688 249.85721 95.50313 250.49783Q94.90938 251.12283 94.76875 252.27908L99.00313 252.27908L99.00313 252.16971Q98.94063 251.06033 98.40938 250.46658Q97.87813 249.85721 96.97188 249.85721Z" fill-rule="nonzero"/><path fill="#9e9e9e" d="M21.596874 272.88846L22.690624 272.88846Q23.70625 272.87283 24.284374 272.3572Q24.878124 271.82596 24.878124 270.93533Q24.878124 268.93533 22.89375 268.93533Q21.95625 268.93533 21.39375 269.46658Q20.83125 269.99783 20.83125 270.88846L19.39375 270.88846Q19.39375 269.52908 20.378124 268.63846Q21.3625 267.74783 22.89375 267.74783Q24.503124 267.74783 25.409374 268.6072Q26.33125 269.45096 26.33125 270.96658Q26.33125 271.70096 25.846874 272.40408Q25.3625 273.09158 24.534374 273.43533Q25.471874 273.7322 25.9875 274.4197Q26.503124 275.1072 26.503124 276.1072Q26.503124 277.63846 25.503124 278.5447Q24.503124 279.43533 22.89375 279.43533Q21.3 279.43533 20.284374 278.57596Q19.284374 277.70096 19.284374 276.27908L20.7375 276.27908Q20.7375 277.1697 21.315624 277.71658Q21.909374 278.24783 22.89375 278.24783Q23.940624 278.24783 24.4875 277.70096Q25.05 277.15408 25.05 276.13846Q25.05 275.13846 24.440624 274.6072Q23.83125 274.07596 22.690624 274.06033L21.596874 274.06033L21.596874 272.88846ZM34.034374 274.27908Q33.58125 274.81033 32.95625 275.13846Q32.33125 275.46658 31.58125 275.46658Q30.596874 275.46658 29.8625 274.9822Q29.128124 274.49783 28.721874 273.62283Q28.33125 272.74783 28.33125 271.68533Q28.33125 270.5447 28.76875 269.63846Q29.20625 268.71658 30.003124 268.2322Q30.8 267.74783 31.8625 267.74783Q33.55 267.74783 34.51875 269.01346Q35.4875 270.26346 35.4875 272.45096L35.4875 272.87283Q35.4875 276.18533 34.175 277.71658Q32.8625 279.24783 30.221874 279.2947L29.940624 279.2947L29.940624 278.06033L30.2375 278.06033Q32.034374 278.02908 32.9875 277.13846Q33.95625 276.2322 34.034374 274.27908ZM31.815624 274.27908Q32.534374 274.27908 33.14375 273.84158Q33.76875 273.38846 34.05 272.7322L34.05 272.15408Q34.05 270.7322 33.425 269.84158Q32.815624 268.95096 31.8625 268.95096Q30.909374 268.95096 30.33125 269.68533Q29.753124 270.40408 29.753124 271.6072Q29.753124 272.76346 30.315624 273.52908Q30.878124 274.27908 31.815624 274.27908ZM37.675 278.51346Q37.675 278.13846 37.89375 277.88846Q38.128124 277.63846 38.565624 277.63846Q39.01875 277.63846 39.2375 277.88846Q39.471874 278.13846 39.471874 278.51346Q39.471874 278.87283 39.2375 279.12283Q39.01875 279.37283 38.565624 279.37283Q38.128124 279.37283 37.89375 279.12283Q37.675 278.87283 37.675 278.51346ZM48.39375 270.87283Q48.39375 271.71658 47.940624 272.38846Q47.503124 273.0447 46.7375 273.4197Q47.628124 273.81033 48.14375 274.5447Q48.659374 275.27908 48.659374 276.20096Q48.659374 277.68533 47.659374 278.56033Q46.675 279.43533 45.05 279.43533Q43.409374 279.43533 42.409374 278.56033Q41.425 277.6697 41.425 276.20096Q41.425 275.27908 41.925 274.5447Q42.440624 273.7947 43.33125 273.4197Q42.565624 273.0447 42.128124 272.38846Q41.690624 271.71658 41.690624 270.87283Q41.690624 269.43533 42.6125 268.59158Q43.534374 267.74783 45.05 267.74783Q46.55 267.74783 47.471874 268.59158Q48.39375 269.43533 48.39375 270.87283ZM47.221874 276.1697Q47.221874 275.21658 46.6125 274.62283Q46.003124 274.01346 45.01875 274.01346Q44.05 274.01346 43.45625 274.6072Q42.878124 275.20096 42.878124 276.1697Q42.878124 277.13846 43.440624 277.70096Q44.01875 278.24783 45.05 278.24783Q46.065624 278.24783 46.64375 277.70096Q47.221874 277.13846 47.221874 276.1697ZM45.05 268.93533Q44.190624 268.93533 43.659374 269.46658Q43.14375 269.9822 43.14375 270.88846Q43.14375 271.76346 43.659374 272.2947Q44.175 272.82596 45.034374 272.82596Q45.909374 272.82596 46.425 272.2947Q46.95625 271.76346 46.95625 270.90408Q46.95625 270.02908 46.409374 269.4822Q45.878124 268.93533 45.05 268.93533ZM50.378124 270.09158Q50.378124 269.06033 51.01875 268.40408Q51.675 267.7322 52.70625 267.7322Q53.7375 267.7322 54.378124 268.40408Q55.034374 269.07596 55.034374 270.13846L55.034374 270.68533Q55.034374 271.71658 54.378124 272.37283Q53.721874 273.02908 52.721874 273.02908Q51.70625 273.02908 51.034374 272.37283Q50.378124 271.71658 50.378124 270.63846L50.378124 270.09158ZM51.45625 270.68533Q51.45625 271.2947 51.8 271.70096Q52.14375 272.09158 52.721874 272.09158Q53.26875 272.09158 53.6125 271.71658Q53.95625 271.32596 53.95625 270.65408L53.95625 270.09158Q53.95625 269.4822 53.6125 269.09158Q53.284374 268.68533 52.70625 268.68533Q52.128124 268.68533 51.784374 269.09158Q51.45625 269.4822 51.45625 270.12283L51.45625 270.68533ZM55.909374 276.4822Q55.909374 275.46658 56.565624 274.81033Q57.221874 274.13846 58.2375 274.13846Q59.26875 274.13846 59.925 274.7947Q60.58125 275.45096 60.58125 276.5447L60.58125 277.09158Q60.58125 278.12283 59.925 278.7947Q59.26875 279.45096 58.253124 279.45096Q57.2375 279.45096 56.565624 278.7947Q55.909374 278.13846 55.909374 277.0447L55.909374 276.4822ZM56.9875 277.09158Q56.9875 277.71658 57.33125 278.1072Q57.675 278.49783 58.253124 278.49783Q58.815624 278.49783 59.14375 278.12283Q59.4875 277.7322 59.4875 277.06033L59.4875 276.4822Q59.4875 275.87283 59.14375 275.4822Q58.815624 275.09158 58.2375 275.09158Q57.690624 275.09158 57.33125 275.4822Q56.9875 275.8572 56.9875 276.51346L56.9875 277.09158ZM53.05 278.4197L52.221874 277.90408L57.784374 269.01346L58.596874 269.52908L53.05 278.4197Z" fill-rule="nonzero"/><path stroke="#757575" stroke-width="1.0" stroke-linecap="butt" d="M18.55 262.77908L127.05 262.77908L161.4984 262.77908" fill-rule="nonzero"/><path fill="#9e9e9e" d="M163.4984 262.77908C163.4984 261.67453 162.60297 260.77908 161.4984 260.77908C160.39383 260.77908 159.4984 261.67453 159.4984 262.77908C159.4984 263.88367 160.39383 264.77908 161.4984 264.77908C162.60297 264.77908 163.4984 263.88367 163.4984 262.77908" fill-rule="nonzero"/><path fill="#757575" d="M485.0594 36.86381L480.29376 36.86381L479.21564 39.83256L477.66876 39.83256L482.0125 28.457561L483.325 28.457561L487.6844 39.83256L486.1375 39.83256L485.0594 36.86381ZM480.7469 35.629436L484.60626 35.629436L482.66876 30.301311L480.7469 35.629436ZM495.7 35.691936Q495.7 37.629436 494.8094 38.816936Q493.91876 39.98881 492.41876 39.98881Q490.825 39.98881 489.95 38.848186L489.8719 39.83256L488.54376 39.83256L488.54376 27.832561L489.9969 27.832561L489.9969 32.30131Q490.8719 31.223186 492.40314 31.223186Q493.95 31.223186 494.825 32.39506Q495.7 33.55131 495.7 35.566936L495.7 35.691936ZM494.2625 35.535686Q494.2625 34.05131 493.6844 33.254436Q493.1219 32.441936 492.04376 32.441936Q490.6219 32.441936 489.9969 33.77006L489.9969 37.42631Q490.65314 38.754436 492.0594 38.754436Q493.10626 38.754436 493.6844 37.95756Q494.2625 37.14506 494.2625 35.535686ZM502.7625 39.83256Q502.6375 39.58256 502.5594 38.941936Q501.5594 39.98881 500.15314 39.98881Q498.90314 39.98881 498.10626 39.285686Q497.3094 38.566936 497.3094 37.48881Q497.3094 36.160686 498.3094 35.441936Q499.3094 34.70756 501.1375 34.70756L502.54376 34.70756L502.54376 34.035686Q502.54376 33.285686 502.09064 32.83256Q501.6375 32.379436 500.7469 32.379436Q499.98126 32.379436 499.45 32.77006Q498.9344 33.160686 498.9344 33.723186L497.48126 33.723186Q497.48126 33.08256 497.91876 32.504436Q498.3719 31.910686 499.1375 31.566936Q499.91876 31.223186 500.84064 31.223186Q502.29376 31.223186 503.1219 31.957561Q503.95 32.67631 503.98126 33.95756L503.98126 37.848186Q503.98126 39.02006 504.27814 39.70756L504.27814 39.83256L502.7625 39.83256ZM500.3719 38.723186Q501.04376 38.723186 501.65314 38.379436Q502.2625 38.02006 502.54376 37.45756L502.54376 35.723186L501.40314 35.723186Q498.7469 35.723186 498.7469 37.285686Q498.7469 37.95756 499.2 38.348186Q499.65314 38.723186 500.3719 38.723186ZM508.1219 39.83256L506.66876 39.83256L506.66876 31.379436L508.1219 31.379436L508.1219 39.83256ZM506.5594 29.129436Q506.5594 28.785686 506.7625 28.551311Q506.98126 28.301311 507.40314 28.301311Q507.825 28.301311 508.04376 28.551311Q508.2625 28.785686 508.2625 29.145061Q508.2625 29.488811 508.04376 29.723186Q507.825 29.957561 507.40314 29.957561Q506.98126 29.957561 506.7625 29.723186Q506.5594 29.488811 506.5594 29.129436ZM513.3875 34.45756L515.2625 31.379436L516.95 31.379436L514.1844 35.55131L517.02814 39.83256L515.35626 39.83256L513.40314 36.660686L511.45 39.83256L509.77814 39.83256L512.6219 35.55131L509.85626 31.379436L511.52814 31.379436L513.3875 34.45756ZM518.16876 35.52006Q518.16876 34.285686 518.65314 33.30131Q519.1375 32.30131 520.0125 31.770061Q520.8875 31.223186 521.9969 31.223186Q523.73126 31.223186 524.79376 32.42631Q525.85626 33.61381 525.85626 35.598186L525.85626 35.691936Q525.85626 36.92631 525.3875 37.910686Q524.91876 38.89506 524.02814 39.441936Q523.15314 39.98881 522.0125 39.98881Q520.29376 39.98881 519.23126 38.80131Q518.16876 37.598186 518.16876 35.629436L518.16876 35.52006ZM519.6219 35.691936Q519.6219 37.098186 520.2625 37.95756Q520.91876 38.80131 522.0125 38.80131Q523.1219 38.80131 523.7625 37.941936Q524.41876 37.08256 524.41876 35.52006Q524.41876 34.129436 523.7469 33.27006Q523.09064 32.410686 521.9969 32.410686Q520.9344 32.410686 520.27814 33.27006Q519.6219 34.11381 519.6219 35.691936ZM531.2 35.535686Q531.2 33.58256 532.1219 32.410686Q533.04376 31.223186 534.52814 31.223186Q536.0125 31.223186 536.8875 32.23881L536.8875 27.832561L538.325 27.832561L538.325 39.83256L536.9969 39.83256L536.9344 38.92631Q536.0594 39.98881 534.5125 39.98881Q533.04376 39.98881 532.1219 38.785686Q531.2 37.58256 531.2 35.64506L531.2 35.535686ZM532.6375 35.691936Q532.6375 37.129436 533.23126 37.941936Q533.825 38.754436 534.8719 38.754436Q536.2469 38.754436 536.8875 37.52006L536.8875 33.64506Q536.23126 32.441936 534.8875 32.441936Q533.825 32.441936 533.23126 33.27006Q532.6375 34.08256 532.6375 35.691936ZM544.0594 39.98881Q542.34064 39.98881 541.2625 38.86381Q540.1844 37.723186 540.1844 35.83256L540.1844 35.566936Q540.1844 34.316936 540.65314 33.33256Q541.1375 32.33256 541.9969 31.785686Q542.8719 31.223186 543.8719 31.223186Q545.52814 31.223186 546.4344 32.316936Q547.35626 33.39506 547.35626 35.410686L547.35626 36.02006L541.6219 36.02006Q541.65314 37.27006 542.35626 38.035686Q543.0594 38.80131 544.1375 38.80131Q544.90314 38.80131 545.4344 38.48881Q545.96564 38.17631 546.35626 37.660686L547.2469 38.348186Q546.1844 39.98881 544.0594 39.98881ZM543.8719 32.410686Q542.9969 32.410686 542.40314 33.05131Q541.8094 33.67631 541.66876 34.83256L545.90314 34.83256L545.90314 34.723186Q545.84064 33.61381 545.3094 33.02006Q544.77814 32.410686 543.8719 32.410686ZM559.85626 39.83256L552.40314 39.83256L552.40314 38.785686L556.34064 34.410686Q557.21564 33.42631 557.54376 32.80131Q557.8719 32.17631 557.8719 31.520061Q557.8719 30.629436 557.325 30.066936Q556.79376 29.488811 555.90314 29.488811Q554.825 29.488811 554.21564 30.098186Q553.6219 30.707561 553.6219 31.801311L552.1844 31.801311Q552.1844 30.238811 553.1844 29.270061Q554.2 28.301311 555.90314 28.301311Q557.48126 28.301311 558.40314 29.129436Q559.325 29.957561 559.325 31.348186Q559.325 33.02006 557.1844 35.348186L554.1375 38.64506L559.85626 38.64506L559.85626 39.83256ZM568.52814 34.973186Q568.52814 37.52006 567.65314 38.754436Q566.79376 39.98881 564.95 39.98881Q563.1375 39.98881 562.2625 38.785686Q561.3875 37.566936 561.35626 35.17631L561.35626 33.23881Q561.35626 30.738811 562.21564 29.520061Q563.09064 28.301311 564.9344 28.301311Q566.77814 28.301311 567.6375 29.473186Q568.5125 30.645061 568.52814 33.098186L568.52814 34.973186ZM567.09064 33.004436Q567.09064 31.160686 566.575 30.332561Q566.0594 29.488811 564.9344 29.488811Q563.825 29.488811 563.3094 30.332561Q562.8094 31.160686 562.79376 32.89506L562.79376 35.20756Q562.79376 37.05131 563.325 37.92631Q563.8719 38.80131 564.95 38.80131Q566.02814 38.80131 566.54376 37.973186Q567.0594 37.14506 567.09064 35.36381L567.09064 33.004436ZM570.27814 30.645061Q570.27814 29.613811 570.91876 28.957561Q571.575 28.285686 572.60626 28.285686Q573.6375 28.285686 574.27814 28.957561Q574.9344 29.629436 574.9344 30.691936L574.9344 31.238811Q574.9344 32.27006 574.27814 32.92631Q573.6219 33.58256 572.6219 33.58256Q571.60626 33.58256 570.9344 32.92631Q570.27814 32.27006 570.27814 31.191936L570.27814 30.645061ZM571.35626 31.238811Q571.35626 31.848186 571.7 32.254436Q572.04376 32.64506 572.6219 32.64506Q573.16876 32.64506 573.5125 32.27006Q573.85626 31.879436 573.85626 31.207561L573.85626 30.645061Q573.85626 30.035686 573.5125 29.645061Q573.1844 29.238811 572.60626 29.238811Q572.02814 29.238811 571.6844 29.645061Q571.35626 30.035686 571.35626 30.676311L571.35626 31.238811ZM575.8094 37.035686Q575.8094 36.02006 576.46564 35.36381Q577.1219 34.691936 578.1375 34.691936Q579.16876 34.691936 579.825 35.348186Q580.48126 36.004436 580.48126 37.098186L580.48126 37.64506Q580.48126 38.67631 579.825 39.348186Q579.16876 40.004436 578.15314 40.004436Q577.1375 40.004436 576.46564 39.348186Q575.8094 38.691936 575.8094 37.598186L575.8094 37.035686ZM576.8875 37.64506Q576.8875 38.27006 577.23126 38.660686Q577.575 39.05131 578.15314 39.05131Q578.71564 39.05131 579.04376 38.67631Q579.3875 38.285686 579.3875 37.61381L579.3875 37.035686Q579.3875 36.42631 579.04376 36.035686Q578.71564 35.64506 578.1375 35.64506Q577.59064 35.64506 577.23126 36.035686Q576.8875 36.410686 576.8875 37.066936L576.8875 37.64506ZM572.95 38.973186L572.1219 38.45756L577.6844 29.566936L578.4969 30.082561L572.95 38.973186Z" fill-rule="nonzero"/><path fill="#9e9e9e" d="M544.15314 61.83256L542.7 61.83256L542.7 52.191936L539.77814 53.27006L539.77814 51.95756L543.91876 50.39506L544.15314 50.39506L544.15314 61.83256ZM549.0594 56.129436L549.6375 50.45756L555.46564 50.45756L555.46564 51.785686L550.8719 51.785686L550.52814 54.89506Q551.35626 54.39506 552.41876 54.39506Q553.98126 54.39506 554.8875 55.42631Q555.8094 56.45756 555.8094 58.20756Q555.8094 59.95756 554.85626 60.973186Q553.90314 61.98881 552.2 61.98881Q550.7 61.98881 549.7469 61.160686Q548.79376 60.316936 548.65314 58.83256L550.02814 58.83256Q550.15314 59.816936 550.71564 60.316936Q551.27814 60.80131 552.2 60.80131Q553.21564 60.80131 553.77814 60.11381Q554.35626 59.42631 554.35626 58.223186Q554.35626 57.08256 553.73126 56.39506Q553.1219 55.691936 552.09064 55.691936Q551.1375 55.691936 550.60626 56.11381L550.21564 56.42631L549.0594 56.129436ZM557.575 61.066936Q557.575 60.691936 557.79376 60.441936Q558.02814 60.191936 558.46564 60.191936Q558.91876 60.191936 559.1375 60.441936Q559.3719 60.691936 559.3719 61.066936Q559.3719 61.42631 559.1375 61.67631Q558.91876 61.92631 558.46564 61.92631Q558.02814 61.92631 557.79376 61.67631Q557.575 61.42631 557.575 61.066936ZM562.0594 56.129436L562.6375 50.45756L568.46564 50.45756L568.46564 51.785686L563.8719 51.785686L563.52814 54.89506Q564.35626 54.39506 565.41876 54.39506Q566.98126 54.39506 567.8875 55.42631Q568.8094 56.45756 568.8094 58.20756Q568.8094 59.95756 567.85626 60.973186Q566.90314 61.98881 565.2 61.98881Q563.7 61.98881 562.7469 61.160686Q561.79376 60.316936 561.65314 58.83256L563.02814 58.83256Q563.15314 59.816936 563.71564 60.316936Q564.27814 60.80131 565.2 60.80131Q566.21564 60.80131 566.77814 60.11381Q567.35626 59.42631 567.35626 58.223186Q567.35626 57.08256 566.73126 56.39506Q566.1219 55.691936 565.09064 55.691936Q564.1375 55.691936 563.60626 56.11381L563.21564 56.42631L562.0594 56.129436ZM570.27814 52.64506Q570.27814 51.61381 570.91876 50.95756Q571.575 50.285686 572.60626 50.285686Q573.6375 50.285686 574.27814 50.95756Q574.9344 51.629436 574.9344 52.691936L574.9344 53.23881Q574.9344 54.27006 574.27814 54.92631Q573.6219 55.58256 572.6219 55.58256Q571.60626 55.58256 570.9344 54.92631Q570.27814 54.27006 570.27814 53.191936L570.27814 52.64506ZM571.35626 53.23881Q571.35626 53.848186 571.7 54.254436Q572.04376 54.64506 572.6219 54.64506Q573.16876 54.64506 573.5125 54.27006Q573.85626 53.879436 573.85626 53.20756L573.85626 52.64506Q573.85626 52.035686 573.5125 51.64506Q573.1844 51.23881 572.60626 51.23881Q572.02814 51.23881 571.6844 51.64506Q571.35626 52.035686 571.35626 52.67631L571.35626 53.23881ZM575.8094 59.035686Q575.8094 58.02006 576.46564 57.36381Q577.1219 56.691936 578.1375 56.691936Q579.16876 56.691936 579.825 57.348186Q580.48126 58.004436 580.48126 59.098186L580.48126 59.64506Q580.48126 60.67631 579.825 61.348186Q579.16876 62.004436 578.15314 62.004436Q577.1375 62.004436 576.46564 61.348186Q575.8094 60.691936 575.8094 59.598186L575.8094 59.035686ZM576.8875 59.64506Q576.8875 60.27006 577.23126 60.660686Q577.575 61.05131 578.15314 61.05131Q578.71564 61.05131 579.04376 60.67631Q579.3875 60.285686 579.3875 59.61381L579.3875 59.035686Q579.3875 58.42631 579.04376 58.035686Q578.71564 57.64506 578.1375 57.64506Q577.59064 57.64506 577.23126 58.035686Q576.8875 58.410686 576.8875 59.066936L576.8875 59.64506ZM572.95 60.973186L572.1219 60.45756L577.6844 51.566936L578.4969 52.08256L572.95 60.973186Z" fill-rule="nonzero"/><path stroke="#757575" stroke-width="1.0" stroke-linecap="butt" d="M581.45 45.33256L472.95 45.33256L374.21484 45.33256" fill-rule="nonzero"/><path fill="#9e9e9e" d="M376.21484 45.33256C376.21484 44.227993 375.3194 43.33256 374.21484 43.33256C373.11026 43.33256 372.21484 44.227993 372.21484 45.33256C372.21484 46.43713 373.11026 47.33256 374.21484 47.33256C375.3194 47.33256 376.21484 46.43713 376.21484 45.33256" fill-rule="nonzero"/><path fill="#757575" d="M507.2 235.42892L502.27814 235.42892L502.27814 239.46017L507.9969 239.46017L507.9969 240.69455L500.77814 240.69455L500.77814 229.31955L507.91876 229.31955L507.91876 230.55392L502.27814 230.55392L502.27814 234.21017L507.2 234.21017L507.2 235.42892ZM510.91876 232.24142L510.96564 233.30392Q511.9344 232.08517 513.4969 232.08517Q516.16876 232.08517 516.2 235.1008L516.2 240.69455L514.7469 240.69455L514.7469 235.1008Q514.7469 234.17892 514.325 233.74142Q513.91876 233.30392 513.0594 233.30392Q512.35626 233.30392 511.825 233.67892Q511.29376 234.05392 510.9969 234.6633L510.9969 240.69455L509.54376 240.69455L509.54376 232.24142L510.91876 232.24142ZM520.5125 230.19455L520.5125 232.24142L522.09064 232.24142L522.09064 233.3508L520.5125 233.3508L520.5125 238.6008Q520.5125 239.1008 520.71564 239.36642Q520.9344 239.61642 521.4344 239.61642Q521.6844 239.61642 522.1219 239.52267L522.1219 240.69455Q521.5594 240.8508 521.0125 240.8508Q520.04376 240.8508 519.54376 240.27267Q519.0594 239.67892 519.0594 238.6008L519.0594 233.3508L517.52814 233.3508L517.52814 232.24142L519.0594 232.24142L519.0594 230.19455L520.5125 230.19455ZM527.6375 233.5383Q527.3094 233.4758 526.91876 233.4758Q525.4969 233.4758 524.9969 234.69455L524.9969 240.69455L523.54376 240.69455L523.54376 232.24142L524.95 232.24142L524.98126 233.21017Q525.6844 232.08517 526.9969 232.08517Q527.41876 232.08517 527.6375 232.19455L527.6375 233.5383ZM532.0594 240.8508Q530.34064 240.8508 529.2625 239.7258Q528.1844 238.58517 528.1844 236.69455L528.1844 236.42892Q528.1844 235.17892 528.65314 234.19455Q529.1375 233.19455 529.9969 232.64767Q530.8719 232.08517 531.8719 232.08517Q533.52814 232.08517 534.4344 233.17892Q535.35626 234.25705 535.35626 236.27267L535.35626 236.88205L529.6219 236.88205Q529.65314 238.13205 530.35626 238.89767Q531.0594 239.6633 532.1375 239.6633Q532.90314 239.6633 533.4344 239.3508Q533.96564 239.0383 534.35626 238.52267L535.2469 239.21017Q534.1844 240.8508 532.0594 240.8508ZM531.8719 233.27267Q530.9969 233.27267 530.40314 233.9133Q529.8094 234.5383 529.66876 235.69455L533.90314 235.69455L533.90314 235.58517Q533.84064 234.4758 533.3094 233.88205Q532.77814 233.27267 531.8719 233.27267ZM547.85626 240.69455L540.40314 240.69455L540.40314 239.64767L544.34064 235.27267Q545.21564 234.2883 545.54376 233.6633Q545.8719 233.0383 545.8719 232.38205Q545.8719 231.49142 545.325 230.92892Q544.79376 230.3508 543.90314 230.3508Q542.825 230.3508 542.21564 230.96017Q541.6219 231.56955 541.6219 232.6633L540.1844 232.6633Q540.1844 231.1008 541.1844 230.13205Q542.2 229.1633 543.90314 229.1633Q545.48126 229.1633 546.40314 229.99142Q547.325 230.81955 547.325 232.21017Q547.325 233.88205 545.1844 236.21017L542.1375 239.50705L547.85626 239.50705L547.85626 240.69455ZM554.15314 240.69455L552.7 240.69455L552.7 231.05392L549.77814 232.13205L549.77814 230.81955L553.91876 229.25705L554.15314 229.25705L554.15314 240.69455ZM558.27814 231.50705Q558.27814 230.4758 558.91876 229.81955Q559.575 229.14767 560.60626 229.14767Q561.6375 229.14767 562.27814 229.81955Q562.9344 230.49142 562.9344 231.55392L562.9344 232.1008Q562.9344 233.13205 562.27814 233.7883Q561.6219 234.44455 560.6219 234.44455Q559.60626 234.44455 558.9344 233.7883Q558.27814 233.13205 558.27814 232.05392L558.27814 231.50705ZM559.35626 232.1008Q559.35626 232.71017 559.7 233.11642Q560.04376 233.50705 560.6219 233.50705Q561.16876 233.50705 561.5125 233.13205Q561.85626 232.74142 561.85626 232.06955L561.85626 231.50705Q561.85626 230.89767 561.5125 230.50705Q561.1844 230.1008 560.60626 230.1008Q560.02814 230.1008 559.6844 230.50705Q559.35626 230.89767 559.35626 231.5383L559.35626 232.1008ZM563.8094 237.89767Q563.8094 236.88205 564.46564 236.2258Q565.1219 235.55392 566.1375 235.55392Q567.16876 235.55392 567.825 236.21017Q568.48126 236.86642 568.48126 237.96017L568.48126 238.50705Q568.48126 239.5383 567.825 240.21017Q567.16876 240.86642 566.15314 240.86642Q565.1375 240.86642 564.46564 240.21017Q563.8094 239.55392 563.8094 238.46017L563.8094 237.89767ZM564.8875 238.50705Q564.8875 239.13205 565.23126 239.52267Q565.575 239.9133 566.15314 239.9133Q566.71564 239.9133 567.04376 239.5383Q567.3875 239.14767 567.3875 238.4758L567.3875 237.89767Q567.3875 237.2883 567.04376 236.89767Q566.71564 236.50705 566.1375 236.50705Q565.59064 236.50705 565.23126 236.89767Q564.8875 237.27267 564.8875 237.92892L564.8875 238.50705ZM560.95 239.83517L560.1219 239.31955L565.6844 230.42892L566.4969 230.94455L560.95 239.83517ZM578.0594 240.8508Q576.34064 240.8508 575.2625 239.7258Q574.1844 238.58517 574.1844 236.69455L574.1844 236.42892Q574.1844 235.17892 574.65314 234.19455Q575.1375 233.19455 575.9969 232.64767Q576.8719 232.08517 577.8719 232.08517Q579.52814 232.08517 580.4344 233.17892Q581.35626 234.25705 581.35626 236.27267L581.35626 236.88205L575.6219 236.88205Q575.65314 238.13205 576.35626 238.89767Q577.0594 239.6633 578.1375 239.6633Q578.90314 239.6633 579.4344 239.3508Q579.96564 239.0383 580.35626 238.52267L581.2469 239.21017Q580.1844 240.8508 578.0594 240.8508ZM577.8719 233.27267Q576.9969 233.27267 576.40314 233.9133Q575.8094 234.5383 575.66876 235.69455L579.90314 235.69455L579.90314 235.58517Q579.84064 234.4758 579.3094 233.88205Q578.77814 233.27267 577.8719 233.27267Z" fill-rule="nonzero"/><path fill="#9e9e9e" d="M541.4969 256.30392L542.59064 256.30392Q543.60626 256.2883 544.1844 255.77267Q544.77814 255.24142 544.77814 254.3508Q544.77814 252.3508 542.79376 252.3508Q541.85626 252.3508 541.29376 252.88205Q540.73126 253.4133 540.73126 254.30392L539.29376 254.30392Q539.29376 252.94455 540.27814 252.05392Q541.2625 251.1633 542.79376 251.1633Q544.40314 251.1633 545.3094 252.02267Q546.23126 252.86642 546.23126 254.38205Q546.23126 255.11642 545.7469 255.81955Q545.2625 256.50705 544.4344 256.8508Q545.3719 257.14767 545.8875 257.83517Q546.40314 258.52267 546.40314 259.52267Q546.40314 261.05392 545.40314 261.96017Q544.40314 262.8508 542.79376 262.8508Q541.2 262.8508 540.1844 261.99142Q539.1844 261.11642 539.1844 259.69455L540.6375 259.69455Q540.6375 260.58517 541.21564 261.13205Q541.8094 261.6633 542.79376 261.6633Q543.84064 261.6633 544.3875 261.11642Q544.95 260.56955 544.95 259.55392Q544.95 258.55392 544.34064 258.02267Q543.73126 257.49142 542.59064 257.4758L541.4969 257.4758L541.4969 256.30392ZM553.15314 262.69455L551.7 262.69455L551.7 253.05392L548.77814 254.13205L548.77814 252.81955L552.91876 251.25705L553.15314 251.25705L553.15314 262.69455ZM557.575 261.92892Q557.575 261.55392 557.79376 261.30392Q558.02814 261.05392 558.46564 261.05392Q558.91876 261.05392 559.1375 261.30392Q559.3719 261.55392 559.3719 261.92892Q559.3719 262.2883 559.1375 262.5383Q558.91876 262.7883 558.46564 262.7883Q558.02814 262.7883 557.79376 262.5383Q557.575 262.2883 557.575 261.92892ZM562.0594 256.99142L562.6375 251.31955L568.46564 251.31955L568.46564 252.64767L563.8719 252.64767L563.52814 255.75705Q564.35626 255.25705 565.41876 255.25705Q566.98126 255.25705 567.8875 256.2883Q568.8094 257.31955 568.8094 259.06955Q568.8094 260.81955 567.85626 261.83517Q566.90314 262.8508 565.2 262.8508Q563.7 262.8508 562.7469 262.02267Q561.79376 261.17892 561.65314 259.69455L563.02814 259.69455Q563.15314 260.67892 563.71564 261.17892Q564.27814 261.6633 565.2 261.6633Q566.21564 261.6633 566.77814 260.9758Q567.35626 260.2883 567.35626 259.08517Q567.35626 257.94455 566.73126 257.25705Q566.1219 256.55392 565.09064 256.55392Q564.1375 256.55392 563.60626 256.9758L563.21564 257.2883L562.0594 256.99142ZM570.27814 253.50705Q570.27814 252.4758 570.91876 251.81955Q571.575 251.14767 572.60626 251.14767Q573.6375 251.14767 574.27814 251.81955Q574.9344 252.49142 574.9344 253.55392L574.9344 254.1008Q574.9344 255.13205 574.27814 255.7883Q573.6219 256.44455 572.6219 256.44455Q571.60626 256.44455 570.9344 255.7883Q570.27814 255.13205 570.27814 254.05392L570.27814 253.50705ZM571.35626 254.1008Q571.35626 254.71017 571.7 255.11642Q572.04376 255.50705 572.6219 255.50705Q573.16876 255.50705 573.5125 255.13205Q573.85626 254.74142 573.85626 254.06955L573.85626 253.50705Q573.85626 252.89767 573.5125 252.50705Q573.1844 252.1008 572.60626 252.1008Q572.02814 252.1008 571.6844 252.50705Q571.35626 252.89767 571.35626 253.5383L571.35626 254.1008ZM575.8094 259.89767Q575.8094 258.88205 576.46564 258.2258Q577.1219 257.55392 578.1375 257.55392Q579.16876 257.55392 579.825 258.21017Q580.48126 258.86642 580.48126 259.96017L580.48126 260.50705Q580.48126 261.5383 579.825 262.21017Q579.16876 262.86642 578.15314 262.86642Q577.1375 262.86642 576.46564 262.21017Q575.8094 261.55392 575.8094 260.46017L575.8094 259.89767ZM576.8875 260.50705Q576.8875 261.13205 577.23126 261.52267Q577.575 261.9133 578.15314 261.9133Q578.71564 261.9133 579.04376 261.5383Q579.3875 261.14767 579.3875 260.4758L579.3875 259.89767Q579.3875 259.2883 579.04376 258.89767Q578.71564 258.50705 578.1375 258.50705Q577.59064 258.50705 577.23126 258.89767Q576.8875 259.27267 576.8875 259.92892L576.8875 260.50705ZM572.95 261.83517L572.1219 261.31955L577.6844 252.42892L578.4969 252.94455L572.95 261.83517Z" fill-rule="nonzero"/><path stroke="#757575" stroke-width="1.0" stroke-linecap="butt" d="M581.45 246.19455L472.95 246.19455L446.5296 246.19455" fill-rule="nonzero"/><path fill="#9e9e9e" d="M448.5296 246.19455C448.5296 245.08998 447.6342 244.19455 446.5296 244.19455C445.42505 244.19455 444.5296 245.08998 444.5296 246.19455C444.5296 247.29912 445.42505 248.19455 446.5296 248.19455C447.6342 248.19455 448.5296 247.29912 448.5296 246.19455" fill-rule="nonzero"/></svg>