<svg version="1.1" viewBox="0.0 0.0 600.0 371.0" fill="none" stroke="none" stroke-linecap="square" stroke-miterlimit="10" width="600" height="371" xmlns:xlink="http://www.w3.org/1999/xlink" xmlns="http://www.w3.org/2000/svg"><path fill="#ffffff" d="M0 0L600.0 0L600.0 371.0L0 371.0L0 0Z" fill-rule="nonzero"/><path fill="#4285f4" d="M300.0 18.55C349.38998 18.55 396.24515 40.418835 427.966 78.27592L300.0 185.5Z" fill-rule="nonzero"/><path fill="#db4437" d="M427.966 78.27592C470.23288 128.7191 478.92245 199.28629 450.1557 258.47647L300.0 185.5Z" fill-rule="nonzero"/><path fill="#0f9d58" d="M183.44128 65.9744C214.62129 35.56835 256.44864 18.55 300.0 18.55L300.0 185.5Z" fill-rule="nonzero"/><path fill="#f4b400" d="M450.1557 258.47647C421.05624 318.35126 359.16666 355.21558 292.65952 352.28854C226.15239 349.3615 167.74066 307.20267 144.01378 245.00296C120.2869 182.80327 135.7803 112.45233 183.44128 65.9744L300.0 185.5Z" fill-rule="nonzero"/><path fill="#757575" d="M24.253124 31.857563L20.675 31.857563L19.878124 34.091938L18.721874 34.091938L21.971874 25.560688L22.95625 25.560688L26.221874 34.091938L25.065624 34.091938L24.253124 31.857563ZM21.01875 30.935688L23.925 30.935688L22.471874 26.951313L21.01875 30.935688ZM29.909374 33.326313Q30.4875 33.326313 30.925 32.982563Q31.3625 32.623188 31.409374 32.091938L32.440624 32.091938Q32.409374 32.638813 32.05 33.138813Q31.70625 33.623188 31.128124 33.920063Q30.565624 34.216938 29.909374 34.216938Q28.6125 34.216938 27.846874 33.357563Q27.096874 32.482563 27.096874 30.982563L27.096874 30.795063Q27.096874 29.873188 27.425 29.154438Q27.76875 28.435688 28.39375 28.045063Q29.034374 27.638813 29.909374 27.638813Q30.971874 27.638813 31.675 28.279438Q32.39375 28.904438 32.440624 29.935688L31.409374 29.935688Q31.3625 29.310688 30.940624 28.920063Q30.51875 28.529438 29.909374 28.529438Q29.08125 28.529438 28.628124 29.123188Q28.175 29.716938 28.175 30.841938L28.175 31.045063Q28.175 32.138813 28.628124 32.732563Q29.08125 33.326313 29.909374 33.326313ZM34.55 34.091938L33.471874 34.091938L33.471874 27.748188L34.55 27.748188L34.55 34.091938ZM33.378124 26.076313Q33.378124 25.810688 33.534374 25.623188Q33.70625 25.435688 34.01875 25.435688Q34.33125 25.435688 34.4875 25.623188Q34.659374 25.810688 34.659374 26.076313Q34.659374 26.326313 34.4875 26.513813Q34.33125 26.685688 34.01875 26.685688Q33.70625 26.685688 33.534374 26.513813Q33.378124 26.326313 33.378124 26.076313ZM37.39375 27.748188L37.425 28.451313Q38.1125 27.638813 39.3 27.638813Q40.628124 27.638813 41.1125 28.654438Q41.425 28.201313 41.925 27.920063Q42.440624 27.638813 43.128124 27.638813Q45.221874 27.638813 45.253124 29.841938L45.253124 34.091938L44.175 34.091938L44.175 29.904438Q44.175 29.232563 43.8625 28.904438Q43.55 28.560688 42.815624 28.560688Q42.20625 28.560688 41.8 28.920063Q41.409374 29.279438 41.346874 29.888813L41.346874 34.091938L40.26875 34.091938L40.26875 29.935688Q40.26875 28.560688 38.909374 28.560688Q37.846874 28.560688 37.45625 29.466938L37.45625 34.091938L36.3625 34.091938L36.3625 27.748188L37.39375 27.748188ZM51.284374 34.091938Q51.190624 33.904438 51.128124 33.420063Q50.378124 34.216938 49.33125 34.216938Q48.39375 34.216938 47.784374 33.685688Q47.190624 33.154438 47.190624 32.326313Q47.190624 31.341938 47.940624 30.795063Q48.690624 30.248188 50.065624 30.248188L51.1125 30.248188L51.1125 29.748188Q51.1125 29.185688 50.76875 28.857563Q50.440624 28.513813 49.76875 28.513813Q49.190624 28.513813 48.8 28.810688Q48.409374 29.091938 48.409374 29.513813L47.315624 29.513813Q47.315624 29.029438 47.64375 28.591938Q47.9875 28.154438 48.565624 27.904438Q49.14375 27.638813 49.83125 27.638813Q50.940624 27.638813 51.55 28.185688Q52.175 28.732563 52.20625 29.685688L52.20625 32.607563Q52.20625 33.482563 52.425 33.998188L52.425 34.091938L51.284374 34.091938ZM49.4875 33.263813Q50.003124 33.263813 50.45625 32.998188Q50.909374 32.732563 51.1125 32.310688L51.1125 31.013813L50.26875 31.013813Q48.26875 31.013813 48.26875 32.185688Q48.26875 32.685688 48.6125 32.982563Q48.95625 33.263813 49.4875 33.263813ZM57.1125 30.873188Q57.1125 29.404438 57.8 28.529438Q58.4875 27.638813 59.6125 27.638813Q60.721874 27.638813 61.378124 28.388813L61.378124 25.091938L62.45625 25.091938L62.45625 34.091938L61.45625 34.091938L61.409374 33.404438Q60.753124 34.216938 59.596874 34.216938Q58.503124 34.216938 57.8 33.310688Q57.1125 32.404438 57.1125 30.951313L57.1125 30.873188ZM58.190624 30.998188Q58.190624 32.076313 58.628124 32.685688Q59.08125 33.295063 59.8625 33.295063Q60.89375 33.295063 61.378124 32.357563L61.378124 29.451313Q60.89375 28.560688 59.878124 28.560688Q59.08125 28.560688 58.628124 29.170063Q58.190624 29.779438 58.190624 30.998188ZM67.00313 34.216938Q65.70625 34.216938 64.89375 33.373188Q64.09688 32.513813 64.09688 31.091938L64.09688 30.904438Q64.09688 29.951313 64.45625 29.216938Q64.81563 28.466938 65.45625 28.060688Q66.1125 27.638813 66.8625 27.638813Q68.09688 27.638813 68.78438 28.451313Q69.47188 29.263813 69.47188 30.779438L69.47188 31.232563L65.175 31.232563Q65.20625 32.170063 65.72188 32.748188Q66.25313 33.326313 67.06563 33.326313Q67.62813 33.326313 68.01875 33.091938Q68.425 32.857563 68.7375 32.466938L69.39375 32.982563Q68.59688 34.216938 67.00313 34.216938ZM66.8625 28.529438Q66.20625 28.529438 65.75313 29.013813Q65.31563 29.482563 65.22188 30.341938L68.39375 30.341938L68.39375 30.263813Q68.34688 29.435688 67.94063 28.982563Q67.55 28.529438 66.8625 28.529438ZM78.84688 34.091938L73.25313 34.091938L73.25313 33.310688L76.20625 30.029438Q76.8625 29.279438 77.1125 28.826313Q77.3625 28.357563 77.3625 27.857563Q77.3625 27.185688 76.95625 26.763813Q76.56563 26.326313 75.87813 26.326313Q75.08125 26.326313 74.62813 26.795063Q74.175 27.248188 74.175 28.076313L73.09688 28.076313Q73.09688 26.888813 73.84688 26.170063Q74.6125 25.435688 75.87813 25.435688Q77.08125 25.435688 77.76875 26.060688Q78.45625 26.685688 78.45625 27.732563Q78.45625 28.982563 76.84688 30.732563L74.56563 33.201313L78.84688 33.201313L78.84688 34.091938ZM85.6125 30.451313Q85.6125 32.357563 84.95625 33.295063Q84.31563 34.216938 82.925 34.216938Q81.56563 34.216938 80.90938 33.310688Q80.25313 32.404438 80.22188 30.591938L80.22188 29.154438Q80.22188 27.263813 80.8625 26.357563Q81.51875 25.435688 82.90938 25.435688Q84.28438 25.435688 84.94063 26.326313Q85.59688 27.201313 85.6125 29.045063L85.6125 30.451313ZM84.51875 28.966938Q84.51875 27.591938 84.12813 26.966938Q83.75313 26.326313 82.90938 26.326313Q82.08125 26.326313 81.69063 26.966938Q81.31563 27.591938 81.31563 28.888813L81.31563 30.623188Q81.31563 31.998188 81.70625 32.670063Q82.1125 33.326313 82.925 33.326313Q83.72188 33.326313 84.1125 32.701313Q84.50313 32.076313 84.51875 30.748188L84.51875 28.966938ZM92.6125 30.451313Q92.6125 32.357563 91.95625 33.295063Q91.31563 34.216938 89.925 34.216938Q88.56563 34.216938 87.90938 33.310688Q87.25313 32.404438 87.22188 30.591938L87.22188 29.154438Q87.22188 27.263813 87.8625 26.357563Q88.51875 25.435688 89.90938 25.435688Q91.28438 25.435688 91.94063 26.326313Q92.59688 27.201313 92.6125 29.045063L92.6125 30.451313ZM91.51875 28.966938Q91.51875 27.591938 91.12813 26.966938Q90.75313 26.326313 89.90938 26.326313Q89.08125 26.326313 88.69063 26.966938Q88.31563 27.591938 88.31563 28.888813L88.31563 30.623188Q88.31563 31.998188 88.70625 32.670063Q89.1125 33.326313 89.925 33.326313Q90.72188 33.326313 91.1125 32.701313Q91.50313 32.076313 91.51875 30.748188L91.51875 28.966938ZM94.15938 27.201313Q94.15938 26.435688 94.64375 25.935688Q95.14375 25.435688 95.90938 25.435688Q96.69063 25.435688 97.175 25.935688Q97.65938 26.435688 97.65938 27.232563L97.65938 27.654438Q97.65938 28.420063 97.15938 28.920063Q96.675 29.404438 95.925 29.404438Q95.15938 29.404438 94.65938 28.920063Q94.15938 28.420063 94.15938 27.607563L94.15938 27.201313ZM94.97188 27.654438Q94.97188 28.107563 95.22188 28.404438Q95.4875 28.701313 95.925 28.701313Q96.34688 28.701313 96.59688 28.420063Q96.84688 28.123188 96.84688 27.623188L96.84688 27.201313Q96.84688 26.748188 96.59688 26.451313Q96.34688 26.138813 95.90938 26.138813Q95.47188 26.138813 95.22188 26.451313Q94.97188 26.748188 94.97188 27.216938L94.97188 27.654438ZM98.31563 31.998188Q98.31563 31.232563 98.8 30.748188Q99.3 30.248188 100.06563 30.248188Q100.83125 30.248188 101.31563 30.748188Q101.81563 31.232563 101.81563 32.045063L101.81563 32.451313Q101.81563 33.216938 101.33125 33.716938Q100.84688 34.216938 100.08125 34.216938Q99.31563 34.216938 98.81563 33.732563Q98.31563 33.232563 98.31563 32.420063L98.31563 31.998188ZM99.12813 32.451313Q99.12813 32.920063 99.37813 33.216938Q99.64375 33.513813 100.08125 33.513813Q100.50313 33.513813 100.75313 33.232563Q101.00313 32.935688 101.00313 32.435688L101.00313 31.998188Q101.00313 31.529438 100.7375 31.248188Q100.4875 30.951313 100.06563 30.951313Q99.64375 30.951313 99.37813 31.248188Q99.12813 31.529438 99.12813 32.029438L99.12813 32.451313ZM96.175 33.451313L95.55 33.060688L99.72188 26.388813L100.33125 26.779438L96.175 33.451313Z" fill-rule="nonzero"/><path fill="#9e9e9e" d="M22.815624 52.091938L21.7375 52.091938L21.7375 44.873188L19.55 45.670063L19.55 44.685688L22.659374 43.513813L22.815624 43.513813L22.815624 52.091938ZM31.846874 52.091938L26.253124 52.091938L26.253124 51.310688L29.20625 48.029438Q29.8625 47.279438 30.1125 46.826313Q30.3625 46.357563 30.3625 45.857563Q30.3625 45.185688 29.95625 44.763813Q29.565624 44.326313 28.878124 44.326313Q28.08125 44.326313 27.628124 44.795063Q27.175 45.248188 27.175 46.076313L26.096874 46.076313Q26.096874 44.888813 26.846874 44.170063Q27.6125 43.435688 28.878124 43.435688Q30.08125 43.435688 30.76875 44.060688Q31.45625 44.685688 31.45625 45.732563Q31.45625 46.982563 29.846874 48.732563L27.565624 51.201313L31.846874 51.201313L31.846874 52.091938ZM33.39375 51.529438Q33.39375 51.248188 33.55 51.060688Q33.721874 50.873188 34.05 50.873188Q34.39375 50.873188 34.565624 51.060688Q34.7375 51.248188 34.7375 51.529438Q34.7375 51.795063 34.565624 51.982563Q34.39375 52.154438 34.05 52.154438Q33.721874 52.154438 33.55 51.982563Q33.39375 51.795063 33.39375 51.529438ZM37.83125 47.295063L38.64375 47.295063Q39.425 47.279438 39.8625 46.888813Q40.3 46.498188 40.3 45.826313Q40.3 44.326313 38.8 44.326313Q38.096874 44.326313 37.675 44.732563Q37.26875 45.138813 37.26875 45.795063L36.175 45.795063Q36.175 44.779438 36.909374 44.107563Q37.659374 43.435688 38.8 43.435688Q40.003124 43.435688 40.690624 44.076313Q41.378124 44.716938 41.378124 45.857563Q41.378124 46.420063 41.01875 46.935688Q40.659374 47.451313 40.034374 47.716938Q40.7375 47.935688 41.1125 48.451313Q41.503124 48.966938 41.503124 49.716938Q41.503124 50.857563 40.753124 51.545063Q40.003124 52.216938 38.8 52.216938Q37.6125 52.216938 36.846874 51.560688Q36.096874 50.904438 36.096874 49.841938L37.190624 49.841938Q37.190624 50.513813 37.628124 50.920063Q38.065624 51.326313 38.815624 51.326313Q39.596874 51.326313 40.003124 50.920063Q40.425 50.498188 40.425 49.732563Q40.425 48.998188 39.971874 48.607563Q39.51875 48.201313 38.64375 48.185688L37.83125 48.185688L37.83125 47.295063ZM43.159374 45.201313Q43.159374 44.435688 43.64375 43.935688Q44.14375 43.435688 44.909374 43.435688Q45.690624 43.435688 46.175 43.935688Q46.659374 44.435688 46.659374 45.232563L46.659374 45.654438Q46.659374 46.420063 46.159374 46.920063Q45.675 47.404438 44.925 47.404438Q44.159374 47.404438 43.659374 46.920063Q43.159374 46.420063 43.159374 45.607563L43.159374 45.201313ZM43.971874 45.654438Q43.971874 46.107563 44.221874 46.404438Q44.4875 46.701313 44.925 46.701313Q45.346874 46.701313 45.596874 46.420063Q45.846874 46.123188 45.846874 45.623188L45.846874 45.201313Q45.846874 44.748188 45.596874 44.451313Q45.346874 44.138813 44.909374 44.138813Q44.471874 44.138813 44.221874 44.451313Q43.971874 44.748188 43.971874 45.216938L43.971874 45.654438ZM47.315624 49.998188Q47.315624 49.232563 47.8 48.748188Q48.3 48.248188 49.065624 48.248188Q49.83125 48.248188 50.315624 48.748188Q50.815624 49.232563 50.815624 50.045063L50.815624 50.451313Q50.815624 51.216938 50.33125 51.716938Q49.846874 52.216938 49.08125 52.216938Q48.315624 52.216938 47.815624 51.732563Q47.315624 51.232563 47.315624 50.420063L47.315624 49.998188ZM48.128124 50.451313Q48.128124 50.920063 48.378124 51.216938Q48.64375 51.513813 49.08125 51.513813Q49.503124 51.513813 49.753124 51.232563Q50.003124 50.935688 50.003124 50.435688L50.003124 49.998188Q50.003124 49.529438 49.7375 49.248188Q49.4875 48.951313 49.065624 48.951313Q48.64375 48.951313 48.378124 49.248188Q48.128124 49.529438 48.128124 50.029438L48.128124 50.451313ZM45.175 51.451313L44.55 51.060688L48.721874 44.388813L49.33125 44.779438L45.175 51.451313Z" fill-rule="nonzero"/><path stroke="#757575" stroke-width="1.0" stroke-linecap="butt" d="M18.55 38.591938L127.05 38.591938L240.22731 38.591938" fill-rule="nonzero"/><path fill="#9e9e9e" d="M242.22731 38.591938C242.22731 37.487366 241.33188 36.591938 240.22731 36.591938C239.12274 36.591938 238.22731 37.487366 238.22731 38.591938C238.22731 39.696507 239.12274 40.591938 240.22731 40.591938C241.33188 40.591938 242.22731 39.696507 242.22731 38.591938" fill-rule="nonzero"/><path fill="#757575" d="M24.3625 305.66687L20.659374 305.66687L20.659374 308.6825L24.95625 308.6825L24.95625 309.60437L19.534374 309.60437L19.534374 301.07312L24.909374 301.07312L24.909374 301.995L20.659374 301.995L20.659374 304.745L24.3625 304.745L24.3625 305.66687ZM27.39375 303.26062L27.425 304.0575Q28.159374 303.15125 29.33125 303.15125Q31.346874 303.15125 31.3625 305.41687L31.3625 309.60437L30.26875 309.60437L30.26875 305.40125Q30.26875 304.72937 29.95625 304.40125Q29.659374 304.07312 29.003124 304.07312Q28.471874 304.07312 28.065624 304.35437Q27.675 304.63562 27.45625 305.08875L27.45625 309.60437L26.378124 309.60437L26.378124 303.26062L27.39375 303.26062ZM34.846874 301.72937L34.846874 303.26062L36.01875 303.26062L36.01875 304.10437L34.846874 304.10437L34.846874 308.02625Q34.846874 308.41687 35.003124 308.60437Q35.159374 308.79187 35.534374 308.79187Q35.721874 308.79187 36.05 308.72937L36.05 309.60437Q35.628124 309.72937 35.221874 309.72937Q34.503124 309.72937 34.128124 309.29187Q33.753124 308.83875 33.753124 308.02625L33.753124 304.10437L32.596874 304.10437L32.596874 303.26062L33.753124 303.26062L33.753124 301.72937L34.846874 301.72937ZM40.440624 304.22937Q40.190624 304.19812 39.909374 304.19812Q38.83125 304.19812 38.45625 305.10437L38.45625 309.60437L37.378124 309.60437L37.378124 303.26062L38.425 303.26062L38.440624 303.995Q38.971874 303.15125 39.95625 303.15125Q40.26875 303.15125 40.440624 303.22937L40.440624 304.22937ZM44.003124 309.72937Q42.70625 309.72937 41.89375 308.88562Q41.096874 308.02625 41.096874 306.60437L41.096874 306.41687Q41.096874 305.46375 41.45625 304.72937Q41.815624 303.97937 42.45625 303.57312Q43.1125 303.15125 43.8625 303.15125Q45.096874 303.15125 45.784374 303.96375Q46.471874 304.77625 46.471874 306.29187L46.471874 306.745L42.175 306.745Q42.20625 307.6825 42.721874 308.26062Q43.253124 308.83875 44.065624 308.83875Q44.628124 308.83875 45.01875 308.60437Q45.425 308.37 45.7375 307.97937L46.39375 308.495Q45.596874 309.72937 44.003124 309.72937ZM43.8625 304.04187Q43.20625 304.04187 42.753124 304.52625Q42.315624 304.995 42.221874 305.85437L45.39375 305.85437L45.39375 305.77625Q45.346874 304.94812 44.940624 304.495Q44.55 304.04187 43.8625 304.04187ZM50.753124 305.32312L51.190624 301.07312L55.565624 301.07312L55.565624 302.07312L52.1125 302.07312L51.846874 304.40125Q52.4875 304.02625 53.284374 304.02625Q54.440624 304.02625 55.128124 304.8075Q55.815624 305.57312 55.815624 306.88562Q55.815624 308.19812 55.096874 308.96375Q54.39375 309.72937 53.1125 309.72937Q51.9875 309.72937 51.26875 309.10437Q50.55 308.46375 50.45625 307.35437L51.471874 307.35437Q51.58125 308.08875 52.003124 308.46375Q52.425 308.83875 53.1125 308.83875Q53.8625 308.83875 54.3 308.32312Q54.7375 307.8075 54.7375 306.90125Q54.7375 306.04187 54.26875 305.52625Q53.8 305.01062 53.01875 305.01062Q52.315624 305.01062 51.909374 305.3075L51.628124 305.54187L50.753124 305.32312ZM60.815624 309.60437L59.7375 309.60437L59.7375 302.38562L57.55 303.1825L57.55 302.19812L60.659374 301.02625L60.815624 301.02625L60.815624 309.60437ZM64.15938 302.71375Q64.15938 301.94812 64.64375 301.44812Q65.14375 300.94812 65.90938 300.94812Q66.69063 300.94812 67.175 301.44812Q67.65938 301.94812 67.65938 302.745L67.65938 303.16687Q67.65938 303.9325 67.15938 304.4325Q66.675 304.91687 65.925 304.91687Q65.15938 304.91687 64.65938 304.4325Q64.15938 303.9325 64.15938 303.12L64.15938 302.71375ZM64.97188 303.16687Q64.97188 303.62 65.22188 303.91687Q65.4875 304.21375 65.925 304.21375Q66.34688 304.21375 66.59688 303.9325Q66.84688 303.63562 66.84688 303.13562L66.84688 302.71375Q66.84688 302.26062 66.59688 301.96375Q66.34688 301.65125 65.90938 301.65125Q65.47188 301.65125 65.22188 301.96375Q64.97188 302.26062 64.97188 302.72937L64.97188 303.16687ZM68.31563 307.51062Q68.31563 306.745 68.8 306.26062Q69.3 305.76062 70.06563 305.76062Q70.83125 305.76062 71.31563 306.26062Q71.81563 306.745 71.81563 307.5575L71.81563 307.96375Q71.81563 308.72937 71.33125 309.22937Q70.84688 309.72937 70.08125 309.72937Q69.31563 309.72937 68.81563 309.245Q68.31563 308.745 68.31563 307.9325L68.31563 307.51062ZM69.12813 307.96375Q69.12813 308.4325 69.37813 308.72937Q69.64375 309.02625 70.08125 309.02625Q70.50313 309.02625 70.75313 308.745Q71.00313 308.44812 71.00313 307.94812L71.00313 307.51062Q71.00313 307.04187 70.7375 306.76062Q70.4875 306.46375 70.06563 306.46375Q69.64375 306.46375 69.37813 306.76062Q69.12813 307.04187 69.12813 307.54187L69.12813 307.96375ZM66.175 308.96375L65.55 308.57312L69.72188 301.90125L70.33125 302.29187L66.175 308.96375ZM79.00313 309.72937Q77.70625 309.72937 76.89375 308.88562Q76.09688 308.02625 76.09688 306.60437L76.09688 306.41687Q76.09688 305.46375 76.45625 304.72937Q76.81563 303.97937 77.45625 303.57312Q78.1125 303.15125 78.8625 303.15125Q80.09688 303.15125 80.78438 303.96375Q81.47188 304.77625 81.47188 306.29187L81.47188 306.745L77.175 306.745Q77.20625 307.6825 77.72188 308.26062Q78.25313 308.83875 79.06563 308.83875Q79.62813 308.83875 80.01875 308.60437Q80.425 308.37 80.7375 307.97937L81.39375 308.495Q80.59688 309.72937 79.00313 309.72937ZM78.8625 304.04187Q78.20625 304.04187 77.75313 304.52625Q77.31563 304.995 77.22188 305.85437L80.39375 305.85437L80.39375 305.77625Q80.34688 304.94812 79.94063 304.495Q79.55 304.04187 78.8625 304.04187ZM90.84688 309.60437L85.25313 309.60437L85.25313 308.82312L88.20625 305.54187Q88.8625 304.79187 89.1125 304.33875Q89.3625 303.87 89.3625 303.37Q89.3625 302.69812 88.95625 302.27625Q88.56563 301.83875 87.87813 301.83875Q87.08125 301.83875 86.62813 302.3075Q86.175 302.76062 86.175 303.58875L85.09688 303.58875Q85.09688 302.40125 85.84688 301.6825Q86.6125 300.94812 87.87813 300.94812Q89.08125 300.94812 89.76875 301.57312Q90.45625 302.19812 90.45625 303.245Q90.45625 304.495 88.84688 306.245L86.56563 308.71375L90.84688 308.71375L90.84688 309.60437ZM97.6125 305.96375Q97.6125 307.87 96.95625 308.8075Q96.31563 309.72937 94.925 309.72937Q93.56563 309.72937 92.90938 308.82312Q92.25313 307.91687 92.22188 306.10437L92.22188 304.66687Q92.22188 302.77625 92.8625 301.87Q93.51875 300.94812 94.90938 300.94812Q96.28438 300.94812 96.94063 301.83875Q97.59688 302.71375 97.6125 304.5575L97.6125 305.96375ZM96.51875 304.47937Q96.51875 303.10437 96.12813 302.47937Q95.75313 301.83875 94.90938 301.83875Q94.08125 301.83875 93.69063 302.47937Q93.31563 303.10437 93.31563 304.40125L93.31563 306.13562Q93.31563 307.51062 93.70625 308.1825Q94.1125 308.83875 94.925 308.83875Q95.72188 308.83875 96.1125 308.21375Q96.50313 307.58875 96.51875 306.26062L96.51875 304.47937ZM104.6125 305.96375Q104.6125 307.87 103.95625 308.8075Q103.31563 309.72937 101.925 309.72937Q100.56563 309.72937 99.90938 308.82312Q99.25313 307.91687 99.22188 306.10437L99.22188 304.66687Q99.22188 302.77625 99.8625 301.87Q100.51875 300.94812 101.90938 300.94812Q103.28438 300.94812 103.94063 301.83875Q104.59688 302.71375 104.6125 304.5575L104.6125 305.96375ZM103.51875 304.47937Q103.51875 303.10437 103.12813 302.47937Q102.75313 301.83875 101.90938 301.83875Q101.08125 301.83875 100.69063 302.47937Q100.31563 303.10437 100.31563 304.40125L100.31563 306.13562Q100.31563 307.51062 100.70625 308.1825Q101.1125 308.83875 101.925 308.83875Q102.72188 308.83875 103.1125 308.21375Q103.50313 307.58875 103.51875 306.26062L103.51875 304.47937ZM106.15938 302.71375Q106.15938 301.94812 106.64375 301.44812Q107.14375 300.94812 107.90938 300.94812Q108.69063 300.94812 109.175 301.44812Q109.65938 301.94812 109.65938 302.745L109.65938 303.16687Q109.65938 303.9325 109.15938 304.4325Q108.675 304.91687 107.925 304.91687Q107.15938 304.91687 106.65938 304.4325Q106.15938 303.9325 106.15938 303.12L106.15938 302.71375ZM106.97188 303.16687Q106.97188 303.62 107.22188 303.91687Q107.4875 304.21375 107.925 304.21375Q108.34688 304.21375 108.59688 303.9325Q108.84688 303.63562 108.84688 303.13562L108.84688 302.71375Q108.84688 302.26062 108.59688 301.96375Q108.34688 301.65125 107.90938 301.65125Q107.47188 301.65125 107.22188 301.96375Q106.97188 302.26062 106.97188 302.72937L106.97188 303.16687ZM110.31563 307.51062Q110.31563 306.745 110.8 306.26062Q111.3 305.76062 112.06563 305.76062Q112.83125 305.76062 113.31563 306.26062Q113.81563 306.745 113.81563 307.5575L113.81563 307.96375Q113.81563 308.72937 113.33125 309.22937Q112.84688 309.72937 112.08125 309.72937Q111.31563 309.72937 110.81563 309.245Q110.31563 308.745 110.31563 307.9325L110.31563 307.51062ZM111.12813 307.96375Q111.12813 308.4325 111.37813 308.72937Q111.64375 309.02625 112.08125 309.02625Q112.50313 309.02625 112.75313 308.745Q113.00313 308.44812 113.00313 307.94812L113.00313 307.51062Q113.00313 307.04187 112.7375 306.76062Q112.4875 306.46375 112.06563 306.46375Q111.64375 306.46375 111.37813 306.76062Q111.12813 307.04187 111.12813 307.54187L111.12813 307.96375ZM108.175 308.96375L107.55 308.57312L111.72188 301.90125L112.33125 302.29187L108.175 308.96375Z" fill-rule="nonzero"/><path fill="#9e9e9e" d="M19.753124 323.32312L20.190624 319.07312L24.565624 319.07312L24.565624 320.07312L21.1125 320.07312L20.846874 322.40125Q21.4875 322.02625 22.284374 322.02625Q23.440624 322.02625 24.128124 322.8075Q24.815624 323.57312 24.815624 324.88562Q24.815624 326.19812 24.096874 326.96375Q23.39375 327.72937 22.1125 327.72937Q20.9875 327.72937 20.26875 327.10437Q19.55 326.46375 19.45625 325.35437L20.471874 325.35437Q20.58125 326.08875 21.003124 326.46375Q21.425 326.83875 22.1125 326.83875Q22.8625 326.83875 23.3 326.32312Q23.7375 325.8075 23.7375 324.90125Q23.7375 324.04187 23.26875 323.52625Q22.8 323.01062 22.01875 323.01062Q21.315624 323.01062 20.909374 323.3075L20.628124 323.54187L19.753124 323.32312ZM26.753124 323.32312L27.190624 319.07312L31.565624 319.07312L31.565624 320.07312L28.1125 320.07312L27.846874 322.40125Q28.4875 322.02625 29.284374 322.02625Q30.440624 322.02625 31.128124 322.8075Q31.815624 323.57312 31.815624 324.88562Q31.815624 326.19812 31.096874 326.96375Q30.39375 327.72937 29.1125 327.72937Q27.9875 327.72937 27.26875 327.10437Q26.55 326.46375 26.45625 325.35437L27.471874 325.35437Q27.58125 326.08875 28.003124 326.46375Q28.425 326.83875 29.1125 326.83875Q29.8625 326.83875 30.3 326.32312Q30.7375 325.8075 30.7375 324.90125Q30.7375 324.04187 30.26875 323.52625Q29.8 323.01062 29.01875 323.01062Q28.315624 323.01062 27.909374 323.3075L27.628124 323.54187L26.753124 323.32312ZM33.39375 327.04187Q33.39375 326.76062 33.55 326.57312Q33.721874 326.38562 34.05 326.38562Q34.39375 326.38562 34.565624 326.57312Q34.7375 326.76062 34.7375 327.04187Q34.7375 327.3075 34.565624 327.495Q34.39375 327.66687 34.05 327.66687Q33.721874 327.66687 33.55 327.495Q33.39375 327.3075 33.39375 327.04187ZM36.753124 323.32312L37.190624 319.07312L41.565624 319.07312L41.565624 320.07312L38.1125 320.07312L37.846874 322.40125Q38.4875 322.02625 39.284374 322.02625Q40.440624 322.02625 41.128124 322.8075Q41.815624 323.57312 41.815624 324.88562Q41.815624 326.19812 41.096874 326.96375Q40.39375 327.72937 39.1125 327.72937Q37.9875 327.72937 37.26875 327.10437Q36.55 326.46375 36.45625 325.35437L37.471874 325.35437Q37.58125 326.08875 38.003124 326.46375Q38.425 326.83875 39.1125 326.83875Q39.8625 326.83875 40.3 326.32312Q40.7375 325.8075 40.7375 324.90125Q40.7375 324.04187 40.26875 323.52625Q39.8 323.01062 39.01875 323.01062Q38.315624 323.01062 37.909374 323.3075L37.628124 323.54187L36.753124 323.32312ZM43.159374 320.71375Q43.159374 319.94812 43.64375 319.44812Q44.14375 318.94812 44.909374 318.94812Q45.690624 318.94812 46.175 319.44812Q46.659374 319.94812 46.659374 320.745L46.659374 321.16687Q46.659374 321.9325 46.159374 322.4325Q45.675 322.91687 44.925 322.91687Q44.159374 322.91687 43.659374 322.4325Q43.159374 321.9325 43.159374 321.12L43.159374 320.71375ZM43.971874 321.16687Q43.971874 321.62 44.221874 321.91687Q44.4875 322.21375 44.925 322.21375Q45.346874 322.21375 45.596874 321.9325Q45.846874 321.63562 45.846874 321.13562L45.846874 320.71375Q45.846874 320.26062 45.596874 319.96375Q45.346874 319.65125 44.909374 319.65125Q44.471874 319.65125 44.221874 319.96375Q43.971874 320.26062 43.971874 320.72937L43.971874 321.16687ZM47.315624 325.51062Q47.315624 324.745 47.8 324.26062Q48.3 323.76062 49.065624 323.76062Q49.83125 323.76062 50.315624 324.26062Q50.815624 324.745 50.815624 325.5575L50.815624 325.96375Q50.815624 326.72937 50.33125 327.22937Q49.846874 327.72937 49.08125 327.72937Q48.315624 327.72937 47.815624 327.245Q47.315624 326.745 47.315624 325.9325L47.315624 325.51062ZM48.128124 325.96375Q48.128124 326.4325 48.378124 326.72937Q48.64375 327.02625 49.08125 327.02625Q49.503124 327.02625 49.753124 326.745Q50.003124 326.44812 50.003124 325.94812L50.003124 325.51062Q50.003124 325.04187 49.7375 324.76062Q49.4875 324.46375 49.065624 324.46375Q48.64375 324.46375 48.378124 324.76062Q48.128124 325.04187 48.128124 325.54187L48.128124 325.96375ZM45.175 326.96375L44.55 326.57312L48.721874 319.90125L49.33125 320.29187L45.175 326.96375Z" fill-rule="nonzero"/><path stroke="#757575" stroke-width="1.0" stroke-linecap="butt" d="M18.55 314.10437L127.05 314.10437L207.17935 314.10437" fill-rule="nonzero"/><path fill="#9e9e9e" d="M209.17935 314.10437C209.17935 312.9998 208.28392 312.10437 207.17935 312.10437C206.07478 312.10437 205.17935 312.9998 205.17935 314.10437C205.17935 315.20892 206.07478 316.10437 207.17935 316.10437C208.28392 316.10437 209.17935 315.20892 209.17935 314.10437" fill-rule="nonzero"/><path fill="#757575" d="M507.15314 35.04635L503.575 35.04635L502.77814 37.280724L501.6219 37.280724L504.8719 28.749474L505.85626 28.749474L509.1219 37.280724L507.96564 37.280724L507.15314 35.04635ZM503.91876 34.124474L506.825 34.124474L505.3719 30.140099L503.91876 34.124474ZM515.6375 34.186974Q515.6375 35.6401 514.96564 36.530724Q514.3094 37.405724 513.1844 37.405724Q511.98126 37.405724 511.325 36.54635L511.2625 37.280724L510.27814 37.280724L510.27814 28.280724L511.35626 28.280724L511.35626 31.640099Q512.0125 30.827599 513.16876 30.827599Q514.325 30.827599 514.98126 31.702599Q515.6375 32.561974 515.6375 34.093224L515.6375 34.186974ZM514.5594 34.061974Q514.5594 32.9526 514.1219 32.35885Q513.7 31.749474 512.90314 31.749474Q511.825 31.749474 511.35626 32.73385L511.35626 35.48385Q511.85626 36.48385 512.90314 36.48385Q513.6844 36.48385 514.1219 35.874474Q514.5594 35.2651 514.5594 34.061974ZM521.1844 37.280724Q521.09064 37.093224 521.02814 36.60885Q520.27814 37.405724 519.23126 37.405724Q518.29376 37.405724 517.6844 36.874474Q517.09064 36.343224 517.09064 35.5151Q517.09064 34.530724 517.84064 33.98385Q518.59064 33.436974 519.96564 33.436974L521.0125 33.436974L521.0125 32.936974Q521.0125 32.374474 520.66876 32.04635Q520.34064 31.702599 519.66876 31.702599Q519.09064 31.702599 518.7 31.999474Q518.3094 32.280724 518.3094 32.7026L517.21564 32.7026Q517.21564 32.218224 517.54376 31.780724Q517.8875 31.343224 518.46564 31.093224Q519.04376 30.827599 519.73126 30.827599Q520.84064 30.827599 521.45 31.374474Q522.075 31.921349 522.10626 32.874474L522.10626 35.79635Q522.10626 36.67135 522.325 37.186974L522.325 37.280724L521.1844 37.280724ZM519.3875 36.4526Q519.90314 36.4526 520.35626 36.186974Q520.8094 35.92135 521.0125 35.499474L521.0125 34.2026L520.16876 34.2026Q518.16876 34.2026 518.16876 35.374474Q518.16876 35.874474 518.5125 36.17135Q518.85626 36.4526 519.3875 36.4526ZM525.45 37.280724L524.3719 37.280724L524.3719 30.936974L525.45 30.936974L525.45 37.280724ZM524.27814 29.265099Q524.27814 28.999474 524.4344 28.811974Q524.60626 28.624474 524.91876 28.624474Q525.23126 28.624474 525.3875 28.811974Q525.5594 28.999474 525.5594 29.265099Q525.5594 29.515099 525.3875 29.702599Q525.23126 29.874474 524.91876 29.874474Q524.60626 29.874474 524.4344 29.702599Q524.27814 29.515099 524.27814 29.265099ZM529.40314 33.249474L530.8094 30.936974L532.075 30.936974L529.9969 34.0776L532.1375 37.280724L530.8875 37.280724L529.41876 34.905724L527.95 37.280724L526.6844 37.280724L528.825 34.0776L526.7625 30.936974L528.0125 30.936974L529.40314 33.249474ZM532.98126 34.04635Q532.98126 33.124474 533.34064 32.374474Q533.71564 31.624474 534.3719 31.233849Q535.02814 30.827599 535.85626 30.827599Q537.15314 30.827599 537.95 31.718224Q538.7625 32.60885 538.7625 34.10885L538.7625 34.186974Q538.7625 35.10885 538.40314 35.843224Q538.04376 36.5776 537.3875 36.999474Q536.73126 37.405724 535.8719 37.405724Q534.59064 37.405724 533.77814 36.5151Q532.98126 35.60885 532.98126 34.124474L532.98126 34.04635ZM534.075 34.186974Q534.075 35.23385 534.5594 35.874474Q535.0594 36.5151 535.8719 36.5151Q536.7 36.5151 537.1844 35.874474Q537.66876 35.218224 537.66876 34.04635Q537.66876 33.0151 537.16876 32.374474Q536.6844 31.718224 535.85626 31.718224Q535.0594 31.718224 534.5594 32.35885Q534.075 32.98385 534.075 34.186974ZM543.0125 34.061974Q543.0125 32.593224 543.7 31.718224Q544.3875 30.827599 545.5125 30.827599Q546.6219 30.827599 547.27814 31.577599L547.27814 28.280724L548.35626 28.280724L548.35626 37.280724L547.35626 37.280724L547.3094 36.593224Q546.65314 37.405724 545.4969 37.405724Q544.40314 37.405724 543.7 36.499474Q543.0125 35.593224 543.0125 34.1401L543.0125 34.061974ZM544.09064 34.186974Q544.09064 35.2651 544.52814 35.874474Q544.98126 36.48385 545.7625 36.48385Q546.79376 36.48385 547.27814 35.54635L547.27814 32.6401Q546.79376 31.749474 545.77814 31.749474Q544.98126 31.749474 544.52814 32.35885Q544.09064 32.968224 544.09064 34.186974ZM552.90314 37.405724Q551.60626 37.405724 550.79376 36.561974Q549.9969 35.7026 549.9969 34.280724L549.9969 34.093224Q549.9969 33.1401 550.35626 32.405724Q550.71564 31.655724 551.35626 31.249474Q552.0125 30.827599 552.7625 30.827599Q553.9969 30.827599 554.6844 31.640099Q555.3719 32.4526 555.3719 33.968224L555.3719 34.42135L551.075 34.42135Q551.10626 35.35885 551.6219 35.936974Q552.15314 36.5151 552.96564 36.5151Q553.52814 36.5151 553.91876 36.280724Q554.325 36.04635 554.6375 35.655724L555.29376 36.17135Q554.4969 37.405724 552.90314 37.405724ZM552.7625 31.718224Q552.10626 31.718224 551.65314 32.2026Q551.21564 32.67135 551.1219 33.530724L554.29376 33.530724L554.29376 33.4526Q554.2469 32.624474 553.84064 32.17135Q553.45 31.718224 552.7625 31.718224ZM564.7469 37.280724L559.15314 37.280724L559.15314 36.499474L562.10626 33.218224Q562.7625 32.468224 563.0125 32.0151Q563.2625 31.546349 563.2625 31.046349Q563.2625 30.374474 562.85626 29.952599Q562.46564 29.515099 561.77814 29.515099Q560.98126 29.515099 560.52814 29.983849Q560.075 30.436974 560.075 31.265099L558.9969 31.265099Q558.9969 30.077599 559.7469 29.358849Q560.5125 28.624474 561.77814 28.624474Q562.98126 28.624474 563.66876 29.249474Q564.35626 29.874474 564.35626 30.921349Q564.35626 32.17135 562.7469 33.92135L560.46564 36.3901L564.7469 36.3901L564.7469 37.280724ZM571.5125 33.6401Q571.5125 35.54635 570.85626 36.48385Q570.21564 37.405724 568.825 37.405724Q567.46564 37.405724 566.8094 36.499474Q566.15314 35.593224 566.1219 33.780724L566.1219 32.343224Q566.1219 30.452599 566.7625 29.546349Q567.41876 28.624474 568.8094 28.624474Q570.1844 28.624474 570.84064 29.515099Q571.4969 30.390099 571.5125 32.23385L571.5125 33.6401ZM570.41876 32.155724Q570.41876 30.780724 570.02814 30.155724Q569.65314 29.515099 568.8094 29.515099Q567.98126 29.515099 567.59064 30.155724Q567.21564 30.780724 567.21564 32.0776L567.21564 33.811974Q567.21564 35.186974 567.60626 35.85885Q568.0125 36.5151 568.825 36.5151Q569.6219 36.5151 570.0125 35.8901Q570.40314 35.2651 570.41876 33.936974L570.41876 32.155724ZM573.0594 30.390099Q573.0594 29.624474 573.54376 29.124474Q574.04376 28.624474 574.8094 28.624474Q575.59064 28.624474 576.075 29.124474Q576.5594 29.624474 576.5594 30.421349L576.5594 30.843224Q576.5594 31.608849 576.0594 32.10885Q575.575 32.593224 574.825 32.593224Q574.0594 32.593224 573.5594 32.10885Q573.0594 31.608849 573.0594 30.796349L573.0594 30.390099ZM573.8719 30.843224Q573.8719 31.296349 574.1219 31.593224Q574.3875 31.890099 574.825 31.890099Q575.2469 31.890099 575.4969 31.608849Q575.7469 31.311974 575.7469 30.811974L575.7469 30.390099Q575.7469 29.936974 575.4969 29.640099Q575.2469 29.327599 574.8094 29.327599Q574.3719 29.327599 574.1219 29.640099Q573.8719 29.936974 573.8719 30.405724L573.8719 30.843224ZM577.21564 35.186974Q577.21564 34.42135 577.7 33.936974Q578.2 33.436974 578.96564 33.436974Q579.73126 33.436974 580.21564 33.936974Q580.71564 34.42135 580.71564 35.23385L580.71564 35.6401Q580.71564 36.405724 580.23126 36.905724Q579.7469 37.405724 578.98126 37.405724Q578.21564 37.405724 577.71564 36.92135Q577.21564 36.42135 577.21564 35.60885L577.21564 35.186974ZM578.02814 35.6401Q578.02814 36.10885 578.27814 36.405724Q578.54376 36.7026 578.98126 36.7026Q579.40314 36.7026 579.65314 36.42135Q579.90314 36.124474 579.90314 35.624474L579.90314 35.186974Q579.90314 34.718224 579.6375 34.436974Q579.3875 34.1401 578.96564 34.1401Q578.54376 34.1401 578.27814 34.436974Q578.02814 34.718224 578.02814 35.218224L578.02814 35.6401ZM575.075 36.6401L574.45 36.249474L578.6219 29.577599L579.23126 29.968224L575.075 36.6401Z" fill-rule="nonzero"/><path fill="#9e9e9e" d="M552.71564 55.280724L551.6375 55.280724L551.6375 48.061974L549.45 48.85885L549.45 47.874474L552.5594 46.7026L552.71564 46.7026L552.71564 55.280724ZM557.73126 50.48385L558.54376 50.48385Q559.325 50.468224 559.7625 50.0776Q560.2 49.686974 560.2 49.0151Q560.2 47.5151 558.7 47.5151Q557.9969 47.5151 557.575 47.92135Q557.16876 48.3276 557.16876 48.98385L556.075 48.98385Q556.075 47.968224 556.8094 47.29635Q557.5594 46.624474 558.7 46.624474Q559.90314 46.624474 560.59064 47.2651Q561.27814 47.905724 561.27814 49.04635Q561.27814 49.60885 560.91876 50.124474Q560.5594 50.6401 559.9344 50.905724Q560.6375 51.124474 561.0125 51.6401Q561.40314 52.155724 561.40314 52.905724Q561.40314 54.04635 560.65314 54.73385Q559.90314 55.405724 558.7 55.405724Q557.5125 55.405724 556.7469 54.749474Q555.9969 54.093224 555.9969 53.030724L557.09064 53.030724Q557.09064 53.7026 557.52814 54.10885Q557.96564 54.5151 558.71564 54.5151Q559.4969 54.5151 559.90314 54.10885Q560.325 53.686974 560.325 52.92135Q560.325 52.186974 559.8719 51.79635Q559.41876 51.3901 558.54376 51.374474L557.73126 51.374474L557.73126 50.48385ZM563.29376 54.718224Q563.29376 54.436974 563.45 54.249474Q563.6219 54.061974 563.95 54.061974Q564.29376 54.061974 564.46564 54.249474Q564.6375 54.436974 564.6375 54.718224Q564.6375 54.98385 564.46564 55.17135Q564.29376 55.343224 563.95 55.343224Q563.6219 55.343224 563.45 55.17135Q563.29376 54.98385 563.29376 54.718224ZM570.3094 51.530724Q569.98126 51.936974 569.4969 52.186974Q569.02814 52.42135 568.46564 52.42135Q567.73126 52.42135 567.1844 52.061974Q566.6375 51.7026 566.34064 51.04635Q566.04376 50.374474 566.04376 49.5776Q566.04376 48.73385 566.35626 48.04635Q566.6844 47.35885 567.27814 46.999474Q567.8875 46.624474 568.6844 46.624474Q569.95 46.624474 570.66876 47.5776Q571.40314 48.530724 571.40314 50.155724L571.40314 50.468224Q571.40314 52.968224 570.41876 54.10885Q569.4344 55.249474 567.45 55.280724L567.23126 55.280724L567.23126 54.374474L567.46564 54.374474Q568.8094 54.343224 569.52814 53.67135Q570.2469 52.999474 570.3094 51.530724ZM568.6375 51.530724Q569.1844 51.530724 569.6375 51.2026Q570.10626 50.85885 570.325 50.374474L570.325 49.936974Q570.325 48.874474 569.85626 48.2026Q569.3875 47.530724 568.6844 47.530724Q567.96564 47.530724 567.52814 48.0776Q567.10626 48.624474 567.10626 49.530724Q567.10626 50.405724 567.5125 50.968224Q567.9344 51.530724 568.6375 51.530724ZM573.0594 48.3901Q573.0594 47.624474 573.54376 47.124474Q574.04376 46.624474 574.8094 46.624474Q575.59064 46.624474 576.075 47.124474Q576.5594 47.624474 576.5594 48.42135L576.5594 48.843224Q576.5594 49.60885 576.0594 50.10885Q575.575 50.593224 574.825 50.593224Q574.0594 50.593224 573.5594 50.10885Q573.0594 49.60885 573.0594 48.79635L573.0594 48.3901ZM573.8719 48.843224Q573.8719 49.29635 574.1219 49.593224Q574.3875 49.8901 574.825 49.8901Q575.2469 49.8901 575.4969 49.60885Q575.7469 49.311974 575.7469 48.811974L575.7469 48.3901Q575.7469 47.936974 575.4969 47.6401Q575.2469 47.3276 574.8094 47.3276Q574.3719 47.3276 574.1219 47.6401Q573.8719 47.936974 573.8719 48.405724L573.8719 48.843224ZM577.21564 53.186974Q577.21564 52.42135 577.7 51.936974Q578.2 51.436974 578.96564 51.436974Q579.73126 51.436974 580.21564 51.936974Q580.71564 52.42135 580.71564 53.23385L580.71564 53.6401Q580.71564 54.405724 580.23126 54.905724Q579.7469 55.405724 578.98126 55.405724Q578.21564 55.405724 577.71564 54.92135Q577.21564 54.42135 577.21564 53.60885L577.21564 53.186974ZM578.02814 53.6401Q578.02814 54.10885 578.27814 54.405724Q578.54376 54.7026 578.98126 54.7026Q579.40314 54.7026 579.65314 54.42135Q579.90314 54.124474 579.90314 53.624474L579.90314 53.186974Q579.90314 52.718224 579.6375 52.436974Q579.3875 52.1401 578.96564 52.1401Q578.54376 52.1401 578.27814 52.436974Q578.02814 52.718224 578.02814 53.218224L578.02814 53.6401ZM575.075 54.6401L574.45 54.249474L578.6219 47.5776L579.23126 47.968224L575.075 54.6401Z" fill-rule="nonzero"/><path stroke="#757575" stroke-width="1.0" stroke-linecap="butt" d="M581.45 41.780724L472.95 41.780724L367.0785 41.780724" fill-rule="nonzero"/><path fill="#9e9e9e" d="M369.0785 41.780724C369.0785 40.676155 368.18304 39.780724 367.0785 39.780724C365.9739 39.780724 365.0785 40.676155 365.0785 41.780724C365.0785 42.885296 365.9739 43.780724 367.0785 43.780724C368.18304 43.780724 369.0785 42.885296 369.0785 41.780724" fill-rule="nonzero"/><path fill="#757575" d="M498.2625 157.67877L494.5594 157.67877L494.5594 160.6944L498.85626 160.6944L498.85626 161.61627L493.4344 161.61627L493.4344 153.08502L498.8094 153.08502L498.8094 154.0069L494.5594 154.0069L494.5594 156.7569L498.2625 156.7569L498.2625 157.67877ZM501.29376 155.27252L501.325 156.0694Q502.0594 155.16315 503.23126 155.16315Q505.2469 155.16315 505.2625 157.42877L505.2625 161.61627L504.16876 161.61627L504.16876 157.41315Q504.16876 156.74127 503.85626 156.41315Q503.5594 156.08502 502.90314 156.08502Q502.3719 156.08502 501.96564 156.36627Q501.575 156.64752 501.35626 157.10065L501.35626 161.61627L500.27814 161.61627L500.27814 155.27252L501.29376 155.27252ZM508.7469 153.74127L508.7469 155.27252L509.91876 155.27252L509.91876 156.11627L508.7469 156.11627L508.7469 160.03815Q508.7469 160.42877 508.90314 160.61627Q509.0594 160.80377 509.4344 160.80377Q509.6219 160.80377 509.95 160.74127L509.95 161.61627Q509.52814 161.74127 509.1219 161.74127Q508.40314 161.74127 508.02814 161.30377Q507.65314 160.85065 507.65314 160.03815L507.65314 156.11627L506.4969 156.11627L506.4969 155.27252L507.65314 155.27252L507.65314 153.74127L508.7469 153.74127ZM514.34064 156.24127Q514.09064 156.21002 513.8094 156.21002Q512.73126 156.21002 512.35626 157.11627L512.35626 161.61627L511.27814 161.61627L511.27814 155.27252L512.325 155.27252L512.34064 156.0069Q512.8719 155.16315 513.85626 155.16315Q514.16876 155.16315 514.34064 155.24127L514.34064 156.24127ZM517.90314 161.74127Q516.60626 161.74127 515.79376 160.89752Q514.9969 160.03815 514.9969 158.61627L514.9969 158.42877Q514.9969 157.47565 515.35626 156.74127Q515.71564 155.99127 516.35626 155.58502Q517.0125 155.16315 517.7625 155.16315Q518.9969 155.16315 519.6844 155.97565Q520.3719 156.78815 520.3719 158.30377L520.3719 158.7569L516.075 158.7569Q516.10626 159.6944 516.6219 160.27252Q517.15314 160.85065 517.96564 160.85065Q518.52814 160.85065 518.91876 160.61627Q519.325 160.3819 519.6375 159.99127L520.29376 160.5069Q519.4969 161.74127 517.90314 161.74127ZM517.7625 156.05377Q517.10626 156.05377 516.65314 156.53815Q516.21564 157.0069 516.1219 157.86627L519.29376 157.86627L519.29376 157.78815Q519.2469 156.96002 518.84064 156.5069Q518.45 156.05377 517.7625 156.05377ZM529.7469 161.61627L524.15314 161.61627L524.15314 160.83502L527.10626 157.55377Q527.7625 156.80377 528.0125 156.35065Q528.2625 155.8819 528.2625 155.3819Q528.2625 154.71002 527.85626 154.28815Q527.46564 153.85065 526.77814 153.85065Q525.98126 153.85065 525.52814 154.3194Q525.075 154.77252 525.075 155.60065L523.9969 155.60065Q523.9969 154.41315 524.7469 153.6944Q525.5125 152.96002 526.77814 152.96002Q527.98126 152.96002 528.66876 153.58502Q529.35626 154.21002 529.35626 155.2569Q529.35626 156.5069 527.7469 158.2569L525.46564 160.72565L529.7469 160.72565L529.7469 161.61627ZM534.71564 161.61627L533.6375 161.61627L533.6375 154.39752L531.45 155.1944L531.45 154.21002L534.5594 153.03815L534.71564 153.03815L534.71564 161.61627ZM538.0594 154.72565Q538.0594 153.96002 538.54376 153.46002Q539.04376 152.96002 539.8094 152.96002Q540.59064 152.96002 541.075 153.46002Q541.5594 153.96002 541.5594 154.7569L541.5594 155.17877Q541.5594 155.9444 541.0594 156.4444Q540.575 156.92877 539.825 156.92877Q539.0594 156.92877 538.5594 156.4444Q538.0594 155.9444 538.0594 155.1319L538.0594 154.72565ZM538.8719 155.17877Q538.8719 155.6319 539.1219 155.92877Q539.3875 156.22565 539.825 156.22565Q540.2469 156.22565 540.4969 155.9444Q540.7469 155.64752 540.7469 155.14752L540.7469 154.72565Q540.7469 154.27252 540.4969 153.97565Q540.2469 153.66315 539.8094 153.66315Q539.3719 153.66315 539.1219 153.97565Q538.8719 154.27252 538.8719 154.74127L538.8719 155.17877ZM542.21564 159.52252Q542.21564 158.7569 542.7 158.27252Q543.2 157.77252 543.96564 157.77252Q544.73126 157.77252 545.21564 158.27252Q545.71564 158.7569 545.71564 159.5694L545.71564 159.97565Q545.71564 160.74127 545.23126 161.24127Q544.7469 161.74127 543.98126 161.74127Q543.21564 161.74127 542.71564 161.2569Q542.21564 160.7569 542.21564 159.9444L542.21564 159.52252ZM543.02814 159.97565Q543.02814 160.4444 543.27814 160.74127Q543.54376 161.03815 543.98126 161.03815Q544.40314 161.03815 544.65314 160.7569Q544.90314 160.46002 544.90314 159.96002L544.90314 159.52252Q544.90314 159.05377 544.6375 158.77252Q544.3875 158.47565 543.96564 158.47565Q543.54376 158.47565 543.27814 158.77252Q543.02814 159.05377 543.02814 159.55377L543.02814 159.97565ZM540.075 160.97565L539.45 160.58502L543.6219 153.91315L544.23126 154.30377L540.075 160.97565ZM552.90314 161.74127Q551.60626 161.74127 550.79376 160.89752Q549.9969 160.03815 549.9969 158.61627L549.9969 158.42877Q549.9969 157.47565 550.35626 156.74127Q550.71564 155.99127 551.35626 155.58502Q552.0125 155.16315 552.7625 155.16315Q553.9969 155.16315 554.6844 155.97565Q555.3719 156.78815 555.3719 158.30377L555.3719 158.7569L551.075 158.7569Q551.10626 159.6944 551.6219 160.27252Q552.15314 160.85065 552.96564 160.85065Q553.52814 160.85065 553.91876 160.61627Q554.325 160.3819 554.6375 159.99127L555.29376 160.5069Q554.4969 161.74127 552.90314 161.74127ZM552.7625 156.05377Q552.10626 156.05377 551.65314 156.53815Q551.21564 157.0069 551.1219 157.86627L554.29376 157.86627L554.29376 157.78815Q554.2469 156.96002 553.84064 156.5069Q553.45 156.05377 552.7625 156.05377ZM559.65314 157.33502L560.09064 153.08502L564.46564 153.08502L564.46564 154.08502L561.0125 154.08502L560.7469 156.41315Q561.3875 156.03815 562.1844 156.03815Q563.34064 156.03815 564.02814 156.8194Q564.71564 157.58502 564.71564 158.89752Q564.71564 160.21002 563.9969 160.97565Q563.29376 161.74127 562.0125 161.74127Q560.8875 161.74127 560.16876 161.11627Q559.45 160.47565 559.35626 159.36627L560.3719 159.36627Q560.48126 160.10065 560.90314 160.47565Q561.325 160.85065 562.0125 160.85065Q562.7625 160.85065 563.2 160.33502Q563.6375 159.8194 563.6375 158.91315Q563.6375 158.05377 563.16876 157.53815Q562.7 157.02252 561.91876 157.02252Q561.21564 157.02252 560.8094 157.3194L560.52814 157.55377L559.65314 157.33502ZM571.5125 157.97565Q571.5125 159.8819 570.85626 160.8194Q570.21564 161.74127 568.825 161.74127Q567.46564 161.74127 566.8094 160.83502Q566.15314 159.92877 566.1219 158.11627L566.1219 156.67877Q566.1219 154.78815 566.7625 153.8819Q567.41876 152.96002 568.8094 152.96002Q570.1844 152.96002 570.84064 153.85065Q571.4969 154.72565 571.5125 156.5694L571.5125 157.97565ZM570.41876 156.49127Q570.41876 155.11627 570.02814 154.49127Q569.65314 153.85065 568.8094 153.85065Q567.98126 153.85065 567.59064 154.49127Q567.21564 155.11627 567.21564 156.41315L567.21564 158.14752Q567.21564 159.52252 567.60626 160.1944Q568.0125 160.85065 568.825 160.85065Q569.6219 160.85065 570.0125 160.22565Q570.40314 159.60065 570.41876 158.27252L570.41876 156.49127ZM573.0594 154.72565Q573.0594 153.96002 573.54376 153.46002Q574.04376 152.96002 574.8094 152.96002Q575.59064 152.96002 576.075 153.46002Q576.5594 153.96002 576.5594 154.7569L576.5594 155.17877Q576.5594 155.9444 576.0594 156.4444Q575.575 156.92877 574.825 156.92877Q574.0594 156.92877 573.5594 156.4444Q573.0594 155.9444 573.0594 155.1319L573.0594 154.72565ZM573.8719 155.17877Q573.8719 155.6319 574.1219 155.92877Q574.3875 156.22565 574.825 156.22565Q575.2469 156.22565 575.4969 155.9444Q575.7469 155.64752 575.7469 155.14752L575.7469 154.72565Q575.7469 154.27252 575.4969 153.97565Q575.2469 153.66315 574.8094 153.66315Q574.3719 153.66315 574.1219 153.97565Q573.8719 154.27252 573.8719 154.74127L573.8719 155.17877ZM577.21564 159.52252Q577.21564 158.7569 577.7 158.27252Q578.2 157.77252 578.96564 157.77252Q579.73126 157.77252 580.21564 158.27252Q580.71564 158.7569 580.71564 159.5694L580.71564 159.97565Q580.71564 160.74127 580.23126 161.24127Q579.7469 161.74127 578.98126 161.74127Q578.21564 161.74127 577.71564 161.2569Q577.21564 160.7569 577.21564 159.9444L577.21564 159.52252ZM578.02814 159.97565Q578.02814 160.4444 578.27814 160.74127Q578.54376 161.03815 578.98126 161.03815Q579.40314 161.03815 579.65314 160.7569Q579.90314 160.46002 579.90314 159.96002L579.90314 159.52252Q579.90314 159.05377 579.6375 158.77252Q579.3875 158.47565 578.96564 158.47565Q578.54376 158.47565 578.27814 158.77252Q578.02814 159.05377 578.02814 159.55377L578.02814 159.97565ZM575.075 160.97565L574.45 160.58502L578.6219 153.91315L579.23126 154.30377L575.075 160.97565Z" fill-rule="nonzero"/><path fill="#9e9e9e" d="M552.71564 179.61627L551.6375 179.61627L551.6375 172.39752L549.45 173.1944L549.45 172.21002L552.5594 171.03815L552.71564 171.03815L552.71564 179.61627ZM561.34064 173.30377Q561.34064 173.9444 560.9969 174.4444Q560.65314 174.9444 560.09064 175.22565Q560.7469 175.5069 561.1375 176.0694Q561.52814 176.61627 561.52814 177.3194Q561.52814 178.41315 560.77814 179.08502Q560.04376 179.74127 558.825 179.74127Q557.59064 179.74127 556.84064 179.08502Q556.10626 178.41315 556.10626 177.3194Q556.10626 176.61627 556.48126 176.0694Q556.85626 175.5069 557.52814 175.22565Q556.96564 174.9444 556.6375 174.4444Q556.3094 173.9444 556.3094 173.30377Q556.3094 172.22565 556.9969 171.60065Q557.6844 170.96002 558.825 170.96002Q559.95 170.96002 560.6375 171.60065Q561.34064 172.22565 561.34064 173.30377ZM560.45 177.28815Q560.45 176.5694 559.9969 176.1319Q559.54376 175.67877 558.8094 175.67877Q558.075 175.67877 557.6219 176.1319Q557.1844 176.5694 557.1844 177.30377Q557.1844 178.02252 557.6219 178.4444Q558.0594 178.85065 558.825 178.85065Q559.575 178.85065 560.0125 178.42877Q560.45 178.0069 560.45 177.28815ZM558.825 171.85065Q558.1844 171.85065 557.77814 172.2569Q557.3875 172.64752 557.3875 173.33502Q557.3875 173.97565 557.77814 174.3819Q558.16876 174.78815 558.8094 174.78815Q559.46564 174.78815 559.85626 174.3819Q560.2469 173.97565 560.2469 173.33502Q560.2469 172.67877 559.84064 172.27252Q559.4344 171.85065 558.825 171.85065ZM563.29376 179.05377Q563.29376 178.77252 563.45 178.58502Q563.6219 178.39752 563.95 178.39752Q564.29376 178.39752 564.46564 178.58502Q564.6375 178.77252 564.6375 179.05377Q564.6375 179.3194 564.46564 179.5069Q564.29376 179.67877 563.95 179.67877Q563.6219 179.67877 563.45 179.5069Q563.29376 179.3194 563.29376 179.05377ZM567.73126 174.8194L568.54376 174.8194Q569.325 174.80377 569.7625 174.41315Q570.2 174.02252 570.2 173.35065Q570.2 171.85065 568.7 171.85065Q567.9969 171.85065 567.575 172.2569Q567.16876 172.66315 567.16876 173.3194L566.075 173.3194Q566.075 172.30377 566.8094 171.6319Q567.5594 170.96002 568.7 170.96002Q569.90314 170.96002 570.59064 171.60065Q571.27814 172.24127 571.27814 173.3819Q571.27814 173.9444 570.91876 174.46002Q570.5594 174.97565 569.9344 175.24127Q570.6375 175.46002 571.0125 175.97565Q571.40314 176.49127 571.40314 177.24127Q571.40314 178.3819 570.65314 179.0694Q569.90314 179.74127 568.7 179.74127Q567.5125 179.74127 566.7469 179.08502Q565.9969 178.42877 565.9969 177.36627L567.09064 177.36627Q567.09064 178.03815 567.52814 178.4444Q567.96564 178.85065 568.71564 178.85065Q569.4969 178.85065 569.90314 178.4444Q570.325 178.02252 570.325 177.2569Q570.325 176.52252 569.8719 176.1319Q569.41876 175.72565 568.54376 175.71002L567.73126 175.71002L567.73126 174.8194ZM573.0594 172.72565Q573.0594 171.96002 573.54376 171.46002Q574.04376 170.96002 574.8094 170.96002Q575.59064 170.96002 576.075 171.46002Q576.5594 171.96002 576.5594 172.7569L576.5594 173.17877Q576.5594 173.9444 576.0594 174.4444Q575.575 174.92877 574.825 174.92877Q574.0594 174.92877 573.5594 174.4444Q573.0594 173.9444 573.0594 173.1319L573.0594 172.72565ZM573.8719 173.17877Q573.8719 173.6319 574.1219 173.92877Q574.3875 174.22565 574.825 174.22565Q575.2469 174.22565 575.4969 173.9444Q575.7469 173.64752 575.7469 173.14752L575.7469 172.72565Q575.7469 172.27252 575.4969 171.97565Q575.2469 171.66315 574.8094 171.66315Q574.3719 171.66315 574.1219 171.97565Q573.8719 172.27252 573.8719 172.74127L573.8719 173.17877ZM577.21564 177.52252Q577.21564 176.7569 577.7 176.27252Q578.2 175.77252 578.96564 175.77252Q579.73126 175.77252 580.21564 176.27252Q580.71564 176.7569 580.71564 177.5694L580.71564 177.97565Q580.71564 178.74127 580.23126 179.24127Q579.7469 179.74127 578.98126 179.74127Q578.21564 179.74127 577.71564 179.2569Q577.21564 178.7569 577.21564 177.9444L577.21564 177.52252ZM578.02814 177.97565Q578.02814 178.4444 578.27814 178.74127Q578.54376 179.03815 578.98126 179.03815Q579.40314 179.03815 579.65314 178.7569Q579.90314 178.46002 579.90314 177.96002L579.90314 177.52252Q579.90314 177.05377 579.6375 176.77252Q579.3875 176.47565 578.96564 176.47565Q578.54376 176.47565 578.27814 176.77252Q578.02814 177.05377 578.02814 177.55377L578.02814 177.97565ZM575.075 178.97565L574.45 178.58502L578.6219 171.91315L579.23126 172.30377L575.075 178.97565Z" fill-rule="nonzero"/><path stroke="#757575" stroke-width="1.0" stroke-linecap="butt" d="M581.45 166.11627L472.95 166.11627L457.41354 166.11627" fill-rule="nonzero"/><path fill="#9e9e9e" d="M459.41354 166.11627C459.41354 165.0117 458.51813 164.11627 457.41354 164.11627C456.30896 164.11627 455.41354 165.0117 455.41354 166.11627C455.41354 167.22084 456.30896 168.11627 457.41354 168.11627C458.51813 168.11627 459.41354 167.22084 459.41354 166.11627" fill-rule="nonzero"/></svg>