<svg version="1.1" viewBox="0.0 0.0 600.0 371.0" fill="none" stroke="none" stroke-linecap="square" stroke-miterlimit="10" width="600" height="371" xmlns:xlink="http://www.w3.org/1999/xlink" xmlns="http://www.w3.org/2000/svg"><path fill="#ffffff" d="M0 0L600.0 0L600.0 371.0L0 371.0L0 0Z" fill-rule="nonzero"/><path stroke="#333333" stroke-width="1.0" stroke-linecap="butt" d="M124.5 18.5L124.5 331.5" fill-rule="nonzero"/><path stroke="#cccccc" stroke-width="1.0" stroke-linecap="butt" d="M238.5 18.5L238.5 331.5" fill-rule="nonzero"/><path stroke="#cccccc" stroke-width="1.0" stroke-linecap="butt" d="M353.5 18.5L353.5 331.5" fill-rule="nonzero"/><path stroke="#cccccc" stroke-width="1.0" stroke-linecap="butt" d="M467.5 18.5L467.5 331.5" fill-rule="nonzero"/><path stroke="#cccccc" stroke-width="1.0" stroke-linecap="butt" d="M581.5 18.5L581.5 331.5" fill-rule="nonzero"/><clipPath id="id_0"><path d="M124.55 18.55L581.45 18.55L581.45 331.45L124.55 331.45L124.55 18.55Z" clip-rule="nonzero"/></clipPath><path stroke="#000000" stroke-width="0.0" stroke-linecap="butt" stroke-opacity="0.0" clip-path="url(#id_0)" d="M125.0 56.0L125.0 32.0L515.0 32.0C516.10455 32.0 517.0 32.89543 517.0 34.0L517.0 54.0C517.0 55.10457 516.10455 56.0 515.0 56.0Z" fill-rule="nonzero"/><path fill="#4285f4" clip-path="url(#id_0)" d="M125.0 56.0L125.0 32.0L515.0 32.0C516.10455 32.0 517.0 32.89543 517.0 34.0L517.0 54.0C517.0 55.10457 516.10455 56.0 515.0 56.0Z" fill-rule="nonzero"/><path stroke="#000000" stroke-width="0.0" stroke-linecap="butt" stroke-opacity="0.0" clip-path="url(#id_0)" d="M125.0 93.0L125.0 69.0L410.0 69.0C411.10458 69.0 412.0 69.89543 412.0 71.0L412.0 91.0C412.0 92.10457 411.10458 93.0 410.0 93.0Z" fill-rule="nonzero"/><path fill="#4285f4" clip-path="url(#id_0)" d="M125.0 93.0L125.0 69.0L410.0 69.0C411.10458 69.0 412.0 69.89543 412.0 71.0L412.0 91.0C412.0 92.10457 411.10458 93.0 410.0 93.0Z" fill-rule="nonzero"/><path stroke="#000000" stroke-width="0.0" stroke-linecap="butt" stroke-opacity="0.0" clip-path="url(#id_0)" d="M125.0 131.0L125.0 107.0L287.0 107.0C288.10458 107.0 289.0 107.89543 289.0 109.0L289.0 129.0C289.0 130.10457 288.10458 131.0 287.0 131.0Z" fill-rule="nonzero"/><path fill="#4285f4" clip-path="url(#id_0)" d="M125.0 131.0L125.0 107.0L287.0 107.0C288.10458 107.0 289.0 107.89543 289.0 109.0L289.0 129.0C289.0 130.10457 288.10458 131.0 287.0 131.0Z" fill-rule="nonzero"/><path stroke="#000000" stroke-width="0.0" stroke-linecap="butt" stroke-opacity="0.0" clip-path="url(#id_0)" d="M125.0 168.0L125.0 144.0L255.0 144.0C256.10458 144.0 257.0 144.89543 257.0 146.0L257.0 166.0C257.0 167.10457 256.10458 168.0 255.0 168.0Z" fill-rule="nonzero"/><path fill="#4285f4" clip-path="url(#id_0)" d="M125.0 168.0L125.0 144.0L255.0 144.0C256.10458 144.0 257.0 144.89543 257.0 146.0L257.0 166.0C257.0 167.10457 256.10458 168.0 255.0 168.0Z" fill-rule="nonzero"/><path stroke="#000000" stroke-width="0.0" stroke-linecap="butt" stroke-opacity="0.0" clip-path="url(#id_0)" d="M125.0 206.0L125.0 182.0L196.0 182.0C197.10457 182.0 198.0 182.89543 198.0 184.0L198.0 204.0C198.0 205.10457 197.10457 206.0 196.0 206.0Z" fill-rule="nonzero"/><path fill="#4285f4" clip-path="url(#id_0)" d="M125.0 206.0L125.0 182.0L196.0 182.0C197.10457 182.0 198.0 182.89543 198.0 184.0L198.0 204.0C198.0 205.10457 197.10457 206.0 196.0 206.0Z" fill-rule="nonzero"/><path stroke="#000000" stroke-width="0.0" stroke-linecap="butt" stroke-opacity="0.0" clip-path="url(#id_0)" d="M125.0 243.0L125.0 219.0L191.0 219.0C192.10457 219.0 193.0 219.89543 193.0 221.0L193.0 241.0C193.0 242.10457 192.10457 243.0 191.0 243.0Z" fill-rule="nonzero"/><path fill="#4285f4" clip-path="url(#id_0)" d="M125.0 243.0L125.0 219.0L191.0 219.0C192.10457 219.0 193.0 219.89543 193.0 221.0L193.0 241.0C193.0 242.10457 192.10457 243.0 191.0 243.0Z" fill-rule="nonzero"/><path stroke="#000000" stroke-width="0.0" stroke-linecap="butt" stroke-opacity="0.0" clip-path="url(#id_0)" d="M125.0 281.0L125.0 257.0L168.0 257.0C169.10457 257.0 170.0 257.89542 170.0 259.0L170.0 279.0C170.0 280.10458 169.10457 281.0 168.0 281.0Z" fill-rule="nonzero"/><path fill="#4285f4" clip-path="url(#id_0)" d="M125.0 281.0L125.0 257.0L168.0 257.0C169.10457 257.0 170.0 257.89542 170.0 259.0L170.0 279.0C170.0 280.10458 169.10457 281.0 168.0 281.0Z" fill-rule="nonzero"/><path stroke="#000000" stroke-width="0.0" stroke-linecap="butt" stroke-opacity="0.0" clip-path="url(#id_0)" d="M125.0 318.0L125.0 294.0L159.0 294.0C160.10457 294.0 161.0 294.89542 161.0 296.0L161.0 316.0C161.0 317.10458 160.10457 318.0 159.0 318.0Z" fill-rule="nonzero"/><path fill="#4285f4" clip-path="url(#id_0)" d="M125.0 318.0L125.0 294.0L159.0 294.0C160.10457 294.0 161.0 294.89542 161.0 296.0L161.0 316.0C161.0 317.10458 160.10457 318.0 159.0 318.0Z" fill-rule="nonzero"/><path stroke="#4285f4" stroke-width="3.0" stroke-linejoin="round" stroke-linecap="round" d="M504.57462 42.1875Q504.57462 42.828125 504.23087 43.328125Q503.88712 43.828125 503.32462 44.109375Q503.98087 44.390625 504.3715 44.953125Q504.76212 45.5 504.76212 46.203125Q504.76212 47.296875 504.01212 47.96875Q503.27774 48.625 502.059 48.625Q500.82462 48.625 500.07462 47.96875Q499.34024 47.296875 499.34024 46.203125Q499.34024 45.5 499.71524 44.953125Q500.09024 44.390625 500.76212 44.109375Q500.19962 43.828125 499.8715 43.328125Q499.54337 42.828125 499.54337 42.1875Q499.54337 41.109375 500.23087 40.484375Q500.91837 39.84375 502.059 39.84375Q503.184 39.84375 503.8715 40.484375Q504.57462 41.109375 504.57462 42.1875ZM503.684 46.171875Q503.684 45.453125 503.23087 45.015625Q502.77774 44.5625 502.04337 44.5625Q501.309 44.5625 500.85587 45.015625Q500.41837 45.453125 500.41837 46.1875Q500.41837 46.90625 500.85587 47.328125Q501.29337 47.734375 502.059 47.734375Q502.809 47.734375 503.2465 47.3125Q503.684 46.890625 503.684 46.171875ZM502.059 40.734375Q501.41837 40.734375 501.01212 41.140625Q500.6215 41.53125 500.6215 42.21875Q500.6215 42.859375 501.01212 43.265625Q501.40274 43.671875 502.04337 43.671875Q502.69962 43.671875 503.09024 43.265625Q503.48087 42.859375 503.48087 42.21875Q503.48087 41.5625 503.07462 41.15625Q502.66837 40.734375 502.059 40.734375ZM510.65274 39.96875L510.65274 40.875L510.44962 40.875Q509.184 40.90625 508.434 41.640625Q507.684 42.359375 507.559 43.671875Q508.2465 42.90625 509.40274 42.90625Q510.51212 42.90625 511.184 43.6875Q511.85587 44.46875 511.85587 45.71875Q511.85587 47.03125 511.13712 47.828125Q510.41837 48.625 509.19962 48.625Q507.98087 48.625 507.21524 47.6875Q506.46524 46.734375 506.46524 45.25L506.46524 44.84375Q506.46524 42.484375 507.46524 41.234375Q508.46524 39.984375 510.44962 39.96875L510.65274 39.96875ZM509.23087 43.8125Q508.66837 43.8125 508.19962 44.140625Q507.73087 44.46875 507.54337 44.984375L507.54337 45.375Q507.54337 46.4375 508.01212 47.078125Q508.4965 47.71875 509.19962 47.71875Q509.934 47.71875 510.35587 47.1875Q510.77774 46.640625 510.77774 45.765625Q510.77774 44.890625 510.35587 44.359375Q509.934 43.8125 509.23087 43.8125Z" fill-rule="nonzero"/><path fill="#ffffff" d="M504.57462 42.1875Q504.57462 42.828125 504.23087 43.328125Q503.88712 43.828125 503.32462 44.109375Q503.98087 44.390625 504.3715 44.953125Q504.76212 45.5 504.76212 46.203125Q504.76212 47.296875 504.01212 47.96875Q503.27774 48.625 502.059 48.625Q500.82462 48.625 500.07462 47.96875Q499.34024 47.296875 499.34024 46.203125Q499.34024 45.5 499.71524 44.953125Q500.09024 44.390625 500.76212 44.109375Q500.19962 43.828125 499.8715 43.328125Q499.54337 42.828125 499.54337 42.1875Q499.54337 41.109375 500.23087 40.484375Q500.91837 39.84375 502.059 39.84375Q503.184 39.84375 503.8715 40.484375Q504.57462 41.109375 504.57462 42.1875ZM503.684 46.171875Q503.684 45.453125 503.23087 45.015625Q502.77774 44.5625 502.04337 44.5625Q501.309 44.5625 500.85587 45.015625Q500.41837 45.453125 500.41837 46.1875Q500.41837 46.90625 500.85587 47.328125Q501.29337 47.734375 502.059 47.734375Q502.809 47.734375 503.2465 47.3125Q503.684 46.890625 503.684 46.171875ZM502.059 40.734375Q501.41837 40.734375 501.01212 41.140625Q500.6215 41.53125 500.6215 42.21875Q500.6215 42.859375 501.01212 43.265625Q501.40274 43.671875 502.04337 43.671875Q502.69962 43.671875 503.09024 43.265625Q503.48087 42.859375 503.48087 42.21875Q503.48087 41.5625 503.07462 41.15625Q502.66837 40.734375 502.059 40.734375ZM510.65274 39.96875L510.65274 40.875L510.44962 40.875Q509.184 40.90625 508.434 41.640625Q507.684 42.359375 507.559 43.671875Q508.2465 42.90625 509.40274 42.90625Q510.51212 42.90625 511.184 43.6875Q511.85587 44.46875 511.85587 45.71875Q511.85587 47.03125 511.13712 47.828125Q510.41837 48.625 509.19962 48.625Q507.98087 48.625 507.21524 47.6875Q506.46524 46.734375 506.46524 45.25L506.46524 44.84375Q506.46524 42.484375 507.46524 41.234375Q508.46524 39.984375 510.44962 39.96875L510.65274 39.96875ZM509.23087 43.8125Q508.66837 43.8125 508.19962 44.140625Q507.73087 44.46875 507.54337 44.984375L507.54337 45.375Q507.54337 46.4375 508.01212 47.078125Q508.4965 47.71875 509.19962 47.71875Q509.934 47.71875 510.35587 47.1875Q510.77774 46.640625 510.77774 45.765625Q510.77774 44.890625 510.35587 44.359375Q509.934 43.8125 509.23087 43.8125Z" fill-rule="nonzero"/><path stroke="#4285f4" stroke-width="3.0" stroke-linejoin="round" stroke-linecap="round" d="M398.56573 76.96875L398.56573 77.875L398.3626 77.875Q397.097 77.90625 396.347 78.640625Q395.597 79.359375 395.472 80.671875Q396.1595 79.90625 397.31573 79.90625Q398.4251 79.90625 399.097 80.6875Q399.76886 81.46875 399.76886 82.71875Q399.76886 84.03125 399.0501 84.828125Q398.33136 85.625 397.1126 85.625Q395.89386 85.625 395.12823 84.6875Q394.37823 83.734375 394.37823 82.25L394.37823 81.84375Q394.37823 79.484375 395.37823 78.234375Q396.37823 76.984375 398.3626 76.96875L398.56573 76.96875ZM397.14386 80.8125Q396.58136 80.8125 396.1126 81.140625Q395.64386 81.46875 395.45636 81.984375L395.45636 82.375Q395.45636 83.4375 395.9251 84.078125Q396.4095 84.71875 397.1126 84.71875Q397.847 84.71875 398.26886 84.1875Q398.69073 83.640625 398.69073 82.765625Q398.69073 81.890625 398.26886 81.359375Q397.847 80.8125 397.14386 80.8125ZM402.87823 80.703125L403.69073 80.703125Q404.472 80.6875 404.9095 80.296875Q405.347 79.90625 405.347 79.234375Q405.347 77.734375 403.847 77.734375Q403.14386 77.734375 402.722 78.140625Q402.31573 78.546875 402.31573 79.203125L401.222 79.203125Q401.222 78.1875 401.95636 77.515625Q402.70636 76.84375 403.847 76.84375Q405.0501 76.84375 405.7376 77.484375Q406.4251 78.125 406.4251 79.265625Q406.4251 79.828125 406.06573 80.34375Q405.70636 80.859375 405.08136 81.125Q405.7845 81.34375 406.1595 81.859375Q406.5501 82.375 406.5501 83.125Q406.5501 84.265625 405.8001 84.953125Q405.0501 85.625 403.847 85.625Q402.6595 85.625 401.89386 84.96875Q401.14386 84.3125 401.14386 83.25L402.2376 83.25Q402.2376 83.921875 402.6751 84.328125Q403.1126 84.734375 403.8626 84.734375Q404.64386 84.734375 405.0501 84.328125Q405.472 83.90625 405.472 83.140625Q405.472 82.40625 405.01886 82.015625Q404.56573 81.609375 403.69073 81.59375L402.87823 81.59375L402.87823 80.703125Z" fill-rule="nonzero"/><path fill="#ffffff" d="M398.56573 76.96875L398.56573 77.875L398.3626 77.875Q397.097 77.90625 396.347 78.640625Q395.597 79.359375 395.472 80.671875Q396.1595 79.90625 397.31573 79.90625Q398.4251 79.90625 399.097 80.6875Q399.76886 81.46875 399.76886 82.71875Q399.76886 84.03125 399.0501 84.828125Q398.33136 85.625 397.1126 85.625Q395.89386 85.625 395.12823 84.6875Q394.37823 83.734375 394.37823 82.25L394.37823 81.84375Q394.37823 79.484375 395.37823 78.234375Q396.37823 76.984375 398.3626 76.96875L398.56573 76.96875ZM397.14386 80.8125Q396.58136 80.8125 396.1126 81.140625Q395.64386 81.46875 395.45636 81.984375L395.45636 82.375Q395.45636 83.4375 395.9251 84.078125Q396.4095 84.71875 397.1126 84.71875Q397.847 84.71875 398.26886 84.1875Q398.69073 83.640625 398.69073 82.765625Q398.69073 81.890625 398.26886 81.359375Q397.847 80.8125 397.14386 80.8125ZM402.87823 80.703125L403.69073 80.703125Q404.472 80.6875 404.9095 80.296875Q405.347 79.90625 405.347 79.234375Q405.347 77.734375 403.847 77.734375Q403.14386 77.734375 402.722 78.140625Q402.31573 78.546875 402.31573 79.203125L401.222 79.203125Q401.222 78.1875 401.95636 77.515625Q402.70636 76.84375 403.847 76.84375Q405.0501 76.84375 405.7376 77.484375Q406.4251 78.125 406.4251 79.265625Q406.4251 79.828125 406.06573 80.34375Q405.70636 80.859375 405.08136 81.125Q405.7845 81.34375 406.1595 81.859375Q406.5501 82.375 406.5501 83.125Q406.5501 84.265625 405.8001 84.953125Q405.0501 85.625 403.847 85.625Q402.6595 85.625 401.89386 84.96875Q401.14386 84.3125 401.14386 83.25L402.2376 83.25Q402.2376 83.921875 402.6751 84.328125Q403.1126 84.734375 403.8626 84.734375Q404.64386 84.734375 405.0501 84.328125Q405.472 83.90625 405.472 83.140625Q405.472 82.40625 405.01886 82.015625Q404.56573 81.609375 403.69073 81.59375L402.87823 81.59375L402.87823 80.703125Z" fill-rule="nonzero"/><path stroke="#4285f4" stroke-width="3.0" stroke-linejoin="round" stroke-linecap="round" d="M272.51526 118.703125L273.32776 118.703125Q274.109 118.6875 274.5465 118.296875Q274.984 117.90625 274.984 117.234375Q274.984 115.734375 273.484 115.734375Q272.78088 115.734375 272.359 116.140625Q271.95276 116.546875 271.95276 117.203125L270.859 117.203125Q270.859 116.1875 271.59338 115.515625Q272.34338 114.84375 273.484 114.84375Q274.68713 114.84375 275.37463 115.484375Q276.06213 116.125 276.06213 117.265625Q276.06213 117.828125 275.70276 118.34375Q275.34338 118.859375 274.71838 119.125Q275.4215 119.34375 275.7965 119.859375Q276.18713 120.375 276.18713 121.125Q276.18713 122.265625 275.43713 122.953125Q274.68713 123.625 273.484 123.625Q272.2965 123.625 271.53088 122.96875Q270.78088 122.3125 270.78088 121.25L271.87463 121.25Q271.87463 121.921875 272.31213 122.328125Q272.74963 122.734375 273.49963 122.734375Q274.28088 122.734375 274.68713 122.328125Q275.109 121.90625 275.109 121.140625Q275.109 120.40625 274.65588 120.015625Q274.20276 119.609375 273.32776 119.59375L272.51526 119.59375L272.51526 118.703125ZM282.20276 114.96875L282.20276 115.875L281.99963 115.875Q280.734 115.90625 279.984 116.640625Q279.234 117.359375 279.109 118.671875Q279.7965 117.90625 280.95276 117.90625Q282.06213 117.90625 282.734 118.6875Q283.40588 119.46875 283.40588 120.71875Q283.40588 122.03125 282.68713 122.828125Q281.96838 123.625 280.74963 123.625Q279.53088 123.625 278.76526 122.6875Q278.01526 121.734375 278.01526 120.25L278.01526 119.84375Q278.01526 117.484375 279.01526 116.234375Q280.01526 114.984375 281.99963 114.96875L282.20276 114.96875ZM280.78088 118.8125Q280.21838 118.8125 279.74963 119.140625Q279.28088 119.46875 279.09338 119.984375L279.09338 120.375Q279.09338 121.4375 279.56213 122.078125Q280.0465 122.71875 280.74963 122.71875Q281.484 122.71875 281.90588 122.1875Q282.32776 121.640625 282.32776 120.765625Q282.32776 119.890625 281.90588 119.359375Q281.484 118.8125 280.78088 118.8125Z" fill-rule="nonzero"/><path fill="#ffffff" d="M272.51526 118.703125L273.32776 118.703125Q274.109 118.6875 274.5465 118.296875Q274.984 117.90625 274.984 117.234375Q274.984 115.734375 273.484 115.734375Q272.78088 115.734375 272.359 116.140625Q271.95276 116.546875 271.95276 117.203125L270.859 117.203125Q270.859 116.1875 271.59338 115.515625Q272.34338 114.84375 273.484 114.84375Q274.68713 114.84375 275.37463 115.484375Q276.06213 116.125 276.06213 117.265625Q276.06213 117.828125 275.70276 118.34375Q275.34338 118.859375 274.71838 119.125Q275.4215 119.34375 275.7965 119.859375Q276.18713 120.375 276.18713 121.125Q276.18713 122.265625 275.43713 122.953125Q274.68713 123.625 273.484 123.625Q272.2965 123.625 271.53088 122.96875Q270.78088 122.3125 270.78088 121.25L271.87463 121.25Q271.87463 121.921875 272.31213 122.328125Q272.74963 122.734375 273.49963 122.734375Q274.28088 122.734375 274.68713 122.328125Q275.109 121.90625 275.109 121.140625Q275.109 120.40625 274.65588 120.015625Q274.20276 119.609375 273.32776 119.59375L272.51526 119.59375L272.51526 118.703125ZM282.20276 114.96875L282.20276 115.875L281.99963 115.875Q280.734 115.90625 279.984 116.640625Q279.234 117.359375 279.109 118.671875Q279.7965 117.90625 280.95276 117.90625Q282.06213 117.90625 282.734 118.6875Q283.40588 119.46875 283.40588 120.71875Q283.40588 122.03125 282.68713 122.828125Q281.96838 123.625 280.74963 123.625Q279.53088 123.625 278.76526 122.6875Q278.01526 121.734375 278.01526 120.25L278.01526 119.84375Q278.01526 117.484375 279.01526 116.234375Q280.01526 114.984375 281.99963 114.96875L282.20276 114.96875ZM280.78088 118.8125Q280.21838 118.8125 279.74963 119.140625Q279.28088 119.46875 279.09338 119.984375L279.09338 120.375Q279.09338 121.4375 279.56213 122.078125Q280.0465 122.71875 280.74963 122.71875Q281.484 122.71875 281.90588 122.1875Q282.32776 121.640625 282.32776 120.765625Q282.32776 119.890625 281.90588 119.359375Q281.484 118.8125 280.78088 118.8125Z" fill-rule="nonzero"/><path stroke="#4285f4" stroke-width="3.0" stroke-linejoin="round" stroke-linecap="round" d="M244.54788 160.5L238.95413 160.5L238.95413 159.71875L241.90726 156.4375Q242.5635 155.6875 242.8135 155.23438Q243.0635 154.76562 243.0635 154.26562Q243.0635 153.59375 242.65726 153.17188Q242.26663 152.73438 241.57913 152.73438Q240.78226 152.73438 240.32913 153.20312Q239.876 153.65625 239.876 154.48438L238.79788 154.48438Q238.79788 153.29688 239.54788 152.57812Q240.3135 151.84375 241.57913 151.84375Q242.78226 151.84375 243.46976 152.46875Q244.15726 153.09375 244.15726 154.14062Q244.15726 155.39062 242.54788 157.14062L240.26663 159.60938L244.54788 159.60938L244.54788 160.5ZM250.11038 156.75Q249.78226 157.15625 249.29788 157.40625Q248.82913 157.64062 248.26663 157.64062Q247.53226 157.64062 246.98538 157.28125Q246.4385 156.92188 246.14163 156.26562Q245.84476 155.59375 245.84476 154.79688Q245.84476 153.95312 246.15726 153.26562Q246.48538 152.57812 247.07913 152.21875Q247.6885 151.84375 248.48538 151.84375Q249.751 151.84375 250.46976 152.79688Q251.20413 153.75 251.20413 155.375L251.20413 155.6875Q251.20413 158.1875 250.21976 159.32812Q249.23538 160.46875 247.251 160.5L247.03226 160.5L247.03226 159.59375L247.26663 159.59375Q248.61038 159.5625 249.32913 158.89062Q250.04788 158.21875 250.11038 156.75ZM248.4385 156.75Q248.98538 156.75 249.4385 156.42188Q249.90726 156.07812 250.126 155.59375L250.126 155.15625Q250.126 154.09375 249.65726 153.42188Q249.1885 152.75 248.48538 152.75Q247.76663 152.75 247.32913 153.29688Q246.90726 153.84375 246.90726 154.75Q246.90726 155.625 247.3135 156.1875Q247.73538 156.75 248.4385 156.75Z" fill-rule="nonzero"/><path fill="#ffffff" d="M244.54788 160.5L238.95413 160.5L238.95413 159.71875L241.90726 156.4375Q242.5635 155.6875 242.8135 155.23438Q243.0635 154.76562 243.0635 154.26562Q243.0635 153.59375 242.65726 153.17188Q242.26663 152.73438 241.57913 152.73438Q240.78226 152.73438 240.32913 153.20312Q239.876 153.65625 239.876 154.48438L238.79788 154.48438Q238.79788 153.29688 239.54788 152.57812Q240.3135 151.84375 241.57913 151.84375Q242.78226 151.84375 243.46976 152.46875Q244.15726 153.09375 244.15726 154.14062Q244.15726 155.39062 242.54788 157.14062L240.26663 159.60938L244.54788 159.60938L244.54788 160.5ZM250.11038 156.75Q249.78226 157.15625 249.29788 157.40625Q248.82913 157.64062 248.26663 157.64062Q247.53226 157.64062 246.98538 157.28125Q246.4385 156.92188 246.14163 156.26562Q245.84476 155.59375 245.84476 154.79688Q245.84476 153.95312 246.15726 153.26562Q246.48538 152.57812 247.07913 152.21875Q247.6885 151.84375 248.48538 151.84375Q249.751 151.84375 250.46976 152.79688Q251.20413 153.75 251.20413 155.375L251.20413 155.6875Q251.20413 158.1875 250.21976 159.32812Q249.23538 160.46875 247.251 160.5L247.03226 160.5L247.03226 159.59375L247.26663 159.59375Q248.61038 159.5625 249.32913 158.89062Q250.04788 158.21875 250.11038 156.75ZM248.4385 156.75Q248.98538 156.75 249.4385 156.42188Q249.90726 156.07812 250.126 155.59375L250.126 155.15625Q250.126 154.09375 249.65726 153.42188Q249.1885 152.75 248.48538 152.75Q247.76663 152.75 247.32913 153.29688Q246.90726 153.84375 246.90726 154.75Q246.90726 155.625 247.3135 156.1875Q247.73538 156.75 248.4385 156.75Z" fill-rule="nonzero"/><path stroke="#4285f4" stroke-width="3.0" stroke-linejoin="round" stroke-linecap="round" d="M183.11963 198.5L182.0415 198.5L182.0415 191.28125L179.854 192.07812L179.854 191.09375L182.96338 189.92188L183.11963 189.92188L183.11963 198.5ZM190.82275 189.96875L190.82275 190.875L190.61963 190.875Q189.354 190.90625 188.604 191.64062Q187.854 192.35938 187.729 193.67188Q188.4165 192.90625 189.57275 192.90625Q190.68213 192.90625 191.354 193.6875Q192.02588 194.46875 192.02588 195.71875Q192.02588 197.03125 191.30713 197.82812Q190.58838 198.625 189.36963 198.625Q188.15088 198.625 187.38525 197.6875Q186.63525 196.73438 186.63525 195.25L186.63525 194.84375Q186.63525 192.48438 187.63525 191.23438Q188.63525 189.98438 190.61963 189.96875L190.82275 189.96875ZM189.40088 193.8125Q188.83838 193.8125 188.36963 194.14062Q187.90088 194.46875 187.71338 194.98438L187.71338 195.375Q187.71338 196.4375 188.18213 197.07812Q188.6665 197.71875 189.36963 197.71875Q190.104 197.71875 190.52588 197.1875Q190.94775 196.64062 190.94775 195.76562Q190.94775 194.89062 190.52588 194.35938Q190.104 193.8125 189.40088 193.8125Z" fill-rule="nonzero"/><path fill="#ffffff" d="M183.11963 198.5L182.0415 198.5L182.0415 191.28125L179.854 192.07812L179.854 191.09375L182.96338 189.92188L183.11963 189.92188L183.11963 198.5ZM190.82275 189.96875L190.82275 190.875L190.61963 190.875Q189.354 190.90625 188.604 191.64062Q187.854 192.35938 187.729 193.67188Q188.4165 192.90625 189.57275 192.90625Q190.68213 192.90625 191.354 193.6875Q192.02588 194.46875 192.02588 195.71875Q192.02588 197.03125 191.30713 197.82812Q190.58838 198.625 189.36963 198.625Q188.15088 198.625 187.38525 197.6875Q186.63525 196.73438 186.63525 195.25L186.63525 194.84375Q186.63525 192.48438 187.63525 191.23438Q188.63525 189.98438 190.61963 189.96875L190.82275 189.96875ZM189.40088 193.8125Q188.83838 193.8125 188.36963 194.14062Q187.90088 194.46875 187.71338 194.98438L187.71338 195.375Q187.71338 196.4375 188.18213 197.07812Q188.6665 197.71875 189.36963 197.71875Q190.104 197.71875 190.52588 197.1875Q190.94775 196.64062 190.94775 195.76562Q190.94775 194.89062 190.52588 194.35938Q190.104 193.8125 189.40088 193.8125Z" fill-rule="nonzero"/><path stroke="#4285f4" stroke-width="3.0" stroke-linejoin="round" stroke-linecap="round" d="M178.55063 235.5L177.4725 235.5L177.4725 228.28125L175.285 229.07812L175.285 228.09375L178.39438 226.92188L178.55063 226.92188L178.55063 235.5ZM182.48813 231.21875L182.92563 226.96875L187.30063 226.96875L187.30063 227.96875L183.8475 227.96875L183.58188 230.29688Q184.2225 229.92188 185.01938 229.92188Q186.17563 229.92188 186.86313 230.70312Q187.55063 231.46875 187.55063 232.78125Q187.55063 234.09375 186.83188 234.85938Q186.12875 235.625 184.8475 235.625Q183.7225 235.625 183.00375 235.0Q182.285 234.35938 182.19125 233.25L183.20688 233.25Q183.31625 233.98438 183.73813 234.35938Q184.16 234.73438 184.8475 234.73438Q185.5975 234.73438 186.035 234.21875Q186.4725 233.70312 186.4725 232.79688Q186.4725 231.9375 186.00375 231.42188Q185.535 230.90625 184.75375 230.90625Q184.05063 230.90625 183.64438 231.20312L183.36313 231.4375L182.48813 231.21875Z" fill-rule="nonzero"/><path fill="#ffffff" d="M178.55063 235.5L177.4725 235.5L177.4725 228.28125L175.285 229.07812L175.285 228.09375L178.39438 226.92188L178.55063 226.92188L178.55063 235.5ZM182.48813 231.21875L182.92563 226.96875L187.30063 226.96875L187.30063 227.96875L183.8475 227.96875L183.58188 230.29688Q184.2225 229.92188 185.01938 229.92188Q186.17563 229.92188 186.86313 230.70312Q187.55063 231.46875 187.55063 232.78125Q187.55063 234.09375 186.83188 234.85938Q186.12875 235.625 184.8475 235.625Q183.7225 235.625 183.00375 235.0Q182.285 234.35938 182.19125 233.25L183.20688 233.25Q183.31625 233.98438 183.73813 234.35938Q184.16 234.73438 184.8475 234.73438Q185.5975 234.73438 186.035 234.21875Q186.4725 233.70312 186.4725 232.79688Q186.4725 231.9375 186.00375 231.42188Q185.535 230.90625 184.75375 230.90625Q184.05063 230.90625 183.64438 231.20312L183.36313 231.4375L182.48813 231.21875Z" fill-rule="nonzero"/><path stroke="#4285f4" stroke-width="3.0" stroke-linejoin="round" stroke-linecap="round" d="M155.70563 273.5L154.6275 273.5L154.6275 266.28125L152.44 267.07812L152.44 266.09375L155.54938 264.92188L155.70563 264.92188L155.70563 273.5ZM164.5025 269.85938Q164.5025 271.76562 163.84625 272.70312Q163.20563 273.625 161.815 273.625Q160.45563 273.625 159.79938 272.71875Q159.14313 271.8125 159.11188 270.0L159.11188 268.5625Q159.11188 266.67188 159.7525 265.76562Q160.40875 264.84375 161.79938 264.84375Q163.17438 264.84375 163.83063 265.73438Q164.48688 266.60938 164.5025 268.45312L164.5025 269.85938ZM163.40875 268.375Q163.40875 267.0 163.01813 266.375Q162.64313 265.73438 161.79938 265.73438Q160.97125 265.73438 160.58063 266.375Q160.20563 267.0 160.20563 268.29688L160.20563 270.03125Q160.20563 271.40625 160.59625 272.07812Q161.0025 272.73438 161.815 272.73438Q162.61188 272.73438 163.0025 272.10938Q163.39313 271.48438 163.40875 270.15625L163.40875 268.375Z" fill-rule="nonzero"/><path fill="#ffffff" d="M155.70563 273.5L154.6275 273.5L154.6275 266.28125L152.44 267.07812L152.44 266.09375L155.54938 264.92188L155.70563 264.92188L155.70563 273.5ZM164.5025 269.85938Q164.5025 271.76562 163.84625 272.70312Q163.20563 273.625 161.815 273.625Q160.45563 273.625 159.79938 272.71875Q159.14313 271.8125 159.11188 270.0L159.11188 268.5625Q159.11188 266.67188 159.7525 265.76562Q160.40875 264.84375 161.79938 264.84375Q163.17438 264.84375 163.83063 265.73438Q164.48688 266.60938 164.5025 268.45312L164.5025 269.85938ZM163.40875 268.375Q163.40875 267.0 163.01813 266.375Q162.64313 265.73438 161.79938 265.73438Q160.97125 265.73438 160.58063 266.375Q160.20563 267.0 160.20563 268.29688L160.20563 270.03125Q160.20563 271.40625 160.59625 272.07812Q161.0025 272.73438 161.815 272.73438Q162.61188 272.73438 163.0025 272.10938Q163.39313 271.48438 163.40875 270.15625L163.40875 268.375Z" fill-rule="nonzero"/><path stroke="#4285f4" stroke-width="3.0" stroke-linejoin="round" stroke-linecap="round" d="M155.19263 304.1875Q155.19263 304.82812 154.84888 305.32812Q154.50513 305.82812 153.94263 306.10938Q154.59888 306.39062 154.9895 306.95312Q155.38013 307.5 155.38013 308.20312Q155.38013 309.29688 154.63013 309.96875Q153.89575 310.625 152.677 310.625Q151.44263 310.625 150.69263 309.96875Q149.95825 309.29688 149.95825 308.20312Q149.95825 307.5 150.33325 306.95312Q150.70825 306.39062 151.38013 306.10938Q150.81763 305.82812 150.4895 305.32812Q150.16138 304.82812 150.16138 304.1875Q150.16138 303.10938 150.84888 302.48438Q151.53638 301.84375 152.677 301.84375Q153.802 301.84375 154.4895 302.48438Q155.19263 303.10938 155.19263 304.1875ZM154.302 308.17188Q154.302 307.45312 153.84888 307.01562Q153.39575 306.5625 152.66138 306.5625Q151.927 306.5625 151.47388 307.01562Q151.03638 307.45312 151.03638 308.1875Q151.03638 308.90625 151.47388 309.32812Q151.91138 309.73438 152.677 309.73438Q153.427 309.73438 153.8645 309.3125Q154.302 308.89062 154.302 308.17188ZM152.677 302.73438Q152.03638 302.73438 151.63013 303.14062Q151.2395 303.53125 151.2395 304.21875Q151.2395 304.85938 151.63013 305.26562Q152.02075 305.67188 152.66138 305.67188Q153.31763 305.67188 153.70825 305.26562Q154.09888 304.85938 154.09888 304.21875Q154.09888 303.5625 153.69263 303.15625Q153.28638 302.73438 152.677 302.73438Z" fill-rule="nonzero"/><path fill="#ffffff" d="M155.19263 304.1875Q155.19263 304.82812 154.84888 305.32812Q154.50513 305.82812 153.94263 306.10938Q154.59888 306.39062 154.9895 306.95312Q155.38013 307.5 155.38013 308.20312Q155.38013 309.29688 154.63013 309.96875Q153.89575 310.625 152.677 310.625Q151.44263 310.625 150.69263 309.96875Q149.95825 309.29688 149.95825 308.20312Q149.95825 307.5 150.33325 306.95312Q150.70825 306.39062 151.38013 306.10938Q150.81763 305.82812 150.4895 305.32812Q150.16138 304.82812 150.16138 304.1875Q150.16138 303.10938 150.84888 302.48438Q151.53638 301.84375 152.677 301.84375Q153.802 301.84375 154.4895 302.48438Q155.19263 303.10938 155.19263 304.1875ZM154.302 308.17188Q154.302 307.45312 153.84888 307.01562Q153.39575 306.5625 152.66138 306.5625Q151.927 306.5625 151.47388 307.01562Q151.03638 307.45312 151.03638 308.1875Q151.03638 308.90625 151.47388 309.32812Q151.91138 309.73438 152.677 309.73438Q153.427 309.73438 153.8645 309.3125Q154.302 308.89062 154.302 308.17188ZM152.677 302.73438Q152.03638 302.73438 151.63013 303.14062Q151.2395 303.53125 151.2395 304.21875Q151.2395 304.85938 151.63013 305.26562Q152.02075 305.67188 152.66138 305.67188Q153.31763 305.67188 153.70825 305.26562Q154.09888 304.85938 154.09888 304.21875Q154.09888 303.5625 153.69263 303.15625Q153.28638 302.73438 152.677 302.73438Z" fill-rule="nonzero"/><path fill="#757575" d="M97.25313 46.109936L93.675 46.109936L92.87813 48.34431L91.72188 48.34431L94.97188 39.81306L95.95625 39.81306L99.22188 48.34431L98.06563 48.34431L97.25313 46.109936ZM94.01875 45.18806L96.925 45.18806L95.47188 41.203686L94.01875 45.18806ZM100.1125 45.12556Q100.1125 43.641186 100.8 42.766186Q101.4875 41.891186 102.6125 41.891186Q103.76875 41.891186 104.425 42.703686L104.47188 42.00056L105.47188 42.00056L105.47188 48.18806Q105.47188 49.422436 104.7375 50.12556Q104.00313 50.84431 102.78438 50.84431Q102.09688 50.84431 101.44063 50.547436Q100.78438 50.25056 100.44063 49.75056L101.00313 49.09431Q101.69063 49.953686 102.70625 49.953686Q103.4875 49.953686 103.925 49.50056Q104.37813 49.06306 104.37813 48.25056L104.37813 47.703686Q103.72188 48.46931 102.59688 48.46931Q101.4875 48.46931 100.8 47.578686Q100.1125 46.672436 100.1125 45.12556ZM101.20625 45.25056Q101.20625 46.31306 101.64375 46.93806Q102.08125 47.547436 102.87813 47.547436Q103.89375 47.547436 104.37813 46.609936L104.37813 43.71931Q103.87813 42.81306 102.87813 42.81306Q102.09688 42.81306 101.64375 43.422436Q101.20625 44.03181 101.20625 45.25056ZM108.55 48.34431L107.47188 48.34431L107.47188 42.00056L108.55 42.00056L108.55 48.34431ZM107.37813 40.328686Q107.37813 40.06306 107.53438 39.87556Q107.70625 39.68806 108.01875 39.68806Q108.33125 39.68806 108.4875 39.87556Q108.65938 40.06306 108.65938 40.328686Q108.65938 40.578686 108.4875 40.766186Q108.33125 40.93806 108.01875 40.93806Q107.70625 40.93806 107.53438 40.766186Q107.37813 40.578686 107.37813 40.328686ZM111.55 48.34431L110.47188 48.34431L110.47188 39.34431L111.55 39.34431L111.55 48.34431ZM116.00313 48.46931Q114.70625 48.46931 113.89375 47.62556Q113.09688 46.766186 113.09688 45.34431L113.09688 45.15681Q113.09688 44.203686 113.45625 43.46931Q113.81563 42.71931 114.45625 42.31306Q115.1125 41.891186 115.8625 41.891186Q117.09688 41.891186 117.78438 42.703686Q118.47188 43.516186 118.47188 45.03181L118.47188 45.484936L114.175 45.484936Q114.20625 46.422436 114.72188 47.00056Q115.25313 47.578686 116.06563 47.578686Q116.62813 47.578686 117.01875 47.34431Q117.425 47.109936 117.7375 46.71931L118.39375 47.234936Q117.59688 48.46931 116.00313 48.46931ZM115.8625 42.78181Q115.20625 42.78181 114.75313 43.266186Q114.31563 43.734936 114.22188 44.59431L117.39375 44.59431L117.39375 44.516186Q117.34688 43.68806 116.94063 43.234936Q116.55 42.78181 115.8625 42.78181Z" fill-rule="nonzero"/><path fill="#757575" d="M87.05 82.02049Q85.6125 81.59862 84.94063 80.98924Q84.28438 80.37987 84.28438 79.48924Q84.28438 78.48924 85.08125 77.83299Q85.89375 77.16112 87.19063 77.16112Q88.06563 77.16112 88.75313 77.50487Q89.44063 77.84862 89.81563 78.44237Q90.20625 79.03612 90.20625 79.75487L89.06563 79.75487Q89.06563 78.97362 88.56563 78.53612Q88.08125 78.09862 87.19063 78.09862Q86.3625 78.09862 85.89375 78.47362Q85.425 78.83299 85.425 79.47362Q85.425 80.00487 85.8625 80.36424Q86.31563 80.72362 87.37813 81.02049Q88.44063 81.31737 89.03438 81.67674Q89.64375 82.03612 89.925 82.52049Q90.22188 83.00487 90.22188 83.64549Q90.22188 84.69237 89.40938 85.31737Q88.59688 85.94237 87.25313 85.94237Q86.3625 85.94237 85.59688 85.59862Q84.84688 85.25487 84.425 84.67674Q84.01875 84.08299 84.01875 83.34862L85.14375 83.34862Q85.14375 84.11424 85.72188 84.56737Q86.3 85.02049 87.25313 85.02049Q88.14375 85.02049 88.6125 84.66112Q89.08125 84.28612 89.08125 83.66112Q89.08125 83.03612 88.64375 82.69237Q88.20625 82.34862 87.05 82.02049ZM93.90938 85.05174Q94.4875 85.05174 94.925 84.70799Q95.3625 84.34862 95.40938 83.81737L96.44063 83.81737Q96.40938 84.36424 96.05 84.86424Q95.70625 85.34862 95.12813 85.64549Q94.56563 85.94237 93.90938 85.94237Q92.6125 85.94237 91.84688 85.08299Q91.09688 84.20799 91.09688 82.70799L91.09688 82.52049Q91.09688 81.59862 91.425 80.87987Q91.76875 80.16112 92.39375 79.77049Q93.03438 79.36424 93.90938 79.36424Q94.97188 79.36424 95.675 80.00487Q96.39375 80.62987 96.44063 81.66112L95.40938 81.66112Q95.3625 81.03612 94.94063 80.64549Q94.51875 80.25487 93.90938 80.25487Q93.08125 80.25487 92.62813 80.84862Q92.175 81.44237 92.175 82.56737L92.175 82.77049Q92.175 83.86424 92.62813 84.45799Q93.08125 85.05174 93.90938 85.05174ZM100.44063 80.44237Q100.19063 80.41112 99.90938 80.41112Q98.83125 80.41112 98.45625 81.31737L98.45625 85.81737L97.37813 85.81737L97.37813 79.47362L98.425 79.47362L98.44063 80.20799Q98.97188 79.36424 99.95625 79.36424Q100.26875 79.36424 100.44063 79.44237L100.44063 80.44237ZM105.28438 85.19237Q104.65938 85.94237 103.425 85.94237Q102.40938 85.94237 101.87813 85.34862Q101.34688 84.75487 101.34688 83.59862L101.34688 79.47362L102.425 79.47362L102.425 83.56737Q102.425 85.02049 103.59688 85.02049Q104.84688 85.02049 105.25313 84.08299L105.25313 79.47362L106.34688 79.47362L106.34688 85.81737L105.31563 85.81737L105.28438 85.19237ZM109.39375 79.47362L109.425 80.17674Q110.1125 79.36424 111.3 79.36424Q112.62813 79.36424 113.1125 80.37987Q113.425 79.92674 113.925 79.64549Q114.44063 79.36424 115.12813 79.36424Q117.22188 79.36424 117.25313 81.56737L117.25313 85.81737L116.175 85.81737L116.175 81.62987Q116.175 80.95799 115.8625 80.62987Q115.55 80.28612 114.81563 80.28612Q114.20625 80.28612 113.8 80.64549Q113.40938 81.00487 113.34688 81.61424L113.34688 85.81737L112.26875 85.81737L112.26875 81.66112Q112.26875 80.28612 110.90938 80.28612Q109.84688 80.28612 109.45625 81.19237L109.45625 85.81737L108.3625 85.81737L108.3625 79.47362L109.39375 79.47362Z" fill-rule="nonzero"/><path fill="#757575" d="M78.70625 119.32167L77.65938 120.399796L77.65938 123.29042L76.53438 123.29042L76.53438 114.75917L77.65938 114.75917L77.65938 118.97792L81.45625 114.75917L82.81563 114.75917L79.45625 118.524796L83.08125 123.29042L81.7375 123.29042L78.70625 119.32167ZM88.28438 123.29042Q88.19063 123.10292 88.12813 122.618546Q87.37813 123.41542 86.33125 123.41542Q85.39375 123.41542 84.78438 122.88417Q84.19063 122.35292 84.19063 121.524796Q84.19063 120.54042 84.94063 119.993546Q85.69063 119.44667 87.06563 119.44667L88.1125 119.44667L88.1125 118.94667Q88.1125 118.38417 87.76875 118.056046Q87.44063 117.712296 86.76875 117.712296Q86.19063 117.712296 85.8 118.00917Q85.40938 118.29042 85.40938 118.712296L84.31563 118.712296Q84.31563 118.22792 84.64375 117.79042Q84.9875 117.35292 85.56563 117.10292Q86.14375 116.837296 86.83125 116.837296Q87.94063 116.837296 88.55 117.38417Q89.175 117.931046 89.20625 118.88417L89.20625 121.806046Q89.20625 122.681046 89.425 123.19667L89.425 123.29042L88.28438 123.29042ZM86.4875 122.462296Q87.00313 122.462296 87.45625 122.19667Q87.90938 121.931046 88.1125 121.50917L88.1125 120.212296L87.26875 120.212296Q85.26875 120.212296 85.26875 121.38417Q85.26875 121.88417 85.6125 122.181046Q85.95625 122.462296 86.4875 122.462296ZM92.39375 116.94667L92.425 117.743546Q93.15938 116.837296 94.33125 116.837296Q96.34688 116.837296 96.3625 119.10292L96.3625 123.29042L95.26875 123.29042L95.26875 119.087296Q95.26875 118.41542 94.95625 118.087296Q94.65938 117.75917 94.00313 117.75917Q93.47188 117.75917 93.06563 118.04042Q92.675 118.32167 92.45625 118.774796L92.45625 123.29042L91.37813 123.29042L91.37813 116.94667L92.39375 116.94667ZM103.7375 120.19667Q103.7375 121.649796 103.06563 122.54042Q102.40938 123.41542 101.28438 123.41542Q100.08125 123.41542 99.425 122.556046L99.3625 123.29042L98.37813 123.29042L98.37813 114.29042L99.45625 114.29042L99.45625 117.649796Q100.1125 116.837296 101.26875 116.837296Q102.425 116.837296 103.08125 117.712296Q103.7375 118.57167 103.7375 120.10292L103.7375 120.19667ZM102.65938 120.07167Q102.65938 118.962296 102.22188 118.368546Q101.8 117.75917 101.00313 117.75917Q99.925 117.75917 99.45625 118.743546L99.45625 121.493546Q99.95625 122.493546 101.00313 122.493546Q101.78438 122.493546 102.22188 121.88417Q102.65938 121.274796 102.65938 120.07167ZM109.28438 123.29042Q109.19063 123.10292 109.12813 122.618546Q108.37813 123.41542 107.33125 123.41542Q106.39375 123.41542 105.78438 122.88417Q105.19063 122.35292 105.19063 121.524796Q105.19063 120.54042 105.94063 119.993546Q106.69063 119.44667 108.06563 119.44667L109.1125 119.44667L109.1125 118.94667Q109.1125 118.38417 108.76875 118.056046Q108.44063 117.712296 107.76875 117.712296Q107.19063 117.712296 106.8 118.00917Q106.40938 118.29042 106.40938 118.712296L105.31563 118.712296Q105.31563 118.22792 105.64375 117.79042Q105.9875 117.35292 106.56563 117.10292Q107.14375 116.837296 107.83125 116.837296Q108.94063 116.837296 109.55 117.38417Q110.175 117.931046 110.20625 118.88417L110.20625 121.806046Q110.20625 122.681046 110.425 123.19667L110.425 123.29042L109.28438 123.29042ZM107.4875 122.462296Q108.00313 122.462296 108.45625 122.19667Q108.90938 121.931046 109.1125 121.50917L109.1125 120.212296L108.26875 120.212296Q106.26875 120.212296 106.26875 121.38417Q106.26875 121.88417 106.6125 122.181046Q106.95625 122.462296 107.4875 122.462296ZM113.39375 116.94667L113.425 117.743546Q114.15938 116.837296 115.33125 116.837296Q117.34688 116.837296 117.3625 119.10292L117.3625 123.29042L116.26875 123.29042L116.26875 119.087296Q116.26875 118.41542 115.95625 118.087296Q115.65938 117.75917 115.00313 117.75917Q114.47188 117.75917 114.06563 118.04042Q113.675 118.32167 113.45625 118.774796L113.45625 123.29042L112.37813 123.29042L112.37813 116.94667L113.39375 116.94667Z" fill-rule="nonzero"/><path fill="#757575" d="M20.659374 157.41972L20.659374 160.76347L19.534374 160.76347L19.534374 152.23222L22.690624 152.23222Q24.08125 152.23222 24.878124 152.95097Q25.675 153.6541 25.675 154.8416Q25.675 156.07597 24.89375 156.74785Q24.128124 157.41972 22.675 157.41972L20.659374 157.41972ZM20.659374 156.49785L22.690624 156.49785Q23.596874 156.49785 24.065624 156.07597Q24.55 155.6541 24.55 154.85722Q24.55 154.0916 24.065624 153.63847Q23.596874 153.16972 22.753124 153.1541L20.659374 153.1541L20.659374 156.49785ZM31.284374 160.76347Q31.190624 160.57597 31.128124 160.0916Q30.378124 160.88847 29.33125 160.88847Q28.39375 160.88847 27.784374 160.35722Q27.190624 159.82597 27.190624 158.99785Q27.190624 158.01347 27.940624 157.4666Q28.690624 156.91972 30.065624 156.91972L31.1125 156.91972L31.1125 156.41972Q31.1125 155.85722 30.76875 155.5291Q30.440624 155.18535 29.76875 155.18535Q29.190624 155.18535 28.8 155.48222Q28.409374 155.76347 28.409374 156.18535L27.315624 156.18535Q27.315624 155.70097 27.64375 155.26347Q27.9875 154.82597 28.565624 154.57597Q29.14375 154.31035 29.83125 154.31035Q30.940624 154.31035 31.55 154.85722Q32.175 155.4041 32.20625 156.35722L32.20625 159.2791Q32.20625 160.1541 32.425 160.66972L32.425 160.76347L31.284374 160.76347ZM29.4875 159.93535Q30.003124 159.93535 30.45625 159.66972Q30.909374 159.4041 31.1125 158.98222L31.1125 157.68535L30.26875 157.68535Q28.26875 157.68535 28.26875 158.85722Q28.26875 159.35722 28.6125 159.6541Q28.95625 159.93535 29.4875 159.93535ZM35.55 160.76347L34.471874 160.76347L34.471874 154.41972L35.55 154.41972L35.55 160.76347ZM34.378124 152.74785Q34.378124 152.48222 34.534374 152.29472Q34.70625 152.10722 35.01875 152.10722Q35.33125 152.10722 35.4875 152.29472Q35.659374 152.48222 35.659374 152.74785Q35.659374 152.99785 35.4875 153.18535Q35.33125 153.35722 35.01875 153.35722Q34.70625 153.35722 34.534374 153.18535Q34.378124 152.99785 34.378124 152.74785ZM40.440624 155.38847Q40.190624 155.35722 39.909374 155.35722Q38.83125 155.35722 38.45625 156.26347L38.45625 160.76347L37.378124 160.76347L37.378124 154.41972L38.425 154.41972L38.440624 155.1541Q38.971874 154.31035 39.95625 154.31035Q40.26875 154.31035 40.440624 154.38847L40.440624 155.38847ZM49.721874 157.66972Q49.721874 159.10722 49.065624 159.99785Q48.409374 160.88847 47.26875 160.88847Q46.1125 160.88847 45.45625 160.1541L45.45625 163.20097L44.378124 163.20097L44.378124 154.41972L45.3625 154.41972L45.409374 155.12285Q46.08125 154.31035 47.253124 154.31035Q48.39375 154.31035 49.05 155.16972Q49.721874 156.0291 49.721874 157.56035L49.721874 157.66972ZM48.64375 157.54472Q48.64375 156.4666 48.175 155.85722Q47.721874 155.23222 46.925 155.23222Q45.940624 155.23222 45.45625 156.0916L45.45625 159.12285Q45.940624 159.99785 46.940624 159.99785Q47.721874 159.99785 48.175 159.38847Q48.64375 158.76347 48.64375 157.54472ZM54.440624 155.38847Q54.190624 155.35722 53.909374 155.35722Q52.83125 155.35722 52.45625 156.26347L52.45625 160.76347L51.378124 160.76347L51.378124 154.41972L52.425 154.41972L52.440624 155.1541Q52.971874 154.31035 53.95625 154.31035Q54.26875 154.31035 54.440624 154.38847L54.440624 155.38847ZM55.08125 157.5291Q55.08125 156.60722 55.440624 155.85722Q55.815624 155.10722 56.471874 154.7166Q57.128124 154.31035 57.95625 154.31035Q59.253124 154.31035 60.05 155.20097Q60.8625 156.0916 60.8625 157.5916L60.8625 157.66972Q60.8625 158.5916 60.503124 159.32597Q60.14375 160.06035 59.4875 160.48222Q58.83125 160.88847 57.971874 160.88847Q56.690624 160.88847 55.878124 159.99785Q55.08125 159.0916 55.08125 157.60722L55.08125 157.5291ZM56.175 157.66972Q56.175 158.7166 56.659374 159.35722Q57.159374 159.99785 57.971874 159.99785Q58.8 159.99785 59.284374 159.35722Q59.76875 158.70097 59.76875 157.5291Q59.76875 156.49785 59.26875 155.85722Q58.784374 155.20097 57.95625 155.20097Q57.159374 155.20097 56.659374 155.8416Q56.175 156.4666 56.175 157.66972ZM62.1125 157.54472Q62.1125 156.06035 62.8 155.18535Q63.4875 154.31035 64.6125 154.31035Q65.76875 154.31035 66.425 155.12285L66.47188 154.41972L67.47188 154.41972L67.47188 160.60722Q67.47188 161.8416 66.7375 162.54472Q66.00313 163.26347 64.78438 163.26347Q64.09688 163.26347 63.440624 162.9666Q62.784374 162.66972 62.440624 162.16972L63.003124 161.51347Q63.690624 162.37285 64.70625 162.37285Q65.4875 162.37285 65.925 161.91972Q66.37813 161.48222 66.37813 160.66972L66.37813 160.12285Q65.72188 160.88847 64.59688 160.88847Q63.4875 160.88847 62.8 159.99785Q62.1125 159.0916 62.1125 157.54472ZM63.20625 157.66972Q63.20625 158.73222 63.64375 159.35722Q64.08125 159.9666 64.87813 159.9666Q65.89375 159.9666 66.37813 159.0291L66.37813 156.13847Q65.87813 155.23222 64.87813 155.23222Q64.09688 155.23222 63.64375 155.8416Q63.20625 156.45097 63.20625 157.66972ZM72.44063 155.38847Q72.19063 155.35722 71.90938 155.35722Q70.83125 155.35722 70.45625 156.26347L70.45625 160.76347L69.37813 160.76347L69.37813 154.41972L70.425 154.41972L70.44063 155.1541Q70.97188 154.31035 71.95625 154.31035Q72.26875 154.31035 72.44063 154.38847L72.44063 155.38847ZM77.28438 160.76347Q77.19063 160.57597 77.12813 160.0916Q76.37813 160.88847 75.33125 160.88847Q74.39375 160.88847 73.78438 160.35722Q73.19063 159.82597 73.19063 158.99785Q73.19063 158.01347 73.94063 157.4666Q74.69063 156.91972 76.06563 156.91972L77.1125 156.91972L77.1125 156.41972Q77.1125 155.85722 76.76875 155.5291Q76.44063 155.18535 75.76875 155.18535Q75.19063 155.18535 74.8 155.48222Q74.40938 155.76347 74.40938 156.18535L73.31563 156.18535Q73.31563 155.70097 73.64375 155.26347Q73.9875 154.82597 74.56563 154.57597Q75.14375 154.31035 75.83125 154.31035Q76.94063 154.31035 77.55 154.85722Q78.175 155.4041 78.20625 156.35722L78.20625 159.2791Q78.20625 160.1541 78.425 160.66972L78.425 160.76347L77.28438 160.76347ZM75.4875 159.93535Q76.00313 159.93535 76.45625 159.66972Q76.90938 159.4041 77.1125 158.98222L77.1125 157.68535L76.26875 157.68535Q74.26875 157.68535 74.26875 158.85722Q74.26875 159.35722 74.6125 159.6541Q74.95625 159.93535 75.4875 159.93535ZM81.39375 154.41972L81.425 155.12285Q82.1125 154.31035 83.3 154.31035Q84.62813 154.31035 85.1125 155.32597Q85.425 154.87285 85.925 154.5916Q86.44063 154.31035 87.12813 154.31035Q89.22188 154.31035 89.25313 156.51347L89.25313 160.76347L88.175 160.76347L88.175 156.57597Q88.175 155.9041 87.8625 155.57597Q87.55 155.23222 86.81563 155.23222Q86.20625 155.23222 85.8 155.5916Q85.40938 155.95097 85.34688 156.56035L85.34688 160.76347L84.26875 160.76347L84.26875 156.60722Q84.26875 155.23222 82.90938 155.23222Q81.84688 155.23222 81.45625 156.13847L81.45625 160.76347L80.3625 160.76347L80.3625 154.41972L81.39375 154.41972ZM92.39375 154.41972L92.425 155.12285Q93.1125 154.31035 94.3 154.31035Q95.62813 154.31035 96.1125 155.32597Q96.425 154.87285 96.925 154.5916Q97.44063 154.31035 98.12813 154.31035Q100.22188 154.31035 100.25313 156.51347L100.25313 160.76347L99.175 160.76347L99.175 156.57597Q99.175 155.9041 98.8625 155.57597Q98.55 155.23222 97.81563 155.23222Q97.20625 155.23222 96.8 155.5916Q96.40938 155.95097 96.34688 156.56035L96.34688 160.76347L95.26875 160.76347L95.26875 156.60722Q95.26875 155.23222 93.90938 155.23222Q92.84688 155.23222 92.45625 156.13847L92.45625 160.76347L91.3625 160.76347L91.3625 154.41972L92.39375 154.41972ZM103.55 160.76347L102.47188 160.76347L102.47188 154.41972L103.55 154.41972L103.55 160.76347ZM102.37813 152.74785Q102.37813 152.48222 102.53438 152.29472Q102.70625 152.10722 103.01875 152.10722Q103.33125 152.10722 103.4875 152.29472Q103.65938 152.48222 103.65938 152.74785Q103.65938 152.99785 103.4875 153.18535Q103.33125 153.35722 103.01875 153.35722Q102.70625 153.35722 102.53438 153.18535Q102.37813 152.99785 102.37813 152.74785ZM106.39375 154.41972L106.425 155.2166Q107.15938 154.31035 108.33125 154.31035Q110.34688 154.31035 110.3625 156.57597L110.3625 160.76347L109.26875 160.76347L109.26875 156.56035Q109.26875 155.88847 108.95625 155.56035Q108.65938 155.23222 108.00313 155.23222Q107.47188 155.23222 107.06563 155.51347Q106.675 155.79472 106.45625 156.24785L106.45625 160.76347L105.37813 160.76347L105.37813 154.41972L106.39375 154.41972ZM112.1125 157.54472Q112.1125 156.06035 112.8 155.18535Q113.4875 154.31035 114.6125 154.31035Q115.76875 154.31035 116.425 155.12285L116.47188 154.41972L117.47188 154.41972L117.47188 160.60722Q117.47188 161.8416 116.7375 162.54472Q116.00313 163.26347 114.78438 163.26347Q114.09688 163.26347 113.44063 162.9666Q112.78438 162.66972 112.44063 162.16972L113.00313 161.51347Q113.69063 162.37285 114.70625 162.37285Q115.4875 162.37285 115.925 161.91972Q116.37813 161.48222 116.37813 160.66972L116.37813 160.12285Q115.72188 160.88847 114.59688 160.88847Q113.4875 160.88847 112.8 159.99785Q112.1125 159.0916 112.1125 157.54472ZM113.20625 157.66972Q113.20625 158.73222 113.64375 159.35722Q114.08125 159.9666 114.87813 159.9666Q115.89375 159.9666 116.37813 159.0291L116.37813 156.13847Q115.87813 155.23222 114.87813 155.23222Q114.09688 155.23222 113.64375 155.8416Q113.20625 156.45097 113.20625 157.66972Z" fill-rule="nonzero"/><path fill="#757575" d="M106.33125 192.9709L108.3625 189.70528L109.69063 189.70528L107.00313 193.93965L109.75313 198.23653L108.425 198.23653L106.33125 194.9084L104.22188 198.23653L102.87813 198.23653L105.64375 193.93965L102.95625 189.70528L104.26875 189.70528L106.33125 192.9709ZM112.65938 194.89278L112.65938 198.23653L111.53438 198.23653L111.53438 189.70528L114.69063 189.70528Q116.08125 189.70528 116.87813 190.42403Q117.675 191.12715 117.675 192.31465Q117.675 193.54903 116.89375 194.2209Q116.12813 194.89278 114.675 194.89278L112.65938 194.89278ZM112.65938 193.9709L114.69063 193.9709Q115.59688 193.9709 116.06563 193.54903Q116.55 193.12715 116.55 192.33028Q116.55 191.56465 116.06563 191.11153Q115.59688 190.64278 114.75313 190.62715L112.65938 190.62715L112.65938 193.9709Z" fill-rule="nonzero"/><path fill="#757575" d="M72.37813 233.02208L72.55 234.14708L72.78438 233.13145L74.47188 227.17833L75.425 227.17833L77.06563 233.13145L77.3 234.1627L77.4875 233.00645L78.81563 227.17833L79.94063 227.17833L77.87813 235.70958L76.84688 235.70958L75.08125 229.49083L74.95625 228.83458L74.81563 229.49083L73.00313 235.70958L71.97188 235.70958L69.90938 227.17833L71.03438 227.17833L72.37813 233.02208ZM85.28438 235.70958Q85.19063 235.52208 85.12813 235.0377Q84.37813 235.83458 83.33125 235.83458Q82.39375 235.83458 81.78438 235.30333Q81.19063 234.77208 81.19063 233.94395Q81.19063 232.95958 81.94063 232.4127Q82.69063 231.86583 84.06563 231.86583L85.1125 231.86583L85.1125 231.36583Q85.1125 230.80333 84.76875 230.4752Q84.44063 230.13145 83.76875 230.13145Q83.19063 230.13145 82.8 230.42833Q82.40938 230.70958 82.40938 231.13145L81.31563 231.13145Q81.31563 230.64708 81.64375 230.20958Q81.9875 229.77208 82.56563 229.52208Q83.14375 229.25645 83.83125 229.25645Q84.94063 229.25645 85.55 229.80333Q86.175 230.3502 86.20625 231.30333L86.20625 234.2252Q86.20625 235.1002 86.425 235.61583L86.425 235.70958L85.28438 235.70958ZM83.4875 234.88145Q84.00313 234.88145 84.45625 234.61583Q84.90938 234.3502 85.1125 233.92833L85.1125 232.63145L84.26875 232.63145Q82.26875 232.63145 82.26875 233.80333Q82.26875 234.30333 82.6125 234.6002Q82.95625 234.88145 83.4875 234.88145ZM89.84688 227.83458L89.84688 229.36583L91.01875 229.36583L91.01875 230.20958L89.84688 230.20958L89.84688 234.13145Q89.84688 234.52208 90.00313 234.70958Q90.15938 234.89708 90.53438 234.89708Q90.72188 234.89708 91.05 234.83458L91.05 235.70958Q90.62813 235.83458 90.22188 235.83458Q89.50313 235.83458 89.12813 235.39708Q88.75313 234.94395 88.75313 234.13145L88.75313 230.20958L87.59688 230.20958L87.59688 229.36583L88.75313 229.36583L88.75313 227.83458L89.84688 227.83458ZM95.00313 235.83458Q93.70625 235.83458 92.89375 234.99083Q92.09688 234.13145 92.09688 232.70958L92.09688 232.52208Q92.09688 231.56895 92.45625 230.83458Q92.81563 230.08458 93.45625 229.67833Q94.1125 229.25645 94.8625 229.25645Q96.09688 229.25645 96.78438 230.06895Q97.47188 230.88145 97.47188 232.39708L97.47188 232.8502L93.175 232.8502Q93.20625 233.7877 93.72188 234.36583Q94.25313 234.94395 95.06563 234.94395Q95.62813 234.94395 96.01875 234.70958Q96.425 234.4752 96.7375 234.08458L97.39375 234.6002Q96.59688 235.83458 95.00313 235.83458ZM94.8625 230.14708Q94.20625 230.14708 93.75313 230.63145Q93.31563 231.1002 93.22188 231.95958L96.39375 231.95958L96.39375 231.88145Q96.34688 231.05333 95.94063 230.6002Q95.55 230.14708 94.8625 230.14708ZM101.44063 230.33458Q101.19063 230.30333 100.90938 230.30333Q99.83125 230.30333 99.45625 231.20958L99.45625 235.70958L98.37813 235.70958L98.37813 229.36583L99.425 229.36583L99.44063 230.1002Q99.97188 229.25645 100.95625 229.25645Q101.26875 229.25645 101.44063 229.33458L101.44063 230.33458ZM102.90938 235.70958L102.90938 230.20958L101.90938 230.20958L101.90938 229.36583L102.90938 229.36583L102.90938 228.7252Q102.90938 227.69395 103.44063 227.14708Q103.9875 226.58458 104.9875 226.58458Q105.3625 226.58458 105.7375 226.67833L105.675 227.56895Q105.39375 227.50645 105.09688 227.50645Q104.56563 227.50645 104.26875 227.81895Q103.9875 228.13145 103.9875 228.69395L103.9875 229.36583L105.34688 229.36583L105.34688 230.20958L103.9875 230.20958L103.9875 235.70958L102.90938 235.70958ZM110.28438 235.70958Q110.19063 235.52208 110.12813 235.0377Q109.37813 235.83458 108.33125 235.83458Q107.39375 235.83458 106.78438 235.30333Q106.19063 234.77208 106.19063 233.94395Q106.19063 232.95958 106.94063 232.4127Q107.69063 231.86583 109.06563 231.86583L110.1125 231.86583L110.1125 231.36583Q110.1125 230.80333 109.76875 230.4752Q109.44063 230.13145 108.76875 230.13145Q108.19063 230.13145 107.8 230.42833Q107.40938 230.70958 107.40938 231.13145L106.31563 231.13145Q106.31563 230.64708 106.64375 230.20958Q106.9875 229.77208 107.56563 229.52208Q108.14375 229.25645 108.83125 229.25645Q109.94063 229.25645 110.55 229.80333Q111.175 230.3502 111.20625 231.30333L111.20625 234.2252Q111.20625 235.1002 111.425 235.61583L111.425 235.70958L110.28438 235.70958ZM108.4875 234.88145Q109.00313 234.88145 109.45625 234.61583Q109.90938 234.3502 110.1125 233.92833L110.1125 232.63145L109.26875 232.63145Q107.26875 232.63145 107.26875 233.80333Q107.26875 234.30333 107.6125 234.6002Q107.95625 234.88145 108.4875 234.88145ZM114.55 235.70958L113.47188 235.70958L113.47188 226.70958L114.55 226.70958L114.55 235.70958ZM117.55 235.70958L116.47188 235.70958L116.47188 226.70958L117.55 226.70958L117.55 235.70958Z" fill-rule="nonzero"/><path fill="#757575" d="M94.675 272.26077L98.72188 272.26077L98.72188 273.18265L93.53438 273.18265L93.53438 264.6514L94.675 264.6514L94.675 272.26077ZM102.00313 273.30765Q100.70625 273.30765 99.89375 272.4639Q99.09688 271.60452 99.09688 270.18265L99.09688 269.99515Q99.09688 269.04202 99.45625 268.30765Q99.81563 267.55765 100.45625 267.1514Q101.1125 266.72952 101.8625 266.72952Q103.09688 266.72952 103.78438 267.54202Q104.47188 268.35452 104.47188 269.87015L104.47188 270.32327L100.175 270.32327Q100.20625 271.26077 100.72188 271.8389Q101.25313 272.41702 102.06563 272.41702Q102.62813 272.41702 103.01875 272.18265Q103.425 271.94827 103.7375 271.55765L104.39375 272.07327Q103.59688 273.30765 102.00313 273.30765ZM101.8625 267.62015Q101.20625 267.62015 100.75313 268.10452Q100.31563 268.57327 100.22188 269.43265L103.39375 269.43265L103.39375 269.35452Q103.34688 268.5264 102.94063 268.07327Q102.55 267.62015 101.8625 267.62015ZM109.28438 273.18265Q109.19063 272.99515 109.12813 272.51077Q108.37813 273.30765 107.33125 273.30765Q106.39375 273.30765 105.78438 272.7764Q105.19063 272.24515 105.19063 271.41702Q105.19063 270.43265 105.94063 269.88577Q106.69063 269.3389 108.06563 269.3389L109.1125 269.3389L109.1125 268.8389Q109.1125 268.2764 108.76875 267.94827Q108.44063 267.60452 107.76875 267.60452Q107.19063 267.60452 106.8 267.9014Q106.40938 268.18265 106.40938 268.60452L105.31563 268.60452Q105.31563 268.12015 105.64375 267.68265Q105.9875 267.24515 106.56563 266.99515Q107.14375 266.72952 107.83125 266.72952Q108.94063 266.72952 109.55 267.2764Q110.175 267.82327 110.20625 268.7764L110.20625 271.69827Q110.20625 272.57327 110.425 273.0889L110.425 273.18265L109.28438 273.18265ZM107.4875 272.35452Q108.00313 272.35452 108.45625 272.0889Q108.90938 271.82327 109.1125 271.4014L109.1125 270.10452L108.26875 270.10452Q106.26875 270.10452 106.26875 271.2764Q106.26875 271.7764 106.6125 272.07327Q106.95625 272.35452 107.4875 272.35452ZM113.39375 266.8389L113.425 267.63577Q114.15938 266.72952 115.33125 266.72952Q117.34688 266.72952 117.3625 268.99515L117.3625 273.18265L116.26875 273.18265L116.26875 268.97952Q116.26875 268.30765 115.95625 267.97952Q115.65938 267.6514 115.00313 267.6514Q114.47188 267.6514 114.06563 267.93265Q113.675 268.2139 113.45625 268.66702L113.45625 273.18265L112.37813 273.18265L112.37813 266.8389L113.39375 266.8389Z" fill-rule="nonzero"/><path fill="#757575" d="M90.09688 306.67133Q90.09688 307.92133 89.675 308.85883Q89.25313 309.7807 88.47188 310.2807Q87.70625 310.7807 86.675 310.7807Q85.675 310.7807 84.89375 310.2807Q84.1125 309.7807 83.675 308.87445Q83.25313 307.95258 83.2375 306.73383L83.2375 306.12445Q83.2375 304.89008 83.65938 303.95258Q84.09688 303.01508 84.87813 302.51508Q85.65938 301.99945 86.675 301.99945Q87.69063 301.99945 88.47188 302.49945Q89.25313 302.99945 89.675 303.93695Q90.09688 304.87445 90.09688 306.12445L90.09688 306.67133ZM88.9875 306.10883Q88.9875 304.5932 88.37813 303.7807Q87.76875 302.9682 86.675 302.9682Q85.59688 302.9682 84.9875 303.7807Q84.37813 304.5932 84.3625 306.0307L84.3625 306.67133Q84.3625 308.14008 84.97188 308.98383Q85.59688 309.81195 86.675 309.81195Q87.76875 309.81195 88.3625 309.0307Q88.97188 308.23383 88.9875 306.74945L88.9875 306.10883ZM95.28438 310.0307Q94.65938 310.7807 93.425 310.7807Q92.40938 310.7807 91.87813 310.18695Q91.34688 309.5932 91.34688 308.43695L91.34688 304.31195L92.425 304.31195L92.425 308.4057Q92.425 309.85883 93.59688 309.85883Q94.84688 309.85883 95.25313 308.92133L95.25313 304.31195L96.34688 304.31195L96.34688 310.6557L95.31563 310.6557L95.28438 310.0307ZM99.84688 302.7807L99.84688 304.31195L101.01875 304.31195L101.01875 305.1557L99.84688 305.1557L99.84688 309.07758Q99.84688 309.4682 100.00313 309.6557Q100.15938 309.8432 100.53438 309.8432Q100.72188 309.8432 101.05 309.7807L101.05 310.6557Q100.62813 310.7807 100.22188 310.7807Q99.50313 310.7807 99.12813 310.3432Q98.75313 309.89008 98.75313 309.07758L98.75313 305.1557L97.59688 305.1557L97.59688 304.31195L98.75313 304.31195L98.75313 302.7807L99.84688 302.7807ZM105.44063 305.2807Q105.19063 305.24945 104.90938 305.24945Q103.83125 305.24945 103.45625 306.1557L103.45625 310.6557L102.37813 310.6557L102.37813 304.31195L103.425 304.31195L103.44063 305.04633Q103.97188 304.20258 104.95625 304.20258Q105.26875 304.20258 105.44063 304.2807L105.44063 305.2807ZM110.28438 310.6557Q110.19063 310.4682 110.12813 309.98383Q109.37813 310.7807 108.33125 310.7807Q107.39375 310.7807 106.78438 310.24945Q106.19063 309.7182 106.19063 308.89008Q106.19063 307.9057 106.94063 307.35883Q107.69063 306.81195 109.06563 306.81195L110.1125 306.81195L110.1125 306.31195Q110.1125 305.74945 109.76875 305.42133Q109.44063 305.07758 108.76875 305.07758Q108.19063 305.07758 107.8 305.37445Q107.40938 305.6557 107.40938 306.07758L106.31563 306.07758Q106.31563 305.5932 106.64375 305.1557Q106.9875 304.7182 107.56563 304.4682Q108.14375 304.20258 108.83125 304.20258Q109.94063 304.20258 110.55 304.74945Q111.175 305.29633 111.20625 306.24945L111.20625 309.17133Q111.20625 310.04633 111.425 310.56195L111.425 310.6557L110.28438 310.6557ZM108.4875 309.82758Q109.00313 309.82758 109.45625 309.56195Q109.90938 309.29633 110.1125 308.87445L110.1125 307.57758L109.26875 307.57758Q107.26875 307.57758 107.26875 308.74945Q107.26875 309.24945 107.6125 309.54633Q107.95625 309.82758 108.4875 309.82758ZM117.06563 308.9682Q117.06563 308.5307 116.72188 308.29633Q116.39375 308.04633 115.56563 307.87445Q114.75313 307.70258 114.26875 307.45258Q113.78438 307.20258 113.55 306.87445Q113.33125 306.5307 113.33125 306.06195Q113.33125 305.2807 113.9875 304.74945Q114.64375 304.20258 115.675 304.20258Q116.75313 304.20258 117.40938 304.76508Q118.08125 305.31195 118.08125 306.17133L117.00313 306.17133Q117.00313 305.73383 116.6125 305.42133Q116.2375 305.0932 115.675 305.0932Q115.08125 305.0932 114.7375 305.35883Q114.40938 305.60883 114.40938 306.01508Q114.40938 306.4057 114.72188 306.60883Q115.03438 306.81195 115.84688 306.99945Q116.65938 307.17133 117.15938 307.42133Q117.65938 307.67133 117.89375 308.0307Q118.14375 308.39008 118.14375 308.89008Q118.14375 309.74945 117.45625 310.26508Q116.78438 310.7807 115.70625 310.7807Q114.94063 310.7807 114.34688 310.51508Q113.76875 310.23383 113.44063 309.74945Q113.1125 309.26508 113.1125 308.70258L114.19063 308.70258Q114.22188 309.24945 114.62813 309.57758Q115.03438 309.89008 115.70625 309.89008Q116.31563 309.89008 116.69063 309.64008Q117.06563 309.39008 117.06563 308.9682Z" fill-rule="nonzero"/><path fill="#757575" d="M127.1125 345.8094Q127.1125 347.71564 126.45625 348.65314Q125.81563 349.575 124.425 349.575Q123.06563 349.575 122.40938 348.66876Q121.75313 347.7625 121.72188 345.95L121.72188 344.5125Q121.72188 342.6219 122.3625 341.71564Q123.01875 340.79376 124.40938 340.79376Q125.78438 340.79376 126.44063 341.6844Q127.09688 342.5594 127.1125 344.40314L127.1125 345.8094ZM126.01875 344.325Q126.01875 342.95 125.62813 342.325Q125.25313 341.6844 124.40938 341.6844Q123.58125 341.6844 123.19063 342.325Q122.81563 342.95 122.81563 344.2469L122.81563 345.98126Q122.81563 347.35626 123.20625 348.02814Q123.6125 348.6844 124.425 348.6844Q125.22188 348.6844 125.6125 348.0594Q126.00313 347.4344 126.01875 346.10626L126.01875 344.325Z" fill-rule="nonzero"/><path fill="#757575" d="M238.07187 349.45L232.47812 349.45L232.47812 348.66876L235.43124 345.3875Q236.0875 344.6375 236.3375 344.1844Q236.5875 343.71564 236.5875 343.21564Q236.5875 342.54376 236.18124 342.1219Q235.79062 341.6844 235.10312 341.6844Q234.30624 341.6844 233.85312 342.15314Q233.4 342.60626 233.4 343.4344L232.32187 343.4344Q232.32187 342.2469 233.07187 341.52814Q233.8375 340.79376 235.10312 340.79376Q236.30624 340.79376 236.99374 341.41876Q237.68124 342.04376 237.68124 343.09064Q237.68124 344.34064 236.07187 346.09064L233.79062 348.5594L238.07187 348.5594L238.07187 349.45ZM239.97812 345.16876L240.41562 340.91876L244.79062 340.91876L244.79062 341.91876L241.3375 341.91876L241.07187 344.2469Q241.7125 343.8719 242.50937 343.8719Q243.66562 343.8719 244.35312 344.65314Q245.04062 345.41876 245.04062 346.73126Q245.04062 348.04376 244.32187 348.8094Q243.61874 349.575 242.3375 349.575Q241.2125 349.575 240.49374 348.95Q239.775 348.3094 239.68124 347.2L240.69687 347.2Q240.80624 347.9344 241.22812 348.3094Q241.65 348.6844 242.3375 348.6844Q243.0875 348.6844 243.525 348.16876Q243.9625 347.65314 243.9625 346.7469Q243.9625 345.8875 243.49374 345.3719Q243.025 344.85626 242.24374 344.85626Q241.54062 344.85626 241.13437 345.15314L240.85312 345.3875L239.97812 345.16876Z" fill-rule="nonzero"/><path fill="#757575" d="M347.20312 345.16876L347.64062 340.91876L352.01562 340.91876L352.01562 341.91876L348.5625 341.91876L348.29688 344.2469Q348.9375 343.8719 349.73438 343.8719Q350.89062 343.8719 351.57812 344.65314Q352.26562 345.41876 352.26562 346.73126Q352.26562 348.04376 351.54688 348.8094Q350.84375 349.575 349.5625 349.575Q348.4375 349.575 347.71875 348.95Q347.0 348.3094 346.90625 347.2L347.92188 347.2Q348.03125 347.9344 348.45312 348.3094Q348.875 348.6844 349.5625 348.6844Q350.3125 348.6844 350.75 348.16876Q351.1875 347.65314 351.1875 346.7469Q351.1875 345.8875 350.71875 345.3719Q350.25 344.85626 349.46875 344.85626Q348.76562 344.85626 348.35938 345.15314L348.07812 345.3875L347.20312 345.16876ZM359.0625 345.8094Q359.0625 347.71564 358.40625 348.65314Q357.76562 349.575 356.375 349.575Q355.01562 349.575 354.35938 348.66876Q353.70312 347.7625 353.67188 345.95L353.67188 344.5125Q353.67188 342.6219 354.3125 341.71564Q354.96875 340.79376 356.35938 340.79376Q357.73438 340.79376 358.39062 341.6844Q359.04688 342.5594 359.0625 344.40314L359.0625 345.8094ZM357.96875 344.325Q357.96875 342.95 357.57812 342.325Q357.20312 341.6844 356.35938 341.6844Q355.53125 341.6844 355.14062 342.325Q354.76562 342.95 354.76562 344.2469L354.76562 345.98126Q354.76562 347.35626 355.15625 348.02814Q355.5625 348.6844 356.375 348.6844Q357.17188 348.6844 357.5625 348.0594Q357.95312 347.4344 357.96875 346.10626L357.96875 344.325Z" fill-rule="nonzero"/><path fill="#757575" d="M466.44376 341.52814L462.9125 349.45L461.77188 349.45L465.2875 341.8094L460.67813 341.8094L460.67813 340.91876L466.44376 340.91876L466.44376 341.52814ZM468.42813 345.16876L468.86563 340.91876L473.24063 340.91876L473.24063 341.91876L469.7875 341.91876L469.52188 344.2469Q470.1625 343.8719 470.95938 343.8719Q472.11563 343.8719 472.80313 344.65314Q473.49063 345.41876 473.49063 346.73126Q473.49063 348.04376 472.77188 348.8094Q472.06876 349.575 470.7875 349.575Q469.6625 349.575 468.94376 348.95Q468.225 348.3094 468.13126 347.2L469.14688 347.2Q469.25626 347.9344 469.67813 348.3094Q470.1 348.6844 470.7875 348.6844Q471.5375 348.6844 471.975 348.16876Q472.4125 347.65314 472.4125 346.7469Q472.4125 345.8875 471.94376 345.3719Q471.475 344.85626 470.69376 344.85626Q469.99063 344.85626 469.58438 345.15314L469.30313 345.3875L468.42813 345.16876Z" fill-rule="nonzero"/><path fill="#757575" d="M575.21564 349.45L574.1375 349.45L574.1375 342.23126L571.95 343.02814L571.95 342.04376L575.0594 340.8719L575.21564 340.8719L575.21564 349.45ZM584.0125 345.8094Q584.0125 347.71564 583.35626 348.65314Q582.71564 349.575 581.325 349.575Q579.96564 349.575 579.3094 348.66876Q578.65314 347.7625 578.6219 345.95L578.6219 344.5125Q578.6219 342.6219 579.2625 341.71564Q579.91876 340.79376 581.3094 340.79376Q582.6844 340.79376 583.34064 341.6844Q583.9969 342.5594 584.0125 344.40314L584.0125 345.8094ZM582.91876 344.325Q582.91876 342.95 582.52814 342.325Q582.15314 341.6844 581.3094 341.6844Q580.48126 341.6844 580.09064 342.325Q579.71564 342.95 579.71564 344.2469L579.71564 345.98126Q579.71564 347.35626 580.10626 348.02814Q580.5125 348.6844 581.325 348.6844Q582.1219 348.6844 582.5125 348.0594Q582.90314 347.4344 582.91876 346.10626L582.91876 344.325ZM591.0125 345.8094Q591.0125 347.71564 590.35626 348.65314Q589.71564 349.575 588.325 349.575Q586.96564 349.575 586.3094 348.66876Q585.65314 347.7625 585.6219 345.95L585.6219 344.5125Q585.6219 342.6219 586.2625 341.71564Q586.91876 340.79376 588.3094 340.79376Q589.6844 340.79376 590.34064 341.6844Q590.9969 342.5594 591.0125 344.40314L591.0125 345.8094ZM589.91876 344.325Q589.91876 342.95 589.52814 342.325Q589.15314 341.6844 588.3094 341.6844Q587.48126 341.6844 587.09064 342.325Q586.71564 342.95 586.71564 344.2469L586.71564 345.98126Q586.71564 347.35626 587.10626 348.02814Q587.5125 348.6844 588.325 348.6844Q589.1219 348.6844 589.5125 348.0594Q589.90314 347.4344 589.91876 346.10626L589.91876 344.325Z" fill-rule="nonzero"/></svg>