<svg xmlns="http://www.w3.org/2000/svg" xmlns:lucid="lucid" width="380" height="420"><g lucid:page-tab-id="0_0"><path d="M0-60h1870.4v1323.2H0z" fill="#fff"/><path d="M160 120h40v40h-40zM180 220h40v40h-40zM260 140h40v40h-40zM260 220h40v40h-40zM100 220h40v40h-40zM260 60h40v40h-40zM100 60h40v40h-40zM80 140h40v40H80z" stroke="#000" stroke-width="2" fill="#fff"/><path d="M141.7 80.7l25.22 25.22" stroke="#000" stroke-width="2" fill="none"/><path d="M142.43 80.02l-1.4 1.4H141v-2.83z"/><path d="M177.7 116.7l-13.35-6.8 6.55-6.55z" stroke="#000" stroke-width="2"/><path d="M182.3 161.96l12.22 39.37" stroke="#000" stroke-width="2" fill="none"/><path d="M183.26 161.68l-1.9.6-.4-1.28h2.1z"/><path d="M199.04 215.9l-8.65-12.24 8.84-2.75z" stroke="#000" stroke-width="2"/><path d="M179.28 161.7l-45.98 44.44" stroke="#000" stroke-width="2" fill="none"/><path d="M179.96 162.43l-1.4-1.43h2.88z"/><path d="M122.33 216.75l7.03-13.25 6.45 6.67z" stroke="#000" stroke-width="2"/><path d="M258.1 80.44l-61.5 30.37" stroke="#000" stroke-width="2" fill="none"/><path d="M259 81.12l-.48.23-.88-1.8 1.36-.67z"/><path d="M182.9 117.57l10.74-10.47 4.1 8.3z" stroke="#000" stroke-width="2"/><path d="M201.95 140.33l39.56 13.64" stroke="#000" stroke-width="2" fill="none"/><path d="M202.3 139.4l-.66 1.88-.64-.22v-2.12z"/><path d="M255.94 158.95l-15-.27 3.03-8.77z" stroke="#000" stroke-width="2"/><path d="M280 182v18.5" stroke="#000" stroke-width="2" fill="none"/><path d="M281 182.03h-2V181h2z"/><path d="M280 215.76l-4.64-14.26h9.28z" stroke="#000" stroke-width="2"/><path d="M100.5 181.87l12.06 21.07" stroke="#000" stroke-width="2" fill="none"/><path d="M101.38 181.4l-1.74 1-.8-1.4h2.3z"/><path d="M120.14 216.2l-11.1-10.1 8.04-4.6z" stroke="#000" stroke-width="2"/><path d="M140 355c0 2.2-8.95 4-20 4s-20-1.8-20-4v-32c0-2.2 8.95-4 20-4s20 1.8 20 4z" stroke="#000" stroke-width="2" fill="#fff"/><path d="M140 323c0 2.2-8.95 4-20 4s-20-1.8-20-4M120 262v37.5" stroke="#000" stroke-width="2" fill="none"/><path d="M121 262.03h-2V261h2z"/><path d="M120 314.76l-4.64-14.26h9.28z" stroke="#000" stroke-width="2"/><path d="M279.06 261.34L137.43 311.8" stroke="#000" stroke-width="2" fill="none"/><path d="M279.37 262.3l-.46-1.3H283z"/><path d="M123.05 316.9l11.88-9.14 3.1 8.73z" stroke="#000" stroke-width="2"/><path d="M199.2 261.58l-64.13 45.68" stroke="#000" stroke-width="2" fill="none"/><path d="M199.74 262.4l-1-1.4h2.98z"/><path d="M122.64 316.12l8.92-12.05 5.38 7.55z" stroke="#000" stroke-width="2"/><path d="M360 210c0 104.93-76.1 190-170 190S20 314.93 20 210 96.1 20 190 20s170 85.07 170 190z" stroke="#c92d39" stroke-width="6" fill-opacity="0"/></g></svg>