<svg xmlns="http://www.w3.org/2000/svg" xmlns:lucid="lucid" width="280" height="339"><g lucid:page-tab-id="0_0"><path d="M-60-100h1870.4v1323.2H-60z" fill="#fff"/><path d="M100 80h40v40h-40zM120 180h40v40h-40zM200 100h40v40h-40zM200 180h40v40h-40zM40 180h40v40H40zM200 20h40v40h-40zM40 20h40v40H40zM20 100h40v40H20z" stroke="#000" stroke-width="2" fill="#fff"/><path d="M81.7 40.7l25.22 25.22" stroke="#000" stroke-width="2" fill="none"/><path d="M82.43 40.02l-1.4 1.4H81v-2.83z"/><path d="M117.7 76.7l-13.35-6.8 6.55-6.55z" stroke="#000" stroke-width="2"/><path d="M122.3 121.96l12.22 39.37" stroke="#000" stroke-width="2" fill="none"/><path d="M123.26 121.68l-1.9.6-.4-1.28h2.1z"/><path d="M139.04 175.9l-8.65-12.24 8.84-2.75z" stroke="#000" stroke-width="2"/><path d="M119.28 121.7L73.3 166.14" stroke="#000" stroke-width="2" fill="none"/><path d="M119.96 122.43l-1.4-1.43h2.88z"/><path d="M62.33 176.75l7.03-13.25 6.45 6.67z" stroke="#000" stroke-width="2"/><path d="M198.1 40.44L136.6 70.8" stroke="#000" stroke-width="2" fill="none"/><path d="M199 41.12l-.48.23-.88-1.8 1.36-.67z"/><path d="M122.9 77.57l10.74-10.47 4.1 8.3z" stroke="#000" stroke-width="2"/><path d="M141.95 100.33l39.56 13.64" stroke="#000" stroke-width="2" fill="none"/><path d="M142.3 99.4l-.66 1.88-.64-.22v-2.12z"/><path d="M195.94 118.95l-15-.27 3.03-8.77z" stroke="#000" stroke-width="2"/><path d="M220 142v18.5" stroke="#000" stroke-width="2" fill="none"/><path d="M221 142.03h-2V141h2z"/><path d="M220 175.76l-4.64-14.26h9.28z" stroke="#000" stroke-width="2"/><path d="M40.5 141.87l12.06 21.07" stroke="#000" stroke-width="2" fill="none"/><path d="M41.38 141.4l-1.74 1-.8-1.4h2.3z"/><path d="M60.14 176.2l-11.1-10.1 8.04-4.6z" stroke="#000" stroke-width="2"/><path d="M160 315c0 2.2-8.95 4-20 4s-20-1.8-20-4v-32c0-2.2 8.95-4 20-4s20 1.8 20 4z" stroke="#000" stroke-width="2" fill="#fff"/><path d="M160 283c0 2.2-8.95 4-20 4s-20-1.8-20-4M60.8 221.58l64.13 45.68" stroke="#000" stroke-width="2" fill="none"/><path d="M60.26 222.4l-1.98-1.4h2.98z"/><path d="M137.36 276.12l-14.3-4.5 5.38-7.55z" stroke="#000" stroke-width="2"/><path d="M219.2 221.58l-64.13 45.68" stroke="#000" stroke-width="2" fill="none"/><path d="M219.74 222.4l-1-1.4h2.98z"/><path d="M142.64 276.12l8.92-12.05 5.38 7.55z" stroke="#000" stroke-width="2"/><path d="M140 222v37.5" stroke="#000" stroke-width="2" fill="none"/><path d="M141 222.03h-2V221h2z"/><path d="M140 274.76l-4.64-14.26h9.28z" stroke="#000" stroke-width="2"/><path d="M260 120c0 22.1-17.9 40-40 40s-40-17.9-40-40 17.9-40 40-40 40 17.9 40 40z" stroke="#c92d39" stroke-width="6" fill-opacity="0"/></g></svg>