<svg xmlns="http://www.w3.org/2000/svg" xmlns:lucid="lucid" width="300" height="360"><g lucid:page-tab-id="0_0"><path d="M-20-100h1870.4v1323.2H-20z" fill="#fff"/><path d="M140 80h40v40h-40zM160 180h40v40h-40zM240 100h40v40h-40zM240 180h40v40h-40zM80 180h40v40H80zM240 20h40v40h-40zM80 20h40v40H80zM60 100h40v40H60z" stroke="#000" stroke-width="2" fill="#fff"/><path d="M121.7 40.7l25.22 25.22" stroke="#000" stroke-width="2" fill="none"/><path d="M122.43 40.02l-1.4 1.4H121v-2.83z"/><path d="M157.7 76.7l-13.35-6.8 6.55-6.55z" stroke="#000" stroke-width="2"/><path d="M162.3 121.96l12.22 39.37" stroke="#000" stroke-width="2" fill="none"/><path d="M163.26 121.68l-1.9.6-.4-1.28h2.1z"/><path d="M179.04 175.9l-8.65-12.24 8.84-2.75z" stroke="#000" stroke-width="2"/><path d="M159.28 121.7l-45.98 44.44" stroke="#000" stroke-width="2" fill="none"/><path d="M159.96 122.43l-1.4-1.43h2.88z"/><path d="M102.33 176.75l7.03-13.25 6.45 6.67z" stroke="#000" stroke-width="2"/><path d="M238.1 40.44L176.6 70.8" stroke="#000" stroke-width="2" fill="none"/><path d="M239 41.12l-.48.23-.88-1.8 1.36-.67z"/><path d="M162.9 77.57l10.74-10.47 4.1 8.3z" stroke="#000" stroke-width="2"/><path d="M181.95 100.33l39.56 13.64" stroke="#000" stroke-width="2" fill="none"/><path d="M182.3 99.4l-.66 1.88-.64-.22v-2.12z"/><path d="M235.94 118.95l-15-.27 3.03-8.77z" stroke="#000" stroke-width="2"/><path d="M260 142v18.5" stroke="#000" stroke-width="2" fill="none"/><path d="M261 142.03h-2V141h2z"/><path d="M260 175.76l-4.64-14.26h9.28z" stroke="#000" stroke-width="2"/><path d="M80.5 141.87l12.06 21.07" stroke="#000" stroke-width="2" fill="none"/><path d="M81.38 141.4l-1.74 1-.8-1.4h2.3z"/><path d="M100.14 176.2l-11.1-10.1 8.04-4.6z" stroke="#000" stroke-width="2"/><path d="M120 315c0 2.2-8.95 4-20 4s-20-1.8-20-4v-32c0-2.2 8.95-4 20-4s20 1.8 20 4z" stroke="#000" stroke-width="2" fill="#fff"/><path d="M120 283c0 2.2-8.95 4-20 4s-20-1.8-20-4M100 222v37.5" stroke="#000" stroke-width="2" fill="none"/><path d="M101 222.03h-2V221h2z"/><path d="M100 274.76l-4.64-14.26h9.28z" stroke="#000" stroke-width="2"/><path d="M259.06 221.34L117.43 271.8" stroke="#000" stroke-width="2" fill="none"/><path d="M259.37 222.3l-.46-1.3H263z"/><path d="M103.05 276.9l11.88-9.14 3.1 8.73z" stroke="#000" stroke-width="2"/><path d="M179.2 221.58l-64.13 45.68" stroke="#000" stroke-width="2" fill="none"/><path d="M179.74 222.4l-1-1.4h2.98z"/><path d="M102.64 276.12l8.92-12.05 5.38 7.55z" stroke="#000" stroke-width="2"/><path d="M160 210c0 71.8-31.34 130-70 130s-70-58.2-70-130S51.34 80 90 80s70 58.2 70 130z" stroke="#c92d39" stroke-width="6" fill-opacity="0"/></g></svg>