<svg xmlns="http://www.w3.org/2000/svg" xmlns:xlink="http://www.w3.org/1999/xlink" xmlns:lucid="lucid" width="1057" height="610"><g transform="translate(-40 0)" lucid:page-tab-id="0_0"><path d="M0 0h1870.4v1323.2H0z" fill="#fff"/><path d="M140 270c0 16.57-13.43 30-30 30s-30-13.43-30-30 13.43-30 30-30 30 13.43 30 30zM240 270c0 16.57-13.43 30-30 30s-30-13.43-30-30 13.43-30 30-30 30 13.43 30 30z" stroke="#000" stroke-width="2" fill="#fff"/><path d="M142 270h18.5" stroke="#000" stroke-width="2" fill="none"/><path d="M142.03 271h-1.1l.07-.98-.03-1.02h1.06z"/><path d="M175.76 270l-14.26 4.64v-9.28z" stroke="#000" stroke-width="2"/><path d="M339 270c0 16.57-13.43 30-30 30s-30-13.43-30-30 13.43-30 30-30 30 13.43 30 30z" stroke="#000" stroke-width="2" fill="#fff"/><path d="M241 270h18.5M241.03 270H240" stroke="#000" stroke-width="2" fill="none"/><path d="M274.76 270l-14.26 4.64v-9.28z" stroke="#000" stroke-width="2"/><path d="M439 270c0 16.57-13.43 30-30 30s-30-13.43-30-30 13.43-30 30-30 30 13.43 30 30z" stroke="#000" stroke-width="2" fill="#fff"/><path d="M341 270h18.5M341.03 270H340" stroke="#000" stroke-width="2" fill="none"/><path d="M374.76 270l-14.26 4.64v-9.28z" stroke="#000" stroke-width="2"/><path d="M539 270c0 16.57-13.43 30-30 30s-30-13.43-30-30 13.43-30 30-30 30 13.43 30 30z" stroke="#000" stroke-width="2" fill="#fff"/><path d="M441 270h18.5M441.03 270H440" stroke="#000" stroke-width="2" fill="none"/><path d="M474.76 270l-14.26 4.64v-9.28z" stroke="#000" stroke-width="2"/><path d="M639 270c0 16.57-13.43 30-30 30s-30-13.43-30-30 13.43-30 30-30 30 13.43 30 30z" stroke="#000" stroke-width="2" fill="#fff"/><path d="M541 270h18.5M541.03 270H540" stroke="#000" stroke-width="2" fill="none"/><path d="M574.76 270l-14.26 4.64v-9.28z" stroke="#000" stroke-width="2"/><path d="M439 390c0 16.57-13.43 30-30 30s-30-13.43-30-30 13.43-30 30-30 30 13.43 30 30z" stroke="#000" stroke-width="2" fill="#fff"/><path d="M309 302v88h50.5" stroke="#000" stroke-width="2" fill="none"/><path d="M308.98 301l1.02-.03v1.06h-2v-1.1z"/><path d="M374.76 390l-14.26 4.64v-9.28z" stroke="#000" stroke-width="2"/><path d="M539 390c0 16.57-13.43 30-30 30s-30-13.43-30-30 13.43-30 30-30 30 13.43 30 30z" stroke="#000" stroke-width="2" fill="#fff"/><path d="M441 390h18.5M441.03 390H440" stroke="#000" stroke-width="2" fill="none"/><path d="M474.76 390l-14.26 4.64v-9.28z" stroke="#000" stroke-width="2"/><path d="M639 390c0 16.57-13.43 30-30 30s-30-13.43-30-30 13.43-30 30-30 30 13.43 30 30z" stroke="#000" stroke-width="2" fill="#fff"/><path d="M541 390h18.5M541.03 390H540" stroke="#000" stroke-width="2" fill="none"/><path d="M574.76 390l-14.26 4.64v-9.28z" stroke="#000" stroke-width="2"/><path d="M819 270c0 16.57-13.43 30-30 30s-30-13.43-30-30 13.43-30 30-30 30 13.43 30 30z" stroke="#000" stroke-width="2" fill="#fff"/><path d="M721 270h18.5M721.03 270H720" stroke="#000" stroke-width="2" fill="none"/><path d="M754.76 270l-14.26 4.64v-9.28z" stroke="#000" stroke-width="2"/><path d="M919 270c0 16.57-13.43 30-30 30s-30-13.43-30-30 13.43-30 30-30 30 13.43 30 30z" stroke="#000" stroke-width="2" fill="#fff"/><path d="M821 270h18.5M821.03 270H820" stroke="#000" stroke-width="2" fill="none"/><path d="M854.76 270l-14.26 4.64v-9.28z" stroke="#000" stroke-width="2"/><path d="M620 220h119v74H620z" stroke="#000" stroke-opacity="0" stroke-width="2" fill="#fff" fill-opacity="0"/><use xlink:href="#a" transform="matrix(1,0,0,1,625,225) translate(32.27777777777777 46.66666666666667)"/><path d="M819 390c0 16.57-13.43 30-30 30s-30-13.43-30-30 13.43-30 30-30 30 13.43 30 30z" stroke="#000" stroke-width="2" fill="#fff"/><path d="M721 390h18.5M721.03 390H720" stroke="#000" stroke-width="2" fill="none"/><path d="M754.76 390l-14.26 4.64v-9.28z" stroke="#000" stroke-width="2"/><path d="M821 390h68v-70.5M821.03 390H820" stroke="#000" stroke-width="2" fill="none"/><path d="M889 304.24l4.63 14.26h-9.27z" stroke="#000" stroke-width="2"/><path d="M620 340h119v74H620z" stroke="#000" stroke-opacity="0" stroke-width="2" fill="#fff" fill-opacity="0"/><use xlink:href="#a" transform="matrix(1,0,0,1,625,345) translate(32.27777777777777 46.66666666666667)"/><path d="M1019 270c0 16.57-13.43 30-30 30s-30-13.43-30-30 13.43-30 30-30 30 13.43 30 30z" stroke="#000" stroke-width="2" fill="#fff"/><path d="M921 270h18.5M921.03 270H920" stroke="#000" stroke-width="2" fill="none"/><path d="M954.76 270l-14.26 4.64v-9.28z" stroke="#000" stroke-width="2"/><path d="M1020 270h18.5M1020.03 270H1019" stroke="#000" stroke-width="2" fill="none"/><path d="M1053.76 270l-14.26 4.64v-9.28z" stroke="#000" stroke-width="2"/><path d="M420 60h240v20H420z" stroke="#000" stroke-opacity="0" stroke-width="2" fill="#fff" fill-opacity="0"/><use xlink:href="#b" transform="matrix(1,0,0,1,425,65) translate(87.55 14.4)"/><g fill="none"><path d="M820.33 440v80H383v-80z"/><path d="M383 440c0 15.1 12.24 27.33 27.33 27.33h164c15.1 0 27.34 12.24 27.34 27.34 0-15.1 12.23-27.34 27.33-27.34h164c15.1 0 27.33-12.23 27.33-27.33" stroke="#000" stroke-width="2"/></g><path d="M480 492.6h259v74.8H480z" stroke="#000" stroke-opacity="0" stroke-width="2" fill="#fff" fill-opacity="0"/><use xlink:href="#c" transform="matrix(1,0,0,1,485,497.6) translate(5.125 24.55625)"/><use xlink:href="#d" transform="matrix(1,0,0,1,485,497.6) translate(67.075 24.55625)"/><use xlink:href="#e" transform="matrix(1,0,0,1,485,497.6) translate(106.025 24.55625)"/><use xlink:href="#f" transform="matrix(1,0,0,1,485,497.6) translate(226.875 24.55625)"/><use xlink:href="#d" transform="matrix(1,0,0,1,485,497.6) translate(28.57499999999999 46.15625)"/><use xlink:href="#g" transform="matrix(1,0,0,1,485,497.6) translate(67.52499999999999 46.15625)"/><use xlink:href="#h" transform="matrix(1,0,0,1,485,497.6) translate(137.475 46.15625)"/><use xlink:href="#i" transform="matrix(1,0,0,1,485,497.6) translate(162.475 46.15625)"/><use xlink:href="#j" transform="matrix(1,0,0,1,485,497.6) translate(187.475 46.15625)"/><path d="M900 320h80v60h-80z" stroke="#000" stroke-opacity="0" stroke-width="2" fill="#fff" fill-opacity="0"/><g><use xlink:href="#k" transform="matrix(1,0,0,1,905,325) translate(9.549999999999997 30.025)"/></g><g fill="none"><path d="M100 220v-80h886.67v80z"/><path d="M986.67 220c0-30.6-24.8-55.42-55.42-55.42h-332.5c-30.6 0-55.42-24.8-55.42-55.4 0 30.6-24.8 55.4-55.4 55.4h-332.5c-30.62 0-55.43 24.8-55.43 55.42" stroke="#000" stroke-width="2"/></g><defs><path d="M33 0v-38h34V0H33" id="l"/><g id="a"><use transform="matrix(0.14814814814814817,0,0,0.14814814814814817,0,0)" xlink:href="#l"/><use transform="matrix(0.14814814814814817,0,0,0.14814814814814817,14.814814814814817,0)" xlink:href="#l"/><use transform="matrix(0.14814814814814817,0,0,0.14814814814814817,29.629629629629633,0)" xlink:href="#l"/></g><path d="M240 0l2-218c-23 76-54 145-80 218h-23L58-218 59 0H30v-248h44l77 211c21-75 51-140 76-211h43V0h-30" id="m"/><path d="M141-36C126-15 110 5 73 4 37 3 15-17 15-53c-1-64 63-63 125-63 3-35-9-54-41-54-24 1-41 7-42 31l-33-3c5-37 33-52 76-52 45 0 72 20 72 64v82c-1 20 7 32 28 27v20c-31 9-61-2-59-35zM48-53c0 20 12 33 32 33 41-3 63-29 60-74-43 2-92-5-92 41" id="n"/><path d="M135-143c-3-34-86-38-87 0 15 53 115 12 119 90S17 21 10-45l28-5c4 36 97 45 98 0-10-56-113-15-118-90-4-57 82-63 122-42 12 7 21 19 24 35" id="o"/><path d="M59-47c-2 24 18 29 38 22v24C64 9 27 4 27-40v-127H5v-23h24l9-43h21v43h35v23H59v120" id="p"/><path d="M100-194c63 0 86 42 84 106H49c0 40 14 67 53 68 26 1 43-12 49-29l28 8c-11 28-37 45-77 45C44 4 14-33 15-96c1-61 26-98 85-98zm52 81c6-60-76-77-97-28-3 7-6 17-6 28h103" id="q"/><path d="M114-163C36-179 61-72 57 0H25l-1-190h30c1 12-1 29 2 39 6-27 23-49 58-41v29" id="r"/><g id="b"><use transform="matrix(0.05,0,0,0.05,0,0)" xlink:href="#m"/><use transform="matrix(0.05,0,0,0.05,14.950000000000001,0)" xlink:href="#n"/><use transform="matrix(0.05,0,0,0.05,24.950000000000003,0)" xlink:href="#o"/><use transform="matrix(0.05,0,0,0.05,33.95,0)" xlink:href="#p"/><use transform="matrix(0.05,0,0,0.05,38.95,0)" xlink:href="#q"/><use transform="matrix(0.05,0,0,0.05,48.95,0)" xlink:href="#r"/></g><path d="M160-131c35 5 61 23 61 61C221 17 115-2 30 0v-248c76 3 177-17 177 60 0 33-19 50-47 57zm-97-11c50-1 110 9 110-42 0-47-63-36-110-37v79zm0 115c55-2 124 14 124-45 0-56-70-42-124-44v89" id="s"/><path d="M117-194c89-4 53 116 60 194h-32v-121c0-31-8-49-39-48C34-167 62-67 57 0H25l-1-190h30c1 10-1 24 2 32 11-22 29-35 61-36" id="t"/><path d="M96-169c-40 0-48 33-48 73s9 75 48 75c24 0 41-14 43-38l32 2c-6 37-31 61-74 61-59 0-76-41-82-99-10-93 101-131 147-64 4 7 5 14 7 22l-32 3c-4-21-16-35-41-35" id="u"/><path d="M106-169C34-169 62-67 57 0H25v-261h32l-1 103c12-21 28-36 61-36 89 0 53 116 60 194h-32v-121c2-32-8-49-39-48" id="v"/><g id="c"><use transform="matrix(0.05,0,0,0.05,0,0)" xlink:href="#s"/><use transform="matrix(0.05,0,0,0.05,12,0)" xlink:href="#r"/><use transform="matrix(0.05,0,0,0.05,17.95,0)" xlink:href="#n"/><use transform="matrix(0.05,0,0,0.05,27.950000000000003,0)" xlink:href="#t"/><use transform="matrix(0.05,0,0,0.05,37.95,0)" xlink:href="#u"/><use transform="matrix(0.05,0,0,0.05,46.95,0)" xlink:href="#v"/></g><path d="M100-194c62-1 85 37 85 99 1 63-27 99-86 99S16-35 15-95c0-66 28-99 85-99zM99-20c44 1 53-31 53-75 0-43-8-75-51-75s-53 32-53 75 10 74 51 75" id="w"/><path d="M210-169c-67 3-38 105-44 169h-31v-121c0-29-5-50-35-48C34-165 62-65 56 0H25l-1-190h30c1 10-1 24 2 32 10-44 99-50 107 0 11-21 27-35 58-36 85-2 47 119 55 194h-31v-121c0-29-5-49-35-48" id="x"/><g id="d"><use transform="matrix(0.05,0,0,0.05,0,0)" xlink:href="#u"/><use transform="matrix(0.05,0,0,0.05,9,0)" xlink:href="#w"/><use transform="matrix(0.05,0,0,0.05,19,0)" xlink:href="#x"/></g><path d="M101-234c-31-9-42 10-38 44h38v23H63V0H32v-167H5v-23h27c-7-52 17-82 69-68v24" id="y"/><path d="M84 4C-5 8 30-112 23-190h32v120c0 31 7 50 39 49 72-2 45-101 50-169h31l1 190h-30c-1-10 1-25-2-33-11 22-28 36-60 37" id="z"/><path d="M24-231v-30h32v30H24zM24 0v-190h32V0H24" id="A"/><path d="M24 0v-261h32V0H24" id="B"/><path d="M85-194c31 0 48 13 60 33l-1-100h32l1 261h-30c-2-10 0-23-3-31C134-8 116 4 85 4 32 4 16-35 15-94c0-66 23-100 70-100zm9 24c-40 0-46 34-46 75 0 40 6 74 45 74 42 0 51-32 51-76 0-42-9-74-50-73" id="C"/><g id="e"><use transform="matrix(0.05,0,0,0.05,0,0)" xlink:href="#y"/><use transform="matrix(0.05,0,0,0.05,5,0)" xlink:href="#z"/><use transform="matrix(0.05,0,0,0.05,15,0)" xlink:href="#t"/><use transform="matrix(0.05,0,0,0.05,25,0)" xlink:href="#u"/><use transform="matrix(0.05,0,0,0.05,34,0)" xlink:href="#A"/><use transform="matrix(0.05,0,0,0.05,37.95,0)" xlink:href="#w"/><use transform="matrix(0.05,0,0,0.05,47.95,0)" xlink:href="#t"/><use transform="matrix(0.05,0,0,0.05,57.95,0)" xlink:href="#n"/><use transform="matrix(0.05,0,0,0.05,67.95,0)" xlink:href="#B"/><use transform="matrix(0.05,0,0,0.05,71.9,0)" xlink:href="#A"/><use transform="matrix(0.05,0,0,0.05,75.85000000000001,0)" xlink:href="#C"/><use transform="matrix(0.05,0,0,0.05,85.85000000000001,0)" xlink:href="#n"/><use transform="matrix(0.05,0,0,0.05,95.85000000000001,0)" xlink:href="#C"/><use transform="matrix(0.05,0,0,0.05,105.85000000000001,0)" xlink:href="#q"/></g><path d="M195 0l-74-108L45 0H8l94-129-87-119h37l69 98 67-98h37l-84 118L233 0h-38" id="D"/><path d="M68-38c1 34 0 65-14 84H32c9-13 17-26 17-46H33v-38h35" id="E"/><g id="f"><use transform="matrix(0.05,0,0,0.05,0,0)" xlink:href="#D"/><use transform="matrix(0.05,0,0,0.05,12,0)" xlink:href="#E"/></g><path d="M96-169c-40 0-48 33-48 73s9 75 48 75c24 0 41-14 43-38l32 2c-6 37-31 61-74 61-59 0-76-41-82-99-10-93 101-131 147-64 4 7 5 14 7 22l-32 3c-4-21-16-35-41-35zm3 187c19-1 33 8 33 26 0 31-30 33-64 32V58c18 2 39 4 41-13 1-15-18-13-34-13L87 0h19" id="F"/><path d="M141-36C126-15 110 5 73 4 37 3 15-17 15-53c-1-64 63-63 125-63 3-35-9-54-41-54-24 1-41 7-42 31l-33-3c5-37 33-52 76-52 45 0 72 20 72 64v82c-1 20 7 32 28 27v20c-31 9-61-2-59-35zM48-53c0 20 12 33 32 33 41-3 63-29 60-74-43 2-92-5-92 41zm117-205c-3 23-9 48-36 47-26-1-65-44-74 0H39c4-23 8-48 36-47s64 44 74 0h16" id="G"/><g id="g"><use transform="matrix(0.05,0,0,0.05,0,0)" xlink:href="#C"/><use transform="matrix(0.05,0,0,0.05,10,0)" xlink:href="#z"/><use transform="matrix(0.05,0,0,0.05,20,0)" xlink:href="#r"/><use transform="matrix(0.05,0,0,0.05,25.950000000000003,0)" xlink:href="#n"/><use transform="matrix(0.05,0,0,0.05,35.95,0)" xlink:href="#F"/><use transform="matrix(0.05,0,0,0.05,44.95,0)" xlink:href="#G"/><use transform="matrix(0.05,0,0,0.05,54.95,0)" xlink:href="#w"/></g><g id="h"><use transform="matrix(0.05,0,0,0.05,0,0)" xlink:href="#C"/><use transform="matrix(0.05,0,0,0.05,10,0)" xlink:href="#q"/></g><path d="M155-56V0h-30v-56H8v-25l114-167h33v167h35v25h-35zm-30-156c-27 46-58 90-88 131h88v-131" id="H"/><path d="M101-251c68 0 85 55 85 127S166 4 100 4C33 4 14-52 14-124c0-73 17-127 87-127zm-1 229c47 0 54-49 54-102s-4-102-53-102c-51 0-55 48-55 102 0 53 5 102 54 102" id="I"/><g id="i"><use transform="matrix(0.05,0,0,0.05,0,0)" xlink:href="#H"/><use transform="matrix(0.05,0,0,0.05,10,0)" xlink:href="#I"/></g><g id="j"><use transform="matrix(0.05,0,0,0.05,0,0)" xlink:href="#C"/><use transform="matrix(0.05,0,0,0.05,10,0)" xlink:href="#A"/><use transform="matrix(0.05,0,0,0.05,13.949999999999998,0)" xlink:href="#n"/><use transform="matrix(0.05,0,0,0.05,23.95,0)" xlink:href="#o"/></g><path d="M177-190C167-65 218 103 67 71c-23-6-38-20-44-43l32-5c15 47 100 32 89-28v-30C133-14 115 1 83 1 29 1 15-40 15-95c0-56 16-97 71-98 29-1 48 16 59 35 1-10 0-23 2-32h30zM94-22c36 0 50-32 50-73 0-42-14-75-50-75-39 0-46 34-46 75s6 73 46 73" id="J"/><g id="k"><use transform="matrix(0.05,0,0,0.05,0,0)" xlink:href="#m"/><use transform="matrix(0.05,0,0,0.05,14.950000000000001,0)" xlink:href="#q"/><use transform="matrix(0.05,0,0,0.05,24.950000000000003,0)" xlink:href="#r"/><use transform="matrix(0.05,0,0,0.05,30.900000000000002,0)" xlink:href="#J"/><use transform="matrix(0.05,0,0,0.05,40.900000000000006,0)" xlink:href="#q"/></g></defs></g></svg>