<svg xmlns="http://www.w3.org/2000/svg" xmlns:xlink="http://www.w3.org/1999/xlink" xmlns:lucid="lucid" width="480" height="277"><g transform="translate(-80 -63)" lucid:page-tab-id="0_0"><path d="M0 0h1870.4v1323.2H0z" fill="#fff"/><path d="M140 120h380v180H140z" stroke="#000" stroke-width="2" fill="#fff"/><path d="M500 250c0 5.52-76.1 10-170 10s-170-4.48-170-10v-80c0-5.52 76.1-10 170-10s170 4.48 170 10z" stroke="#000" stroke-width="2" fill="#fff"/><path d="M500 170c0 5.52-76.1 10-170 10s-170-4.48-170-10" stroke="#000" stroke-width="2" fill="none"/><use xlink:href="#a" transform="matrix(1,0,0,1,165,185) translate(22.224999999999994 27.525)"/><use xlink:href="#b" transform="matrix(1,0,0,1,165,185) translate(113.975 27.525)"/><use xlink:href="#c" transform="matrix(1,0,0,1,165,185) translate(180.875 27.525)"/><use xlink:href="#b" transform="matrix(1,0,0,1,165,185) translate(200.875 27.525)"/><use xlink:href="#d" transform="matrix(1,0,0,1,165,185) translate(267.775 27.525)"/><use xlink:href="#e" transform="matrix(1,0,0,1,165,185) translate(287.775 27.525)"/><use xlink:href="#b" transform="matrix(1,0,0,1,165,185) translate(126.55 49.125)"/><use xlink:href="#f" transform="matrix(1,0,0,1,165,185) translate(193.45 49.125)"/><path d="M120 80h80v60h-80z" stroke="#000" stroke-opacity="0" stroke-width="2" fill="#fff" fill-opacity="0"/><g><use xlink:href="#g" transform="matrix(1,0,0,1,125,85) translate(12.191358024691361 30.27777777777778)"/></g><defs><path d="M30-248c118-7 216 8 213 122C240-48 200 0 122 0H30v-248zM63-27c89 8 146-16 146-99s-60-101-146-95v194" id="h"/><path d="M24-231v-30h32v30H24zM24 0v-190h32V0H24" id="i"/><path d="M114-163C36-179 61-72 57 0H25l-1-190h30c1 12-1 29 2 39 6-27 23-49 58-41v29" id="j"/><path d="M100-194c63 0 86 42 84 106H49c0 40 14 67 53 68 26 1 43-12 49-29l28 8c-11 28-37 45-77 45C44 4 14-33 15-96c1-61 26-98 85-98zm52 81c6-60-76-77-97-28-3 7-6 17-6 28h103" id="k"/><path d="M59-47c-2 24 18 29 38 22v24C64 9 27 4 27-40v-127H5v-23h24l9-43h21v43h35v23H59v120" id="l"/><path d="M100-194c62-1 85 37 85 99 1 63-27 99-86 99S16-35 15-95c0-66 28-99 85-99zM99-20c44 1 53-31 53-75 0-43-8-75-51-75s-53 32-53 75 10 74 51 75zM76-211c8-23 27-35 38-54h36v5l-58 49H76" id="m"/><path d="M100-194c62-1 85 37 85 99 1 63-27 99-86 99S16-35 15-95c0-66 28-99 85-99zM99-20c44 1 53-31 53-75 0-43-8-75-51-75s-53 32-53 75 10 74 51 75" id="n"/><path d="M135-143c-3-34-86-38-87 0 15 53 115 12 119 90S17 21 10-45l28-5c4 36 97 45 98 0-10-56-113-15-118-90-4-57 82-63 122-42 12 7 21 19 24 35" id="o"/><path d="M33-154v-36h34v36H33zM33 0v-36h34V0H33" id="p"/><g id="a"><use transform="matrix(0.05,0,0,0.05,0,0)" xlink:href="#h"/><use transform="matrix(0.05,0,0,0.05,12.950000000000001,0)" xlink:href="#i"/><use transform="matrix(0.05,0,0,0.05,16.900000000000002,0)" xlink:href="#j"/><use transform="matrix(0.05,0,0,0.05,22.85,0)" xlink:href="#k"/><use transform="matrix(0.05,0,0,0.05,32.85,0)" xlink:href="#l"/><use transform="matrix(0.05,0,0,0.05,37.85,0)" xlink:href="#m"/><use transform="matrix(0.05,0,0,0.05,47.85,0)" xlink:href="#j"/><use transform="matrix(0.05,0,0,0.05,53.800000000000004,0)" xlink:href="#i"/><use transform="matrix(0.05,0,0,0.05,57.75,0)" xlink:href="#n"/><use transform="matrix(0.05,0,0,0.05,67.75,0)" xlink:href="#o"/><use transform="matrix(0.05,0,0,0.05,76.75,0)" xlink:href="#p"/></g><path d="M210-169c-67 3-38 105-44 169h-31v-121c0-29-5-50-35-48C34-165 62-65 56 0H25l-1-190h30c1 10-1 24 2 32 10-44 99-50 107 0 11-21 27-35 58-36 85-2 47 119 55 194h-31v-121c0-29-5-49-35-48" id="q"/><path d="M141-36C126-15 110 5 73 4 37 3 15-17 15-53c-1-64 63-63 125-63 3-35-9-54-41-54-24 1-41 7-42 31l-33-3c5-37 33-52 76-52 45 0 72 20 72 64v82c-1 20 7 32 28 27v20c-31 9-61-2-59-35zM48-53c0 20 12 33 32 33 41-3 63-29 60-74-43 2-92-5-92 41" id="r"/><g id="b"><use transform="matrix(0.05,0,0,0.05,0,0)" xlink:href="#o"/><use transform="matrix(0.05,0,0,0.05,9,0)" xlink:href="#i"/><use transform="matrix(0.05,0,0,0.05,12.949999999999998,0)" xlink:href="#o"/><use transform="matrix(0.05,0,0,0.05,21.95,0)" xlink:href="#l"/><use transform="matrix(0.05,0,0,0.05,26.950000000000003,0)" xlink:href="#k"/><use transform="matrix(0.05,0,0,0.05,36.95,0)" xlink:href="#q"/><use transform="matrix(0.05,0,0,0.05,51.900000000000006,0)" xlink:href="#r"/></g><path d="M27 0v-27h64v-190l-56 39v-29l58-41h29v221h61V0H27" id="s"/><path d="M68-38c1 34 0 65-14 84H32c9-13 17-26 17-46H33v-38h35" id="t"/><g id="c"><use transform="matrix(0.05,0,0,0.05,0,0)" xlink:href="#s"/><use transform="matrix(0.05,0,0,0.05,10,0)" xlink:href="#t"/></g><path d="M101-251c82-7 93 87 43 132L82-64C71-53 59-42 53-27h129V0H18c2-99 128-94 128-182 0-28-16-43-45-43s-46 15-49 41l-32-3c6-41 34-60 81-64" id="u"/><g id="d"><use transform="matrix(0.05,0,0,0.05,0,0)" xlink:href="#u"/><use transform="matrix(0.05,0,0,0.05,10,0)" xlink:href="#t"/></g><path d="M33 0v-38h34V0H33" id="v"/><g id="e"><use transform="matrix(0.05,0,0,0.05,0,0)" xlink:href="#v"/><use transform="matrix(0.05,0,0,0.05,5,0)" xlink:href="#v"/><use transform="matrix(0.05,0,0,0.05,10,0)" xlink:href="#v"/><use transform="matrix(0.05,0,0,0.05,15,0)" xlink:href="#t"/></g><path d="M117-194c89-4 53 116 60 194h-32v-121c0-31-8-49-39-48C34-167 62-67 57 0H25l-1-190h30c1 10-1 24 2 32 11-22 29-35 61-36" id="w"/><use transform="matrix(0.05,0,0,0.05,0,0)" xlink:href="#w" id="f"/><path d="M137 0h-34L2-248h35l83 218 83-218h36" id="x"/><path d="M212-179c-10-28-35-45-73-45-59 0-87 40-87 99 0 60 29 101 89 101 43 0 62-24 78-52l27 14C228-24 195 4 139 4 59 4 22-46 18-125c-6-104 99-153 187-111 19 9 31 26 39 46" id="y"/><path d="M185-189c-5-48-123-54-124 2 14 75 158 14 163 119 3 78-121 87-175 55-17-10-28-26-33-46l33-7c5 56 141 63 141-1 0-78-155-14-162-118-5-82 145-84 179-34 5 7 8 16 11 25" id="z"/><g id="g"><use transform="matrix(0.06172839506172839,0,0,0.06172839506172839,0,0)" xlink:href="#x"/><use transform="matrix(0.06172839506172839,0,0,0.06172839506172839,14.814814814814813,0)" xlink:href="#y"/><use transform="matrix(0.06172839506172839,0,0,0.06172839506172839,30.80246913580247,0)" xlink:href="#z"/></g></defs></g></svg>