<svg xmlns="http://www.w3.org/2000/svg" xmlns:xlink="http://www.w3.org/1999/xlink" xmlns:lucid="lucid" width="480" height="272"><g transform="translate(-80 -68)" lucid:page-tab-id="0_0"><path d="M0 0h1870.4v1323.2H0z" fill="#fff"/><path d="M140 120h380v180H140z" stroke="#000" stroke-width="2" fill="#fff"/><path d="M240 250c0 5.52-17.9 10-40 10s-40-4.48-40-10v-80c0-5.52 17.9-10 40-10s40 4.48 40 10z" stroke="#000" stroke-width="2" fill="#fff"/><path d="M240 170c0 5.52-17.9 10-40 10s-40-4.48-40-10" stroke="#000" stroke-width="2" fill="none"/><use xlink:href="#a" transform="matrix(1,0,0,1,165,185) translate(2.549999999999997 27.525)"/><use xlink:href="#b" transform="matrix(1,0,0,1,165,185) translate(30 49.125)"/><path d="M340 250c0 5.52-17.9 10-40 10s-40-4.48-40-10v-80c0-5.52 17.9-10 40-10s40 4.48 40 10z" stroke="#000" stroke-width="2" fill="#fff"/><path d="M340 170c0 5.52-17.9 10-40 10s-40-4.48-40-10" stroke="#000" stroke-width="2" fill="none"/><use xlink:href="#a" transform="matrix(1,0,0,1,265,185) translate(2.549999999999997 27.525)"/><use xlink:href="#c" transform="matrix(1,0,0,1,265,185) translate(30 49.125)"/><path d="M500 250c0 5.52-17.9 10-40 10s-40-4.48-40-10v-80c0-5.52 17.9-10 40-10s40 4.48 40 10z" stroke="#000" stroke-width="2" fill="#fff"/><path d="M500 170c0 5.52-17.9 10-40 10s-40-4.48-40-10" stroke="#000" stroke-width="2" fill="none"/><use xlink:href="#a" transform="matrix(1,0,0,1,425,185) translate(2.549999999999997 27.525)"/><use xlink:href="#d" transform="matrix(1,0,0,1,425,185) translate(30 49.125)"/><path d="M360 180h40v60h-40z" stroke="#000" stroke-opacity="0" stroke-width="2" fill="#fff" fill-opacity="0"/><use xlink:href="#e" transform="matrix(1,0,0,1,365,185) translate(2.0370370370370345 31.138888888888893)"/><path d="M120 80h80v60h-80z" stroke="#000" stroke-opacity="0" stroke-width="2" fill="#fff" fill-opacity="0"/><g><use xlink:href="#f" transform="matrix(1,0,0,1,125,85) translate(12.191358024691361 30.27777777777778)"/></g><defs><path d="M185-189c-5-48-123-54-124 2 14 75 158 14 163 119 3 78-121 87-175 55-17-10-28-26-33-46l33-7c5 56 141 63 141-1 0-78-155-14-162-118-5-82 145-84 179-34 5 7 8 16 11 25" id="g"/><path d="M24-231v-30h32v30H24zM24 0v-190h32V0H24" id="h"/><path d="M135-143c-3-34-86-38-87 0 15 53 115 12 119 90S17 21 10-45l28-5c4 36 97 45 98 0-10-56-113-15-118-90-4-57 82-63 122-42 12 7 21 19 24 35" id="i"/><path d="M59-47c-2 24 18 29 38 22v24C64 9 27 4 27-40v-127H5v-23h24l9-43h21v43h35v23H59v120" id="j"/><path d="M100-194c63 0 86 42 84 106H49c0 40 14 67 53 68 26 1 43-12 49-29l28 8c-11 28-37 45-77 45C44 4 14-33 15-96c1-61 26-98 85-98zm52 81c6-60-76-77-97-28-3 7-6 17-6 28h103" id="k"/><path d="M210-169c-67 3-38 105-44 169h-31v-121c0-29-5-50-35-48C34-165 62-65 56 0H25l-1-190h30c1 10-1 24 2 32 10-44 99-50 107 0 11-21 27-35 58-36 85-2 47 119 55 194h-31v-121c0-29-5-49-35-48" id="l"/><path d="M141-36C126-15 110 5 73 4 37 3 15-17 15-53c-1-64 63-63 125-63 3-35-9-54-41-54-24 1-41 7-42 31l-33-3c5-37 33-52 76-52 45 0 72 20 72 64v82c-1 20 7 32 28 27v20c-31 9-61-2-59-35zM48-53c0 20 12 33 32 33 41-3 63-29 60-74-43 2-92-5-92 41" id="m"/><g id="a"><use transform="matrix(0.05,0,0,0.05,0,0)" xlink:href="#g"/><use transform="matrix(0.05,0,0,0.05,12,0)" xlink:href="#h"/><use transform="matrix(0.05,0,0,0.05,15.949999999999998,0)" xlink:href="#i"/><use transform="matrix(0.05,0,0,0.05,24.95,0)" xlink:href="#j"/><use transform="matrix(0.05,0,0,0.05,29.950000000000003,0)" xlink:href="#k"/><use transform="matrix(0.05,0,0,0.05,39.95,0)" xlink:href="#l"/><use transform="matrix(0.05,0,0,0.05,54.900000000000006,0)" xlink:href="#m"/></g><path d="M27 0v-27h64v-190l-56 39v-29l58-41h29v221h61V0H27" id="n"/><use transform="matrix(0.05,0,0,0.05,0,0)" xlink:href="#n" id="b"/><path d="M101-251c82-7 93 87 43 132L82-64C71-53 59-42 53-27h129V0H18c2-99 128-94 128-182 0-28-16-43-45-43s-46 15-49 41l-32-3c6-41 34-60 81-64" id="o"/><use transform="matrix(0.05,0,0,0.05,0,0)" xlink:href="#o" id="c"/><path d="M117-194c89-4 53 116 60 194h-32v-121c0-31-8-49-39-48C34-167 62-67 57 0H25l-1-190h30c1 10-1 24 2 32 11-22 29-35 61-36" id="p"/><use transform="matrix(0.05,0,0,0.05,0,0)" xlink:href="#p" id="d"/><path d="M33 0v-38h34V0H33" id="q"/><g id="e"><use transform="matrix(0.08641975308641976,0,0,0.08641975308641976,0,0)" xlink:href="#q"/><use transform="matrix(0.08641975308641976,0,0,0.08641975308641976,8.641975308641976,0)" xlink:href="#q"/><use transform="matrix(0.08641975308641976,0,0,0.08641975308641976,17.283950617283953,0)" xlink:href="#q"/></g><path d="M137 0h-34L2-248h35l83 218 83-218h36" id="r"/><path d="M212-179c-10-28-35-45-73-45-59 0-87 40-87 99 0 60 29 101 89 101 43 0 62-24 78-52l27 14C228-24 195 4 139 4 59 4 22-46 18-125c-6-104 99-153 187-111 19 9 31 26 39 46" id="s"/><g id="f"><use transform="matrix(0.06172839506172839,0,0,0.06172839506172839,0,0)" xlink:href="#r"/><use transform="matrix(0.06172839506172839,0,0,0.06172839506172839,14.814814814814813,0)" xlink:href="#s"/><use transform="matrix(0.06172839506172839,0,0,0.06172839506172839,30.80246913580247,0)" xlink:href="#g"/></g></defs></g></svg>