<svg xmlns="http://www.w3.org/2000/svg" xmlns:xlink="http://www.w3.org/1999/xlink" xmlns:lucid="lucid" width="620" height="380"><g transform="translate(-20 -160)" lucid:page-tab-id="0_0"><path d="M0 0h1870.4v1323.2H0z" fill="#fff"/><path d="M320 310c0 71.8-62.68 130-140 130S40 381.8 40 310s62.68-130 140-130 140 58.2 140 130z" stroke="#000" stroke-width="2" fill="#fff"/><path d="M139.44 240.35c-5.88 1.65-9.28 9.4-7.64 17.35 1.64 7.85 7.64 12.65 13.52 11 5.88-1.7 9.32-9.45 7.68-17.35-1.68-7.8-7.68-12.7-13.56-11zM152.04 270.85c-1.08-.15-2.36 2.4-4 3.4-1.68.8-3.4 2.65-8.16 0-4.72-2.7-5.4-4.95-9.4-4.95S120.12 277.75 120 290h40c-.12 0-.48-8.45-2.72-13-2.68-6.05-4.08-6.15-5.24-6.15zM199.44 240.35c-5.88 1.65-9.28 9.4-7.64 17.35 1.64 7.85 7.64 12.65 13.52 11 5.88-1.7 9.32-9.45 7.68-17.35-1.68-7.8-7.68-12.7-13.56-11zM212.04 270.85c-1.08-.15-2.36 2.4-4 3.4-1.68.8-3.4 2.65-8.16 0-4.72-2.7-5.4-4.95-9.4-4.95S180.12 277.75 180 290h40c-.12 0-.48-8.45-2.72-13-2.68-6.05-4.08-6.15-5.24-6.15zM99.44 320.35c-5.88 1.65-9.28 9.4-7.64 17.35 1.64 7.85 7.64 12.65 13.52 11 5.88-1.7 9.32-9.45 7.68-17.35-1.68-7.8-7.68-12.7-13.56-11zM112.04 350.85c-1.08-.15-2.36 2.4-4 3.4-1.68.8-3.4 2.65-8.16 0-4.72-2.7-5.4-4.95-9.4-4.95S80.12 357.75 80 370h40c-.12 0-.48-8.45-2.72-13-2.68-6.05-4.08-6.15-5.24-6.15zM79.44 240.35c-5.88 1.65-9.28 9.4-7.64 17.35 1.64 7.85 7.64 12.65 13.52 11 5.88-1.7 9.32-9.45 7.68-17.35-1.68-7.8-7.68-12.7-13.56-11zM92.04 270.85c-1.08-.15-2.36 2.4-4 3.4-1.68.8-3.4 2.65-8.16 0-4.72-2.7-5.4-4.95-9.4-4.95S60.12 277.75 60 290h40c-.12 0-.48-8.45-2.72-13-2.68-6.05-4.08-6.15-5.24-6.15zM219.44 320.35c-5.88 1.65-9.28 9.4-7.64 17.35 1.64 7.85 7.64 12.65 13.52 11 5.88-1.7 9.32-9.45 7.68-17.35-1.68-7.8-7.68-12.7-13.56-11zM232.04 350.85c-1.08-.15-2.36 2.4-4 3.4-1.68.8-3.4 2.65-8.16 0-4.72-2.7-5.4-4.95-9.4-4.95S200.12 357.75 200 370h40c-.12 0-.48-8.45-2.72-13-2.68-6.05-4.08-6.15-5.24-6.15zM279.44 280.35c-5.88 1.65-9.28 9.4-7.64 17.35 1.64 7.85 7.64 12.65 13.52 11 5.88-1.7 9.32-9.45 7.68-17.35-1.68-7.8-7.68-12.7-13.56-11zM292.04 310.85c-1.08-.15-2.36 2.4-4 3.4-1.68.8-3.4 2.65-8.16 0-4.72-2.7-5.4-4.95-9.4-4.95S260.12 317.75 260 330h40c-.12 0-.48-8.45-2.72-13-2.68-6.05-4.08-6.15-5.24-6.15zM159.44 320.35c-5.88 1.65-9.28 9.4-7.64 17.35 1.64 7.85 7.64 12.65 13.52 11 5.88-1.7 9.32-9.45 7.68-17.35-1.68-7.8-7.68-12.7-13.56-11zM172.04 350.85c-1.08-.15-2.36 2.4-4 3.4-1.68.8-3.4 2.65-8.16 0-4.72-2.7-5.4-4.95-9.4-4.95S140.12 357.75 140 370h40c-.12 0-.48-8.45-2.72-13-2.68-6.05-4.08-6.15-5.24-6.15z" stroke="#000" stroke-opacity="0" fill="#00188f"/><path d="M620 310c0 71.8-62.68 130-140 130s-140-58.2-140-130 62.68-130 140-130 140 58.2 140 130z" stroke="#000" stroke-width="2" fill="#fff"/><path d="M519.44 220.35c-5.88 1.65-9.28 9.4-7.64 17.35 1.64 7.85 7.64 12.65 13.52 11 5.88-1.7 9.32-9.45 7.68-17.35-1.68-7.8-7.68-12.7-13.56-11zM532.04 250.85c-1.08-.15-2.36 2.4-4 3.4-1.68.8-3.4 2.65-8.16 0-4.72-2.7-5.4-4.95-9.4-4.95S500.12 257.75 500 270h40c-.12 0-.48-8.45-2.72-13-2.68-6.05-4.08-6.15-5.24-6.15zM419.44 220.35c-5.88 1.65-9.28 9.4-7.64 17.35 1.64 7.85 7.64 12.65 13.52 11 5.88-1.7 9.32-9.45 7.68-17.35-1.68-7.8-7.68-12.7-13.56-11zM432.04 250.85c-1.08-.15-2.36 2.4-4 3.4-1.68.8-3.4 2.65-8.16 0-4.72-2.7-5.4-4.95-9.4-4.95S400.12 257.75 400 270h40c-.12 0-.48-8.45-2.72-13-2.68-6.05-4.08-6.15-5.24-6.15zM479.44 300.35c-5.88 1.65-9.28 9.4-7.64 17.35 1.64 7.85 7.64 12.65 13.52 11 5.88-1.7 9.32-9.45 7.68-17.35-1.68-7.8-7.68-12.7-13.56-11zM492.04 330.85c-1.08-.15-2.36 2.4-4 3.4-1.68.8-3.4 2.65-8.16 0-4.72-2.7-5.4-4.95-9.4-4.95S460.12 337.75 460 350h40c-.12 0-.48-8.45-2.72-13-2.68-6.05-4.08-6.15-5.24-6.15zM539.44 360.35c-5.88 1.65-9.28 9.4-7.64 17.35 1.64 7.85 7.64 12.65 13.52 11 5.88-1.7 9.32-9.45 7.68-17.35-1.68-7.8-7.68-12.7-13.56-11zM552.04 390.85c-1.08-.15-2.36 2.4-4 3.4-1.68.8-3.4 2.65-8.16 0-4.72-2.7-5.4-4.95-9.4-4.95S520.12 397.75 520 410h40c-.12 0-.48-8.45-2.72-13-2.68-6.05-4.08-6.15-5.24-6.15zM419.44 360.35c-5.88 1.65-9.28 9.4-7.64 17.35 1.64 7.85 7.64 12.65 13.52 11 5.88-1.7 9.32-9.45 7.68-17.35-1.68-7.8-7.68-12.7-13.56-11zM432.04 390.85c-1.08-.15-2.36 2.4-4 3.4-1.68.8-3.4 2.65-8.16 0-4.72-2.7-5.4-4.95-9.4-4.95S400.12 397.75 400 410h40c-.12 0-.48-8.45-2.72-13-2.68-6.05-4.08-6.15-5.24-6.15z" stroke="#000" stroke-opacity="0" fill="#ff8f80"/><path d="M60 460h240v60H60z" stroke="#000" stroke-opacity="0" stroke-width="2" fill="#fff" fill-opacity="0"/><use xlink:href="#a" transform="matrix(1,0,0,1,65,465) translate(91.33333333333333 30.708333333333336)"/><path d="M360 460h240v60H360z" stroke="#000" stroke-opacity="0" stroke-width="2" fill="#fff" fill-opacity="0"/><use xlink:href="#b" transform="matrix(1,0,0,1,365,465) translate(90.55555555555556 30.708333333333336)"/><defs><path d="M30-248c118-7 216 8 213 122C240-48 200 0 122 0H30v-248zM63-27c89 8 146-16 146-99s-60-101-146-95v194" id="c"/><path d="M100-194c63 0 86 42 84 106H49c0 40 14 67 53 68 26 1 43-12 49-29l28 8c-11 28-37 45-77 45C44 4 14-33 15-96c1-61 26-98 85-98zm52 81c6-60-76-77-97-28-3 7-6 17-6 28h103" id="d"/><path d="M108 0H70L1-190h34L89-25l56-165h34" id="e"/><g id="a"><use transform="matrix(0.07407407407407408,0,0,0.07407407407407408,0,0)" xlink:href="#c"/><use transform="matrix(0.07407407407407408,0,0,0.07407407407407408,19.185185185185187,0)" xlink:href="#d"/><use transform="matrix(0.07407407407407408,0,0,0.07407407407407408,34,0)" xlink:href="#e"/></g><path d="M140-251c81 0 123 46 123 126C263-46 219 4 140 4 59 4 17-45 17-125s42-126 123-126zm0 227c63 0 89-41 89-101s-29-99-89-99c-61 0-89 39-89 99S79-25 140-24" id="f"/><path d="M115-194c55 1 70 41 70 98S169 2 115 4C84 4 66-9 55-30l1 105H24l-1-265h31l2 30c10-21 28-34 59-34zm-8 174c40 0 45-34 45-75s-6-73-45-74c-42 0-51 32-51 76 0 43 10 73 51 73" id="g"/><path d="M135-143c-3-34-86-38-87 0 15 53 115 12 119 90S17 21 10-45l28-5c4 36 97 45 98 0-10-56-113-15-118-90-4-57 82-63 122-42 12 7 21 19 24 35" id="h"/><g id="b"><use transform="matrix(0.07407407407407408,0,0,0.07407407407407408,0,0)" xlink:href="#f"/><use transform="matrix(0.07407407407407408,0,0,0.07407407407407408,20.740740740740744,0)" xlink:href="#g"/><use transform="matrix(0.07407407407407408,0,0,0.07407407407407408,35.55555555555556,0)" xlink:href="#h"/></g></defs></g></svg>