<svg xmlns="http://www.w3.org/2000/svg" xmlns:xlink="http://www.w3.org/1999/xlink" xmlns:lucid="lucid" width="520" height="500"><g transform="translate(-100 0)" lucid:page-tab-id="0_0"><path d="M0 0h1870.4v1323.2H0z" fill="#fff"/><path d="M400 232c0 4.42-17.9 8-40 8s-40-3.58-40-8v-64c0-4.42 17.9-8 40-8s40 3.58 40 8z" stroke="#000" stroke-width="2" fill="#fff"/><path d="M400 168c0 4.42-17.9 8-40 8s-40-3.58-40-8" stroke="#000" stroke-width="2" fill="none"/><use xlink:href="#a" transform="matrix(1,0,0,1,325,181) translate(1.3703703703703738 30.916666666666668)"/><path d="M140 400h140v80H140z" stroke="#000" stroke-width="2" fill="#fff"/><use xlink:href="#b" transform="matrix(1,0,0,1,145,405) translate(30.52469135802469 39.65277777777778)"/><path d="M440 400h140v80H440z" stroke="#000" stroke-width="2" fill="#fff"/><use xlink:href="#b" transform="matrix(1,0,0,1,445,405) translate(30.52469135802469 39.65277777777778)"/><path d="M210 380.5V200h108" fill="none"/><path d="M210 380.5v-3m0-3.97v-5.96m0-3.98v-5.98m0-3.98v-5.97m0-3.98v-5.98m0-3.98v-5.97m0-3.98v-5.98m0-3.97v-5.97m0-3.98v-5.97m0-3.98v-5.97m0-3.98v-5.97m0-3.98v-5.97m0-3.98v-5.96m0-3.98v-5.97m0-4v-5.96m0-3.98v-5.97m0-4v-5.96m0-3.98v-5.97m0-4V200h1.55m3.98 0h5.97m3.98 0h5.97m3.98 0h5.97m3.98 0h5.97m3.98 0h5.97m3.97 0h5.97m3.98 0h5.97m3.97 0h5.97m3.98 0h5.97m3.97 0h5.97m3.98 0H318" stroke="#000" stroke-width="2" fill="none"/><path d="M210 395.76l-4.64-14.26h9.28z" stroke="#000" stroke-width="2"/><path d="M319 201h-1.03v-2H319z"/><path d="M510 380.5V200H402" fill="none"/><path d="M510 380.5v-3m0-3.97v-5.96m0-3.98v-5.98m0-3.98v-5.97m0-3.98v-5.98m0-3.98v-5.97m0-3.98v-5.98m0-3.97v-5.97m0-3.98v-5.97m0-3.98v-5.97m0-3.98v-5.97m0-3.98v-5.97m0-3.98v-5.96m0-3.98v-5.97m0-4v-5.96m0-3.98v-5.97m0-4v-5.96m0-3.98v-5.97m0-4V200h-1.55m-3.98 0h-5.97m-3.98 0h-5.97m-3.98 0h-5.97m-3.98 0h-5.97m-3.98 0h-5.97m-3.97 0h-5.97m-3.98 0h-5.97m-3.97 0h-5.97m-3.98 0h-5.97m-3.97 0h-5.97m-3.98 0H402" stroke="#000" stroke-width="2" fill="none"/><path d="M510 395.76l-4.64-14.26h9.28z" stroke="#000" stroke-width="2"/><path d="M402.03 201H401v-2h1.03z"/><path d="M300.5 229.33h-59.83V398" fill="none"/><path d="M300.5 229.33h-2.98m-3.98 0h-5.96m-3.97 0h-5.95m-3.98 0h-5.96m-3.96 0h-5.96m-3.98 0h-5.96m-3.97 0h-3.2v2.76m0 3.96v5.97m0 3.97v5.96m0 3.97v5.96m0 3.97v5.96m0 3.97v5.96m0 3.98v5.96m0 3.97v5.96m0 3.98v5.97m0 3.97v5.96m0 3.98v5.96m0 3.97v5.97m0 3.98v5.96m0 3.98v5.96m0 3.98v5.96m0 3.97v5.96m0 3.98v5.97m0 3.97V398" stroke="#000" stroke-width="2" fill="none"/><path d="M315.76 229.33l-14.26 4.64v-9.27z" stroke="#000" stroke-width="2"/><path d="M241.67 399h-2v-1.03h2z"/><path d="M120 300h80v60h-80z" stroke="#000" stroke-opacity="0" stroke-width="2" fill="#fff" fill-opacity="0"/><use xlink:href="#c" transform="matrix(1,0,0,1,125,305) translate(7.5 30.025)"/><path d="M476.67 398V233H419.3" fill="none"/><path d="M476.67 398v-3.03m0-4.04v-6.07m0-4.04v-6.07m0-4.04v-6.05m0-4.05v-6.06m0-4.04v-6.07m0-4.04v-6.07m0-4.05v-6.06m0-4.04v-6.07m0-4.03V304m0-4.04v-6.06m0-4.04v-6.07m0-4.05v-6.07m0-4.04v-6.06m0-4.05v-6.06m0-4.04v-6.07m0-4.04v-6.06m-3.8-.25h-6.06m-4.03 0h-6.07m-4.04 0h-6.06m-4.05 0h-6.06m-4.05 0h-6.07m-4.04 0h-3.03" stroke="#000" stroke-width="2" fill="none"/><path d="M477.67 399h-2v-1.03h2z"/><path d="M404.04 233l14.27-4.63v9.27z" stroke="#000" stroke-width="2"/><path d="M240 300h80v60h-80z" stroke="#000" stroke-opacity="0" stroke-width="2" fill="#fff" fill-opacity="0"/><use xlink:href="#d" transform="matrix(1,0,0,1,245,305) translate(6.074999999999996 30.025)"/><path d="M400 300h80v60h-80z" stroke="#000" stroke-opacity="0" stroke-width="2" fill="#fff" fill-opacity="0"/><use xlink:href="#d" transform="matrix(1,0,0,1,405,305) translate(6.074999999999996 30.025)"/><path d="M520 300h80v60h-80z" stroke="#000" stroke-opacity="0" stroke-width="2" fill="#fff" fill-opacity="0"/><use xlink:href="#c" transform="matrix(1,0,0,1,525,305) translate(7.5 30.025)"/><path d="M280 40h160v80H280z" stroke="#000" stroke-width="2" fill="#fff"/><use xlink:href="#e" transform="matrix(1,0,0,1,285,45) translate(33.73456790123457 39.65277777777778)"/><path d="M360 122v36" stroke="#000" stroke-width="2" fill="none"/><path d="M361 122.03h-2V121h2zM361 159.06l-1-.06-1 .03v-1.06h2z"/><path d="M180 20h360v240H180z" stroke="#000" fill-opacity="0"/><defs><path d="M233-177c-1 41-23 64-60 70L243 0h-38l-65-103H63V0H30v-248c88 3 205-21 203 71zM63-129c60-2 137 13 137-47 0-61-80-42-137-45v92" id="f"/><path d="M100-194c63 0 86 42 84 106H49c0 40 14 67 53 68 26 1 43-12 49-29l28 8c-11 28-37 45-77 45C44 4 14-33 15-96c1-61 26-98 85-98zm52 81c6-60-76-77-97-28-3 7-6 17-6 28h103" id="g"/><path d="M115-194c55 1 70 41 70 98S169 2 115 4C84 4 66-9 55-30l1 105H24l-1-265h31l2 30c10-21 28-34 59-34zm-8 174c40 0 45-34 45-75s-6-73-45-74c-42 0-51 32-51 76 0 43 10 73 51 73" id="h"/><path d="M100-194c62-1 85 37 85 99 1 63-27 99-86 99S16-35 15-95c0-66 28-99 85-99zM99-20c44 1 53-31 53-75 0-43-8-75-51-75s-53 32-53 75 10 74 51 75" id="i"/><path d="M135-143c-3-34-86-38-87 0 15 53 115 12 119 90S17 21 10-45l28-5c4 36 97 45 98 0-10-56-113-15-118-90-4-57 82-63 122-42 12 7 21 19 24 35" id="j"/><path d="M24-231v-30h32v30H24zM24 0v-190h32V0H24" id="k"/><path d="M59-47c-2 24 18 29 38 22v24C64 9 27 4 27-40v-127H5v-23h24l9-43h21v43h35v23H59v120" id="l"/><path d="M100-194c62-1 85 37 85 99 1 63-27 99-86 99S16-35 15-95c0-66 28-99 85-99zM99-20c44 1 53-31 53-75 0-43-8-75-51-75s-53 32-53 75 10 74 51 75zM76-211c8-23 27-35 38-54h36v5l-58 49H76" id="m"/><path d="M114-163C36-179 61-72 57 0H25l-1-190h30c1 12-1 29 2 39 6-27 23-49 58-41v29" id="n"/><g id="a"><use transform="matrix(0.03703703703703704,0,0,0.03703703703703704,0,0)" xlink:href="#f"/><use transform="matrix(0.03703703703703704,0,0,0.03703703703703704,9.592592592592593,0)" xlink:href="#g"/><use transform="matrix(0.03703703703703704,0,0,0.03703703703703704,17,0)" xlink:href="#h"/><use transform="matrix(0.03703703703703704,0,0,0.03703703703703704,24.407407407407405,0)" xlink:href="#i"/><use transform="matrix(0.03703703703703704,0,0,0.03703703703703704,31.814814814814813,0)" xlink:href="#j"/><use transform="matrix(0.03703703703703704,0,0,0.03703703703703704,38.48148148148148,0)" xlink:href="#k"/><use transform="matrix(0.03703703703703704,0,0,0.03703703703703704,41.407407407407405,0)" xlink:href="#l"/><use transform="matrix(0.03703703703703704,0,0,0.03703703703703704,45.11111111111111,0)" xlink:href="#m"/><use transform="matrix(0.03703703703703704,0,0,0.03703703703703704,52.51851851851852,0)" xlink:href="#n"/><use transform="matrix(0.03703703703703704,0,0,0.03703703703703704,56.925925925925924,0)" xlink:href="#k"/><use transform="matrix(0.03703703703703704,0,0,0.03703703703703704,59.851851851851855,0)" xlink:href="#i"/></g><path d="M212-179c-10-28-35-45-73-45-59 0-87 40-87 99 0 60 29 101 89 101 43 0 62-24 78-52l27 14C228-24 195 4 139 4 59 4 22-46 18-125c-6-104 99-153 187-111 19 9 31 26 39 46" id="o"/><path d="M24 0v-261h32V0H24" id="p"/><path d="M117-194c89-4 53 116 60 194h-32v-121c0-31-8-49-39-48C34-167 62-67 57 0H25l-1-190h30c1 10-1 24 2 32 11-22 29-35 61-36" id="q"/><g id="b"><use transform="matrix(0.06172839506172839,0,0,0.06172839506172839,0,0)" xlink:href="#o"/><use transform="matrix(0.06172839506172839,0,0,0.06172839506172839,15.987654320987653,0)" xlink:href="#p"/><use transform="matrix(0.06172839506172839,0,0,0.06172839506172839,20.864197530864196,0)" xlink:href="#k"/><use transform="matrix(0.06172839506172839,0,0,0.06172839506172839,25.74074074074074,0)" xlink:href="#g"/><use transform="matrix(0.06172839506172839,0,0,0.06172839506172839,38.08641975308642,0)" xlink:href="#q"/><use transform="matrix(0.06172839506172839,0,0,0.06172839506172839,50.432098765432094,0)" xlink:href="#l"/><use transform="matrix(0.06172839506172839,0,0,0.06172839506172839,56.60493827160494,0)" xlink:href="#g"/></g><path d="M84 4C-5 8 30-112 23-190h32v120c0 31 7 50 39 49 72-2 45-101 50-169h31l1 190h-30c-1-10 1-25-2-33-11 22-28 36-60 37" id="r"/><path d="M85-194c31 0 48 13 60 33l-1-100h32l1 261h-30c-2-10 0-23-3-31C134-8 116 4 85 4 32 4 16-35 15-94c0-66 23-100 70-100zm9 24c-40 0-46 34-46 75 0 40 6 74 45 74 42 0 51-32 51-76 0-42-9-74-50-73" id="s"/><path d="M141-36C126-15 110 5 73 4 37 3 15-17 15-53c-1-64 63-63 125-63 3-35-9-54-41-54-24 1-41 7-42 31l-33-3c5-37 33-52 76-52 45 0 72 20 72 64v82c-1 20 7 32 28 27v20c-31 9-61-2-59-35zM48-53c0 20 12 33 32 33 41-3 63-29 60-74-43 2-92-5-92 41" id="t"/><g id="c"><use transform="matrix(0.05,0,0,0.05,0,0)" xlink:href="#r"/><use transform="matrix(0.05,0,0,0.05,10,0)" xlink:href="#h"/><use transform="matrix(0.05,0,0,0.05,20,0)" xlink:href="#s"/><use transform="matrix(0.05,0,0,0.05,30,0)" xlink:href="#t"/><use transform="matrix(0.05,0,0,0.05,40,0)" xlink:href="#l"/><use transform="matrix(0.05,0,0,0.05,45,0)" xlink:href="#g"/></g><path d="M96-169c-40 0-48 33-48 73s9 75 48 75c24 0 41-14 43-38l32 2c-6 37-31 61-74 61-59 0-76-41-82-99-10-93 101-131 147-64 4 7 5 14 7 22l-32 3c-4-21-16-35-41-35" id="u"/><path d="M210-169c-67 3-38 105-44 169h-31v-121c0-29-5-50-35-48C34-165 62-65 56 0H25l-1-190h30c1 10-1 24 2 32 10-44 99-50 107 0 11-21 27-35 58-36 85-2 47 119 55 194h-31v-121c0-29-5-49-35-48" id="v"/><g id="d"><use transform="matrix(0.05,0,0,0.05,0,0)" xlink:href="#u"/><use transform="matrix(0.05,0,0,0.05,9,0)" xlink:href="#i"/><use transform="matrix(0.05,0,0,0.05,19,0)" xlink:href="#v"/><use transform="matrix(0.05,0,0,0.05,33.95,0)" xlink:href="#v"/><use transform="matrix(0.05,0,0,0.05,48.900000000000006,0)" xlink:href="#k"/><use transform="matrix(0.05,0,0,0.05,52.85,0)" xlink:href="#l"/></g><path d="M185-189c-5-48-123-54-124 2 14 75 158 14 163 119 3 78-121 87-175 55-17-10-28-26-33-46l33-7c5 56 141 63 141-1 0-78-155-14-162-118-5-82 145-84 179-34 5 7 8 16 11 25" id="w"/><path d="M108 0H70L1-190h34L89-25l56-165h34" id="x"/><g id="e"><use transform="matrix(0.06172839506172839,0,0,0.06172839506172839,0,0)" xlink:href="#w"/><use transform="matrix(0.06172839506172839,0,0,0.06172839506172839,14.814814814814813,0)" xlink:href="#g"/><use transform="matrix(0.06172839506172839,0,0,0.06172839506172839,27.160493827160494,0)" xlink:href="#n"/><use transform="matrix(0.06172839506172839,0,0,0.06172839506172839,34.50617283950617,0)" xlink:href="#x"/><use transform="matrix(0.06172839506172839,0,0,0.06172839506172839,45.61728395061728,0)" xlink:href="#k"/><use transform="matrix(0.06172839506172839,0,0,0.06172839506172839,50.49382716049382,0)" xlink:href="#s"/><use transform="matrix(0.06172839506172839,0,0,0.06172839506172839,62.8395061728395,0)" xlink:href="#i"/><use transform="matrix(0.06172839506172839,0,0,0.06172839506172839,75.18518518518518,0)" xlink:href="#n"/></g></defs></g></svg>