<svg xmlns="http://www.w3.org/2000/svg" xmlns:xlink="http://www.w3.org/1999/xlink" xmlns:lucid="lucid" width="440" height="540"><g transform="translate(-440 -120)" lucid:page-tab-id="0_0"><path d="M0 0h1870.87v1322.83H0z" fill="#fff"/><path d="M538.17 145.7c1-3.14 4.52-5.7 7.83-5.7h228c3.3 0 6.82 2.56 7.83 5.7l76.34 238.6c1 3.14 1 8.26 0 11.4l-76.34 238.6c-1 3.14-4.52 5.7-7.83 5.7H546c-3.3 0-6.82-2.56-7.83-5.7l-76.34-238.6c-1-3.14-1-8.26 0-11.4z" stroke="#5e5e5e" stroke-width="3" fill="#c7e8ac"/><path d="M586.28 225.75c.95-3.18 4.4-5.75 7.72-5.75h132c3.3 0 6.77 2.57 7.72 5.75l44.56 148.5c.95 3.18.95 8.32 0 11.5l-44.56 148.5c-.95 3.18-4.4 5.75-7.72 5.75H594c-3.3 0-6.77-2.57-7.72-5.75l-44.56-148.5c-.95-3.18-.95-8.32 0-11.5z" stroke="#5e5e5e" stroke-width="3" fill="#ffeca9"/><use xlink:href="#a" transform="matrix(1,0,0,1,545,225) translate(33.856851851851864 141.13888888888889)"/><use xlink:href="#b" transform="matrix(1,0,0,1,545,225) translate(159.94327160493827 141.13888888888889)"/><use xlink:href="#c" transform="matrix(1,0,0,1,545,225) translate(52.95561728395062 178.4722222222222)"/><path d="M540 166c0-3.3 2.7-6 6-6h228c3.3 0 6 2.7 6 6v48c0 3.3-2.7 6-6 6H546c-3.3 0-6-2.7-6-6z" stroke="#000" stroke-opacity="0" stroke-width="3" fill="#fff" fill-opacity="0"/><use xlink:href="#d" transform="matrix(1,0,0,1,545,165) translate(47.28395061728395 30.27777777777778)"/><path d="M540 566c0-3.3 2.7-6 6-6h228c3.3 0 6 2.7 6 6v48c0 3.3-2.7 6-6 6H546c-3.3 0-6-2.7-6-6z" stroke="#000" stroke-opacity="0" stroke-width="3" fill="#fff" fill-opacity="0"/><use xlink:href="#d" transform="matrix(1,0,0,1,545,565) translate(47.28395061728395 30.27777777777778)"/><path d="M465.63 394.17c-3.1-1.15-4.7-4.6-3.54-7.7l79.26-213.8c1.15-3.1 4.6-4.68 7.7-3.53l45.02 16.7c3.1 1.14 4.7 4.6 3.54 7.7l-79.28 213.78c-1.15 3.1-4.6 4.7-7.7 3.54z" stroke="#000" stroke-opacity="0" stroke-width="3" fill="#fff" fill-opacity="0"/><use xlink:href="#d" transform="matrix(0.34769998598372065,-0.9376058445567201,0.9376058445567201,0.34769998598372065,466.42652915270224,389.13217247442986) translate(47.28395061728395 30.27777777777778)"/><path d="M771.57 161.78c3.16-.98 6.53.8 7.5 3.95l67.64 217.74c1 3.16-.78 6.53-3.94 7.5l-45.84 14.25c-3.17.98-6.53-.8-7.5-3.95l-67.64-217.74c-.98-3.17.8-6.53 3.95-7.5z" stroke="#000" stroke-opacity="0" stroke-width="3" fill="#fff" fill-opacity="0"/><use xlink:href="#d" transform="matrix(0.2966042454217561,0.9550004825118104,-0.9550004825118104,0.2966042454217561,774.0080477652584,166.25802363966784) translate(47.28395061728395 30.27777777777778)"/><path d="M839.9 355.33c3.17.94 4.98 4.27 4.04 7.45l-64.7 218.63c-.94 3.18-4.28 5-7.46 4.06l-46.03-13.63c-3.17-.94-5-4.27-4.05-7.45l64.7-218.63c.95-3.17 4.3-5 7.47-4.05z" stroke="#000" stroke-opacity="0" stroke-width="3" fill="#fff" fill-opacity="0"/><use xlink:href="#d" transform="matrix(-0.2838079967873607,0.9588811297337879,-0.9588811297337879,-0.2838079967873607,839.4333413803881,360.4038454719738) translate(47.28395061728395 30.27777777777778)"/><path d="M546 584.78c-3.14 1.04-6.54-.66-7.58-3.8l-71.95-216.35c-1.04-3.15.66-6.54 3.8-7.6l45.55-15.14c3.14-1.05 6.54.65 7.6 3.8l71.93 216.34c1.05 3.15-.65 6.54-3.8 7.6z" stroke="#000" stroke-opacity="0" stroke-width="3" fill="#fff" fill-opacity="0"/><g><use xlink:href="#d" transform="matrix(-0.31556120223761963,-0.9489052258483711,0.9489052258483711,-0.31556120223761963,543.4791614173614,580.3485941974362) translate(47.28395061728395 30.27777777777778)"/></g><defs><path fill="#333" d="M67-125c0 53 21 87 73 88 37 1 54-22 65-47l45 17C233-25 199 4 140 4 58 4 20-42 15-125 8-235 124-281 211-232c18 10 29 29 36 50l-46 12c-8-25-30-41-62-41-52 0-71 34-72 86" id="e"/><path fill="#333" d="M25 0v-261h50V0H25" id="f"/><path fill="#333" d="M133-34C117-15 103 5 69 4 32 3 11-16 11-54c-1-60 55-63 116-61 1-26-3-47-28-47-18 1-26 9-28 27l-52-2c7-38 36-58 82-57s74 22 75 68l1 82c-1 14 12 18 25 15v27c-30 8-71 5-69-32zm-48 3c29 0 43-24 42-57-32 0-66-3-65 30 0 17 8 27 23 27" id="g"/><path fill="#333" d="M137-138c1-29-70-34-71-4 15 46 118 7 119 86 1 83-164 76-172 9l43-7c4 19 20 25 44 25 33 8 57-30 24-41C81-84 22-81 20-136c-2-80 154-74 161-7" id="h"/><path fill="#333" d="M185-48c-13 30-37 53-82 52C43 2 14-33 14-96s30-98 90-98c62 0 83 45 84 108H66c0 31 8 55 39 56 18 0 30-7 34-22zm-45-69c5-46-57-63-70-21-2 6-4 13-4 21h74" id="i"/><g id="a"><use transform="matrix(0.08641975308641973,0,0,0.08641975308641973,0,0)" xlink:href="#e"/><use transform="matrix(0.08641975308641973,0,0,0.08641975308641973,22.38271604938271,0)" xlink:href="#f"/><use transform="matrix(0.08641975308641973,0,0,0.08641975308641973,31.024691358024686,0)" xlink:href="#g"/><use transform="matrix(0.08641975308641973,0,0,0.08641975308641973,48.30864197530863,0)" xlink:href="#h"/><use transform="matrix(0.08641975308641973,0,0,0.08641975308641973,65.59259259259258,0)" xlink:href="#h"/><use transform="matrix(0.08641975308641973,0,0,0.08641975308641973,82.87654320987653,0)" xlink:href="#i"/><use transform="matrix(0.08641975308641973,0,0,0.08641975308641973,100.16049382716047,0)" xlink:href="#h"/></g><path fill="#333" d="M88-194c31-1 46 15 58 34l-1-101h50l1 261h-48c-2-10 0-23-3-31C134-8 116 4 84 4 32 4 16-41 15-95c0-56 19-97 73-99zm17 164c33 0 40-30 41-66 1-37-9-64-41-64s-38 30-39 65c0 43 13 65 39 65" id="j"/><g id="b"><use transform="matrix(0.08641975308641973,0,0,0.08641975308641973,0,0)" xlink:href="#j"/><use transform="matrix(0.08641975308641973,0,0,0.08641975308641973,18.92592592592592,0)" xlink:href="#i"/></g><path fill="#333" d="M24-248c120-7 223 5 221 122C244-46 201 0 124 0H24v-248zM76-40c74 7 117-18 117-86 0-67-45-88-117-82v168" id="k"/><path fill="#333" d="M110-194c64 0 96 36 96 99 0 64-35 99-97 99-61 0-95-36-95-99 0-62 34-99 96-99zm-1 164c35 0 45-28 45-65 0-40-10-65-43-65-34 0-45 26-45 65 0 36 10 65 43 65" id="l"/><path fill="#333" d="M220-157c-53 9-28 100-34 157h-49v-107c1-27-5-49-29-50C55-147 81-57 75 0H25l-1-190h47c2 12-1 28 3 38 10-53 101-56 108 0 13-22 24-43 59-42 82 1 51 116 57 194h-49v-107c-1-25-5-48-29-50" id="m"/><path fill="#333" d="M25 0v-190h50V0H25zm-5-208v-5l45-51h45v8l-60 48H20" id="n"/><path fill="#333" d="M135-194c87-1 58 113 63 194h-50c-7-57 23-157-34-157-59 0-34 97-39 157H25l-1-190h47c2 12-1 28 3 38 12-26 28-41 61-42" id="o"/><path fill="#333" d="M25-224v-37h50v37H25zM25 0v-190h50V0H25" id="p"/><g id="c"><use transform="matrix(0.08641975308641973,0,0,0.08641975308641973,0,0)" xlink:href="#k"/><use transform="matrix(0.08641975308641973,0,0,0.08641975308641973,22.38271604938271,0)" xlink:href="#l"/><use transform="matrix(0.08641975308641973,0,0,0.08641975308641973,41.30864197530863,0)" xlink:href="#m"/><use transform="matrix(0.08641975308641973,0,0,0.08641975308641973,68.96296296296295,0)" xlink:href="#n"/><use transform="matrix(0.08641975308641973,0,0,0.08641975308641973,77.60493827160492,0)" xlink:href="#o"/><use transform="matrix(0.08641975308641973,0,0,0.08641975308641973,96.53086419753085,0)" xlink:href="#p"/><use transform="matrix(0.08641975308641973,0,0,0.08641975308641973,105.17283950617282,0)" xlink:href="#l"/></g><path fill="#333" d="M199 0l-22-63H83L61 0H9l90-248h61L250 0h-51zm-33-102l-36-108c-10 38-24 72-36 108h72" id="q"/><path fill="#333" d="M135-194c53 0 70 44 70 98 0 56-19 98-73 100-31 1-45-17-59-34 3 33 2 69 2 105H25l-1-265h48c2 10 0 23 3 31 11-24 29-35 60-35zM114-30c33 0 39-31 40-66 0-38-9-64-40-64-56 0-55 130 0 130" id="r"/><path fill="#333" d="M115-3C79 11 28 4 28-45v-112H4v-33h27l15-45h31v45h36v33H77v99c-1 23 16 31 38 25v30" id="s"/><path fill="#333" d="M135-150c-39-12-60 13-60 57V0H25l-1-190h47c2 13-1 29 3 40 6-28 27-53 61-41v41" id="t"/><g id="d"><use transform="matrix(0.06172839506172839,0,0,0.06172839506172839,0,0)" xlink:href="#q"/><use transform="matrix(0.06172839506172839,0,0,0.06172839506172839,15.987654320987653,0)" xlink:href="#j"/><use transform="matrix(0.06172839506172839,0,0,0.06172839506172839,29.50617283950617,0)" xlink:href="#g"/><use transform="matrix(0.06172839506172839,0,0,0.06172839506172839,41.85185185185185,0)" xlink:href="#r"/><use transform="matrix(0.06172839506172839,0,0,0.06172839506172839,55.37037037037037,0)" xlink:href="#s"/><use transform="matrix(0.06172839506172839,0,0,0.06172839506172839,62.716049382716044,0)" xlink:href="#g"/><use transform="matrix(0.06172839506172839,0,0,0.06172839506172839,75.06172839506172,0)" xlink:href="#j"/><use transform="matrix(0.06172839506172839,0,0,0.06172839506172839,88.58024691358024,0)" xlink:href="#l"/><use transform="matrix(0.06172839506172839,0,0,0.06172839506172839,102.09876543209876,0)" xlink:href="#t"/><use transform="matrix(0.06172839506172839,0,0,0.06172839506172839,110.74074074074073,0)" xlink:href="#i"/><use transform="matrix(0.06172839506172839,0,0,0.06172839506172839,123.08641975308642,0)" xlink:href="#h"/></g></defs></g></svg>