<svg xmlns="http://www.w3.org/2000/svg" xmlns:xlink="http://www.w3.org/1999/xlink" xmlns:lucid="lucid" width="1048" height="660"><g transform="translate(-238.66666666666646 -40)" lucid:page-tab-id="0_0"><path d="M0 0h1870.87v1322.83H0z" fill="#fff"/><path d="M258.67 78.67c0-3.32 2.68-6 6-6h228c3.3 0 6 2.68 6 6v48c0 3.3-2.7 6-6 6h-228c-3.32 0-6-2.7-6-6z" fill="none"/><use xlink:href="#a" transform="matrix(1,0,0,1,258.66666666666646,72.66666666666667) translate(31.96913580246914 35.77777777777778)"/><path d="M695.5 286c0-3.3 2.7-6 6-6h208c3.3 0 6 2.7 6 6v148c0 3.3-2.7 6-6 6h-208c-3.3 0-6-2.7-6-6z" stroke="#5e5e5e" stroke-width="3" fill="#fff"/><path d="M695.5 339.2h220" stroke="#5e5e5e" stroke-width="3" fill="none"/><use xlink:href="#b" transform="matrix(1,0,0,1,703.5,288) translate(43.574999999999996 14.799999999999999)"/><use xlink:href="#c" transform="matrix(1,0,0,1,703.5,288) translate(15.099999999999994 36.4)"/><use xlink:href="#d" transform="matrix(1,0,0,1,707.5,347.2) translate(0 46.94444444444444)"/><use xlink:href="#e" transform="matrix(1,0,0,1,707.5,347.2) translate(19.1358024691358 46.94444444444444)"/><use xlink:href="#f" transform="matrix(1,0,0,1,707.5,347.2) translate(138.7037037037037 46.94444444444444)"/><path d="M1060 186c0-3.3 2.7-6 6-6h128c3.3 0 6 2.7 6 6v108c0 3.3-2.7 6-6 6h-128c-3.3 0-6-2.7-6-6z" stroke="#5e5e5e" stroke-width="3" fill="#fff"/><use xlink:href="#g" transform="matrix(1,0,0,1,1068,188) translate(20.672839506172842 43.111111111111114)"/><use xlink:href="#h" transform="matrix(1,0,0,1,1068,188) translate(78.6358024691358 43.111111111111114)"/><use xlink:href="#i" transform="matrix(1,0,0,1,1068,188) translate(33.01851851851852 69.77777777777777)"/><use xlink:href="#j" transform="matrix(1,0,0,1,1068,188) translate(78.6358024691358 69.77777777777777)"/><path d="M1060 326c0-3.3 2.7-6 6-6h128c3.3 0 6 2.7 6 6v108c0 3.3-2.7 6-6 6h-128c-3.3 0-6-2.7-6-6z" stroke="#5e5e5e" stroke-width="3" fill="#fff"/><use xlink:href="#g" transform="matrix(1,0,0,1,1068,328) translate(20.672839506172842 43.111111111111114)"/><use xlink:href="#h" transform="matrix(1,0,0,1,1068,328) translate(78.6358024691358 43.111111111111114)"/><use xlink:href="#i" transform="matrix(1,0,0,1,1068,328) translate(33.01851851851852 69.77777777777777)"/><use xlink:href="#k" transform="matrix(1,0,0,1,1068,328) translate(78.6358024691358 69.77777777777777)"/><path d="M1060 466c0-3.3 2.7-6 6-6h128c3.3 0 6 2.7 6 6v108c0 3.3-2.7 6-6 6h-128c-3.3 0-6-2.7-6-6z" stroke="#5e5e5e" stroke-width="3" fill="#fff"/><use xlink:href="#g" transform="matrix(1,0,0,1,1068,468) translate(20.672839506172842 43.111111111111114)"/><use xlink:href="#h" transform="matrix(1,0,0,1,1068,468) translate(78.6358024691358 43.111111111111114)"/><use xlink:href="#i" transform="matrix(1,0,0,1,1068,468) translate(33.01851851851852 69.77777777777777)"/><use xlink:href="#l" transform="matrix(1,0,0,1,1068,468) translate(78.6358024691358 69.77777777777777)"/><path d="M1057.5 520h-3.2m-4.24 0h-6.37m-4.26 0h-6.38m-4.25 0h-6.36m-4.25 0h-6.4m-4.24 0h-6.37m-4.26 0h-3.2l-2.7-.73m-2.56-2.57l-.73-2.7v-3.1m0-4.14v-6.2m0-4.15v-6.2m0-4.14v-6.2m0-4.15v-6.2m0-4.14v-6.2m0-4.15v-6.2m0-4.13v-6.2m0-4.15v-6.2m0-4.15v-3.1l-.73-2.7m-2.57-2.58l-2.7-.74h-2.77m-3.7 0h-5.55m-3.7 0h-5.55m-3.7 0h-5.55m-3.7 0h-5.55m-3.7 0h-2.78" stroke="#5e5e5e" stroke-width="2" fill="none"/><path d="M1058.5 521h-1.03v-2h1.03z" fill="#5e5e5e"/><path d="M920.24 414.86l14.26-4.63v9.27z" stroke="#5e5e5e" stroke-width="2" fill="#5e5e5e"/><path d="M1057.5 380h-3m-3.97 0h-5.98m-3.98 0h-5.98m-4 0h-5.97m-3.98 0h-5.97m-4 0h-5.96m-4 0h-5.96m-4 0H987.76v.04l-.02.02h-3.15m-4.18 0h-6.26m-4.18 0h-6.26m-4.18 0h-6.27m-4.17 0h-6.27m-4.17 0h-3.13" stroke="#5e5e5e" stroke-width="2" fill="none"/><path d="M1058.5 381h-1.03v-2h1.03z" fill="#5e5e5e"/><path d="M920.24 380.07l14.26-4.63v9.27z" stroke="#5e5e5e" stroke-width="2" fill="#5e5e5e"/><path d="M1057.5 240h-3.2m-4.24 0h-6.37m-4.26 0h-6.38m-4.25 0h-6.36m-4.25 0h-6.4m-4.24 0h-6.37m-4.26 0h-3.2l-2.7.73m-2.56 2.57l-.73 2.7v3.16m0 4.2v6.3m0 4.22v6.3m0 4.22v6.3m0 4.22v6.3m0 4.22v6.3m0 4.22v6.3m0 4.2v6.33m0 4.2v6.3m0 4.2v3.17l-.73 2.7m-2.57 2.57l-2.7.73h-2.77m-3.7 0h-5.55m-3.7 0h-5.55m-3.7 0h-5.55m-3.7 0h-5.55m-3.7 0h-2.78" stroke="#5e5e5e" stroke-width="2" fill="none"/><path d="M1058.5 241h-1.03v-2h1.03z" fill="#5e5e5e"/><path d="M920.24 346.67l14.26-4.64v9.27z" stroke="#5e5e5e" stroke-width="2" fill="#5e5e5e"/><path d="M280 303c0-3.3 2.7-6 6-6h188c3.3 0 6 2.7 6 6v131c0 3.3-2.7 6-6 6H286c-3.3 0-6-2.7-6-6z" stroke="#5e5e5e" stroke-width="3" fill="#fff"/><use xlink:href="#m" transform="matrix(1,0,0,1,288,305) translate(13.820987654320987 67.94444444444444)"/><path d="M693 360H500" stroke="#5e5e5e" stroke-width="2" fill="none"/><path d="M694 361h-1.03v-2H694z" fill="#5e5e5e"/><path d="M484.74 360l14.26-4.64v9.28z" stroke="#5e5e5e" stroke-width="2" fill="#fff"/><path d="M660 63.33c0-1.84 1.5-3.33 3.33-3.33 1.84 0 3.34 1.5 3.34 3.33v613.34c0 1.84-1.5 3.33-3.34 3.33-1.84 0-3.33-1.5-3.33-3.33zM1260 63.33c0-1.84 1.5-3.33 3.33-3.33 1.84 0 3.34 1.5 3.34 3.33v613.34c0 1.84-1.5 3.33-3.34 3.33-1.84 0-3.33-1.5-3.33-3.33z" stroke="#5e5e5e" stroke-width="3" fill="#fff"/><path d="M800 66c0-3.3 2.7-6 6-6h228c3.3 0 6 2.7 6 6v68c0 3.3-2.7 6-6 6H806c-3.3 0-6-2.7-6-6z" fill="none"/><g><use xlink:href="#n" transform="matrix(1,0,0,1,800,60) translate(24.706790123456784 45.77777777777778)"/><use xlink:href="#o" transform="matrix(1,0,0,1,800,60) translate(119.23765432098764 45.77777777777778)"/><use xlink:href="#p" transform="matrix(1,0,0,1,800,60) translate(160.8858024691358 45.77777777777778)"/></g><path d="M940 206c0-3.3 2.7-6 6-6h128c3.3 0 6 2.7 6 6v28c0 3.3-2.7 6-6 6H946c-3.3 0-6-2.7-6-6z" stroke="#000" stroke-opacity="0" stroke-width="3" fill="#fff" fill-opacity="0"/><g><use xlink:href="#q" transform="matrix(1,0,0,1,945,205) translate(21.72222222222223 19.75)"/></g><path d="M940 346c0-3.3 2.7-6 6-6h128c3.3 0 6 2.7 6 6v28c0 3.3-2.7 6-6 6H946c-3.3 0-6-2.7-6-6z" stroke="#000" stroke-opacity="0" stroke-width="3" fill="#fff" fill-opacity="0"/><g><use xlink:href="#q" transform="matrix(1,0,0,1,945,345) translate(21.72222222222223 19.75)"/></g><path d="M940 486c0-3.3 2.7-6 6-6h128c3.3 0 6 2.7 6 6v28c0 3.3-2.7 6-6 6H946c-3.3 0-6-2.7-6-6z" stroke="#000" stroke-opacity="0" stroke-width="3" fill="#fff" fill-opacity="0"/><g><use xlink:href="#q" transform="matrix(1,0,0,1,945,485) translate(21.72222222222223 19.75)"/></g><path d="M500 326c0-3.3 2.7-6 6-6h128c3.3 0 6 2.7 6 6v28c0 3.3-2.7 6-6 6H506c-3.3 0-6-2.7-6-6z" stroke="#000" stroke-opacity="0" stroke-width="3" fill="#fff" fill-opacity="0"/><g><use xlink:href="#r" transform="matrix(1,0,0,1,505,325) translate(-9.333333333333329 19)"/></g><defs><path fill="#333" d="M199 0l-22-63H83L61 0H9l90-248h61L250 0h-51zm-33-102l-36-108c-10 38-24 72-36 108h72" id="s"/><path fill="#333" d="M88-194c31-1 46 15 58 34l-1-101h50l1 261h-48c-2-10 0-23-3-31C134-8 116 4 84 4 32 4 16-41 15-95c0-56 19-97 73-99zm17 164c33 0 40-30 41-66 1-37-9-64-41-64s-38 30-39 65c0 43 13 65 39 65" id="t"/><path fill="#333" d="M133-34C117-15 103 5 69 4 32 3 11-16 11-54c-1-60 55-63 116-61 1-26-3-47-28-47-18 1-26 9-28 27l-52-2c7-38 36-58 82-57s74 22 75 68l1 82c-1 14 12 18 25 15v27c-30 8-71 5-69-32zm-48 3c29 0 43-24 42-57-32 0-66-3-65 30 0 17 8 27 23 27" id="u"/><path fill="#333" d="M135-194c53 0 70 44 70 98 0 56-19 98-73 100-31 1-45-17-59-34 3 33 2 69 2 105H25l-1-265h48c2 10 0 23 3 31 11-24 29-35 60-35zM114-30c33 0 39-31 40-66 0-38-9-64-40-64-56 0-55 130 0 130" id="v"/><path fill="#333" d="M115-3C79 11 28 4 28-45v-112H4v-33h27l15-45h31v45h36v33H77v99c-1 23 16 31 38 25v30" id="w"/><path fill="#333" d="M110-194c64 0 96 36 96 99 0 64-35 99-97 99-61 0-95-36-95-99 0-62 34-99 96-99zm-1 164c35 0 45-28 45-65 0-40-10-65-43-65-34 0-45 26-45 65 0 36 10 65 43 65" id="x"/><path fill="#333" d="M135-150c-39-12-60 13-60 57V0H25l-1-190h47c2 13-1 29 3 40 6-28 27-53 61-41v41" id="y"/><path fill="#333" d="M185-48c-13 30-37 53-82 52C43 2 14-33 14-96s30-98 90-98c62 0 83 45 84 108H66c0 31 8 55 39 56 18 0 30-7 34-22zm-45-69c5-46-57-63-70-21-2 6-4 13-4 21h74" id="z"/><path fill="#333" d="M137-138c1-29-70-34-71-4 15 46 118 7 119 86 1 83-164 76-172 9l43-7c4 19 20 25 44 25 33 8 57-30 24-41C81-84 22-81 20-136c-2-80 154-74 161-7" id="A"/><g id="a"><use transform="matrix(0.08024691358024691,0,0,0.08024691358024691,0,0)" xlink:href="#s"/><use transform="matrix(0.08024691358024691,0,0,0.08024691358024691,20.78395061728395,0)" xlink:href="#t"/><use transform="matrix(0.08024691358024691,0,0,0.08024691358024691,38.358024691358025,0)" xlink:href="#u"/><use transform="matrix(0.08024691358024691,0,0,0.08024691358024691,54.407407407407405,0)" xlink:href="#v"/><use transform="matrix(0.08024691358024691,0,0,0.08024691358024691,71.98148148148148,0)" xlink:href="#w"/><use transform="matrix(0.08024691358024691,0,0,0.08024691358024691,81.53086419753086,0)" xlink:href="#u"/><use transform="matrix(0.08024691358024691,0,0,0.08024691358024691,97.58024691358024,0)" xlink:href="#t"/><use transform="matrix(0.08024691358024691,0,0,0.08024691358024691,115.15432098765432,0)" xlink:href="#x"/><use transform="matrix(0.08024691358024691,0,0,0.08024691358024691,132.72839506172838,0)" xlink:href="#y"/><use transform="matrix(0.08024691358024691,0,0,0.08024691358024691,143.96296296296293,0)" xlink:href="#z"/><use transform="matrix(0.08024691358024691,0,0,0.08024691358024691,160.01234567901233,0)" xlink:href="#A"/></g><path d="M15-91v-56l181-69v40L49-119l147 57v40" id="B"/><path d="M25-224v-37h50v37H25zM25 0v-190h50V0H25" id="C"/><path d="M135-194c87-1 58 113 63 194h-50c-7-57 23-157-34-157-59 0-34 97-39 157H25l-1-190h47c2 12-1 28 3 38 12-26 28-41 61-42" id="D"/><path d="M115-3C79 11 28 4 28-45v-112H4v-33h27l15-45h31v45h36v33H77v99c-1 23 16 31 38 25v30" id="E"/><path d="M185-48c-13 30-37 53-82 52C43 2 14-33 14-96s30-98 90-98c62 0 83 45 84 108H66c0 31 8 55 39 56 18 0 30-7 34-22zm-45-69c5-46-57-63-70-21-2 6-4 13-4 21h74" id="F"/><path d="M135-150c-39-12-60 13-60 57V0H25l-1-190h47c2 13-1 29 3 40 6-28 27-53 61-41v41" id="G"/><path d="M121-226c-27-7-43 5-38 36h38v33H83V0H34v-157H6v-33h28c-9-59 32-81 87-68v32" id="H"/><path d="M133-34C117-15 103 5 69 4 32 3 11-16 11-54c-1-60 55-63 116-61 1-26-3-47-28-47-18 1-26 9-28 27l-52-2c7-38 36-58 82-57s74 22 75 68l1 82c-1 14 12 18 25 15v27c-30 8-71 5-69-32zm-48 3c29 0 43-24 42-57-32 0-66-3-65 30 0 17 8 27 23 27" id="I"/><path d="M190-63c-7 42-38 67-86 67-59 0-84-38-90-98-12-110 154-137 174-36l-49 2c-2-19-15-32-35-32-30 0-35 28-38 64-6 74 65 87 74 30" id="J"/><path d="M15-22v-40l146-57-146-57v-40l181 69v56" id="K"/><g id="b"><use transform="matrix(0.05,0,0,0.05,0,0)" xlink:href="#B"/><use transform="matrix(0.05,0,0,0.05,10.5,0)" xlink:href="#B"/><use transform="matrix(0.05,0,0,0.05,21,0)" xlink:href="#C"/><use transform="matrix(0.05,0,0,0.05,26,0)" xlink:href="#D"/><use transform="matrix(0.05,0,0,0.05,36.95,0)" xlink:href="#E"/><use transform="matrix(0.05,0,0,0.05,42.900000000000006,0)" xlink:href="#F"/><use transform="matrix(0.05,0,0,0.05,52.900000000000006,0)" xlink:href="#G"/><use transform="matrix(0.05,0,0,0.05,59.900000000000006,0)" xlink:href="#H"/><use transform="matrix(0.05,0,0,0.05,65.85000000000001,0)" xlink:href="#I"/><use transform="matrix(0.05,0,0,0.05,75.85000000000001,0)" xlink:href="#J"/><use transform="matrix(0.05,0,0,0.05,85.85000000000001,0)" xlink:href="#F"/><use transform="matrix(0.05,0,0,0.05,95.85000000000001,0)" xlink:href="#K"/><use transform="matrix(0.05,0,0,0.05,106.35000000000001,0)" xlink:href="#K"/></g><path d="M230 0l2-204L168 0h-37L68-204 70 0H24v-248h70l56 185 57-185h69V0h-46" id="L"/><path d="M25 0v-261h50V0H25" id="M"/><path d="M169-182c-1-43-94-46-97-3 18 66 151 10 154 114 3 95-165 93-204 36-6-8-10-19-12-30l50-8c3 46 112 56 116 5-17-69-150-10-154-114-4-87 153-88 188-35 5 8 8 18 10 28" id="N"/><path d="M128 0H69L1-190h53L99-40l48-150h52" id="O"/><path d="M24 0v-248h52V0H24" id="P"/><g id="c"><use transform="matrix(0.05,0,0,0.05,0,0)" xlink:href="#L"/><use transform="matrix(0.05,0,0,0.05,14.950000000000001,0)" xlink:href="#I"/><use transform="matrix(0.05,0,0,0.05,24.950000000000003,0)" xlink:href="#C"/><use transform="matrix(0.05,0,0,0.05,29.950000000000003,0)" xlink:href="#M"/><use transform="matrix(0.05,0,0,0.05,34.95,0)" xlink:href="#N"/><use transform="matrix(0.05,0,0,0.05,46.95,0)" xlink:href="#F"/><use transform="matrix(0.05,0,0,0.05,56.95,0)" xlink:href="#G"/><use transform="matrix(0.05,0,0,0.05,63.95,0)" xlink:href="#O"/><use transform="matrix(0.05,0,0,0.05,73.95,0)" xlink:href="#C"/><use transform="matrix(0.05,0,0,0.05,78.95,0)" xlink:href="#J"/><use transform="matrix(0.05,0,0,0.05,88.95,0)" xlink:href="#F"/><use transform="matrix(0.05,0,0,0.05,98.95,0)" xlink:href="#P"/><use transform="matrix(0.05,0,0,0.05,103.95,0)" xlink:href="#D"/><use transform="matrix(0.05,0,0,0.05,114.9,0)" xlink:href="#E"/><use transform="matrix(0.05,0,0,0.05,120.85000000000001,0)" xlink:href="#F"/><use transform="matrix(0.05,0,0,0.05,130.85000000000002,0)" xlink:href="#G"/><use transform="matrix(0.05,0,0,0.05,137.85000000000002,0)" xlink:href="#H"/><use transform="matrix(0.05,0,0,0.05,143.8,0)" xlink:href="#I"/><use transform="matrix(0.05,0,0,0.05,153.8,0)" xlink:href="#J"/><use transform="matrix(0.05,0,0,0.05,163.8,0)" xlink:href="#F"/></g><path fill="#333" d="M118-107v75H92v-75H18v-26h74v-75h26v75h74v26h-74" id="Q"/><use transform="matrix(0.06172839506172839,0,0,0.06172839506172839,0,0)" xlink:href="#Q" id="d"/><path fill="#333" d="M135-143c-3-34-86-38-87 0 15 53 115 12 119 90S17 21 10-45l28-5c4 36 97 45 98 0-10-56-113-15-118-90-4-57 82-63 122-42 12 7 21 19 24 35" id="R"/><path fill="#333" d="M100-194c63 0 86 42 84 106H49c0 40 14 67 53 68 26 1 43-12 49-29l28 8c-11 28-37 45-77 45C44 4 14-33 15-96c1-61 26-98 85-98zm52 81c6-60-76-77-97-28-3 7-6 17-6 28h103" id="S"/><path fill="#333" d="M117-194c89-4 53 116 60 194h-32v-121c0-31-8-49-39-48C34-167 62-67 57 0H25l-1-190h30c1 10-1 24 2 32 11-22 29-35 61-36" id="T"/><path fill="#333" d="M85-194c31 0 48 13 60 33l-1-100h32l1 261h-30c-2-10 0-23-3-31C134-8 116 4 85 4 32 4 16-35 15-94c0-66 23-100 70-100zm9 24c-40 0-46 34-46 75 0 40 6 74 45 74 42 0 51-32 51-76 0-42-9-74-50-73" id="U"/><path fill="#333" d="M87 75C49 33 22-17 22-94c0-76 28-126 65-167h31c-38 41-64 92-64 168S80 34 118 75H87" id="V"/><path fill="#333" d="M185-189c-5-48-123-54-124 2 14 75 158 14 163 119 3 78-121 87-175 55-17-10-28-26-33-46l33-7c5 56 141 63 141-1 0-78-155-14-162-118-5-82 145-84 179-34 5 7 8 16 11 25" id="W"/><path fill="#333" d="M59-47c-2 24 18 29 38 22v24C64 9 27 4 27-40v-127H5v-23h24l9-43h21v43h35v23H59v120" id="X"/><path fill="#333" d="M114-163C36-179 61-72 57 0H25l-1-190h30c1 12-1 29 2 39 6-27 23-49 58-41v29" id="Y"/><path fill="#333" d="M24-231v-30h32v30H24zM24 0v-190h32V0H24" id="Z"/><path fill="#333" d="M177-190C167-65 218 103 67 71c-23-6-38-20-44-43l32-5c15 47 100 32 89-28v-30C133-14 115 1 83 1 29 1 15-40 15-95c0-56 16-97 71-98 29-1 48 16 59 35 1-10 0-23 2-32h30zM94-22c36 0 50-32 50-73 0-42-14-75-50-75-39 0-46 34-46 75s6 73 46 73" id="aa"/><g id="e"><use transform="matrix(0.06172839506172839,0,0,0.06172839506172839,0,0)" xlink:href="#R"/><use transform="matrix(0.06172839506172839,0,0,0.06172839506172839,11.11111111111111,0)" xlink:href="#S"/><use transform="matrix(0.06172839506172839,0,0,0.06172839506172839,23.45679012345679,0)" xlink:href="#T"/><use transform="matrix(0.06172839506172839,0,0,0.06172839506172839,35.80246913580247,0)" xlink:href="#U"/><use transform="matrix(0.06172839506172839,0,0,0.06172839506172839,48.148148148148145,0)" xlink:href="#V"/><use transform="matrix(0.06172839506172839,0,0,0.06172839506172839,55.49382716049382,0)" xlink:href="#W"/><use transform="matrix(0.06172839506172839,0,0,0.06172839506172839,70.30864197530863,0)" xlink:href="#X"/><use transform="matrix(0.06172839506172839,0,0,0.06172839506172839,76.48148148148147,0)" xlink:href="#Y"/><use transform="matrix(0.06172839506172839,0,0,0.06172839506172839,83.82716049382715,0)" xlink:href="#Z"/><use transform="matrix(0.06172839506172839,0,0,0.06172839506172839,88.7037037037037,0)" xlink:href="#T"/><use transform="matrix(0.06172839506172839,0,0,0.06172839506172839,101.04938271604938,0)" xlink:href="#aa"/></g><path fill="#333" d="M210-169c-67 3-38 105-44 169h-31v-121c0-29-5-50-35-48C34-165 62-65 56 0H25l-1-190h30c1 10-1 24 2 32 10-44 99-50 107 0 11-21 27-35 58-36 85-2 47 119 55 194h-31v-121c0-29-5-49-35-48" id="ab"/><path fill="#333" d="M33-261c38 41 65 92 65 168S71 34 33 75H2C39 34 66-17 66-93S39-220 2-261h31" id="ac"/><g id="f"><use transform="matrix(0.06172839506172839,0,0,0.06172839506172839,0,0)" xlink:href="#ab"/><use transform="matrix(0.06172839506172839,0,0,0.06172839506172839,18.456790123456788,0)" xlink:href="#R"/><use transform="matrix(0.06172839506172839,0,0,0.06172839506172839,29.5679012345679,0)" xlink:href="#aa"/><use transform="matrix(0.06172839506172839,0,0,0.06172839506172839,41.913580246913575,0)" xlink:href="#ac"/></g><path fill="#333" d="M212-179c-10-28-35-45-73-45-59 0-87 40-87 99 0 60 29 101 89 101 43 0 62-24 78-52l27 14C228-24 195 4 139 4 59 4 22-46 18-125c-6-104 99-153 187-111 19 9 31 26 39 46" id="ad"/><path fill="#333" d="M141-36C126-15 110 5 73 4 37 3 15-17 15-53c-1-64 63-63 125-63 3-35-9-54-41-54-24 1-41 7-42 31l-33-3c5-37 33-52 76-52 45 0 72 20 72 64v82c-1 20 7 32 28 27v20c-31 9-61-2-59-35zM48-53c0 20 12 33 32 33 41-3 63-29 60-74-43 2-92-5-92 41" id="ae"/><path fill="#333" d="M100-194c62-1 85 37 85 99 1 63-27 99-86 99S16-35 15-95c0-66 28-99 85-99zM99-20c44 1 53-31 53-75 0-43-8-75-51-75s-53 32-53 75 10 74 51 75" id="af"/><g id="g"><use transform="matrix(0.06172839506172839,0,0,0.06172839506172839,0,0)" xlink:href="#ad"/><use transform="matrix(0.06172839506172839,0,0,0.06172839506172839,15.987654320987653,0)" xlink:href="#ae"/><use transform="matrix(0.06172839506172839,0,0,0.06172839506172839,28.333333333333332,0)" xlink:href="#R"/><use transform="matrix(0.06172839506172839,0,0,0.06172839506172839,39.44444444444444,0)" xlink:href="#af"/></g><g id="h"><use transform="matrix(0.06172839506172839,0,0,0.06172839506172839,0,0)" xlink:href="#U"/><use transform="matrix(0.06172839506172839,0,0,0.06172839506172839,12.345679012345679,0)" xlink:href="#S"/></g><path fill="#333" d="M232-93c-1 65-40 97-104 97C67 4 28-28 28-90v-158h33c8 89-33 224 67 224 102 0 64-133 71-224h33v155" id="ag"/><g id="i"><use transform="matrix(0.06172839506172839,0,0,0.06172839506172839,0,0)" xlink:href="#ag"/><use transform="matrix(0.06172839506172839,0,0,0.06172839506172839,15.987654320987653,0)" xlink:href="#R"/><use transform="matrix(0.06172839506172839,0,0,0.06172839506172839,27.098765432098766,0)" xlink:href="#af"/></g><path fill="#333" d="M27 0v-27h64v-190l-56 39v-29l58-41h29v221h61V0H27" id="ah"/><use transform="matrix(0.06172839506172839,0,0,0.06172839506172839,0,0)" xlink:href="#ah" id="j"/><path fill="#333" d="M101-251c82-7 93 87 43 132L82-64C71-53 59-42 53-27h129V0H18c2-99 128-94 128-182 0-28-16-43-45-43s-46 15-49 41l-32-3c6-41 34-60 81-64" id="ai"/><use transform="matrix(0.06172839506172839,0,0,0.06172839506172839,0,0)" xlink:href="#ai" id="k"/><path fill="#333" d="M126-127c33 6 58 20 58 59 0 88-139 92-164 29-3-8-5-16-6-25l32-3c6 27 21 44 54 44 32 0 52-15 52-46 0-38-36-46-79-43v-28c39 1 72-4 72-42 0-27-17-43-46-43-28 0-47 15-49 41l-32-3c6-42 35-63 81-64 48-1 79 21 79 65 0 36-21 52-52 59" id="aj"/><use transform="matrix(0.06172839506172839,0,0,0.06172839506172839,0,0)" xlink:href="#aj" id="l"/><path fill="#333" d="M240 0l2-218c-23 76-54 145-80 218h-23L58-218 59 0H30v-248h44l77 211c21-75 51-140 76-211h43V0h-30" id="ak"/><path fill="#333" d="M24 0v-261h32V0H24" id="al"/><path fill="#333" d="M108 0H70L1-190h34L89-25l56-165h34" id="am"/><path fill="#333" d="M96-169c-40 0-48 33-48 73s9 75 48 75c24 0 41-14 43-38l32 2c-6 37-31 61-74 61-59 0-76-41-82-99-10-93 101-131 147-64 4 7 5 14 7 22l-32 3c-4-21-16-35-41-35" id="an"/><path fill="#333" d="M33 0v-248h34V0H33" id="ao"/><path fill="#333" d="M115-194c55 1 70 41 70 98S169 2 115 4C84 4 66-9 55-30l1 105H24l-1-265h31l2 30c10-21 28-34 59-34zm-8 174c40 0 45-34 45-75s-6-73-45-74c-42 0-51 32-51 76 0 43 10 73 51 73" id="ap"/><g id="m"><use transform="matrix(0.06172839506172839,0,0,0.06172839506172839,0,0)" xlink:href="#ak"/><use transform="matrix(0.06172839506172839,0,0,0.06172839506172839,18.456790123456788,0)" xlink:href="#ae"/><use transform="matrix(0.06172839506172839,0,0,0.06172839506172839,30.80246913580247,0)" xlink:href="#Z"/><use transform="matrix(0.06172839506172839,0,0,0.06172839506172839,35.67901234567901,0)" xlink:href="#al"/><use transform="matrix(0.06172839506172839,0,0,0.06172839506172839,40.55555555555556,0)" xlink:href="#W"/><use transform="matrix(0.06172839506172839,0,0,0.06172839506172839,55.37037037037037,0)" xlink:href="#S"/><use transform="matrix(0.06172839506172839,0,0,0.06172839506172839,67.71604938271605,0)" xlink:href="#Y"/><use transform="matrix(0.06172839506172839,0,0,0.06172839506172839,75.06172839506173,0)" xlink:href="#am"/><use transform="matrix(0.06172839506172839,0,0,0.06172839506172839,86.17283950617285,0)" xlink:href="#Z"/><use transform="matrix(0.06172839506172839,0,0,0.06172839506172839,91.0493827160494,0)" xlink:href="#an"/><use transform="matrix(0.06172839506172839,0,0,0.06172839506172839,102.16049382716051,0)" xlink:href="#S"/><use transform="matrix(0.06172839506172839,0,0,0.06172839506172839,114.50617283950619,0)" xlink:href="#ao"/><use transform="matrix(0.06172839506172839,0,0,0.06172839506172839,120.67901234567903,0)" xlink:href="#ab"/><use transform="matrix(0.06172839506172839,0,0,0.06172839506172839,139.13580246913583,0)" xlink:href="#ap"/><use transform="matrix(0.06172839506172839,0,0,0.06172839506172839,151.4814814814815,0)" xlink:href="#al"/></g><path fill="#333" d="M67-125c0 53 21 87 73 88 37 1 54-22 65-47l45 17C233-25 199 4 140 4 58 4 20-42 15-125 8-235 124-281 211-232c18 10 29 29 36 50l-46 12c-8-25-30-41-62-41-52 0-71 34-72 86" id="aq"/><g id="n"><use transform="matrix(0.08024691358024691,0,0,0.08024691358024691,0,0)" xlink:href="#aq"/><use transform="matrix(0.08024691358024691,0,0,0.08024691358024691,20.78395061728395,0)" xlink:href="#u"/><use transform="matrix(0.08024691358024691,0,0,0.08024691358024691,36.83333333333333,0)" xlink:href="#A"/><use transform="matrix(0.08024691358024691,0,0,0.08024691358024691,52.8827160493827,0)" xlink:href="#x"/><use transform="matrix(0.08024691358024691,0,0,0.08024691358024691,70.45679012345678,0)" xlink:href="#A"/></g><g id="o"><use transform="matrix(0.08024691358024691,0,0,0.08024691358024691,0,0)" xlink:href="#t"/><use transform="matrix(0.08024691358024691,0,0,0.08024691358024691,17.574074074074073,0)" xlink:href="#z"/></g><path fill="#333" d="M238-95c0 69-44 99-111 99C63 4 22-25 22-93v-155h51v151c-1 38 19 59 55 60 90 1 49-130 58-211h52v153" id="ar"/><g id="p"><use transform="matrix(0.08024691358024691,0,0,0.08024691358024691,0,0)" xlink:href="#ar"/><use transform="matrix(0.08024691358024691,0,0,0.08024691358024691,20.78395061728395,0)" xlink:href="#A"/><use transform="matrix(0.08024691358024691,0,0,0.08024691358024691,36.83333333333333,0)" xlink:href="#x"/></g><path fill="#333" d="M18-100v-36l175-74v27L42-118l151 64v27" id="as"/><path fill="#333" d="M18-27v-27l151-64-151-65v-27l175 74v36" id="at"/><g id="q"><use transform="matrix(0.055555555555555546,0,0,0.055555555555555546,0,0)" xlink:href="#as"/><use transform="matrix(0.055555555555555546,0,0,0.055555555555555546,11.666666666666664,0)" xlink:href="#as"/><use transform="matrix(0.055555555555555546,0,0,0.055555555555555546,23.33333333333333,0)" xlink:href="#an"/><use transform="matrix(0.055555555555555546,0,0,0.055555555555555546,33.33333333333333,0)" xlink:href="#ae"/><use transform="matrix(0.055555555555555546,0,0,0.055555555555555546,44.444444444444436,0)" xlink:href="#al"/><use transform="matrix(0.055555555555555546,0,0,0.055555555555555546,48.83333333333332,0)" xlink:href="#al"/><use transform="matrix(0.055555555555555546,0,0,0.055555555555555546,53.22222222222221,0)" xlink:href="#R"/><use transform="matrix(0.055555555555555546,0,0,0.055555555555555546,63.222222222222214,0)" xlink:href="#at"/><use transform="matrix(0.055555555555555546,0,0,0.055555555555555546,74.88888888888887,0)" xlink:href="#at"/></g><g id="r"><use transform="matrix(0.055555555555555546,0,0,0.055555555555555546,0,0)" xlink:href="#as"/><use transform="matrix(0.055555555555555546,0,0,0.055555555555555546,11.666666666666664,0)" xlink:href="#as"/><use transform="matrix(0.055555555555555546,0,0,0.055555555555555546,23.33333333333333,0)" xlink:href="#Z"/><use transform="matrix(0.055555555555555546,0,0,0.055555555555555546,27.722222222222218,0)" xlink:href="#ab"/><use transform="matrix(0.055555555555555546,0,0,0.055555555555555546,44.33333333333333,0)" xlink:href="#ap"/><use transform="matrix(0.055555555555555546,0,0,0.055555555555555546,55.444444444444436,0)" xlink:href="#al"/><use transform="matrix(0.055555555555555546,0,0,0.055555555555555546,59.83333333333332,0)" xlink:href="#S"/><use transform="matrix(0.055555555555555546,0,0,0.055555555555555546,70.94444444444443,0)" xlink:href="#ab"/><use transform="matrix(0.055555555555555546,0,0,0.055555555555555546,87.55555555555554,0)" xlink:href="#S"/><use transform="matrix(0.055555555555555546,0,0,0.055555555555555546,98.66666666666666,0)" xlink:href="#T"/><use transform="matrix(0.055555555555555546,0,0,0.055555555555555546,109.77777777777777,0)" xlink:href="#X"/><use transform="matrix(0.055555555555555546,0,0,0.055555555555555546,115.33333333333334,0)" xlink:href="#R"/><use transform="matrix(0.055555555555555546,0,0,0.055555555555555546,125.33333333333334,0)" xlink:href="#at"/><use transform="matrix(0.055555555555555546,0,0,0.055555555555555546,137,0)" xlink:href="#at"/></g></defs></g></svg>