<svg xmlns="http://www.w3.org/2000/svg" xmlns:xlink="http://www.w3.org/1999/xlink" xmlns:lucid="lucid" width="780" height="620"><g transform="translate(-280 -80)" lucid:page-tab-id="0_0"><path d="M0 0h1870.87v1322.83H0z" fill="#fff"/><path d="M538.1 205.7c1.05-3.15 4.6-5.7 7.9-5.7h228c3.3 0 6.85 2.55 7.9 5.7l76.2 228.6c1.05 3.15 1.05 8.25 0 11.4l-76.2 228.6c-1.05 3.15-4.6 5.7-7.9 5.7H546c-3.3 0-6.85-2.55-7.9-5.7l-76.2-228.6c-1.05-3.15-1.05-8.25 0-11.4z" stroke="#5e5e5e" stroke-width="3" fill="#c7e8ac"/><path d="M586.28 285.75c.95-3.18 4.4-5.75 7.72-5.75h132c3.3 0 6.77 2.57 7.72 5.75l44.56 148.5c.95 3.18.95 8.32 0 11.5l-44.56 148.5c-.95 3.18-4.4 5.75-7.72 5.75H594c-3.3 0-6.77-2.57-7.72-5.75l-44.56-148.5c-.95-3.18-.95-8.32 0-11.5z" stroke="#5e5e5e" stroke-width="3" fill="#ffeca9"/><path d="M771.9 221c3.18-.93 6.5.9 7.42 4.1l63.1 219.1c.9 3.18-.93 6.5-4.12 7.42l-46.12 13.28c-3.2.92-6.5-.92-7.43-4.1l-63.1-219.1c-.9-3.2.93-6.5 4.12-7.43z" stroke="#000" stroke-opacity="0" stroke-width="3" fill="#fff" fill-opacity="0"/><use xlink:href="#a" transform="matrix(0.27671009315746814,0.9609534454617379,-0.9609534454617379,0.27671009315746814,774.2359899661831,225.51630236928145) translate(12.067901234567927 30.27777777777778)"/><path d="M721.15 241.4c3.22-.77 6.46 1.2 7.23 4.44l53.06 221.74c.77 3.22-1.22 6.46-4.44 7.23l-55.3 13.24c-3.24.77-6.47-1.2-7.25-4.44L661.4 261.86c-.77-3.22 1.2-6.46 4.44-7.23z" stroke="#000" stroke-opacity="0" stroke-width="3" fill="#fff" fill-opacity="0"/><use xlink:href="#b" transform="matrix(0.23270953082448614,0.9725462838669672,-0.9725462838669672,0.23270953082448614,723.2864161003444,246.02627907345726) translate(115 15.99999999999999)"/><use xlink:href="#c" transform="matrix(0.23270953082448614,0.9725462838669672,-0.9725462838669672,0.23270953082448614,723.2864161003444,246.02627907345726) translate(1.7777777777778283 39.99999999999997)"/><use xlink:href="#d" transform="matrix(0.23270953082448614,0.9725462838669672,-0.9725462838669672,0.23270953082448614,723.2864161003444,246.02627907345726) translate(35.111111111111136 39.99999999999997)"/><use xlink:href="#b" transform="matrix(0.23270953082448614,0.9725462838669672,-0.9725462838669672,0.23270953082448614,723.2864161003444,246.02627907345726) translate(115 63.99999999999996)"/><use xlink:href="#e" transform="matrix(0.23270953082448614,0.9725462838669672,-0.9725462838669672,0.23270953082448614,723.2864161003444,246.02627907345726) translate(115 87.99999999999994)"/><path d="M525.73 471.05c-3.16-.97-4.94-4.34-3.96-7.5l67.42-217.8c.97-3.17 4.33-4.94 7.5-3.96l55.16 17.06c3.17.98 4.94 4.34 3.96 7.5l-67.4 217.8c-1 3.18-4.35 4.95-7.52 3.97z" stroke="#000" stroke-opacity="0" stroke-width="3" fill="#fff" fill-opacity="0"/><use xlink:href="#b" transform="matrix(0.2956743820228599,-0.955288783465712,0.955288783465712,0.2956743820228599,526.2548158274428,465.9827232693888) translate(115 15.99999999999999)"/><use xlink:href="#f" transform="matrix(0.2956743820228599,-0.955288783465712,0.955288783465712,0.2956743820228599,526.2548158274428,465.9827232693888) translate(71.1666666666667 39.99999999999997)"/><use xlink:href="#b" transform="matrix(0.2956743820228599,-0.955288783465712,0.955288783465712,0.2956743820228599,526.2548158274428,465.9827232693888) translate(115 63.99999999999996)"/><use xlink:href="#e" transform="matrix(0.2956743820228599,-0.955288783465712,0.955288783465712,0.2956743820228599,526.2548158274428,465.9827232693888) translate(115 87.99999999999994)"/><path d="M320 206c0-3.3 2.7-6 6-6h88c3.3 0 6 2.7 6 6v88c0 3.3-2.7 6-6 6h-88c-3.3 0-6-2.7-6-6z" stroke="#5e5e5e" stroke-width="3" fill="#fff"/><use xlink:href="#g" transform="matrix(1,0,0,1,325,205) translate(1.8209876543209873 37.46527777777778)"/><use xlink:href="#h" transform="matrix(1,0,0,1,325,205) translate(22.40740740740741 64.13194444444446)"/><path d="M320 326c0-3.3 2.7-6 6-6h88c3.3 0 6 2.7 6 6v88c0 3.3-2.7 6-6 6h-88c-3.3 0-6-2.7-6-6z" stroke="#5e5e5e" stroke-width="3" fill="#fff"/><use xlink:href="#g" transform="matrix(1,0,0,1,325,325) translate(1.8209876543209873 37.46527777777778)"/><use xlink:href="#i" transform="matrix(1,0,0,1,325,325) translate(12.376543209876544 64.13194444444446)"/><path d="M422.33 250.56l128.7 85.9" stroke="#c92d39" stroke-width="2" fill="none"/><path d="M422.9 249.74l-1.1 1.66-.3-.2v-2.4z" fill="#c92d39"/><path d="M563.72 344.93l-14.43-4.07 5.13-7.7z" stroke="#c92d39" stroke-width="2" fill="#c92d39"/><path d="M422.5 370h118.43" stroke="#c92d39" stroke-width="2" fill="none"/><path d="M422.53 371h-1.03v-2h1.03z" fill="#c92d39"/><path d="M556.2 370l-14.27 4.64v-9.28z" stroke="#c92d39" stroke-width="2" fill="#c92d39"/><path d="M720.96 339.7l33.36-10.26M720.98 339.7l-.98.3" stroke="#c92d39" stroke-width="2" fill="none"/><path d="M768.9 324.95l-12.26 8.63-2.73-8.86z" stroke="#c92d39" stroke-width="2" fill="#c92d39"/><path d="M800.95 315.68l40.04-13.7M800.97 315.67l-.97.33" stroke="#c92d39" stroke-width="2" fill="none"/><path d="M855.44 297.05l-12 9-3-8.77z" stroke="#c92d39" stroke-width="2" fill="#c92d39"/><path d="M860 246c0-3.3 2.7-6 6-6h128c3.3 0 6 2.7 6 6v88c0 3.3-2.7 6-6 6H866c-3.3 0-6-2.7-6-6z" stroke="#5e5e5e" stroke-width="3" fill="#fff"/><use xlink:href="#j" transform="matrix(1,0,0,1,872,252) translate(-1.1666666666666714 42.44444444444444)"/><g fill="none"><path d="M534 140c3.3 0 6 2.7 6 6v28c0 3.3-2.7 6-6 6H306c-3.3 0-6-2.7-6-6v-28c0-3.3 2.7-6 6-6z"/><path d="M300 180c0-5.52 4.48-10 10-10h100c5.52 0 10-4.48 10-10 0 5.52 4.48 10 10 10h100c5.52 0 10 4.48 10 10" stroke="#5e5e5e" stroke-width="3"/></g><path d="M860 226c0-3.3 2.7-6 6-6h148c3.3 0 6 2.7 6 6v108c0 3.3-2.7 6-6 6H866c-3.3 0-6-2.7-6-6z" stroke="#5e5e5e" stroke-width="3" fill="#fff"/><g><use xlink:href="#j" transform="matrix(1,0,0,1,872,232) translate(8.833333333333329 53.77777777777778)"/></g><g fill="none"><path d="M1034 140c3.3 0 6 2.7 6 6v28c0 3.3-2.7 6-6 6H766c-3.3 0-6-2.7-6-6v-28c0-3.3 2.7-6 6-6z"/><path d="M760 180c0-5.52 4.48-10 10-10h120c5.52 0 10-4.48 10-10 0 5.52 4.48 10 10 10h120c5.52 0 10 4.48 10 10" stroke="#5e5e5e" stroke-width="3"/></g><path d="M300 106c0-3.3 2.7-6 6-6h228c3.3 0 6 2.7 6 6v51.33c0 3.32-2.7 6-6 6H306c-3.3 0-6-2.68-6-6z" stroke="#000" stroke-opacity="0" stroke-width="3" fill="#fff" fill-opacity="0"/><g><use xlink:href="#k" transform="matrix(1,0,0,1,305,105) translate(12.006172839506164 17.77777777777778)"/><use xlink:href="#l" transform="matrix(1,0,0,1,305,105) translate(148.91975308641975 17.77777777777778)"/><use xlink:href="#m" transform="matrix(1,0,0,1,305,105) translate(179.78395061728395 17.77777777777778)"/><use xlink:href="#n" transform="matrix(1,0,0,1,305,105) translate(58.27160493827161 44.44444444444444)"/><use xlink:href="#o" transform="matrix(1,0,0,1,305,105) translate(108.82716049382717 44.44444444444444)"/></g><path d="M780 106c0-3.3 2.7-6 6-6h228c3.3 0 6 2.7 6 6v51.33c0 3.32-2.7 6-6 6H786c-3.3 0-6-2.68-6-6z" stroke="#000" stroke-opacity="0" stroke-width="3" fill="#fff" fill-opacity="0"/><g><use xlink:href="#k" transform="matrix(1,0,0,1,785,105) translate(34.19753086419752 17.77777777777778)"/><use xlink:href="#p" transform="matrix(1,0,0,1,785,105) translate(171.11111111111111 17.77777777777778)"/><use xlink:href="#q" transform="matrix(1,0,0,1,785,105) translate(36.080246913580254 44.44444444444444)"/><use xlink:href="#n" transform="matrix(1,0,0,1,785,105) translate(105.15432098765433 44.44444444444444)"/><use xlink:href="#r" transform="matrix(1,0,0,1,785,105) translate(155.70987654320987 44.44444444444444)"/></g><defs><path fill="#333" d="M230 0l2-204L168 0h-37L68-204 70 0H24v-248h70l56 185 57-185h69V0h-46" id="s"/><path fill="#333" d="M133-34C117-15 103 5 69 4 32 3 11-16 11-54c-1-60 55-63 116-61 1-26-3-47-28-47-18 1-26 9-28 27l-52-2c7-38 36-58 82-57s74 22 75 68l1 82c-1 14 12 18 25 15v27c-30 8-71 5-69-32zm-48 3c29 0 43-24 42-57-32 0-66-3-65 30 0 17 8 27 23 27" id="t"/><path fill="#333" d="M25-224v-37h50v37H25zM25 0v-190h50V0H25" id="u"/><path fill="#333" d="M25 0v-261h50V0H25" id="v"/><path fill="#333" d="M169-182c-1-43-94-46-97-3 18 66 151 10 154 114 3 95-165 93-204 36-6-8-10-19-12-30l50-8c3 46 112 56 116 5-17-69-150-10-154-114-4-87 153-88 188-35 5 8 8 18 10 28" id="w"/><path fill="#333" d="M185-48c-13 30-37 53-82 52C43 2 14-33 14-96s30-98 90-98c62 0 83 45 84 108H66c0 31 8 55 39 56 18 0 30-7 34-22zm-45-69c5-46-57-63-70-21-2 6-4 13-4 21h74" id="x"/><path fill="#333" d="M135-150c-39-12-60 13-60 57V0H25l-1-190h47c2 13-1 29 3 40 6-28 27-53 61-41v41" id="y"/><path fill="#333" d="M128 0H69L1-190h53L99-40l48-150h52" id="z"/><path fill="#333" d="M190-63c-7 42-38 67-86 67-59 0-84-38-90-98-12-110 154-137 174-36l-49 2c-2-19-15-32-35-32-30 0-35 28-38 64-6 74 65 87 74 30" id="A"/><path fill="#333" d="M199 0l-22-63H83L61 0H9l90-248h61L250 0h-51zm-33-102l-36-108c-10 38-24 72-36 108h72" id="B"/><path fill="#333" d="M88-194c31-1 46 15 58 34l-1-101h50l1 261h-48c-2-10 0-23-3-31C134-8 116 4 84 4 32 4 16-41 15-95c0-56 19-97 73-99zm17 164c33 0 40-30 41-66 1-37-9-64-41-64s-38 30-39 65c0 43 13 65 39 65" id="C"/><path fill="#333" d="M135-194c53 0 70 44 70 98 0 56-19 98-73 100-31 1-45-17-59-34 3 33 2 69 2 105H25l-1-265h48c2 10 0 23 3 31 11-24 29-35 60-35zM114-30c33 0 39-31 40-66 0-38-9-64-40-64-56 0-55 130 0 130" id="D"/><path fill="#333" d="M115-3C79 11 28 4 28-45v-112H4v-33h27l15-45h31v45h36v33H77v99c-1 23 16 31 38 25v30" id="E"/><g id="a"><use transform="matrix(0.06172839506172839,0,0,0.06172839506172839,0,0)" xlink:href="#s"/><use transform="matrix(0.06172839506172839,0,0,0.06172839506172839,18.456790123456788,0)" xlink:href="#t"/><use transform="matrix(0.06172839506172839,0,0,0.06172839506172839,30.80246913580247,0)" xlink:href="#u"/><use transform="matrix(0.06172839506172839,0,0,0.06172839506172839,36.97530864197531,0)" xlink:href="#v"/><use transform="matrix(0.06172839506172839,0,0,0.06172839506172839,43.14814814814815,0)" xlink:href="#w"/><use transform="matrix(0.06172839506172839,0,0,0.06172839506172839,57.96296296296296,0)" xlink:href="#x"/><use transform="matrix(0.06172839506172839,0,0,0.06172839506172839,70.30864197530865,0)" xlink:href="#y"/><use transform="matrix(0.06172839506172839,0,0,0.06172839506172839,78.95061728395062,0)" xlink:href="#z"/><use transform="matrix(0.06172839506172839,0,0,0.06172839506172839,91.2962962962963,0)" xlink:href="#u"/><use transform="matrix(0.06172839506172839,0,0,0.06172839506172839,97.46913580246914,0)" xlink:href="#A"/><use transform="matrix(0.06172839506172839,0,0,0.06172839506172839,109.81481481481482,0)" xlink:href="#x"/><use transform="matrix(0.06172839506172839,0,0,0.06172839506172839,122.16049382716051,0)" xlink:href="#B"/><use transform="matrix(0.06172839506172839,0,0,0.06172839506172839,138.14814814814815,0)" xlink:href="#C"/><use transform="matrix(0.06172839506172839,0,0,0.06172839506172839,151.66666666666666,0)" xlink:href="#t"/><use transform="matrix(0.06172839506172839,0,0,0.06172839506172839,164.01234567901233,0)" xlink:href="#D"/><use transform="matrix(0.06172839506172839,0,0,0.06172839506172839,177.53086419753083,0)" xlink:href="#E"/><use transform="matrix(0.06172839506172839,0,0,0.06172839506172839,184.8765432098765,0)" xlink:href="#x"/><use transform="matrix(0.06172839506172839,0,0,0.06172839506172839,197.22222222222217,0)" xlink:href="#y"/></g><path fill="#333" d="M24 0v-248h52V0H24" id="F"/><path fill="#333" d="M135-194c87-1 58 113 63 194h-50c-7-57 23-157-34-157-59 0-34 97-39 157H25l-1-190h47c2 12-1 28 3 38 12-26 28-41 61-42" id="G"/><path fill="#333" d="M121-226c-27-7-43 5-38 36h38v33H83V0H34v-157H6v-33h28c-9-59 32-81 87-68v32" id="H"/><g id="d"><use transform="matrix(0.05555555555555552,0,0,0.05555555555555552,0,0)" xlink:href="#s"/><use transform="matrix(0.05555555555555552,0,0,0.05555555555555552,16.6111111111111,0)" xlink:href="#t"/><use transform="matrix(0.05555555555555552,0,0,0.05555555555555552,27.722222222222204,0)" xlink:href="#u"/><use transform="matrix(0.05555555555555552,0,0,0.05555555555555552,33.27777777777776,0)" xlink:href="#v"/><use transform="matrix(0.05555555555555552,0,0,0.05555555555555552,38.83333333333331,0)" xlink:href="#w"/><use transform="matrix(0.05555555555555552,0,0,0.05555555555555552,52.16666666666663,0)" xlink:href="#x"/><use transform="matrix(0.05555555555555552,0,0,0.05555555555555552,63.277777777777736,0)" xlink:href="#y"/><use transform="matrix(0.05555555555555552,0,0,0.05555555555555552,71.0555555555555,0)" xlink:href="#z"/><use transform="matrix(0.05555555555555552,0,0,0.05555555555555552,82.1666666666666,0)" xlink:href="#u"/><use transform="matrix(0.05555555555555552,0,0,0.05555555555555552,87.72222222222216,0)" xlink:href="#A"/><use transform="matrix(0.05555555555555552,0,0,0.05555555555555552,98.83333333333326,0)" xlink:href="#x"/><use transform="matrix(0.05555555555555552,0,0,0.05555555555555552,109.94444444444436,0)" xlink:href="#F"/><use transform="matrix(0.05555555555555552,0,0,0.05555555555555552,115.49999999999991,0)" xlink:href="#G"/><use transform="matrix(0.05555555555555552,0,0,0.05555555555555552,127.66666666666659,0)" xlink:href="#E"/><use transform="matrix(0.05555555555555552,0,0,0.05555555555555552,134.2777777777777,0)" xlink:href="#x"/><use transform="matrix(0.05555555555555552,0,0,0.05555555555555552,145.3888888888888,0)" xlink:href="#y"/><use transform="matrix(0.05555555555555552,0,0,0.05555555555555552,153.16666666666657,0)" xlink:href="#H"/><use transform="matrix(0.05555555555555552,0,0,0.05555555555555552,159.7777777777777,0)" xlink:href="#t"/><use transform="matrix(0.05555555555555552,0,0,0.05555555555555552,170.8888888888888,0)" xlink:href="#A"/><use transform="matrix(0.05555555555555552,0,0,0.05555555555555552,181.99999999999991,0)" xlink:href="#x"/></g><path fill="#333" d="M24-248c93 1 206-16 204 79-1 75-69 88-152 82V0H24v-248zm52 121c47 0 100 7 100-41 0-47-54-39-100-39v80" id="I"/><path fill="#333" d="M137-138c1-29-70-34-71-4 15 46 118 7 119 86 1 83-164 76-172 9l43-7c4 19 20 25 44 25 33 8 57-30 24-41C81-84 22-81 20-136c-2-80 154-74 161-7" id="J"/><path fill="#333" d="M84 4C32 4 15-41 15-95c0-55 18-99 73-99 29 0 47 12 58 34l2-30h48l-1 265h-49V-32C136-9 114 4 84 4zm21-34c32 0 41-29 41-66 0-36-9-64-40-64-33 0-39 30-40 65 0 43 13 65 39 65" id="K"/><path fill="#333" d="M85 4C-2 5 27-109 22-190h50c7 57-23 150 33 157 60-5 35-97 40-157h50l1 190h-47c-2-12 1-28-3-38-12 25-28 42-61 42" id="L"/><g id="f"><use transform="matrix(0.05555555555555552,0,0,0.05555555555555552,0,0)" xlink:href="#I"/><use transform="matrix(0.05555555555555552,0,0,0.05555555555555552,13.333333333333325,0)" xlink:href="#x"/><use transform="matrix(0.05555555555555552,0,0,0.05555555555555552,24.44444444444443,0)" xlink:href="#J"/><use transform="matrix(0.05555555555555552,0,0,0.05555555555555552,35.55555555555553,0)" xlink:href="#K"/><use transform="matrix(0.05555555555555552,0,0,0.05555555555555552,47.722222222222186,0)" xlink:href="#L"/><use transform="matrix(0.05555555555555552,0,0,0.05555555555555552,59.88888888888885,0)" xlink:href="#u"/><use transform="matrix(0.05555555555555552,0,0,0.05555555555555552,65.4444444444444,0)" xlink:href="#J"/><use transform="matrix(0.05555555555555552,0,0,0.05555555555555552,76.5555555555555,0)" xlink:href="#t"/></g><path fill="#333" d="M33 0v-248h34V0H33" id="M"/><path fill="#333" d="M117-194c89-4 53 116 60 194h-32v-121c0-31-8-49-39-48C34-167 62-67 57 0H25l-1-190h30c1 10-1 24 2 32 11-22 29-35 61-36" id="N"/><path fill="#333" d="M59-47c-2 24 18 29 38 22v24C64 9 27 4 27-40v-127H5v-23h24l9-43h21v43h35v23H59v120" id="O"/><path fill="#333" d="M100-194c63 0 86 42 84 106H49c0 40 14 67 53 68 26 1 43-12 49-29l28 8c-11 28-37 45-77 45C44 4 14-33 15-96c1-61 26-98 85-98zm52 81c6-60-76-77-97-28-3 7-6 17-6 28h103" id="P"/><path fill="#333" d="M114-163C36-179 61-72 57 0H25l-1-190h30c1 12-1 29 2 39 6-27 23-49 58-41v29" id="Q"/><path fill="#333" d="M101-234c-31-9-42 10-38 44h38v23H63V0H32v-167H5v-23h27c-7-52 17-82 69-68v24" id="R"/><path fill="#333" d="M141-36C126-15 110 5 73 4 37 3 15-17 15-53c-1-64 63-63 125-63 3-35-9-54-41-54-24 1-41 7-42 31l-33-3c5-37 33-52 76-52 45 0 72 20 72 64v82c-1 20 7 32 28 27v20c-31 9-61-2-59-35zM48-53c0 20 12 33 32 33 41-3 63-29 60-74-43 2-92-5-92 41" id="S"/><path fill="#333" d="M96-169c-40 0-48 33-48 73s9 75 48 75c24 0 41-14 43-38l32 2c-6 37-31 61-74 61-59 0-76-41-82-99-10-93 101-131 147-64 4 7 5 14 7 22l-32 3c-4-21-16-35-41-35" id="T"/><g id="g"><use transform="matrix(0.06172839506172839,0,0,0.06172839506172839,0,0)" xlink:href="#M"/><use transform="matrix(0.06172839506172839,0,0,0.06172839506172839,6.172839506172839,0)" xlink:href="#N"/><use transform="matrix(0.06172839506172839,0,0,0.06172839506172839,18.51851851851852,0)" xlink:href="#O"/><use transform="matrix(0.06172839506172839,0,0,0.06172839506172839,24.691358024691358,0)" xlink:href="#P"/><use transform="matrix(0.06172839506172839,0,0,0.06172839506172839,37.03703703703704,0)" xlink:href="#Q"/><use transform="matrix(0.06172839506172839,0,0,0.06172839506172839,44.382716049382715,0)" xlink:href="#R"/><use transform="matrix(0.06172839506172839,0,0,0.06172839506172839,50.55555555555556,0)" xlink:href="#S"/><use transform="matrix(0.06172839506172839,0,0,0.06172839506172839,62.901234567901234,0)" xlink:href="#T"/><use transform="matrix(0.06172839506172839,0,0,0.06172839506172839,74.01234567901234,0)" xlink:href="#P"/></g><path fill="#333" d="M266 0h-40l-56-210L115 0H75L2-248h35L96-30l15-64 43-154h32l59 218 59-218h35" id="U"/><path fill="#333" d="M115-194c53 0 69 39 70 98 0 66-23 100-70 100C84 3 66-7 56-30L54 0H23l1-261h32v101c10-23 28-34 59-34zm-8 174c40 0 45-34 45-75 0-40-5-75-45-74-42 0-51 32-51 76 0 43 10 73 51 73" id="V"/><g id="h"><use transform="matrix(0.06172839506172839,0,0,0.06172839506172839,0,0)" xlink:href="#U"/><use transform="matrix(0.06172839506172839,0,0,0.06172839506172839,20.493827160493826,0)" xlink:href="#P"/><use transform="matrix(0.06172839506172839,0,0,0.06172839506172839,32.839506172839506,0)" xlink:href="#V"/></g><path fill="#333" d="M240 0l2-218c-23 76-54 145-80 218h-23L58-218 59 0H30v-248h44l77 211c21-75 51-140 76-211h43V0h-30" id="W"/><path fill="#333" d="M100-194c62-1 85 37 85 99 1 63-27 99-86 99S16-35 15-95c0-66 28-99 85-99zM99-20c44 1 53-31 53-75 0-43-8-75-51-75s-53 32-53 75 10 74 51 75" id="X"/><path fill="#333" d="M24-231v-30h32v30H24zM24 0v-190h32V0H24" id="Y"/><path fill="#333" d="M24 0v-261h32V0H24" id="Z"/><g id="i"><use transform="matrix(0.06172839506172839,0,0,0.06172839506172839,0,0)" xlink:href="#W"/><use transform="matrix(0.06172839506172839,0,0,0.06172839506172839,18.456790123456788,0)" xlink:href="#X"/><use transform="matrix(0.06172839506172839,0,0,0.06172839506172839,30.80246913580247,0)" xlink:href="#V"/><use transform="matrix(0.06172839506172839,0,0,0.06172839506172839,43.148148148148145,0)" xlink:href="#Y"/><use transform="matrix(0.06172839506172839,0,0,0.06172839506172839,48.02469135802469,0)" xlink:href="#Z"/><use transform="matrix(0.06172839506172839,0,0,0.06172839506172839,52.901234567901234,0)" xlink:href="#P"/></g><path fill="#333" d="M24 0v-248h52v208h133V0H24" id="aa"/><path fill="#333" d="M135-194c52 0 70 43 70 98 0 56-19 99-73 100-30 1-46-15-58-35L72 0H24l1-261h50v104c11-23 29-37 60-37zM114-30c31 0 40-27 40-66 0-37-7-63-39-63s-41 28-41 65c0 36 8 64 40 64" id="ab"/><path fill="#333" d="M123 10C108 53 80 86 19 72V37c35 8 53-11 59-39L3-190h52l48 148c12-52 28-100 44-148h51" id="ac"/><g id="j"><use transform="matrix(0.06172839506172839,0,0,0.06172839506172839,0,0)" xlink:href="#s"/><use transform="matrix(0.06172839506172839,0,0,0.06172839506172839,18.456790123456788,0)" xlink:href="#t"/><use transform="matrix(0.06172839506172839,0,0,0.06172839506172839,30.80246913580247,0)" xlink:href="#u"/><use transform="matrix(0.06172839506172839,0,0,0.06172839506172839,36.97530864197531,0)" xlink:href="#v"/><use transform="matrix(0.06172839506172839,0,0,0.06172839506172839,43.14814814814815,0)" xlink:href="#aa"/><use transform="matrix(0.06172839506172839,0,0,0.06172839506172839,56.66666666666667,0)" xlink:href="#u"/><use transform="matrix(0.06172839506172839,0,0,0.06172839506172839,62.83950617283951,0)" xlink:href="#ab"/><use transform="matrix(0.06172839506172839,0,0,0.06172839506172839,76.35802469135803,0)" xlink:href="#y"/><use transform="matrix(0.06172839506172839,0,0,0.06172839506172839,85,0)" xlink:href="#t"/><use transform="matrix(0.06172839506172839,0,0,0.06172839506172839,97.34567901234568,0)" xlink:href="#y"/><use transform="matrix(0.06172839506172839,0,0,0.06172839506172839,105.98765432098766,0)" xlink:href="#ac"/></g><path fill="#333" d="M210-169c-67 3-38 105-44 169h-31v-121c0-29-5-50-35-48C34-165 62-65 56 0H25l-1-190h30c1 10-1 24 2 32 10-44 99-50 107 0 11-21 27-35 58-36 85-2 47 119 55 194h-31v-121c0-29-5-49-35-48" id="ad"/><path fill="#333" d="M84 4C-5 8 30-112 23-190h32v120c0 31 7 50 39 49 72-2 45-101 50-169h31l1 190h-30c-1-10 1-25-2-33-11 22-28 36-60 37" id="ae"/><path fill="#333" d="M96-169c-40 0-48 33-48 73s9 75 48 75c24 0 41-14 43-38l32 2c-6 37-31 61-74 61-59 0-76-41-82-99-10-93 101-131 147-64 4 7 5 14 7 22l-32 3c-4-21-16-35-41-35zm3 187c19-1 33 8 33 26 0 31-30 33-64 32V58c18 2 39 4 41-13 1-15-18-13-34-13L87 0h19" id="af"/><path fill="#333" d="M141-36C126-15 110 5 73 4 37 3 15-17 15-53c-1-64 63-63 125-63 3-35-9-54-41-54-24 1-41 7-42 31l-33-3c5-37 33-52 76-52 45 0 72 20 72 64v82c-1 20 7 32 28 27v20c-31 9-61-2-59-35zM48-53c0 20 12 33 32 33 41-3 63-29 60-74-43 2-92-5-92 41zm117-205c-3 23-9 48-36 47-26-1-65-44-74 0H39c4-23 8-48 36-47s64 44 74 0h16" id="ag"/><g id="k"><use transform="matrix(0.06172839506172839,0,0,0.06172839506172839,0,0)" xlink:href="#T"/><use transform="matrix(0.06172839506172839,0,0,0.06172839506172839,11.11111111111111,0)" xlink:href="#X"/><use transform="matrix(0.06172839506172839,0,0,0.06172839506172839,23.45679012345679,0)" xlink:href="#ad"/><use transform="matrix(0.06172839506172839,0,0,0.06172839506172839,41.91358024691358,0)" xlink:href="#ae"/><use transform="matrix(0.06172839506172839,0,0,0.06172839506172839,54.25925925925926,0)" xlink:href="#N"/><use transform="matrix(0.06172839506172839,0,0,0.06172839506172839,66.60493827160494,0)" xlink:href="#Y"/><use transform="matrix(0.06172839506172839,0,0,0.06172839506172839,71.48148148148148,0)" xlink:href="#T"/><use transform="matrix(0.06172839506172839,0,0,0.06172839506172839,82.5925925925926,0)" xlink:href="#S"/><use transform="matrix(0.06172839506172839,0,0,0.06172839506172839,94.93827160493828,0)" xlink:href="#af"/><use transform="matrix(0.06172839506172839,0,0,0.06172839506172839,106.0493827160494,0)" xlink:href="#ag"/><use transform="matrix(0.06172839506172839,0,0,0.06172839506172839,118.39506172839508,0)" xlink:href="#X"/></g><path fill="#333" d="M85-194c31 0 48 13 60 33l-1-100h32l1 261h-30c-2-10 0-23-3-31C134-8 116 4 85 4 32 4 16-35 15-94c0-66 23-100 70-100zm9 24c-40 0-46 34-46 75 0 40 6 74 45 74 42 0 51-32 51-76 0-42-9-74-50-73" id="ah"/><g id="l"><use transform="matrix(0.06172839506172839,0,0,0.06172839506172839,0,0)" xlink:href="#ah"/><use transform="matrix(0.06172839506172839,0,0,0.06172839506172839,12.345679012345679,0)" xlink:href="#P"/></g><g id="m"><use transform="matrix(0.06172839506172839,0,0,0.06172839506172839,0,0)" xlink:href="#R"/><use transform="matrix(0.06172839506172839,0,0,0.06172839506172839,6.172839506172839,0)" xlink:href="#X"/><use transform="matrix(0.06172839506172839,0,0,0.06172839506172839,18.51851851851852,0)" xlink:href="#Q"/><use transform="matrix(0.06172839506172839,0,0,0.06172839506172839,25.864197530864196,0)" xlink:href="#S"/></g><path fill="#333" d="M115-194c55 1 70 41 70 98S169 2 115 4C84 4 66-9 55-30l1 105H24l-1-265h31l2 30c10-21 28-34 59-34zm-8 174c40 0 45-34 45-75s-6-73-45-74c-42 0-51 32-51 76 0 43 10 73 51 73" id="ai"/><g id="n"><use transform="matrix(0.06172839506172839,0,0,0.06172839506172839,0,0)" xlink:href="#ai"/><use transform="matrix(0.06172839506172839,0,0,0.06172839506172839,12.345679012345679,0)" xlink:href="#S"/><use transform="matrix(0.06172839506172839,0,0,0.06172839506172839,24.691358024691358,0)" xlink:href="#Q"/><use transform="matrix(0.06172839506172839,0,0,0.06172839506172839,32.03703703703704,0)" xlink:href="#S"/></g><g id="o"><use transform="matrix(0.06172839506172839,0,0,0.06172839506172839,0,0)" xlink:href="#ah"/><use transform="matrix(0.06172839506172839,0,0,0.06172839506172839,12.345679012345679,0)" xlink:href="#P"/><use transform="matrix(0.06172839506172839,0,0,0.06172839506172839,24.691358024691358,0)" xlink:href="#N"/><use transform="matrix(0.06172839506172839,0,0,0.06172839506172839,37.03703703703704,0)" xlink:href="#O"/><use transform="matrix(0.06172839506172839,0,0,0.06172839506172839,43.20987654320988,0)" xlink:href="#Q"/><use transform="matrix(0.06172839506172839,0,0,0.06172839506172839,50.55555555555556,0)" xlink:href="#X"/></g><g id="p"><use transform="matrix(0.06172839506172839,0,0,0.06172839506172839,0,0)" xlink:href="#ah"/><use transform="matrix(0.06172839506172839,0,0,0.06172839506172839,12.345679012345679,0)" xlink:href="#P"/></g><g id="q"><use transform="matrix(0.06172839506172839,0,0,0.06172839506172839,0,0)" xlink:href="#ah"/><use transform="matrix(0.06172839506172839,0,0,0.06172839506172839,12.345679012345679,0)" xlink:href="#P"/><use transform="matrix(0.06172839506172839,0,0,0.06172839506172839,24.691358024691358,0)" xlink:href="#N"/><use transform="matrix(0.06172839506172839,0,0,0.06172839506172839,37.03703703703704,0)" xlink:href="#O"/><use transform="matrix(0.06172839506172839,0,0,0.06172839506172839,43.20987654320988,0)" xlink:href="#Q"/><use transform="matrix(0.06172839506172839,0,0,0.06172839506172839,50.55555555555556,0)" xlink:href="#X"/></g><g id="r"><use transform="matrix(0.06172839506172839,0,0,0.06172839506172839,0,0)" xlink:href="#R"/><use transform="matrix(0.06172839506172839,0,0,0.06172839506172839,6.172839506172839,0)" xlink:href="#X"/><use transform="matrix(0.06172839506172839,0,0,0.06172839506172839,18.51851851851852,0)" xlink:href="#Q"/><use transform="matrix(0.06172839506172839,0,0,0.06172839506172839,25.864197530864196,0)" xlink:href="#S"/></g></defs></g></svg>