<svg version="1.1" viewBox="0.0 0.0 600.0 371.0" fill="none" stroke="none" stroke-linecap="square" stroke-miterlimit="10" width="600" height="371" xmlns:xlink="http://www.w3.org/1999/xlink" xmlns="http://www.w3.org/2000/svg"><path fill="#ffffff" d="M0 0L600.0 0L600.0 371.0L0 371.0L0 0Z" fill-rule="nonzero"/><path stroke="#cccccc" stroke-width="1.0" stroke-linecap="butt" d="M105.5 88.5L105.5 300.5" fill-rule="nonzero"/><path stroke="#cccccc" stroke-width="1.0" stroke-linecap="butt" d="M224.5 88.5L224.5 300.5" fill-rule="nonzero"/><path stroke="#cccccc" stroke-width="1.0" stroke-linecap="butt" d="M343.5 88.5L343.5 300.5" fill-rule="nonzero"/><path stroke="#cccccc" stroke-width="1.0" stroke-linecap="butt" d="M462.5 88.5L462.5 300.5" fill-rule="nonzero"/><path stroke="#cccccc" stroke-width="1.0" stroke-linecap="butt" d="M581.5 88.5L581.5 300.5" fill-rule="nonzero"/><path stroke="#333333" stroke-width="1.0" stroke-linecap="butt" d="M45.5 300.5L581.5 300.5" fill-rule="nonzero"/><path stroke="#cccccc" stroke-width="1.0" stroke-linecap="butt" d="M45.5 247.5L581.5 247.5" fill-rule="nonzero"/><path stroke="#cccccc" stroke-width="1.0" stroke-linecap="butt" d="M45.5 194.5L581.5 194.5" fill-rule="nonzero"/><path stroke="#cccccc" stroke-width="1.0" stroke-linecap="butt" d="M45.5 141.5L581.5 141.5" fill-rule="nonzero"/><path stroke="#cccccc" stroke-width="1.0" stroke-linecap="butt" d="M45.5 88.5L581.5 88.5" fill-rule="nonzero"/><clipPath id="id_0"><path d="M45.55 88.28333L581.45 88.28333L581.45 300.45L45.55 300.45L45.55 88.28333Z" clip-rule="nonzero"/></clipPath><path fill="#4285f4" fill-opacity="0.3019608" clip-path="url(#id_0)" d="M45.55 291.96335L105.094444 272.86835L164.63889 255.895L224.18333 236.8L283.72778 217.705L343.27222 209.21834L402.81668 202.85333L462.3611 198.61L521.9056 196.48833L581.45 194.36667L581.45 300.45L521.9056 300.45L462.3611 300.45L402.81668 300.45L343.27222 300.45L283.72778 300.45L224.18333 300.45L164.63889 300.45L105.094444 300.45L45.55 300.45Z" fill-rule="nonzero"/><path fill="#ea4335" fill-opacity="0.3019608" clip-path="url(#id_0)" d="M45.55 272.86835L105.094444 255.895L164.63889 236.8L224.18333 217.705L283.72778 209.21834L343.27222 202.85333L402.81668 198.61L462.3611 196.48833L521.9056 194.36667L581.45 190.12334L581.45 194.36667L521.9056 196.48833L462.3611 198.61L402.81668 202.85333L343.27222 209.21834L283.72778 217.705L224.18333 236.8L164.63889 255.895L105.094444 272.86835L45.55 291.96335Z" fill-rule="nonzero"/><path fill="#fbbc04" fill-opacity="0.3019608" clip-path="url(#id_0)" d="M45.55 251.65167L105.094444 238.92166L164.63889 215.58333L224.18333 175.27167L283.72778 166.785L343.27222 156.17667L402.81668 145.56833L462.3611 141.325L521.9056 141.325L581.45 137.08167L581.45 190.12334L521.9056 194.36667L462.3611 196.48833L402.81668 198.61L343.27222 202.85333L283.72778 209.21834L224.18333 217.705L164.63889 236.8L105.094444 255.895L45.55 272.86835Z" fill-rule="nonzero"/><path fill="#34a853" fill-opacity="0.3019608" clip-path="url(#id_0)" d="M45.55 230.435L105.094444 219.82666L164.63889 194.36667L224.18333 158.29834L283.72778 145.56833L343.27222 132.83833L402.81668 128.595L462.3611 120.10833L521.9056 115.865L581.45 111.621666L581.45 137.08167L521.9056 141.325L462.3611 141.325L402.81668 145.56833L343.27222 156.17667L283.72778 166.785L224.18333 175.27167L164.63889 215.58333L105.094444 238.92166L45.55 251.65167Z" fill-rule="nonzero"/><path stroke="#4285f4" stroke-width="2.0" stroke-linecap="butt" clip-path="url(#id_0)" d="M45.55 291.96335L105.094444 272.86835L164.63889 255.895L224.18333 236.8L283.72778 217.705L343.27222 209.21834L402.81668 202.85333L462.3611 198.61L521.9056 196.48833L581.45 194.36667" fill-rule="nonzero"/><path stroke="#ea4335" stroke-width="2.0" stroke-linecap="butt" clip-path="url(#id_0)" d="M45.55 272.86835L105.094444 255.895L164.63889 236.8L224.18333 217.705L283.72778 209.21834L343.27222 202.85333L402.81668 198.61L462.3611 196.48833L521.9056 194.36667L581.45 190.12334" fill-rule="nonzero"/><path stroke="#fbbc04" stroke-width="2.0" stroke-linecap="butt" clip-path="url(#id_0)" d="M45.55 251.65167L105.094444 238.92166L164.63889 215.58333L224.18333 175.27167L283.72778 166.785L343.27222 156.17667L402.81668 145.56833L462.3611 141.325L521.9056 141.325L581.45 137.08167" fill-rule="nonzero"/><path stroke="#34a853" stroke-width="2.0" stroke-linecap="butt" clip-path="url(#id_0)" d="M45.55 230.435L105.094444 219.82666L164.63889 194.36667L224.18333 158.29834L283.72778 145.56833L343.27222 132.83833L402.81668 128.595L462.3611 120.10833L521.9056 115.865L581.45 111.621666" fill-rule="nonzero"/><path fill="#000000" fill-opacity="0.0" clip-path="url(#id_0)" d="M48.55 291.96335C48.55 293.62018 47.206856 294.96335 45.55 294.96335C43.893147 294.96335 42.55 293.62018 42.55 291.96335C42.55 290.3065 43.893147 288.96335 45.55 288.96335C47.206856 288.96335 48.55 290.3065 48.55 291.96335Z" fill-rule="nonzero"/><path fill="#000000" fill-opacity="0.0" clip-path="url(#id_0)" d="M108.094444 272.86835C108.094444 274.52518 106.7513 275.86835 105.094444 275.86835C103.43759 275.86835 102.094444 274.52518 102.094444 272.86835C102.094444 271.2115 103.43759 269.86835 105.094444 269.86835C106.7513 269.86835 108.094444 271.2115 108.094444 272.86835Z" fill-rule="nonzero"/><path fill="#000000" fill-opacity="0.0" clip-path="url(#id_0)" d="M167.63889 255.895C167.63889 257.55185 166.29575 258.895 164.63889 258.895C162.98204 258.895 161.63889 257.55185 161.63889 255.895C161.63889 254.23814 162.98204 252.895 164.63889 252.895C166.29575 252.895 167.63889 254.23814 167.63889 255.895Z" fill-rule="nonzero"/><path fill="#000000" fill-opacity="0.0" clip-path="url(#id_0)" d="M227.18333 236.8C227.18333 238.45685 225.8402 239.8 224.18333 239.8C222.52647 239.8 221.18333 238.45685 221.18333 236.8C221.18333 235.14314 222.52647 233.8 224.18333 233.8C225.8402 233.8 227.18333 235.14314 227.18333 236.8Z" fill-rule="nonzero"/><path fill="#000000" fill-opacity="0.0" clip-path="url(#id_0)" d="M286.72778 217.705C286.72778 219.36185 285.38464 220.705 283.72778 220.705C282.07092 220.705 280.72778 219.36185 280.72778 217.705C280.72778 216.04814 282.07092 214.705 283.72778 214.705C285.38464 214.705 286.72778 216.04814 286.72778 217.705Z" fill-rule="nonzero"/><path fill="#000000" fill-opacity="0.0" clip-path="url(#id_0)" d="M346.27222 209.21834C346.27222 210.87518 344.92908 212.21834 343.27222 212.21834C341.61536 212.21834 340.27222 210.87518 340.27222 209.21834C340.27222 207.56148 341.61536 206.21834 343.27222 206.21834C344.92908 206.21834 346.27222 207.56148 346.27222 209.21834Z" fill-rule="nonzero"/><path fill="#000000" fill-opacity="0.0" clip-path="url(#id_0)" d="M405.81668 202.85333C405.81668 204.5102 404.4735 205.85333 402.81668 205.85333C401.15982 205.85333 399.81668 204.5102 399.81668 202.85333C399.81668 201.19647 401.15982 199.85333 402.81668 199.85333C404.4735 199.85333 405.81668 201.19647 405.81668 202.85333Z" fill-rule="nonzero"/><path fill="#000000" fill-opacity="0.0" clip-path="url(#id_0)" d="M465.3611 198.61C465.3611 200.26686 464.01797 201.61 462.3611 201.61C460.70425 201.61 459.3611 200.26686 459.3611 198.61C459.3611 196.95314 460.70425 195.61 462.3611 195.61C464.01797 195.61 465.3611 196.95314 465.3611 198.61Z" fill-rule="nonzero"/><path fill="#000000" fill-opacity="0.0" clip-path="url(#id_0)" d="M524.9056 196.48833C524.9056 198.14519 523.56244 199.48833 521.9056 199.48833C520.2487 199.48833 518.9056 198.14519 518.9056 196.48833C518.9056 194.83148 520.2487 193.48833 521.9056 193.48833C523.56244 193.48833 524.9056 194.83148 524.9056 196.48833Z" fill-rule="nonzero"/><path fill="#000000" fill-opacity="0.0" clip-path="url(#id_0)" d="M584.45 194.36667C584.45 196.02351 583.1069 197.36667 581.45 197.36667C579.79315 197.36667 578.45 196.02351 578.45 194.36667C578.45 192.70981 579.79315 191.36667 581.45 191.36667C583.1069 191.36667 584.45 192.70981 584.45 194.36667Z" fill-rule="nonzero"/><path fill="#000000" fill-opacity="0.0" clip-path="url(#id_0)" d="M48.55 272.86835C48.55 274.52518 47.206856 275.86835 45.55 275.86835C43.893147 275.86835 42.55 274.52518 42.55 272.86835C42.55 271.2115 43.893147 269.86835 45.55 269.86835C47.206856 269.86835 48.55 271.2115 48.55 272.86835Z" fill-rule="nonzero"/><path fill="#000000" fill-opacity="0.0" clip-path="url(#id_0)" d="M108.094444 255.895C108.094444 257.55185 106.7513 258.895 105.094444 258.895C103.43759 258.895 102.094444 257.55185 102.094444 255.895C102.094444 254.23814 103.43759 252.895 105.094444 252.895C106.7513 252.895 108.094444 254.23814 108.094444 255.895Z" fill-rule="nonzero"/><path fill="#000000" fill-opacity="0.0" clip-path="url(#id_0)" d="M167.63889 236.8C167.63889 238.45685 166.29575 239.8 164.63889 239.8C162.98204 239.8 161.63889 238.45685 161.63889 236.8C161.63889 235.14314 162.98204 233.8 164.63889 233.8C166.29575 233.8 167.63889 235.14314 167.63889 236.8Z" fill-rule="nonzero"/><path fill="#000000" fill-opacity="0.0" clip-path="url(#id_0)" d="M227.18333 217.705C227.18333 219.36185 225.8402 220.705 224.18333 220.705C222.52647 220.705 221.18333 219.36185 221.18333 217.705C221.18333 216.04814 222.52647 214.705 224.18333 214.705C225.8402 214.705 227.18333 216.04814 227.18333 217.705Z" fill-rule="nonzero"/><path fill="#000000" fill-opacity="0.0" clip-path="url(#id_0)" d="M286.72778 209.21834C286.72778 210.87518 285.38464 212.21834 283.72778 212.21834C282.07092 212.21834 280.72778 210.87518 280.72778 209.21834C280.72778 207.56148 282.07092 206.21834 283.72778 206.21834C285.38464 206.21834 286.72778 207.56148 286.72778 209.21834Z" fill-rule="nonzero"/><path fill="#000000" fill-opacity="0.0" clip-path="url(#id_0)" d="M346.27222 202.85333C346.27222 204.5102 344.92908 205.85333 343.27222 205.85333C341.61536 205.85333 340.27222 204.5102 340.27222 202.85333C340.27222 201.19647 341.61536 199.85333 343.27222 199.85333C344.92908 199.85333 346.27222 201.19647 346.27222 202.85333Z" fill-rule="nonzero"/><path fill="#000000" fill-opacity="0.0" clip-path="url(#id_0)" d="M405.81668 198.61C405.81668 200.26686 404.4735 201.61 402.81668 201.61C401.15982 201.61 399.81668 200.26686 399.81668 198.61C399.81668 196.95314 401.15982 195.61 402.81668 195.61C404.4735 195.61 405.81668 196.95314 405.81668 198.61Z" fill-rule="nonzero"/><path fill="#000000" fill-opacity="0.0" clip-path="url(#id_0)" d="M465.3611 196.48833C465.3611 198.14519 464.01797 199.48833 462.3611 199.48833C460.70425 199.48833 459.3611 198.14519 459.3611 196.48833C459.3611 194.83148 460.70425 193.48833 462.3611 193.48833C464.01797 193.48833 465.3611 194.83148 465.3611 196.48833Z" fill-rule="nonzero"/><path fill="#000000" fill-opacity="0.0" clip-path="url(#id_0)" d="M524.9056 194.36667C524.9056 196.02351 523.56244 197.36667 521.9056 197.36667C520.2487 197.36667 518.9056 196.02351 518.9056 194.36667C518.9056 192.70981 520.2487 191.36667 521.9056 191.36667C523.56244 191.36667 524.9056 192.70981 524.9056 194.36667Z" fill-rule="nonzero"/><path fill="#000000" fill-opacity="0.0" clip-path="url(#id_0)" d="M584.45 190.12334C584.45 191.78018 583.1069 193.12334 581.45 193.12334C579.79315 193.12334 578.45 191.78018 578.45 190.12334C578.45 188.46648 579.79315 187.12334 581.45 187.12334C583.1069 187.12334 584.45 188.46648 584.45 190.12334Z" fill-rule="nonzero"/><path fill="#000000" fill-opacity="0.0" clip-path="url(#id_0)" d="M48.55 251.65167C48.55 253.30852 47.206856 254.65167 45.55 254.65167C43.893147 254.65167 42.55 253.30852 42.55 251.65167C42.55 249.99481 43.893147 248.65167 45.55 248.65167C47.206856 248.65167 48.55 249.99481 48.55 251.65167Z" fill-rule="nonzero"/><path fill="#000000" fill-opacity="0.0" clip-path="url(#id_0)" d="M108.094444 238.92166C108.094444 240.57852 106.7513 241.92166 105.094444 241.92166C103.43759 241.92166 102.094444 240.57852 102.094444 238.92166C102.094444 237.26482 103.43759 235.92166 105.094444 235.92166C106.7513 235.92166 108.094444 237.26482 108.094444 238.92166Z" fill-rule="nonzero"/><path fill="#000000" fill-opacity="0.0" clip-path="url(#id_0)" d="M167.63889 215.58333C167.63889 217.24019 166.29575 218.58333 164.63889 218.58333C162.98204 218.58333 161.63889 217.24019 161.63889 215.58333C161.63889 213.92648 162.98204 212.58333 164.63889 212.58333C166.29575 212.58333 167.63889 213.92648 167.63889 215.58333Z" fill-rule="nonzero"/><path fill="#000000" fill-opacity="0.0" clip-path="url(#id_0)" d="M227.18333 175.27167C227.18333 176.92853 225.8402 178.27167 224.18333 178.27167C222.52647 178.27167 221.18333 176.92853 221.18333 175.27167C221.18333 173.6148 222.52647 172.27167 224.18333 172.27167C225.8402 172.27167 227.18333 173.6148 227.18333 175.27167Z" fill-rule="nonzero"/><path fill="#000000" fill-opacity="0.0" clip-path="url(#id_0)" d="M286.72778 166.785C286.72778 168.44185 285.38464 169.785 283.72778 169.785C282.07092 169.785 280.72778 168.44185 280.72778 166.785C280.72778 165.12814 282.07092 163.785 283.72778 163.785C285.38464 163.785 286.72778 165.12814 286.72778 166.785Z" fill-rule="nonzero"/><path fill="#000000" fill-opacity="0.0" clip-path="url(#id_0)" d="M346.27222 156.17667C346.27222 157.83353 344.92908 159.17667 343.27222 159.17667C341.61536 159.17667 340.27222 157.83353 340.27222 156.17667C340.27222 154.5198 341.61536 153.17667 343.27222 153.17667C344.92908 153.17667 346.27222 154.5198 346.27222 156.17667Z" fill-rule="nonzero"/><path fill="#000000" fill-opacity="0.0" clip-path="url(#id_0)" d="M405.81668 145.56833C405.81668 147.22519 404.4735 148.56833 402.81668 148.56833C401.15982 148.56833 399.81668 147.22519 399.81668 145.56833C399.81668 143.91148 401.15982 142.56833 402.81668 142.56833C404.4735 142.56833 405.81668 143.91148 405.81668 145.56833Z" fill-rule="nonzero"/><path fill="#000000" fill-opacity="0.0" clip-path="url(#id_0)" d="M465.3611 141.325C465.3611 142.98186 464.01797 144.325 462.3611 144.325C460.70425 144.325 459.3611 142.98186 459.3611 141.325C459.3611 139.66815 460.70425 138.325 462.3611 138.325C464.01797 138.325 465.3611 139.66815 465.3611 141.325Z" fill-rule="nonzero"/><path fill="#000000" fill-opacity="0.0" clip-path="url(#id_0)" d="M524.9056 141.325C524.9056 142.98186 523.56244 144.325 521.9056 144.325C520.2487 144.325 518.9056 142.98186 518.9056 141.325C518.9056 139.66815 520.2487 138.325 521.9056 138.325C523.56244 138.325 524.9056 139.66815 524.9056 141.325Z" fill-rule="nonzero"/><path fill="#000000" fill-opacity="0.0" clip-path="url(#id_0)" d="M584.45 137.08167C584.45 138.73853 583.1069 140.08167 581.45 140.08167C579.79315 140.08167 578.45 138.73853 578.45 137.08167C578.45 135.42482 579.79315 134.08167 581.45 134.08167C583.1069 134.08167 584.45 135.42482 584.45 137.08167Z" fill-rule="nonzero"/><path fill="#000000" fill-opacity="0.0" clip-path="url(#id_0)" d="M48.55 230.435C48.55 232.09186 47.206856 233.435 45.55 233.435C43.893147 233.435 42.55 232.09186 42.55 230.435C42.55 228.77815 43.893147 227.435 45.55 227.435C47.206856 227.435 48.55 228.77815 48.55 230.435Z" fill-rule="nonzero"/><path fill="#000000" fill-opacity="0.0" clip-path="url(#id_0)" d="M108.094444 219.82666C108.094444 221.48352 106.7513 222.82666 105.094444 222.82666C103.43759 222.82666 102.094444 221.48352 102.094444 219.82666C102.094444 218.16982 103.43759 216.82666 105.094444 216.82666C106.7513 216.82666 108.094444 218.16982 108.094444 219.82666Z" fill-rule="nonzero"/><path fill="#000000" fill-opacity="0.0" clip-path="url(#id_0)" d="M167.63889 194.36667C167.63889 196.02351 166.29575 197.36667 164.63889 197.36667C162.98204 197.36667 161.63889 196.02351 161.63889 194.36667C161.63889 192.70981 162.98204 191.36667 164.63889 191.36667C166.29575 191.36667 167.63889 192.70981 167.63889 194.36667Z" fill-rule="nonzero"/><path fill="#000000" fill-opacity="0.0" clip-path="url(#id_0)" d="M227.18333 158.29834C227.18333 159.95518 225.8402 161.29834 224.18333 161.29834C222.52647 161.29834 221.18333 159.95518 221.18333 158.29834C221.18333 156.64148 222.52647 155.29834 224.18333 155.29834C225.8402 155.29834 227.18333 156.64148 227.18333 158.29834Z" fill-rule="nonzero"/><path fill="#000000" fill-opacity="0.0" clip-path="url(#id_0)" d="M286.72778 145.56833C286.72778 147.22519 285.38464 148.56833 283.72778 148.56833C282.07092 148.56833 280.72778 147.22519 280.72778 145.56833C280.72778 143.91148 282.07092 142.56833 283.72778 142.56833C285.38464 142.56833 286.72778 143.91148 286.72778 145.56833Z" fill-rule="nonzero"/><path fill="#000000" fill-opacity="0.0" clip-path="url(#id_0)" d="M346.27222 132.83833C346.27222 134.4952 344.92908 135.83833 343.27222 135.83833C341.61536 135.83833 340.27222 134.4952 340.27222 132.83833C340.27222 131.18147 341.61536 129.83833 343.27222 129.83833C344.92908 129.83833 346.27222 131.18147 346.27222 132.83833Z" fill-rule="nonzero"/><path fill="#000000" fill-opacity="0.0" clip-path="url(#id_0)" d="M405.81668 128.595C405.81668 130.25186 404.4735 131.595 402.81668 131.595C401.15982 131.595 399.81668 130.25186 399.81668 128.595C399.81668 126.93815 401.15982 125.595 402.81668 125.595C404.4735 125.595 405.81668 126.93815 405.81668 128.595Z" fill-rule="nonzero"/><path fill="#000000" fill-opacity="0.0" clip-path="url(#id_0)" d="M465.3611 120.10833C465.3611 121.76519 464.01797 123.10833 462.3611 123.10833C460.70425 123.10833 459.3611 121.76519 459.3611 120.10833C459.3611 118.45148 460.70425 117.10833 462.3611 117.10833C464.01797 117.10833 465.3611 118.45148 465.3611 120.10833Z" fill-rule="nonzero"/><path fill="#000000" fill-opacity="0.0" clip-path="url(#id_0)" d="M524.9056 115.865C524.9056 117.52185 523.56244 118.865 521.9056 118.865C520.2487 118.865 518.9056 117.52185 518.9056 115.865C518.9056 114.208145 520.2487 112.865 521.9056 112.865C523.56244 112.865 524.9056 114.208145 524.9056 115.865Z" fill-rule="nonzero"/><path fill="#000000" fill-opacity="0.0" clip-path="url(#id_0)" d="M584.45 111.621666C584.45 113.27852 583.1069 114.621666 581.45 114.621666C579.79315 114.621666 578.45 113.27852 578.45 111.621666C578.45 109.96481 579.79315 108.621666 581.45 108.621666C583.1069 108.621666 584.45 109.96481 584.45 111.621666Z" fill-rule="nonzero"/><path fill="#000000" d="M291.04688 346.6844L292.10938 346.59064Q292.1875 347.2469 292.46875 347.65314Q292.75 348.0594 293.32812 348.325Q293.92188 348.575 294.65625 348.575Q295.29688 348.575 295.79688 348.3875Q296.29688 348.1844 296.53125 347.85626Q296.78125 347.5125 296.78125 347.1219Q296.78125 346.71564 296.54688 346.41876Q296.3125 346.10626 295.78125 345.90314Q295.42188 345.7625 294.23438 345.48126Q293.0625 345.2 292.59375 344.95Q291.96875 344.6219 291.67188 344.15314Q291.375 343.66876 291.375 343.075Q291.375 342.4344 291.73438 341.8719Q292.10938 341.29376 292.8125 341.0125Q293.53125 340.71564 294.39062 340.71564Q295.34375 340.71564 296.07812 341.02814Q296.8125 341.325 297.20312 341.9344Q297.59375 342.52814 297.625 343.27814L296.53125 343.35626Q296.4375 342.54376 295.92188 342.1375Q295.42188 341.71564 294.4375 341.71564Q293.40625 341.71564 292.9375 342.09064Q292.46875 342.46564 292.46875 342.9969Q292.46875 343.46564 292.79688 343.7625Q293.125 344.0594 294.5 344.3719Q295.89062 344.6844 296.40625 344.91876Q297.15625 345.27814 297.51562 345.8094Q297.875 346.325 297.875 347.02814Q297.875 347.71564 297.48438 348.325Q297.09375 348.91876 296.35938 349.2625Q295.625 349.59064 294.70312 349.59064Q293.53125 349.59064 292.73438 349.2625Q291.95312 348.91876 291.5 348.23126Q291.0625 347.54376 291.04688 346.6844ZM303.54688 347.45L304.64062 347.575Q304.39062 348.52814 303.6875 349.0594Q302.98438 349.59064 301.90625 349.59064Q300.54688 349.59064 299.73438 348.7469Q298.9375 347.90314 298.9375 346.3875Q298.9375 344.825 299.75 343.96564Q300.5625 343.09064 301.84375 343.09064Q303.09375 343.09064 303.875 343.9344Q304.67188 344.77814 304.67188 346.325Q304.67188 346.41876 304.67188 346.60626L300.03125 346.60626Q300.09375 347.6375 300.60938 348.1844Q301.125 348.71564 301.90625 348.71564Q302.48438 348.71564 302.89062 348.41876Q303.3125 348.10626 303.54688 347.45ZM300.09375 345.7469L303.5625 345.7469Q303.5 344.95 303.17188 344.5594Q302.65625 343.95 301.85938 343.95Q301.125 343.95 300.625 344.4344Q300.14062 344.91876 300.09375 345.7469ZM306.29688 349.45L306.29688 343.23126L307.23438 343.23126L307.23438 344.10626Q307.53125 343.6375 308.01562 343.3719Q308.5 343.09064 309.125 343.09064Q309.8125 343.09064 310.25 343.3719Q310.70312 343.65314 310.875 344.16876Q311.625 343.09064 312.79688 343.09064Q313.73438 343.09064 314.21875 343.60626Q314.71875 344.10626 314.71875 345.1844L314.71875 349.45L313.67188 349.45L313.67188 345.52814Q313.67188 344.90314 313.5625 344.6219Q313.46875 344.34064 313.20312 344.16876Q312.9375 343.9969 312.5625 343.9969Q311.90625 343.9969 311.46875 344.4344Q311.04688 344.8719 311.04688 345.84064L311.04688 349.45L309.98438 349.45L309.98438 345.40314Q309.98438 344.7 309.71875 344.35626Q309.46875 343.9969 308.89062 343.9969Q308.4375 343.9969 308.0625 344.23126Q307.6875 344.46564 307.51562 344.91876Q307.34375 345.3719 307.34375 346.21564L307.34375 349.45L306.29688 349.45ZM320.35938 348.6844Q319.76562 349.1844 319.21875 349.3875Q318.6875 349.59064 318.0625 349.59064Q317.03125 349.59064 316.48438 349.09064Q315.9375 348.59064 315.9375 347.8094Q315.9375 347.35626 316.14062 346.98126Q316.34375 346.59064 316.6875 346.3719Q317.03125 346.1375 317.45312 346.02814Q317.75 345.9344 318.39062 345.85626Q319.65625 345.71564 320.26562 345.4969Q320.26562 345.27814 320.26562 345.23126Q320.26562 344.575 319.96875 344.3094Q319.5625 343.96564 318.76562 343.96564Q318.03125 343.96564 317.67188 344.23126Q317.3125 344.48126 317.14062 345.1375L316.10938 344.9969Q316.25 344.34064 316.57812 343.9344Q316.90625 343.52814 317.51562 343.3094Q318.125 343.09064 318.92188 343.09064Q319.71875 343.09064 320.21875 343.27814Q320.71875 343.46564 320.95312 343.7469Q321.1875 344.02814 321.28125 344.46564Q321.32812 344.73126 321.32812 345.4344L321.32812 346.84064Q321.32812 348.3094 321.39062 348.7Q321.46875 349.09064 321.67188 349.45L320.5625 349.45Q320.40625 349.1219 320.35938 348.6844ZM320.26562 346.325Q319.6875 346.5594 318.54688 346.73126Q317.89062 346.825 317.625 346.95Q317.35938 347.0594 317.20312 347.27814Q317.0625 347.4969 317.0625 347.77814Q317.0625 348.2 317.375 348.48126Q317.70312 348.7625 318.3125 348.7625Q318.92188 348.7625 319.39062 348.4969Q319.875 348.23126 320.09375 347.7625Q320.26562 347.40314 320.26562 346.71564L320.26562 346.325ZM323.29688 349.45L323.29688 343.23126L324.23438 343.23126L324.23438 344.10626Q324.92188 343.09064 326.21875 343.09064Q326.78125 343.09064 327.25 343.29376Q327.73438 343.4969 327.96875 343.825Q328.20312 344.15314 328.29688 344.59064Q328.34375 344.8875 328.34375 345.6219L328.34375 349.45L327.29688 349.45L327.29688 345.66876Q327.29688 345.0125 327.17188 344.7Q327.04688 344.3875 326.73438 344.2Q326.42188 343.9969 326.0 343.9969Q325.32812 343.9969 324.82812 344.4344Q324.34375 344.85626 324.34375 346.04376L324.34375 349.45L323.29688 349.45ZM334.35938 348.6844Q333.76562 349.1844 333.21875 349.3875Q332.6875 349.59064 332.0625 349.59064Q331.03125 349.59064 330.48438 349.09064Q329.9375 348.59064 329.9375 347.8094Q329.9375 347.35626 330.14062 346.98126Q330.34375 346.59064 330.6875 346.3719Q331.03125 346.1375 331.45312 346.02814Q331.75 345.9344 332.39062 345.85626Q333.65625 345.71564 334.26562 345.4969Q334.26562 345.27814 334.26562 345.23126Q334.26562 344.575 333.96875 344.3094Q333.5625 343.96564 332.76562 343.96564Q332.03125 343.96564 331.67188 344.23126Q331.3125 344.48126 331.14062 345.1375L330.10938 344.9969Q330.25 344.34064 330.57812 343.9344Q330.90625 343.52814 331.51562 343.3094Q332.125 343.09064 332.92188 343.09064Q333.71875 343.09064 334.21875 343.27814Q334.71875 343.46564 334.95312 343.7469Q335.1875 344.02814 335.28125 344.46564Q335.32812 344.73126 335.32812 345.4344L335.32812 346.84064Q335.32812 348.3094 335.39062 348.7Q335.46875 349.09064 335.67188 349.45L334.5625 349.45Q334.40625 349.1219 334.35938 348.6844ZM334.26562 346.325Q333.6875 346.5594 332.54688 346.73126Q331.89062 346.825 331.625 346.95Q331.35938 347.0594 331.20312 347.27814Q331.0625 347.4969 331.0625 347.77814Q331.0625 348.2 331.375 348.48126Q331.70312 348.7625 332.3125 348.7625Q332.92188 348.7625 333.39062 348.4969Q333.875 348.23126 334.09375 347.7625Q334.26562 347.40314 334.26562 346.71564L334.26562 346.325Z" fill-rule="nonzero"/><path fill="#000000" d="M33.05 300.21564Q33.05 298.6844 33.3625 297.7625Q33.675 296.825 34.284374 296.325Q34.909374 295.825 35.846874 295.825Q36.534374 295.825 37.05 296.10626Q37.58125 296.3875 37.925 296.91876Q38.26875 297.4344 38.45625 298.1844Q38.64375 298.9344 38.64375 300.21564Q38.64375 301.73126 38.33125 302.65314Q38.034374 303.575 37.409374 304.09064Q36.8 304.59064 35.846874 304.59064Q34.6125 304.59064 33.89375 303.7Q33.05 302.6375 33.05 300.21564ZM34.128124 300.21564Q34.128124 302.325 34.628124 303.02814Q35.128124 303.73126 35.846874 303.73126Q36.58125 303.73126 37.065624 303.02814Q37.565624 302.325 37.565624 300.21564Q37.565624 298.09064 37.065624 297.40314Q36.58125 296.7 35.83125 296.7Q35.1125 296.7 34.675 297.3094Q34.128124 298.09064 34.128124 300.21564Z" fill-rule="nonzero"/><path fill="#000000" d="M31.596874 250.39272L31.596874 251.40834L25.909374 251.40834Q25.909374 251.03334 26.034374 250.67397Q26.253124 250.09584 26.721874 249.53334Q27.20625 248.97084 28.1125 248.23647Q29.51875 247.08022 30.003124 246.40834Q30.503124 245.73647 30.503124 245.14272Q30.503124 244.51772 30.05 244.09584Q29.596874 243.65834 28.878124 243.65834Q28.1125 243.65834 27.659374 244.11147Q27.20625 244.56459 27.190624 245.37709L26.1125 245.26772Q26.221874 244.04897 26.940624 243.42397Q27.675 242.78334 28.909374 242.78334Q30.14375 242.78334 30.8625 243.47084Q31.58125 244.15834 31.58125 245.17397Q31.58125 245.68959 31.3625 246.18959Q31.159374 246.67397 30.659374 247.23647Q30.175 247.78334 29.05 248.73647Q28.096874 249.53334 27.815624 249.83022Q27.55 250.11147 27.378124 250.39272L31.596874 250.39272ZM33.05 249.15834L34.159374 249.06459Q34.284374 249.87709 34.721874 250.28334Q35.175 250.68959 35.815624 250.68959Q36.565624 250.68959 37.096874 250.11147Q37.628124 249.53334 37.628124 248.59584Q37.628124 247.68959 37.1125 247.17397Q36.6125 246.64272 35.784374 246.64272Q35.284374 246.64272 34.8625 246.87709Q34.45625 247.11147 34.221874 247.47084L33.2375 247.34584L34.065624 242.93959L38.346874 242.93959L38.346874 243.93959L34.909374 243.93959L34.45625 246.25209Q35.221874 245.70522 36.065624 245.70522Q37.190624 245.70522 37.95625 246.48647Q38.7375 247.26772 38.7375 248.50209Q38.7375 249.65834 38.065624 250.51772Q37.2375 251.54897 35.815624 251.54897Q34.64375 251.54897 33.89375 250.89272Q33.159374 250.23647 33.05 249.15834Z" fill-rule="nonzero"/><path fill="#000000" d="M26.05 196.11667L27.159374 196.02292Q27.284374 196.83542 27.721874 197.24167Q28.175 197.64792 28.815624 197.64792Q29.565624 197.64792 30.096874 197.0698Q30.628124 196.49167 30.628124 195.55417Q30.628124 194.64792 30.1125 194.1323Q29.6125 193.60104 28.784374 193.60104Q28.284374 193.60104 27.8625 193.83542Q27.45625 194.0698 27.221874 194.42917L26.2375 194.30417L27.065624 189.89792L31.346874 189.89792L31.346874 190.89792L27.909374 190.89792L27.45625 193.21042Q28.221874 192.66354 29.065624 192.66354Q30.190624 192.66354 30.95625 193.4448Q31.7375 194.22604 31.7375 195.46042Q31.7375 196.61667 31.065624 197.47604Q30.2375 198.5073 28.815624 198.5073Q27.64375 198.5073 26.89375 197.85104Q26.159374 197.1948 26.05 196.11667ZM33.05 194.1323Q33.05 192.60104 33.3625 191.67917Q33.675 190.74167 34.284374 190.24167Q34.909374 189.74167 35.846874 189.74167Q36.534374 189.74167 37.05 190.02292Q37.58125 190.30417 37.925 190.83542Q38.26875 191.35104 38.45625 192.10104Q38.64375 192.85104 38.64375 194.1323Q38.64375 195.64792 38.33125 196.5698Q38.034374 197.49167 37.409374 198.0073Q36.8 198.5073 35.846874 198.5073Q34.6125 198.5073 33.89375 197.61667Q33.05 196.55417 33.05 194.1323ZM34.128124 194.1323Q34.128124 196.24167 34.628124 196.9448Q35.128124 197.64792 35.846874 197.64792Q36.58125 197.64792 37.065624 196.9448Q37.565624 196.24167 37.565624 194.1323Q37.565624 192.0073 37.065624 191.3198Q36.58125 190.61667 35.83125 190.61667Q35.1125 190.61667 34.675 191.22604Q34.128124 192.0073 34.128124 194.1323Z" fill-rule="nonzero"/><path fill="#000000" d="M26.1125 137.85625L26.1125 136.84062L31.675 136.84062L31.675 137.66875Q30.8625 138.54375 30.05 139.99687Q29.253124 141.43437 28.815624 142.96562Q28.4875 144.04375 28.409374 145.325L27.315624 145.325Q27.33125 144.30937 27.70625 142.87187Q28.096874 141.43437 28.8 140.10625Q29.51875 138.77812 30.33125 137.85625L26.1125 137.85625ZM33.05 143.075L34.159374 142.98125Q34.284374 143.79375 34.721874 144.2Q35.175 144.60625 35.815624 144.60625Q36.565624 144.60625 37.096874 144.02812Q37.628124 143.45 37.628124 142.5125Q37.628124 141.60625 37.1125 141.09062Q36.6125 140.55937 35.784374 140.55937Q35.284374 140.55937 34.8625 140.79375Q34.45625 141.02812 34.221874 141.3875L33.2375 141.2625L34.065624 136.85625L38.346874 136.85625L38.346874 137.85625L34.909374 137.85625L34.45625 140.16875Q35.221874 139.62187 36.065624 139.62187Q37.190624 139.62187 37.95625 140.40312Q38.7375 141.18437 38.7375 142.41875Q38.7375 143.575 38.065624 144.43437Q37.2375 145.46562 35.815624 145.46562Q34.64375 145.46562 33.89375 144.80937Q33.159374 144.15312 33.05 143.075Z" fill-rule="nonzero"/><path fill="#000000" d="M23.01875 92.28333L21.971874 92.28333L21.971874 85.56458Q21.58125 85.92396 20.95625 86.29896Q20.346874 86.65833 19.8625 86.83021L19.8625 85.81458Q20.7375 85.39271 21.39375 84.81458Q22.065624 84.22083 22.346874 83.65833L23.01875 83.65833L23.01875 92.28333ZM26.05 88.04896Q26.05 86.51771 26.3625 85.59583Q26.675 84.65833 27.284374 84.15833Q27.909374 83.65833 28.846874 83.65833Q29.534374 83.65833 30.05 83.93958Q30.58125 84.22083 30.925 84.75208Q31.26875 85.26771 31.45625 86.01771Q31.64375 86.76771 31.64375 88.04896Q31.64375 89.56458 31.33125 90.48646Q31.034374 91.40833 30.409374 91.92396Q29.8 92.42396 28.846874 92.42396Q27.6125 92.42396 26.89375 91.53333Q26.05 90.47083 26.05 88.04896ZM27.128124 88.04896Q27.128124 90.15833 27.628124 90.86146Q28.128124 91.56458 28.846874 91.56458Q29.58125 91.56458 30.065624 90.86146Q30.565624 90.15833 30.565624 88.04896Q30.565624 85.92396 30.065624 85.23646Q29.58125 84.53333 28.83125 84.53333Q28.1125 84.53333 27.675 85.14271Q27.128124 85.92396 27.128124 88.04896ZM33.05 88.04896Q33.05 86.51771 33.3625 85.59583Q33.675 84.65833 34.284374 84.15833Q34.909374 83.65833 35.846874 83.65833Q36.534374 83.65833 37.05 83.93958Q37.58125 84.22083 37.925 84.75208Q38.26875 85.26771 38.45625 86.01771Q38.64375 86.76771 38.64375 88.04896Q38.64375 89.56458 38.33125 90.48646Q38.034374 91.40833 37.409374 91.92396Q36.8 92.42396 35.846874 92.42396Q34.6125 92.42396 33.89375 91.53333Q33.05 90.47083 33.05 88.04896ZM34.128124 88.04896Q34.128124 90.15833 34.628124 90.86146Q35.128124 91.56458 35.846874 91.56458Q36.58125 91.56458 37.065624 90.86146Q37.565624 90.15833 37.565624 88.04896Q37.565624 85.92396 37.065624 85.23646Q36.58125 84.53333 35.83125 84.53333Q35.1125 84.53333 34.675 85.14271Q34.128124 85.92396 34.128124 88.04896Z" fill-rule="nonzero"/><path fill="#000000" d="M107.64132 316.4344L107.64132 317.45L101.95382 317.45Q101.95382 317.075 102.07882 316.71564Q102.29757 316.1375 102.76632 315.575Q103.250694 315.0125 104.156944 314.27814Q105.563194 313.1219 106.04757 312.45Q106.54757 311.77814 106.54757 311.1844Q106.54757 310.5594 106.094444 310.1375Q105.64132 309.7 104.92257 309.7Q104.156944 309.7 103.70382 310.15314Q103.250694 310.60626 103.23507 311.41876L102.156944 311.3094Q102.26632 310.09064 102.98507 309.46564Q103.719444 308.825 104.95382 308.825Q106.188194 308.825 106.906944 309.5125Q107.625694 310.2 107.625694 311.21564Q107.625694 311.73126 107.406944 312.23126Q107.20382 312.71564 106.70382 313.27814Q106.219444 313.825 105.094444 314.77814Q104.14132 315.575 103.86007 315.8719Q103.594444 316.15314 103.42257 316.4344L107.64132 316.4344Z" fill-rule="nonzero"/><path fill="#000000" d="M224.55833 317.45L224.55833 315.3875L220.83958 315.3875L220.83958 314.41876L224.76146 308.85626L225.62083 308.85626L225.62083 314.41876L226.77708 314.41876L226.77708 315.3875L225.62083 315.3875L225.62083 317.45L224.55833 317.45ZM224.55833 314.41876L224.55833 310.5594L221.87083 314.41876L224.55833 314.41876Z" fill-rule="nonzero"/><path fill="#000000" d="M345.74097 310.96564L344.6941 311.04376Q344.55347 310.41876 344.30347 310.1375Q343.86597 309.6844 343.24097 309.6844Q342.74097 309.6844 342.35034 309.96564Q341.86597 310.34064 341.5691 311.04376Q341.28784 311.73126 341.27222 313.0125Q341.64722 312.4344 342.1941 312.15314Q342.7566 311.8719 343.36597 311.8719Q344.41284 311.8719 345.14722 312.65314Q345.89722 313.4344 345.89722 314.65314Q345.89722 315.46564 345.53784 316.16876Q345.1941 316.85626 344.58472 317.23126Q343.97534 317.59064 343.20972 317.59064Q341.8816 317.59064 341.05347 316.6219Q340.22534 315.65314 340.22534 313.4344Q340.22534 310.9344 341.14722 309.8094Q341.9441 308.825 343.30347 308.825Q344.3191 308.825 344.95972 309.40314Q345.61597 309.96564 345.74097 310.96564ZM341.4441 314.66876Q341.4441 315.21564 341.66284 315.71564Q341.89722 316.2 342.30347 316.46564Q342.72534 316.73126 343.1941 316.73126Q343.85034 316.73126 344.33472 316.2Q344.8191 315.65314 344.8191 314.73126Q344.8191 313.84064 344.33472 313.325Q343.86597 312.8094 343.14722 312.8094Q342.42847 312.8094 341.92847 313.325Q341.4441 313.84064 341.4441 314.66876Z" fill-rule="nonzero"/><path fill="#000000" d="M460.9861 312.79376Q460.32986 312.54376 460.00174 312.10626Q459.68924 311.65314 459.68924 311.04376Q459.68924 310.10626 460.3611 309.46564Q461.0486 308.825 462.158 308.825Q463.283 308.825 463.9705 309.48126Q464.658 310.1375 464.658 311.075Q464.658 311.66876 464.3455 312.10626Q464.033 312.54376 463.39236 312.79376Q464.18924 313.04376 464.5955 313.6219Q465.00174 314.2 465.00174 314.9969Q465.00174 316.09064 464.2205 316.84064Q463.45486 317.59064 462.1736 317.59064Q460.908 317.59064 460.12674 316.84064Q459.3455 316.09064 459.3455 314.96564Q459.3455 314.1219 459.76736 313.5594Q460.20486 312.9969 460.9861 312.79376ZM460.76736 310.9969Q460.76736 311.60626 461.158 311.9969Q461.56424 312.3875 462.18924 312.3875Q462.7986 312.3875 463.18924 312.0125Q463.57986 311.6219 463.57986 311.0594Q463.57986 310.48126 463.1736 310.09064Q462.76736 309.6844 462.1736 309.6844Q461.56424 309.6844 461.158 310.075Q460.76736 310.46564 460.76736 310.9969ZM460.43924 314.96564Q460.43924 315.41876 460.64236 315.84064Q460.8611 316.2625 461.283 316.4969Q461.70486 316.73126 462.18924 316.73126Q462.93924 316.73126 463.4236 316.2469Q463.9236 315.7625 463.9236 315.0125Q463.9236 314.2469 463.4236 313.7469Q462.9236 313.2469 462.158 313.2469Q461.408 313.2469 460.9236 313.7469Q460.43924 314.23126 460.43924 314.96564Z" fill-rule="nonzero"/><path fill="#000000" d="M578.91876 317.45L577.8719 317.45L577.8719 310.73126Q577.48126 311.09064 576.85626 311.46564Q576.2469 311.825 575.7625 311.9969L575.7625 310.98126Q576.6375 310.5594 577.29376 309.98126Q577.96564 309.3875 578.2469 308.825L578.91876 308.825L578.91876 317.45ZM581.95 313.21564Q581.95 311.6844 582.2625 310.7625Q582.575 309.825 583.1844 309.325Q583.8094 308.825 584.7469 308.825Q585.4344 308.825 585.95 309.10626Q586.48126 309.3875 586.825 309.91876Q587.16876 310.4344 587.35626 311.1844Q587.54376 311.9344 587.54376 313.21564Q587.54376 314.73126 587.23126 315.65314Q586.9344 316.575 586.3094 317.09064Q585.7 317.59064 584.7469 317.59064Q583.5125 317.59064 582.79376 316.7Q581.95 315.6375 581.95 313.21564ZM583.02814 313.21564Q583.02814 315.325 583.52814 316.02814Q584.02814 316.73126 584.7469 316.73126Q585.48126 316.73126 585.96564 316.02814Q586.46564 315.325 586.46564 313.21564Q586.46564 311.09064 585.96564 310.40314Q585.48126 309.7 584.73126 309.7Q584.0125 309.7 583.575 310.3094Q583.02814 311.09064 583.02814 313.21564Z" fill-rule="nonzero"/><path fill="#34a853" d="M115.5 56.916668C115.5 56.364384 115.947716 55.916668 116.5 55.916668L126.5 55.916668C127.052284 55.916668 127.5 56.364384 127.5 56.916668L127.5 66.916664C127.5 67.46895 127.052284 67.916664 126.5 67.916664L116.5 67.916664C115.947716 67.916664 115.5 67.46895 115.5 66.916664Z" fill-rule="nonzero"/><path fill="#1a1a1a" d="M136.45312 65.916664L136.45312 57.322914L142.65625 57.322914L142.65625 58.33854L137.59375 58.33854L137.59375 60.96354L142.34375 60.96354L142.34375 61.979164L137.59375 61.979164L137.59375 64.90104L142.85938 64.90104L142.85938 65.916664L136.45312 65.916664ZM143.875 64.05729L144.90625 63.90104Q145.0 64.52604 145.39062 64.854164Q145.79688 65.18229 146.53125 65.18229Q147.25 65.18229 147.59375 64.90104Q147.95312 64.604164 147.95312 64.197914Q147.95312 63.83854 147.64062 63.635414Q147.42188 63.49479 146.5625 63.27604Q145.40625 62.979164 144.95312 62.77604Q144.51562 62.55729 144.28125 62.18229Q144.04688 61.80729 144.04688 61.33854Q144.04688 60.93229 144.23438 60.572914Q144.42188 60.21354 144.75 59.979164Q145.0 59.80729 145.42188 59.68229Q145.84375 59.55729 146.34375 59.55729Q147.0625 59.55729 147.60938 59.77604Q148.17188 59.979164 148.4375 60.33854Q148.70312 60.697914 148.79688 61.291664L147.76562 61.43229Q147.70312 60.96354 147.35938 60.697914Q147.03125 60.416664 146.40625 60.416664Q145.6875 60.416664 145.375 60.666664Q145.0625 60.90104 145.0625 61.229164Q145.0625 61.43229 145.1875 61.58854Q145.32812 61.760414 145.59375 61.86979Q145.75 61.93229 146.53125 62.135414Q147.65625 62.447914 148.09375 62.635414Q148.53125 62.822914 148.78125 63.18229Q149.03125 63.541664 149.03125 64.08854Q149.03125 64.61979 148.71875 65.08854Q148.42188 65.541664 147.84375 65.80729Q147.26562 66.05729 146.53125 66.05729Q145.3125 66.05729 144.67188 65.55729Q144.04688 65.041664 143.875 64.05729ZM150.29688 68.30729L150.29688 59.697914L151.25 59.697914L151.25 60.49479Q151.59375 60.02604 152.01562 59.791664Q152.45312 59.55729 153.0625 59.55729Q153.85938 59.55729 154.46875 59.96354Q155.07812 60.36979 155.375 61.11979Q155.6875 61.86979 155.6875 62.760414Q155.6875 63.71354 155.34375 64.479164Q155.01562 65.24479 154.35938 65.65104Q153.70312 66.05729 152.98438 66.05729Q152.45312 66.05729 152.03125 65.83854Q151.60938 65.604164 151.34375 65.27604L151.34375 68.30729L150.29688 68.30729ZM151.25 62.83854Q151.25 64.041664 151.73438 64.61979Q152.21875 65.18229 152.90625 65.18229Q153.60938 65.18229 154.10938 64.58854Q154.60938 63.99479 154.60938 62.74479Q154.60938 61.55729 154.125 60.979164Q153.64062 60.385414 152.95312 60.385414Q152.28125 60.385414 151.76562 61.010414Q151.25 61.635414 151.25 62.83854ZM161.54688 63.916664L162.64062 64.041664Q162.39062 64.99479 161.6875 65.52604Q160.98438 66.05729 159.90625 66.05729Q158.54688 66.05729 157.73438 65.21354Q156.9375 64.36979 156.9375 62.854164Q156.9375 61.291664 157.75 60.43229Q158.5625 59.55729 159.84375 59.55729Q161.09375 59.55729 161.875 60.40104Q162.67188 61.24479 162.67188 62.791664Q162.67188 62.885414 162.67188 63.072914L158.03125 63.072914Q158.09375 64.104164 158.60938 64.65104Q159.125 65.18229 159.90625 65.18229Q160.48438 65.18229 160.89062 64.885414Q161.3125 64.572914 161.54688 63.916664ZM158.09375 62.21354L161.5625 62.21354Q161.5 61.416664 161.17188 61.02604Q160.65625 60.416664 159.85938 60.416664Q159.125 60.416664 158.625 60.90104Q158.14062 61.385414 158.09375 62.21354ZM168.35938 63.635414L169.39062 63.77604Q169.21875 64.83854 168.51562 65.447914Q167.8125 66.05729 166.79688 66.05729Q165.51562 66.05729 164.73438 65.229164Q163.96875 64.385414 163.96875 62.822914Q163.96875 61.822914 164.29688 61.072914Q164.64062 60.30729 165.3125 59.93229Q166.0 59.55729 166.8125 59.55729Q167.8125 59.55729 168.45312 60.072914Q169.10938 60.572914 169.29688 61.52604L168.26562 61.68229Q168.125 61.05729 167.75 60.74479Q167.375 60.416664 166.84375 60.416664Q166.04688 60.416664 165.54688 60.99479Q165.04688 61.55729 165.04688 62.791664Q165.04688 64.05729 165.53125 64.61979Q166.01562 65.18229 166.78125 65.18229Q167.40625 65.18229 167.8125 64.80729Q168.23438 64.43229 168.35938 63.635414ZM170.29688 58.541664L170.29688 57.322914L171.35938 57.322914L171.35938 58.541664L170.29688 58.541664ZM170.29688 65.916664L170.29688 59.697914L171.35938 59.697914L171.35938 65.916664L170.29688 65.916664ZM173.54688 65.916664L173.54688 60.510414L172.60938 60.510414L172.60938 59.697914L173.54688 59.697914L173.54688 59.02604Q173.54688 58.40104 173.65625 58.104164Q173.8125 57.68229 174.1875 57.43229Q174.57812 57.18229 175.26562 57.18229Q175.71875 57.18229 176.25 57.291664L176.09375 58.197914Q175.76562 58.15104 175.46875 58.15104Q174.98438 58.15104 174.78125 58.354164Q174.59375 58.55729 174.59375 59.11979L174.59375 59.697914L175.8125 59.697914L175.8125 60.510414L174.59375 60.510414L174.59375 65.916664L173.54688 65.916664ZM176.29688 58.541664L176.29688 57.322914L177.35938 57.322914L177.35938 58.541664L176.29688 58.541664ZM176.29688 65.916664L176.29688 59.697914L177.35938 59.697914L177.35938 65.916664L176.29688 65.916664ZM183.35938 63.635414L184.39062 63.77604Q184.21875 64.83854 183.51562 65.447914Q182.8125 66.05729 181.79688 66.05729Q180.51562 66.05729 179.73438 65.229164Q178.96875 64.385414 178.96875 62.822914Q178.96875 61.822914 179.29688 61.072914Q179.64062 60.30729 180.3125 59.93229Q181.0 59.55729 181.8125 59.55729Q182.8125 59.55729 183.45312 60.072914Q184.10938 60.572914 184.29688 61.52604L183.26562 61.68229Q183.125 61.05729 182.75 60.74479Q182.375 60.416664 181.84375 60.416664Q181.04688 60.416664 180.54688 60.99479Q180.04688 61.55729 180.04688 62.791664Q180.04688 64.05729 180.53125 64.61979Q181.01562 65.18229 181.78125 65.18229Q182.40625 65.18229 182.8125 64.80729Q183.23438 64.43229 183.35938 63.635414ZM189.35938 65.15104Q188.76562 65.65104 188.21875 65.854164Q187.6875 66.05729 187.0625 66.05729Q186.03125 66.05729 185.48438 65.55729Q184.9375 65.05729 184.9375 64.27604Q184.9375 63.822914 185.14062 63.447914Q185.34375 63.05729 185.6875 62.83854Q186.03125 62.604164 186.45312 62.49479Q186.75 62.40104 187.39062 62.322914Q188.65625 62.18229 189.26562 61.96354Q189.26562 61.74479 189.26562 61.697914Q189.26562 61.041664 188.96875 60.77604Q188.5625 60.43229 187.76562 60.43229Q187.03125 60.43229 186.67188 60.697914Q186.3125 60.947914 186.14062 61.604164L185.10938 61.46354Q185.25 60.80729 185.57812 60.40104Q185.90625 59.99479 186.51562 59.77604Q187.125 59.55729 187.92188 59.55729Q188.71875 59.55729 189.21875 59.74479Q189.71875 59.93229 189.95312 60.21354Q190.1875 60.49479 190.28125 60.93229Q190.32812 61.197914 190.32812 61.90104L190.32812 63.30729Q190.32812 64.77604 190.39062 65.166664Q190.46875 65.55729 190.67188 65.916664L189.5625 65.916664Q189.40625 65.58854 189.35938 65.15104ZM189.26562 62.791664Q188.6875 63.02604 187.54688 63.197914Q186.89062 63.291664 186.625 63.416664Q186.35938 63.52604 186.20312 63.74479Q186.0625 63.96354 186.0625 64.24479Q186.0625 64.666664 186.375 64.947914Q186.70312 65.229164 187.3125 65.229164Q187.92188 65.229164 188.39062 64.96354Q188.875 64.697914 189.09375 64.229164Q189.26562 63.86979 189.26562 63.18229L189.26562 62.791664ZM196.35938 63.635414L197.39062 63.77604Q197.21875 64.83854 196.51562 65.447914Q195.8125 66.05729 194.79688 66.05729Q193.51562 66.05729 192.73438 65.229164Q191.96875 64.385414 191.96875 62.822914Q191.96875 61.822914 192.29688 61.072914Q192.64062 60.30729 193.3125 59.93229Q194.0 59.55729 194.8125 59.55729Q195.8125 59.55729 196.45312 60.072914Q197.10938 60.572914 197.29688 61.52604L196.26562 61.68229Q196.125 61.05729 195.75 60.74479Q195.375 60.416664 194.84375 60.416664Q194.04688 60.416664 193.54688 60.99479Q193.04688 61.55729 193.04688 62.791664Q193.04688 64.05729 193.53125 64.61979Q194.01562 65.18229 194.78125 65.18229Q195.40625 65.18229 195.8125 64.80729Q196.23438 64.43229 196.35938 63.635414ZM193.76562 66.822914L194.07812 65.77604L194.85938 65.77604L194.65625 66.416664Q195.15625 66.46354 195.40625 66.71354Q195.67188 66.96354 195.67188 67.27604Q195.67188 67.71354 195.25 68.041664Q194.82812 68.385414 193.96875 68.385414Q193.48438 68.385414 193.125 68.30729L193.1875 67.635414Q193.5625 67.65104 193.75 67.65104Q194.29688 67.65104 194.51562 67.49479Q194.6875 67.385414 194.6875 67.21354Q194.6875 67.104164 194.60938 67.02604Q194.54688 66.947914 194.35938 66.885414Q194.1875 66.822914 193.76562 66.822914ZM202.35938 65.15104Q201.76562 65.65104 201.21875 65.854164Q200.6875 66.05729 200.0625 66.05729Q199.03125 66.05729 198.48438 65.55729Q197.9375 65.05729 197.9375 64.27604Q197.9375 63.822914 198.14062 63.447914Q198.34375 63.05729 198.6875 62.83854Q199.03125 62.604164 199.45312 62.49479Q199.75 62.40104 200.39062 62.322914Q201.65625 62.18229 202.26562 61.96354Q202.26562 61.74479 202.26562 61.697914Q202.26562 61.041664 201.96875 60.77604Q201.5625 60.43229 200.76562 60.43229Q200.03125 60.43229 199.67188 60.697914Q199.3125 60.947914 199.14062 61.604164L198.10938 61.46354Q198.25 60.80729 198.57812 60.40104Q198.90625 59.99479 199.51562 59.77604Q200.125 59.55729 200.92188 59.55729Q201.71875 59.55729 202.21875 59.74479Q202.71875 59.93229 202.95312 60.21354Q203.1875 60.49479 203.28125 60.93229Q203.32812 61.197914 203.32812 61.90104L203.32812 63.30729Q203.32812 64.77604 203.39062 65.166664Q203.46875 65.55729 203.67188 65.916664L202.5625 65.916664Q202.40625 65.58854 202.35938 65.15104ZM202.26562 62.791664Q201.6875 63.02604 200.54688 63.197914Q199.89062 63.291664 199.625 63.416664Q199.35938 63.52604 199.20312 63.74479Q199.0625 63.96354 199.0625 64.24479Q199.0625 64.666664 199.375 64.947914Q199.70312 65.229164 200.3125 65.229164Q200.92188 65.229164 201.39062 64.96354Q201.875 64.697914 202.09375 64.229164Q202.26562 63.86979 202.26562 63.18229L202.26562 62.791664ZM198.54688 58.77604Q198.53125 58.166664 198.875 57.80729Q199.20312 57.43229 199.73438 57.43229Q200.09375 57.43229 200.71875 57.760414Q201.0625 57.93229 201.26562 57.93229Q201.45312 57.93229 201.54688 57.83854Q201.65625 57.729164 201.70312 57.416664L202.46875 57.416664Q202.4375 58.08854 202.125 58.43229Q201.8125 58.760414 201.3125 58.760414Q200.9375 58.760414 200.34375 58.43229Q199.95312 58.21354 199.76562 58.21354Q199.5625 58.21354 199.4375 58.354164Q199.3125 58.49479 199.32812 58.77604L198.54688 58.77604ZM204.90625 62.80729Q204.90625 61.072914 205.85938 60.24479Q206.65625 59.55729 207.8125 59.55729Q209.09375 59.55729 209.90625 60.40104Q210.73438 61.229164 210.73438 62.71354Q210.73438 63.916664 210.375 64.604164Q210.01562 65.291664 209.3125 65.68229Q208.625 66.05729 207.8125 66.05729Q206.51562 66.05729 205.70312 65.229164Q204.90625 64.385414 204.90625 62.80729ZM205.98438 62.80729Q205.98438 63.99479 206.5 64.58854Q207.03125 65.18229 207.8125 65.18229Q208.60938 65.18229 209.125 64.58854Q209.64062 63.99479 209.64062 62.77604Q209.64062 61.61979 209.10938 61.02604Q208.59375 60.43229 207.8125 60.43229Q207.03125 60.43229 206.5 61.02604Q205.98438 61.604164 205.98438 62.80729Z" fill-rule="nonzero"/><path fill="#fbbc04" d="M227.5 56.916668C227.5 56.364384 227.94771 55.916668 228.5 55.916668L238.5 55.916668C239.05229 55.916668 239.5 56.364384 239.5 56.916668L239.5 66.916664C239.5 67.46895 239.05229 67.916664 238.5 67.916664L228.5 67.916664C227.94771 67.916664 227.5 67.46895 227.5 66.916664Z" fill-rule="nonzero"/><path fill="#1a1a1a" d="M248.625 65.916664L248.625 57.322914L249.75 57.322914L249.75 65.916664L248.625 65.916664ZM251.29688 65.916664L251.29688 59.697914L252.23438 59.697914L252.23438 60.572914Q252.53125 60.104164 253.01562 59.83854Q253.5 59.55729 254.125 59.55729Q254.8125 59.55729 255.25 59.83854Q255.70312 60.11979 255.875 60.635414Q256.625 59.55729 257.79688 59.55729Q258.73438 59.55729 259.21875 60.072914Q259.71875 60.572914 259.71875 61.65104L259.71875 65.916664L258.67188 65.916664L258.67188 61.99479Q258.67188 61.36979 258.5625 61.08854Q258.46875 60.80729 258.20312 60.635414Q257.9375 60.46354 257.5625 60.46354Q256.90625 60.46354 256.46875 60.90104Q256.04688 61.33854 256.04688 62.30729L256.04688 65.916664L254.98438 65.916664L254.98438 61.86979Q254.98438 61.166664 254.71875 60.822914Q254.46875 60.46354 253.89062 60.46354Q253.4375 60.46354 253.0625 60.697914Q252.6875 60.93229 252.51562 61.385414Q252.34375 61.83854 252.34375 62.68229L252.34375 65.916664L251.29688 65.916664ZM261.29688 68.30729L261.29688 59.697914L262.25 59.697914L262.25 60.49479Q262.59375 60.02604 263.01562 59.791664Q263.45312 59.55729 264.0625 59.55729Q264.85938 59.55729 265.46875 59.96354Q266.07812 60.36979 266.375 61.11979Q266.6875 61.86979 266.6875 62.760414Q266.6875 63.71354 266.34375 64.479164Q266.01562 65.24479 265.35938 65.65104Q264.70312 66.05729 263.98438 66.05729Q263.45312 66.05729 263.03125 65.83854Q262.60938 65.604164 262.34375 65.27604L262.34375 68.30729L261.29688 68.30729ZM262.25 62.83854Q262.25 64.041664 262.73438 64.61979Q263.21875 65.18229 263.90625 65.18229Q264.60938 65.18229 265.10938 64.58854Q265.60938 63.99479 265.60938 62.74479Q265.60938 61.55729 265.125 60.979164Q264.64062 60.385414 263.95312 60.385414Q263.28125 60.385414 262.76562 61.010414Q262.25 61.635414 262.25 62.83854ZM268.26562 65.916664L268.26562 57.322914L269.32812 57.322914L269.32812 65.916664L268.26562 65.916664ZM275.54688 63.916664L276.64062 64.041664Q276.39062 64.99479 275.6875 65.52604Q274.98438 66.05729 273.90625 66.05729Q272.54688 66.05729 271.73438 65.21354Q270.9375 64.36979 270.9375 62.854164Q270.9375 61.291664 271.75 60.43229Q272.5625 59.55729 273.84375 59.55729Q275.09375 59.55729 275.875 60.40104Q276.67188 61.24479 276.67188 62.791664Q276.67188 62.885414 276.67188 63.072914L272.03125 63.072914Q272.09375 64.104164 272.60938 64.65104Q273.125 65.18229 273.90625 65.18229Q274.48438 65.18229 274.89062 64.885414Q275.3125 64.572914 275.54688 63.916664ZM272.09375 62.21354L275.5625 62.21354Q275.5 61.416664 275.17188 61.02604Q274.65625 60.416664 273.85938 60.416664Q273.125 60.416664 272.625 60.90104Q272.14062 61.385414 272.09375 62.21354ZM278.29688 65.916664L278.29688 59.697914L279.23438 59.697914L279.23438 60.572914Q279.53125 60.104164 280.01562 59.83854Q280.5 59.55729 281.125 59.55729Q281.8125 59.55729 282.25 59.83854Q282.70312 60.11979 282.875 60.635414Q283.625 59.55729 284.79688 59.55729Q285.73438 59.55729 286.21875 60.072914Q286.71875 60.572914 286.71875 61.65104L286.71875 65.916664L285.67188 65.916664L285.67188 61.99479Q285.67188 61.36979 285.5625 61.08854Q285.46875 60.80729 285.20312 60.635414Q284.9375 60.46354 284.5625 60.46354Q283.90625 60.46354 283.46875 60.90104Q283.04688 61.33854 283.04688 62.30729L283.04688 65.916664L281.98438 65.916664L281.98438 61.86979Q281.98438 61.166664 281.71875 60.822914Q281.46875 60.46354 280.89062 60.46354Q280.4375 60.46354 280.0625 60.697914Q279.6875 60.93229 279.51562 61.385414Q279.34375 61.83854 279.34375 62.68229L279.34375 65.916664L278.29688 65.916664ZM292.54688 63.916664L293.64062 64.041664Q293.39062 64.99479 292.6875 65.52604Q291.98438 66.05729 290.90625 66.05729Q289.54688 66.05729 288.73438 65.21354Q287.9375 64.36979 287.9375 62.854164Q287.9375 61.291664 288.75 60.43229Q289.5625 59.55729 290.84375 59.55729Q292.09375 59.55729 292.875 60.40104Q293.67188 61.24479 293.67188 62.791664Q293.67188 62.885414 293.67188 63.072914L289.03125 63.072914Q289.09375 64.104164 289.60938 64.65104Q290.125 65.18229 290.90625 65.18229Q291.48438 65.18229 291.89062 64.885414Q292.3125 64.572914 292.54688 63.916664ZM289.09375 62.21354L292.5625 62.21354Q292.5 61.416664 292.17188 61.02604Q291.65625 60.416664 290.85938 60.416664Q290.125 60.416664 289.625 60.90104Q289.14062 61.385414 289.09375 62.21354ZM295.29688 65.916664L295.29688 59.697914L296.23438 59.697914L296.23438 60.572914Q296.92188 59.55729 298.21875 59.55729Q298.78125 59.55729 299.25 59.760414Q299.73438 59.96354 299.96875 60.291664Q300.20312 60.61979 300.29688 61.05729Q300.34375 61.354164 300.34375 62.08854L300.34375 65.916664L299.29688 65.916664L299.29688 62.135414Q299.29688 61.479164 299.17188 61.166664Q299.04688 60.854164 298.73438 60.666664Q298.42188 60.46354 298.0 60.46354Q297.32812 60.46354 296.82812 60.90104Q296.34375 61.322914 296.34375 62.510414L296.34375 65.916664L295.29688 65.916664ZM304.59375 64.979164L304.75 65.90104Q304.29688 65.99479 303.95312 65.99479Q303.375 65.99479 303.0625 65.822914Q302.75 65.635414 302.60938 65.33854Q302.48438 65.041664 302.48438 64.08854L302.48438 60.510414L301.71875 60.510414L301.71875 59.697914L302.48438 59.697914L302.48438 58.15104L303.53125 57.52604L303.53125 59.697914L304.59375 59.697914L304.59375 60.510414L303.53125 60.510414L303.53125 64.15104Q303.53125 64.604164 303.57812 64.729164Q303.64062 64.854164 303.76562 64.93229Q303.89062 65.010414 304.125 65.010414Q304.3125 65.010414 304.59375 64.979164ZM309.35938 65.15104Q308.76562 65.65104 308.21875 65.854164Q307.6875 66.05729 307.0625 66.05729Q306.03125 66.05729 305.48438 65.55729Q304.9375 65.05729 304.9375 64.27604Q304.9375 63.822914 305.14062 63.447914Q305.34375 63.05729 305.6875 62.83854Q306.03125 62.604164 306.45312 62.49479Q306.75 62.40104 307.39062 62.322914Q308.65625 62.18229 309.26562 61.96354Q309.26562 61.74479 309.26562 61.697914Q309.26562 61.041664 308.96875 60.77604Q308.5625 60.43229 307.76562 60.43229Q307.03125 60.43229 306.67188 60.697914Q306.3125 60.947914 306.14062 61.604164L305.10938 61.46354Q305.25 60.80729 305.57812 60.40104Q305.90625 59.99479 306.51562 59.77604Q307.125 59.55729 307.92188 59.55729Q308.71875 59.55729 309.21875 59.74479Q309.71875 59.93229 309.95312 60.21354Q310.1875 60.49479 310.28125 60.93229Q310.32812 61.197914 310.32812 61.90104L310.32812 63.30729Q310.32812 64.77604 310.39062 65.166664Q310.46875 65.55729 310.67188 65.916664L309.5625 65.916664Q309.40625 65.58854 309.35938 65.15104ZM309.26562 62.791664Q308.6875 63.02604 307.54688 63.197914Q306.89062 63.291664 306.625 63.416664Q306.35938 63.52604 306.20312 63.74479Q306.0625 63.96354 306.0625 64.24479Q306.0625 64.666664 306.375 64.947914Q306.70312 65.229164 307.3125 65.229164Q307.92188 65.229164 308.39062 64.96354Q308.875 64.697914 309.09375 64.229164Q309.26562 63.86979 309.26562 63.18229L309.26562 62.791664ZM316.35938 63.635414L317.39062 63.77604Q317.21875 64.83854 316.51562 65.447914Q315.8125 66.05729 314.79688 66.05729Q313.51562 66.05729 312.73438 65.229164Q311.96875 64.385414 311.96875 62.822914Q311.96875 61.822914 312.29688 61.072914Q312.64062 60.30729 313.3125 59.93229Q314.0 59.55729 314.8125 59.55729Q315.8125 59.55729 316.45312 60.072914Q317.10938 60.572914 317.29688 61.52604L316.26562 61.68229Q316.125 61.05729 315.75 60.74479Q315.375 60.416664 314.84375 60.416664Q314.04688 60.416664 313.54688 60.99479Q313.04688 61.55729 313.04688 62.791664Q313.04688 64.05729 313.53125 64.61979Q314.01562 65.18229 314.78125 65.18229Q315.40625 65.18229 315.8125 64.80729Q316.23438 64.43229 316.35938 63.635414ZM313.76562 66.822914L314.07812 65.77604L314.85938 65.77604L314.65625 66.416664Q315.15625 66.46354 315.40625 66.71354Q315.67188 66.96354 315.67188 67.27604Q315.67188 67.71354 315.25 68.041664Q314.82812 68.385414 313.96875 68.385414Q313.48438 68.385414 313.125 68.30729L313.1875 67.635414Q313.5625 67.65104 313.75 67.65104Q314.29688 67.65104 314.51562 67.49479Q314.6875 67.385414 314.6875 67.21354Q314.6875 67.104164 314.60938 67.02604Q314.54688 66.947914 314.35938 66.885414Q314.1875 66.822914 313.76562 66.822914ZM322.35938 65.15104Q321.76562 65.65104 321.21875 65.854164Q320.6875 66.05729 320.0625 66.05729Q319.03125 66.05729 318.48438 65.55729Q317.9375 65.05729 317.9375 64.27604Q317.9375 63.822914 318.14062 63.447914Q318.34375 63.05729 318.6875 62.83854Q319.03125 62.604164 319.45312 62.49479Q319.75 62.40104 320.39062 62.322914Q321.65625 62.18229 322.26562 61.96354Q322.26562 61.74479 322.26562 61.697914Q322.26562 61.041664 321.96875 60.77604Q321.5625 60.43229 320.76562 60.43229Q320.03125 60.43229 319.67188 60.697914Q319.3125 60.947914 319.14062 61.604164L318.10938 61.46354Q318.25 60.80729 318.57812 60.40104Q318.90625 59.99479 319.51562 59.77604Q320.125 59.55729 320.92188 59.55729Q321.71875 59.55729 322.21875 59.74479Q322.71875 59.93229 322.95312 60.21354Q323.1875 60.49479 323.28125 60.93229Q323.32812 61.197914 323.32812 61.90104L323.32812 63.30729Q323.32812 64.77604 323.39062 65.166664Q323.46875 65.55729 323.67188 65.916664L322.5625 65.916664Q322.40625 65.58854 322.35938 65.15104ZM322.26562 62.791664Q321.6875 63.02604 320.54688 63.197914Q319.89062 63.291664 319.625 63.416664Q319.35938 63.52604 319.20312 63.74479Q319.0625 63.96354 319.0625 64.24479Q319.0625 64.666664 319.375 64.947914Q319.70312 65.229164 320.3125 65.229164Q320.92188 65.229164 321.39062 64.96354Q321.875 64.697914 322.09375 64.229164Q322.26562 63.86979 322.26562 63.18229L322.26562 62.791664ZM318.54688 58.77604Q318.53125 58.166664 318.875 57.80729Q319.20312 57.43229 319.73438 57.43229Q320.09375 57.43229 320.71875 57.760414Q321.0625 57.93229 321.26562 57.93229Q321.45312 57.93229 321.54688 57.83854Q321.65625 57.729164 321.70312 57.416664L322.46875 57.416664Q322.4375 58.08854 322.125 58.43229Q321.8125 58.760414 321.3125 58.760414Q320.9375 58.760414 320.34375 58.43229Q319.95312 58.21354 319.76562 58.21354Q319.5625 58.21354 319.4375 58.354164Q319.3125 58.49479 319.32812 58.77604L318.54688 58.77604ZM324.90625 62.80729Q324.90625 61.072914 325.85938 60.24479Q326.65625 59.55729 327.8125 59.55729Q329.09375 59.55729 329.90625 60.40104Q330.73438 61.229164 330.73438 62.71354Q330.73438 63.916664 330.375 64.604164Q330.01562 65.291664 329.3125 65.68229Q328.625 66.05729 327.8125 66.05729Q326.51562 66.05729 325.70312 65.229164Q324.90625 64.385414 324.90625 62.80729ZM325.98438 62.80729Q325.98438 63.99479 326.5 64.58854Q327.03125 65.18229 327.8125 65.18229Q328.60938 65.18229 329.125 64.58854Q329.64062 63.99479 329.64062 62.77604Q329.64062 61.61979 329.10938 61.02604Q328.59375 60.43229 327.8125 60.43229Q327.03125 60.43229 326.5 61.02604Q325.98438 61.604164 325.98438 62.80729Z" fill-rule="nonzero"/><path fill="#ea4335" d="M347.5 56.916668C347.5 56.364384 347.94772 55.916668 348.5 55.916668L358.5 55.916668C359.05228 55.916668 359.5 56.364384 359.5 56.916668L359.5 66.916664C359.5 67.46895 359.05228 67.916664 358.5 67.916664L348.5 67.916664C347.94772 67.916664 347.5 67.46895 347.5 66.916664Z" fill-rule="nonzero"/><path fill="#1a1a1a" d="M368.4375 65.916664L368.4375 57.322914L372.25 57.322914Q373.40625 57.322914 374.0 57.55729Q374.59375 57.791664 374.95312 58.385414Q375.3125 58.96354 375.3125 59.666664Q375.3125 60.58854 374.71875 61.21354Q374.125 61.83854 372.89062 62.010414Q373.34375 62.229164 373.57812 62.43229Q374.07812 62.885414 374.51562 63.572914L376.01562 65.916664L374.57812 65.916664L373.45312 64.135414Q372.95312 63.354164 372.625 62.947914Q372.3125 62.541664 372.04688 62.385414Q371.79688 62.21354 371.53125 62.135414Q371.34375 62.104164 370.90625 62.104164L369.57812 62.104164L369.57812 65.916664L368.4375 65.916664ZM369.57812 61.11979L372.03125 61.11979Q372.79688 61.11979 373.23438 60.96354Q373.6875 60.791664 373.90625 60.447914Q374.14062 60.08854 374.14062 59.666664Q374.14062 59.05729 373.6875 58.666664Q373.25 58.27604 372.29688 58.27604L369.57812 58.27604L369.57812 61.11979ZM381.54688 63.916664L382.64062 64.041664Q382.39062 64.99479 381.6875 65.52604Q380.98438 66.05729 379.90625 66.05729Q378.54688 66.05729 377.73438 65.21354Q376.9375 64.36979 376.9375 62.854164Q376.9375 61.291664 377.75 60.43229Q378.5625 59.55729 379.84375 59.55729Q381.09375 59.55729 381.875 60.40104Q382.67188 61.24479 382.67188 62.791664Q382.67188 62.885414 382.67188 63.072914L378.03125 63.072914Q378.09375 64.104164 378.60938 64.65104Q379.125 65.18229 379.90625 65.18229Q380.48438 65.18229 380.89062 64.885414Q381.3125 64.572914 381.54688 63.916664ZM378.09375 62.21354L381.5625 62.21354Q381.5 61.416664 381.17188 61.02604Q380.65625 60.416664 379.85938 60.416664Q379.125 60.416664 378.625 60.90104Q378.14062 61.385414 378.09375 62.21354ZM386.01562 65.916664L383.65625 59.697914L384.76562 59.697914L386.10938 63.416664Q386.3125 64.02604 386.5 64.666664Q386.64062 64.18229 386.89062 63.49479L388.28125 59.697914L389.35938 59.697914L387.0 65.916664L386.01562 65.916664ZM390.29688 58.541664L390.29688 57.322914L391.35938 57.322914L391.35938 58.541664L390.29688 58.541664ZM390.29688 65.916664L390.29688 59.697914L391.35938 59.697914L391.35938 65.916664L390.29688 65.916664ZM392.875 64.05729L393.90625 63.90104Q394.0 64.52604 394.39062 64.854164Q394.79688 65.18229 395.53125 65.18229Q396.25 65.18229 396.59375 64.90104Q396.95312 64.604164 396.95312 64.197914Q396.95312 63.83854 396.64062 63.635414Q396.42188 63.49479 395.5625 63.27604Q394.40625 62.979164 393.95312 62.77604Q393.51562 62.55729 393.28125 62.18229Q393.04688 61.80729 393.04688 61.33854Q393.04688 60.93229 393.23438 60.572914Q393.42188 60.21354 393.75 59.979164Q394.0 59.80729 394.42188 59.68229Q394.84375 59.55729 395.34375 59.55729Q396.0625 59.55729 396.60938 59.77604Q397.17188 59.979164 397.4375 60.33854Q397.70312 60.697914 397.79688 61.291664L396.76562 61.43229Q396.70312 60.96354 396.35938 60.697914Q396.03125 60.416664 395.40625 60.416664Q394.6875 60.416664 394.375 60.666664Q394.0625 60.90104 394.0625 61.229164Q394.0625 61.43229 394.1875 61.58854Q394.32812 61.760414 394.59375 61.86979Q394.75 61.93229 395.53125 62.135414Q396.65625 62.447914 397.09375 62.635414Q397.53125 62.822914 397.78125 63.18229Q398.03125 63.541664 398.03125 64.08854Q398.03125 64.61979 397.71875 65.08854Q397.42188 65.541664 396.84375 65.80729Q396.26562 66.05729 395.53125 66.05729Q394.3125 66.05729 393.67188 65.55729Q393.04688 65.041664 392.875 64.05729ZM403.35938 65.15104Q402.76562 65.65104 402.21875 65.854164Q401.6875 66.05729 401.0625 66.05729Q400.03125 66.05729 399.48438 65.55729Q398.9375 65.05729 398.9375 64.27604Q398.9375 63.822914 399.14062 63.447914Q399.34375 63.05729 399.6875 62.83854Q400.03125 62.604164 400.45312 62.49479Q400.75 62.40104 401.39062 62.322914Q402.65625 62.18229 403.26562 61.96354Q403.26562 61.74479 403.26562 61.697914Q403.26562 61.041664 402.96875 60.77604Q402.5625 60.43229 401.76562 60.43229Q401.03125 60.43229 400.67188 60.697914Q400.3125 60.947914 400.14062 61.604164L399.10938 61.46354Q399.25 60.80729 399.57812 60.40104Q399.90625 59.99479 400.51562 59.77604Q401.125 59.55729 401.92188 59.55729Q402.71875 59.55729 403.21875 59.74479Q403.71875 59.93229 403.95312 60.21354Q404.1875 60.49479 404.28125 60.93229Q404.32812 61.197914 404.32812 61.90104L404.32812 63.30729Q404.32812 64.77604 404.39062 65.166664Q404.46875 65.55729 404.67188 65.916664L403.5625 65.916664Q403.40625 65.58854 403.35938 65.15104ZM403.26562 62.791664Q402.6875 63.02604 401.54688 63.197914Q400.89062 63.291664 400.625 63.416664Q400.35938 63.52604 400.20312 63.74479Q400.0625 63.96354 400.0625 64.24479Q400.0625 64.666664 400.375 64.947914Q400.70312 65.229164 401.3125 65.229164Q401.92188 65.229164 402.39062 64.96354Q402.875 64.697914 403.09375 64.229164Q403.26562 63.86979 403.26562 63.18229L403.26562 62.791664ZM399.54688 58.77604Q399.53125 58.166664 399.875 57.80729Q400.20312 57.43229 400.73438 57.43229Q401.09375 57.43229 401.71875 57.760414Q402.0625 57.93229 402.26562 57.93229Q402.45312 57.93229 402.54688 57.83854Q402.65625 57.729164 402.70312 57.416664L403.46875 57.416664Q403.4375 58.08854 403.125 58.43229Q402.8125 58.760414 402.3125 58.760414Q401.9375 58.760414 401.34375 58.43229Q400.95312 58.21354 400.76562 58.21354Q400.5625 58.21354 400.4375 58.354164Q400.3125 58.49479 400.32812 58.77604L399.54688 58.77604ZM405.90625 62.80729Q405.90625 61.072914 406.85938 60.24479Q407.65625 59.55729 408.8125 59.55729Q410.09375 59.55729 410.90625 60.40104Q411.73438 61.229164 411.73438 62.71354Q411.73438 63.916664 411.375 64.604164Q411.01562 65.291664 410.3125 65.68229Q409.625 66.05729 408.8125 66.05729Q407.51562 66.05729 406.70312 65.229164Q405.90625 64.385414 405.90625 62.80729ZM406.98438 62.80729Q406.98438 63.99479 407.5 64.58854Q408.03125 65.18229 408.8125 65.18229Q409.60938 65.18229 410.125 64.58854Q410.64062 63.99479 410.64062 62.77604Q410.64062 61.61979 410.10938 61.02604Q409.59375 60.43229 408.8125 60.43229Q408.03125 60.43229 407.5 61.02604Q406.98438 61.604164 406.98438 62.80729Z" fill-rule="nonzero"/><path fill="#4285f4" d="M428.5 56.916668C428.5 56.364384 428.94772 55.916668 429.5 55.916668L439.5 55.916668C440.05228 55.916668 440.5 56.364384 440.5 56.916668L440.5 66.916664C440.5 67.46895 440.05228 67.916664 439.5 67.916664L429.5 67.916664C428.94772 67.916664 428.5 67.46895 428.5 66.916664Z" fill-rule="nonzero"/><path fill="#1a1a1a" d="M449.42188 65.916664L449.42188 57.322914L452.67188 57.322914Q453.51562 57.322914 453.96875 57.40104Q454.60938 57.510414 455.03125 57.80729Q455.46875 58.104164 455.71875 58.635414Q455.98438 59.166664 455.98438 59.80729Q455.98438 60.90104 455.28125 61.666664Q454.59375 62.416664 452.76562 62.416664L450.5625 62.416664L450.5625 65.916664L449.42188 65.916664ZM450.5625 61.416664L452.78125 61.416664Q453.89062 61.416664 454.34375 61.010414Q454.8125 60.58854 454.8125 59.83854Q454.8125 59.30729 454.53125 58.93229Q454.26562 58.541664 453.82812 58.416664Q453.53125 58.33854 452.76562 58.33854L450.5625 58.33854L450.5625 61.416664ZM457.28125 65.916664L457.28125 59.697914L458.23438 59.697914L458.23438 60.635414Q458.59375 59.979164 458.89062 59.77604Q459.20312 59.55729 459.57812 59.55729Q460.10938 59.55729 460.65625 59.885414L460.29688 60.86979Q459.90625 60.635414 459.53125 60.635414Q459.17188 60.635414 458.89062 60.854164Q458.625 61.05729 458.51562 61.43229Q458.32812 61.99479 458.32812 62.65104L458.32812 65.916664L457.28125 65.916664ZM460.90625 62.80729Q460.90625 61.072914 461.85938 60.24479Q462.65625 59.55729 463.8125 59.55729Q465.09375 59.55729 465.90625 60.40104Q466.73438 61.229164 466.73438 62.71354Q466.73438 63.916664 466.375 64.604164Q466.01562 65.291664 465.3125 65.68229Q464.625 66.05729 463.8125 66.05729Q462.51562 66.05729 461.70312 65.229164Q460.90625 64.385414 460.90625 62.80729ZM461.98438 62.80729Q461.98438 63.99479 462.5 64.58854Q463.03125 65.18229 463.8125 65.18229Q464.60938 65.18229 465.125 64.58854Q465.64062 63.99479 465.64062 62.77604Q465.64062 61.61979 465.10938 61.02604Q464.59375 60.43229 463.8125 60.43229Q463.03125 60.43229 462.5 61.02604Q461.98438 61.604164 461.98438 62.80729ZM468.29688 65.916664L468.29688 59.697914L469.23438 59.697914L469.23438 60.572914Q469.92188 59.55729 471.21875 59.55729Q471.78125 59.55729 472.25 59.760414Q472.73438 59.96354 472.96875 60.291664Q473.20312 60.61979 473.29688 61.05729Q473.34375 61.354164 473.34375 62.08854L473.34375 65.916664L472.29688 65.916664L472.29688 62.135414Q472.29688 61.479164 472.17188 61.166664Q472.04688 60.854164 471.73438 60.666664Q471.42188 60.46354 471.0 60.46354Q470.32812 60.46354 469.82812 60.90104Q469.34375 61.322914 469.34375 62.510414L469.34375 65.916664L468.29688 65.916664ZM477.59375 64.979164L477.75 65.90104Q477.29688 65.99479 476.95312 65.99479Q476.375 65.99479 476.0625 65.822914Q475.75 65.635414 475.60938 65.33854Q475.48438 65.041664 475.48438 64.08854L475.48438 60.510414L474.71875 60.510414L474.71875 59.697914L475.48438 59.697914L475.48438 58.15104L476.53125 57.52604L476.53125 59.697914L477.59375 59.697914L477.59375 60.510414L476.53125 60.510414L476.53125 64.15104Q476.53125 64.604164 476.57812 64.729164Q476.64062 64.854164 476.76562 64.93229Q476.89062 65.010414 477.125 65.010414Q477.3125 65.010414 477.59375 64.979164ZM477.90625 62.80729Q477.90625 61.072914 478.85938 60.24479Q479.65625 59.55729 480.8125 59.55729Q482.09375 59.55729 482.90625 60.40104Q483.73438 61.229164 483.73438 62.71354Q483.73438 63.916664 483.375 64.604164Q483.01562 65.291664 482.3125 65.68229Q481.625 66.05729 480.8125 66.05729Q479.51562 66.05729 478.70312 65.229164Q477.90625 64.385414 477.90625 62.80729ZM478.98438 62.80729Q478.98438 63.99479 479.5 64.58854Q480.03125 65.18229 480.8125 65.18229Q481.60938 65.18229 482.125 64.58854Q482.64062 63.99479 482.64062 62.77604Q482.64062 61.61979 482.10938 61.02604Q481.59375 60.43229 480.8125 60.43229Q480.03125 60.43229 479.5 61.02604Q478.98438 61.604164 478.98438 62.80729Z" fill-rule="nonzero"/><path fill="#757575" d="M20.096874 37.55L20.096874 23.2375L25.01875 23.2375Q26.690624 23.2375 27.58125 23.440624Q28.8 23.721874 29.675 24.45625Q30.8 25.425 31.3625 26.909374Q31.925 28.39375 31.925 30.315624Q31.925 31.940624 31.55 33.20625Q31.175 34.45625 30.565624 35.284374Q29.971874 36.1125 29.26875 36.596874Q28.565624 37.065624 27.565624 37.315624Q26.565624 37.55 25.253124 37.55L20.096874 37.55ZM21.9875 35.8625L25.05 35.8625Q26.45625 35.8625 27.253124 35.596874Q28.065624 35.33125 28.55 34.846874Q29.221874 34.175 29.596874 33.05Q29.971874 31.909374 29.971874 30.284374Q29.971874 28.034374 29.2375 26.83125Q28.503124 25.628124 27.440624 25.221874Q26.690624 24.925 25.003124 24.925L21.9875 24.925L21.9875 35.8625ZM33.878124 25.253124L33.878124 23.2375L35.64375 23.2375L35.64375 25.253124L33.878124 25.253124ZM33.878124 37.55L33.878124 27.175L35.64375 27.175L35.64375 37.55L33.878124 37.55ZM44.64375 36.26875Q43.659374 37.096874 42.753124 37.440624Q41.846874 37.784374 40.815624 37.784374Q39.1125 37.784374 38.190624 36.95625Q37.26875 36.1125 37.26875 34.815624Q37.26875 34.05 37.6125 33.425Q37.971874 32.8 38.534374 32.425Q39.096874 32.034374 39.8 31.83125Q40.315624 31.70625 41.3625 31.565624Q43.4875 31.315624 44.4875 30.971874Q44.503124 30.6125 44.503124 30.503124Q44.503124 29.440624 44.003124 28.9875Q43.33125 28.39375 42.003124 28.39375Q40.753124 28.39375 40.159374 28.83125Q39.58125 29.26875 39.3 30.378124L37.58125 30.14375Q37.815624 29.034374 38.346874 28.3625Q38.878124 27.675 39.89375 27.315624Q40.909374 26.940624 42.253124 26.940624Q43.58125 26.940624 44.409374 27.253124Q45.2375 27.565624 45.628124 28.05Q46.01875 28.51875 46.175 29.2375Q46.26875 29.690624 46.26875 30.8625L46.26875 33.20625Q46.26875 35.659374 46.378124 36.315624Q46.4875 36.95625 46.83125 37.55L44.9875 37.55Q44.721874 37.003124 44.64375 36.26875ZM44.4875 32.346874Q43.534374 32.7375 41.6125 33.003124Q40.534374 33.159374 40.08125 33.3625Q39.64375 33.55 39.39375 33.925Q39.14375 34.3 39.14375 34.76875Q39.14375 35.471874 39.675 35.940624Q40.20625 36.409374 41.2375 36.409374Q42.253124 36.409374 43.034374 35.971874Q43.83125 35.51875 44.20625 34.753124Q44.4875 34.14375 44.4875 32.9875L44.4875 32.346874ZM48.55 38.409374L50.253124 38.659374Q50.3625 39.45625 50.846874 39.815624Q51.503124 40.3 52.64375 40.3Q53.8625 40.3 54.51875 39.815624Q55.190624 39.33125 55.425 38.45625Q55.565624 37.909374 55.55 36.190624Q54.39375 37.55 52.675 37.55Q50.534374 37.55 49.3625 36.003124Q48.190624 34.45625 48.190624 32.3Q48.190624 30.815624 48.721874 29.565624Q49.26875 28.315624 50.284374 27.628124Q51.315624 26.940624 52.690624 26.940624Q54.51875 26.940624 55.721874 28.425L55.721874 27.175L57.33125 27.175L57.33125 36.14375Q57.33125 38.565624 56.83125 39.565624Q56.346874 40.58125 55.26875 41.159374Q54.20625 41.753124 52.64375 41.753124Q50.8 41.753124 49.64375 40.925Q48.503124 40.096874 48.55 38.409374ZM50.003124 32.175Q50.003124 34.221874 50.815624 35.159374Q51.628124 36.096874 52.846874 36.096874Q54.05 36.096874 54.8625 35.159374Q55.690624 34.221874 55.690624 32.2375Q55.690624 30.33125 54.846874 29.3625Q54.003124 28.39375 52.815624 28.39375Q51.64375 28.39375 50.815624 29.346874Q50.003124 30.3 50.003124 32.175ZM59.846874 37.55L59.846874 27.175L61.425 27.175L61.425 28.753124Q62.034374 27.64375 62.55 27.3Q63.065624 26.940624 63.675 26.940624Q64.56563 26.940624 65.4875 27.503124L64.87813 29.14375Q64.2375 28.753124 63.596874 28.753124Q63.01875 28.753124 62.55 29.1125Q62.096874 29.45625 61.89375 30.065624Q61.6125 31.003124 61.6125 32.1125L61.6125 37.55L59.846874 37.55ZM73.64375 36.26875Q72.65938 37.096874 71.75313 37.440624Q70.84688 37.784374 69.81563 37.784374Q68.1125 37.784374 67.19063 36.95625Q66.26875 36.1125 66.26875 34.815624Q66.26875 34.05 66.6125 33.425Q66.97188 32.8 67.53438 32.425Q68.09688 32.034374 68.8 31.83125Q69.31563 31.70625 70.3625 31.565624Q72.4875 31.315624 73.4875 30.971874Q73.50313 30.6125 73.50313 30.503124Q73.50313 29.440624 73.00313 28.9875Q72.33125 28.39375 71.00313 28.39375Q69.75313 28.39375 69.15938 28.83125Q68.58125 29.26875 68.3 30.378124L66.58125 30.14375Q66.81563 29.034374 67.34688 28.3625Q67.87813 27.675 68.89375 27.315624Q69.90938 26.940624 71.25313 26.940624Q72.58125 26.940624 73.40938 27.253124Q74.2375 27.565624 74.62813 28.05Q75.01875 28.51875 75.175 29.2375Q75.26875 29.690624 75.26875 30.8625L75.26875 33.20625Q75.26875 35.659374 75.37813 36.315624Q75.4875 36.95625 75.83125 37.55L73.9875 37.55Q73.72188 37.003124 73.64375 36.26875ZM73.4875 32.346874Q72.53438 32.7375 70.6125 33.003124Q69.53438 33.159374 69.08125 33.3625Q68.64375 33.55 68.39375 33.925Q68.14375 34.3 68.14375 34.76875Q68.14375 35.471874 68.675 35.940624Q69.20625 36.409374 70.2375 36.409374Q71.25313 36.409374 72.03438 35.971874Q72.83125 35.51875 73.20625 34.753124Q73.4875 34.14375 73.4875 32.9875L73.4875 32.346874ZM77.8625 37.55L77.8625 27.175L79.44063 27.175L79.44063 28.628124Q79.925 27.878124 80.7375 27.409374Q81.55 26.940624 82.58125 26.940624Q83.7375 26.940624 84.47188 27.425Q85.20625 27.89375 85.51875 28.753124Q86.75313 26.940624 88.72188 26.940624Q90.26875 26.940624 91.09688 27.8Q91.925 28.659374 91.925 30.425L91.925 37.55L90.175 37.55L90.175 31.01875Q90.175 29.95625 90.00313 29.503124Q89.83125 29.034374 89.37813 28.753124Q88.94063 28.471874 88.33125 28.471874Q87.2375 28.471874 86.50313 29.20625Q85.78438 29.925 85.78438 31.51875L85.78438 37.55L84.03438 37.55L84.03438 30.815624Q84.03438 29.64375 83.59688 29.065624Q83.175 28.471874 82.19063 28.471874Q81.45625 28.471874 80.81563 28.8625Q80.19063 29.253124 79.90938 30.003124Q79.62813 30.753124 79.62813 32.175L79.62813 37.55L77.8625 37.55ZM101.64375 36.26875Q100.65938 37.096874 99.75313 37.440624Q98.84688 37.784374 97.81563 37.784374Q96.1125 37.784374 95.19063 36.95625Q94.26875 36.1125 94.26875 34.815624Q94.26875 34.05 94.6125 33.425Q94.97188 32.8 95.53438 32.425Q96.09688 32.034374 96.8 31.83125Q97.31563 31.70625 98.3625 31.565624Q100.4875 31.315624 101.4875 30.971874Q101.50313 30.6125 101.50313 30.503124Q101.50313 29.440624 101.00313 28.9875Q100.33125 28.39375 99.00313 28.39375Q97.75313 28.39375 97.15938 28.83125Q96.58125 29.26875 96.3 30.378124L94.58125 30.14375Q94.81563 29.034374 95.34688 28.3625Q95.87813 27.675 96.89375 27.315624Q97.90938 26.940624 99.25313 26.940624Q100.58125 26.940624 101.40938 27.253124Q102.2375 27.565624 102.62813 28.05Q103.01875 28.51875 103.175 29.2375Q103.26875 29.690624 103.26875 30.8625L103.26875 33.20625Q103.26875 35.659374 103.37813 36.315624Q103.4875 36.95625 103.83125 37.55L101.9875 37.55Q101.72188 37.003124 101.64375 36.26875ZM101.4875 32.346874Q100.53438 32.7375 98.6125 33.003124Q97.53438 33.159374 97.08125 33.3625Q96.64375 33.55 96.39375 33.925Q96.14375 34.3 96.14375 34.76875Q96.14375 35.471874 96.675 35.940624Q97.20625 36.409374 98.2375 36.409374Q99.25313 36.409374 100.03438 35.971874Q100.83125 35.51875 101.20625 34.753124Q101.4875 34.14375 101.4875 32.9875L101.4875 32.346874ZM118.59688 37.55L118.59688 36.2375Q117.6125 37.784374 115.69063 37.784374Q114.45625 37.784374 113.40938 37.096874Q112.37813 36.409374 111.8 35.190624Q111.2375 33.971874 111.2375 32.378124Q111.2375 30.815624 111.75313 29.55Q112.26875 28.284374 113.3 27.6125Q114.34688 26.940624 115.6125 26.940624Q116.55 26.940624 117.28438 27.346874Q118.01875 27.7375 118.4875 28.3625L118.4875 23.2375L120.22188 23.2375L120.22188 37.55L118.59688 37.55ZM113.03438 32.378124Q113.03438 34.3625 113.87813 35.346874Q114.72188 36.33125 115.8625 36.33125Q117.01875 36.33125 117.81563 35.39375Q118.62813 34.45625 118.62813 32.51875Q118.62813 30.39375 117.8 29.39375Q116.9875 28.39375 115.78438 28.39375Q114.6125 28.39375 113.81563 29.3625Q113.03438 30.315624 113.03438 32.378124ZM129.97188 34.20625L131.78438 34.440624Q131.3625 36.01875 130.19063 36.909374Q129.03438 37.784374 127.22188 37.784374Q124.95625 37.784374 123.6125 36.39375Q122.28438 34.9875 122.28438 32.45625Q122.28438 29.83125 123.62813 28.39375Q124.97188 26.940624 127.12813 26.940624Q129.20625 26.940624 130.51875 28.3625Q131.84688 29.76875 131.84688 32.346874Q131.84688 32.503124 131.83125 32.815624L124.09688 32.815624Q124.19063 34.51875 125.06563 35.425Q125.94063 36.33125 127.2375 36.33125Q128.20625 36.33125 128.87813 35.83125Q129.56563 35.315624 129.97188 34.20625ZM124.19063 31.3625L129.9875 31.3625Q129.87813 30.065624 129.33125 29.409374Q128.4875 28.39375 127.14375 28.39375Q125.94063 28.39375 125.1125 29.20625Q124.28438 30.003124 124.19063 31.3625ZM140.19063 37.55L140.19063 23.2375L149.84688 23.2375L149.84688 24.925L142.08125 24.925L142.08125 29.3625L148.8 29.3625L148.8 31.05L142.08125 31.05L142.08125 37.55L140.19063 37.55ZM151.83125 37.55L151.83125 23.2375L153.58125 23.2375L153.58125 37.55L151.83125 37.55ZM162.65938 37.55L162.65938 36.01875Q161.45625 37.784374 159.37813 37.784374Q158.45625 37.784374 157.65938 37.440624Q156.8625 37.08125 156.47188 36.55Q156.09688 36.01875 155.94063 35.2375Q155.83125 34.721874 155.83125 33.596874L155.83125 27.175L157.58125 27.175L157.58125 32.925Q157.58125 34.3 157.69063 34.784374Q157.8625 35.471874 158.39375 35.878124Q158.94063 36.26875 159.72188 36.26875Q160.51875 36.26875 161.20625 35.8625Q161.90938 35.45625 162.19063 34.76875Q162.4875 34.065624 162.4875 32.7375L162.4875 27.175L164.2375 27.175L164.2375 37.55L162.65938 37.55ZM165.69063 37.55L169.4875 32.159374L165.9875 27.175L168.175 27.175L169.76875 29.6125Q170.22188 30.3 170.4875 30.76875Q170.925 30.128124 171.28438 29.628124L173.03438 27.175L175.12813 27.175L171.55 32.065624L175.40938 37.55L173.25313 37.55L171.1125 34.33125L170.55 33.45625L167.83125 37.55L165.69063 37.55ZM176.22188 32.3625Q176.22188 29.4875 177.81563 28.096874Q179.15938 26.940624 181.08125 26.940624Q183.22188 26.940624 184.56563 28.346874Q185.925 29.753124 185.925 32.221874Q185.925 34.221874 185.33125 35.378124Q184.7375 36.51875 183.58125 37.159374Q182.44063 37.784374 181.08125 37.784374Q178.89375 37.784374 177.55 36.39375Q176.22188 34.9875 176.22188 32.3625ZM178.01875 32.3625Q178.01875 34.3625 178.87813 35.346874Q179.75313 36.33125 181.08125 36.33125Q182.39375 36.33125 183.25313 35.346874Q184.12813 34.346874 184.12813 32.3Q184.12813 30.378124 183.25313 29.39375Q182.37813 28.39375 181.08125 28.39375Q179.75313 28.39375 178.87813 29.39375Q178.01875 30.378124 178.01875 32.3625ZM204.31563 32.534374L206.20625 33.003124Q205.6125 35.346874 204.06563 36.58125Q202.51875 37.8 200.26875 37.8Q197.95625 37.8 196.50313 36.8625Q195.06563 35.909374 194.3 34.128124Q193.55 32.33125 193.55 30.284374Q193.55 28.05 194.39375 26.39375Q195.25313 24.721874 196.83125 23.8625Q198.40938 22.9875 200.3 22.9875Q202.45625 22.9875 203.90938 24.08125Q205.37813 25.175 205.95625 27.159374L204.09688 27.596874Q203.59688 26.034374 202.64375 25.33125Q201.70625 24.6125 200.26875 24.6125Q198.6125 24.6125 197.50313 25.409374Q196.39375 26.190624 195.94063 27.534374Q195.50313 28.8625 195.50313 30.26875Q195.50313 32.096874 196.03438 33.471874Q196.56563 34.83125 197.69063 35.503124Q198.81563 36.175 200.1125 36.175Q201.70625 36.175 202.81563 35.253124Q203.925 34.33125 204.31563 32.534374ZM214.65938 37.55L214.65938 36.01875Q213.45625 37.784374 211.37813 37.784374Q210.45625 37.784374 209.65938 37.440624Q208.8625 37.08125 208.47188 36.55Q208.09688 36.01875 207.94063 35.2375Q207.83125 34.721874 207.83125 33.596874L207.83125 27.175L209.58125 27.175L209.58125 32.925Q209.58125 34.3 209.69063 34.784374Q209.8625 35.471874 210.39375 35.878124Q210.94063 36.26875 211.72188 36.26875Q212.51875 36.26875 213.20625 35.8625Q213.90938 35.45625 214.19063 34.76875Q214.4875 34.065624 214.4875 32.7375L214.4875 27.175L216.2375 27.175L216.2375 37.55L214.65938 37.55ZM218.8625 37.55L218.8625 27.175L220.44063 27.175L220.44063 28.628124Q220.925 27.878124 221.7375 27.409374Q222.55 26.940624 223.58125 26.940624Q224.7375 26.940624 225.47188 27.425Q226.20625 27.89375 226.51875 28.753124Q227.75313 26.940624 229.72188 26.940624Q231.26875 26.940624 232.09688 27.8Q232.925 28.659374 232.925 30.425L232.925 37.55L231.175 37.55L231.175 31.01875Q231.175 29.95625 231.00313 29.503124Q230.83125 29.034374 230.37813 28.753124Q229.94063 28.471874 229.33125 28.471874Q228.2375 28.471874 227.50313 29.20625Q226.78438 29.925 226.78438 31.51875L226.78438 37.55L225.03438 37.55L225.03438 30.815624Q225.03438 29.64375 224.59688 29.065624Q224.175 28.471874 223.19063 28.471874Q222.45625 28.471874 221.81563 28.8625Q221.19063 29.253124 220.90938 30.003124Q220.62813 30.753124 220.62813 32.175L220.62813 37.55L218.8625 37.55ZM242.65938 37.55L242.65938 36.01875Q241.45625 37.784374 239.37813 37.784374Q238.45625 37.784374 237.65938 37.440624Q236.8625 37.08125 236.47188 36.55Q236.09688 36.01875 235.94063 35.2375Q235.83125 34.721874 235.83125 33.596874L235.83125 27.175L237.58125 27.175L237.58125 32.925Q237.58125 34.3 237.69063 34.784374Q237.8625 35.471874 238.39375 35.878124Q238.94063 36.26875 239.72188 36.26875Q240.51875 36.26875 241.20625 35.8625Q241.90938 35.45625 242.19063 34.76875Q242.4875 34.065624 242.4875 32.7375L242.4875 27.175L244.2375 27.175L244.2375 37.55L242.65938 37.55ZM246.83125 37.55L246.83125 23.2375L248.58125 23.2375L248.58125 37.55L246.83125 37.55ZM257.64374 36.26875Q256.65936 37.096874 255.75313 37.440624Q254.84688 37.784374 253.81563 37.784374Q252.1125 37.784374 251.19063 36.95625Q250.26875 36.1125 250.26875 34.815624Q250.26875 34.05 250.6125 33.425Q250.97188 32.8 251.53438 32.425Q252.09688 32.034374 252.8 31.83125Q253.31563 31.70625 254.3625 31.565624Q256.4875 31.315624 257.4875 30.971874Q257.5031 30.6125 257.5031 30.503124Q257.5031 29.440624 257.0031 28.9875Q256.33124 28.39375 255.00313 28.39375Q253.75313 28.39375 253.15938 28.83125Q252.58125 29.26875 252.3 30.378124L250.58125 30.14375Q250.81563 29.034374 251.34688 28.3625Q251.87813 27.675 252.89375 27.315624Q253.90938 26.940624 255.25313 26.940624Q256.58124 26.940624 257.40936 27.253124Q258.2375 27.565624 258.6281 28.05Q259.01874 28.51875 259.175 29.2375Q259.26874 29.690624 259.26874 30.8625L259.26874 33.20625Q259.26874 35.659374 259.3781 36.315624Q259.4875 36.95625 259.83124 37.55L257.9875 37.55Q257.72186 37.003124 257.64374 36.26875ZM257.4875 32.346874Q256.53436 32.7375 254.6125 33.003124Q253.53438 33.159374 253.08125 33.3625Q252.64375 33.55 252.39375 33.925Q252.14375 34.3 252.14375 34.76875Q252.14375 35.471874 252.675 35.940624Q253.20625 36.409374 254.2375 36.409374Q255.25313 36.409374 256.03436 35.971874Q256.83124 35.51875 257.20624 34.753124Q257.4875 34.14375 257.4875 32.9875L257.4875 32.346874ZM265.70624 35.971874L265.95624 37.534374Q265.22186 37.690624 264.6281 37.690624Q263.675 37.690624 263.14374 37.39375Q262.6281 37.08125 262.40936 36.596874Q262.1906 36.096874 262.1906 34.51875L262.1906 28.55L260.90936 28.55L260.90936 27.175L262.1906 27.175L262.1906 24.6125L263.9406 23.55L263.9406 27.175L265.70624 27.175L265.70624 28.55L263.9406 28.55L263.9406 34.6125Q263.9406 35.3625 264.03436 35.58125Q264.1281 35.784374 264.33124 35.925Q264.55 36.05 264.9406 36.05Q265.22186 36.05 265.70624 35.971874ZM267.8781 25.253124L267.8781 23.2375L269.64374 23.2375L269.64374 25.253124L267.8781 25.253124ZM267.8781 37.55L267.8781 27.175L269.64374 27.175L269.64374 37.55L267.8781 37.55ZM274.7531 37.55L270.8 27.175L272.65936 27.175L274.89374 33.39375Q275.2531 34.39375 275.55 35.471874Q275.78436 34.659374 276.20624 33.503124L278.5031 27.175L280.3156 27.175L276.39374 37.55L274.7531 37.55ZM281.22186 32.3625Q281.22186 29.4875 282.8156 28.096874Q284.15936 26.940624 286.08124 26.940624Q288.22186 26.940624 289.5656 28.346874Q290.925 29.753124 290.925 32.221874Q290.925 34.221874 290.33124 35.378124Q289.7375 36.51875 288.58124 37.159374Q287.4406 37.784374 286.08124 37.784374Q283.89374 37.784374 282.55 36.39375Q281.22186 34.9875 281.22186 32.3625ZM283.01874 32.3625Q283.01874 34.3625 283.8781 35.346874Q284.7531 36.33125 286.08124 36.33125Q287.39374 36.33125 288.2531 35.346874Q289.1281 34.346874 289.1281 32.3Q289.1281 30.378124 288.2531 29.39375Q287.3781 28.39375 286.08124 28.39375Q284.7531 28.39375 283.8781 29.39375Q283.01874 30.378124 283.01874 32.3625Z" fill-rule="nonzero"/></svg>