<?xml version="1.0" encoding="UTF-8"?>
<svg xmlns="http://www.w3.org/2000/svg" xmlns:xlink="http://www.w3.org/1999/xlink" width="505px" height="427px" viewBox="0 0 505 427">
  <!-- Generator: Sketch 53 (72520) - https://sketchapp.com -->
  <title>DT-2-3-activities</title>
  <desc>Created with Sketch.</desc>
  <defs>
    <polygon id="path-1" points="0.854528286 0.836 17.864 0.836 17.864 21.176 0.854528286 21.176"></polygon>
  </defs>
  <g id="DT-2-3-activities" stroke="none" stroke-width="1" fill="none" fill-rule="evenodd">
    <g id="IDEO-Logo-Copy-12" transform="translate(202.500000, 413.000000)" fill="#ED943E">
      <path d="M21.4066972,0.554531747 L15.4561831,0.554531747 L15.4561831,13.1045056 L21.2888592,13.1045056 C25.0651901,13.0611457 27.6664085,10.3332565 27.6664085,6.81078551 C27.6664085,3.32599133 25.1189014,0.650934002 21.4066972,0.554531747 L21.4066972,0.554531747 Z M21.2980493,10.9445058 L21.2980493,10.9426114 L17.6405775,10.9426114 L17.6405775,2.71284773 L21.3319507,2.71284773 C23.7295563,2.77115215 25.2904507,4.49649993 25.2904507,6.84467364 C25.2904507,9.20400306 23.7152606,10.9030402 21.2980493,10.9445058 L21.2980493,10.9445058 Z" id="Fill-1"></path>
      <polyline id="Fill-2" points="12.2404507 2.75978595 12.2404507 0.554531747 0.0631056338 0.554531747 0.0631056338 2.75978595 5.05702817 2.75978595 5.05702817 10.8992514 0.0631056338 10.8992514 0.0631056338 13.1045056 12.2404507 13.1045056 12.2404507 10.8992514 7.24775352 10.8992514 7.24775352 2.75978595 12.2404507 2.75978595"></polyline>
      <polyline id="Fill-3" points="42.6132535 2.7505246 42.6132535 0.554531747 30.3382887 0.554531747 30.3382887 13.1045056 42.6132535 13.1045056 42.6132535 10.9068289 32.539838 10.9068289 32.539838 7.92656794 40.4027183 7.92656794 40.4027183 5.73078557 32.539838 5.73078557 32.539838 2.7505246 42.6132535 2.7505246"></polyline>
      <path d="M51.2621972,0.00158693626 C47.5661268,0.00158693626 44.5709577,3.05909601 44.5709577,6.82783481 C44.5709577,10.6001519 47.5661268,13.6559771 51.2621972,13.6559771 C54.9570423,13.6559771 57.9536408,10.6001519 57.9536408,6.82783481 C57.9536408,3.05909601 54.9570423,0.00158693626 51.2621972,0.00158693626 L51.2621972,0.00158693626 Z M51.2621972,11.3000154 C48.8429437,11.3000154 46.8809507,9.29830046 46.8809507,6.82783481 C46.8809507,4.36094742 48.8429437,2.35902199 51.2621972,2.35902199 C53.6810423,2.35902199 55.6434437,4.36094742 55.6434437,6.82783481 C55.6434437,9.29830046 53.6810423,11.3000154 51.2621972,11.3000154 L51.2621972,11.3000154 Z" id="Fill-4"></path>
    </g>
    <text id="The-3-core-activitie" font-family="Sentinel-BookItalic, Sentinel" font-size="16" font-style="italic" font-weight="300" fill="#000000">
      <tspan x="103.08" y="401">The 3 core activities of design thinking</tspan>
    </text>
    <g id="Group-80">
      <path d="M156.6829,113.4603 C158.9589,110.6873 161.2349,107.9143 163.5109,105.1413 C165.5479,102.6603 167.7289,98.7793 170.3189,96.9243 C169.3189,97.0663 168.3189,97.2093 167.3199,97.3513 C171.9279,99.5113 176.4579,105.9233 179.5459,109.7833 C183.1699,114.3143 189.1059,106.7483 186.1549,103.0593 C182.0429,97.9193 176.9439,90.8503 170.8749,88.0043 C170.0059,87.5973 168.6199,87.8983 167.8759,88.4303 C164.8969,90.5633 162.8029,93.7963 160.4949,96.6083 C157.8049,99.8863 155.1149,103.1633 152.4239,106.4403 C150.9449,108.2433 149.8039,111.1243 151.2489,113.3123 C152.5089,115.2193 155.2279,115.2323 156.6829,113.4603" id="Fill-1" fill="#231F20"></path>
      <path d="M315.9544,195.3495 C319.7154,193.0925 323.4764,190.8355 327.2374,188.5785 C330.1434,186.8335 334.2254,185.2205 335.1514,181.5735 C336.0044,178.2175 333.6944,174.8065 332.4294,171.8265 C330.5514,167.4045 328.6734,162.9825 326.7964,158.5615 C324.5314,153.2305 317.0614,159.3765 318.9114,163.7305 C320.2884,166.9735 321.6654,170.2155 323.0424,173.4585 C324.2364,176.2695 326.6064,179.8575 327.0774,182.8325 C327.6924,181.2985 328.3084,179.7645 328.9244,178.2295 C327.0494,180.0515 323.6104,181.3875 321.3424,182.7485 C318.6554,184.3615 315.9694,185.9735 313.2824,187.5865 C308.8294,190.2585 310.3494,198.7135 315.9544,195.3495" id="Fill-3" fill="#231F20"></path>
      <path d="M140.0081,245.7274 C136.3651,252.9544 133.3491,260.4354 130.9341,268.1604 C130.5481,269.3944 130.9271,271.2004 132.1991,271.8154 C137.2741,274.2704 142.0851,277.0994 146.6971,280.3384 C150.5951,283.0764 157.3991,275.8634 153.0021,272.7754 C148.3901,269.5354 143.5781,266.7064 138.5041,264.2524 C138.9261,265.4704 139.3481,266.6894 139.7691,267.9084 C141.9551,260.9144 144.6921,254.1964 147.9891,247.6534 C150.9311,241.8164 142.3411,241.0974 140.0081,245.7274" id="Fill-5" fill="#231F20"></path>
      <path d="M217.4817,216.3368 C204.2037,202.5708 193.1277,185.9558 185.8127,168.2218 C206.3137,166.5828 226.9247,166.9898 247.3717,169.2788 C240.9557,185.7398 231.1477,200.7938 219.5427,214.1198 C218.8617,214.8658 218.1757,215.6068 217.4817,216.3368 M407.6627,234.8848 C404.2317,213.3728 381.1547,198.1498 363.7717,188.4158 C358.4017,185.4078 350.9107,198.4028 356.2717,201.4058 C371.0057,209.6578 388.8177,220.9538 395.4867,237.3698 C397.0097,241.1198 397.6107,245.5588 396.7487,248.8368 C396.4617,249.6478 396.1157,250.4348 395.7167,251.1998 C393.7697,254.1688 389.1607,257.2828 384.9707,259.2538 C370.3277,266.1458 352.5847,266.7328 336.7247,265.9938 C324.0807,265.4048 311.2047,263.7658 298.6667,260.9008 L298.6667,242.4168 C298.6667,241.1288 297.6647,240.4848 296.6647,240.4848 C295.6637,240.4828 294.6627,241.1268 294.6627,242.4168 L294.6627,259.9398 C287.3907,258.1118 280.2527,255.8668 273.3707,253.1428 C255.4587,246.0548 238.6347,235.7158 224.2557,222.8428 C224.2817,222.8148 224.3107,222.7848 224.3357,222.7558 C224.4717,222.6128 224.6077,222.4538 224.7417,222.2858 C226.4587,220.3268 228.1447,218.3308 229.7917,216.2958 C239.9187,203.9928 248.4767,190.2118 254.6957,175.6248 C254.7427,175.5148 254.7887,175.4038 254.8357,175.2948 C255.3247,174.1378 255.8057,172.9798 256.2657,171.8138 C256.4397,171.3748 256.6037,170.9328 256.7737,170.4918 C276.8027,173.4158 296.7207,178.1168 315.9977,184.3958 C315.5037,184.6918 315.0107,184.9878 314.5177,185.2838 C311.5277,187.0788 309.0307,190.8818 309.2147,194.4698 C309.3737,197.5578 311.8497,199.3778 314.7257,197.6518 C319.0247,195.0718 323.3237,192.4918 327.6217,189.9128 C331.1287,187.8078 334.4807,185.8518 335.9867,181.7598 C337.4947,177.6678 335.6447,174.5278 334.0707,170.8218 C332.0677,166.1058 330.0647,161.3898 328.0627,156.6728 C325.0277,149.5278 315.4477,160.4278 317.6527,165.6188 L319.5627,170.1178 C300.5417,164.0948 280.9627,159.5178 261.2637,156.6768 C268.4247,130.2858 269.7717,101.6898 265.3267,74.3498 L314.7427,74.3498 L314.7467,74.3498 C317.3197,74.3498 317.3247,70.3498 314.7467,70.3498 L314.7427,70.3498 L264.6337,70.3498 C262.8117,60.4568 260.2277,50.7508 256.8727,41.4008 C249.2577,20.1898 229.7997,-12.1162 203.1347,4.6628 C200.5197,6.3088 198.1007,8.2078 195.8577,10.3058 C190.7397,14.8078 186.6287,20.5828 183.2737,26.8588 C178.1777,35.9898 174.5967,46.1388 171.9007,55.5388 C171.1837,58.0348 170.5237,62.2718 174.0747,62.8428 C175.6777,63.1018 177.3387,62.1288 178.6877,60.7668 C179.2147,60.5198 179.6757,60.0128 180.0127,59.1768 C180.6807,58.2248 181.1757,57.2398 181.4097,56.4248 C186.6907,38.0158 202.4407,-0.3642 227.1647,19.2098 C236.5347,26.6278 242.2267,38.7428 246.2267,49.6918 C248.6867,56.4248 250.6407,63.3388 252.1757,70.3498 L234.2867,70.3498 L234.2827,70.3498 C231.7097,70.3498 231.7047,74.3498 234.2827,74.3498 L234.2867,74.3498 L253.0067,74.3498 C254.6167,82.5858 255.6667,90.9358 256.2757,99.2738 C257.6657,118.3098 256.5717,137.0998 251.8007,155.4788 C228.3377,152.9188 204.7527,152.9328 181.2717,155.3848 C176.6987,139.6858 174.7537,123.8378 174.7717,107.7448 C176.0077,109.2738 177.1587,110.7808 178.2017,112.0868 C182.4037,117.3388 191.1417,105.3018 187.5057,100.7558 C184.3107,96.7608 180.2037,91.1598 175.6377,87.8608 C175.3837,85.1398 172.4867,84.3258 170.1327,85.4918 C169.1957,85.9558 168.4067,86.6168 167.7287,87.3858 C167.6957,87.4098 167.6627,87.4328 167.6287,87.4568 C164.5397,89.6688 162.2527,93.3168 159.8667,96.2228 C157.1757,99.4998 154.4867,102.7768 151.7957,106.0538 C149.9517,108.3018 147.8217,112.8898 149.9057,115.6148 C152.0257,118.3888 155.7377,115.7728 157.3187,113.8468 C159.5897,111.0798 161.8607,108.3128 164.1317,105.5458 C163.4187,122.9048 164.7867,140.0668 168.8847,156.9518 C153.7727,159.1728 138.8117,162.4238 124.1737,166.7758 L124.1737,108.4348 C124.1737,107.1478 123.1727,106.5028 122.1717,106.5038 C121.1717,106.5018 120.1697,107.1448 120.1697,108.4348 L120.1697,167.9968 C114.2747,169.8398 108.4327,171.8578 102.6607,174.0718 C93.2107,177.6948 83.4197,181.5178 74.7047,186.7478 L74.7037,186.7478 C58.4007,195.3868 37.9917,208.4338 28.5257,226.1108 C26.0847,230.3028 24.3127,234.8398 23.8187,239.6028 C23.6987,240.3178 23.5897,241.0368 23.5067,241.7628 C21.0177,263.6888 42.2007,273.9198 60.4627,277.5718 C76.3927,280.7568 92.8357,280.2778 108.9077,278.5518 C110.7387,278.3558 112.4767,276.7338 113.7127,274.6798 C114.6577,274.0278 115.0217,273.0918 114.9127,272.1168 C116.1847,268.4278 115.6507,264.6128 111.4497,265.0648 C96.0577,266.7168 80.1717,266.8718 64.9517,263.7148 C55.0887,261.6698 43.5817,257.8758 37.4147,249.3298 C34.4827,245.2668 33.7767,240.9828 34.5477,236.7988 C35.8127,232.2498 38.3287,227.8968 41.1597,224.2308 C41.5037,223.7848 41.8657,223.3538 42.2197,222.9178 C51.0447,212.7428 63.1987,205.3228 74.9067,199.1178 C74.9077,199.1168 74.9097,199.1168 74.9107,199.1158 C83.1037,194.1998 92.2727,190.5298 101.1717,187.1588 C107.4307,184.7878 113.7697,182.6438 120.1697,180.7068 L120.1697,202.8088 C120.1697,204.0958 121.1717,204.7408 122.1717,204.7398 C123.1727,204.7418 124.1737,204.0988 124.1737,202.8088 L124.1737,179.5228 C140.0017,174.9678 156.1917,171.6898 172.5317,169.5928 C179.6687,190.3868 191.7227,210.1658 206.8597,226.2698 C188.3827,241.8998 166.8277,252.9048 143.3747,259.1478 C144.7247,255.6808 146.2197,252.2728 147.8997,248.9408 C149.0707,246.6168 150.7857,241.9458 147.7527,240.1948 C144.8967,238.5468 141.2387,242.1918 140.1057,244.4408 C136.3317,251.9278 133.1037,259.5848 130.6007,267.5908 C130.0077,269.4868 129.1697,273.3518 131.6057,274.5288 C136.6797,276.9838 141.4917,279.8128 146.1037,283.0518 C150.9897,286.4838 158.7437,273.6718 153.6037,270.0618 C153.1757,269.7608 152.7367,269.4818 152.3057,269.1888 C175.0317,261.5268 195.9997,249.3898 213.8397,233.1798 C236.8377,254.2248 264.7577,267.9098 294.6627,274.7498 L294.6627,320.3608 L294.6627,322.8938 C294.6627,324.1808 295.6637,324.8258 296.6647,324.8248 C297.6647,324.8268 298.6667,324.1838 298.6667,322.8938 L298.6667,320.3608 L298.6667,275.6228 C310.2187,278.0158 322.0437,279.4098 333.9777,279.8148 C351.9477,280.4238 371.8677,279.0648 387.9507,270.2138 C400.6867,263.2048 410.0557,249.8948 407.6627,234.8848" id="Fill-7" fill="#231F20"></path>
      <path d="M119.2884,94.2313 C119.5174,95.3483 118.9934,96.9033 119.1084,97.2913 C119.2734,99.1203 120.4464,99.0233 121.6294,99.8113 C122.6864,99.7183 123.0934,99.3203 123.7884,98.9113 C123.6954,95.8363 123.0224,93.0483 123.2484,90.4513 C124.4214,91.2333 125.2084,92.5283 126.3094,93.3313 C126.9174,93.7753 127.5164,93.9663 128.1084,94.4113 C128.7684,95.0713 129.4294,95.7313 130.0894,96.3913 C130.3704,96.5893 130.7804,96.4963 130.9884,96.7513 C131.9664,97.9493 132.8404,100.1403 134.5894,99.9913 C136.0144,99.9133 135.9644,99.1873 136.7484,98.5513 C136.6994,97.1353 136.2974,96.5113 136.0284,95.1313 L136.3894,92.2513 C136.1574,89.2543 136.1614,84.8193 135.8494,82.1713 C135.7434,81.2793 134.3254,80.8283 133.8684,80.1913 L131.8894,80.1913 C131.6874,80.5073 131.4374,80.8393 131.1694,81.0913 C131.1424,82.2803 132.3434,84.4123 132.2484,86.3113 C132.1554,88.1853 132.0504,91.2603 131.8894,93.3313 C131.0744,93.0393 130.7134,92.3473 130.0894,91.8913 C127.1394,89.7373 125.4514,87.5803 123.2484,84.6913 C122.7824,84.0793 121.6454,83.9643 121.0894,83.4313 C119.9064,83.5253 118.8284,84.0833 118.5684,85.0513 C118.6884,85.7713 118.8094,86.4913 118.9294,87.2113 C119.1364,89.4943 118.8554,92.1123 119.2884,94.2313" id="Fill-9" fill="#231F20"></path>
      <path d="M77.5286,87.0311 C77.8506,91.1071 78.4686,94.3151 78.4286,98.7311 C78.8586,99.1521 79.0376,99.9901 79.5086,100.3511 C79.9426,100.6831 80.4216,100.6601 80.7686,101.0711 C81.5816,101.0811 82.1406,101.0551 82.5686,100.7111 C83.6196,99.8331 83.1216,98.0371 82.7486,96.5711 C81.9216,93.3101 82.2996,89.9611 81.4886,86.6711 C81.6336,86.4861 81.5546,86.6271 81.6696,86.3111 C83.4676,86.3251 85.9636,86.0781 87.0686,85.9511 C88.5076,85.7851 89.7546,86.4581 90.6696,85.7711 C91.0866,85.6371 91.0706,85.5841 91.3886,85.4111 C91.4296,84.9941 91.4246,84.9041 91.5686,84.6911 C91.4626,82.0381 88.7156,81.9571 86.3486,82.3511 C84.8706,82.5971 81.9466,82.8361 79.6886,82.7111 C79.2406,82.6861 78.5406,82.2861 78.2486,82.3511 C78.0086,82.4041 77.0926,83.1431 76.8086,83.2511 C75.2166,83.8551 73.6836,83.2581 71.9486,83.7911 C71.6086,83.8961 71.1856,84.2151 70.6886,84.3311 C70.5416,84.9051 70.2556,85.3211 70.5086,85.7711 C71.4386,88.3161 74.9596,87.2051 77.5286,87.0311" id="Fill-11" fill="#231F20"></path>
      <path d="M62.9485,90.451 L62.5895,90.451 C62.6485,90.091 62.7095,89.731 62.7685,89.371 L63.3085,89.371 C63.3685,89.551 63.4285,89.731 63.4885,89.911 L63.6695,90.091 C63.4425,90.191 63.1255,90.307 62.9485,90.451 M69.4285,92.971 C70.6475,92.967 71.1515,92.764 71.9485,92.431 C72.2285,91.773 72.4365,91.092 71.9485,90.451 C71.1935,88.791 68.9975,89.129 67.2685,89.371 C67.1545,88.711 64.9545,83.666 64.7485,83.431 C64.3495,82.533 62.1215,81.706 61.1485,82.531 C60.1195,83.073 60.7095,84.485 60.2485,85.591 C59.5235,87.336 57.8335,89.873 57.1885,91.711 C56.6385,93.279 56.7195,95.397 55.7485,96.571 C55.7305,98.24 56.0785,98.526 56.6485,99.451 C58.6905,99.939 58.7185,100.152 60.2485,99.091 C60.3425,97.887 61.1595,96.094 60.7885,95.131 C60.8465,94.716 60.8725,94.684 60.9695,94.411 C62.2725,94.425 63.9165,94.425 64.7485,93.871 C66.1215,94.008 68.0115,98.829 67.4485,100.351 C68.0955,100.998 69.8175,103.216 71.2285,102.331 C72.2265,102.232 72.1555,101.934 72.6695,101.431 C72.5375,98.449 69.7915,95.9 69.4285,92.971" id="Fill-13" fill="#231F20"></path>
      <path d="M34.1487,89.911 C34.5897,91.396 34.4107,93.185 34.6887,94.591 C34.9137,95.725 34.3657,98.206 34.5087,98.911 C34.6167,100.432 37.5607,102.919 39.7287,102.331 C43.0257,101.437 46.2907,99.494 49.2687,98.191 C50.5367,97.636 52.0157,97.726 53.0487,97.111 C53.0687,95.736 52.8527,95.185 52.5087,94.411 C51.5457,94.37 50.9637,93.765 50.1697,93.871 C49.3377,93.982 48.8987,94.65 48.3687,94.951 C47.1367,95.65 45.7377,95.598 44.4087,96.211 C42.7277,96.987 40.7347,98.266 38.6487,98.551 C38.5287,97.891 38.4087,97.231 38.2887,96.571 C40.9017,95.573 43.3787,94.086 46.0287,93.151 C48.0267,92.447 50.2937,92.283 51.9687,91.351 C51.9737,90.827 51.9777,90.37 51.7887,90.091 C51.4987,89.037 50.3937,89.207 49.8087,88.471 C45.7577,89.422 41.8797,91.432 37.9287,92.251 C37.7067,91.624 37.5957,90.685 37.3887,90.091 C38.5247,89.561 39.8387,89.494 41.1697,89.011 C42.7997,88.42 44.6827,87.596 46.3887,87.031 C47.8247,86.557 49.3727,87.009 50.5287,86.311 C51.3387,86.228 51.2977,86.078 51.7887,85.771 C51.8467,84.849 51.8457,84.713 51.7887,83.791 C50.9337,83.379 50.3287,83.367 49.6287,82.711 C46.9857,82.988 43.9437,84.302 41.5287,85.051 C40.2617,85.444 38.7237,85.417 37.7487,86.131 C36.4077,86.07 36.0517,85.036 35.5887,84.151 C34.6387,84.138 34.1397,84.225 33.6087,84.511 C33.6697,85.111 33.7287,85.711 33.7887,86.311 C33.6087,86.911 33.4287,87.511 33.2487,88.111 C33.3297,88.694 33.9927,89.385 34.1487,89.911" id="Fill-15" fill="#231F20"></path>
      <path d="M94.2688,98.911 C94.4748,100.41 95.3498,100.698 96.0688,101.611 C97.8548,101.707 98.2568,101.528 99.4888,100.891 C99.3418,98.825 98.7478,96.182 99.1288,94.411 C99.4488,92.927 99.5198,91.791 99.3088,90.631 C98.8278,87.988 100.0448,85.266 98.5888,83.791 C97.8678,83.19 96.6438,83.02 95.1688,83.071 C94.9498,83.439 95.0528,83.412 94.6288,83.611 C94.4998,84.953 94.8778,85.701 95.1688,86.851 C95.6228,88.649 95.1958,93.756 94.9888,94.771 C94.6868,96.251 95.0808,97.983 94.2688,98.911" id="Fill-17" fill="#231F20"></path>
      <path d="M0.8489,93.871 C0.9089,95.731 0.9689,97.591 1.0289,99.451 C0.8669,100.13 0.6909,100.888 0.6689,101.791 C0.9689,102.091 1.2689,102.391 1.5689,102.691 C2.5769,103.473 3.7789,103.088 4.9889,102.871 C5.1439,102.404 5.4109,101.954 5.7089,101.611 C5.5369,100.315 5.0419,98.498 4.8089,96.931 C4.4999,94.862 4.7959,90.658 4.4489,88.831 C4.2059,87.556 4.6939,85.52 4.0889,84.511 C3.6979,83.673 2.4209,83.584 1.3889,83.431 C1.1559,83.592 0.4039,83.704 0.1289,83.791 C-0.2711,85.721 0.3439,88.428 0.8489,90.631 L0.8489,93.871 Z" id="Fill-19" fill="#231F20"></path>
      <path d="M110.1087,94.951 C109.8087,95.251 109.5087,95.551 109.2097,95.851 C108.5437,96.195 108.3807,95.881 107.9487,96.391 C107.3697,96.234 107.6707,96.489 107.4087,96.031 C106.3747,93.843 109.0877,91.038 110.1087,90.091 C111.4327,90.229 112.1157,90.961 112.9887,91.531 C112.2217,93.484 111.7407,93.909 110.1087,94.951 M114.7887,88.471 C114.1117,88.113 111.9137,87.697 111.5487,87.211 C111.4887,86.791 111.4287,86.371 111.3687,85.951 C111.0937,85.519 109.4047,84.793 108.8487,84.691 C108.5167,84.962 108.1977,85.026 107.5887,85.051 C106.1507,87.832 101.0057,93.108 103.8087,97.651 C106.8747,102.62 113.5247,98.479 116.0487,95.671 C116.7227,94.921 116.7337,93.864 117.3087,92.971 C117.3047,91.178 115.8807,89.049 114.7887,88.471" id="Fill-21" fill="#231F20"></path>
      <path d="M23.889,93.1512 C21.494,94.9892 20.033,96.9202 15.969,96.7512 C15.856,94.2532 15.623,91.2772 15.788,89.3712 C17.823,88.3842 23.381,87.5302 25.328,89.5512 C26.369,91.0522 24.791,92.4582 23.889,93.1512 M29.288,89.5512 C28.956,86.1122 22.019,84.7472 17.769,84.8712 C17.146,85.2932 12.549,85.5912 12.549,85.5912 C11.979,85.6932 12.026,85.7492 11.649,85.9512 C11.47,86.8692 11.64,87.6082 11.828,88.2912 C12.235,89.7582 11.794,93.5212 12.009,94.7712 C12.234,96.0842 11.868,97.7682 12.189,98.3712 C12.156,100.8742 12.931,100.7982 13.809,102.1512 C15.906,102.0502 17.23,100.7072 18.669,99.9912 C19.269,99.8712 19.868,99.7512 20.469,99.6312 C23.259,98.3132 26.051,96.9172 27.849,94.5912 C28.516,93.7282 30.662,91.1542 29.288,89.5512" id="Fill-23" fill="#231F20"></path>
      <g id="Group-27" transform="translate(487.000000, 55.595000)">
        <mask id="mask-2" fill="white">
          <use xlink:href="#path-1"></use>
        </mask>
        <g id="Clip-26"></g>
        <path d="M2.6536,18.836 C2.8366,19.139 3.2226,19.185 3.5536,19.376 C5.2516,20.357 6.0796,19.514 7.1536,18.476 C6.9206,17.105 5.2396,11.66 5.7146,10.556 C5.7736,10.496 5.8346,10.436 5.8936,10.376 C6.5026,11.297 7.3586,11.869 8.2336,12.536 C9.7066,13.659 10.9796,15.443 12.1936,16.856 C12.3736,16.916 12.5536,16.976 12.7336,17.036 C12.8656,17.374 12.3206,17.916 12.5536,18.476 C13.0416,19.646 14.1656,20.392 15.0736,21.176 C15.7616,21.161 16.2986,21.109 16.6936,20.816 C18.0446,20.302 18.0466,17.812 17.5936,15.956 C16.8606,12.954 17.0116,8.661 16.3346,4.976 C16.1696,4.082 16.8356,2.982 16.3346,2.096 C15.8536,1.249 14.2376,0.838 12.9136,0.836 C12.7196,0.973 12.7476,0.949 12.3736,1.016 C12.0486,2.312 12.3786,10.207 13.2736,11.636 L13.2736,12.536 C10.2806,11.096 8.4436,6.687 5.5336,4.976 C4.7496,4.515 2.9526,3.243 1.9336,3.716 L1.0336,3.716 C0.3816,6.315 1.6736,11.929 2.2946,14.876 C2.6576,16.603 1.9846,17.724 2.6536,18.836" id="Fill-25" fill="#231F20" mask="url(#mask-2)"></path>
      </g>
      <path d="M458.3343,62.3715 C459.7373,62.2265 459.8853,61.4375 460.6743,60.7515 C460.6403,59.2765 458.9103,57.7585 457.4343,58.0515 C456.7223,58.1925 455.9063,58.7765 455.2733,58.9515 L453.4743,58.9515 C451.6353,59.3885 449.1643,59.6175 447.3543,60.0315 C446.2173,60.2905 445.0043,59.8435 444.2943,60.0315 C441.8293,60.6825 438.8333,61.7715 435.8343,62.0115 C435.7413,62.2655 435.6203,62.8775 435.4743,63.0915 C435.5213,64.4965 436.5313,65.3035 437.6343,65.6115 C438.1483,65.9155 442.3013,64.9145 442.8543,64.5315 C443.4093,64.5395 443.7763,64.5935 444.1133,64.7115 C444.6273,67.1295 446.1633,72.7455 445.3733,74.4315 C445.8593,75.9335 446.8963,76.3045 448.0733,77.1315 C449.4803,76.8845 449.4133,76.0645 450.2333,75.3315 C449.6163,71.1845 448.1983,67.1815 448.2543,63.4515 C450.1963,63.3575 452.4803,62.9545 454.1933,62.5515 C455.5313,62.2365 457.5533,62.7375 458.3343,62.3715" id="Fill-28" fill="#231F20"></path>
      <path d="M464.9934,77.4911 C466.0684,77.3891 466.2344,76.9761 466.9734,76.5911 C467.5934,73.8691 466.5204,69.4421 467.3344,65.7911 C467.6664,64.2981 466.7744,62.9831 467.3344,62.0111 C467.3474,60.1901 466.0704,59.4521 464.2734,59.4911 C463.8844,59.7461 462.8294,59.8571 462.4734,60.0311 C462.5554,63.7841 463.5584,66.9811 462.8344,70.2911 C462.5084,71.7771 463.1484,73.5331 462.4734,74.6111 C462.6514,76.3441 464.0014,76.5931 464.9934,77.4911" id="Fill-30" fill="#231F20"></path>
      <path d="M481.9134,67.5912 C481.5054,69.2322 478.3634,70.2132 476.8734,70.8312 C476.7544,70.7112 476.6344,70.5912 476.5144,70.4712 C476.5144,69.4492 476.6134,68.4022 477.0544,67.7712 C477.3634,67.0112 478.3134,66.6992 478.8534,66.1512 C480.1134,66.1442 481.1864,66.1942 482.0944,66.5112 C482.0894,67.0022 482.0864,67.3362 481.9134,67.5912 M480.6534,62.5512 C479.7954,60.4602 478.5054,60.4682 476.5144,60.0312 C475.1884,61.4412 471.1944,67.2612 472.3734,70.8312 C472.6114,71.5512 473.3304,73.2232 474.1744,73.8912 C474.5844,74.2162 474.9264,74.2102 475.2544,74.6112 C478.8454,74.8752 484.4144,72.1132 485.8734,69.7512 C488.3384,65.7642 483.7854,62.4662 480.6534,62.5512" id="Fill-32" fill="#231F20"></path>
      <path d="M388.3138,64.3514 C387.1548,65.1744 386.5338,66.6964 385.4338,67.5914 C384.7408,68.1554 383.7338,68.2504 383.0938,68.8514 C382.6378,68.8324 382.4268,68.8294 382.1938,68.6714 C381.6818,67.9254 381.9518,66.6994 381.6538,66.1514 C381.7258,65.7814 381.6988,65.8044 381.8348,65.6114 C382.7878,64.8124 386.6928,63.8764 388.3138,63.8114 L388.3138,64.3514 Z M388.1338,60.3914 C387.3658,60.8844 385.8918,60.5164 384.8938,60.7514 C383.5548,61.0664 382.1928,61.5384 380.9338,61.8314 C379.8068,62.0934 378.1668,61.5224 376.7938,61.6514 C376.5878,62.2144 375.8488,63.9204 375.8938,64.3514 C375.9988,65.3654 377.1628,65.8934 377.5138,66.6914 C378.4108,68.7264 378.7388,74.1544 378.5938,75.5114 C378.7428,76.4274 380.4818,78.0104 381.2938,77.4914 C382.9638,77.5014 382.7228,76.8724 383.4538,76.0514 C383.4128,75.1844 383.1638,74.0784 382.7338,73.5314 C382.8388,71.3834 385.6788,71.5464 387.0538,70.6514 C389.0118,69.3764 391.0248,67.4084 392.2738,65.4314 C392.7348,64.7014 392.8398,63.7874 393.3538,63.0914 C393.1868,60.4754 390.1058,60.6194 388.1338,60.3914 L388.1338,60.3914 Z" id="Fill-34" fill="#231F20"></path>
      <path d="M352.6741,65.2513 C352.7581,64.7463 352.2941,63.6363 352.4931,63.2713 C352.5081,61.6253 352.0431,61.7783 351.4131,60.9313 C350.5141,60.8713 349.6131,60.8113 348.7141,60.7513 C348.5101,60.9653 348.2561,61.1373 347.9931,61.2913 C347.7851,63.3093 348.5181,66.7733 349.2541,68.6713 L349.0731,68.6713 L349.0731,68.8513 C347.0281,68.0973 345.3211,65.4623 343.8541,63.9913 C343.4951,63.6323 342.9501,63.4513 342.5941,63.0913 C342.2971,62.7923 342.2391,62.2383 341.8731,62.0113 C340.9241,61.4223 339.0301,60.8923 338.0941,61.2913 C337.1941,61.3833 337.0521,61.6623 336.4741,62.0113 C336.9901,64.4923 337.1861,67.3193 337.1941,70.1113 C337.1961,71.1583 337.6121,72.5073 337.1941,73.1713 L337.1941,75.5113 C337.5231,75.9873 339.5231,76.7613 340.0731,76.4113 C341.1571,76.3323 341.0591,75.9583 341.6941,75.5113 C341.7191,73.5973 341.2991,72.3963 340.9741,70.4713 C340.7931,69.4043 341.6141,67.8913 340.9741,66.8713 L340.9741,66.6913 C342.1171,66.9973 342.1961,67.7233 342.9531,68.3113 C344.3691,69.4113 345.6681,70.4753 347.0941,71.5513 C347.6901,72.0013 347.9751,72.8823 348.5331,73.3513 C348.9901,73.7353 349.8441,73.9323 350.1531,74.4313 C350.4961,74.9843 350.1971,75.5123 350.1531,76.0513 C350.8711,76.4323 351.1711,77.0423 351.9531,77.3113 L351.9531,77.4913 C354.1641,77.5683 354.3161,76.8473 355.0141,75.5113 C355.0491,75.2413 354.6251,74.7103 354.4741,74.2513 L354.4741,72.4513 C353.8951,70.4773 352.3491,67.2053 352.6741,65.2513" id="Fill-36" fill="#231F20"></path>
      <path d="M363.1136,75.5111 C362.4566,74.3581 361.8316,74.5371 361.1346,73.7111 C360.2716,73.6941 359.6076,73.7071 359.1536,74.0711 C358.4936,74.5341 358.5156,75.1911 358.2546,76.0511 C358.4476,76.2421 358.4246,76.5711 358.6136,76.7711 C359.2146,77.4081 360.2086,77.7191 360.7736,78.3911 C365.4456,78.4491 368.1996,77.3041 371.0336,75.1511 C371.4756,74.8151 371.6356,74.2271 372.1136,73.8911 C372.1346,72.6671 371.9926,72.1121 371.3936,71.5511 C370.2766,70.6451 366.4026,69.5171 364.9136,68.8511 C364.9296,68.1591 364.9736,67.7831 365.2736,67.4111 C365.8026,65.8481 369.3256,64.7561 370.6746,64.3511 C370.7896,63.8451 370.9896,63.1921 370.6746,62.7311 C370.3966,62.0061 369.3946,61.5621 368.5136,61.4711 C367.5476,62.0541 366.2516,61.8581 365.2736,62.3711 C363.0896,63.5171 359.0316,66.9481 361.6746,70.4711 C362.8456,72.0341 365.1196,71.8221 366.7146,72.9911 L367.0736,72.9911 C366.7176,74.4401 364.4816,75.0271 363.1136,75.5111" id="Fill-38" fill="#231F20"></path>
      <path d="M429.5335,69.0311 C428.7085,69.0191 427.7575,69.0171 427.1935,69.2111 L427.1935,69.0311 C426.9345,68.5671 427.8145,67.3101 428.0945,66.6911 C428.9475,66.9941 429.1425,67.7441 429.7145,68.3111 C429.6555,68.7261 429.6305,68.7581 429.5335,69.0311 L429.5335,69.0311 Z M411.1745,66.8711 C409.8285,67.9891 408.7555,69.1471 407.0335,69.9311 L406.8535,69.7511 C406.8425,68.9261 406.8405,67.9741 407.0335,67.4111 C408.0005,67.1641 410.1505,66.9271 410.8135,66.5111 L411.1745,66.5111 L411.1745,66.8711 Z M440.3345,76.5911 C440.0675,75.4691 437.1805,72.6241 436.3735,71.3711 C437.1155,71.0871 437.9715,70.9131 438.3535,70.2911 C438.6795,69.7631 438.1755,69.9011 438.7145,69.5711 C438.6675,68.4951 438.3955,68.3931 437.9935,67.7711 C437.3745,67.5371 435.0345,66.6981 434.2145,67.7711 C431.8695,67.2211 431.6655,62.5551 428.9935,61.6511 C428.0635,61.0281 425.9915,61.7521 425.3935,62.1911 C424.4155,62.9121 424.4665,64.7851 423.9535,65.9711 C423.1035,67.9381 421.9205,70.1681 421.0735,72.0911 C420.7655,72.7911 420.7635,73.3471 420.3535,73.8911 C420.1835,74.2551 419.3925,73.1151 419.0945,72.9911 L417.4735,72.9911 C415.7945,72.5311 413.4215,72.4401 412.0735,71.5511 L411.8935,71.3711 C413.2175,70.6941 414.9055,69.1911 415.6745,67.9511 C416.0055,67.4161 416.0025,66.7741 416.3935,66.3311 C416.3355,62.3601 410.2265,62.9711 407.0335,63.4511 C405.9855,63.6091 404.1685,62.5181 403.2545,63.0911 C402.3035,63.3421 402.5715,63.9841 401.9935,64.5311 C402.1065,65.7151 402.6405,66.8241 402.8935,67.7711 C403.0995,68.5421 402.6825,69.4061 402.7145,69.9311 C402.7775,71.0131 403.0345,72.7981 403.2545,73.8911 C403.5245,75.2431 402.6935,76.0371 402.8935,76.7711 C403.1535,78.4381 404.3625,78.3261 405.2335,79.2911 C406.8445,79.2781 407.2225,78.3541 407.7545,77.3111 C408.0055,76.9541 407.2295,74.7661 407.2145,73.7111 C408.7605,73.8671 410.1615,74.4971 411.3535,74.9711 C412.9095,75.5891 414.6015,75.1641 416.0335,75.8711 C416.5215,76.1121 417.0545,76.7961 417.6535,76.9511 C418.5315,77.1781 419.0645,76.5941 419.6345,76.4111 C420.1465,77.8621 420.6525,78.8381 422.5135,78.9311 C424.1905,77.2711 425.6655,76.3711 425.2145,72.9911 C426.8715,72.8551 430.2175,73.0741 431.6935,72.0911 C433.4785,72.2821 435.6895,77.0681 436.5545,78.5711 C437.0255,78.7761 437.5185,79.0521 437.9935,78.7511 C439.3085,78.7691 439.6825,78.4451 440.1535,77.6711 C440.3185,77.4301 440.3745,76.7761 440.3345,76.5911 L440.3345,76.5911 Z" id="Fill-40" fill="#231F20"></path>
      <path d="M394.6136,78.2113 C394.9956,78.5733 395.1736,79.0633 395.5136,79.4713 C396.1916,80.0283 397.1236,80.1263 397.8536,80.1913 C398.3346,79.7113 398.8136,79.2313 399.2946,78.7513 C399.3156,73.6143 400.3076,65.3703 398.5736,62.7313 C397.6866,62.5293 396.9126,62.3493 395.6936,62.3713 C395.4396,62.7263 395.4576,62.7513 394.9736,62.9113 C394.6926,64.2313 394.9636,65.4533 395.3346,67.0513 L395.3346,69.7513 C395.3346,73.2183 395.1576,75.3353 394.6136,78.2113" id="Fill-42" fill="#231F20"></path>
      <path d="M327.2942,62.5511 C327.0222,62.8711 326.7222,63.3611 326.3942,63.6311 C327.3392,65.8911 327.0342,68.5921 327.6532,71.3711 C327.9062,72.5061 327.3932,74.3891 327.6532,74.9711 C327.6682,76.2381 327.9732,76.3661 328.3732,77.1311 C329.0352,77.3081 329.8282,77.7841 330.3542,77.4911 C331.7232,77.4241 331.8422,76.7581 332.5142,76.0511 C332.3562,74.9341 331.8392,74.2741 331.6132,73.1711 C331.3312,71.7861 331.6262,69.2691 331.2542,67.5911 C330.9062,66.0251 331.5172,64.3401 330.8942,63.4511 C330.3822,62.4891 328.8302,62.4791 327.2942,62.5511" id="Fill-44" fill="#231F20"></path>
      <path d="M346.7337,72.2714 L346.3737,72.2714 C346.5587,72.4164 346.4187,72.3374 346.7337,72.4514 L346.7337,72.2714 Z" id="Fill-46" fill="#231F20"></path>
      <path d="M262.5247,316.7245 C262.7047,316.8755 262.5667,316.7925 262.8787,316.9155 L262.8837,316.7355 L262.5247,316.7245 Z" id="Fill-48" fill="#231F20"></path>
      <path d="M420.7542,335.8373 L420.7192,336.9173 C419.3352,335.9603 418.1432,334.6173 416.6802,333.7263 C415.7422,333.1543 414.1142,332.8103 413.4932,332.0033 L413.5162,331.2833 C413.1762,330.8853 412.1212,330.8623 411.7392,330.5063 C410.8342,330.4693 410.4422,330.5523 409.9292,330.8083 C409.6562,333.5623 410.0612,336.3793 410.5642,339.1123 C410.8152,340.4763 410.0232,342.0553 410.0832,342.8793 C410.1632,343.9753 410.8702,344.7833 411.2562,345.6183 C411.7902,345.8153 412.3242,346.0123 412.8582,346.2103 C413.3902,345.7603 414.2122,345.6973 414.5182,345.0023 C415.1672,343.5233 414.3322,337.9643 414.2482,336.5293 C415.9772,336.8673 418.1082,338.9233 418.8112,340.2773 C419.1142,340.8633 419.0592,341.6203 419.4732,342.0993 C419.9932,342.7023 421.0822,342.8133 421.5912,343.4283 C421.7002,343.6253 421.3582,344.4033 421.5392,345.0473 C421.7942,345.9503 422.6492,346.4913 423.0892,347.2573 C423.5912,347.3893 424.2382,347.6113 424.7092,347.3103 C425.4412,347.2703 425.6082,347.1803 425.9852,346.8103 C426.6422,345.9123 426.1052,343.5093 425.7702,342.3013 C424.8822,339.1003 424.5702,335.2643 423.7532,332.1513 C423.4632,331.0453 423.6712,329.7893 423.1372,328.8903 C422.8562,328.1683 421.1182,326.5733 420.1312,327.1723 C419.1172,327.2603 418.5492,327.8033 418.8082,329.1113 C418.9622,329.8923 420.3922,335.3483 420.7542,335.8373" id="Fill-50" fill="#231F20"></path>
      <path d="M376.304,329.1913 C374.351,329.1993 372.114,329.4493 370.703,329.7333 C367.394,330.3973 364.172,329.8173 361.483,330.8783 C361.357,331.1853 361.442,331.0533 361.291,331.2323 C361.206,332.9303 362.075,333.8273 363.358,334.1793 C363.762,334.3853 366.385,333.9673 366.979,333.5753 L368.239,333.6153 C368.415,334.5873 368.606,335.4283 368.866,336.5173 C369.119,337.5823 369.598,339.6643 369.97,341.4153 C370.401,343.4493 369.606,344.9603 370.533,346.2953 C371.049,347.0383 372.494,347.3363 373.401,346.7473 L373.76,346.7593 C374.886,342.0973 372.493,338.0203 372.574,333.2143 C375.363,333.1263 379.217,332.5823 382.486,332.9913 C382.736,332.6833 383.053,332.4883 383.408,332.3003 C383.526,331.8123 383.62,331.3753 383.64,330.6873 C383.284,330.3193 383.119,329.7813 382.781,329.3993 C381.016,328.1083 378.914,329.1803 376.304,329.1913" id="Fill-52" fill="#231F20"></path>
      <path d="M392.3518,334.2074 C392.1198,332.7244 392.8678,331.9494 392.2698,331.1434 C391.8508,330.1074 390.5788,329.6184 389.0778,329.6004 C388.8418,329.7914 388.4268,329.9784 388.1608,330.1114 C387.7588,331.9354 388.4068,333.6574 388.3308,336.0604 L388.1458,341.8164 C387.7448,343.4134 387.4998,344.4084 387.4738,345.9374 C388.0658,346.5984 388.3478,347.3784 389.2148,347.7944 C389.5228,348.0104 389.7918,348.0254 390.1148,347.8234 C393.1548,347.8764 391.5638,345.0074 392.0808,342.6634 C392.4668,340.9114 392.6718,336.2494 392.3518,334.2074" id="Fill-54" fill="#231F20"></path>
      <path d="M399.3118,341.8143 L398.9518,341.8023 C398.5118,339.1503 400.0408,337.5423 401.4688,336.3003 C402.2338,336.3643 403.0178,336.5033 403.4308,336.9033 L403.7908,336.9153 C403.2938,339.5503 400.7328,340.1833 399.3118,341.8143 M403.0238,332.7483 C401.5228,332.2273 399.2778,332.6743 398.3518,332.4183 C395.6878,334.9653 393.3958,340.0423 395.9928,344.2293 C396.4928,345.0343 396.5548,345.5573 397.5598,345.9003 C398.8988,346.8163 400.4838,345.6493 401.1808,345.2953 C403.0358,344.3553 405.5938,342.7703 406.7168,341.1503 C407.2548,340.3743 407.3248,339.4103 407.8768,338.6663 C408.0428,335.1843 405.5578,333.6283 403.0238,332.7483" id="Fill-56" fill="#231F20"></path>
      <path d="M258.72,328.6688 L258.709,329.0288 C259.032,328.8708 258.911,328.9738 258.72,328.6688" id="Fill-58" fill="#231F20"></path>
      <path d="M341.8382,331.3295 C340.0552,332.5585 333.3682,332.5185 331.3802,331.7155 C330.8572,332.1835 330.5162,332.1165 330.2602,332.9395 C329.0102,332.8245 327.1032,331.7355 325.9542,332.4415 C325.3372,332.6825 325.5582,332.8675 325.2052,333.3185 C325.2982,335.8055 328.0592,336.7385 330.8592,336.7415 C331.3932,338.4075 331.1902,344.7005 330.5702,345.7365 C330.5892,347.3005 331.6782,347.4595 332.2832,348.4925 C333.3342,348.5465 333.9412,348.4995 334.4602,348.0225 C335.0462,347.7975 334.9612,347.4925 335.3882,347.1515 C335.4272,345.7275 335.2382,337.9365 335.1482,337.7785 C335.1512,337.1855 335.1472,336.4895 335.3792,336.1655 C337.5262,334.8415 343.0902,336.1715 344.7802,335.0255 C345.2462,334.6745 345.3342,334.0355 345.7272,333.6155 C345.5142,331.9065 343.8742,331.3225 341.8382,331.3295" id="Fill-60" fill="#231F20"></path>
      <path d="M316.0432,338.2479 C314.7392,337.2129 312.1512,335.4689 311.3132,334.1339 C310.5762,332.9639 311.0222,331.7669 309.6062,331.1979 C308.4672,330.3579 307.2942,331.0429 306.3502,331.6339 C306.4402,334.6879 306.7042,337.1589 306.9842,339.9389 C307.0632,340.7169 306.8632,342.3779 307.0552,343.3629 C307.3852,345.0679 306.3952,347.5419 307.4162,348.9569 C307.9992,349.7659 309.2532,350.0589 310.4342,350.3139 C310.8652,349.9679 311.2972,349.6219 311.7282,349.2749 C311.8992,347.3529 311.4812,343.9249 311.0702,341.6899 C310.9152,340.8459 311.3142,339.7669 310.9712,339.1659 L310.9772,338.9859 C312.2012,339.3489 313.1532,340.6099 313.9602,341.4229 C315.2202,342.6909 316.9442,343.5039 318.1752,344.7989 C318.7312,345.3859 318.6972,346.3219 319.1852,346.9929 C319.9252,348.0119 321.0302,348.5899 321.9882,349.4239 C323.7492,349.4769 323.6562,348.8019 324.5532,348.0649 C324.3852,346.6029 323.8002,345.0059 323.4322,343.7069 C322.9572,342.0289 323.0182,340.1579 322.6932,338.6409 C322.0492,335.6179 322.8602,334.3549 321.4682,331.9379 C320.8032,331.8209 319.2292,331.4839 318.5832,332.0259 L318.2242,332.0149 C317.8552,334.7749 318.6182,337.9129 318.8472,340.6789 C317.5532,340.3129 316.9672,338.9809 316.0432,338.2479" id="Fill-62" fill="#231F20"></path>
      <path d="M353.261,340.1595 C352.684,340.5365 351.359,340.5905 350.719,340.7985 C350.665,340.6175 350.611,340.4345 350.557,340.2535 C351.139,339.6915 351.544,338.5365 351.897,337.7745 C352.794,338.1745 352.74,339.2325 353.452,339.8055 C353.326,340.1125 353.412,339.9805 353.261,340.1595 M364.723,342.1475 C364.892,341.8255 365.047,341.5035 365.291,341.2645 C365.292,340.2735 365.092,339.6415 364.641,339.0835 C364.387,338.7555 364.022,338.6605 363.765,338.3345 C362.774,338.3995 359.359,338.6355 358.333,339.2415 C356.346,339.1105 355.708,335.3805 354.902,333.9095 C354.469,333.1185 353.335,332.9005 352.795,332.2205 C351.851,332.1965 350.985,332.2775 350.439,332.6855 C349.034,333.0865 348.799,334.7725 348.17,336.0345 C347.127,338.1305 345.783,340.6485 344.887,342.9525 C344.488,343.9825 343.751,346.5055 344.215,347.0735 C344.25,348.5145 345,348.4355 345.585,349.2785 C346.625,349.3245 347.3,349.2565 347.936,348.9935 C348.488,347.7935 348.946,346.6365 348.968,344.8845 C351.14,344.6845 353.089,344.3825 354.945,343.8155 C355.902,345.4935 357.809,347.7155 357.808,350.0305 C358.658,350.1875 359.078,350.4935 359.392,351.1615 C361.795,351.3165 361.528,350.6985 362.508,349.4605 C362.36,347.8455 361.13,347.2445 360.453,346.1525 C359.832,345.1525 359.625,343.9655 358.932,343.0425 L358.938,342.8625 C360.962,342.5075 362.837,342.3045 364.723,342.1475" id="Fill-64" fill="#231F20"></path>
      <path d="M297.9241,336.0467 C298.5601,335.8457 298.6111,335.5607 299.0321,335.1817 C298.9731,334.8097 298.9991,334.8337 298.8701,334.6367 C298.8131,333.8237 298.6621,333.8597 298.3701,333.3597 C297.5091,333.1277 297.0741,332.8097 296.0491,332.7447 C295.2601,333.2767 294.2671,332.9217 293.1531,333.1927 C291.2321,333.6607 288.7951,334.3057 286.9791,334.7957 C286.4791,334.9307 285.7581,334.6167 285.5451,334.5697 C284.4371,334.3247 283.8241,334.7807 283.1891,335.0347 C283.1831,336.3467 284.0561,339.8597 284.4551,340.4787 C284.4041,341.7307 283.9451,341.7007 283.1451,342.0567 C283.3751,343.3417 283.7681,344.1327 284.8621,344.6327 C285.0371,345.5747 285.2511,346.9767 284.9501,347.5177 C285.1291,348.5487 285.7791,348.7237 286.3321,349.3627 C289.4871,353.0087 295.4531,349.4897 299.1571,348.1527 C300.7341,347.5837 303.1991,347.9147 304.2301,347.2347 C304.7571,347.0197 305.1531,346.5787 305.3491,346.0097 C305.5921,345.5487 305.2631,344.7557 304.8611,344.3727 C304.5191,344.0747 302.9331,343.3067 302.3711,343.3927 C300.0001,343.7547 296.2871,345.4737 293.6321,346.3547 C292.5861,346.7017 291.5301,346.5917 290.7251,347.1617 C290.2351,347.1427 289.9011,347.1287 289.6521,346.9477 C289.4231,346.6127 289.3801,345.9947 289.1521,345.6717 C289.3151,343.7987 290.8421,344.2557 292.1001,343.6047 C294.0151,342.6117 296.5721,341.5677 298.6681,340.9327 C299.5911,340.6537 300.9221,340.9297 301.7441,340.4917 C302.7471,340.4147 302.7621,340.0437 303.3921,339.6437 C303.4591,337.9987 302.9891,338.1367 302.3871,337.2707 C301.5731,337.2277 301.1321,336.8187 300.6001,336.8527 C297.3981,337.0547 293.8721,338.6727 291.3201,339.7977 C290.5731,340.1277 289.9091,340.0267 289.3191,340.4537 C288.8531,340.4027 288.7101,340.3547 288.4251,340.2447 C288.4021,339.6297 288.3011,339.4597 288.4601,339.1657 C288.8341,336.7467 296.0151,337.2937 297.9241,336.0467" id="Fill-66" fill="#231F20"></path>
      <path d="M260.7405,333.0555 C260.7485,334.4485 261.0525,334.5755 261.3805,335.5975 C261.8805,337.1575 261.2125,338.7095 261.5845,340.4665 C261.8905,341.9115 262.1105,344.7045 261.9515,345.8805 C261.8325,346.7585 262.3985,348.1355 261.8535,348.9395 C262.0245,350.3675 263.9345,352.5565 265.9105,351.5905 C266.1535,351.4715 266.4175,350.7375 266.6645,350.5345 C266.7685,348.5115 266.3265,346.9685 265.9435,344.9285 C265.7035,343.6495 266.2605,342.1085 265.7045,341.1385 L265.7275,340.4185 C266.5215,340.7425 266.4565,341.1675 266.9465,341.7185 C268.6435,343.6245 269.8495,345.3415 272.5775,345.8605 C272.9485,345.5125 273.3205,345.1645 273.6915,344.8155 C274.3365,343.8595 274.5695,341.3225 275.8255,340.0215 L275.8315,339.8415 C276.3405,340.5975 275.8595,341.6095 276.0985,342.7315 C276.6615,345.3645 276.6385,348.5225 276.7455,350.6765 C277.8915,350.9895 279.4695,352.8905 281.0345,351.7145 C281.8955,351.2965 282.0305,349.6795 281.6665,348.8535 C279.7215,344.4395 280.7965,337.8865 278.5525,333.6255 C276.3725,333.0535 276.6925,333.2085 274.5945,333.4985 C273.9175,335.0605 271.9615,339.0795 270.7825,340.0405 C270.7205,340.0985 270.6585,340.1565 270.5965,340.2145 C269.9125,338.9925 268.7375,338.1915 267.9965,337.0695 C267.2155,335.8875 266.7305,334.8775 265.9405,333.7625 C265.5985,333.2805 264.8955,333.1195 264.5365,332.6365 C263.2985,332.5385 262.1595,332.2455 261.2865,332.8925 C261.1045,332.9475 260.9235,333.0015 260.7405,333.0555" id="Fill-68" fill="#231F20"></path>
      <path d="M255.4173,347.4725 C255.4343,346.0665 254.9663,346.2035 254.4003,345.4585 C253.4433,345.3685 252.4853,345.2775 251.5273,345.1865 C251.2263,345.3175 250.7393,346.0705 250.4143,346.2315 C249.2793,346.7935 247.1943,347.2885 246.0443,347.7125 C244.8443,348.1555 243.4783,347.9505 242.5923,348.6825 C242.1793,348.6115 242.1473,348.5845 241.8783,348.4795 C241.8733,348.0235 241.8773,347.8125 241.7273,347.5745 L241.8133,344.8755 C242.0603,344.5515 244.6473,344.0945 245.2663,343.9065 C248.3163,342.9755 251.6913,341.3705 255.4333,341.3495 C255.7003,340.8605 255.9063,340.5795 256.3673,340.2995 C256.2753,339.3655 255.9963,339.0345 255.7163,338.1175 C254.7613,337.9665 253.8053,337.8155 252.8503,337.6655 C249.4873,338.3545 245.0563,340.8015 241.5803,340.9065 C241.4843,340.1225 241.3903,339.3395 241.2953,338.5555 C243.1703,337.6175 246.4323,337.2585 248.9203,336.6395 C249.9653,336.3785 251.3073,336.6805 252.1763,336.2025 C252.9883,336.1455 252.9523,335.9945 253.4523,335.7035 C253.6363,330.8465 244.3213,334.1845 241.7813,334.6095 C240.6533,334.7985 239.2493,332.4715 237.4863,333.7515 C236.3843,334.1955 237.2563,335.1035 235.6123,336.0335 C235.5753,336.5875 235.4833,336.7565 235.5843,336.9325 C235.7983,338.1395 236.8193,338.2815 237.3133,339.1485 C237.5463,339.5555 237.3943,340.3985 237.6223,340.7795 C237.4333,341.5745 236.9243,341.7065 236.3223,341.9985 C236.5843,343.1365 237.3903,343.7265 237.6813,344.5635 C238.1133,345.8085 237.2663,348.5965 236.8173,349.0375 C236.8463,351.5845 239.7843,353.0635 242.4713,352.4605 C246.8393,351.4805 251.3693,349.8595 255.3883,348.3715 C255.4603,347.7995 255.5663,347.8015 255.4173,347.4725" id="Fill-70" fill="#231F20"></path>
      <path d="M212.387,335.8295 C211.847,337.3795 209.007,339.2375 207.229,339.4465 C207.222,338.3565 207.134,337.9045 206.77,336.9105 C207.82,336.4245 210.116,336.1125 210.774,335.5985 L212.574,335.6555 C212.511,335.7135 212.449,335.7715 212.387,335.8295 M202.179,334.0615 C201.947,334.4825 201.821,334.6885 201.43,334.9385 C201.615,336.9275 202.516,336.4955 202.963,337.6885 C203.183,338.2765 202.988,338.8665 203.271,339.3195 C203.188,339.6865 203.215,339.6645 203.074,339.8535 C202.704,340.1475 202.215,340.3005 201.617,340.3475 C201.606,340.8385 201.598,341.1715 201.763,341.4325 C201.732,343.0515 202.734,343.5105 203.841,344.0205 C204.247,346.8475 203.482,350.0185 205.961,350.9325 L205.955,351.1115 C207.094,351.1825 207.769,351.1775 208.311,350.6465 C209.503,349.2465 208.38,347.6835 208.09,346.3175 C207.891,345.3825 208.222,344.6095 207.805,343.9675 C207.975,342.2195 209.809,342.4195 211.112,341.9125 C212.864,341.2305 214.138,339.5405 215.719,338.6375 L215.737,338.0985 C216.684,337.8755 216.672,336.9445 217.234,336.3455 C217.51,328.8705 205.792,333.7595 202.179,334.0615" id="Fill-72" fill="#231F20"></path>
      <path d="M233.0726,342.2547 C230.1886,342.5317 228.1726,343.9407 225.9586,345.0887 C225.1726,345.4967 224.9256,346.1467 223.7596,346.2787 C223.8406,343.2507 224.1816,339.3427 224.5816,337.4807 C224.7766,336.5667 224.5836,335.9047 225.0096,335.3337 C225.0496,333.6907 224.3166,333.8207 223.6456,332.9487 C222.2706,332.9147 221.6866,333.1827 220.5756,333.2107 C219.5706,335.4107 221.1906,335.4607 220.4146,338.2477 C219.8206,340.3777 218.9336,347.4637 219.7086,349.0307 C220.1796,349.9827 221.2486,350.5367 221.9786,351.2647 C225.7316,351.3687 228.3186,347.9807 231.1296,346.6947 C232.6386,346.0047 234.1816,346.2667 234.6226,344.4657 C235.1366,343.4657 233.5866,342.8727 233.0726,342.2547" id="Fill-74" fill="#231F20"></path>
      <path d="M197.1214,345.7865 C197.0264,345.1185 196.4734,343.3655 196.4994,342.7045 C196.5094,342.4685 196.7294,341.4145 196.5624,340.7255 C196.2924,339.6105 195.1164,334.2475 194.8034,333.8265 C194.5474,333.4825 194.3204,333.7765 194.1004,333.2635 C193.2744,333.2725 191.9504,333.1615 191.2044,333.7105 C189.9164,334.1755 187.1284,338.3585 186.8594,340.0555 C184.9944,339.4025 182.2594,336.0185 180.5444,334.8105 C179.6684,334.1935 177.5474,334.2905 176.7604,334.8695 C175.6154,335.4835 177.0354,337.0345 176.9994,338.6585 C176.9184,342.2815 177.5884,346.0855 177.3784,349.2965 C178.0174,349.9525 178.7694,350.9625 179.2824,351.6985 C180.6734,351.7775 181.0284,351.5465 181.6504,350.8735 C182.4334,349.9035 181.5014,347.9215 181.2434,346.7185 C180.7684,344.5095 180.9154,341.8615 181.1014,339.8705 C183.5484,341.4415 184.7594,343.9795 186.8544,345.8175 C187.4314,346.3045 188.5774,346.1905 189.1824,346.2525 C189.4334,345.7655 189.9734,345.0865 190.1334,344.6615 C190.2254,343.6445 190.3184,342.6265 190.4114,341.6095 C190.7274,340.9265 191.3304,340.1555 191.5654,339.3055 L192.1054,339.3225 C192.2654,342.2645 193.4834,346.5955 192.6874,349.2455 C192.7244,349.3335 193.8524,351.4235 193.8784,351.4455 C194.5394,352.0065 194.6304,351.2085 194.9344,352.1995 C196.1444,352.2385 196.7044,352.0655 197.4714,351.7405 C198.3594,349.6705 197.2324,348.6545 196.9124,346.6805 C196.9814,346.3825 197.0514,346.0845 197.1214,345.7865" id="Fill-76" fill="#231F20"></path>
      <path d="M170.5638,342.7748 C170.8208,341.6768 170.3188,339.9688 170.8588,339.1828 C170.9298,337.4168 171.3008,334.8738 170.8638,333.4198 C169.9888,333.2078 169.0268,333.0068 167.9968,332.9678 C167.7608,333.1588 167.3458,333.3458 167.0798,333.4788 C167.7438,336.6728 166.1598,341.2118 166.7278,344.4528 C166.9818,345.8998 165.9748,347.5118 166.5958,348.5908 C166.7818,349.7648 167.6448,349.9518 168.3318,350.6278 C169.9968,350.6798 170.0798,350.0308 170.8958,349.2688 C170.7538,346.8158 169.9938,345.2158 170.5638,342.7748" id="Fill-78" fill="#231F20"></path>
    </g>
  </g>
</svg>
