<svg version="1.1" viewBox="0.0 0.0 960.0 540.0" fill="none" stroke="none" stroke-linecap="square" stroke-miterlimit="10" xmlns:xlink="http://www.w3.org/1999/xlink" xmlns="http://www.w3.org/2000/svg"><clipPath id="g100fdbd134d_0_0.0"><path d="m0 0l960.0 0l0 540.0l-960.0 0l0 -540.0z" clip-rule="nonzero"/></clipPath><g clip-path="url(#g100fdbd134d_0_0.0)"><path fill="#ffffff" d="m0 0l960.0 0l0 540.0l-960.0 0z" fill-rule="evenodd"/><path fill="#eeeeee" d="m591.56104 265.10434l0 0c-3.194275 -26.711792 7.293091 -53.154846 27.011963 -68.1084c19.718872 -14.953552 45.210876 -15.79509 65.658936 -2.1674805l0 0c7.243286 -15.531357 20.500732 -26.25467 35.762085 -28.926376c15.261353 -2.6717072 30.73413 3.0220184 41.73822 15.358917l0 0c6.170349 -14.081711 18.28601 -23.542831 32.04767 -25.026047c13.761597 -1.4832153 27.22168 5.2213745 35.60376 17.734634l0 0c11.147705 -14.926575 28.883972 -21.211288 45.53418 -16.134705c16.650269 5.076599 29.223938 20.602676 32.280396 39.860046l0 0c13.657776 4.239212 25.034485 15.015854 31.190613 29.545578c6.156189 14.529724 6.487915 31.387207 0.9095459 46.21701l0 0c13.448975 19.91806 16.59497 46.45862 8.264099 69.717224c-8.330933 23.258606 -26.887146 39.740906 -48.743896 43.29602c-0.15405273 21.82904 -10.674683 41.85907 -27.506897 52.36972c-16.832153 10.51062 -37.347412 9.860535 -53.638306 -1.6996765l0 0c-6.939087 26.144012 -26.470215 45.380554 -50.155212 49.398712c-23.684998 4.0181274 -47.277893 -7.902466 -60.585693 -30.611664l0 0c-16.312561 11.193451 -35.88629 14.417908 -54.305786 8.946045c-18.419434 -5.471863 -34.132996 -19.179138 -43.59613 -38.029724l0 0c-16.669373 2.219696 -32.786377 -7.60791 -40.352173 -24.605438c-7.565796 -16.997559 -4.9698486 -37.54663 6.4995728 -51.448822l0 0c-14.869568 -9.958862 -22.45691 -29.72055 -18.805542 -48.980133c3.6513672 -19.259583 17.71405 -33.65274 34.85486 -35.67404z" fill-rule="evenodd"/><path fill="#000000" fill-opacity="0.0" d="m575.1822 350.78802l0 0c7.016968 4.6996155 15.12323 6.831482 23.230347 6.1093445m10.618591 69.946594c3.4863892 -0.4642334 6.9036865 -1.4473267 10.163818 -2.9239197m87.733215 32.00641c-2.4520874 -4.184387 -4.505066 -8.655762 -6.1240234 -13.337921m116.86914 -5.449951l0 0c1.2651367 -4.766449 2.0847778 -9.67215 2.4453735 -14.635284m78.69684 -36.032898c0.16400146 -23.240387 -11.436096 -44.5195 -29.817749 -54.697357m70.29712 -58.313446c-2.9768677 7.913788 -7.5213623 14.9339905 -13.277161 20.510223m-18.82019 -96.27489l0 0c0.50720215 3.1957703 0.74194336 6.43956 0.70092773 9.686432m-78.51416 -33.410797l0 0c-2.7808228 3.7234344 -5.0718384 7.8843384 -6.801697 12.353134m-60.850403 -5.0633545l0 0c-1.4819336 3.3819733 -2.588562 6.960678 -3.2943726 10.653687m-74.20709 2.9140472l0 0c4.3268433 2.8835907 8.329712 6.354294 11.920715 10.335892m-104.59039 59.94037l0 0c0.44024658 3.6815796 1.1358643 7.317749 2.0803223 10.874542" fill-rule="evenodd"/><path stroke="#595959" stroke-width="1.0" stroke-linejoin="round" stroke-linecap="butt" d="m591.56104 265.10434l0 0c-3.194275 -26.711792 7.293091 -53.154846 27.011963 -68.1084c19.718872 -14.953552 45.210876 -15.79509 65.658936 -2.1674805l0 0c7.243286 -15.531357 20.500732 -26.25467 35.762085 -28.926376c15.261353 -2.6717072 30.73413 3.0220184 41.73822 15.358917l0 0c6.170349 -14.081711 18.28601 -23.542831 32.04767 -25.026047c13.761597 -1.4832153 27.22168 5.2213745 35.60376 17.734634l0 0c11.147705 -14.926575 28.883972 -21.211288 45.53418 -16.134705c16.650269 5.076599 29.223938 20.602676 32.280396 39.860046l0 0c13.657776 4.239212 25.034485 15.015854 31.190613 29.545578c6.156189 14.529724 6.487915 31.387207 0.9095459 46.21701l0 0c13.448975 19.91806 16.59497 46.45862 8.264099 69.717224c-8.330933 23.258606 -26.887146 39.740906 -48.743896 43.29602c-0.15405273 21.82904 -10.674683 41.85907 -27.506897 52.36972c-16.832153 10.51062 -37.347412 9.860535 -53.638306 -1.6996765l0 0c-6.939087 26.144012 -26.470215 45.380554 -50.155212 49.398712c-23.684998 4.0181274 -47.277893 -7.902466 -60.585693 -30.611664l0 0c-16.312561 11.193451 -35.88629 14.417908 -54.305786 8.946045c-18.419434 -5.471863 -34.132996 -19.179138 -43.59613 -38.029724l0 0c-16.669373 2.219696 -32.786377 -7.60791 -40.352173 -24.605438c-7.565796 -16.997559 -4.9698486 -37.54663 6.4995728 -51.448822l0 0c-14.869568 -9.958862 -22.45691 -29.72055 -18.805542 -48.980133c3.6513672 -19.259583 17.71405 -33.65274 34.85486 -35.67404z" fill-rule="evenodd"/><path stroke="#595959" stroke-width="1.0" stroke-linejoin="round" stroke-linecap="butt" d="m575.1822 350.78802l0 0c7.016968 4.6996155 15.12323 6.831482 23.230347 6.1093445m10.618591 69.946594c3.4863892 -0.4642334 6.9036865 -1.4473267 10.163818 -2.9239197m87.733215 32.00641c-2.4520874 -4.184387 -4.505066 -8.655762 -6.1240234 -13.337921m116.86914 -5.449951l0 0c1.2651367 -4.766449 2.0847778 -9.67215 2.4453735 -14.635284m78.69684 -36.032898c0.16400146 -23.240387 -11.436096 -44.5195 -29.817749 -54.697357m70.29712 -58.313446c-2.9768677 7.913788 -7.5213623 14.9339905 -13.277161 20.510223m-18.82019 -96.27489l0 0c0.50720215 3.1957703 0.74194336 6.43956 0.70092773 9.686432m-78.51416 -33.410797l0 0c-2.7808228 3.7234344 -5.0718384 7.8843384 -6.801697 12.353134m-60.850403 -5.0633545l0 0c-1.4819336 3.3819733 -2.588562 6.960678 -3.2943726 10.653687m-74.20709 2.9140472l0 0c4.3268433 2.8835907 8.329712 6.354294 11.920715 10.335892m-104.59039 59.94037l0 0c0.44024658 3.6815796 1.1358643 7.317749 2.0803223 10.874542" fill-rule="evenodd"/><path fill="#000000" d="m667.49866 243.99265l4.796875 0l0 15.109375q0 2.953125 -0.515625 4.546875q-0.703125 2.09375 -2.546875 3.359375q-1.828125 1.25 -4.84375 1.25q-3.53125 0 -5.4375 -1.96875q-1.90625 -1.984375 -1.921875 -5.8125l4.546875 -0.515625q0.078125 2.046875 0.609375 2.890625q0.78125 1.296875 2.375 1.296875q1.609375 0 2.265625 -0.921875q0.671875 -0.921875 0.671875 -3.828125l0 -15.40625zm8.832397 14.96875q0 -2.265625 1.125 -4.390625q1.125 -2.140625 3.1875 -3.265625q2.0625 -1.125 4.59375 -1.125q3.921875 0 6.421875 2.546875q2.515625 2.546875 2.515625 6.4375q0 3.921875 -2.53125 6.5q-2.53125 2.578125 -6.375 2.578125q-2.375 0 -4.53125 -1.0625q-2.15625 -1.078125 -3.28125 -3.15625q-1.125 -2.078125 -1.125 -5.0625zm4.6875 0.25q0 2.578125 1.21875 3.9375q1.234375 1.359375 3.015625 1.359375q1.796875 0 3.0 -1.359375q1.21875 -1.359375 1.21875 -3.96875q0 -2.546875 -1.21875 -3.90625q-1.203125 -1.375 -3.0 -1.375q-1.78125 0 -3.015625 1.375q-1.21875 1.359375 -1.21875 3.9375zm16.545654 8.640625l0 -23.859375l4.5625 0l0 8.59375q2.125 -2.40625 5.015625 -2.40625q3.15625 0 5.21875 2.296875q2.078125 2.28125 2.078125 6.5625q0 4.421875 -2.109375 6.8125q-2.109375 2.390625 -5.125 2.390625q-1.484375 0 -2.921875 -0.734375q-1.4375 -0.75 -2.484375 -2.1875l0 2.53125l-4.234375 0zm4.53125 -9.015625q0 2.6875 0.84375 3.96875q1.1875 1.828125 3.15625 1.828125q1.515625 0 2.578125 -1.296875q1.078125 -1.296875 1.078125 -4.078125q0 -2.953125 -1.078125 -4.265625q-1.078125 -1.3125 -2.75 -1.3125q-1.640625 0 -2.734375 1.28125q-1.09375 1.265625 -1.09375 3.875zm14.405029 4.078125l4.59375 -0.6875q0.28125 1.328125 1.171875 2.03125q0.90625 0.6875 2.515625 0.6875q1.78125 0 2.671875 -0.65625q0.59375 -0.453125 0.59375 -1.21875q0 -0.53125 -0.3125 -0.859375q-0.34375 -0.328125 -1.53125 -0.609375q-5.53125 -1.21875 -7.015625 -2.234375q-2.046875 -1.390625 -2.046875 -3.890625q0 -2.234375 1.765625 -3.765625q1.78125 -1.53125 5.5 -1.53125q3.546875 0 5.265625 1.15625q1.734375 1.15625 2.390625 3.421875l-4.3125 0.796875q-0.28125 -1.015625 -1.0625 -1.546875q-0.765625 -0.546875 -2.203125 -0.546875q-1.796875 0 -2.578125 0.515625q-0.53125 0.359375 -0.53125 0.921875q0 0.484375 0.46875 0.828125q0.609375 0.453125 4.265625 1.28125q3.65625 0.828125 5.109375 2.046875q1.421875 1.21875 1.421875 3.390625q0 2.375 -1.984375 4.09375q-1.984375 1.703125 -5.875 1.703125q-3.53125 0 -5.59375 -1.421875q-2.046875 -1.4375 -2.6875 -3.90625zm37.326416 -12.34375l0 3.640625l-3.125 0l0 6.96875q0 2.109375 0.09375 2.46875q0.09375 0.34375 0.40625 0.578125q0.3125 0.21875 0.78125 0.21875q0.625 0 1.828125 -0.4375l0.390625 3.546875q-1.59375 0.6875 -3.609375 0.6875q-1.234375 0 -2.234375 -0.40625q-0.984375 -0.421875 -1.453125 -1.078125q-0.46875 -0.65625 -0.640625 -1.78125q-0.140625 -0.796875 -0.140625 -3.234375l0 -7.53125l-2.109375 0l0 -3.640625l2.109375 0l0 -3.4375l4.578125 -2.671875l0 6.109375l3.125 0zm2.1141357 8.390625q0 -2.265625 1.125 -4.390625q1.125 -2.140625 3.1875 -3.265625q2.0625 -1.125 4.59375 -1.125q3.921875 0 6.421875 2.546875q2.515625 2.546875 2.515625 6.4375q0 3.921875 -2.53125 6.5q-2.53125 2.578125 -6.375 2.578125q-2.375 0 -4.53125 -1.0625q-2.15625 -1.078125 -3.28125 -3.15625q-1.125 -2.078125 -1.125 -5.0625zm4.6875 0.25q0 2.578125 1.21875 3.9375q1.234375 1.359375 3.015625 1.359375q1.796875 0 3.0 -1.359375q1.21875 -1.359375 1.21875 -3.96875q0 -2.546875 -1.21875 -3.90625q-1.203125 -1.375 -3.0 -1.375q-1.78125 0 -3.015625 1.375q-1.21875 1.359375 -1.21875 3.9375zm25.805298 8.640625l0 -23.859375l4.5625 0l0 8.59375q2.125 -2.40625 5.015625 -2.40625q3.15625 0 5.21875 2.296875q2.078125 2.28125 2.078125 6.5625q0 4.421875 -2.109375 6.8125q-2.109375 2.390625 -5.125 2.390625q-1.484375 0 -2.921875 -0.734375q-1.4375 -0.75 -2.484375 -2.1875l0 2.53125l-4.234375 0zm4.53125 -9.015625q0 2.6875 0.84375 3.96875q1.1875 1.828125 3.15625 1.828125q1.515625 0 2.578125 -1.296875q1.078125 -1.296875 1.078125 -4.078125q0 -2.953125 -1.078125 -4.265625q-1.078125 -1.3125 -2.75 -1.3125q-1.640625 0 -2.734375 1.28125q-1.09375 1.265625 -1.09375 3.875zm26.03003 3.515625l4.546875 0.765625q-0.875 2.5 -2.78125 3.8125q-1.890625 1.3125 -4.734375 1.3125q-4.5 0 -6.671875 -2.953125q-1.703125 -2.359375 -1.703125 -5.953125q0 -4.296875 2.234375 -6.71875q2.25 -2.4375 5.6875 -2.4375q3.859375 0 6.078125 2.546875q2.234375 2.546875 2.140625 7.796875l-11.453125 0q0.046875 2.046875 1.09375 3.171875q1.0625 1.125 2.640625 1.125q1.078125 0 1.8125 -0.578125q0.734375 -0.59375 1.109375 -1.890625zm0.25 -4.625q-0.046875 -1.984375 -1.03125 -3.015625q-0.96875 -1.03125 -2.359375 -1.03125q-1.5 0 -2.484375 1.09375q-0.96875 1.078125 -0.953125 2.953125l6.828125 0z" fill-rule="nonzero"/><path fill="#000000" d="m700.542 283.99265l8.8125 0q2.96875 0 4.53125 0.453125q2.109375 0.625 3.59375 2.203125q1.5 1.578125 2.28125 3.875q0.78125 2.28125 0.78125 5.625q0 2.953125 -0.734375 5.078125q-0.890625 2.609375 -2.546875 4.21875q-1.25 1.21875 -3.390625 1.90625q-1.59375 0.5 -4.265625 0.5l-9.0625 0l0 -23.859375zm4.8125 4.03125l0 15.8125l3.609375 0q2.015625 0 2.90625 -0.234375q1.171875 -0.296875 1.9375 -0.984375q0.78125 -0.703125 1.265625 -2.296875q0.484375 -1.609375 0.484375 -4.375q0 -2.765625 -0.484375 -4.25q-0.484375 -1.484375 -1.375 -2.3125q-0.875 -0.828125 -2.21875 -1.125q-1.015625 -0.234375 -3.953125 -0.234375l-2.171875 0zm18.177856 10.9375q0 -2.265625 1.125 -4.390625q1.125 -2.140625 3.1875 -3.265625q2.0625 -1.125 4.59375 -1.125q3.921875 0 6.421875 2.546875q2.515625 2.546875 2.515625 6.4375q0 3.921875 -2.53125 6.5q-2.53125 2.578125 -6.375 2.578125q-2.375 0 -4.53125 -1.0625q-2.15625 -1.078125 -3.28125 -3.15625q-1.125 -2.078125 -1.125 -5.0625zm4.6875 0.25q0 2.578125 1.21875 3.9375q1.234375 1.359375 3.015625 1.359375q1.796875 0 3.0 -1.359375q1.21875 -1.359375 1.21875 -3.96875q0 -2.546875 -1.21875 -3.90625q-1.203125 -1.375 -3.0 -1.375q-1.78125 0 -3.015625 1.375q-1.21875 1.359375 -1.21875 3.9375zm32.451904 8.640625l-4.5625 0l0 -8.8125q0 -2.8125 -0.296875 -3.625q-0.296875 -0.828125 -0.953125 -1.28125q-0.65625 -0.453125 -1.59375 -0.453125q-1.1875 0 -2.140625 0.65625q-0.9375 0.640625 -1.28125 1.71875q-0.34375 1.078125 -0.34375 3.96875l0 7.828125l-4.578125 0l0 -17.28125l4.25 0l0 2.53125q2.265625 -2.921875 5.6875 -2.921875q1.515625 0 2.765625 0.546875q1.265625 0.546875 1.90625 1.390625q0.640625 0.84375 0.890625 1.921875q0.25 1.078125 0.25 3.078125l0 10.734375zm14.655029 -5.5l4.546875 0.765625q-0.875 2.5 -2.78125 3.8125q-1.890625 1.3125 -4.734375 1.3125q-4.5 0 -6.671875 -2.953125q-1.703125 -2.359375 -1.703125 -5.953125q0 -4.296875 2.234375 -6.71875q2.25 -2.4375 5.6875 -2.4375q3.859375 0 6.078125 2.546875q2.234375 2.546875 2.140625 7.796875l-11.453125 0q0.046875 2.046875 1.09375 3.171875q1.0625 1.125 2.640625 1.125q1.078125 0 1.8125 -0.578125q0.734375 -0.59375 1.109375 -1.890625zm0.25 -4.625q-0.046875 -1.984375 -1.03125 -3.015625q-0.96875 -1.03125 -2.359375 -1.03125q-1.5 0 -2.484375 1.09375q-0.96875 1.078125 -0.953125 2.953125l6.828125 0z" fill-rule="nonzero"/><path fill="#000000" d="m631.65247 354.28516l1.84375 0.234375q-0.296875 1.90625 -1.546875 2.984375q-1.25 1.078125 -3.0625 1.078125q-2.265625 0 -3.65625 -1.484375q-1.375 -1.484375 -1.375 -4.25q0 -1.796875 0.59375 -3.140625q0.59375 -1.34375 1.8125 -2.015625q1.21875 -0.671875 2.640625 -0.671875q1.796875 0 2.9375 0.921875q1.15625 0.90625 1.484375 2.578125l-1.828125 0.28125q-0.265625 -1.109375 -0.921875 -1.671875q-0.65625 -0.5625 -1.59375 -0.5625q-1.421875 0 -2.3125 1.015625q-0.875 1.015625 -0.875 3.203125q0 2.234375 0.84375 3.25q0.859375 1.0 2.234375 1.0q1.109375 0 1.84375 -0.671875q0.734375 -0.671875 0.9375 -2.078125zm2.7421875 -1.484375q0 -3.078125 1.71875 -4.546875q1.421875 -1.234375 3.46875 -1.234375q2.28125 0 3.71875 1.5q1.453125 1.484375 1.453125 4.125q0 2.140625 -0.640625 3.359375q-0.625 1.21875 -1.859375 1.90625q-1.21875 0.671875 -2.671875 0.671875q-2.3125 0 -3.75 -1.484375q-1.4375 -1.5 -1.4375 -4.296875zm1.9375 0q0 2.125 0.921875 3.1875q0.921875 1.046875 2.328125 1.046875q1.40625 0 2.328125 -1.0625q0.921875 -1.0625 0.921875 -3.234375q0 -2.046875 -0.9375 -3.109375q-0.921875 -1.0625 -2.3125 -1.0625q-1.40625 0 -2.328125 1.0625q-0.921875 1.046875 -0.921875 3.171875zm10.627319 5.53125l0 -11.0625l1.6875 0l0 1.578125q1.21875 -1.828125 3.515625 -1.828125q1.0 0 1.84375 0.359375q0.84375 0.359375 1.25 0.953125q0.421875 0.578125 0.59375 1.375q0.09375 0.515625 0.09375 1.828125l0 6.796875l-1.875 0l0 -6.734375q0 -1.140625 -0.21875 -1.703125q-0.21875 -0.578125 -0.78125 -0.90625q-0.546875 -0.34375 -1.296875 -0.34375q-1.203125 0 -2.078125 0.765625q-0.859375 0.75 -0.859375 2.875l0 6.046875l-1.875 0zm15.955444 -1.671875l0.265625 1.65625q-0.78125 0.15625 -1.40625 0.15625q-1.03125 0 -1.59375 -0.3125q-0.5625 -0.328125 -0.796875 -0.84375q-0.21875 -0.53125 -0.21875 -2.21875l0 -6.375l-1.375 0l0 -1.453125l1.375 0l0 -2.734375l1.859375 -1.125l0 3.859375l1.890625 0l0 1.453125l-1.890625 0l0 6.46875q0 0.8125 0.09375 1.046875q0.109375 0.21875 0.328125 0.359375q0.234375 0.125 0.640625 0.125q0.3125 0 0.828125 -0.0625zm9.410034 -1.890625l1.921875 0.234375q-0.453125 1.703125 -1.6875 2.640625q-1.234375 0.9375 -3.171875 0.9375q-2.421875 0 -3.84375 -1.484375q-1.421875 -1.5 -1.421875 -4.203125q0 -2.796875 1.4375 -4.328125q1.4375 -1.546875 3.734375 -1.546875q2.21875 0 3.609375 1.515625q1.40625 1.5 1.40625 4.25q0 0.15625 0 0.5l-8.25 0q0.109375 1.8125 1.03125 2.78125q0.921875 0.96875 2.3125 0.96875q1.03125 0 1.75 -0.53125q0.734375 -0.546875 1.171875 -1.734375zm-6.15625 -3.03125l6.171875 0q-0.125 -1.390625 -0.703125 -2.09375q-0.90625 -1.078125 -2.328125 -1.078125q-1.296875 0 -2.171875 0.859375q-0.875 0.859375 -0.96875 2.3125zm9.189819 6.59375l4.046875 -5.75l-3.75 -5.3125l2.34375 0l1.703125 2.59375q0.484375 0.734375 0.765625 1.234375q0.46875 -0.6875 0.84375 -1.21875l1.875 -2.609375l2.234375 0l-3.828125 5.203125l4.125 5.859375l-2.3125 0l-2.265625 -3.4375l-0.609375 -0.921875l-2.90625 4.359375l-2.265625 0zm16.007812 -1.671875l0.265625 1.65625q-0.78125 0.15625 -1.40625 0.15625q-1.03125 0 -1.59375 -0.3125q-0.5625 -0.328125 -0.796875 -0.84375q-0.21875 -0.53125 -0.21875 -2.21875l0 -6.375l-1.375 0l0 -1.453125l1.375 0l0 -2.734375l1.859375 -1.125l0 3.859375l1.890625 0l0 1.453125l-1.890625 0l0 6.46875q0 0.8125 0.09375 1.046875q0.109375 0.21875 0.328125 0.359375q0.234375 0.125 0.640625 0.125q0.3125 0 0.828125 -0.0625zm1.1287231 -3.859375q0 -3.078125 1.71875 -4.546875q1.421875 -1.234375 3.46875 -1.234375q2.28125 0 3.71875 1.5q1.453125 1.484375 1.453125 4.125q0 2.140625 -0.640625 3.359375q-0.625 1.21875 -1.859375 1.90625q-1.21875 0.671875 -2.671875 0.671875q-2.3125 0 -3.75 -1.484375q-1.4375 -1.5 -1.4375 -4.296875zm1.9375 0q0 2.125 0.921875 3.1875q0.921875 1.046875 2.328125 1.046875q1.40625 0 2.328125 -1.0625q0.921875 -1.0625 0.921875 -3.234375q0 -2.046875 -0.9375 -3.109375q-0.921875 -1.0625 -2.3125 -1.0625q-1.40625 0 -2.328125 1.0625q-0.921875 1.046875 -0.921875 3.171875zm11.111694 5.53125l0 -2.140625l2.140625 0l0 2.140625q0 1.171875 -0.421875 1.890625q-0.40625 0.734375 -1.3125 1.125l-0.53125 -0.796875q0.59375 -0.265625 0.875 -0.765625q0.28125 -0.5 0.3125 -1.453125l-1.0625 0zm18.585693 -4.046875l1.84375 0.234375q-0.296875 1.90625 -1.546875 2.984375q-1.25 1.078125 -3.0625 1.078125q-2.265625 0 -3.65625 -1.484375q-1.375 -1.484375 -1.375 -4.25q0 -1.796875 0.59375 -3.140625q0.59375 -1.34375 1.8125 -2.015625q1.21875 -0.671875 2.640625 -0.671875q1.796875 0 2.9375 0.921875q1.15625 0.90625 1.484375 2.578125l-1.828125 0.28125q-0.265625 -1.109375 -0.921875 -1.671875q-0.65625 -0.5625 -1.59375 -0.5625q-1.421875 0 -2.3125 1.015625q-0.875 1.015625 -0.875 3.203125q0 2.234375 0.84375 3.25q0.859375 1.0 2.234375 1.0q1.109375 0 1.84375 -0.671875q0.734375 -0.671875 0.9375 -2.078125zm3.4609375 -9.0625l0 -2.15625l1.875 0l0 2.15625l-1.875 0zm0 13.109375l0 -11.0625l1.875 0l0 11.0625l-1.875 0zm4.7071533 0l0 -11.0625l1.6875 0l0 1.671875q0.640625 -1.171875 1.1875 -1.546875q0.546875 -0.375 1.203125 -0.375q0.953125 0 1.921875 0.609375l-0.640625 1.734375q-0.6875 -0.40625 -1.375 -0.40625q-0.609375 0 -1.109375 0.375q-0.484375 0.359375 -0.6875 1.015625q-0.3125 1.0 -0.3125 2.1875l0 5.796875l-1.875 0zm14.336853 -4.046875l1.84375 0.234375q-0.296875 1.90625 -1.546875 2.984375q-1.25 1.078125 -3.0625 1.078125q-2.265625 0 -3.65625 -1.484375q-1.375 -1.484375 -1.375 -4.25q0 -1.796875 0.59375 -3.140625q0.59375 -1.34375 1.8125 -2.015625q1.21875 -0.671875 2.640625 -0.671875q1.796875 0 2.9375 0.921875q1.15625 0.90625 1.484375 2.578125l-1.828125 0.28125q-0.265625 -1.109375 -0.921875 -1.671875q-0.65625 -0.5625 -1.59375 -0.5625q-1.421875 0 -2.3125 1.015625q-0.875 1.015625 -0.875 3.203125q0 2.234375 0.84375 3.25q0.859375 1.0 2.234375 1.0q1.109375 0 1.84375 -0.671875q0.734375 -0.671875 0.9375 -2.078125zm10.6953125 4.046875l0 -1.625q-1.296875 1.875 -3.515625 1.875q-0.96875 0 -1.828125 -0.375q-0.84375 -0.375 -1.265625 -0.9375q-0.40625 -0.578125 -0.5625 -1.390625q-0.125 -0.5625 -0.125 -1.75l0 -6.859375l1.875 0l0 6.140625q0 1.46875 0.125 1.96875q0.171875 0.75 0.734375 1.171875q0.578125 0.421875 1.421875 0.421875q0.84375 0 1.578125 -0.4375q0.75 -0.4375 1.046875 -1.171875q0.3125 -0.75 0.3125 -2.171875l0 -5.921875l1.875 0l0 11.0625l-1.671875 0zm4.6116943 0l0 -11.0625l1.6875 0l0 1.578125q1.21875 -1.828125 3.515625 -1.828125q1.0 0 1.84375 0.359375q0.84375 0.359375 1.25 0.953125q0.421875 0.578125 0.59375 1.375q0.09375 0.515625 0.09375 1.828125l0 6.796875l-1.875 0l0 -6.734375q0 -1.140625 -0.21875 -1.703125q-0.21875 -0.578125 -0.78125 -0.90625q-0.546875 -0.34375 -1.296875 -0.34375q-1.203125 0 -2.078125 0.765625q-0.859375 0.75 -0.859375 2.875l0 6.046875l-1.875 0zm11.111694 -3.296875l1.859375 -0.296875q0.15625 1.109375 0.859375 1.703125q0.71875 0.59375 2.0 0.59375q1.296875 0 1.921875 -0.515625q0.625 -0.53125 0.625 -1.234375q0 -0.640625 -0.5625 -1.0q-0.375 -0.25 -1.90625 -0.640625q-2.0625 -0.515625 -2.859375 -0.890625q-0.796875 -0.390625 -1.21875 -1.0625q-0.40625 -0.671875 -0.40625 -1.484375q0 -0.734375 0.328125 -1.359375q0.34375 -0.640625 0.9375 -1.0625q0.4375 -0.3125 1.1875 -0.53125q0.75 -0.234375 1.625 -0.234375q1.296875 0 2.28125 0.375q0.984375 0.375 1.453125 1.015625q0.46875 0.640625 0.640625 1.71875l-1.828125 0.25q-0.125 -0.859375 -0.734375 -1.328125q-0.59375 -0.484375 -1.6875 -0.484375q-1.28125 0 -1.84375 0.421875q-0.546875 0.421875 -0.546875 1.0q0 0.359375 0.234375 0.65625q0.21875 0.296875 0.71875 0.5q0.28125 0.109375 1.65625 0.484375q1.984375 0.53125 2.765625 0.875q0.796875 0.328125 1.234375 0.984375q0.453125 0.640625 0.453125 1.59375q0 0.9375 -0.546875 1.765625q-0.546875 0.828125 -1.578125 1.28125q-1.03125 0.453125 -2.328125 0.453125q-2.15625 0 -3.296875 -0.890625q-1.125 -0.90625 -1.4375 -2.65625zm15.5078125 1.625l0.265625 1.65625q-0.78125 0.15625 -1.40625 0.15625q-1.03125 0 -1.59375 -0.3125q-0.5625 -0.328125 -0.796875 -0.84375q-0.21875 -0.53125 -0.21875 -2.21875l0 -6.375l-1.375 0l0 -1.453125l1.375 0l0 -2.734375l1.859375 -1.125l0 3.859375l1.890625 0l0 1.453125l-1.890625 0l0 6.46875q0 0.8125 0.09375 1.046875q0.109375 0.21875 0.328125 0.359375q0.234375 0.125 0.640625 0.125q0.3125 0 0.828125 -0.0625zm9.050659 0.3125q-1.046875 0.875 -2.015625 1.25q-0.953125 0.359375 -2.0625 0.359375q-1.8125 0 -2.796875 -0.890625q-0.984375 -0.890625 -0.984375 -2.28125q0 -0.8125 0.375 -1.484375q0.375 -0.671875 0.96875 -1.078125q0.59375 -0.40625 1.34375 -0.609375q0.5625 -0.140625 1.671875 -0.28125q2.265625 -0.265625 3.34375 -0.640625q0.015625 -0.390625 0.015625 -0.5q0 -1.140625 -0.53125 -1.609375q-0.71875 -0.640625 -2.140625 -0.640625q-1.328125 0 -1.953125 0.46875q-0.625 0.46875 -0.9375 1.640625l-1.828125 -0.25q0.25 -1.171875 0.8125 -1.890625q0.578125 -0.734375 1.65625 -1.125q1.09375 -0.390625 2.515625 -0.390625q1.421875 0 2.296875 0.34375q0.890625 0.328125 1.3125 0.828125q0.421875 0.5 0.578125 1.28125q0.09375 0.46875 0.09375 1.71875l0 2.5q0 2.625 0.125 3.3125q0.125 0.6875 0.46875 1.328125l-1.953125 0q-0.296875 -0.578125 -0.375 -1.359375zm-0.15625 -4.1875q-1.015625 0.40625 -3.0625 0.703125q-1.15625 0.171875 -1.640625 0.375q-0.46875 0.203125 -0.734375 0.609375q-0.265625 0.40625 -0.265625 0.890625q0 0.75 0.5625 1.25q0.578125 0.5 1.671875 0.5q1.078125 0 1.921875 -0.46875q0.84375 -0.484375 1.25 -1.296875q0.296875 -0.640625 0.296875 -1.875l0 -0.6875zm-2.578125 -8.65625l-1.171875 1.765625l-2.140625 0l2.25 -2.90625l2.0 0l2.34375 2.90625l-2.125 0l-1.15625 -1.765625zm7.3773193 14.203125l0 -11.0625l1.6875 0l0 1.578125q1.21875 -1.828125 3.515625 -1.828125q1.0 0 1.84375 0.359375q0.84375 0.359375 1.25 0.953125q0.421875 0.578125 0.59375 1.375q0.09375 0.515625 0.09375 1.828125l0 6.796875l-1.875 0l0 -6.734375q0 -1.140625 -0.21875 -1.703125q-0.21875 -0.578125 -0.78125 -0.90625q-0.546875 -0.34375 -1.296875 -0.34375q-1.203125 0 -2.078125 0.765625q-0.859375 0.75 -0.859375 2.875l0 6.046875l-1.875 0zm19.080444 -4.046875l1.84375 0.234375q-0.296875 1.90625 -1.546875 2.984375q-1.25 1.078125 -3.0625 1.078125q-2.265625 0 -3.65625 -1.484375q-1.375 -1.484375 -1.375 -4.25q0 -1.796875 0.59375 -3.140625q0.59375 -1.34375 1.8125 -2.015625q1.21875 -0.671875 2.640625 -0.671875q1.796875 0 2.9375 0.921875q1.15625 0.90625 1.484375 2.578125l-1.828125 0.28125q-0.265625 -1.109375 -0.921875 -1.671875q-0.65625 -0.5625 -1.59375 -0.5625q-1.421875 0 -2.3125 1.015625q-0.875 1.015625 -0.875 3.203125q0 2.234375 0.84375 3.25q0.859375 1.0 2.234375 1.0q1.109375 0 1.84375 -0.671875q0.734375 -0.671875 0.9375 -2.078125zm3.4609375 -9.0625l0 -2.15625l1.875 0l0 2.15625l-1.875 0zm0 13.109375l0 -11.0625l1.875 0l0 11.0625l-1.875 0zm11.941528 -1.359375q-1.046875 0.875 -2.015625 1.25q-0.953125 0.359375 -2.0625 0.359375q-1.8125 0 -2.796875 -0.890625q-0.984375 -0.890625 -0.984375 -2.28125q0 -0.8125 0.375 -1.484375q0.375 -0.671875 0.96875 -1.078125q0.59375 -0.40625 1.34375 -0.609375q0.5625 -0.140625 1.671875 -0.28125q2.265625 -0.265625 3.34375 -0.640625q0.015625 -0.390625 0.015625 -0.5q0 -1.140625 -0.53125 -1.609375q-0.71875 -0.640625 -2.140625 -0.640625q-1.328125 0 -1.953125 0.46875q-0.625 0.46875 -0.9375 1.640625l-1.828125 -0.25q0.25 -1.171875 0.8125 -1.890625q0.578125 -0.734375 1.65625 -1.125q1.09375 -0.390625 2.515625 -0.390625q1.421875 0 2.296875 0.34375q0.890625 0.328125 1.3125 0.828125q0.421875 0.5 0.578125 1.28125q0.09375 0.46875 0.09375 1.71875l0 2.5q0 2.625 0.125 3.3125q0.125 0.6875 0.46875 1.328125l-1.953125 0q-0.296875 -0.578125 -0.375 -1.359375zm-0.15625 -4.1875q-1.015625 0.40625 -3.0625 0.703125q-1.15625 0.171875 -1.640625 0.375q-0.46875 0.203125 -0.734375 0.609375q-0.265625 0.40625 -0.265625 0.890625q0 0.75 0.5625 1.25q0.578125 0.5 1.671875 0.5q1.078125 0 1.921875 -0.46875q0.84375 -0.484375 1.25 -1.296875q0.296875 -0.640625 0.296875 -1.875l0 -0.6875zm4.0491943 2.25l1.859375 -0.296875q0.15625 1.109375 0.859375 1.703125q0.71875 0.59375 2.0 0.59375q1.296875 0 1.921875 -0.515625q0.625 -0.53125 0.625 -1.234375q0 -0.640625 -0.5625 -1.0q-0.375 -0.25 -1.90625 -0.640625q-2.0625 -0.515625 -2.859375 -0.890625q-0.796875 -0.390625 -1.21875 -1.0625q-0.40625 -0.671875 -0.40625 -1.484375q0 -0.734375 0.328125 -1.359375q0.34375 -0.640625 0.9375 -1.0625q0.4375 -0.3125 1.1875 -0.53125q0.75 -0.234375 1.625 -0.234375q1.296875 0 2.28125 0.375q0.984375 0.375 1.453125 1.015625q0.46875 0.640625 0.640625 1.71875l-1.828125 0.25q-0.125 -0.859375 -0.734375 -1.328125q-0.59375 -0.484375 -1.6875 -0.484375q-1.28125 0 -1.84375 0.421875q-0.546875 0.421875 -0.546875 1.0q0 0.359375 0.234375 0.65625q0.21875 0.296875 0.71875 0.5q0.28125 0.109375 1.65625 0.484375q1.984375 0.53125 2.765625 0.875q0.796875 0.328125 1.234375 0.984375q0.453125 0.640625 0.453125 1.59375q0 0.9375 -0.546875 1.765625q-0.546875 0.828125 -1.578125 1.28125q-1.03125 0.453125 -2.328125 0.453125q-2.15625 0 -3.296875 -0.890625q-1.125 -0.90625 -1.4375 -2.65625zm11.8984375 3.296875l0 -2.140625l2.140625 0l0 2.140625q0 1.171875 -0.421875 1.890625q-0.40625 0.734375 -1.3125 1.125l-0.53125 -0.796875q0.59375 -0.265625 0.875 -0.765625q0.28125 -0.5 0.3125 -1.453125l-1.0625 0z" fill-rule="nonzero"/><path fill="#000000" d="m634.02167 380.28516l1.84375 0.234375q-0.296875 1.90625 -1.546875 2.984375q-1.25 1.078125 -3.0625 1.078125q-2.265625 0 -3.65625 -1.484375q-1.375 -1.484375 -1.375 -4.25q0 -1.796875 0.59375 -3.140625q0.59375 -1.34375 1.8125 -2.015625q1.21875 -0.671875 2.640625 -0.671875q1.796875 0 2.9375 0.921875q1.15625 0.90625 1.484375 2.578125l-1.828125 0.28125q-0.265625 -1.109375 -0.921875 -1.671875q-0.65625 -0.5625 -1.59375 -0.5625q-1.421875 0 -2.3125 1.015625q-0.875 1.015625 -0.875 3.203125q0 2.234375 0.84375 3.25q0.859375 1.0 2.234375 1.0q1.109375 0 1.84375 -0.671875q0.734375 -0.671875 0.9375 -2.078125zm2.7421875 -1.484375q0 -3.078125 1.71875 -4.546875q1.421875 -1.234375 3.46875 -1.234375q2.28125 0 3.71875 1.5q1.453125 1.484375 1.453125 4.125q0 2.140625 -0.640625 3.359375q-0.625 1.21875 -1.859375 1.90625q-1.21875 0.671875 -2.671875 0.671875q-2.3125 0 -3.75 -1.484375q-1.4375 -1.5 -1.4375 -4.296875zm1.9375 0q0 2.125 0.921875 3.1875q0.921875 1.046875 2.328125 1.046875q1.40625 0 2.328125 -1.0625q0.921875 -1.0625 0.921875 -3.234375q0 -2.046875 -0.9375 -3.109375q-0.921875 -1.0625 -2.3125 -1.0625q-1.40625 0 -2.328125 1.0625q-0.921875 1.046875 -0.921875 3.171875zm10.627319 5.53125l0 -11.0625l1.6875 0l0 1.578125q1.21875 -1.828125 3.515625 -1.828125q1.0 0 1.84375 0.359375q0.84375 0.359375 1.25 0.953125q0.421875 0.578125 0.59375 1.375q0.09375 0.515625 0.09375 1.828125l0 6.796875l-1.875 0l0 -6.734375q0 -1.140625 -0.21875 -1.703125q-0.21875 -0.578125 -0.78125 -0.90625q-0.546875 -0.34375 -1.296875 -0.34375q-1.203125 0 -2.078125 0.765625q-0.859375 0.75 -0.859375 2.875l0 6.046875l-1.875 0zm19.080444 -4.046875l1.84375 0.234375q-0.296875 1.90625 -1.546875 2.984375q-1.25 1.078125 -3.0625 1.078125q-2.265625 0 -3.65625 -1.484375q-1.375 -1.484375 -1.375 -4.25q0 -1.796875 0.59375 -3.140625q0.59375 -1.34375 1.8125 -2.015625q1.21875 -0.671875 2.640625 -0.671875q1.796875 0 2.9375 0.921875q1.15625 0.90625 1.484375 2.578125l-1.828125 0.28125q-0.265625 -1.109375 -0.921875 -1.671875q-0.65625 -0.5625 -1.59375 -0.5625q-1.421875 0 -2.3125 1.015625q-0.875 1.015625 -0.875 3.203125q0 2.234375 0.84375 3.25q0.859375 1.0 2.234375 1.0q1.109375 0 1.84375 -0.671875q0.734375 -0.671875 0.9375 -2.078125zm2.7421875 -1.484375q0 -3.078125 1.71875 -4.546875q1.421875 -1.234375 3.46875 -1.234375q2.28125 0 3.71875 1.5q1.453125 1.484375 1.453125 4.125q0 2.140625 -0.640625 3.359375q-0.625 1.21875 -1.859375 1.90625q-1.21875 0.671875 -2.671875 0.671875q-2.3125 0 -3.75 -1.484375q-1.4375 -1.5 -1.4375 -4.296875zm1.9375 0q0 2.125 0.921875 3.1875q0.921875 1.046875 2.328125 1.046875q1.40625 0 2.328125 -1.0625q0.921875 -1.0625 0.921875 -3.234375q0 -2.046875 -0.9375 -3.109375q-0.921875 -1.0625 -2.3125 -1.0625q-1.40625 0 -2.328125 1.0625q-0.921875 1.046875 -0.921875 3.171875zm10.611694 5.53125l0 -11.0625l1.6875 0l0 1.671875q0.640625 -1.171875 1.1875 -1.546875q0.546875 -0.375 1.203125 -0.375q0.953125 0 1.921875 0.609375l-0.640625 1.734375q-0.6875 -0.40625 -1.375 -0.40625q-0.609375 0 -1.109375 0.375q-0.484375 0.359375 -0.6875 1.015625q-0.3125 1.0 -0.3125 2.1875l0 5.796875l-1.875 0zm7.102478 0l0 -11.0625l1.6875 0l0 1.671875q0.640625 -1.171875 1.1875 -1.546875q0.546875 -0.375 1.203125 -0.375q0.953125 0 1.921875 0.609375l-0.640625 1.734375q-0.6875 -0.40625 -1.375 -0.40625q-0.609375 0 -1.109375 0.375q-0.484375 0.359375 -0.6875 1.015625q-0.3125 1.0 -0.3125 2.1875l0 5.796875l-1.875 0zm14.696167 -3.5625l1.921875 0.234375q-0.453125 1.703125 -1.6875 2.640625q-1.234375 0.9375 -3.171875 0.9375q-2.421875 0 -3.84375 -1.484375q-1.421875 -1.5 -1.421875 -4.203125q0 -2.796875 1.4375 -4.328125q1.4375 -1.546875 3.734375 -1.546875q2.21875 0 3.609375 1.515625q1.40625 1.5 1.40625 4.25q0 0.15625 0 0.5l-8.25 0q0.109375 1.8125 1.03125 2.78125q0.921875 0.96875 2.3125 0.96875q1.03125 0 1.75 -0.53125q0.734375 -0.546875 1.171875 -1.734375zm-6.15625 -3.03125l6.171875 0q-0.125 -1.390625 -0.703125 -2.09375q-0.90625 -1.078125 -2.328125 -1.078125q-1.296875 0 -2.171875 0.859375q-0.875 0.859375 -0.96875 2.3125zm3.078125 -7.609375l-1.171875 1.765625l-2.140625 0l2.25 -2.90625l2.0 0l2.34375 2.90625l-2.125 0l-1.15625 -1.765625zm7.3616943 14.203125l0 -11.0625l1.6875 0l0 1.578125q1.21875 -1.828125 3.515625 -1.828125q1.0 0 1.84375 0.359375q0.84375 0.359375 1.25 0.953125q0.421875 0.578125 0.59375 1.375q0.09375 0.515625 0.09375 1.828125l0 6.796875l-1.875 0l0 -6.734375q0 -1.140625 -0.21875 -1.703125q-0.21875 -0.578125 -0.78125 -0.90625q-0.546875 -0.34375 -1.296875 -0.34375q-1.203125 0 -2.078125 0.765625q-0.859375 0.75 -0.859375 2.875l0 6.046875l-1.875 0zm19.080444 -4.046875l1.84375 0.234375q-0.296875 1.90625 -1.546875 2.984375q-1.25 1.078125 -3.0625 1.078125q-2.265625 0 -3.65625 -1.484375q-1.375 -1.484375 -1.375 -4.25q0 -1.796875 0.59375 -3.140625q0.59375 -1.34375 1.8125 -2.015625q1.21875 -0.671875 2.640625 -0.671875q1.796875 0 2.9375 0.921875q1.15625 0.90625 1.484375 2.578125l-1.828125 0.28125q-0.265625 -1.109375 -0.921875 -1.671875q-0.65625 -0.5625 -1.59375 -0.5625q-1.421875 0 -2.3125 1.015625q-0.875 1.015625 -0.875 3.203125q0 2.234375 0.84375 3.25q0.859375 1.0 2.234375 1.0q1.109375 0 1.84375 -0.671875q0.734375 -0.671875 0.9375 -2.078125zm3.4609375 -9.0625l0 -2.15625l1.875 0l0 2.15625l-1.875 0zm0 13.109375l0 -11.0625l1.875 0l0 11.0625l-1.875 0zm11.941528 -1.359375q-1.046875 0.875 -2.015625 1.25q-0.953125 0.359375 -2.0625 0.359375q-1.8125 0 -2.796875 -0.890625q-0.984375 -0.890625 -0.984375 -2.28125q0 -0.8125 0.375 -1.484375q0.375 -0.671875 0.96875 -1.078125q0.59375 -0.40625 1.34375 -0.609375q0.5625 -0.140625 1.671875 -0.28125q2.265625 -0.265625 3.34375 -0.640625q0.015625 -0.390625 0.015625 -0.5q0 -1.140625 -0.53125 -1.609375q-0.71875 -0.640625 -2.140625 -0.640625q-1.328125 0 -1.953125 0.46875q-0.625 0.46875 -0.9375 1.640625l-1.828125 -0.25q0.25 -1.171875 0.8125 -1.890625q0.578125 -0.734375 1.65625 -1.125q1.09375 -0.390625 2.515625 -0.390625q1.421875 0 2.296875 0.34375q0.890625 0.328125 1.3125 0.828125q0.421875 0.5 0.578125 1.28125q0.09375 0.46875 0.09375 1.71875l0 2.5q0 2.625 0.125 3.3125q0.125 0.6875 0.46875 1.328125l-1.953125 0q-0.296875 -0.578125 -0.375 -1.359375zm-0.15625 -4.1875q-1.015625 0.40625 -3.0625 0.703125q-1.15625 0.171875 -1.640625 0.375q-0.46875 0.203125 -0.734375 0.609375q-0.265625 0.40625 -0.265625 0.890625q0 0.75 0.5625 1.25q0.578125 0.5 1.671875 0.5q1.078125 0 1.921875 -0.46875q0.84375 -0.484375 1.25 -1.296875q0.296875 -0.640625 0.296875 -1.875l0 -0.6875zm5.2835693 5.546875l0 -2.140625l2.140625 0l0 2.140625q0 1.171875 -0.421875 1.890625q-0.40625 0.734375 -1.3125 1.125l-0.53125 -0.796875q0.59375 -0.265625 0.875 -0.765625q0.28125 -0.5 0.3125 -1.453125l-1.0625 0zm11.366943 4.234375l0 -15.296875l1.703125 0l0 1.4375q0.609375 -0.84375 1.359375 -1.265625q0.765625 -0.421875 1.859375 -0.421875q1.40625 0 2.484375 0.734375q1.09375 0.71875 1.640625 2.046875q0.546875 1.328125 0.546875 2.921875q0 1.6875 -0.609375 3.046875q-0.59375 1.359375 -1.765625 2.09375q-1.15625 0.71875 -2.4375 0.71875q-0.9375 0 -1.6875 -0.390625q-0.734375 -0.40625 -1.21875 -1.0l0 5.375l-1.875 0zm1.703125 -9.703125q0 2.140625 0.859375 3.15625q0.859375 1.015625 2.09375 1.015625q1.25 0 2.140625 -1.046875q0.890625 -1.0625 0.890625 -3.28125q0 -2.109375 -0.875 -3.15625q-0.859375 -1.0625 -2.078125 -1.0625q-1.1875 0 -2.109375 1.125q-0.921875 1.109375 -0.921875 3.25zm10.142944 5.46875l0 -11.0625l1.6875 0l0 1.671875q0.640625 -1.171875 1.1875 -1.546875q0.546875 -0.375 1.203125 -0.375q0.953125 0 1.921875 0.609375l-0.640625 1.734375q-0.6875 -0.40625 -1.375 -0.40625q-0.609375 0 -1.109375 0.375q-0.484375 0.359375 -0.6875 1.015625q-0.3125 1.0 -0.3125 2.1875l0 5.796875l-1.875 0zm6.414917 -5.53125q0 -3.078125 1.71875 -4.546875q1.421875 -1.234375 3.46875 -1.234375q2.28125 0 3.71875 1.5q1.453125 1.484375 1.453125 4.125q0 2.140625 -0.640625 3.359375q-0.625 1.21875 -1.859375 1.90625q-1.21875 0.671875 -2.671875 0.671875q-2.3125 0 -3.75 -1.484375q-1.4375 -1.5 -1.4375 -4.296875zm1.9375 0q0 2.125 0.921875 3.1875q0.921875 1.046875 2.328125 1.046875q1.40625 0 2.328125 -1.0625q0.921875 -1.0625 0.921875 -3.234375q0 -2.046875 -0.9375 -3.109375q-0.921875 -1.0625 -2.3125 -1.0625q-1.40625 0 -2.328125 1.0625q-0.921875 1.046875 -0.921875 3.171875zm10.283569 6.453125l1.828125 0.265625q0.109375 0.84375 0.625 1.234375q0.703125 0.515625 1.90625 0.515625q1.3125 0 2.015625 -0.53125q0.703125 -0.515625 0.953125 -1.453125q0.15625 -0.5625 0.140625 -2.40625q-1.234375 1.453125 -3.0625 1.453125q-2.28125 0 -3.53125 -1.640625q-1.25 -1.65625 -1.25 -3.953125q0 -1.578125 0.5625 -2.921875q0.578125 -1.34375 1.671875 -2.0625q1.09375 -0.734375 2.5625 -0.734375q1.953125 0 3.21875 1.578125l0 -1.328125l1.734375 0l0 9.5625q0 2.578125 -0.53125 3.65625q-0.515625 1.078125 -1.65625 1.703125q-1.140625 0.625 -2.8125 0.625q-1.984375 0 -3.203125 -0.890625q-1.21875 -0.890625 -1.171875 -2.671875zm1.546875 -6.65625q0 2.1875 0.859375 3.1875q0.875 1.0 2.171875 1.0q1.296875 0 2.171875 -1.0q0.875 -1.0 0.875 -3.125q0 -2.03125 -0.90625 -3.0625q-0.890625 -1.03125 -2.171875 -1.03125q-1.25 0 -2.125 1.015625q-0.875 1.015625 -0.875 3.015625zm10.642944 5.734375l0 -11.0625l1.6875 0l0 1.671875q0.640625 -1.171875 1.1875 -1.546875q0.546875 -0.375 1.203125 -0.375q0.953125 0 1.921875 0.609375l-0.640625 1.734375q-0.6875 -0.40625 -1.375 -0.40625q-0.609375 0 -1.109375 0.375q-0.484375 0.359375 -0.6875 1.015625q-0.3125 1.0 -0.3125 2.1875l0 5.796875l-1.875 0zm14.696167 -3.5625l1.921875 0.234375q-0.453125 1.703125 -1.6875 2.640625q-1.234375 0.9375 -3.171875 0.9375q-2.421875 0 -3.84375 -1.484375q-1.421875 -1.5 -1.421875 -4.203125q0 -2.796875 1.4375 -4.328125q1.4375 -1.546875 3.734375 -1.546875q2.21875 0 3.609375 1.515625q1.40625 1.5 1.40625 4.25q0 0.15625 0 0.5l-8.25 0q0.109375 1.8125 1.03125 2.78125q0.921875 0.96875 2.3125 0.96875q1.03125 0 1.75 -0.53125q0.734375 -0.546875 1.171875 -1.734375zm-6.15625 -3.03125l6.171875 0q-0.125 -1.390625 -0.703125 -2.09375q-0.90625 -1.078125 -2.328125 -1.078125q-1.296875 0 -2.171875 0.859375q-0.875 0.859375 -0.96875 2.3125zm9.689819 3.296875l1.859375 -0.296875q0.15625 1.109375 0.859375 1.703125q0.71875 0.59375 2.0 0.59375q1.296875 0 1.921875 -0.515625q0.625 -0.53125 0.625 -1.234375q0 -0.640625 -0.5625 -1.0q-0.375 -0.25 -1.90625 -0.640625q-2.0625 -0.515625 -2.859375 -0.890625q-0.796875 -0.390625 -1.21875 -1.0625q-0.40625 -0.671875 -0.40625 -1.484375q0 -0.734375 0.328125 -1.359375q0.34375 -0.640625 0.9375 -1.0625q0.4375 -0.3125 1.1875 -0.53125q0.75 -0.234375 1.625 -0.234375q1.296875 0 2.28125 0.375q0.984375 0.375 1.453125 1.015625q0.46875 0.640625 0.640625 1.71875l-1.828125 0.25q-0.125 -0.859375 -0.734375 -1.328125q-0.59375 -0.484375 -1.6875 -0.484375q-1.28125 0 -1.84375 0.421875q-0.546875 0.421875 -0.546875 1.0q0 0.359375 0.234375 0.65625q0.21875 0.296875 0.71875 0.5q0.28125 0.109375 1.65625 0.484375q1.984375 0.53125 2.765625 0.875q0.796875 0.328125 1.234375 0.984375q0.453125 0.640625 0.453125 1.59375q0 0.9375 -0.546875 1.765625q-0.546875 0.828125 -1.578125 1.28125q-1.03125 0.453125 -2.328125 0.453125q-2.15625 0 -3.296875 -0.890625q-1.125 -0.90625 -1.4375 -2.65625zm10.6640625 0l1.859375 -0.296875q0.15625 1.109375 0.859375 1.703125q0.71875 0.59375 2.0 0.59375q1.296875 0 1.921875 -0.515625q0.625 -0.53125 0.625 -1.234375q0 -0.640625 -0.5625 -1.0q-0.375 -0.25 -1.90625 -0.640625q-2.0625 -0.515625 -2.859375 -0.890625q-0.796875 -0.390625 -1.21875 -1.0625q-0.40625 -0.671875 -0.40625 -1.484375q0 -0.734375 0.328125 -1.359375q0.34375 -0.640625 0.9375 -1.0625q0.4375 -0.3125 1.1875 -0.53125q0.75 -0.234375 1.625 -0.234375q1.296875 0 2.28125 0.375q0.984375 0.375 1.453125 1.015625q0.46875 0.640625 0.640625 1.71875l-1.828125 0.25q-0.125 -0.859375 -0.734375 -1.328125q-0.59375 -0.484375 -1.6875 -0.484375q-1.28125 0 -1.84375 0.421875q-0.546875 0.421875 -0.546875 1.0q0 0.359375 0.234375 0.65625q0.21875 0.296875 0.71875 0.5q0.28125 0.109375 1.65625 0.484375q1.984375 0.53125 2.765625 0.875q0.796875 0.328125 1.234375 0.984375q0.453125 0.640625 0.453125 1.59375q0 0.9375 -0.546875 1.765625q-0.546875 0.828125 -1.578125 1.28125q-1.03125 0.453125 -2.328125 0.453125q-2.15625 0 -3.296875 -0.890625q-1.125 -0.90625 -1.4375 -2.65625zm10.7109375 -2.234375q0 -3.078125 1.71875 -4.546875q1.421875 -1.234375 3.46875 -1.234375q2.28125 0 3.71875 1.5q1.453125 1.484375 1.453125 4.125q0 2.140625 -0.640625 3.359375q-0.625 1.21875 -1.859375 1.90625q-1.21875 0.671875 -2.671875 0.671875q-2.3125 0 -3.75 -1.484375q-1.4375 -1.5 -1.4375 -4.296875zm1.9375 0q0 2.125 0.921875 3.1875q0.921875 1.046875 2.328125 1.046875q1.40625 0 2.328125 -1.0625q0.921875 -1.0625 0.921875 -3.234375q0 -2.046875 -0.9375 -3.109375q-0.921875 -1.0625 -2.3125 -1.0625q-1.40625 0 -2.328125 1.0625q-0.921875 1.046875 -0.921875 3.171875z" fill-rule="nonzero"/><path fill="#eeeeee" d="m10.026805 228.11427l0 0c0 -24.102615 19.539036 -43.641647 43.64166 -43.641647l190.78024 0c11.574478 0 22.674911 4.597946 30.859299 12.782333c8.184418 8.184402 12.782349 19.284836 12.782349 30.859314l0 174.56142c0 24.10263 -19.539032 43.641663 -43.641647 43.641663l-190.78024 0c-24.102623 0 -43.64166 -19.539032 -43.64166 -43.641663z" fill-rule="evenodd"/><path stroke="#595959" stroke-width="1.0" stroke-linejoin="round" stroke-linecap="butt" d="m10.026805 228.11427l0 0c0 -24.102615 19.539036 -43.641647 43.64166 -43.641647l190.78024 0c11.574478 0 22.674911 4.597946 30.859299 12.782333c8.184418 8.184402 12.782349 19.284836 12.782349 30.859314l0 174.56142c0 24.10263 -19.539032 43.641663 -43.641647 43.641663l-190.78024 0c-24.102623 0 -43.64166 -19.539032 -43.64166 -43.641663z" fill-rule="evenodd"/><path fill="#000000" d="m33.99651 260.99496l0 -19.07811l12.875 0l0 2.25l-10.34375 0l0 5.90625l8.953125 0l0 2.25l-8.953125 0l0 8.67186l-2.53125 0zm25.31395 -4.453125l2.421875 0.296875q-0.578125 2.125 -2.125 3.296875q-1.546875 1.1719055 -3.953125 1.1719055q-3.03125 0 -4.8125 -1.8594055q-1.78125 -1.875 -1.78125 -5.2499847q0 -3.484375 1.796875 -5.40625q1.796875 -1.9375 4.671875 -1.9375q2.765625 0 4.515625 1.890625q1.765625 1.890625 1.765625 5.3125q0 0.203125 -0.015625 0.625l-10.3125 0q0.140625 2.2812347 1.296875 3.4999847q1.15625 1.203125 2.890625 1.203125q1.28125 0 2.1875 -0.671875q0.921875 -0.6875 1.453125 -2.171875zm-7.6875 -3.7812347l7.71875 0q-0.15625 -1.75 -0.890625 -2.625q-1.125 -1.34375 -2.90625 -1.34375q-1.609375 0 -2.71875 1.078125q-1.09375 1.078125 -1.203125 2.890625zm22.07494 6.5312347q-1.3125 1.109375 -2.515625 1.5625q-1.203125 0.45315552 -2.578125 0.45315552q-2.28125 0 -3.5 -1.1094055q-1.2187538 -1.109375 -1.2187538 -2.84375q0 -1.015625 0.4531288 -1.8593597q0.46875 -0.84375 1.21875 -1.34375q0.75 -0.515625 1.6875 -0.765625q0.6875 -0.1875 2.078125 -0.359375q2.828125 -0.328125 4.171875 -0.796875q0.015625 -0.484375 0.015625 -0.625q0 -1.421875 -0.65625 -2.015625q-0.90625 -0.796875 -2.671875 -0.796875q-1.65625 0 -2.453125 0.59375q-0.78125 0.578125 -1.15625 2.046875l-2.296875 -0.3125q0.3125 -1.46875 1.03125 -2.375q0.71875 -0.90625 2.0625 -1.390625q1.359375 -0.5 3.140625 -0.5q1.78125 0 2.875 0.421875q1.109375 0.421875 1.625 1.046875q0.53125 0.625 0.734375 1.59375q0.125 0.59375 0.125 2.15625l0 3.125q0 3.2656097 0.140625 4.1406097q0.15625 0.859375 0.59375 1.65625l-2.4375 0q-0.375 -0.734375 -0.46875 -1.703125zm-0.203125 -5.2343597q-1.265625 0.515625 -3.828125 0.890625q-1.4375 0.203125 -2.046875 0.46875q-0.59375 0.25 -0.921875 0.74998474q-0.3125 0.5 -0.3125 1.125q0 0.9375 0.703125 1.5625q0.703125 0.625 2.078125 0.625q1.34375 0 2.390625 -0.59375q1.0625 -0.59375 1.5625 -1.625q0.375 -0.796875 0.375 -2.3437347l0 -0.859375zm11.121811 4.8437347l0.328125 2.0625q-0.984375 0.21875 -1.765625 0.21875q-1.265625 0 -1.96875 -0.40625q-0.703125 -0.40625 -1.0 -1.0625q-0.28125 -0.65625 -0.28125 -2.765625l0 -7.9531097l-1.71875 0l0 -1.828125l1.71875 0l0 -3.421875l2.328125 -1.40625l0 4.828125l2.359375 0l0 1.828125l-2.359375 0l0 8.07811q0 1.0 0.125 1.296875q0.125 0.28125 0.40625 0.453125q0.28125 0.171875 0.796875 0.171875q0.390625 0 1.03125 -0.09375zm11.34346 2.09375l0 -2.03125q-1.609375 2.3437805 -4.375 2.3437805q-1.234375 0 -2.296875 -0.46878052q-1.0625 -0.46875 -1.578125 -1.171875q-0.5 -0.71875 -0.71875 -1.75q-0.140625 -0.6875 -0.140625 -2.1874847l0 -8.5625l2.34375 0l0 7.671875q0 1.8281097 0.140625 2.4687347q0.21875 0.921875 0.9375 1.453125q0.71875 0.53125 1.765625 0.53125q1.0625 0 1.984375 -0.53125q0.921875 -0.546875 1.296875 -1.46875q0.390625 -0.9375 0.390625 -2.7187347l0 -7.40625l2.34375 0l0 13.82811l-2.09375 0zm5.746811 0l0 -13.82811l2.109375 0l0 2.09375q0.796875 -1.46875 1.484375 -1.9375q0.6875 -0.46875 1.5 -0.46875q1.1875 0 2.40625 0.765625l-0.796875 2.171875q-0.859375 -0.515625 -1.71875 -0.515625q-0.765625 0 -1.390625 0.46875q-0.609375 0.453125 -0.859375 1.28125q-0.390625 1.25 -0.390625 2.734375l0 7.2343597l-2.34375 0zm18.361115 -4.453125l2.421875 0.296875q-0.578125 2.125 -2.125 3.296875q-1.546875 1.1719055 -3.953125 1.1719055q-3.03125 0 -4.8125 -1.8594055q-1.78125 -1.875 -1.78125 -5.2499847q0 -3.484375 1.796875 -5.40625q1.796875 -1.9375 4.671875 -1.9375q2.765625 0 4.515625 1.890625q1.765625 1.890625 1.765625 5.3125q0 0.203125 -0.015625 0.625l-10.3125 0q0.140625 2.2812347 1.296875 3.4999847q1.15625 1.203125 2.890625 1.203125q1.28125 0 2.1875 -0.671875q0.921875 -0.6875 1.453125 -2.171875zm-7.6875 -3.7812347l7.71875 0q-0.15625 -1.75 -0.890625 -2.625q-1.125 -1.34375 -2.90625 -1.34375q-1.609375 0 -2.71875 1.078125q-1.09375 1.078125 -1.203125 2.890625zm12.106186 4.1093597l2.328125 -0.359375q0.1875 1.390625 1.078125 2.140625q0.8906174 0.734375 2.4999924 0.734375q1.609375 0 2.390625 -0.65625q0.78125 -0.65625 0.78125 -1.546875q0 -0.796875 -0.6875 -1.2499847q-0.484375 -0.3125 -2.390625 -0.796875q-2.5781174 -0.65625 -3.5781174 -1.125q-1.0 -0.46875 -1.515625 -1.3125q-0.515625 -0.84375 -0.515625 -1.859375q0 -0.921875 0.421875 -1.703125q0.4375 -0.796875 1.15625 -1.3125q0.546875 -0.40625 1.484375 -0.6875q0.9531174 -0.28125 2.0312424 -0.28125q1.625 0 2.859375 0.46875q1.234375 0.46875 1.8125 1.28125q0.59375 0.796875 0.8125 2.140625l-2.296875 0.3125q-0.15625 -1.078125 -0.90625 -1.671875q-0.75 -0.59375 -2.109375 -0.59375q-1.609375 0 -2.3124924 0.53125q-0.6875 0.53125 -0.6875 1.25q0 0.453125 0.296875 0.8125q0.28125 0.375 0.8906174 0.625q0.359375 0.140625 2.078125 0.609375q2.484375 0.65625 3.46875 1.078125q0.984375 0.421875 1.53125 1.234375q0.5625 0.796875 0.5625 1.9999847q0 1.171875 -0.6875 2.21875q-0.671875 1.03125 -1.96875 1.59375q-1.28125 0.5625305 -2.90625 0.5625305q-2.7031174 0 -4.1249924 -1.1094055q-1.40625 -1.125 -1.796875 -3.328125z" fill-rule="nonzero"/><path fill="#000000" d="m33.99651 292.99496l0 -19.078125l12.875 0l0 2.25l-10.34375 0l0 5.90625l8.953125 0l0 2.25l-8.953125 0l0 8.671875l-2.53125 0zm24.9077 0l0 -2.03125q-1.609375 2.34375 -4.375 2.34375q-1.234375 0 -2.296875 -0.46875q-1.0625 -0.46875 -1.578125 -1.171875q-0.5 -0.71875 -0.71875 -1.75q-0.140625 -0.6875 -0.140625 -2.1875l0 -8.5625l2.34375 0l0 7.671875q0 1.828125 0.140625 2.46875q0.21875 0.921875 0.9375 1.453125q0.71875 0.53125 1.765625 0.53125q1.0625 0 1.984375 -0.53125q0.921875 -0.546875 1.296875 -1.46875q0.390625 -0.9375 0.390625 -2.71875l0 -7.40625l2.34375 0l0 13.828125l-2.09375 0zm5.7624397 0l0 -13.828125l2.109375 0l0 1.96875q1.53125 -2.28125 4.40625 -2.28125q1.25 0 2.296875 0.453125q1.046875 0.453125 1.5625 1.1875q0.53125 0.71875 0.734375 1.71875q0.125 0.65625 0.125 2.28125l0 8.5l-2.34375 0l0 -8.40625q0 -1.4375 -0.28125 -2.140625q-0.265625 -0.71875 -0.96875 -1.140625q-0.6875 -0.421875 -1.625 -0.421875q-1.484375 0 -2.578125 0.953125q-1.09375 0.953125 -1.09375 3.609375l0 7.546875l-2.34375 0zm23.856186 -5.0625l2.296875 0.296875q-0.375 2.390625 -1.9375 3.734375q-1.546875 1.34375 -3.8125 1.34375q-2.84375 0 -4.5625 -1.84375q-1.71875 -1.859375 -1.71875 -5.328125q0 -2.234375 0.734375 -3.90625q0.75 -1.6875 2.265625 -2.53125q1.515625 -0.84375 3.296875 -0.84375q2.25 0 3.671875 1.140625q1.4375 1.140625 1.84375 3.234375l-2.28125 0.359375q-0.328125 -1.390625 -1.15625 -2.09375q-0.8125 -0.703125 -1.984375 -0.703125q-1.78125 0 -2.890625 1.265625q-1.09375 1.265625 -1.09375 4.015625q0 2.78125 1.0625 4.046875q1.0625 1.265625 2.78125 1.265625q1.390625 0 2.3125 -0.84375q0.921875 -0.859375 1.171875 -2.609375zm4.3125 -11.328125l0 -2.6875l2.34375 0l0 2.6875l-2.34375 0zm0 16.390625l0 -13.828125l2.34375 0l0 13.828125l-2.34375 0zm5.047165 -6.90625q0 -3.84375 2.125 -5.6875q1.78125 -1.546875 4.34375 -1.546875q2.859375 0 4.65625 1.875q1.8125 1.859375 1.8125 5.15625q0 2.671875 -0.796875 4.203125q-0.796875 1.53125 -2.328125 2.375q-1.53125 0.84375 -3.34375 0.84375q-2.890625 0 -4.6875 -1.859375q-1.78125 -1.859375 -1.78125 -5.359375zm2.40625 0q0 2.65625 1.15625 3.984375q1.15625 1.3125 2.90625 1.3125q1.75 0 2.90625 -1.328125q1.15625 -1.328125 1.15625 -4.046875q0 -2.5625 -1.171875 -3.890625q-1.15625 -1.328125 -2.890625 -1.328125q-1.75 0 -2.90625 1.328125q-1.15625 1.3125 -1.15625 3.96875zm13.278061 6.90625l0 -13.828125l2.109375 0l0 1.96875q1.53125 -2.28125 4.40625 -2.28125q1.25 0 2.296875 0.453125q1.046875 0.453125 1.5625 1.1875q0.53125 0.71875 0.734375 1.71875q0.125 0.65625 0.125 2.28125l0 8.5l-2.34375 0l0 -8.40625q0 -1.4375 -0.28125 -2.140625q-0.265625 -0.71875 -0.96875 -1.140625q-0.6875 -0.421875 -1.625 -0.421875q-1.484375 0 -2.578125 0.953125q-1.09375 0.953125 -1.09375 3.609375l0 7.546875l-2.34375 0zm23.856178 -1.703125q-1.3125 1.109375 -2.515625 1.5625q-1.203125 0.453125 -2.578125 0.453125q-2.28125 0 -3.5 -1.109375q-1.2187424 -1.109375 -1.2187424 -2.84375q0 -1.015625 0.45311737 -1.859375q0.46875 -0.84375 1.21875 -1.34375q0.75 -0.515625 1.6875 -0.765625q0.6875 -0.1875 2.078125 -0.359375q2.828125 -0.328125 4.171875 -0.796875q0.015625 -0.484375 0.015625 -0.625q0 -1.421875 -0.65625 -2.015625q-0.90625 -0.796875 -2.671875 -0.796875q-1.65625 0 -2.453125 0.59375q-0.78125 0.578125 -1.15625 2.046875l-2.296875 -0.3125q0.3125 -1.46875 1.03125 -2.375q0.71875 -0.90625 2.0625 -1.390625q1.359375 -0.5 3.140625 -0.5q1.78125 0 2.875 0.421875q1.109375 0.421875 1.625 1.046875q0.53125 0.625 0.734375 1.59375q0.125 0.59375 0.125 2.15625l0 3.125q0 3.265625 0.140625 4.140625q0.15625 0.859375 0.59375 1.65625l-2.4375 0q-0.375 -0.734375 -0.46875 -1.703125zm-0.203125 -5.234375q-1.265625 0.515625 -3.828125 0.890625q-1.4375 0.203125 -2.046875 0.46875q-0.59375 0.25 -0.921875 0.75q-0.3125 0.5 -0.3125 1.125q0 0.9375 0.703125 1.5625q0.703125 0.625 2.078125 0.625q1.34375 0 2.390625 -0.59375q1.0625 -0.59375 1.5625 -1.625q0.375 -0.796875 0.375 -2.34375l0 -0.859375zm5.949936 6.9375l0 -19.078125l2.34375 0l0 19.078125l-2.34375 0zm5.984665 -16.390625l0 -2.6875l2.34375 0l0 2.6875l-2.34375 0zm0 16.390625l0 -13.828125l2.34375 0l0 13.828125l-2.34375 0zm14.87529 0l0 -1.75q-1.3125 2.0625 -3.859375 2.0625q-1.65625 0 -3.046875 -0.90625q-1.375 -0.921875 -2.140625 -2.546875q-0.765625 -1.640625 -0.765625 -3.75q0 -2.078125 0.6875 -3.765625q0.703125 -1.6875 2.078125 -2.578125q1.375 -0.90625 3.078125 -0.90625q1.25 0 2.21875 0.53125q0.984375 0.53125 1.59375 1.375l0 -6.84375l2.34375 0l0 19.078125l-2.1875 0zm-7.40625 -6.890625q0 2.640625 1.125 3.96875q1.125 1.3125 2.640625 1.3125q1.53125 0 2.609375 -1.25q1.078125 -1.265625 1.078125 -3.84375q0 -2.84375 -1.09375 -4.171875q-1.09375 -1.328125 -2.703125 -1.328125q-1.546875 0 -2.609375 1.28125q-1.046875 1.28125 -1.046875 4.03125zm22.293686 5.1875q-1.3125 1.109375 -2.515625 1.5625q-1.203125 0.453125 -2.578125 0.453125q-2.28125 0 -3.5 -1.109375q-1.21875 -1.109375 -1.21875 -2.84375q0 -1.015625 0.453125 -1.859375q0.46875 -0.84375 1.21875 -1.34375q0.75 -0.515625 1.6875 -0.765625q0.6875 -0.1875 2.078125 -0.359375q2.828125 -0.328125 4.171875 -0.796875q0.015625 -0.484375 0.015625 -0.625q0 -1.421875 -0.65625 -2.015625q-0.90625 -0.796875 -2.671875 -0.796875q-1.65625 0 -2.453125 0.59375q-0.78125 0.578125 -1.15625 2.046875l-2.296875 -0.3125q0.3125 -1.46875 1.03125 -2.375q0.71875 -0.90625 2.0625 -1.390625q1.359375 -0.5 3.140625 -0.5q1.78125 0 2.875 0.421875q1.109375 0.421875 1.625 1.046875q0.53125 0.625 0.734375 1.59375q0.125 0.59375 0.125 2.15625l0 3.125q0 3.265625 0.140625 4.140625q0.15625 0.859375 0.59375 1.65625l-2.4375 0q-0.375 -0.734375 -0.46875 -1.703125zm-0.203125 -5.234375q-1.265625 0.515625 -3.828125 0.890625q-1.4375 0.203125 -2.046875 0.46875q-0.59375 0.25 -0.921875 0.75q-0.3125 0.5 -0.3125 1.125q0 0.9375 0.703125 1.5625q0.703125 0.625 2.078125 0.625q1.34375 0 2.390625 -0.59375q1.0625 -0.59375 1.5625 -1.625q0.375 -0.796875 0.375 -2.34375l0 -0.859375zm14.965561 6.9375l0 -1.75q-1.3125 2.0625 -3.859375 2.0625q-1.65625 0 -3.046875 -0.90625q-1.375 -0.921875 -2.140625 -2.546875q-0.765625 -1.640625 -0.765625 -3.75q0 -2.078125 0.6875 -3.765625q0.703125 -1.6875 2.078125 -2.578125q1.375 -0.90625 3.078125 -0.90625q1.25 0 2.21875 0.53125q0.984375 0.53125 1.59375 1.375l0 -6.84375l2.34375 0l0 19.078125l-2.1875 0zm-7.40625 -6.890625q0 2.640625 1.125 3.96875q1.125 1.3125 2.640625 1.3125q1.53125 0 2.609375 -1.25q1.078125 -1.265625 1.078125 -3.84375q0 -2.84375 -1.09375 -4.171875q-1.09375 -1.328125 -2.703125 -1.328125q-1.546875 0 -2.609375 1.28125q-1.046875 1.28125 -1.046875 4.03125zm22.731186 2.4375l2.421875 0.296875q-0.578125 2.125 -2.125 3.296875q-1.546875 1.171875 -3.953125 1.171875q-3.03125 0 -4.8125 -1.859375q-1.78125 -1.875 -1.78125 -5.25q0 -3.484375 1.796875 -5.40625q1.796875 -1.9375 4.671875 -1.9375q2.765625 0 4.515625 1.890625q1.765625 1.890625 1.765625 5.3125q0 0.203125 -0.015625 0.625l-10.3125 0q0.140625 2.28125 1.296875 3.5q1.15625 1.203125 2.890625 1.203125q1.28125 0 2.1875 -0.671875q0.921875 -0.6875 1.453125 -2.171875zm-7.6875 -3.78125l7.71875 0q-0.15625 -1.75 -0.890625 -2.625q-1.125 -1.34375 -2.90625 -1.34375q-1.609375 0 -2.71875 1.078125q-1.09375 1.078125 -1.203125 2.890625zm12.106186 4.109375l2.328125 -0.359375q0.1875 1.390625 1.078125 2.140625q0.890625 0.734375 2.5 0.734375q1.609375 0 2.390625 -0.65625q0.78125 -0.65625 0.78125 -1.546875q0 -0.796875 -0.6875 -1.25q-0.484375 -0.3125 -2.390625 -0.796875q-2.578125 -0.65625 -3.578125 -1.125q-1.0 -0.46875 -1.515625 -1.3125q-0.515625 -0.84375 -0.515625 -1.859375q0 -0.921875 0.421875 -1.703125q0.4375 -0.796875 1.15625 -1.3125q0.546875 -0.40625 1.484375 -0.6875q0.953125 -0.28125 2.03125 -0.28125q1.625 0 2.859375 0.46875q1.234375 0.46875 1.8125 1.28125q0.59375 0.796875 0.8125 2.140625l-2.296875 0.3125q-0.15625 -1.078125 -0.90625 -1.671875q-0.75 -0.59375 -2.109375 -0.59375q-1.609375 0 -2.3125 0.53125q-0.6875 0.53125 -0.6875 1.25q0 0.453125 0.296875 0.8125q0.28125 0.375 0.890625 0.625q0.359375 0.140625 2.078125 0.609375q2.484375 0.65625 3.46875 1.078125q0.984375 0.421875 1.53125 1.234375q0.5625 0.796875 0.5625 2.0q0 1.171875 -0.6875 2.21875q-0.671875 1.03125 -1.96875 1.59375q-1.28125 0.5625 -2.90625 0.5625q-2.703125 0 -4.125 -1.109375q-1.40625 -1.125 -1.796875 -3.328125z" fill-rule="nonzero"/><path fill="#000000" d="m33.90276 324.99496l0 -19.078125l8.46875 0q2.546875 0 3.875 0.515625q1.328125 0.515625 2.109375 1.8125q0.796875 1.296875 0.796875 2.875q0 2.03125 -1.3125 3.421875q-1.3125 1.390625 -4.0625 1.765625q1.015625 0.484375 1.53125 0.953125q1.109375 1.015625 2.09375 2.546875l3.3125 5.1875l-3.171875 0l-2.515625 -3.96875q-1.109375 -1.71875 -1.828125 -2.625q-0.71875 -0.921875 -1.28125 -1.28125q-0.5625 -0.359375 -1.15625 -0.5q-0.421875 -0.09375 -1.40625 -0.09375l-2.921875 0l0 8.46875l-2.53125 0zm2.53125 -10.65625l5.421875 0q1.734375 0 2.703125 -0.359375q0.984375 -0.359375 1.484375 -1.140625q0.515625 -0.796875 0.515625 -1.71875q0 -1.359375 -0.984375 -2.21875q-0.984375 -0.875 -3.109375 -0.875l-6.03125 0l0 6.3125zm25.84404 6.203125l2.4218788 0.296875q-0.578125 2.125 -2.1250038 3.296875q-1.546875 1.171875 -3.953125 1.171875q-3.03125 0 -4.8125 -1.859375q-1.78125 -1.875 -1.78125 -5.25q0 -3.484375 1.796875 -5.40625q1.796875 -1.9375 4.671875 -1.9375q2.765625 0 4.515625 1.890625q1.7656288 1.890625 1.7656288 5.3125q0 0.203125 -0.015625 0.625l-10.312504 0q0.140625 2.28125 1.296875 3.5q1.15625 1.203125 2.890625 1.203125q1.28125 0 2.1875 -0.671875q0.921875 -0.6875 1.453125 -2.171875zm-7.6875 -3.78125l7.71875 0q-0.15625 -1.75 -0.890625 -2.625q-1.125 -1.34375 -2.90625 -1.34375q-1.609375 0 -2.71875 1.078125q-1.09375 1.078125 -1.203125 2.890625zm21.85619 13.53125l0 -6.765625q-0.546875 0.765625 -1.53125 1.28125q-0.96875 0.5 -2.078125 0.5q-2.46875 0 -4.25 -1.96875q-1.765625 -1.96875 -1.765625 -5.390625q0 -2.078125 0.71875 -3.734375q0.71875 -1.65625 2.09375 -2.5q1.375 -0.859375 3.015625 -0.859375q2.5625 0 4.03125 2.171875l0 -1.859375l2.109375 0l0 19.125l-2.34375 0zm-7.21875 -12.25q0 2.671875 1.109375 4.015625q1.125 1.328125 2.6875 1.328125q1.5 0 2.578125 -1.265625q1.078125 -1.28125 1.078125 -3.859375q0 -2.765625 -1.140625 -4.15625q-1.125 -1.390625 -2.671875 -1.390625q-1.515625 0 -2.578125 1.296875q-1.0625 1.28125 -1.0625 4.03125zm22.293686 6.953125l0 -2.03125q-1.609375 2.34375 -4.375 2.34375q-1.234375 0 -2.296875 -0.46875q-1.0625 -0.46875 -1.578125 -1.171875q-0.5 -0.71875 -0.71875 -1.75q-0.140625 -0.6875 -0.140625 -2.1875l0 -8.5625l2.34375 0l0 7.671875q0 1.828125 0.140625 2.46875q0.21875 0.921875 0.9375 1.453125q0.71875 0.53125 1.765625 0.53125q1.0625 0 1.984375 -0.53125q0.921875 -0.546875 1.296875 -1.46875q0.390625 -0.9375 0.390625 -2.71875l0 -7.40625l2.34375 0l0 13.828125l-2.09375 0zm5.778061 -16.390625l0 -2.6875l2.34375 0l0 2.6875l-2.34375 0zm0 16.390625l0 -13.828125l2.34375 0l0 13.828125l-2.34375 0zm4.96904 -4.125l2.328125 -0.359375q0.1875 1.390625 1.078125 2.140625q0.890625 0.734375 2.5 0.734375q1.609375 0 2.390625 -0.65625q0.78125 -0.65625 0.78125 -1.546875q0 -0.796875 -0.6875 -1.25q-0.484375 -0.3125 -2.390625 -0.796875q-2.578125 -0.65625 -3.578125 -1.125q-1.0 -0.46875 -1.515625 -1.3125q-0.515625 -0.84375 -0.515625 -1.859375q0 -0.921875 0.421875 -1.703125q0.4375 -0.796875 1.15625 -1.3125q0.546875 -0.40625 1.484375 -0.6875q0.953125 -0.28125 2.03125 -0.28125q1.625 0 2.859375 0.46875q1.234375 0.46875 1.8125 1.28125q0.59375 0.796875 0.8125 2.140625l-2.296875 0.3125q-0.15625 -1.078125 -0.90625 -1.671875q-0.75 -0.59375 -2.109375 -0.59375q-1.609375 0 -2.3125 0.53125q-0.6875 0.53125 -0.6875 1.25q0 0.453125 0.296875 0.8125q0.28125 0.375 0.890625 0.625q0.359375 0.140625 2.078125 0.609375q2.484375 0.65625 3.46875 1.078125q0.984375 0.421875 1.53125 1.234375q0.5625 0.796875 0.5625 2.0q0 1.171875 -0.6875 2.21875q-0.671875 1.03125 -1.96875 1.59375q-1.28125 0.5625 -2.90625 0.5625q-2.703125 0 -4.125 -1.109375q-1.40625 -1.125 -1.796875 -3.328125zm14.28125 -12.265625l0 -2.6875l2.34375 0l0 2.6875l-2.34375 0zm0 16.390625l0 -13.828125l2.34375 0l0 13.828125l-2.34375 0zm11.03154 -2.09375l0.328125 2.0625q-0.984375 0.21875 -1.765625 0.21875q-1.265625 0 -1.96875 -0.40625q-0.703125 -0.40625 -1.0 -1.0625q-0.28125 -0.65625 -0.28125 -2.765625l0 -7.953125l-1.71875 0l0 -1.828125l1.71875 0l0 -3.421875l2.328125 -1.40625l0 4.828125l2.359375 0l0 1.828125l-2.359375 0l0 8.078125q0 1.0 0.125 1.296875q0.125 0.28125 0.40625 0.453125q0.28125 0.171875 0.796875 0.171875q0.390625 0 1.03125 -0.09375zm1.4215775 -4.8125q0 -3.84375 2.125 -5.6875q1.78125 -1.546875 4.34375 -1.546875q2.859375 0 4.65625 1.875q1.8125 1.859375 1.8125 5.15625q0 2.671875 -0.796875 4.203125q-0.796875 1.53125 -2.328125 2.375q-1.53125 0.84375 -3.34375 0.84375q-2.890625 0 -4.6875 -1.859375q-1.78125 -1.859375 -1.78125 -5.359375zm2.40625 0q0 2.65625 1.15625 3.984375q1.15625 1.3125 2.90625 1.3125q1.75 0 2.90625 -1.328125q1.15625 -1.328125 1.15625 -4.046875q0 -2.5625 -1.171875 -3.890625q-1.15625 -1.328125 -2.890625 -1.328125q-1.75 0 -2.90625 1.328125q-1.15625 1.3125 -1.15625 3.96875zm12.340561 2.78125l2.328125 -0.359375q0.1875 1.390625 1.078125 2.140625q0.890625 0.734375 2.5 0.734375q1.609375 0 2.390625 -0.65625q0.78125 -0.65625 0.78125 -1.546875q0 -0.796875 -0.6875 -1.25q-0.484375 -0.3125 -2.390625 -0.796875q-2.578125 -0.65625 -3.578125 -1.125q-1.0 -0.46875 -1.515625 -1.3125q-0.515625 -0.84375 -0.515625 -1.859375q0 -0.921875 0.421875 -1.703125q0.4375 -0.796875 1.15625 -1.3125q0.546875 -0.40625 1.484375 -0.6875q0.953125 -0.28125 2.03125 -0.28125q1.625 0 2.859375 0.46875q1.234375 0.46875 1.8125 1.28125q0.59375 0.796875 0.8125 2.140625l-2.296875 0.3125q-0.15625 -1.078125 -0.90625 -1.671875q-0.75 -0.59375 -2.109375 -0.59375q-1.609375 0 -2.3125 0.53125q-0.6875 0.53125 -0.6875 1.25q0 0.453125 0.296875 0.8125q0.28125 0.375 0.890625 0.625q0.359375 0.140625 2.078125 0.609375q2.484375 0.65625 3.46875 1.078125q0.984375 0.421875 1.53125 1.234375q0.5625 0.796875 0.5625 2.0q0 1.171875 -0.6875 2.21875q-0.671875 1.03125 -1.96875 1.59375q-1.28125 0.5625 -2.90625 0.5625q-2.703125 0 -4.125 -1.109375q-1.40625 -1.125 -1.796875 -3.328125z" fill-rule="nonzero"/><path fill="#000000" d="m33.87151 356.99496l0 -19.078125l7.1875 0q1.90625 0 2.90625 0.171875q1.40625 0.234375 2.359375 0.90625q0.953125 0.65625 1.53125 1.84375q0.578125 1.171875 0.578125 2.59375q0 2.4375 -1.5625 4.125q-1.546875 1.6875 -5.59375 1.6875l-4.890625 0l0 7.75l-2.515625 0zm2.515625 -10.015625l4.9375 0q2.453125 0 3.46875 -0.90625q1.03125 -0.90625 1.03125 -2.5625q0 -1.203125 -0.609375 -2.046875q-0.59375 -0.859375 -1.59375 -1.125q-0.625 -0.171875 -2.34375 -0.171875l-4.890625 0l0 6.8125zm14.9357605 10.015625l0 -13.828125l2.109375 0l0 2.09375q0.796875 -1.46875 1.484375 -1.9375q0.6875 -0.46875 1.5 -0.46875q1.1875 0 2.40625 0.765625l-0.796875 2.171875q-0.859375 -0.515625 -1.71875 -0.515625q-0.765625 0 -1.390625 0.46875q-0.609375 0.453125 -0.859375 1.28125q-0.390625 1.25 -0.390625 2.734375l0 7.234375l-2.34375 0zm8.0329895 -6.90625q0 -3.84375 2.125 -5.6875q1.78125 -1.546875 4.343754 -1.546875q2.859375 0 4.65625 1.875q1.8125 1.859375 1.8125 5.15625q0 2.671875 -0.796875 4.203125q-0.796875 1.53125 -2.328125 2.375q-1.53125 0.84375 -3.34375 0.84375q-2.8906288 0 -4.687504 -1.859375q-1.78125 -1.859375 -1.78125 -5.359375zm2.40625 0q0 2.65625 1.15625 3.984375q1.1562538 1.3125 2.9062538 1.3125q1.75 0 2.90625 -1.328125q1.15625 -1.328125 1.15625 -4.046875q0 -2.5625 -1.171875 -3.890625q-1.15625 -1.328125 -2.890625 -1.328125q-1.75 0 -2.9062538 1.328125q-1.15625 1.3125 -1.15625 3.96875zm22.246815 6.90625l0 -1.75q-1.3125 2.0625 -3.859375 2.0625q-1.65625 0 -3.046875 -0.90625q-1.375 -0.921875 -2.140625 -2.546875q-0.765625 -1.640625 -0.765625 -3.75q0 -2.078125 0.6875 -3.765625q0.703125 -1.6875 2.078125 -2.578125q1.375 -0.90625 3.078125 -0.90625q1.25 0 2.21875 0.53125q0.984375 0.53125 1.59375 1.375l0 -6.84375l2.34375 0l0 19.078125l-2.1875 0zm-7.40625 -6.890625q0 2.640625 1.125 3.96875q1.125 1.3125 2.640625 1.3125q1.53125 0 2.609375 -1.25q1.078125 -1.265625 1.078125 -3.84375q0 -2.84375 -1.09375 -4.171875q-1.09375 -1.328125 -2.703125 -1.328125q-1.546875 0 -2.609375 1.28125q-1.046875 1.28125 -1.046875 4.03125zm22.324936 6.890625l0 -2.03125q-1.609375 2.34375 -4.375 2.34375q-1.234375 0 -2.296875 -0.46875q-1.0625 -0.46875 -1.578125 -1.171875q-0.5 -0.71875 -0.71875 -1.75q-0.140625 -0.6875 -0.140625 -2.1875l0 -8.5625l2.34375 0l0 7.671875q0 1.828125 0.140625 2.46875q0.21875 0.921875 0.9375 1.453125q0.71875 0.53125 1.765625 0.53125q1.0625 0 1.984375 -0.53125q0.921875 -0.546875 1.296875 -1.46875q0.390625 -0.9375 0.390625 -2.71875l0 -7.40625l2.34375 0l0 13.828125l-2.09375 0zm10.887436 -2.09375l0.328125 2.0625q-0.984375 0.21875 -1.765625 0.21875q-1.265625 0 -1.96875 -0.40625q-0.703125 -0.40625 -1.0 -1.0625q-0.28125 -0.65625 -0.28125 -2.765625l0 -7.953125l-1.71875 0l0 -1.828125l1.71875 0l0 -3.421875l2.328125 -1.40625l0 4.828125l2.359375 0l0 1.828125l-2.359375 0l0 8.078125q0 1.0 0.125 1.296875q0.125 0.28125 0.40625 0.453125q0.28125 0.171875 0.796875 0.171875q0.390625 0 1.03125 -0.09375zm1.4215851 -4.8125q0 -3.84375 2.125 -5.6875q1.78125 -1.546875 4.34375 -1.546875q2.859375 0 4.65625 1.875q1.8125 1.859375 1.8125 5.15625q0 2.671875 -0.796875 4.203125q-0.796875 1.53125 -2.328125 2.375q-1.53125 0.84375 -3.34375 0.84375q-2.890625 0 -4.6875 -1.859375q-1.78125 -1.859375 -1.78125 -5.359375zm2.40625 0q0 2.65625 1.15625 3.984375q1.15625 1.3125 2.90625 1.3125q1.75 0 2.90625 -1.328125q1.15625 -1.328125 1.15625 -4.046875q0 -2.5625 -1.171875 -3.890625q-1.15625 -1.328125 -2.890625 -1.328125q-1.75 0 -2.90625 1.328125q-1.15625 1.3125 -1.15625 3.96875zm12.340561 2.78125l2.3281174 -0.359375q0.1875 1.390625 1.078125 2.140625q0.890625 0.734375 2.5 0.734375q1.609375 0 2.390625 -0.65625q0.78125 -0.65625 0.78125 -1.546875q0 -0.796875 -0.6875 -1.25q-0.484375 -0.3125 -2.390625 -0.796875q-2.578125 -0.65625 -3.578125 -1.125q-0.9999924 -0.46875 -1.5156174 -1.3125q-0.515625 -0.84375 -0.515625 -1.859375q0 -0.921875 0.421875 -1.703125q0.4375 -0.796875 1.15625 -1.3125q0.5468674 -0.40625 1.4843674 -0.6875q0.953125 -0.28125 2.03125 -0.28125q1.625 0 2.859375 0.46875q1.234375 0.46875 1.8125 1.28125q0.59375 0.796875 0.8125 2.140625l-2.296875 0.3125q-0.15625 -1.078125 -0.90625 -1.671875q-0.75 -0.59375 -2.109375 -0.59375q-1.609375 0 -2.3125 0.53125q-0.6875 0.53125 -0.6875 1.25q0 0.453125 0.296875 0.8125q0.28125 0.375 0.890625 0.625q0.359375 0.140625 2.078125 0.609375q2.484375 0.65625 3.46875 1.078125q0.984375 0.421875 1.53125 1.234375q0.5625 0.796875 0.5625 2.0q0 1.171875 -0.6875 2.21875q-0.671875 1.03125 -1.96875 1.59375q-1.28125 0.5625 -2.90625 0.5625q-2.703125 0 -4.1249924 -1.109375q-1.40625 -1.125 -1.796875 -3.328125z" fill-rule="nonzero"/><path fill="#000000" d="m33.012135 382.86996l2.375 -0.21875q0.171875 1.4375 0.78125 2.359375q0.625 0.90625 1.921875 1.484375q1.3125 0.5625 2.9375 0.5625q1.4375 0 2.546875 -0.421875q1.109375 -0.4375 1.640625 -1.1875q0.546875 -0.75 0.546875 -1.640625q0 -0.890625 -0.53125 -1.5625q-0.515625 -0.671875 -1.703125 -1.125q-0.765625 -0.296875 -3.40625 -0.921875q-2.625 -0.640625 -3.671875 -1.203125q-1.375 -0.71875 -2.046875 -1.765625q-0.671875 -1.0625 -0.671875 -2.375q0 -1.453125 0.8125 -2.703125q0.828125 -1.265625 2.40625 -1.90625q1.578125 -0.65625 3.5 -0.65625q2.125 0 3.734375 0.6875q1.625 0.671875 2.5 2.0q0.875 1.328125 0.9375 3.015625l-2.421875 0.1875q-0.1875 -1.8125 -1.3125 -2.734375q-1.125 -0.9375 -3.328125 -0.9375q-2.296875 0 -3.34375 0.84375q-1.046875 0.84375 -1.046875 2.03125q0 1.015625 0.75 1.6875q0.71875 0.65625 3.796875 1.359375q3.078125 0.703125 4.234375 1.21875q1.65625 0.765625 2.453125 1.953125q0.796875 1.171875 0.796875 2.703125q0 1.53125 -0.875 2.875q-0.875 1.34375 -2.515625 2.09375q-1.625 0.75 -3.671875 0.75q-2.59375 0 -4.34375 -0.75q-1.75 -0.765625 -2.75 -2.28125q-0.984375 -1.515625 -1.03125 -3.421875zm27.795135 1.671875l2.421875 0.296875q-0.578125 2.125 -2.125 3.296875q-1.546875 1.171875 -3.953125 1.171875q-3.03125 0 -4.8125 -1.859375q-1.78125 -1.875 -1.78125 -5.25q0 -3.484375 1.796875 -5.40625q1.796875 -1.9375 4.671875 -1.9375q2.765625 0 4.515625 1.890625q1.765625 1.890625 1.765625 5.3125q0 0.203125 -0.015625 0.625l-10.3125 0q0.140625 2.28125 1.296875 3.5q1.15625 1.203125 2.890625 1.203125q1.28125 0 2.1875 -0.671875q0.921875 -0.6875 1.453125 -2.171875zm-7.6875 -3.78125l7.71875 0q-0.15625 -1.75 -0.890625 -2.625q-1.125 -1.34375 -2.90625 -1.34375q-1.609375 0 -2.71875 1.078125q-1.09375 1.078125 -1.203125 2.890625zm13.028065 8.234375l0 -13.828125l2.109375 0l0 2.09375q0.796875 -1.46875 1.484375 -1.9375q0.6875 -0.46875 1.5 -0.46875q1.1875 0 2.40625 0.765625l-0.796875 2.171875q-0.859375 -0.515625 -1.71875 -0.515625q-0.765625 0 -1.390625 0.46875q-0.609375 0.453125 -0.859375 1.28125q-0.390625 1.25 -0.390625 2.734375l0 7.234375l-2.34375 0zm12.7361145 0l-5.25 -13.828125l2.46875 0l2.96875 8.28125q0.484375 1.34375 0.890625 2.78125q0.296875 -1.09375 0.859375 -2.625l3.078125 -8.4375l2.40625 0l-5.234375 13.828125l-2.1875 0zm9.5 -16.390625l0 -2.6875l2.34375 0l0 2.6875l-2.34375 0zm0 16.390625l0 -13.828125l2.34375 0l0 13.828125l-2.34375 0zm14.93779 -5.0625l2.296875 0.296875q-0.375 2.390625 -1.9375 3.734375q-1.546875 1.34375 -3.8125 1.34375q-2.84375 0 -4.5625 -1.84375q-1.71875 -1.859375 -1.71875 -5.328125q0 -2.234375 0.734375 -3.90625q0.75 -1.6875 2.265625 -2.53125q1.515625 -0.84375 3.296875 -0.84375q2.25 0 3.671875 1.140625q1.4375 1.140625 1.84375 3.234375l-2.28125 0.359375q-0.328125 -1.390625 -1.15625 -2.09375q-0.8125 -0.703125 -1.984375 -0.703125q-1.78125 0 -2.890625 1.265625q-1.09375 1.265625 -1.09375 4.015625q0 2.78125 1.0625 4.046875q1.0625 1.265625 2.78125 1.265625q1.390625 0 2.3125 -0.84375q0.921875 -0.859375 1.171875 -2.609375zm-5.4375 6.796875l0.671875 -2.296875l1.75 0l-0.4375 1.390625q1.109375 0.125 1.671875 0.671875q0.5625 0.5625 0.5625 1.234375q0 0.984375 -0.9375 1.734375q-0.9375 0.75 -2.828125 0.75q-1.0625 0 -1.875 -0.15625l0.140625 -1.53125q0.84375 0.0625 1.234375 0.0625q1.21875 0 1.71875 -0.34375q0.375 -0.265625 0.375 -0.640625q0 -0.234375 -0.15625 -0.421875q-0.140625 -0.171875 -0.546875 -0.3125q-0.40625 -0.125 -1.34375 -0.140625zm8.875 -8.640625q0 -3.84375 2.125 -5.6875q1.78125 -1.546875 4.34375 -1.546875q2.859375 0 4.65625 1.875q1.8125 1.859375 1.8125 5.15625q0 2.671875 -0.796875 4.203125q-0.796875 1.53125 -2.328125 2.375q-1.53125 0.84375 -3.34375 0.84375q-2.890625 0 -4.6875 -1.859375q-1.78125 -1.859375 -1.78125 -5.359375zm2.40625 0q0 2.65625 1.15625 3.984375q1.15625 1.3125 2.90625 1.3125q1.75 0 2.90625 -1.328125q1.15625 -1.328125 1.15625 -4.046875q0 -2.5625 -1.171875 -3.890625q-1.15625 -1.328125 -2.890625 -1.328125q-1.75 0 -2.90625 1.328125q-1.15625 1.3125 -1.15625 3.96875zm12.340561 2.78125l2.328125 -0.359375q0.1875 1.390625 1.078125 2.140625q0.890625 0.734375 2.5 0.734375q1.6093674 0 2.3906174 -0.65625q0.78125 -0.65625 0.78125 -1.546875q0 -0.796875 -0.6875 -1.25q-0.484375 -0.3125 -2.3906174 -0.796875q-2.578125 -0.65625 -3.578125 -1.125q-1.0 -0.46875 -1.515625 -1.3125q-0.515625 -0.84375 -0.515625 -1.859375q0 -0.921875 0.421875 -1.703125q0.4375 -0.796875 1.15625 -1.3125q0.546875 -0.40625 1.484375 -0.6875q0.953125 -0.28125 2.03125 -0.28125q1.6249924 0 2.8593674 0.46875q1.234375 0.46875 1.8125 1.28125q0.59375 0.796875 0.8125 2.140625l-2.296875 0.3125q-0.15625 -1.078125 -0.90625 -1.671875q-0.75 -0.59375 -2.1093674 -0.59375q-1.609375 0 -2.3125 0.53125q-0.6875 0.53125 -0.6875 1.25q0 0.453125 0.296875 0.8125q0.28125 0.375 0.890625 0.625q0.359375 0.140625 2.078125 0.609375q2.4843674 0.65625 3.4687424 1.078125q0.984375 0.421875 1.53125 1.234375q0.5625 0.796875 0.5625 2.0q0 1.171875 -0.6875 2.21875q-0.671875 1.03125 -1.96875 1.59375q-1.28125 0.5625 -2.9062424 0.5625q-2.703125 0 -4.125 -1.109375q-1.40625 -1.125 -1.796875 -3.328125z" fill-rule="nonzero"/><path fill="#000000" fill-opacity="0.0" d="m5.9217515 51.8458l267.50638 0l0 61.40315l-267.50638 0z" fill-rule="evenodd"/><path fill="#000000" d="m90.13821 81.8758q0 -3.796875 1.140625 -6.359375q0.84375 -1.90625 2.296875 -3.40625q1.46875 -1.5 3.21875 -2.234375q2.3125 -0.984375 5.34375 -0.984375q5.484375 0 8.765625 3.40625q3.296875 3.40625 3.296875 9.453125q0 6.015625 -3.265625 9.40625q-3.265625 3.390625 -8.71875 3.390625q-5.546875 0 -8.8125 -3.375q-3.265625 -3.375 -3.265625 -9.296875zm5.171875 -0.171875q0 4.21875 1.9375 6.390625q1.953125 2.171875 4.9375 2.171875q3.0 0 4.921875 -2.15625q1.921875 -2.15625 1.921875 -6.46875q0 -4.265625 -1.875 -6.359375q-1.859375 -2.109375 -4.96875 -2.109375q-3.09375 0 -4.984375 2.125q-1.890625 2.125 -1.890625 6.40625zm20.691116 -5.546875l2.640625 0l0 -1.359375q0 -2.265625 0.484375 -3.375q0.484375 -1.125 1.765625 -1.828125q1.296875 -0.703125 3.28125 -0.703125q2.03125 0 3.9843674 0.609375l-0.6562424 3.3125q-1.125 -0.265625 -2.171875 -0.265625q-1.03125 0 -1.484375 0.484375q-0.453125 0.484375 -0.453125 1.859375l0 1.265625l3.5625 0l0 3.734375l-3.5625 0l0 14.234375l-4.75 0l0 -14.234375l-2.640625 0l0 -3.734375zm24.02517 12.25l4.734375 0.796875q-0.90625 2.609375 -2.875 3.96875q-1.96875 1.359375 -4.9375 1.359375q-4.6875 0 -6.9375 -3.0625q-1.78125 -2.453125 -1.78125 -6.1875q0 -4.46875 2.328125 -7.0q2.34375 -2.53125 5.921875 -2.53125q4.0 0 6.3125 2.65625q2.328125 2.640625 2.234375 8.109375l-11.921875 0q0.0625 2.109375 1.15625 3.296875q1.09375 1.171875 2.734375 1.171875q1.125 0 1.875 -0.609375q0.765625 -0.609375 1.15625 -1.96875zm0.28125 -4.8125q-0.0625 -2.0625 -1.078125 -3.125q-1.015625 -1.078125 -2.46875 -1.078125q-1.546875 0 -2.5625 1.125q-1.015625 1.140625 -1.0 3.078125l7.109375 0zm13.14917 10.53125l-4.765625 0l0 -17.96875l4.421875 0l0 2.546875q1.125 -1.8125 2.03125 -2.375q0.90625 -0.578125 2.0625 -0.578125q1.625 0 3.125 0.890625l-1.46875 4.15625q-1.203125 -0.78125 -2.234375 -0.78125q-1.0 0 -1.703125 0.546875q-0.6875 0.546875 -1.078125 1.984375q-0.390625 1.4375 -0.390625 6.03125l0 5.546875zm17.174316 -17.96875l0 3.78125l-3.25 0l0 7.25q0 2.203125 0.09375 2.5625q0.09375 0.359375 0.421875 0.609375q0.328125 0.234375 0.796875 0.234375q0.65625 0 1.921875 -0.46875l0.40625 3.703125q-1.671875 0.703125 -3.765625 0.703125q-1.28125 0 -2.3125 -0.421875q-1.03125 -0.4375 -1.515625 -1.125q-0.484375 -0.6875 -0.671875 -1.859375q-0.15625 -0.828125 -0.15625 -3.34375l0 -7.84375l-2.171875 0l0 -3.78125l2.171875 0l0 -3.578125l4.78125 -2.765625l0 6.34375l3.25 0zm6.853302 5.484375l-4.328125 -0.78125q0.734375 -2.609375 2.5 -3.859375q1.78125 -1.25 5.296875 -1.25q3.171875 0 4.734375 0.75q1.5625 0.75 2.1875 1.921875q0.640625 1.15625 0.640625 4.25l-0.046875 5.546875q0 2.375 0.21875 3.5q0.234375 1.125 0.859375 2.40625l-4.703125 0q-0.1875 -0.46875 -0.453125 -1.40625q-0.125 -0.421875 -0.171875 -0.5625q-1.21875 1.1875 -2.609375 1.78125q-1.390625 0.59375 -2.96875 0.59375q-2.765625 0 -4.375 -1.5q-1.59375 -1.515625 -1.59375 -3.8125q0 -1.53125 0.71875 -2.71875q0.734375 -1.1875 2.046875 -1.8125q1.3125 -0.640625 3.78125 -1.125q3.34375 -0.625 4.625 -1.171875l0 -0.46875q0 -1.375 -0.6875 -1.953125q-0.671875 -0.578125 -2.546875 -0.578125q-1.265625 0 -1.984375 0.5q-0.703125 0.5 -1.140625 1.75zm6.359375 3.859375q-0.921875 0.296875 -2.90625 0.71875q-1.96875 0.421875 -2.578125 0.828125q-0.9375 0.671875 -0.9375 1.6875q0 0.984375 0.75 1.71875q0.75 0.734375 1.890625 0.734375q1.296875 0 2.453125 -0.859375q0.875 -0.640625 1.140625 -1.5625q0.1875 -0.609375 0.1875 -2.328125l0 -0.9375z" fill-rule="nonzero"/><path fill="#000000" fill-opacity="0.0" d="m590.6041 51.8458l267.5064 0l0 61.40315l-267.5064 0z" fill-rule="evenodd"/><path fill="#000000" d="m648.8554 69.3133l9.15625 0q3.09375 0 4.71875 0.484375q2.1875 0.640625 3.734375 2.28125q1.5625 1.640625 2.375 4.015625q0.8125 2.375 0.8125 5.859375q0 3.0625 -0.75 5.28125q-0.9375 2.703125 -2.65625 4.390625q-1.3125 1.265625 -3.53125 1.96875q-1.65625 0.53125 -4.421875 0.53125l-9.4375 0l0 -24.8125zm5.015625 4.203125l0 16.421875l3.734375 0q2.09375 0 3.03125 -0.234375q1.21875 -0.296875 2.015625 -1.015625q0.8125 -0.734375 1.3125 -2.40625q0.515625 -1.671875 0.515625 -4.546875q0 -2.875 -0.515625 -4.40625q-0.5 -1.546875 -1.421875 -2.40625q-0.90625 -0.859375 -2.3125 -1.171875q-1.046875 -0.234375 -4.109375 -0.234375l-2.25 0zm30.402649 14.890625l4.734375 0.796875q-0.90625 2.609375 -2.875 3.96875q-1.96875 1.359375 -4.9375 1.359375q-4.6875 0 -6.9375 -3.0625q-1.78125 -2.453125 -1.78125 -6.1875q0 -4.46875 2.328125 -7.0q2.34375 -2.53125 5.921875 -2.53125q4.0 0 6.3125 2.65625q2.328125 2.640625 2.234375 8.109375l-11.921875 0q0.0625 2.109375 1.15625 3.296875q1.09375 1.171875 2.734375 1.171875q1.125 0 1.875 -0.609375q0.765625 -0.609375 1.15625 -1.96875zm0.28125 -4.8125q-0.0625 -2.0625 -1.078125 -3.125q-1.015625 -1.078125 -2.46875 -1.078125q-1.546875 0 -2.5625 1.125q-1.015625 1.140625 -1.0 3.078125l7.109375 0zm8.227234 -7.4375l4.390625 0l0 2.453125q2.34375 -2.859375 5.59375 -2.859375q1.734375 0 3.0 0.71875q1.265625 0.703125 2.078125 2.140625q1.1875 -1.4375 2.5625 -2.140625q1.375 -0.71875 2.921875 -0.71875q1.984375 0 3.34375 0.8125q1.375 0.796875 2.0625 2.34375q0.484375 1.15625 0.484375 3.734375l0 11.484375l-4.75 0l0 -10.265625q0 -2.6875 -0.5 -3.453125q-0.65625 -1.015625 -2.03125 -1.015625q-0.984375 0 -1.875 0.609375q-0.875 0.609375 -1.265625 1.78125q-0.390625 1.171875 -0.390625 3.71875l0 8.625l-4.75 0l0 -9.84375q0 -2.625 -0.265625 -3.390625q-0.25 -0.765625 -0.78125 -1.125q-0.53125 -0.375 -1.4375 -0.375q-1.109375 0 -1.984375 0.59375q-0.875 0.59375 -1.265625 1.703125q-0.375 1.109375 -0.375 3.703125l0 8.734375l-4.765625 0l0 -17.96875zm34.736877 5.484375l-4.328125 -0.78125q0.734375 -2.609375 2.5 -3.859375q1.78125 -1.25 5.296875 -1.25q3.171875 0 4.734375 0.75q1.5625 0.75 2.1875 1.921875q0.640625 1.15625 0.640625 4.25l-0.046875 5.546875q0 2.375 0.21875 3.5q0.234375 1.125 0.859375 2.40625l-4.703125 0q-0.1875 -0.46875 -0.453125 -1.40625q-0.125 -0.421875 -0.171875 -0.5625q-1.21875 1.1875 -2.609375 1.78125q-1.390625 0.59375 -2.96875 0.59375q-2.765625 0 -4.375 -1.5q-1.59375 -1.515625 -1.59375 -3.8125q0 -1.53125 0.71875 -2.71875q0.734375 -1.1875 2.046875 -1.8125q1.3125 -0.640625 3.78125 -1.125q3.34375 -0.625 4.625 -1.171875l0 -0.46875q0 -1.375 -0.6875 -1.953125q-0.671875 -0.578125 -2.546875 -0.578125q-1.265625 0 -1.984375 0.5q-0.703125 0.5 -1.140625 1.75zm6.359375 3.859375q-0.921875 0.296875 -2.90625 0.71875q-1.96875 0.421875 -2.578125 0.828125q-0.9375 0.671875 -0.9375 1.6875q0 0.984375 0.75 1.71875q0.75 0.734375 1.890625 0.734375q1.296875 0 2.453125 -0.859375q0.875 -0.640625 1.140625 -1.5625q0.1875 -0.609375 0.1875 -2.328125l0 -0.9375zm25.695984 8.625l-4.75 0l0 -9.171875q0 -2.90625 -0.3125 -3.765625q-0.296875 -0.859375 -0.984375 -1.328125q-0.6875 -0.46875 -1.640625 -0.46875q-1.234375 0 -2.21875 0.671875q-0.984375 0.671875 -1.359375 1.796875q-0.359375 1.109375 -0.359375 4.125l0 8.140625l-4.75 0l0 -17.96875l4.421875 0l0 2.640625q2.34375 -3.046875 5.921875 -3.046875q1.5625 0 2.859375 0.5625q1.3125 0.5625 1.984375 1.453125q0.671875 0.875 0.921875 2.0q0.265625 1.109375 0.265625 3.1875l0 11.171875zm21.310059 0l-4.421875 0l0 -2.640625q-1.09375 1.546875 -2.59375 2.296875q-1.5 0.75 -3.015625 0.75q-3.09375 0 -5.3125 -2.484375q-2.203125 -2.5 -2.203125 -6.96875q0 -4.578125 2.140625 -6.953125q2.15625 -2.375 5.4375 -2.375q3.015625 0 5.21875 2.5l0 -8.9375l4.75 0l0 24.8125zm-12.6875 -9.375q0 2.875 0.796875 4.15625q1.140625 1.875 3.203125 1.875q1.65625 0 2.796875 -1.390625q1.15625 -1.40625 1.15625 -4.1875q0 -3.09375 -1.125 -4.453125q-1.109375 -1.359375 -2.859375 -1.359375q-1.6875 0 -2.828125 1.34375q-1.140625 1.34375 -1.140625 4.015625zm20.935059 -3.109375l-4.328125 -0.78125q0.734375 -2.609375 2.5 -3.859375q1.78125 -1.25 5.296875 -1.25q3.171875 0 4.734375 0.75q1.5625 0.75 2.1875 1.921875q0.640625 1.15625 0.640625 4.25l-0.046875 5.546875q0 2.375 0.21875 3.5q0.234375 1.125 0.859375 2.40625l-4.703125 0q-0.1875 -0.46875 -0.453125 -1.40625q-0.125 -0.421875 -0.171875 -0.5625q-1.21875 1.1875 -2.609375 1.78125q-1.390625 0.59375 -2.96875 0.59375q-2.765625 0 -4.375 -1.5q-1.59375 -1.515625 -1.59375 -3.8125q0 -1.53125 0.71875 -2.71875q0.734375 -1.1875 2.046875 -1.8125q1.3125 -0.640625 3.78125 -1.125q3.34375 -0.625 4.625 -1.171875l0 -0.46875q0 -1.375 -0.6875 -1.953125q-0.671875 -0.578125 -2.546875 -0.578125q-1.265625 0 -1.984375 0.5q-0.703125 0.5 -1.140625 1.75zm6.359375 3.859375q-0.921875 0.296875 -2.90625 0.71875q-1.96875 0.421875 -2.578125 0.828125q-0.9375 0.671875 -0.9375 1.6875q0 0.984375 0.75 1.71875q0.75 0.734375 1.890625 0.734375q1.296875 0 2.453125 -0.859375q0.875 -0.640625 1.140625 -1.5625q0.1875 -0.609375 0.1875 -2.328125l0 -0.9375z" fill-rule="nonzero"/><path fill="#eeeeee" d="m312.14517 323.08804l44.28 -44.28l0 22.140015l159.8833 0l0 44.28l-159.8833 0l0 22.139984z" fill-rule="evenodd"/><path stroke="#595959" stroke-width="1.0" stroke-linejoin="round" stroke-linecap="butt" d="m312.14517 323.08804l44.28 -44.28l0 22.140015l159.8833 0l0 44.28l-159.8833 0l0 22.139984z" fill-rule="evenodd"/></g></svg>