<svg version="1.1" viewBox="0.0 0.0 960.0 540.0" fill="none" stroke="none" stroke-linecap="square" stroke-miterlimit="10" xmlns:xlink="http://www.w3.org/1999/xlink" xmlns="http://www.w3.org/2000/svg"><clipPath id="ge3f1e05ebb_0_0.0"><path d="m0 0l960.0 0l0 540.0l-960.0 0l0 -540.0z" clip-rule="nonzero"/></clipPath><g clip-path="url(#ge3f1e05ebb_0_0.0)"><path fill="#ffffff" d="m0 0l960.0 0l0 540.0l-960.0 0z" fill-rule="evenodd"/><g filter="url(#shadowFilter-ge3f1e05ebb_0_0.1)"><use xlink:href="#ge3f1e05ebb_0_0.1" transform="matrix(1.0 0.0 0.0 1.0 0.0 2.0)"/></g><defs><filter id="shadowFilter-ge3f1e05ebb_0_0.1" filterUnits="userSpaceOnUse"><feGaussianBlur in="SourceAlpha" stdDeviation="2.0" result="blur"/><feComponentTransfer in="blur" color-interpolation-filters="sRGB"><feFuncR type="linear" slope="0" intercept="0.0"/><feFuncG type="linear" slope="0" intercept="0.0"/><feFuncB type="linear" slope="0" intercept="0.0"/><feFuncA type="linear" slope="0.5" intercept="0"/></feComponentTransfer></filter></defs><g id="ge3f1e05ebb_0_0.1"><path fill="#fff2cc" fill-opacity="0.2416" d="m31.262321 291.39633l0 0c0 -116.788666 128.06067 -211.46457 286.0315 -211.46457l0 0c157.97083 0 286.0315 94.67591 286.0315 211.46457l0 0c0 116.788635 -128.06067 211.46457 -286.0315 211.46457l0 0c-157.97084 0 -286.0315 -94.675934 -286.0315 -211.46457z" fill-rule="evenodd"/><path stroke="#595959" stroke-width="2.0" stroke-linejoin="round" stroke-linecap="butt" d="m31.262321 291.39633l0 0c0 -116.788666 128.06067 -211.46457 286.0315 -211.46457l0 0c157.97083 0 286.0315 94.67591 286.0315 211.46457l0 0c0 116.788635 -128.06067 211.46457 -286.0315 211.46457l0 0c-157.97084 0 -286.0315 -94.675934 -286.0315 -211.46457z" fill-rule="evenodd"/></g><g filter="url(#shadowFilter-ge3f1e05ebb_0_0.2)"><use xlink:href="#ge3f1e05ebb_0_0.2" transform="matrix(1.0 0.0 0.0 1.0 0.0 2.0)"/></g><defs><filter id="shadowFilter-ge3f1e05ebb_0_0.2" filterUnits="userSpaceOnUse"><feGaussianBlur in="SourceAlpha" stdDeviation="2.0" result="blur"/><feComponentTransfer in="blur" color-interpolation-filters="sRGB"><feFuncR type="linear" slope="0" intercept="0.0"/><feFuncG type="linear" slope="0" intercept="0.0"/><feFuncB type="linear" slope="0" intercept="0.0"/><feFuncA type="linear" slope="0.5" intercept="0"/></feComponentTransfer></filter></defs><g id="ge3f1e05ebb_0_0.2"><path fill="#a4c2f4" fill-opacity="0.3258" d="m338.4777 291.41208l0 0c0 -116.788666 128.06067 -211.46457 286.03152 -211.46457l0 0c157.97083 0 286.0315 94.6759 286.0315 211.46457l0 0c0 116.788635 -128.06067 211.46457 -286.0315 211.46457l0 0c-157.97086 0 -286.03152 -94.675934 -286.03152 -211.46457z" fill-rule="evenodd"/><path stroke="#595959" stroke-width="2.0" stroke-linejoin="round" stroke-linecap="butt" d="m338.4777 291.41208l0 0c0 -116.788666 128.06067 -211.46457 286.03152 -211.46457l0 0c157.97083 0 286.0315 94.6759 286.0315 211.46457l0 0c0 116.788635 -128.06067 211.46457 -286.0315 211.46457l0 0c-157.97086 0 -286.03152 -94.675934 -286.03152 -211.46457z" fill-rule="evenodd"/></g><path fill="#000000" fill-opacity="0.0" d="m37.13387 213.4567l309.3858 0l0 101.79529l-309.3858 0z" fill-rule="evenodd"/><path fill="#000000" d="m57.27344 244.21669l0 -14.296875l-5.34375 0l0 -1.921875l12.859371 0l0 1.921875l-5.374996 0l0 14.296875l-2.140625 0zm14.9832115 -3.78125l2.0625 0.25q-0.484375 1.8125 -1.8125 2.8125q-1.3125 0.984375 -3.359375 0.984375q-2.578125 0 -4.09375 -1.578125q-1.4999962 -1.59375 -1.4999962 -4.46875q0 -2.953125 1.5312462 -4.59375q1.53125 -1.640625 3.953125 -1.640625q2.359375 0 3.84375 1.609375q1.5 1.59375 1.5 4.515625q0 0.171875 0 0.53125l-8.765625 0q0.109375 1.9375 1.09375 2.96875q0.984375 1.015625 2.453125 1.015625q1.09375 0 1.859375 -0.5625q0.78125 -0.578125 1.234375 -1.84375zm-6.53125 -3.21875l6.5625 0q-0.140625 -1.484375 -0.75 -2.21875q-0.953125 -1.15625 -2.46875 -1.15625q-1.375 0 -2.3125 0.921875q-0.9375 0.90625 -1.03125 2.453125zm11.069077 7.0l0 -11.75l1.796875 0l0 1.78125q0.6875 -1.25 1.265625 -1.640625q0.578125 -0.40625 1.28125 -0.40625q1.0 0 2.046875 0.640625l-0.6875 1.84375q-0.734375 -0.421875 -1.46875 -0.421875q-0.640625 0 -1.171875 0.390625q-0.515625 0.390625 -0.734375 1.09375q-0.328125 1.0625 -0.328125 2.3125l0 6.15625l-2.0 0zm7.5759583 0l0 -11.75l1.78125 0l0 1.65625q0.546875 -0.875 1.46875 -1.390625q0.921875 -0.53125 2.09375 -0.53125q1.296875 0 2.125 0.546875q0.84375 0.53125 1.1875 1.515625q1.390625 -2.0625 3.625 -2.0625q1.75 0 2.6875 0.96875q0.9375 0.96875 0.9375 2.984375l0 8.0625l-1.96875 0l0 -7.40625q0 -1.1875 -0.203125 -1.703125q-0.1875 -0.53125 -0.703125 -0.84375q-0.5 -0.328125 -1.1875 -0.328125q-1.234375 0 -2.0625 0.828125q-0.8125 0.8125 -0.8125 2.625l0 6.828125l-2.0 0l0 -7.640625q0 -1.3125 -0.484375 -1.96875q-0.484375 -0.671875 -1.59375 -0.671875q-0.84375 0 -1.5625 0.4375q-0.703125 0.4375 -1.03125 1.296875q-0.3125 0.84375 -0.3125 2.453125l0 6.09375l-1.984375 0zm18.122833 -5.875q0 -3.265625 1.8125 -4.828125q1.515625 -1.3125 3.703125 -1.3125q2.421875 0 3.953125 1.59375q1.546875 1.578125 1.546875 4.375q0 2.28125 -0.6875 3.578125q-0.671875 1.296875 -1.984375 2.015625q-1.296875 0.71875 -2.828125 0.71875q-2.46875 0 -4.0 -1.578125q-1.515625 -1.578125 -1.515625 -4.5625zm2.046875 0q0 2.25 0.984375 3.375q0.984375 1.125 2.484375 1.125q1.484375 0 2.46875 -1.125q0.984375 -1.125 0.984375 -3.4375q0 -2.1875 -1.0 -3.296875q-0.984375 -1.125 -2.453125 -1.125q-1.5 0 -2.484375 1.125q-0.984375 1.109375 -0.984375 3.359375zm10.506577 2.375l1.96875 -0.3125q0.15625 1.171875 0.90625 1.8125q0.765625 0.625 2.125 0.625q1.375 0 2.03125 -0.546875q0.671875 -0.5625 0.671875 -1.3125q0 -0.6875 -0.578125 -1.0625q-0.421875 -0.265625 -2.046875 -0.6875q-2.1875 -0.546875 -3.03125 -0.953125q-0.84375 -0.40625 -1.28125 -1.109375q-0.4375 -0.71875 -0.4375 -1.578125q0 -0.796875 0.359375 -1.453125q0.359375 -0.671875 0.984375 -1.125q0.453125 -0.328125 1.25 -0.5625q0.8125 -0.25 1.734375 -0.25q1.375 0 2.421875 0.40625q1.046875 0.390625 1.546875 1.078125q0.5 0.671875 0.6875 1.8125l-1.953125 0.265625q-0.125 -0.90625 -0.765625 -1.40625q-0.640625 -0.515625 -1.796875 -0.515625q-1.375 0 -1.96875 0.453125q-0.578125 0.453125 -0.578125 1.0625q0 0.390625 0.25 0.6875q0.234375 0.328125 0.75 0.53125q0.3125 0.125 1.765625 0.515625q2.109375 0.5625 2.9375 0.921875q0.84375 0.359375 1.3125 1.046875q0.484375 0.6875 0.484375 1.703125q0 1.0 -0.578125 1.875q-0.578125 0.875 -1.671875 1.359375q-1.09375 0.484375 -2.484375 0.484375q-2.296875 0 -3.5 -0.953125q-1.1875 -0.953125 -1.515625 -2.8125zm26.029007 3.5l0 -1.484375q-1.109375 1.75 -3.28125 1.75q-1.40625 0 -2.59375 -0.765625q-1.171875 -0.78125 -1.8125 -2.171875q-0.640625 -1.390625 -0.640625 -3.1875q0 -1.765625 0.578125 -3.1875q0.59375 -1.4375 1.765625 -2.203125q1.171875 -0.765625 2.609375 -0.765625q1.0625 0 1.890625 0.453125q0.84375 0.4375 1.359375 1.15625l0 -5.8125l1.984375 0l0 16.21875l-1.859375 0zm-6.28125 -5.859375q0 2.25 0.9375 3.375q0.953125 1.109375 2.25 1.109375q1.3125 0 2.21875 -1.0625q0.921875 -1.0625 0.921875 -3.265625q0 -2.40625 -0.9375 -3.53125q-0.921875 -1.125 -2.296875 -1.125q-1.3125 0 -2.203125 1.078125q-0.890625 1.078125 -0.890625 3.421875zm10.522202 -0.015625q0 -3.265625 1.8125 -4.828125q1.515625 -1.3125 3.703125 -1.3125q2.421875 0 3.953125 1.59375q1.546875 1.578125 1.546875 4.375q0 2.28125 -0.6875 3.578125q-0.671875 1.296875 -1.984375 2.015625q-1.296875 0.71875 -2.828125 0.71875q-2.46875 0 -4.0 -1.578125q-1.515625 -1.578125 -1.515625 -4.5625zm2.046875 0q0 2.25 0.984375 3.375q0.984375 1.125 2.484375 1.125q1.484375 0 2.46875 -1.125q0.984375 -1.125 0.984375 -3.4375q0 -2.1875 -1.0 -3.296875q-0.984375 -1.125 -2.453125 -1.125q-1.5 0 -2.484375 1.125q-0.984375 1.109375 -0.984375 3.359375zm25.207458 5.875l0 -1.484375q-1.109375 1.75 -3.28125 1.75q-1.40625 0 -2.59375 -0.765625q-1.171875 -0.78125 -1.8125 -2.171875q-0.640625 -1.390625 -0.640625 -3.1875q0 -1.765625 0.578125 -3.1875q0.59375 -1.4375 1.765625 -2.203125q1.171875 -0.765625 2.609375 -0.765625q1.0625 0 1.890625 0.453125q0.84375 0.4375 1.359375 1.15625l0 -5.8125l1.984375 0l0 16.21875l-1.859375 0zm-6.28125 -5.859375q0 2.25 0.9375 3.375q0.953125 1.109375 2.25 1.109375q1.3125 0 2.21875 -1.0625q0.921875 -1.0625 0.921875 -3.265625q0 -2.40625 -0.9375 -3.53125q-0.921875 -1.125 -2.296875 -1.125q-1.3125 0 -2.203125 1.078125q-0.890625 1.078125 -0.890625 3.421875zm10.522202 -0.015625q0 -3.265625 1.8125 -4.828125q1.515625 -1.3125 3.703125 -1.3125q2.421875 0 3.953125 1.59375q1.546875 1.578125 1.546875 4.375q0 2.28125 -0.6875 3.578125q-0.671875 1.296875 -1.984375 2.015625q-1.296875 0.71875 -2.828125 0.71875q-2.46875 0 -4.0 -1.578125q-1.515625 -1.578125 -1.515625 -4.5625zm2.046875 0q0 2.25 0.984375 3.375q0.984375 1.125 2.484375 1.125q1.484375 0 2.46875 -1.125q0.984375 -1.125 0.984375 -3.4375q0 -2.1875 -1.0 -3.296875q-0.984375 -1.125 -2.453125 -1.125q-1.5 0 -2.484375 1.125q-0.984375 1.109375 -0.984375 3.359375zm11.303452 5.875l0 -11.75l1.78125 0l0 1.65625q0.546875 -0.875 1.46875 -1.390625q0.921875 -0.53125 2.09375 -0.53125q1.296875 0 2.125 0.546875q0.84375 0.53125 1.1875 1.515625q1.390625 -2.0625 3.625 -2.0625q1.75 0 2.6875 0.96875q0.9375 0.96875 0.9375 2.984375l0 8.0625l-1.96875 0l0 -7.40625q0 -1.1875 -0.203125 -1.703125q-0.1875 -0.53125 -0.703125 -0.84375q-0.5 -0.328125 -1.1875 -0.328125q-1.234375 0 -2.0625 0.828125q-0.8125 0.8125 -0.8125 2.625l0 6.828125l-2.0 0l0 -7.640625q0 -1.3125 -0.484375 -1.96875q-0.484375 -0.671875 -1.59375 -0.671875q-0.84375 0 -1.5625 0.4375q-0.703125 0.4375 -1.03125 1.296875q-0.3125 0.84375 -0.3125 2.453125l0 6.09375l-1.984375 0zm19.560333 0l0 -11.75l2.0 0l0 11.75l-2.0 0zm-0.09375 -13.203125l1.46875 -3.109375l2.609375 0l-2.421875 3.109375l-1.65625 0zm5.700882 13.203125l0 -11.75l1.78125 0l0 1.671875q1.296875 -1.9375 3.75 -1.9375q1.0625 0 1.953125 0.390625q0.890625 0.375 1.328125 1.0q0.4375 0.609375 0.625 1.46875q0.109375 0.546875 0.109375 1.9375l0 7.21875l-2.0 0l0 -7.140625q0 -1.21875 -0.234375 -1.8125q-0.234375 -0.609375 -0.828125 -0.96875q-0.578125 -0.359375 -1.375 -0.359375q-1.28125 0 -2.203125 0.8125q-0.921875 0.796875 -0.921875 3.046875l0 6.421875l-1.984375 0zm12.600327 -13.921875l0 -2.296875l2.0 0l0 2.296875l-2.0 0zm0 13.921875l0 -11.75l2.0 0l0 11.75l-2.0 0zm4.283493 -5.875q0 -3.265625 1.8125 -4.828125q1.515625 -1.3125 3.703125 -1.3125q2.421875 0 3.953125 1.59375q1.546875 1.578125 1.546875 4.375q0 2.28125 -0.6875 3.578125q-0.671875 1.296875 -1.984375 2.015625q-1.296875 0.71875 -2.828125 0.71875q-2.46875 0 -4.0 -1.578125q-1.515625 -1.578125 -1.515625 -4.5625zm2.046875 0q0 2.25 0.984375 3.375q0.984375 1.125 2.484375 1.125q1.484375 0 2.46875 -1.125q0.984375 -1.125 0.984375 -3.4375q0 -2.1875 -1.0 -3.296875q-0.984375 -1.125 -2.453125 -1.125q-1.5 0 -2.484375 1.125q-0.984375 1.109375 -0.984375 3.359375zm25.082474 10.375l0 -5.75q-0.46875 0.65625 -1.3125 1.09375q-0.828125 0.421875 -1.765625 0.421875q-2.0937653 0 -3.6093903 -1.671875q-1.5 -1.671875 -1.5 -4.578125q0 -1.765625 0.609375 -3.171875q0.625 -1.40625 1.78125 -2.125q1.171875 -0.734375 2.5625153 -0.734375q2.1875 0 3.4375 1.84375l0 -1.578125l1.78125 0l0 16.25l-1.984375 0zm-6.1406403 -10.40625q0 2.265625 0.953125 3.40625q0.953125 1.125 2.2812653 1.125q1.265625 0 2.1875 -1.078125q0.921875 -1.078125 0.921875 -3.28125q0 -2.34375 -0.96875 -3.515625q-0.96875 -1.1875 -2.28125 -1.1875q-1.2968903 0 -2.2031403 1.109375q-0.890625 1.09375 -0.890625 3.421875zm18.944077 5.90625l0 -1.71875q-1.359375 1.984375 -3.71875 1.984375q-1.046875 0 -1.953125 -0.390625q-0.890625 -0.40625 -1.328125 -1.0q-0.4375 -0.609375 -0.609375 -1.484375q-0.125 -0.59375 -0.125 -1.859375l0 -7.28125l1.984375 0l0 6.515625q0 1.5625 0.125 2.109375q0.1875 0.78125 0.796875 1.234375q0.609375 0.4375 1.5 0.4375q0.90625 0 1.6875 -0.453125q0.78125 -0.46875 1.109375 -1.25q0.328125 -0.796875 0.328125 -2.296875l0 -6.296875l1.984375 0l0 11.75l-1.78125 0zm12.944092 -3.78125l2.0625 0.25q-0.484375 1.8125 -1.8125 2.8125q-1.3125 0.984375 -3.359375 0.984375q-2.578125 0 -4.09375 -1.578125q-1.5 -1.59375 -1.5 -4.46875q0 -2.953125 1.53125 -4.59375q1.53125 -1.640625 3.953125 -1.640625q2.359375 0 3.84375 1.609375q1.5 1.59375 1.5 4.515625q0 0.171875 0 0.53125l-8.765625 0q0.109375 1.9375 1.09375 2.96875q0.984375 1.015625 2.453125 1.015625q1.09375 0 1.859375 -0.5625q0.78125 -0.578125 1.234375 -1.84375zm-6.53125 -3.21875l6.5625 0q-0.140625 -1.484375 -0.75 -2.21875q-0.953125 -1.15625 -2.46875 -1.15625q-1.375 0 -2.3125 0.921875q-0.9375 0.90625 -1.03125 2.453125zm17.394958 7.0l0 -11.75l1.78125 0l0 1.671875q1.296875 -1.9375 3.75 -1.9375q1.0625 0 1.953125 0.390625q0.890625 0.375 1.328125 1.0q0.4375 0.609375 0.625 1.46875q0.109375 0.546875 0.109375 1.9375l0 7.21875l-2.0 0l0 -7.140625q0 -1.21875 -0.234375 -1.8125q-0.234375 -0.609375 -0.828125 -0.96875q-0.578125 -0.359375 -1.375 -0.359375q-1.28125 0 -2.203125 0.8125q-0.921875 0.796875 -0.921875 3.046875l0 6.421875l-1.984375 0zm20.256561 -1.453125q-1.109375 0.9375 -2.140625 1.328125q-1.015625 0.390625 -2.1875 0.390625q-1.9375 0 -2.984375 -0.9375q-1.03125 -0.953125 -1.03125 -2.421875q0 -0.859375 0.390625 -1.578125q0.40625 -0.71875 1.03125 -1.140625q0.640625 -0.4375 1.4375 -0.65625q0.59375 -0.15625 1.765625 -0.296875q2.421875 -0.296875 3.5625 -0.6875q0 -0.40625 0 -0.515625q0 -1.21875 -0.5625 -1.71875q-0.765625 -0.671875 -2.265625 -0.671875q-1.40625 0 -2.078125 0.5q-0.671875 0.484375 -0.984375 1.734375l-1.953125 -0.265625q0.265625 -1.25 0.875 -2.015625q0.609375 -0.78125 1.75 -1.1875q1.15625 -0.421875 2.671875 -0.421875q1.515625 0 2.453125 0.359375q0.9375 0.34375 1.375 0.890625q0.453125 0.53125 0.625 1.34375q0.09375 0.515625 0.09375 1.84375l0 2.65625q0 2.78125 0.125 3.515625q0.140625 0.734375 0.515625 1.40625l-2.078125 0q-0.3125 -0.625 -0.40625 -1.453125zm-0.15625 -4.4375q-1.09375 0.4375 -3.265625 0.75q-1.21875 0.171875 -1.734375 0.390625q-0.5 0.21875 -0.78125 0.65625q-0.28125 0.421875 -0.28125 0.9375q0 0.796875 0.609375 1.328125q0.609375 0.53125 1.765625 0.53125q1.140625 0 2.03125 -0.5q0.90625 -0.5 1.328125 -1.375q0.328125 -0.671875 0.328125 -2.0l0 -0.71875zm-6.46875 -7.59375q-0.015625 -1.15625 0.625 -1.84375q0.640625 -0.671875 1.625 -0.671875q0.6875 0 1.859375 0.59375q0.65625 0.328125 1.046875 0.328125q0.359375 0 0.546875 -0.1875q0.1875 -0.203125 0.265625 -0.78125l1.4375 0q-0.046875 1.265625 -0.65625 1.90625q-0.59375 0.625 -1.515625 0.625q-0.703125 0 -1.84375 -0.625q-0.734375 -0.390625 -1.078125 -0.390625q-0.375 0 -0.609375 0.265625q-0.25 0.265625 -0.234375 0.78125l-1.46875 0zm10.819092 7.609375q0 -3.265625 1.8125 -4.828125q1.515625 -1.3125 3.703125 -1.3125q2.421875 0 3.953125 1.59375q1.546875 1.578125 1.546875 4.375q0 2.28125 -0.6875 3.578125q-0.671875 1.296875 -1.984375 2.015625q-1.296875 0.71875 -2.828125 0.71875q-2.46875 0 -4.0 -1.578125q-1.515625 -1.578125 -1.515625 -4.5625zm2.046875 0q0 2.25 0.984375 3.375q0.984375 1.125 2.484375 1.125q1.484375 0 2.46875 -1.125q0.984375 -1.125 0.984375 -3.4375q0 -2.1875 -1.0 -3.296875q-0.984375 -1.125 -2.453125 -1.125q-1.5 0 -2.484375 1.125q-0.984375 1.109375 -0.984375 3.359375z" fill-rule="nonzero"/><path fill="#000000" d="m76.665535 267.9167l1.96875 -0.3125q0.15625 1.171875 0.90625 1.8125q0.765625 0.625 2.125 0.625q1.375 0 2.03125 -0.546875q0.671875 -0.5625 0.671875 -1.3125q0 -0.6875 -0.578125 -1.0625q-0.421875 -0.265625 -2.046875 -0.6875q-2.1875 -0.546875 -3.03125 -0.953125q-0.84375 -0.40625 -1.28125 -1.109375q-0.4375 -0.71875 -0.4375 -1.578125q0 -0.796875 0.359375 -1.453125q0.359375 -0.671875 0.984375 -1.125q0.453125 -0.328125 1.25 -0.5625q0.8125 -0.25 1.734375 -0.25q1.375 0 2.421875 0.40625q1.046875 0.390625 1.546875 1.078125q0.5 0.671875 0.6875 1.8125l-1.953125 0.265625q-0.125 -0.90625 -0.765625 -1.40625q-0.640625 -0.515625 -1.796875 -0.515625q-1.375 0 -1.96875 0.453125q-0.578125 0.453125 -0.578125 1.0625q0 0.390625 0.25 0.6875q0.234375 0.328125 0.75 0.53125q0.3125 0.125 1.765625 0.515625q2.109375 0.5625 2.9375 0.921875q0.84375 0.359375 1.3125 1.046875q0.484375 0.6875 0.484375 1.703125q0 1.0 -0.578125 1.875q-0.578125 0.875 -1.671875 1.359375q-1.09375 0.484375 -2.484375 0.484375q-2.296875 0 -3.5 -0.953125q-1.1875 -0.953125 -1.515625 -2.8125zm19.78125 2.046875q-1.109375 0.9375 -2.140625 1.328125q-1.015625 0.390625 -2.1875 0.390625q-1.9375 0 -2.984375 -0.9375q-1.03125 -0.953125 -1.03125 -2.421875q0 -0.859375 0.390625 -1.578125q0.40625 -0.71875 1.03125 -1.140625q0.640625 -0.4375 1.4375 -0.65625q0.59375 -0.15625 1.765625 -0.296875q2.421875 -0.296875 3.5625 -0.6875q0 -0.40625 0 -0.515625q0 -1.21875 -0.5625 -1.71875q-0.765625 -0.671875 -2.265625 -0.671875q-1.40625 0 -2.078125 0.5q-0.671875 0.484375 -0.984375 1.734375l-1.953125 -0.265625q0.265625 -1.25 0.875 -2.015625q0.609375 -0.78125 1.75 -1.1875q1.15625 -0.421875 2.671875 -0.421875q1.515625 0 2.453125 0.359375q0.9375 0.34375 1.375 0.890625q0.453125 0.53125 0.625 1.34375q0.09375 0.515625 0.09375 1.84375l0 2.65625q0 2.78125 0.125 3.515625q0.140625 0.734375 0.515625 1.40625l-2.078125 0q-0.3125 -0.625 -0.40625 -1.453125zm-0.15625 -4.4375q-1.09375 0.4375 -3.265625 0.75q-1.21875 0.171875 -1.734375 0.390625q-0.5 0.21875 -0.78125 0.65625q-0.28125 0.421875 -0.28125 0.9375q0 0.796875 0.609375 1.328125q0.609375 0.53125 1.765625 0.53125q1.140625 0 2.03125 -0.5q0.90625 -0.5 1.328125 -1.375q0.328125 -0.671875 0.328125 -2.0l0 -0.71875zm-6.46875 -7.59375q-0.015625 -1.15625 0.625 -1.84375q0.640625 -0.671875 1.625 -0.671875q0.6875 0 1.859375 0.59375q0.65625 0.328125 1.046875 0.328125q0.359375 0 0.546875 -0.1875q0.1875 -0.203125 0.265625 -0.78125l1.4375 0q-0.046875 1.265625 -0.65625 1.90625q-0.59375 0.625 -1.515625 0.625q-0.703125 0 -1.84375 -0.625q-0.734375 -0.390625 -1.078125 -0.390625q-0.375 0 -0.609375 0.265625q-0.25 0.265625 -0.234375 0.78125l-1.46875 0zm10.819077 7.609375q0 -3.265625 1.8125 -4.828125q1.515625 -1.3125 3.703125 -1.3125q2.421875 0 3.953125 1.59375q1.546875 1.578125 1.546875 4.375q0 2.28125 -0.6875 3.578125q-0.671875 1.296875 -1.984375 2.015625q-1.296875 0.71875 -2.828125 0.71875q-2.46875 0 -4.0 -1.578125q-1.515625 -1.578125 -1.515625 -4.5625zm2.046875 0q0 2.25 0.984375 3.375q0.984375 1.125 2.484375 1.125q1.484375 0 2.46875 -1.125q0.984375 -1.125 0.984375 -3.4375q0 -2.1875 -1.0 -3.296875q-0.984375 -1.125 -2.453125 -1.125q-1.5 0 -2.484375 1.125q-0.984375 1.109375 -0.984375 3.359375zm17.598083 -8.046875l0 -2.296875l2.0 0l0 2.296875l-2.0 0zm0 13.921875l0 -11.75l2.0 0l0 11.75l-2.0 0zm5.033493 0l0 -11.75l1.78125 0l0 1.65625q0.546875 -0.875 1.4687576 -1.390625q0.921875 -0.53125 2.09375 -0.53125q1.296875 0 2.125 0.546875q0.84375 0.53125 1.1875 1.515625q1.390625 -2.0625 3.625 -2.0625q1.75 0 2.6875 0.96875q0.9375 0.96875 0.9375 2.984375l0 8.0625l-1.96875 0l0 -7.40625q0 -1.1875 -0.203125 -1.703125q-0.1875 -0.53125 -0.703125 -0.84375q-0.5 -0.328125 -1.1875 -0.328125q-1.234375 0 -2.0625 0.828125q-0.8125 0.8125 -0.8125 2.625l0 6.828125l-2.0 0l0 -7.640625q0 -1.3125 -0.484375 -1.96875q-0.484375 -0.671875 -1.59375 -0.671875q-0.84375 0 -1.5625 0.4375q-0.7031326 0.4375 -1.0312576 1.296875q-0.3125 0.84375 -0.3125 2.453125l0 6.09375l-1.984375 0zm18.87284 4.5l0 -16.25l1.8125 0l0 1.53125q0.640625 -0.90625 1.4375 -1.34375q0.8125 -0.453125 1.96875 -0.453125q1.5 0 2.640625 0.78125q1.15625 0.765625 1.734375 2.1875q0.59375 1.40625 0.59375 3.078125q0 1.8125 -0.640625 3.265625q-0.640625 1.4375 -1.875 2.203125q-1.234375 0.765625 -2.59375 0.765625q-1.0 0 -1.796875 -0.421875q-0.78125 -0.421875 -1.296875 -1.0625l0 5.71875l-1.984375 0zm1.796875 -10.3125q0 2.265625 0.921875 3.359375q0.921875 1.078125 2.21875 1.078125q1.328125 0 2.265625 -1.125q0.953125 -1.125 0.953125 -3.46875q0 -2.25 -0.921875 -3.359375q-0.921875 -1.125 -2.203125 -1.125q-1.28125 0 -2.265625 1.1875q-0.96875 1.1875 -0.96875 3.453125zm10.053452 -0.0625q0 -3.265625 1.8125 -4.828125q1.515625 -1.3125 3.703125 -1.3125q2.421875 0 3.9531097 1.59375q1.546875 1.578125 1.546875 4.375q0 2.28125 -0.6875 3.578125q-0.671875 1.296875 -1.9843597 2.015625q-1.296875 0.71875 -2.828125 0.71875q-2.46875 0 -4.0 -1.578125q-1.515625 -1.578125 -1.515625 -4.5625zm2.046875 0q0 2.25 0.984375 3.375q0.984375 1.125 2.484375 1.125q1.484375 0 2.46875 -1.125q0.984375 -1.125 0.984375 -3.4375q0 -2.1875 -1.0 -3.296875q-0.984375 -1.125 -2.453125 -1.125q-1.5 0 -2.484375 1.125q-0.984375 1.109375 -0.984375 3.359375zm11.272202 5.875l0 -11.75l1.796875 0l0 1.78125q0.6875 -1.25 1.265625 -1.640625q0.578125 -0.40625 1.28125 -0.40625q1.0 0 2.046875 0.640625l-0.6875 1.84375q-0.734375 -0.421875 -1.46875 -0.421875q-0.640625 0 -1.171875 0.390625q-0.515625 0.390625 -0.734375 1.09375q-0.328125 1.0625 -0.328125 2.3125l0 6.15625l-2.0 0zm11.919708 -1.78125l0.28125 1.765625q-0.84375 0.171875 -1.5 0.171875q-1.078125 0 -1.6875 -0.34375q-0.59375 -0.34375 -0.84375 -0.890625q-0.234375 -0.5625 -0.234375 -2.359375l0 -6.765625l-1.46875 0l0 -1.546875l1.46875 0l0 -2.90625l1.984375 -1.203125l0 4.109375l2.0 0l0 1.546875l-2.0 0l0 6.875q0 0.84375 0.09375 1.09375q0.109375 0.25 0.34375 0.390625q0.25 0.140625 0.6875 0.140625q0.328125 0 0.875 -0.078125zm9.607117 0.328125q-1.109375 0.9375 -2.140625 1.328125q-1.015625 0.390625 -2.1875 0.390625q-1.9375 0 -2.984375 -0.9375q-1.03125 -0.953125 -1.03125 -2.421875q0 -0.859375 0.390625 -1.578125q0.40625 -0.71875 1.03125 -1.140625q0.640625 -0.4375 1.4375 -0.65625q0.59375 -0.15625 1.765625 -0.296875q2.421875 -0.296875 3.5625 -0.6875q0 -0.40625 0 -0.515625q0 -1.21875 -0.5625 -1.71875q-0.765625 -0.671875 -2.265625 -0.671875q-1.40625 0 -2.078125 0.5q-0.671875 0.484375 -0.984375 1.734375l-1.953125 -0.265625q0.265625 -1.25 0.875 -2.015625q0.609375 -0.78125 1.75 -1.1875q1.15625 -0.421875 2.671875 -0.421875q1.515625 0 2.453125 0.359375q0.9375 0.34375 1.375 0.890625q0.453125 0.53125 0.625 1.34375q0.09375 0.515625 0.09375 1.84375l0 2.65625q0 2.78125 0.125 3.515625q0.140625 0.734375 0.515625 1.40625l-2.078125 0q-0.3125 -0.625 -0.40625 -1.453125zm-0.15625 -4.4375q-1.09375 0.4375 -3.265625 0.75q-1.21875 0.171875 -1.734375 0.390625q-0.5 0.21875 -0.78125 0.65625q-0.28125 0.421875 -0.28125 0.9375q0 0.796875 0.609375 1.328125q0.609375 0.53125 1.765625 0.53125q1.140625 0 2.03125 -0.5q0.90625 -0.5 1.328125 -1.375q0.328125 -0.671875 0.328125 -2.0l0 -0.71875zm5.100342 5.890625l0 -11.75l1.78125 0l0 1.671875q1.296875 -1.9375 3.75 -1.9375q1.0625 0 1.953125 0.390625q0.890625 0.375 1.328125 1.0q0.4375 0.609375 0.625 1.46875q0.109375 0.546875 0.109375 1.9375l0 7.21875l-2.0 0l0 -7.140625q0 -1.21875 -0.234375 -1.8125q-0.234375 -0.609375 -0.828125 -0.96875q-0.578125 -0.359375 -1.375 -0.359375q-1.28125 0 -2.203125 0.8125q-0.921875 0.796875 -0.921875 3.046875l0 6.421875l-1.984375 0zm16.944061 -1.78125l0.28125 1.765625q-0.84375 0.171875 -1.5 0.171875q-1.078125 0 -1.6875 -0.34375q-0.59375 -0.34375 -0.84375 -0.890625q-0.234375 -0.5625 -0.234375 -2.359375l0 -6.765625l-1.46875 0l0 -1.546875l1.46875 0l0 -2.90625l1.984375 -1.203125l0 4.109375l2.0 0l0 1.546875l-2.0 0l0 6.875q0 0.84375 0.09375 1.09375q0.109375 0.25 0.34375 0.390625q0.25 0.140625 0.6875 0.140625q0.328125 0 0.875 -0.078125zm9.982147 -2.0l2.0625 0.25q-0.484375 1.8125 -1.8125 2.8125q-1.3125 0.984375 -3.359375 0.984375q-2.578125 0 -4.09375 -1.578125q-1.5 -1.59375 -1.5 -4.46875q0 -2.953125 1.53125 -4.59375q1.53125 -1.640625 3.953125 -1.640625q2.359375 0 3.84375 1.609375q1.5 1.59375 1.5 4.515625q0 0.171875 0 0.53125l-8.765625 0q0.109375 1.9375 1.09375 2.96875q0.984375 1.015625 2.453125 1.015625q1.09375 0 1.859375 -0.5625q0.78125 -0.578125 1.234375 -1.84375zm-6.53125 -3.21875l6.5625 0q-0.140625 -1.484375 -0.75 -2.21875q-0.953125 -1.15625 -2.46875 -1.15625q-1.375 0 -2.3125 0.921875q-0.9375 0.90625 -1.03125 2.453125zm10.303436 3.5l1.96875 -0.3125q0.15625 1.171875 0.90625 1.8125q0.765625 0.625 2.125 0.625q1.375 0 2.03125 -0.546875q0.671875 -0.5625 0.671875 -1.3125q0 -0.6875 -0.578125 -1.0625q-0.421875 -0.265625 -2.046875 -0.6875q-2.1875 -0.546875 -3.03125 -0.953125q-0.84375 -0.40625 -1.28125 -1.109375q-0.4375 -0.71875 -0.4375 -1.578125q0 -0.796875 0.359375 -1.453125q0.359375 -0.671875 0.984375 -1.125q0.453125 -0.328125 1.25 -0.5625q0.8125 -0.25 1.734375 -0.25q1.375 0 2.421875 0.40625q1.046875 0.390625 1.546875 1.078125q0.5 0.671875 0.6875 1.8125l-1.953125 0.265625q-0.125 -0.90625 -0.765625 -1.40625q-0.640625 -0.515625 -1.796875 -0.515625q-1.375 0 -1.96875 0.453125q-0.578125 0.453125 -0.578125 1.0625q0 0.390625 0.25 0.6875q0.234375 0.328125 0.75 0.53125q0.3125 0.125 1.765625 0.515625q2.109375 0.5625 2.9375 0.921875q0.84375 0.359375 1.3125 1.046875q0.484375 0.6875 0.484375 1.703125q0 1.0 -0.578125 1.875q-0.578125 0.875 -1.671875 1.359375q-1.09375 0.484375 -2.484375 0.484375q-2.296875 0 -3.5 -0.953125q-1.1875 -0.953125 -1.515625 -2.8125zm18.419647 8.0l0 -16.25l1.8125 0l0 1.53125q0.640625 -0.90625 1.4375 -1.34375q0.8125 -0.453125 1.96875 -0.453125q1.5 0 2.640625 0.78125q1.15625 0.765625 1.734375 2.1875q0.59375 1.40625 0.59375 3.078125q0 1.8125 -0.640625 3.265625q-0.640625 1.4375 -1.875 2.203125q-1.234375 0.765625 -2.59375 0.765625q-1.0 0 -1.796875 -0.421875q-0.78125 -0.421875 -1.296875 -1.0625l0 5.71875l-1.984375 0zm1.796875 -10.3125q0 2.265625 0.921875 3.359375q0.921875 1.078125 2.21875 1.078125q1.328125 0 2.265625 -1.125q0.953125 -1.125 0.953125 -3.46875q0 -2.25 -0.921875 -3.359375q-0.921875 -1.125 -2.203125 -1.125q-1.28125 0 -2.265625 1.1875q-0.96875 1.1875 -0.96875 3.453125zm18.459702 4.359375q-1.109375 0.9375 -2.140625 1.328125q-1.015625 0.390625 -2.1875 0.390625q-1.9375 0 -2.984375 -0.9375q-1.03125 -0.953125 -1.03125 -2.421875q0 -0.859375 0.390625 -1.578125q0.40625 -0.71875 1.03125 -1.140625q0.640625 -0.4375 1.4375 -0.65625q0.59375 -0.15625 1.765625 -0.296875q2.421875 -0.296875 3.5625 -0.6875q0 -0.40625 0 -0.515625q0 -1.21875 -0.5625 -1.71875q-0.765625 -0.671875 -2.265625 -0.671875q-1.40625 0 -2.078125 0.5q-0.671875 0.484375 -0.984375 1.734375l-1.953125 -0.265625q0.265625 -1.25 0.875 -2.015625q0.609375 -0.78125 1.75 -1.1875q1.15625 -0.421875 2.671875 -0.421875q1.515625 0 2.453125 0.359375q0.9375 0.34375 1.375 0.890625q0.453125 0.53125 0.625 1.34375q0.09375 0.515625 0.09375 1.84375l0 2.65625q0 2.78125 0.125 3.515625q0.140625 0.734375 0.515625 1.40625l-2.078125 0q-0.3125 -0.625 -0.40625 -1.453125zm-0.15625 -4.4375q-1.09375 0.4375 -3.265625 0.75q-1.21875 0.171875 -1.734375 0.390625q-0.5 0.21875 -0.78125 0.65625q-0.28125 0.421875 -0.28125 0.9375q0 0.796875 0.609375 1.328125q0.609375 0.53125 1.765625 0.53125q1.140625 0 2.03125 -0.5q0.90625 -0.5 1.328125 -1.375q0.328125 -0.671875 0.328125 -2.0l0 -0.71875zm5.069092 5.890625l0 -11.75l1.796875 0l0 1.78125q0.6875 -1.25 1.265625 -1.640625q0.578125 -0.40625 1.28125 -0.40625q1.0 0 2.046875 0.640625l-0.6875 1.84375q-0.734375 -0.421875 -1.46875 -0.421875q-0.640625 0 -1.171875 0.390625q-0.515625 0.390625 -0.734375 1.09375q-0.328125 1.0625 -0.328125 2.3125l0 6.15625l-2.0 0zm15.232208 -1.453125q-1.109375 0.9375 -2.140625 1.328125q-1.015625 0.390625 -2.1875 0.390625q-1.9375 0 -2.984375 -0.9375q-1.03125 -0.953125 -1.03125 -2.421875q0 -0.859375 0.390625 -1.578125q0.40625 -0.71875 1.03125 -1.140625q0.640625 -0.4375 1.4375 -0.65625q0.59375 -0.15625 1.765625 -0.296875q2.421875 -0.296875 3.5625 -0.6875q0 -0.40625 0 -0.515625q0 -1.21875 -0.5625 -1.71875q-0.765625 -0.671875 -2.265625 -0.671875q-1.40625 0 -2.078125 0.5q-0.671875 0.484375 -0.984375 1.734375l-1.953125 -0.265625q0.265625 -1.25 0.875 -2.015625q0.609375 -0.78125 1.75 -1.1875q1.15625 -0.421875 2.671875 -0.421875q1.515625 0 2.453125 0.359375q0.9375 0.34375 1.375 0.890625q0.453125 0.53125 0.625 1.34375q0.09375 0.515625 0.09375 1.84375l0 2.65625q0 2.78125 0.125 3.515625q0.140625 0.734375 0.515625 1.40625l-2.078125 0q-0.3125 -0.625 -0.40625 -1.453125zm-0.15625 -4.4375q-1.09375 0.4375 -3.265625 0.75q-1.21875 0.171875 -1.734375 0.390625q-0.5 0.21875 -0.78125 0.65625q-0.28125 0.421875 -0.28125 0.9375q0 0.796875 0.609375 1.328125q0.609375 0.53125 1.765625 0.53125q1.140625 0 2.03125 -0.5q0.90625 -0.5 1.328125 -1.375q0.328125 -0.671875 0.328125 -2.0l0 -0.71875zm10.6449585 0.015625q0 -3.265625 1.8125 -4.828125q1.515625 -1.3125 3.703125 -1.3125q2.421875 0 3.953125 1.59375q1.546875 1.578125 1.546875 4.375q0 2.28125 -0.6875 3.578125q-0.671875 1.296875 -1.984375 2.015625q-1.296875 0.71875 -2.828125 0.71875q-2.46875 0 -4.0 -1.578125q-1.515625 -1.578125 -1.515625 -4.5625zm2.046875 0q0 2.25 0.984375 3.375q0.984375 1.125 2.484375 1.125q1.484375 0 2.46875 -1.125q0.984375 -1.125 0.984375 -3.4375q0 -2.1875 -1.0 -3.296875q-0.984375 -1.125 -2.453125 -1.125q-1.5 0 -2.484375 1.125q-0.984375 1.109375 -0.984375 3.359375z" fill-rule="nonzero"/><path fill="#000000" d="m153.50098 295.11667l1.96875 -0.3125q0.15625 1.171875 0.90625 1.8125q0.765625 0.625 2.125 0.625q1.375 0 2.03125 -0.546875q0.671875 -0.5625 0.671875 -1.3125q0 -0.6875 -0.578125 -1.0625q-0.421875 -0.265625 -2.046875 -0.6875q-2.1875 -0.546875 -3.03125 -0.953125q-0.84375 -0.40625 -1.28125 -1.109375q-0.4375 -0.71875 -0.4375 -1.578125q0 -0.796875 0.359375 -1.453125q0.359375 -0.671875 0.984375 -1.125q0.453125 -0.328125 1.25 -0.5625q0.8125 -0.25 1.734375 -0.25q1.375 0 2.421875 0.40625q1.046875 0.390625 1.546875 1.078125q0.5 0.671875 0.6875 1.8125l-1.953125 0.265625q-0.125 -0.90625 -0.765625 -1.40625q-0.640625 -0.515625 -1.796875 -0.515625q-1.375 0 -1.96875 0.453125q-0.578125 0.453125 -0.578125 1.0625q0 0.390625 0.25 0.6875q0.234375 0.328125 0.75 0.53125q0.3125 0.125 1.765625 0.515625q2.109375 0.5625 2.9375 0.921875q0.84375 0.359375 1.3125 1.046875q0.484375 0.6875 0.484375 1.703125q0 1.0 -0.578125 1.875q-0.578125 0.875 -1.671875 1.359375q-1.09375 0.484375 -2.484375 0.484375q-2.296875 0 -3.5 -0.953125q-1.1875 -0.953125 -1.515625 -2.8125zm12.125 -10.421875l0 -2.296875l2.0 0l0 2.296875l-2.0 0zm0 13.921875l0 -11.75l2.0 0l0 11.75l-2.0 0zm4.236618 -3.5l1.96875 -0.3125q0.15625 1.171875 0.90625 1.8125q0.765625 0.625 2.125 0.625q1.375 0 2.03125 -0.546875q0.671875 -0.5625 0.671875 -1.3125q0 -0.6875 -0.578125 -1.0625q-0.421875 -0.265625 -2.046875 -0.6875q-2.1875 -0.546875 -3.03125 -0.953125q-0.84375 -0.40625 -1.28125 -1.109375q-0.4375 -0.71875 -0.4375 -1.578125q0 -0.796875 0.359375 -1.453125q0.359375 -0.671875 0.984375 -1.125q0.453125 -0.328125 1.25 -0.5625q0.8125 -0.25 1.734375 -0.25q1.375 0 2.421875 0.40625q1.046875 0.390625 1.546875 1.078125q0.5 0.671875 0.6875 1.8125l-1.953125 0.265625q-0.125 -0.90625 -0.765625 -1.40625q-0.640625 -0.515625 -1.796875 -0.515625q-1.375 0 -1.96875 0.453125q-0.578125 0.453125 -0.578125 1.0625q0 0.390625 0.25 0.6875q0.234375 0.328125 0.75 0.53125q0.3125 0.125 1.765625 0.515625q2.109375 0.5625 2.9375 0.921875q0.84375 0.359375 1.3125 1.046875q0.484375 0.6875 0.484375 1.703125q0 1.0 -0.578125 1.875q-0.578125 0.875 -1.671875 1.359375q-1.09375 0.484375 -2.484375 0.484375q-2.296875 0 -3.5 -0.953125q-1.1875 -0.953125 -1.515625 -2.8125zm16.46875 1.71875l0.28125 1.765625q-0.84375 0.171875 -1.5 0.171875q-1.078125 0 -1.6875 -0.34375q-0.59375 -0.34375 -0.84375 -0.890625q-0.234375 -0.5625 -0.234375 -2.359375l0 -6.765625l-1.46875 0l0 -1.546875l1.46875 0l0 -2.90625l1.984375 -1.203125l0 4.109375l2.0 0l0 1.546875l-2.0 0l0 6.875q0 0.84375 0.09375 1.09375q0.109375 0.25 0.34375 0.390625q0.25 0.140625 0.6875 0.140625q0.328125 0 0.875 -0.078125zm9.982132 -2.0l2.0625 0.25q-0.484375 1.8125 -1.8125 2.8125q-1.3125 0.984375 -3.359375 0.984375q-2.578125 0 -4.09375 -1.578125q-1.5 -1.59375 -1.5 -4.46875q0 -2.953125 1.53125 -4.59375q1.53125 -1.640625 3.953125 -1.640625q2.359375 0 3.84375 1.609375q1.5 1.59375 1.5 4.515625q0 0.171875 0 0.53125l-8.765625 0q0.109375 1.9375 1.09375 2.96875q0.984375 1.015625 2.453125 1.015625q1.09375 0 1.859375 -0.5625q0.78125 -0.578125 1.234375 -1.84375zm-6.53125 -3.21875l6.5625 0q-0.140625 -1.484375 -0.75 -2.21875q-0.953125 -1.15625 -2.46875 -1.15625q-1.375 0 -2.3125 0.921875q-0.9375 0.90625 -1.03125 2.453125zm11.100327 7.0l0 -11.75l1.78125 0l0 1.65625q0.546875 -0.875 1.46875 -1.390625q0.921875 -0.53125 2.09375 -0.53125q1.296875 0 2.125 0.546875q0.84375 0.53125 1.1875 1.515625q1.390625 -2.0625 3.625 -2.0625q1.75 0 2.6875 0.96875q0.9375 0.96875 0.9375 2.984375l0 8.0625l-1.96875 0l0 -7.40625q0 -1.1875 -0.203125 -1.703125q-0.1875 -0.53125 -0.703125 -0.84375q-0.5 -0.328125 -1.1875 -0.328125q-1.234375 0 -2.0625 0.828125q-0.8125 0.8125 -0.8125 2.625l0 6.828125l-2.0 0l0 -7.640625q0 -1.3125 -0.484375 -1.96875q-0.484375 -0.671875 -1.59375 -0.671875q-0.84375 0 -1.5625 0.4375q-0.703125 0.4375 -1.03125 1.296875q-0.3125 0.84375 -0.3125 2.453125l0 6.09375l-1.984375 0zm26.529083 -1.453125q-1.109375 0.9375 -2.140625 1.328125q-1.015625 0.390625 -2.1875 0.390625q-1.9375 0 -2.984375 -0.9375q-1.03125 -0.953125 -1.03125 -2.421875q0 -0.859375 0.390625 -1.578125q0.40625 -0.71875 1.03125 -1.140625q0.640625 -0.4375 1.4375 -0.65625q0.59375 -0.15625 1.765625 -0.296875q2.421875 -0.296875 3.5625 -0.6875q0 -0.40625 0 -0.515625q0 -1.21875 -0.5625 -1.71875q-0.765625 -0.671875 -2.265625 -0.671875q-1.40625 0 -2.078125 0.5q-0.671875 0.484375 -0.984375 1.734375l-1.953125 -0.265625q0.265625 -1.25 0.875 -2.015625q0.609375 -0.78125 1.75 -1.1875q1.15625 -0.421875 2.671875 -0.421875q1.515625 0 2.453125 0.359375q0.9375 0.34375 1.375 0.890625q0.453125 0.53125 0.625 1.34375q0.09375 0.515625 0.09375 1.84375l0 2.65625q0 2.78125 0.125 3.515625q0.140625 0.734375 0.515625 1.40625l-2.078125 0q-0.3125 -0.625 -0.40625 -1.453125zm-0.15625 -4.4375q-1.09375 0.4375 -3.265625 0.75q-1.21875 0.171875 -1.734375 0.390625q-0.5 0.21875 -0.78125 0.65625q-0.28125 0.421875 -0.28125 0.9375q0 0.796875 0.609375 1.328125q0.609375 0.53125 1.765625 0.53125q1.140625 0 2.03125 -0.5q0.90625 -0.5 1.328125 -1.375q0.328125 -0.671875 0.328125 -2.0l0 -0.71875z" fill-rule="nonzero"/><path fill="#000000" fill-opacity="0.0" d="m606.10236 213.4567l285.85828 0l0 74.33072l-285.85828 0z" fill-rule="evenodd"/><path fill="#000000" d="m635.9065 244.21669l0 -14.296875l-5.34375 0l0 -1.921875l12.859375 0l0 1.921875l-5.375 0l0 14.296875l-2.140625 0zm14.983215 -3.78125l2.0625 0.25q-0.484375 1.8125 -1.8125 2.8125q-1.3125 0.984375 -3.359375 0.984375q-2.578125 0 -4.09375 -1.578125q-1.5 -1.59375 -1.5 -4.46875q0 -2.953125 1.53125 -4.59375q1.53125 -1.640625 3.953125 -1.640625q2.359375 0 3.84375 1.609375q1.5 1.59375 1.5 4.515625q0 0.171875 0 0.53125l-8.765625 0q0.109375 1.9375 1.09375 2.96875q0.984375 1.015625 2.453125 1.015625q1.09375 0 1.859375 -0.5625q0.78125 -0.578125 1.234375 -1.84375zm-6.53125 -3.21875l6.5625 0q-0.140625 -1.484375 -0.75 -2.21875q-0.953125 -1.15625 -2.46875 -1.15625q-1.375 0 -2.3125 0.921875q-0.9375 0.90625 -1.03125 2.453125zm11.069031 7.0l0 -11.75l1.796875 0l0 1.78125q0.6875 -1.25 1.265625 -1.640625q0.578125 -0.40625 1.28125 -0.40625q1.0 0 2.046875 0.640625l-0.6875 1.84375q-0.734375 -0.421875 -1.46875 -0.421875q-0.640625 0 -1.171875 0.390625q-0.515625 0.390625 -0.734375 1.09375q-0.328125 1.0625 -0.328125 2.3125l0 6.15625l-2.0 0zm7.575989 0l0 -11.75l1.78125 0l0 1.65625q0.546875 -0.875 1.46875 -1.390625q0.921875 -0.53125 2.09375 -0.53125q1.296875 0 2.125 0.546875q0.84375 0.53125 1.1875 1.515625q1.390625 -2.0625 3.625 -2.0625q1.75 0 2.6875 0.96875q0.9375 0.96875 0.9375 2.984375l0 8.0625l-1.96875 0l0 -7.40625q0 -1.1875 -0.203125 -1.703125q-0.1875 -0.53125 -0.703125 -0.84375q-0.5 -0.328125 -1.1875 -0.328125q-1.234375 0 -2.0625 0.828125q-0.8125 0.8125 -0.8125 2.625l0 6.828125l-2.0 0l0 -7.640625q0 -1.3125 -0.484375 -1.96875q-0.484375 -0.671875 -1.59375 -0.671875q-0.84375 0 -1.5625 0.4375q-0.703125 0.4375 -1.03125 1.296875q-0.3125 0.84375 -0.3125 2.453125l0 6.09375l-1.984375 0zm18.122803 -5.875q0 -3.265625 1.8125 -4.828125q1.515625 -1.3125 3.703125 -1.3125q2.421875 0 3.953125 1.59375q1.546875 1.578125 1.546875 4.375q0 2.28125 -0.6875 3.578125q-0.671875 1.296875 -1.984375 2.015625q-1.296875 0.71875 -2.828125 0.71875q-2.46875 0 -4.0 -1.578125q-1.515625 -1.578125 -1.515625 -4.5625zm2.046875 0q0 2.25 0.984375 3.375q0.984375 1.125 2.484375 1.125q1.484375 0 2.46875 -1.125q0.984375 -1.125 0.984375 -3.4375q0 -2.1875 -1.0 -3.296875q-0.984375 -1.125 -2.453125 -1.125q-1.5 0 -2.484375 1.125q-0.984375 1.109375 -0.984375 3.359375zm10.506592 2.375l1.96875 -0.3125q0.15625 1.171875 0.90625 1.8125q0.765625 0.625 2.125 0.625q1.375 0 2.03125 -0.546875q0.671875 -0.5625 0.671875 -1.3125q0 -0.6875 -0.578125 -1.0625q-0.421875 -0.265625 -2.046875 -0.6875q-2.1875 -0.546875 -3.03125 -0.953125q-0.84375 -0.40625 -1.28125 -1.109375q-0.4375 -0.71875 -0.4375 -1.578125q0 -0.796875 0.359375 -1.453125q0.359375 -0.671875 0.984375 -1.125q0.453125 -0.328125 1.25 -0.5625q0.8125 -0.25 1.734375 -0.25q1.375 0 2.421875 0.40625q1.046875 0.390625 1.546875 1.078125q0.5 0.671875 0.6875 1.8125l-1.953125 0.265625q-0.125 -0.90625 -0.765625 -1.40625q-0.640625 -0.515625 -1.796875 -0.515625q-1.375 0 -1.96875 0.453125q-0.578125 0.453125 -0.578125 1.0625q0 0.390625 0.25 0.6875q0.234375 0.328125 0.75 0.53125q0.3125 0.125 1.765625 0.515625q2.109375 0.5625 2.9375 0.921875q0.84375 0.359375 1.3125 1.046875q0.484375 0.6875 0.484375 1.703125q0 1.0 -0.578125 1.875q-0.578125 0.875 -1.671875 1.359375q-1.09375 0.484375 -2.484375 0.484375q-2.296875 0 -3.5 -0.953125q-1.1875 -0.953125 -1.515625 -2.8125zm22.763367 1.71875l0.28125 1.765625q-0.84375 0.171875 -1.5 0.171875q-1.078125 0 -1.6875 -0.34375q-0.59375 -0.34375 -0.84375 -0.890625q-0.234375 -0.5625 -0.234375 -2.359375l0 -6.765625l-1.46875 0l0 -1.546875l1.46875 0l0 -2.90625l1.984375 -1.203125l0 4.109375l2.0 0l0 1.546875l-2.0 0l0 6.875q0 0.84375 0.09375 1.09375q0.109375 0.25 0.34375 0.390625q0.25 0.140625 0.6875 0.140625q0.328125 0 0.875 -0.078125zm9.982178 -2.0l2.0625 0.25q-0.484375 1.8125 -1.8125 2.8125q-1.3125 0.984375 -3.359375 0.984375q-2.578125 0 -4.09375 -1.578125q-1.5 -1.59375 -1.5 -4.46875q0 -2.953125 1.53125 -4.59375q1.53125 -1.640625 3.953125 -1.640625q2.359375 0 3.84375 1.609375q1.5 1.59375 1.5 4.515625q0 0.171875 0 0.53125l-8.765625 0q0.109375 1.9375 1.09375 2.96875q0.984375 1.015625 2.453125 1.015625q1.09375 0 1.859375 -0.5625q0.78125 -0.578125 1.234375 -1.84375zm-6.53125 -3.21875l6.5625 0q-0.140625 -1.484375 -0.75 -2.21875q-0.953125 -1.15625 -2.46875 -1.15625q-1.375 0 -2.3125 0.921875q-0.9375 0.90625 -1.03125 2.453125zm2.140625 -6.203125l1.46875 -3.109375l2.609375 0l-2.421875 3.109375l-1.65625 0zm16.615906 8.90625l1.96875 0.25q-0.328125 2.015625 -1.65625 3.171875q-1.3125 1.140625 -3.234375 1.140625q-2.421875 0 -3.890625 -1.578125q-1.453125 -1.578125 -1.453125 -4.515625q0 -1.90625 0.625 -3.328125q0.625 -1.4375 1.90625 -2.140625q1.296875 -0.71875 2.8125 -0.71875q1.921875 0 3.140625 0.96875q1.21875 0.96875 1.5625 2.75l-1.9375 0.296875q-0.28125 -1.1875 -0.984375 -1.78125q-0.703125 -0.59375 -1.703125 -0.59375q-1.5 0 -2.4375 1.078125q-0.9375 1.078125 -0.9375 3.40625q0 2.375 0.90625 3.453125q0.90625 1.0625 2.359375 1.0625q1.171875 0 1.953125 -0.71875q0.796875 -0.71875 1.0 -2.203125zm3.671875 4.296875l0 -11.75l1.78125 0l0 1.671875q1.296875 -1.9375 3.75 -1.9375q1.0625 0 1.953125 0.390625q0.890625 0.375 1.328125 1.0q0.4375 0.609375 0.625 1.46875q0.109375 0.546875 0.109375 1.9375l0 7.21875l-2.0 0l0 -7.140625q0 -1.21875 -0.234375 -1.8125q-0.234375 -0.609375 -0.828125 -0.96875q-0.578125 -0.359375 -1.375 -0.359375q-1.28125 0 -2.203125 0.8125q-0.921875 0.796875 -0.921875 3.046875l0 6.421875l-1.984375 0zm12.600342 -13.921875l0 -2.296875l2.0 0l0 2.296875l-2.0 0zm0 13.921875l0 -11.75l2.0 0l0 11.75l-2.0 0zm12.689758 -4.296875l1.96875 0.25q-0.328125 2.015625 -1.65625 3.171875q-1.3125 1.140625 -3.234375 1.140625q-2.421875 0 -3.890625 -1.578125q-1.453125 -1.578125 -1.453125 -4.515625q0 -1.90625 0.625 -3.328125q0.625 -1.4375 1.90625 -2.140625q1.296875 -0.71875 2.8125 -0.71875q1.921875 0 3.140625 0.96875q1.21875 0.96875 1.5625 2.75l-1.9375 0.296875q-0.28125 -1.1875 -0.984375 -1.78125q-0.703125 -0.59375 -1.703125 -0.59375q-1.5 0 -2.4375 1.078125q-0.9375 1.078125 -0.9375 3.40625q0 2.375 0.90625 3.453125q0.90625 1.0625 2.359375 1.0625q1.171875 0 1.953125 -0.71875q0.796875 -0.71875 1.0 -2.203125zm2.921875 -1.578125q0 -3.265625 1.8125 -4.828125q1.515625 -1.3125 3.703125 -1.3125q2.421875 0 3.953125 1.59375q1.546875 1.578125 1.546875 4.375q0 2.28125 -0.6875 3.578125q-0.671875 1.296875 -1.984375 2.015625q-1.296875 0.71875 -2.828125 0.71875q-2.46875 0 -4.0 -1.578125q-1.515625 -1.578125 -1.515625 -4.5625zm2.046875 0q0 2.25 0.984375 3.375q0.984375 1.125 2.484375 1.125q1.484375 0 2.46875 -1.125q0.984375 -1.125 0.984375 -3.4375q0 -2.1875 -1.0 -3.296875q-0.984375 -1.125 -2.453125 -1.125q-1.5 0 -2.484375 1.125q-0.984375 1.109375 -0.984375 3.359375zm10.506592 2.375l1.96875 -0.3125q0.15625 1.171875 0.90625 1.8125q0.765625 0.625 2.125 0.625q1.375 0 2.03125 -0.546875q0.671875 -0.5625 0.671875 -1.3125q0 -0.6875 -0.578125 -1.0625q-0.421875 -0.265625 -2.046875 -0.6875q-2.1875 -0.546875 -3.03125 -0.953125q-0.84375 -0.40625 -1.28125 -1.109375q-0.4375 -0.71875 -0.4375 -1.578125q0 -0.796875 0.359375 -1.453125q0.359375 -0.671875 0.984375 -1.125q0.453125 -0.328125 1.25 -0.5625q0.8125 -0.25 1.734375 -0.25q1.375 0 2.421875 0.40625q1.046875 0.390625 1.546875 1.078125q0.5 0.671875 0.6875 1.8125l-1.953125 0.265625q-0.125 -0.90625 -0.765625 -1.40625q-0.640625 -0.515625 -1.796875 -0.515625q-1.375 0 -1.96875 0.453125q-0.578125 0.453125 -0.578125 1.0625q0 0.390625 0.25 0.6875q0.234375 0.328125 0.75 0.53125q0.3125 0.125 1.765625 0.515625q2.109375 0.5625 2.9375 0.921875q0.84375 0.359375 1.3125 1.046875q0.484375 0.6875 0.484375 1.703125q0 1.0 -0.578125 1.875q-0.578125 0.875 -1.671875 1.359375q-1.09375 0.484375 -2.484375 0.484375q-2.296875 0 -3.5 -0.953125q-1.1875 -0.953125 -1.515625 -2.8125zm25.903992 8.0l0 -5.75q-0.46875 0.65625 -1.3125 1.09375q-0.828125 0.421875 -1.765625 0.421875q-2.09375 0 -3.609375 -1.671875q-1.5 -1.671875 -1.5 -4.578125q0 -1.765625 0.609375 -3.171875q0.625 -1.40625 1.78125 -2.125q1.171875 -0.734375 2.5625 -0.734375q2.1875 0 3.4375 1.84375l0 -1.578125l1.78125 0l0 16.25l-1.984375 0zm-6.140625 -10.40625q0 2.265625 0.953125 3.40625q0.953125 1.125 2.28125 1.125q1.265625 0 2.1875 -1.078125q0.921875 -1.078125 0.921875 -3.28125q0 -2.34375 -0.96875 -3.515625q-0.96875 -1.1875 -2.28125 -1.1875q-1.296875 0 -2.203125 1.109375q-0.890625 1.09375 -0.890625 3.421875zm18.944092 5.90625l0 -1.71875q-1.359375 1.984375 -3.71875 1.984375q-1.046875 0 -1.953125 -0.390625q-0.890625 -0.40625 -1.328125 -1.0q-0.4375 -0.609375 -0.609375 -1.484375q-0.125 -0.59375 -0.125 -1.859375l0 -7.28125l1.984375 0l0 6.515625q0 1.5625 0.125 2.109375q0.1875 0.78125 0.796875 1.234375q0.609375 0.4375 1.5 0.4375q0.90625 0 1.6875 -0.453125q0.78125 -0.46875 1.109375 -1.25q0.328125 -0.796875 0.328125 -2.296875l0 -6.296875l1.984375 0l0 11.75l-1.78125 0zm12.944031 -3.78125l2.0625 0.25q-0.484375 1.8125 -1.8125 2.8125q-1.3125 0.984375 -3.359375 0.984375q-2.578125 0 -4.09375 -1.578125q-1.5 -1.59375 -1.5 -4.46875q0 -2.953125 1.53125 -4.59375q1.53125 -1.640625 3.953125 -1.640625q2.359375 0 3.84375 1.609375q1.5 1.59375 1.5 4.515625q0 0.171875 0 0.53125l-8.765625 0q0.109375 1.9375 1.09375 2.96875q0.984375 1.015625 2.453125 1.015625q1.09375 0 1.859375 -0.5625q0.78125 -0.578125 1.234375 -1.84375zm-6.53125 -3.21875l6.5625 0q-0.140625 -1.484375 -0.75 -2.21875q-0.953125 -1.15625 -2.46875 -1.15625q-1.375 0 -2.3125 0.921875q-0.9375 0.90625 -1.03125 2.453125zm16.598083 3.5l1.96875 -0.3125q0.15625 1.171875 0.90625 1.8125q0.765625 0.625 2.125 0.625q1.375 0 2.03125 -0.546875q0.671875 -0.5625 0.671875 -1.3125q0 -0.6875 -0.578125 -1.0625q-0.421875 -0.265625 -2.046875 -0.6875q-2.1875 -0.546875 -3.03125 -0.953125q-0.84375 -0.40625 -1.28125 -1.109375q-0.4375 -0.71875 -0.4375 -1.578125q0 -0.796875 0.359375 -1.453125q0.359375 -0.671875 0.984375 -1.125q0.453125 -0.328125 1.25 -0.5625q0.8125 -0.25 1.734375 -0.25q1.375 0 2.421875 0.40625q1.046875 0.390625 1.546875 1.078125q0.5 0.671875 0.6875 1.8125l-1.953125 0.265625q-0.125 -0.90625 -0.765625 -1.40625q-0.640625 -0.515625 -1.796875 -0.515625q-1.375 0 -1.96875 0.453125q-0.578125 0.453125 -0.578125 1.0625q0 0.390625 0.25 0.6875q0.234375 0.328125 0.75 0.53125q0.3125 0.125 1.765625 0.515625q2.109375 0.5625 2.9375 0.921875q0.84375 0.359375 1.3125 1.046875q0.484375 0.6875 0.484375 1.703125q0 1.0 -0.578125 1.875q-0.578125 0.875 -1.671875 1.359375q-1.09375 0.484375 -2.484375 0.484375q-2.296875 0 -3.5 -0.953125q-1.1875 -0.953125 -1.515625 -2.8125zm11.375 -2.375q0 -3.265625 1.8125 -4.828125q1.515625 -1.3125 3.703125 -1.3125q2.421875 0 3.953125 1.59375q1.546875 1.578125 1.546875 4.375q0 2.28125 -0.6875 3.578125q-0.671875 1.296875 -1.984375 2.015625q-1.296875 0.71875 -2.828125 0.71875q-2.46875 0 -4.0 -1.578125q-1.515625 -1.578125 -1.515625 -4.5625zm2.046875 0q0 2.25 0.984375 3.375q0.984375 1.125 2.484375 1.125q1.484375 0 2.46875 -1.125q0.984375 -1.125 0.984375 -3.4375q0 -2.1875 -1.0 -3.296875q-0.984375 -1.125 -2.453125 -1.125q-1.5 0 -2.484375 1.125q-0.984375 1.109375 -0.984375 3.359375zm2.359375 -7.328125l1.46875 -3.109375l2.609375 0l-2.421875 3.109375l-1.65625 0z" fill-rule="nonzero"/><path fill="#000000" d="m630.1558 265.5417q0 -3.265625 1.8125 -4.828125q1.515625 -1.3125 3.703125 -1.3125q2.421875 0 3.953125 1.59375q1.546875 1.578125 1.546875 4.375q0 2.28125 -0.6875 3.578125q-0.671875 1.296875 -1.984375 2.015625q-1.296875 0.71875 -2.828125 0.71875q-2.46875 0 -4.0 -1.578125q-1.515625 -1.578125 -1.515625 -4.5625zm2.046875 0q0 2.25 0.984375 3.375q0.984375 1.125 2.484375 1.125q1.484375 0 2.46875 -1.125q0.984375 -1.125 0.984375 -3.4375q0 -2.1875 -1.0 -3.296875q-0.984375 -1.125 -2.453125 -1.125q-1.5 0 -2.484375 1.125q-0.984375 1.109375 -0.984375 3.359375zm10.506592 2.375l1.96875 -0.3125q0.15625 1.171875 0.90625 1.8125q0.765625 0.625 2.125 0.625q1.375 0 2.03125 -0.546875q0.671875 -0.5625 0.671875 -1.3125q0 -0.6875 -0.578125 -1.0625q-0.421875 -0.265625 -2.046875 -0.6875q-2.1875 -0.546875 -3.03125 -0.953125q-0.84375 -0.40625 -1.28125 -1.109375q-0.4375 -0.71875 -0.4375 -1.578125q0 -0.796875 0.359375 -1.453125q0.359375 -0.671875 0.984375 -1.125q0.453125 -0.328125 1.25 -0.5625q0.8125 -0.25 1.734375 -0.25q1.375 0 2.421875 0.40625q1.046875 0.390625 1.546875 1.078125q0.5 0.671875 0.6875 1.8125l-1.953125 0.265625q-0.125 -0.90625 -0.765625 -1.40625q-0.640625 -0.515625 -1.796875 -0.515625q-1.375 0 -1.96875 0.453125q-0.578125 0.453125 -0.578125 1.0625q0 0.390625 0.25 0.6875q0.234375 0.328125 0.75 0.53125q0.3125 0.125 1.765625 0.515625q2.109375 0.5625 2.9375 0.921875q0.84375 0.359375 1.3125 1.046875q0.484375 0.6875 0.484375 1.703125q0 1.0 -0.578125 1.875q-0.578125 0.875 -1.671875 1.359375q-1.09375 0.484375 -2.484375 0.484375q-2.296875 0 -3.5 -0.953125q-1.1875 -0.953125 -1.515625 -2.8125zm26.028992 3.5l0 -1.484375q-1.109375 1.75 -3.28125 1.75q-1.40625 0 -2.59375 -0.765625q-1.171875 -0.78125 -1.8125 -2.171875q-0.640625 -1.390625 -0.640625 -3.1875q0 -1.765625 0.578125 -3.1875q0.59375 -1.4375 1.765625 -2.203125q1.171875 -0.765625 2.609375 -0.765625q1.0625 0 1.890625 0.453125q0.84375 0.4375 1.359375 1.15625l0 -5.8125l1.984375 0l0 16.21875l-1.859375 0zm-6.28125 -5.859375q0 2.25 0.9375 3.375q0.953125 1.109375 2.25 1.109375q1.3125 0 2.21875 -1.0625q0.921875 -1.0625 0.921875 -3.265625q0 -2.40625 -0.9375 -3.53125q-0.921875 -1.125 -2.296875 -1.125q-1.3125 0 -2.203125 1.078125q-0.890625 1.078125 -0.890625 3.421875zm19.303467 2.078125l2.0625 0.25q-0.484375 1.8125 -1.8125 2.8125q-1.3125 0.984375 -3.359375 0.984375q-2.578125 0 -4.09375 -1.578125q-1.5 -1.59375 -1.5 -4.46875q0 -2.953125 1.53125 -4.59375q1.53125 -1.640625 3.953125 -1.640625q2.359375 0 3.84375 1.609375q1.5 1.59375 1.5 4.515625q0 0.171875 0 0.53125l-8.765625 0q0.109375 1.9375 1.09375 2.96875q0.984375 1.015625 2.453125 1.015625q1.09375 0 1.859375 -0.5625q0.78125 -0.578125 1.234375 -1.84375zm-6.53125 -3.21875l6.5625 0q-0.140625 -1.484375 -0.75 -2.21875q-0.953125 -1.15625 -2.46875 -1.15625q-1.375 0 -2.3125 0.921875q-0.9375 0.90625 -1.03125 2.453125zm14.350342 7.0l-4.46875 -11.75l2.109375 0l2.515625 7.03125q0.421875 1.140625 0.765625 2.375q0.25 -0.9375 0.734375 -2.234375l2.609375 -7.171875l2.046875 0l-4.453125 11.75l-1.859375 0zm7.28125 -3.5l1.96875 -0.3125q0.15625 1.171875 0.90625 1.8125q0.765625 0.625 2.125 0.625q1.375 0 2.03125 -0.546875q0.671875 -0.5625 0.671875 -1.3125q0 -0.6875 -0.578125 -1.0625q-0.421875 -0.265625 -2.046875 -0.6875q-2.1875 -0.546875 -3.03125 -0.953125q-0.84375 -0.40625 -1.28125 -1.109375q-0.4375 -0.71875 -0.4375 -1.578125q0 -0.796875 0.359375 -1.453125q0.359375 -0.671875 0.984375 -1.125q0.453125 -0.328125 1.25 -0.5625q0.8125 -0.25 1.734375 -0.25q1.375 0 2.421875 0.40625q1.046875 0.390625 1.546875 1.078125q0.5 0.671875 0.6875 1.8125l-1.953125 0.265625q-0.125 -0.90625 -0.765625 -1.40625q-0.640625 -0.515625 -1.796875 -0.515625q-1.375 0 -1.96875 0.453125q-0.578125 0.453125 -0.578125 1.0625q0 0.390625 0.25 0.6875q0.234375 0.328125 0.75 0.53125q0.3125 0.125 1.765625 0.515625q2.109375 0.5625 2.9375 0.921875q0.84375 0.359375 1.3125 1.046875q0.484375 0.6875 0.484375 1.703125q0 1.0 -0.578125 1.875q-0.578125 0.875 -1.671875 1.359375q-1.09375 0.484375 -2.484375 0.484375q-2.296875 0 -3.5 -0.953125q-1.1875 -0.953125 -1.515625 -2.8125zm18.419617 8.0l0 -16.25l1.8125 0l0 1.53125q0.640625 -0.90625 1.4375 -1.34375q0.8125 -0.453125 1.96875 -0.453125q1.5 0 2.640625 0.78125q1.15625 0.765625 1.734375 2.1875q0.59375 1.40625 0.59375 3.078125q0 1.8125 -0.640625 3.265625q-0.640625 1.4375 -1.875 2.203125q-1.234375 0.765625 -2.59375 0.765625q-1.0 0 -1.796875 -0.421875q-0.78125 -0.421875 -1.296875 -1.0625l0 5.71875l-1.984375 0zm1.796875 -10.3125q0 2.265625 0.921875 3.359375q0.921875 1.078125 2.21875 1.078125q1.328125 0 2.265625 -1.125q0.953125 -1.125 0.953125 -3.46875q0 -2.25 -0.921875 -3.359375q-0.921875 -1.125 -2.203125 -1.125q-1.28125 0 -2.265625 1.1875q-0.96875 1.1875 -0.96875 3.453125zm10.772217 5.8125l0 -11.75l1.796875 0l0 1.78125q0.6875 -1.25 1.265625 -1.640625q0.578125 -0.40625 1.28125 -0.40625q1.0 0 2.046875 0.640625l-0.6875 1.84375q-0.734375 -0.421875 -1.46875 -0.421875q-0.640625 0 -1.171875 0.390625q-0.515625 0.390625 -0.734375 1.09375q-0.328125 1.0625 -0.328125 2.3125l0 6.15625l-2.0 0zm15.607178 -3.78125l2.0625 0.25q-0.484375 1.8125 -1.8125 2.8125q-1.3125 0.984375 -3.359375 0.984375q-2.578125 0 -4.09375 -1.578125q-1.5 -1.59375 -1.5 -4.46875q0 -2.953125 1.53125 -4.59375q1.53125 -1.640625 3.953125 -1.640625q2.359375 0 3.84375 1.609375q1.5 1.59375 1.5 4.515625q0 0.171875 0 0.53125l-8.765625 0q0.109375 1.9375 1.09375 2.96875q0.984375 1.015625 2.453125 1.015625q1.09375 0 1.859375 -0.5625q0.78125 -0.578125 1.234375 -1.84375zm-6.53125 -3.21875l6.5625 0q-0.140625 -1.484375 -0.75 -2.21875q-0.953125 -1.15625 -2.46875 -1.15625q-1.375 0 -2.3125 0.921875q-0.9375 0.90625 -1.03125 2.453125zm18.756592 2.703125l1.96875 0.25q-0.328125 2.015625 -1.65625 3.171875q-1.3125 1.140625 -3.234375 1.140625q-2.421875 0 -3.890625 -1.578125q-1.453125 -1.578125 -1.453125 -4.515625q0 -1.90625 0.625 -3.328125q0.625 -1.4375 1.90625 -2.140625q1.296875 -0.71875 2.8125 -0.71875q1.921875 0 3.140625 0.96875q1.21875 0.96875 1.5625 2.75l-1.9375 0.296875q-0.28125 -1.1875 -0.984375 -1.78125q-0.703125 -0.59375 -1.703125 -0.59375q-1.5 0 -2.4375 1.078125q-0.9375 1.078125 -0.9375 3.40625q0 2.375 0.90625 3.453125q0.90625 1.0625 2.359375 1.0625q1.171875 0 1.953125 -0.71875q0.796875 -0.71875 1.0 -2.203125zm3.671875 -9.625l0 -2.296875l2.0 0l0 2.296875l-2.0 0zm0 13.921875l0 -11.75l2.0 0l0 11.75l-2.0 0zm4.2366333 -3.5l1.96875 -0.3125q0.15625 1.171875 0.90625 1.8125q0.765625 0.625 2.125 0.625q1.375 0 2.03125 -0.546875q0.671875 -0.5625 0.671875 -1.3125q0 -0.6875 -0.578125 -1.0625q-0.421875 -0.265625 -2.046875 -0.6875q-2.1875 -0.546875 -3.03125 -0.953125q-0.84375 -0.40625 -1.28125 -1.109375q-0.4375 -0.71875 -0.4375 -1.578125q0 -0.796875 0.359375 -1.453125q0.359375 -0.671875 0.984375 -1.125q0.453125 -0.328125 1.25 -0.5625q0.8125 -0.25 1.734375 -0.25q1.375 0 2.421875 0.40625q1.046875 0.390625 1.546875 1.078125q0.5 0.671875 0.6875 1.8125l-1.953125 0.265625q-0.125 -0.90625 -0.765625 -1.40625q-0.640625 -0.515625 -1.796875 -0.515625q-1.375 0 -1.96875 0.453125q-0.578125 0.453125 -0.578125 1.0625q0 0.390625 0.25 0.6875q0.234375 0.328125 0.75 0.53125q0.3125 0.125 1.765625 0.515625q2.109375 0.5625 2.9375 0.921875q0.84375 0.359375 1.3125 1.046875q0.484375 0.6875 0.484375 1.703125q0 1.0 -0.578125 1.875q-0.578125 0.875 -1.671875 1.359375q-1.09375 0.484375 -2.484375 0.484375q-2.296875 0 -3.5 -0.953125q-1.1875 -0.953125 -1.515625 -2.8125zm19.78125 2.046875q-1.109375 0.9375 -2.140625 1.328125q-1.015625 0.390625 -2.1875 0.390625q-1.9375 0 -2.984375 -0.9375q-1.03125 -0.953125 -1.03125 -2.421875q0 -0.859375 0.390625 -1.578125q0.40625 -0.71875 1.03125 -1.140625q0.640625 -0.4375 1.4375 -0.65625q0.59375 -0.15625 1.765625 -0.296875q2.421875 -0.296875 3.5625 -0.6875q0 -0.40625 0 -0.515625q0 -1.21875 -0.5625 -1.71875q-0.765625 -0.671875 -2.265625 -0.671875q-1.40625 0 -2.078125 0.5q-0.671875 0.484375 -0.984375 1.734375l-1.953125 -0.265625q0.265625 -1.25 0.875 -2.015625q0.609375 -0.78125 1.75 -1.1875q1.15625 -0.421875 2.671875 -0.421875q1.515625 0 2.453125 0.359375q0.9375 0.34375 1.375 0.890625q0.453125 0.53125 0.625 1.34375q0.09375 0.515625 0.09375 1.84375l0 2.65625q0 2.78125 0.125 3.515625q0.140625 0.734375 0.515625 1.40625l-2.078125 0q-0.3125 -0.625 -0.40625 -1.453125zm-0.15625 -4.4375q-1.09375 0.4375 -3.265625 0.75q-1.21875 0.171875 -1.734375 0.390625q-0.5 0.21875 -0.78125 0.65625q-0.28125 0.421875 -0.28125 0.9375q0 0.796875 0.609375 1.328125q0.609375 0.53125 1.765625 0.53125q1.140625 0 2.03125 -0.5q0.90625 -0.5 1.328125 -1.375q0.328125 -0.671875 0.328125 -2.0l0 -0.71875zm5.100342 5.890625l0 -11.75l1.78125 0l0 1.65625q0.546875 -0.875 1.46875 -1.390625q0.921875 -0.53125 2.09375 -0.53125q1.296875 0 2.125 0.546875q0.84375 0.53125 1.1875 1.515625q1.390625 -2.0625 3.625 -2.0625q1.75 0 2.6875 0.96875q0.9375 0.96875 0.9375 2.984375l0 8.0625l-1.96875 0l0 -7.40625q0 -1.1875 -0.203125 -1.703125q-0.1875 -0.53125 -0.703125 -0.84375q-0.5 -0.328125 -1.1875 -0.328125q-1.234375 0 -2.0625 0.828125q-0.8125 0.8125 -0.8125 2.625l0 6.828125l-2.0 0l0 -7.640625q0 -1.3125 -0.484375 -1.96875q-0.484375 -0.671875 -1.59375 -0.671875q-0.84375 0 -1.5625 0.4375q-0.703125 0.4375 -1.03125 1.296875q-0.3125 0.84375 -0.3125 2.453125l0 6.09375l-1.984375 0zm24.370544 -3.5l1.96875 -0.3125q0.15625 1.171875 0.90625 1.8125q0.765625 0.625 2.125 0.625q1.375 0 2.03125 -0.546875q0.671875 -0.5625 0.671875 -1.3125q0 -0.6875 -0.578125 -1.0625q-0.421875 -0.265625 -2.046875 -0.6875q-2.1875 -0.546875 -3.03125 -0.953125q-0.84375 -0.40625 -1.28125 -1.109375q-0.4375 -0.71875 -0.4375 -1.578125q0 -0.796875 0.359375 -1.453125q0.359375 -0.671875 0.984375 -1.125q0.453125 -0.328125 1.25 -0.5625q0.8125 -0.25 1.734375 -0.25q1.375 0 2.421875 0.40625q1.046875 0.390625 1.546875 1.078125q0.5 0.671875 0.6875 1.8125l-1.953125 0.265625q-0.125 -0.90625 -0.765625 -1.40625q-0.640625 -0.515625 -1.796875 -0.515625q-1.375 0 -1.96875 0.453125q-0.578125 0.453125 -0.578125 1.0625q0 0.390625 0.25 0.6875q0.234375 0.328125 0.75 0.53125q0.3125 0.125 1.765625 0.515625q2.109375 0.5625 2.9375 0.921875q0.84375 0.359375 1.3125 1.046875q0.484375 0.6875 0.484375 1.703125q0 1.0 -0.578125 1.875q-0.578125 0.875 -1.671875 1.359375q-1.09375 0.484375 -2.484375 0.484375q-2.296875 0 -3.5 -0.953125q-1.1875 -0.953125 -1.515625 -2.8125zm19.78125 2.046875q-1.109375 0.9375 -2.140625 1.328125q-1.015625 0.390625 -2.1875 0.390625q-1.9375 0 -2.984375 -0.9375q-1.03125 -0.953125 -1.03125 -2.421875q0 -0.859375 0.390625 -1.578125q0.40625 -0.71875 1.03125 -1.140625q0.640625 -0.4375 1.4375 -0.65625q0.59375 -0.15625 1.765625 -0.296875q2.421875 -0.296875 3.5625 -0.6875q0 -0.40625 0 -0.515625q0 -1.21875 -0.5625 -1.71875q-0.765625 -0.671875 -2.265625 -0.671875q-1.40625 0 -2.078125 0.5q-0.671875 0.484375 -0.984375 1.734375l-1.953125 -0.265625q0.265625 -1.25 0.875 -2.015625q0.609375 -0.78125 1.75 -1.1875q1.15625 -0.421875 2.671875 -0.421875q1.515625 0 2.453125 0.359375q0.9375 0.34375 1.375 0.890625q0.453125 0.53125 0.625 1.34375q0.09375 0.515625 0.09375 1.84375l0 2.65625q0 2.78125 0.125 3.515625q0.140625 0.734375 0.515625 1.40625l-2.078125 0q-0.3125 -0.625 -0.40625 -1.453125zm-0.15625 -4.4375q-1.09375 0.4375 -3.265625 0.75q-1.21875 0.171875 -1.734375 0.390625q-0.5 0.21875 -0.78125 0.65625q-0.28125 0.421875 -0.28125 0.9375q0 0.796875 0.609375 1.328125q0.609375 0.53125 1.765625 0.53125q1.140625 0 2.03125 -0.5q0.90625 -0.5 1.328125 -1.375q0.328125 -0.671875 0.328125 -2.0l0 -0.71875zm6.928467 5.890625l-1.84375 0l0 -16.21875l1.984375 0l0 5.78125q1.265625 -1.578125 3.21875 -1.578125q1.09375 0 2.0625 0.4375q0.96875 0.4375 1.59375 1.234375q0.625 0.78125 0.96875 1.90625q0.359375 1.109375 0.359375 2.390625q0 3.015625 -1.5 4.671875q-1.484375 1.640625 -3.578125 1.640625q-2.078125 0 -3.265625 -1.734375l0 1.46875zm-0.015625 -5.96875q0 2.125 0.578125 3.0625q0.9375 1.53125 2.53125 1.53125q1.3125 0 2.265625 -1.125q0.953125 -1.140625 0.953125 -3.390625q0 -2.296875 -0.921875 -3.390625q-0.90625 -1.09375 -2.203125 -1.09375q-1.3125 0 -2.265625 1.140625q-0.9375 1.125 -0.9375 3.265625zm18.819092 2.1875l2.0625 0.25q-0.484375 1.8125 -1.8125 2.8125q-1.3125 0.984375 -3.359375 0.984375q-2.578125 0 -4.09375 -1.578125q-1.5 -1.59375 -1.5 -4.46875q0 -2.953125 1.53125 -4.59375q1.53125 -1.640625 3.953125 -1.640625q2.359375 0 3.84375 1.609375q1.5 1.59375 1.5 4.515625q0 0.171875 0 0.53125l-8.765625 0q0.109375 1.9375 1.09375 2.96875q0.984375 1.015625 2.453125 1.015625q1.09375 0 1.859375 -0.5625q0.78125 -0.578125 1.234375 -1.84375zm-6.53125 -3.21875l6.5625 0q-0.140625 -1.484375 -0.75 -2.21875q-0.953125 -1.15625 -2.46875 -1.15625q-1.375 0 -2.3125 0.921875q-0.9375 0.90625 -1.03125 2.453125zm11.069092 7.0l0 -11.75l1.796875 0l0 1.78125q0.6875 -1.25 1.265625 -1.640625q0.578125 -0.40625 1.28125 -0.40625q1.0 0 2.046875 0.640625l-0.6875 1.84375q-0.734375 -0.421875 -1.46875 -0.421875q-0.640625 0 -1.171875 0.390625q-0.515625 0.390625 -0.734375 1.09375q-0.328125 1.0625 -0.328125 2.3125l0 6.15625l-2.0 0z" fill-rule="nonzero"/><path fill="#000000" fill-opacity="0.0" d="m359.64264 213.4567l226.92914 0l0 113.102356l-226.92914 0z" fill-rule="evenodd"/><path fill="#000000" d="m372.9895 259.5767l0 -27.4375l5.578125 0l0 22.78125l13.890625 0l0 4.65625l-19.46875 0zm23.425262 -22.765625l0 -4.90625l5.296875 0l0 4.90625l-5.296875 0zm0 22.765625l0 -20.046875l5.296875 0l0 20.046875l-5.296875 0zm28.974335 0l-5.3125 0l0 -10.234375q0 -3.25 -0.34375 -4.203125q-0.328125 -0.953125 -1.09375 -1.46875q-0.765625 -0.53125 -1.84375 -0.53125q-1.375 0 -2.46875 0.75q-1.09375 0.75 -1.5 2.0q-0.40625 1.25 -0.40625 4.609375l0 9.078125l-5.3125 0l0 -20.046875l4.921875 0l0 2.953125q2.625 -3.40625 6.609375 -3.40625q1.765625 0 3.21875 0.640625q1.453125 0.625 2.1875 1.609375q0.75 0.984375 1.046875 2.234375q0.296875 1.234375 0.296875 3.5625l0 12.453125zm4.8783875 1.328125l6.0625 0.734375q0.15625 1.046875 0.703125 1.453125q0.75 0.5625 2.375 0.5625q2.078125 0 3.109375 -0.625q0.703125 -0.421875 1.0625 -1.34375q0.25 -0.65625 0.25 -2.4375l0 -2.921875q-2.390625 3.25 -6.015625 3.25q-4.03125 0 -6.390625 -3.421875q-1.859375 -2.6875 -1.859375 -6.71875q0 -5.03125 2.421875 -7.6875q2.4375 -2.671875 6.046875 -2.671875q3.71875 0 6.125 3.265625l0 -2.8125l4.96875 0l0 17.984375q0 3.546875 -0.59375 5.296875q-0.578125 1.765625 -1.640625 2.765625q-1.046875 1.0 -2.8125 1.5625q-1.765625 0.578125 -4.46875 0.578125q-5.09375 0 -7.234375 -1.75q-2.125 -1.75 -2.125 -4.421875q0 -0.265625 0.015625 -0.640625zm4.734375 -11.765625q0 3.1875 1.234375 4.671875q1.25 1.484375 3.0625 1.484375q1.9375 0 3.28125 -1.515625q1.34375 -1.53125 1.34375 -4.515625q0 -3.109375 -1.296875 -4.609375q-1.28125 -1.515625 -3.234375 -1.515625q-1.90625 0 -3.15625 1.484375q-1.234375 1.46875 -1.234375 4.515625zm32.565918 10.4375l0 -3.0q-1.09375 1.609375 -2.875 2.53125q-1.78125 0.921875 -3.765625 0.921875q-2.03125 0 -3.640625 -0.890625q-1.59375 -0.890625 -2.3125 -2.484375q-0.71875 -1.609375 -0.71875 -4.4375l0 -12.6875l5.3125 0l0 9.21875q0 4.21875 0.28125 5.171875q0.296875 0.953125 1.0625 1.515625q0.78125 0.546875 1.96875 0.546875q1.359375 0 2.4375 -0.734375q1.078125 -0.75 1.46875 -1.84375q0.40625 -1.109375 0.40625 -5.421875l0 -8.453125l5.296875 0l0 20.046875l-4.921875 0zm14.378387 -13.9375l-4.8125 -0.859375q0.8125 -2.90625 2.796875 -4.296875q1.984375 -1.40625 5.890625 -1.40625q3.546875 0 5.28125 0.84375q1.734375 0.84375 2.4375 2.140625q0.71875 1.28125 0.71875 4.734375l-0.0625 6.1875q0 2.65625 0.25 3.90625q0.265625 1.25 0.96875 2.6875l-5.25 0q-0.21875 -0.53125 -0.515625 -1.5625q-0.125 -0.46875 -0.1875 -0.625q-1.359375 1.3125 -2.90625 1.984375q-1.546875 0.65625 -3.296875 0.65625q-3.109375 0 -4.890625 -1.671875q-1.78125 -1.6875 -1.78125 -4.25q0 -1.703125 0.8125 -3.03125q0.8125 -1.328125 2.265625 -2.03125q1.46875 -0.71875 4.234375 -1.25q3.71875 -0.6875 5.140625 -1.296875l0 -0.53125q0 -1.53125 -0.75 -2.171875q-0.75 -0.65625 -2.84375 -0.65625q-1.421875 0 -2.21875 0.5625q-0.78125 0.546875 -1.28125 1.9375zm7.09375 4.3125q-1.015625 0.34375 -3.21875 0.8125q-2.203125 0.46875 -2.890625 0.921875q-1.03125 0.734375 -1.03125 1.875q0 1.109375 0.828125 1.921875q0.828125 0.8125 2.109375 0.8125q1.4375 0 2.734375 -0.953125q0.96875 -0.703125 1.265625 -1.75q0.203125 -0.671875 0.203125 -2.578125l0 -1.0625zm9.951874 10.953125l6.0625 0.734375q0.15625 1.046875 0.703125 1.453125q0.75 0.5625 2.375 0.5625q2.078125 0 3.109375 -0.625q0.703125 -0.421875 1.0625305 -1.34375q0.25 -0.65625 0.25 -2.4375l0 -2.921875q-2.3906555 3.25 -6.0156555 3.25q-4.03125 0 -6.390625 -3.421875q-1.859375 -2.6875 -1.859375 -6.71875q0 -5.03125 2.421875 -7.6875q2.4375 -2.671875 6.046875 -2.671875q3.71875 0 6.1250305 3.265625l0 -2.8125l4.96875 0l0 17.984375q0 3.546875 -0.59375 5.296875q-0.578125 1.765625 -1.640625 2.765625q-1.046875 1.0 -2.8125 1.5625q-1.7656555 0.578125 -4.4687805 0.578125q-5.09375 0 -7.234375 -1.75q-2.125 -1.75 -2.125 -4.421875q0 -0.265625 0.015625 -0.640625zm4.734375 -11.765625q0 3.1875 1.234375 4.671875q1.25 1.484375 3.0625 1.484375q1.9375 0 3.28125 -1.515625q1.3437805 -1.53125 1.3437805 -4.515625q0 -3.109375 -1.2969055 -4.609375q-1.28125 -1.515625 -3.234375 -1.515625q-1.90625 0 -3.15625 1.484375q-1.234375 1.46875 -1.234375 4.515625zm30.987823 4.0625l5.28125 0.875q-1.015625 2.921875 -3.21875 4.4375q-2.203125 1.515625 -5.5 1.515625q-5.234375 0 -7.75 -3.421875q-1.96875 -2.734375 -1.96875 -6.90625q0 -4.984375 2.59375 -7.796875q2.609375 -2.828125 6.59375 -2.828125q4.46875 0 7.046875 2.953125q2.59375 2.953125 2.484375 9.046875l-13.296875 0q0.0625 2.359375 1.28125 3.671875q1.234375 1.3125 3.0625 1.3125q1.25 0 2.09375 -0.671875q0.859375 -0.6875 1.296875 -2.1875zm0.296875 -5.359375q-0.0625 -2.3125 -1.203125 -3.5q-1.125 -1.203125 -2.75 -1.203125q-1.734375 0 -2.859375 1.265625q-1.140625 1.265625 -1.125 3.4375l7.9375 0zm9.186218 -8.3125l4.890625 0l0 2.734375q2.625 -3.1875 6.25 -3.1875q1.921875 0 3.328125 0.796875q1.421875 0.796875 2.328125 2.390625q1.328125 -1.59375 2.859375 -2.390625q1.53125 -0.796875 3.265625 -0.796875q2.203125 0 3.734375 0.90625q1.53125 0.890625 2.28125 2.625q0.546875 1.28125 0.546875 4.15625l0 12.8125l-5.296875 0l0 -11.453125q0 -2.984375 -0.546875 -3.859375q-0.734375 -1.125 -2.265625 -1.125q-1.125 0 -2.109375 0.6875q-0.96875 0.671875 -1.40625 1.984375q-0.4375 1.3125 -0.4375 4.140625l0 9.625l-5.296875 0l0 -10.984375q0 -2.921875 -0.28125 -3.765625q-0.28125 -0.859375 -0.890625 -1.265625q-0.59375 -0.421875 -1.609375 -0.421875q-1.21875 0 -2.203125 0.65625q-0.984375 0.65625 -1.40625 1.90625q-0.421875 1.25 -0.421875 4.140625l0 9.734375l-5.3125 0l0 -20.046875z" fill-rule="nonzero"/><path fill="#000000" d="m410.39178 278.3048l5.578125 0l0 14.984375q0 3.578125 0.203125 4.625q0.359375 1.703125 1.703125 2.734375q1.359375 1.03125 3.703125 1.03125q2.375 0 3.578125 -0.96875q1.21875 -0.984375 1.453125 -2.390625q0.25 -1.421875 0.25 -4.703125l0 -15.3125l5.59375 0l0 14.53125q0 4.984375 -0.453125 7.046875q-0.453125 2.046875 -1.671875 3.46875q-1.21875 1.421875 -3.265625 2.265625q-2.03125 0.828125 -5.3125 0.828125q-3.96875 0 -6.015625 -0.90625q-2.046875 -0.921875 -3.234375 -2.375q-1.1875 -1.46875 -1.5625 -3.078125q-0.546875 -2.375 -0.546875 -7.015625l0 -14.765625zm27.681946 27.671875l0 -27.671875l5.3125 0l0 9.96875q2.453125 -2.796875 5.8125 -2.796875q3.65625 0 6.046875 2.65625q2.40625 2.65625 2.40625 7.609375q0 5.140625 -2.453125 7.921875q-2.4375 2.765625 -5.9375 2.765625q-1.703125 0 -3.375 -0.859375q-1.671875 -0.859375 -2.890625 -2.53125l0 2.9375l-4.921875 0zm5.265625 -10.453125q0 3.109375 0.984375 4.609375q1.375 2.109375 3.65625 2.109375q1.765625 0 3.0 -1.5q1.234375 -1.5 1.234375 -4.734375q0 -3.4375 -1.25 -4.953125q-1.25 -1.515625 -3.1875 -1.515625q-1.90625 0 -3.171875 1.484375q-1.265625 1.46875 -1.265625 4.5zm18.581512 10.453125l0 -20.046875l5.296875 0l0 20.046875l-5.296875 0zm-0.40625 -22.5l2.609375 -5.640625l5.9375 0l-5.1875 5.640625l-3.359375 0zm24.23996 30.125l0 -10.078125q-1.046875 1.34375 -2.59375 2.125q-1.546875 0.78125 -3.328125 0.78125q-3.421875 0 -5.625 -2.5625q-2.609375 -3.0 -2.609375 -8.140625q0 -4.828125 2.4375 -7.53125q2.453125 -2.71875 6.078125 -2.71875q2.0 0 3.453125 0.859375q1.46875 0.84375 2.609375 2.5625l0 -2.96875l4.875 0l0 27.671875l-5.296875 0zm0.171875 -17.890625q0 -3.078125 -1.265625 -4.578125q-1.25 -1.5 -3.140625 -1.5q-1.921875 0 -3.21875 1.53125q-1.28125 1.53125 -1.28125 4.84375q0 3.3125 1.234375 4.78125q1.25 1.453125 3.078125 1.453125q1.828125 0 3.203125 -1.640625q1.390625 -1.640625 1.390625 -4.890625zm23.534637 10.265625l0 -3.0q-1.09375 1.609375 -2.875 2.53125q-1.78125 0.921875 -3.765625 0.921875q-2.03125 0 -3.640625 -0.890625q-1.59375 -0.890625 -2.3125 -2.484375q-0.71875 -1.609375 -0.71875 -4.4375l0 -12.6875l5.3125 0l0 9.21875q0 4.21875 0.28125 5.171875q0.296875 0.953125 1.0625 1.515625q0.78125 0.546875 1.96875 0.546875q1.359375 0 2.4375 -0.734375q1.078125 -0.75 1.46875 -1.84375q0.40625 -1.109375 0.40625 -5.421875l0 -8.453125l5.2969055 0l0 20.046875l-4.9219055 0zm14.378387 -13.9375l-4.8125 -0.859375q0.8125 -2.90625 2.796875 -4.296875q1.984375 -1.40625 5.890625 -1.40625q3.546875 0 5.28125 0.84375q1.734375 0.84375 2.4375 2.140625q0.71875 1.28125 0.71875 4.734375l-0.0625 6.1875q0 2.65625 0.25 3.90625q0.265625 1.25 0.96875 2.6875l-5.25 0q-0.21875 -0.53125 -0.515625 -1.5625q-0.125 -0.46875 -0.1875 -0.625q-1.359375 1.3125 -2.90625 1.984375q-1.546875 0.65625 -3.296875 0.65625q-3.109375 0 -4.890625 -1.671875q-1.78125 -1.6875 -1.78125 -4.25q0 -1.703125 0.8125 -3.03125q0.8125 -1.328125 2.265625 -2.03125q1.46875 -0.71875 4.234375 -1.25q3.71875 -0.6875 5.140625 -1.296875l0 -0.53125q0 -1.53125 -0.75 -2.171875q-0.75 -0.65625 -2.84375 -0.65625q-1.421875 0 -2.21875 0.5625q-0.78125 0.546875 -1.28125 1.9375zm7.09375 4.3125q-1.015625 0.34375 -3.21875 0.8125q-2.203125 0.46875 -2.890625 0.921875q-1.03125 0.734375 -1.03125 1.875q0 1.109375 0.828125 1.921875q0.828125 0.8125 2.109375 0.8125q1.4375 0 2.734375 -0.953125q0.96875 -0.703125 1.265625 -1.75q0.203125 -0.671875 0.203125 -2.578125l0 -1.0625z" fill-rule="nonzero"/><path fill="#000000" fill-opacity="0.0" d="m129.25984 26.055119l326.3307 0l0 51.716534l-326.3307 0z" fill-rule="evenodd"/><path fill="#000000" d="m140.30672 60.655117l0 -18.921875l3.84375 0l0 15.703125l9.578125 0l0 3.21875l-13.421875 0zm16.142075 -15.703125l0 -3.375l3.671875 0l0 3.375l-3.671875 0zm0 15.703125l0 -13.828125l3.671875 0l0 13.828125l-3.671875 0zm19.984085 0l-3.65625 0l0 -7.046875q0 -2.25 -0.234375 -2.90625q-0.234375 -0.65625 -0.765625 -1.015625q-0.515625 -0.375 -1.265625 -0.375q-0.953125 0 -1.703125 0.53125q-0.75 0.515625 -1.03125 1.375q-0.28125 0.859375 -0.28125 3.171875l0 6.265625l-3.65625 0l0 -13.828125l3.390625 0l0 2.03125q1.8125 -2.34375 4.5625 -2.34375q1.203125 0 2.203125 0.4375q1.015625 0.4375 1.515625 1.125q0.515625 0.671875 0.71875 1.53125q0.203125 0.859375 0.203125 2.453125l0 8.59375zm3.3764496 0.90625l4.171875 0.515625q0.109375 0.71875 0.484375 1.0q0.515625 0.390625 1.640625 0.390625q1.4375 0 2.140625 -0.4375q0.484375 -0.28125 0.734375 -0.921875q0.171875 -0.453125 0.171875 -1.671875l0 -2.015625q-1.640625 2.234375 -4.140625 2.234375q-2.78125 0 -4.40625 -2.359375q-1.28125 -1.859375 -1.28125 -4.625q0 -3.484375 1.671875 -5.3125q1.671875 -1.84375 4.15625 -1.84375q2.5625 0 4.234375 2.25l0 -1.9375l3.421875 0l0 12.40625q0 2.453125 -0.40625 3.65625q-0.40625 1.2187462 -1.140625 1.9062462q-0.71875 0.6875 -1.9375 1.078125q-1.21875 0.390625 -3.078125 0.390625q-3.515625 0 -4.984375 -1.203125q-1.46875 -1.2031212 -1.46875 -3.0468712q0 -0.1875 0.015625 -0.453125zm3.265625 -8.109375q0 2.203125 0.84375 3.234375q0.859375 1.015625 2.109375 1.015625q1.34375 0 2.265625 -1.046875q0.921875 -1.046875 0.921875 -3.109375q0 -2.140625 -0.890625 -3.1875q-0.875 -1.046875 -2.234375 -1.046875q-1.3125 0 -2.171875 1.03125q-0.84375 1.015625 -0.84375 3.109375zm22.454575 7.203125l0 -2.0625q-0.765625 1.09375 -2.0 1.734375q-1.21875 0.640625 -2.578125 0.640625q-1.40625 0 -2.515625 -0.609375q-1.09375 -0.609375 -1.59375 -1.71875q-0.5 -1.109375 -0.5 -3.0625l0 -8.75l3.671875 0l0 6.359375q0 2.90625 0.1875 3.578125q0.203125 0.65625 0.734375 1.046875q0.546875 0.375 1.359375 0.375q0.9375 0 1.671875 -0.515625q0.75 -0.515625 1.015625 -1.28125q0.28125 -0.765625 0.28125 -3.71875l0 -5.84375l3.65625 0l0 13.828125l-3.390625 0zm9.9077 -9.609375l-3.3125 -0.59375q0.5625 -2.0 1.921875 -2.96875q1.375 -0.96875 4.0625 -0.96875q2.453125 0 3.640625 0.578125q1.203125 0.578125 1.6875 1.484375q0.5 0.890625 0.5 3.265625l-0.046875 4.265625q0 1.828125 0.171875 2.703125q0.171875 0.859375 0.65625 1.84375l-3.609375 0q-0.140625 -0.359375 -0.359375 -1.078125q-0.09375 -0.328125 -0.125 -0.4375q-0.9375 0.921875 -2.015625 1.375q-1.0625 0.453125 -2.265625 0.453125q-2.140625 0 -3.375 -1.15625q-1.21875 -1.15625 -1.21875 -2.9375q0 -1.171875 0.546875 -2.078125q0.5625 -0.921875 1.578125 -1.40625q1.015625 -0.484375 2.90625 -0.859375q2.5625 -0.484375 3.5625 -0.890625l0 -0.375q0 -1.046875 -0.53125 -1.5q-0.515625 -0.453125 -1.96875 -0.453125q-0.96875 0 -1.515625 0.390625q-0.546875 0.390625 -0.890625 1.34375zm4.90625 2.96875q-0.703125 0.234375 -2.234375 0.5625q-1.515625 0.328125 -1.984375 0.640625q-0.71875 0.5 -0.71875 1.28125q0 0.765625 0.5625 1.328125q0.578125 0.5625 1.46875 0.5625q0.984375 0 1.890625 -0.65625q0.65625 -0.484375 0.859375 -1.203125q0.15625 -0.46875 0.15625 -1.78125l0 -0.734375zm6.856186 7.546875l4.171875 0.515625q0.109375 0.71875 0.484375 1.0q0.515625 0.390625 1.640625 0.390625q1.4375 0 2.140625 -0.4375q0.484375 -0.28125 0.734375 -0.921875q0.171875 -0.453125 0.171875 -1.671875l0 -2.015625q-1.640625 2.234375 -4.140625 2.234375q-2.78125 0 -4.40625 -2.359375q-1.28125 -1.859375 -1.28125 -4.625q0 -3.484375 1.671875 -5.3125q1.671875 -1.84375 4.15625 -1.84375q2.5625 0 4.234375 2.25l0 -1.9375l3.421875 0l0 12.40625q0 2.453125 -0.40625 3.65625q-0.40625 1.2187462 -1.140625 1.9062462q-0.71875 0.6875 -1.9375 1.078125q-1.21875 0.390625 -3.078125 0.390625q-3.515625 0 -4.984375 -1.203125q-1.46875 -1.2031212 -1.46875 -3.0468712q0 -0.1875 0.015625 -0.453125zm3.265625 -8.109375q0 2.203125 0.84375 3.234375q0.859375 1.015625 2.109375 1.015625q1.34375 0 2.265625 -1.046875q0.921875 -1.046875 0.921875 -3.109375q0 -2.140625 -0.890625 -3.1875q-0.875 -1.046875 -2.234375 -1.046875q-1.3125 0 -2.171875 1.03125q-0.84375 1.015625 -0.84375 3.109375zm21.360825 2.796875l3.640625 0.625q-0.703125 2.0 -2.21875 3.046875q-1.515625 1.046875 -3.796875 1.046875q-3.609375 0 -5.328125 -2.359375q-1.375 -1.890625 -1.375 -4.765625q0 -3.4375 1.796875 -5.375q1.796875 -1.953125 4.546875 -1.953125q3.078125 0 4.859375 2.046875q1.78125 2.03125 1.703125 6.234375l-9.15625 0q0.046875 1.625 0.890625 2.53125q0.84375 0.90625 2.109375 0.90625q0.859375 0 1.4375 -0.46875q0.59375 -0.46875 0.890625 -1.515625zm0.203125 -3.6875q-0.03125 -1.59375 -0.8125 -2.421875q-0.78125 -0.828125 -1.90625 -0.828125q-1.203125 0 -1.984375 0.875q-0.78125 0.875 -0.765625 2.375l5.46875 0zm6.340576 -5.734375l3.375 0l0 1.890625q1.796875 -2.203125 4.296875 -2.203125q1.328125 0 2.296875 0.546875q0.984375 0.546875 1.609375 1.65625q0.921875 -1.109375 1.96875 -1.65625q1.0625 -0.546875 2.25 -0.546875q1.53125 0 2.578125 0.625q1.0625 0.609375 1.578125 1.8125q0.375 0.890625 0.375 2.859375l0 8.84375l-3.65625 0l0 -7.90625q0 -2.046875 -0.375 -2.65625q-0.515625 -0.78125 -1.5625 -0.78125q-0.765625 0 -1.453125 0.46875q-0.671875 0.46875 -0.96875 1.375q-0.296875 0.90625 -0.296875 2.859375l0 6.640625l-3.65625 0l0 -7.578125q0 -2.015625 -0.203125 -2.59375q-0.1875 -0.59375 -0.609375 -0.875q-0.40625 -0.296875 -1.109375 -0.296875q-0.84375 0 -1.515625 0.46875q-0.671875 0.453125 -0.96875 1.3125q-0.296875 0.859375 -0.296875 2.84375l0 6.71875l-3.65625 0l0 -13.828125zm44.06076 13.828125l-3.40625 0l0 -2.03125q-0.84375 1.1875 -2.0 1.765625q-1.140625 0.578125 -2.3125 0.578125q-2.390625 0 -4.09375 -1.921875q-1.6875 -1.921875 -1.6875 -5.359375q0 -3.515625 1.65625 -5.34375q1.65625 -1.828125 4.171875 -1.828125q2.3125 0 4.015625 1.9375l0 -6.875l3.65625 0l0 19.078125zm-9.765625 -7.203125q0 2.203125 0.609375 3.1875q0.890625 1.4375 2.46875 1.4375q1.265625 0 2.15625 -1.0625q0.890625 -1.078125 0.890625 -3.21875q0 -2.375 -0.859375 -3.421875q-0.859375 -1.0625 -2.203125 -1.0625q-1.296875 0 -2.1875 1.046875q-0.875 1.03125 -0.875 3.09375zm12.517059 0.09375q0 -1.8125 0.890625 -3.515625q0.90625 -1.71875 2.546875 -2.609375q1.65625 -0.90625 3.6875 -0.90625q3.140625 0 5.140625 2.046875q2.0 2.03125 2.0 5.140625q0 3.140625 -2.03125 5.203125q-2.015625 2.0625 -5.078125 2.0625q-1.90625 0 -3.640625 -0.859375q-1.71875 -0.859375 -2.625 -2.515625q-0.890625 -1.65625 -0.890625 -4.046875zm3.75 0.203125q0 2.046875 0.96875 3.140625q0.984375 1.09375 2.421875 1.09375q1.421875 0 2.390625 -1.09375q0.984375 -1.09375 0.984375 -3.171875q0 -2.03125 -0.984375 -3.125q-0.96875 -1.09375 -2.390625 -1.09375q-1.4375 0 -2.421875 1.09375q-0.96875 1.09375 -0.96875 3.15625zm20.860535 6.90625l0 -19.078125l3.75 0l7.796875 12.734375l0 -12.734375l3.578125 0l0 19.078125l-3.859375 0l-7.6875 -12.4375l0 12.4375l-3.578125 0zm27.187805 -4.40625l3.640625 0.625q-0.703125 2.0 -2.21875 3.046875q-1.515625 1.046875 -3.796875 1.046875q-3.609375 0 -5.328125 -2.359375q-1.375 -1.890625 -1.375 -4.765625q0 -3.4375 1.796875 -5.375q1.796875 -1.953125 4.546875 -1.953125q3.078125 0 4.859375 2.046875q1.78125 2.03125 1.703125 6.234375l-9.15625 0q0.046875 1.625 0.890625 2.53125q0.84375 0.90625 2.109375 0.90625q0.859375 0 1.4375 -0.46875q0.59375 -0.46875 0.890625 -1.515625zm0.203125 -3.6875q-0.03125 -1.59375 -0.8125 -2.421875q-0.78125 -0.828125 -1.90625 -0.828125q-1.203125 0 -1.984375 0.875q-0.78125 0.875 -0.765625 2.375l5.46875 0zm6.2780457 9.0l4.171875 0.515625q0.109375 0.71875 0.484375 1.0q0.515625 0.390625 1.640625 0.390625q1.4375 0 2.140625 -0.4375q0.484375 -0.28125 0.734375 -0.921875q0.171875 -0.453125 0.171875 -1.671875l0 -2.015625q-1.640625 2.234375 -4.140625 2.234375q-2.78125 0 -4.40625 -2.359375q-1.28125 -1.859375 -1.28125 -4.625q0 -3.484375 1.671875 -5.3125q1.671875 -1.84375 4.15625 -1.84375q2.5625 0 4.234375 2.25l0 -1.9375l3.421875 0l0 12.40625q0 2.453125 -0.40625 3.65625q-0.40625 1.2187462 -1.140625 1.9062462q-0.71875 0.6875 -1.9375 1.078125q-1.21875 0.390625 -3.078125 0.390625q-3.515625 0 -4.984375 -1.203125q-1.46875 -1.2031212 -1.46875 -3.0468712q0 -0.1875 0.015625 -0.453125zm3.265625 -8.109375q0 2.203125 0.84375 3.234375q0.859375 1.015625 2.109375 1.015625q1.34375 0 2.265625 -1.046875q0.921875 -1.046875 0.921875 -3.109375q0 -2.140625 -0.890625 -3.1875q-0.875 -1.046875 -2.234375 -1.046875q-1.3125 0 -2.171875 1.03125q-0.84375 1.015625 -0.84375 3.109375zm12.501465 0.09375q0 -1.8125 0.890625 -3.515625q0.90625 -1.71875 2.546875 -2.609375q1.65625 -0.90625 3.6875 -0.90625q3.140625 0 5.140625 2.046875q2.0 2.03125 2.0 5.140625q0 3.140625 -2.03125 5.203125q-2.015625 2.0625 -5.078125 2.0625q-1.90625 0 -3.640625 -0.859375q-1.71875 -0.859375 -2.625 -2.515625q-0.890625 -1.65625 -0.890625 -4.046875zm3.75 0.203125q0 2.046875 0.96875 3.140625q0.984375 1.09375 2.421875 1.09375q1.421875 0 2.390625 -1.09375q0.984375 -1.09375 0.984375 -3.171875q0 -2.03125 -0.984375 -3.125q-0.96875 -1.09375 -2.390625 -1.09375q-1.4375 0 -2.421875 1.09375q-0.96875 1.09375 -0.96875 3.15625zm1.546875 -8.609375l1.796875 -3.890625l4.09375 0l-3.578125 3.890625l-2.3125 0zm23.89209 5.78125l-3.609375 0.65625q-0.1875 -1.09375 -0.828125 -1.640625q-0.640625 -0.546875 -1.671875 -0.546875q-1.359375 0 -2.171875 0.953125q-0.8125 0.9375 -0.8125 3.15625q0 2.453125 0.8125 3.46875q0.828125 1.015625 2.21875 1.015625q1.046875 0 1.703125 -0.59375q0.671875 -0.59375 0.953125 -2.03125l3.578125 0.609375q-0.546875 2.46875 -2.140625 3.734375q-1.59375 1.265625 -4.25 1.265625q-3.03125 0 -4.84375 -1.90625q-1.796875 -1.921875 -1.796875 -5.296875q0 -3.4375 1.796875 -5.34375q1.8125 -1.90625 4.90625 -1.90625q2.515625 0 4.0 1.09375q1.5 1.078125 2.15625 3.3125zm2.7624512 -5.96875l0 -3.375l3.671875 0l0 3.375l-3.671875 0zm0 15.703125l0 -13.828125l3.671875 0l0 13.828125l-3.671875 0zm6.562195 -7.109375q0 -1.8125 0.890625 -3.515625q0.90625 -1.71875 2.546875 -2.609375q1.65625 -0.90625 3.6875 -0.90625q3.140625 0 5.140625 2.046875q2.0 2.03125 2.0 5.140625q0 3.140625 -2.03125 5.203125q-2.015625 2.0625 -5.078125 2.0625q-1.90625 0 -3.640625 -0.859375q-1.71875 -0.859375 -2.625 -2.515625q-0.890625 -1.65625 -0.890625 -4.046875zm3.75 0.203125q0 2.046875 0.96875 3.140625q0.984375 1.09375 2.421875 1.09375q1.421875 0 2.390625 -1.09375q0.984375 -1.09375 0.984375 -3.171875q0 -2.03125 -0.984375 -3.125q-0.96875 -1.09375 -2.390625 -1.09375q-1.4375 0 -2.421875 1.09375q-0.96875 1.09375 -0.96875 3.15625z" fill-rule="nonzero"/><path fill="#000000" fill-opacity="0.0" d="m489.25986 26.055119l478.74014 0l0 51.716534l-478.74014 0z" fill-rule="evenodd"/><path fill="#000000" d="m500.30673 60.655117l0 -18.921875l3.84375 0l0 15.703125l9.5780945 0l0 3.21875l-13.4218445 0zm16.14206 -15.703125l0 -3.375l3.671875 0l0 3.375l-3.671875 0zm0 15.703125l0 -13.828125l3.671875 0l0 13.828125l-3.671875 0zm19.98407 0l-3.65625 0l0 -7.046875q0 -2.25 -0.234375 -2.90625q-0.234375 -0.65625 -0.765625 -1.015625q-0.515625 -0.375 -1.265625 -0.375q-0.953125 0 -1.703125 0.53125q-0.75 0.515625 -1.03125 1.375q-0.28125 0.859375 -0.28125 3.171875l0 6.265625l-3.65625 0l0 -13.828125l3.390625 0l0 2.03125q1.8125 -2.34375 4.5625 -2.34375q1.203125 0 2.203125 0.4375q1.015625 0.4375 1.515625 1.125q0.515625 0.671875 0.71875 1.53125q0.203125 0.859375 0.203125 2.453125l0 8.59375zm3.3764648 0.90625l4.171875 0.515625q0.109375 0.71875 0.484375 1.0q0.515625 0.390625 1.640625 0.390625q1.4375 0 2.140625 -0.4375q0.484375 -0.28125 0.734375 -0.921875q0.171875 -0.453125 0.171875 -1.671875l0 -2.015625q-1.640625 2.234375 -4.140625 2.234375q-2.78125 0 -4.40625 -2.359375q-1.28125 -1.859375 -1.28125 -4.625q0 -3.484375 1.671875 -5.3125q1.671875 -1.84375 4.15625 -1.84375q2.5625 0 4.234375 2.25l0 -1.9375l3.421875 0l0 12.40625q0 2.453125 -0.40625 3.65625q-0.40625 1.2187462 -1.140625 1.9062462q-0.71875 0.6875 -1.9375 1.078125q-1.21875 0.390625 -3.078125 0.390625q-3.515625 0 -4.984375 -1.203125q-1.46875 -1.2031212 -1.46875 -3.0468712q0 -0.1875 0.015625 -0.453125zm3.265625 -8.109375q0 2.203125 0.84375 3.234375q0.859375 1.015625 2.109375 1.015625q1.34375 0 2.265625 -1.046875q0.921875 -1.046875 0.921875 -3.109375q0 -2.140625 -0.890625 -3.1875q-0.875 -1.046875 -2.234375 -1.046875q-1.3125 0 -2.171875 1.03125q-0.84375 1.015625 -0.84375 3.109375zm22.45459 7.203125l0 -2.0625q-0.765625 1.09375 -2.0 1.734375q-1.21875 0.640625 -2.578125 0.640625q-1.40625 0 -2.515625 -0.609375q-1.09375 -0.609375 -1.59375 -1.71875q-0.5 -1.109375 -0.5 -3.0625l0 -8.75l3.671875 0l0 6.359375q0 2.90625 0.1875 3.578125q0.203125 0.65625 0.734375 1.046875q0.546875 0.375 1.359375 0.375q0.9375 0 1.671875 -0.515625q0.75 -0.515625 1.015625 -1.28125q0.28125 -0.765625 0.28125 -3.71875l0 -5.84375l3.65625 0l0 13.828125l-3.390625 0zm9.907715 -9.609375l-3.3125 -0.59375q0.5625 -2.0 1.921875 -2.96875q1.375 -0.96875 4.0625 -0.96875q2.453125 0 3.640625 0.578125q1.203125 0.578125 1.6875 1.484375q0.5 0.890625 0.5 3.265625l-0.046875 4.265625q0 1.828125 0.171875 2.703125q0.171875 0.859375 0.65625 1.84375l-3.609375 0q-0.140625 -0.359375 -0.359375 -1.078125q-0.09375 -0.328125 -0.125 -0.4375q-0.9375 0.921875 -2.015625 1.375q-1.0625 0.453125 -2.265625 0.453125q-2.140625 0 -3.375 -1.15625q-1.21875 -1.15625 -1.21875 -2.9375q0 -1.171875 0.546875 -2.078125q0.5625 -0.921875 1.578125 -1.40625q1.015625 -0.484375 2.90625 -0.859375q2.5625 -0.484375 3.5625 -0.890625l0 -0.375q0 -1.046875 -0.53125 -1.5q-0.515625 -0.453125 -1.96875 -0.453125q-0.96875 0 -1.515625 0.390625q-0.546875 0.390625 -0.890625 1.34375zm4.90625 2.96875q-0.703125 0.234375 -2.234375 0.5625q-1.515625 0.328125 -1.984375 0.640625q-0.71875 0.5 -0.71875 1.28125q0 0.765625 0.5625 1.328125q0.578125 0.5625 1.46875 0.5625q0.984375 0 1.890625 -0.65625q0.65625 -0.484375 0.859375 -1.203125q0.15625 -0.46875 0.15625 -1.78125l0 -0.734375zm6.85614 7.546875l4.171875 0.515625q0.109375 0.71875 0.484375 1.0q0.515625 0.390625 1.640625 0.390625q1.4375 0 2.140625 -0.4375q0.484375 -0.28125 0.734375 -0.921875q0.171875 -0.453125 0.171875 -1.671875l0 -2.015625q-1.640625 2.234375 -4.140625 2.234375q-2.78125 0 -4.40625 -2.359375q-1.28125 -1.859375 -1.28125 -4.625q0 -3.484375 1.671875 -5.3125q1.671875 -1.84375 4.15625 -1.84375q2.5625 0 4.234375 2.25l0 -1.9375l3.421875 0l0 12.40625q0 2.453125 -0.40625 3.65625q-0.40625 1.2187462 -1.140625 1.9062462q-0.71875 0.6875 -1.9375 1.078125q-1.21875 0.390625 -3.078125 0.390625q-3.515625 0 -4.984375 -1.203125q-1.46875 -1.2031212 -1.46875 -3.0468712q0 -0.1875 0.015625 -0.453125zm3.265625 -8.109375q0 2.203125 0.84375 3.234375q0.859375 1.015625 2.109375 1.015625q1.34375 0 2.265625 -1.046875q0.921875 -1.046875 0.921875 -3.109375q0 -2.140625 -0.890625 -3.1875q-0.875 -1.046875 -2.234375 -1.046875q-1.3125 0 -2.171875 1.03125q-0.84375 1.015625 -0.84375 3.109375zm21.36084 2.796875l3.640625 0.625q-0.703125 2.0 -2.21875 3.046875q-1.515625 1.046875 -3.796875 1.046875q-3.609375 0 -5.328125 -2.359375q-1.375 -1.890625 -1.375 -4.765625q0 -3.4375 1.796875 -5.375q1.796875 -1.953125 4.546875 -1.953125q3.078125 0 4.859375 2.046875q1.78125 2.03125 1.703125 6.234375l-9.15625 0q0.046875 1.625 0.890625 2.53125q0.84375 0.90625 2.109375 0.90625q0.859375 0 1.4375 -0.46875q0.59375 -0.46875 0.890625 -1.515625zm0.203125 -3.6875q-0.03125 -1.59375 -0.8125 -2.421875q-0.78125 -0.828125 -1.90625 -0.828125q-1.203125 0 -1.984375 0.875q-0.78125 0.875 -0.765625 2.375l5.46875 0zm6.340576 -5.734375l3.375 0l0 1.890625q1.796875 -2.203125 4.296875 -2.203125q1.328125 0 2.296875 0.546875q0.984375 0.546875 1.609375 1.65625q0.921875 -1.109375 1.96875 -1.65625q1.0625 -0.546875 2.25 -0.546875q1.53125 0 2.578125 0.625q1.0625 0.609375 1.578125 1.8125q0.375 0.890625 0.375 2.859375l0 8.84375l-3.65625 0l0 -7.90625q0 -2.046875 -0.375 -2.65625q-0.515625 -0.78125 -1.5625 -0.78125q-0.765625 0 -1.453125 0.46875q-0.671875 0.46875 -0.96875 1.375q-0.296875 0.90625 -0.296875 2.859375l0 6.640625l-3.65625 0l0 -7.578125q0 -2.015625 -0.203125 -2.59375q-0.1875 -0.59375 -0.609375 -0.875q-0.40625 -0.296875 -1.109375 -0.296875q-0.84375 0 -1.515625 0.46875q-0.671875 0.453125 -0.96875 1.3125q-0.296875 0.859375 -0.296875 2.84375l0 6.71875l-3.65625 0l0 -13.828125zm44.06073 13.828125l-3.40625 0l0 -2.03125q-0.84375 1.1875 -2.0 1.765625q-1.140625 0.578125 -2.3125 0.578125q-2.390625 0 -4.09375 -1.921875q-1.6875 -1.921875 -1.6875 -5.359375q0 -3.515625 1.65625 -5.34375q1.65625 -1.828125 4.171875 -1.828125q2.3125 0 4.015625 1.9375l0 -6.875l3.65625 0l0 19.078125zm-9.765625 -7.203125q0 2.203125 0.609375 3.1875q0.890625 1.4375 2.46875 1.4375q1.265625 0 2.15625 -1.0625q0.890625 -1.078125 0.890625 -3.21875q0 -2.375 -0.859375 -3.421875q-0.859375 -1.0625 -2.203125 -1.0625q-1.296875 0 -2.1875 1.046875q-0.875 1.03125 -0.875 3.09375zm12.51709 0.09375q0 -1.8125 0.890625 -3.515625q0.90625 -1.71875 2.546875 -2.609375q1.65625 -0.90625 3.6875 -0.90625q3.140625 0 5.140625 2.046875q2.0 2.03125 2.0 5.140625q0 3.140625 -2.03125 5.203125q-2.015625 2.0625 -5.078125 2.0625q-1.90625 0 -3.640625 -0.859375q-1.71875 -0.859375 -2.625 -2.515625q-0.890625 -1.65625 -0.890625 -4.046875zm3.75 0.203125q0 2.046875 0.96875 3.140625q0.984375 1.09375 2.421875 1.09375q1.421875 0 2.390625 -1.09375q0.984375 -1.09375 0.984375 -3.171875q0 -2.03125 -0.984375 -3.125q-0.96875 -1.09375 -2.390625 -1.09375q-1.4375 0 -2.421875 1.09375q-0.96875 1.09375 -0.96875 3.15625zm12.095215 2.96875l3.671875 -0.5625q0.234375 1.0625 0.953125 1.625q0.71875 0.546875 2.0 0.546875q1.421875 0 2.140625 -0.515625q0.46875 -0.375 0.46875 -0.984375q0 -0.421875 -0.25 -0.6875q-0.28125 -0.265625 -1.234375 -0.484375q-4.421875 -0.96875 -5.609375 -1.78125q-1.640625 -1.125 -1.640625 -3.109375q0 -1.796875 1.421875 -3.015625q1.421875 -1.234375 4.40625 -1.234375q2.828125 0 4.203125 0.9375q1.390625 0.921875 1.90625 2.71875l-3.4375 0.640625q-0.234375 -0.796875 -0.859375 -1.21875q-0.609375 -0.4375 -1.75 -0.4375q-1.4375 0 -2.0625 0.390625q-0.421875 0.296875 -0.421875 0.75q0 0.390625 0.359375 0.65625q0.5 0.375 3.421875 1.046875q2.921875 0.65625 4.078125 1.609375q1.140625 0.984375 1.140625 2.71875q0 1.90625 -1.59375 3.28125q-1.578125 1.359375 -4.6875 1.359375q-2.828125 0 -4.484375 -1.140625q-1.640625 -1.15625 -2.140625 -3.109375zm23.527771 -15.140625l7.046875 0q2.375 0 3.625 0.359375q1.6875 0.5 2.875 1.765625q1.203125 1.25 1.828125 3.078125q0.625 1.828125 0.625 4.515625q0 2.359375 -0.578125 4.0625q-0.71875 2.078125 -2.046875 3.375q-1.0 0.96875 -2.703125 1.515625q-1.28125 0.40625 -3.421875 0.40625l-7.25 0l0 -19.078125zm3.859375 3.21875l0 12.640625l2.875 0q1.609375 0 2.328125 -0.171875q0.9375 -0.234375 1.546875 -0.796875q0.625 -0.5625 1.015625 -1.84375q0.390625 -1.28125 0.390625 -3.5q0 -2.203125 -0.390625 -3.390625q-0.390625 -1.1875 -1.09375 -1.84375q-0.703125 -0.671875 -1.78125 -0.90625q-0.8125 -0.1875 -3.15625 -0.1875l-1.734375 0zm23.39093 11.453125l3.640625 0.625q-0.703125 2.0 -2.21875 3.046875q-1.515625 1.046875 -3.796875 1.046875q-3.609375 0 -5.328125 -2.359375q-1.375 -1.890625 -1.375 -4.765625q0 -3.4375 1.796875 -5.375q1.796875 -1.953125 4.546875 -1.953125q3.078125 0 4.859375 2.046875q1.78125 2.03125 1.703125 6.234375l-9.15625 0q0.046875 1.625 0.890625 2.53125q0.84375 0.90625 2.109375 0.90625q0.859375 0 1.4375 -0.46875q0.59375 -0.46875 0.890625 -1.515625zm0.203125 -3.6875q-0.03125 -1.59375 -0.8125 -2.421875q-0.78125 -0.828125 -1.90625 -0.828125q-1.203125 0 -1.984375 0.875q-0.78125 0.875 -0.765625 2.375l5.46875 0zm5.32489 4.15625l3.671875 -0.5625q0.234375 1.0625 0.953125 1.625q0.71875 0.546875 2.0 0.546875q1.421875 0 2.140625 -0.515625q0.46875 -0.375 0.46875 -0.984375q0 -0.421875 -0.25 -0.6875q-0.28125 -0.265625 -1.234375 -0.484375q-4.421875 -0.96875 -5.609375 -1.78125q-1.640625 -1.125 -1.640625 -3.109375q0 -1.796875 1.421875 -3.015625q1.421875 -1.234375 4.40625 -1.234375q2.828125 0 4.203125 0.9375q1.390625 0.921875 1.90625 2.71875l-3.4375 0.640625q-0.234375 -0.796875 -0.859375 -1.21875q-0.609375 -0.4375 -1.75 -0.4375q-1.4375 0 -2.0625 0.390625q-0.421875 0.296875 -0.421875 0.75q0 0.390625 0.359375 0.65625q0.5 0.375 3.421875 1.046875q2.921875 0.65625 4.078125 1.609375q1.140625 0.984375 1.140625 2.71875q0 1.90625 -1.59375 3.28125q-1.578125 1.359375 -4.6875 1.359375q-2.828125 0 -4.484375 -1.140625q-1.640625 -1.15625 -2.140625 -3.109375zm24.121826 -0.46875l3.640625 0.625q-0.703125 2.0 -2.21875 3.046875q-1.515625 1.046875 -3.796875 1.046875q-3.609375 0 -5.328125 -2.359375q-1.375 -1.890625 -1.375 -4.765625q0 -3.4375 1.796875 -5.375q1.796875 -1.953125 4.546875 -1.953125q3.078125 0 4.859375 2.046875q1.78125 2.03125 1.703125 6.234375l-9.15625 0q0.046875 1.625 0.890625 2.53125q0.84375 0.90625 2.109375 0.90625q0.859375 0 1.4375 -0.46875q0.59375 -0.46875 0.890625 -1.515625zm0.203125 -3.6875q-0.03125 -1.59375 -0.8125 -2.421875q-0.78125 -0.828125 -1.90625 -0.828125q-1.203125 0 -1.984375 0.875q-0.78125 0.875 -0.765625 2.375l5.46875 0zm19.184326 8.09375l-3.65625 0l0 -7.046875q0 -2.25 -0.234375 -2.90625q-0.234375 -0.65625 -0.765625 -1.015625q-0.515625 -0.375 -1.265625 -0.375q-0.953125 0 -1.703125 0.53125q-0.75 0.515625 -1.03125 1.375q-0.28125 0.859375 -0.28125 3.171875l0 6.265625l-3.65625 0l0 -13.828125l3.390625 0l0 2.03125q1.8125 -2.34375 4.5625 -2.34375q1.203125 0 2.203125 0.4375q1.015625 0.4375 1.515625 1.125q0.515625 0.671875 0.71875 1.53125q0.203125 0.859375 0.203125 2.453125l0 8.59375zm7.517029 0l-5.578125 -13.828125l3.84375 0l2.609375 7.0625l0.75 2.359375q0.296875 -0.90625 0.375 -1.1875q0.1875 -0.59375 0.390625 -1.171875l2.625 -7.0625l3.765625 0l-5.5 13.828125l-3.28125 0zm10.168701 -7.109375q0 -1.8125 0.890625 -3.515625q0.90625 -1.71875 2.546875 -2.609375q1.65625 -0.90625 3.6875 -0.90625q3.140625 0 5.140625 2.046875q2.0 2.03125 2.0 5.140625q0 3.140625 -2.03125 5.203125q-2.015625 2.0625 -5.078125 2.0625q-1.90625 0 -3.640625 -0.859375q-1.71875 -0.859375 -2.625 -2.515625q-0.890625 -1.65625 -0.890625 -4.046875zm3.75 0.203125q0 2.046875 0.96875 3.140625q0.984375 1.09375 2.421875 1.09375q1.421875 0 2.390625 -1.09375q0.984375 -1.09375 0.984375 -3.171875q0 -2.03125 -0.984375 -3.125q-0.96875 -1.09375 -2.390625 -1.09375q-1.4375 0 -2.421875 1.09375q-0.96875 1.09375 -0.96875 3.15625zm13.376465 6.90625l0 -19.078125l3.671875 0l0 19.078125l-3.671875 0zm11.218445 0l-5.578125 -13.828125l3.84375 0l2.609375 7.0625l0.75 2.359375q0.296875 -0.90625 0.375 -1.1875q0.1875 -0.59375 0.390625 -1.171875l2.625 -7.0625l3.765625 0l-5.5 13.828125l-3.28125 0zm19.028076 -4.40625l3.640625 0.625q-0.703125 2.0 -2.21875 3.046875q-1.515625 1.046875 -3.796875 1.046875q-3.609375 0 -5.328125 -2.359375q-1.375 -1.890625 -1.375 -4.765625q0 -3.4375 1.796875 -5.375q1.796875 -1.953125 4.546875 -1.953125q3.078125 0 4.859375 2.046875q1.78125 2.03125 1.703125 6.234375l-9.15625 0q0.046875 1.625 0.890625 2.53125q0.84375 0.90625 2.109375 0.90625q0.859375 0 1.4375 -0.46875q0.59375 -0.46875 0.890625 -1.515625zm0.203125 -3.6875q-0.03125 -1.59375 -0.8125 -2.421875q-0.78125 -0.828125 -1.90625 -0.828125q-1.203125 0 -1.984375 0.875q-0.78125 0.875 -0.765625 2.375l5.46875 0zm19.293701 8.09375l-3.40625 0l0 -2.03125q-0.84375 1.1875 -2.0 1.765625q-1.140625 0.578125 -2.3125 0.578125q-2.390625 0 -4.09375 -1.921875q-1.6875 -1.921875 -1.6875 -5.359375q0 -3.515625 1.65625 -5.34375q1.65625 -1.828125 4.171875 -1.828125q2.3125 0 4.015625 1.9375l0 -6.875l3.65625 0l0 19.078125zm-9.765625 -7.203125q0 2.203125 0.609375 3.1875q0.890625 1.4375 2.46875 1.4375q1.265625 0 2.15625 -1.0625q0.890625 -1.078125 0.890625 -3.21875q0 -2.375 -0.859375 -3.421875q-0.859375 -1.0625 -2.203125 -1.0625q-1.296875 0 -2.1875 1.046875q-0.875 1.03125 -0.875 3.09375zm12.51709 0.09375q0 -1.8125 0.890625 -3.515625q0.90625 -1.71875 2.546875 -2.609375q1.65625 -0.90625 3.6875 -0.90625q3.140625 0 5.140625 2.046875q2.0 2.03125 2.0 5.140625q0 3.140625 -2.03125 5.203125q-2.015625 2.0625 -5.078125 2.0625q-1.90625 0 -3.640625 -0.859375q-1.71875 -0.859375 -2.625 -2.515625q-0.890625 -1.65625 -0.890625 -4.046875zm3.75 0.203125q0 2.046875 0.96875 3.140625q0.984375 1.09375 2.421875 1.09375q1.421875 0 2.390625 -1.09375q0.984375 -1.09375 0.984375 -3.171875q0 -2.03125 -0.984375 -3.125q-0.96875 -1.09375 -2.390625 -1.09375q-1.4375 0 -2.421875 1.09375q-0.96875 1.09375 -0.96875 3.15625zm16.89209 6.90625l-3.671875 0l0 -13.828125l3.40625 0l0 1.96875q0.875 -1.390625 1.5625 -1.828125q0.703125 -0.453125 1.578125 -0.453125q1.25 0 2.421875 0.703125l-1.140625 3.1875q-0.921875 -0.609375 -1.71875 -0.609375q-0.765625 0 -1.296875 0.421875q-0.53125 0.421875 -0.84375 1.53125q-0.296875 1.109375 -0.296875 4.640625l0 4.265625zm14.873535 -4.40625l3.640625 0.625q-0.703125 2.0 -2.21875 3.046875q-1.515625 1.046875 -3.796875 1.046875q-3.609375 0 -5.328125 -2.359375q-1.375 -1.890625 -1.375 -4.765625q0 -3.4375 1.796875 -5.375q1.796875 -1.953125 4.546875 -1.953125q3.078125 0 4.859375 2.046875q1.78125 2.03125 1.703125 6.234375l-9.15625 0q0.046875 1.625 0.890625 2.53125q0.84375 0.90625 2.109375 0.90625q0.859375 0 1.4375 -0.46875q0.59375 -0.46875 0.890625 -1.515625zm0.203125 -3.6875q-0.03125 -1.59375 -0.8125 -2.421875q-0.78125 -0.828125 -1.90625 -0.828125q-1.203125 0 -1.984375 0.875q-0.78125 0.875 -0.765625 2.375l5.46875 0zm5.324951 4.15625l3.671875 -0.5625q0.234375 1.0625 0.953125 1.625q0.71875 0.546875 2.0 0.546875q1.421875 0 2.140625 -0.515625q0.46875 -0.375 0.46875 -0.984375q0 -0.421875 -0.25 -0.6875q-0.28125 -0.265625 -1.234375 -0.484375q-4.421875 -0.96875 -5.609375 -1.78125q-1.640625 -1.125 -1.640625 -3.109375q0 -1.796875 1.421875 -3.015625q1.421875 -1.234375 4.40625 -1.234375q2.828125 0 4.203125 0.9375q1.390625 0.921875 1.90625 2.71875l-3.4375 0.640625q-0.234375 -0.796875 -0.859375 -1.21875q-0.609375 -0.4375 -1.75 -0.4375q-1.4375 0 -2.0625 0.390625q-0.421875 0.296875 -0.421875 0.75q0 0.390625 0.359375 0.65625q0.5 0.375 3.421875 1.046875q2.921875 0.65625 4.078125 1.609375q1.140625 0.984375 1.140625 2.71875q0 1.90625 -1.59375 3.28125q-1.578125 1.359375 -4.6875 1.359375q-2.828125 0 -4.484375 -1.140625q-1.640625 -1.15625 -2.140625 -3.109375z" fill-rule="nonzero"/></g></svg>