<svg version="1.1" viewBox="0.0 0.0 960.0 540.0" fill="none" stroke="none" stroke-linecap="square" stroke-miterlimit="10" xmlns:xlink="http://www.w3.org/1999/xlink" xmlns="http://www.w3.org/2000/svg"><clipPath id="ge3f1e05ebb_0_0.0"><path d="m0 0l960.0 0l0 540.0l-960.0 0l0 -540.0z" clip-rule="nonzero"/></clipPath><g clip-path="url(#ge3f1e05ebb_0_0.0)"><path fill="#ffffff" d="m0 0l960.0 0l0 540.0l-960.0 0z" fill-rule="evenodd"/><path fill="#000000" fill-opacity="0.0" d="m92.55905 243.70079l0 0c0 -99.202515 111.491684 -179.62204 249.02362 -179.62204l0 0c137.53195 0 249.02365 80.41953 249.02365 179.62204l0 0c0 99.2025 -111.4917 179.62206 -249.02365 179.62206l0 0c-137.53194 0 -249.02362 -80.419556 -249.02362 -179.62206z" fill-rule="evenodd"/><path stroke="#595959" stroke-width="1.0" stroke-linejoin="round" stroke-linecap="butt" d="m92.55905 243.70079l0 0c0 -99.202515 111.491684 -179.62204 249.02362 -179.62204l0 0c137.53195 0 249.02365 80.41953 249.02365 179.62204l0 0c0 99.2025 -111.4917 179.62206 -249.02365 179.62206l0 0c-137.53194 0 -249.02362 -80.419556 -249.02362 -179.62206z" fill-rule="evenodd"/><path fill="#000000" fill-opacity="0.0" d="m360.01837 243.71391l0 0c0 -99.202515 118.00647 -179.62204 263.57483 -179.62204l0 0c145.5683 0 263.57477 80.41953 263.57477 179.62204l0 0c0 99.20253 -118.00647 179.62206 -263.57477 179.62206l0 0c-145.56836 0 -263.57483 -80.419525 -263.57483 -179.62206z" fill-rule="evenodd"/><path stroke="#595959" stroke-width="1.0" stroke-linejoin="round" stroke-linecap="butt" d="m360.01837 243.71391l0 0c0 -99.202515 118.00647 -179.62204 263.57483 -179.62204l0 0c145.5683 0 263.57477 80.41953 263.57477 179.62204l0 0c0 99.20253 -118.00647 179.62206 -263.57477 179.62206l0 0c-145.56836 0 -263.57483 -80.419525 -263.57483 -179.62206z" fill-rule="evenodd"/><path fill="#000000" fill-opacity="0.0" d="m112.01837 193.49869l232.0 0l0 116.346466l-232.0 0z" fill-rule="evenodd"/><path fill="#000000" d="m129.32019 228.09868l0 -15.859375l-5.6562576 0l0 -3.21875l15.156258 0l0 3.21875l-5.640625 0l0 15.859375l-3.859375 0zm17.991028 -4.40625l3.640625 0.625q-0.703125 2.0 -2.21875 3.046875q-1.515625 1.046875 -3.796875 1.046875q-3.609375 0 -5.328125 -2.359375q-1.375 -1.890625 -1.375 -4.765625q0 -3.4375 1.796875 -5.375q1.796875 -1.953125 4.546875 -1.953125q3.078125 0 4.859375 2.046875q1.78125 2.03125 1.703125 6.234375l-9.15625 0q0.046875 1.625 0.890625 2.53125q0.84375 0.90625 2.109375 0.90625q0.859375 0 1.4375 -0.46875q0.59375 -0.46875 0.890625 -1.515625zm0.203125 -3.6875q-0.03125 -1.59375 -0.8125 -2.421875q-0.78125 -0.828125 -1.90625 -0.828125q-1.203125 0 -1.984375 0.875q-0.78125 0.875 -0.765625 2.375l5.46875 0zm10.121811 8.09375l-3.671875 0l0 -13.828125l3.40625 0l0 1.96875q0.875 -1.390625 1.5625 -1.828125q0.703125 -0.453125 1.578125 -0.453125q1.25 0 2.421875 0.703125l-1.140625 3.1875q-0.921875 -0.609375 -1.71875 -0.609375q-0.765625 0 -1.296875 0.421875q-0.53125 0.421875 -0.84375 1.53125q-0.296875 1.109375 -0.296875 4.640625l0 4.265625zm6.5923004 -13.828125l3.375 0l0 1.890625q1.796875 -2.203125 4.296875 -2.203125q1.328125 0 2.296875 0.546875q0.984375 0.546875 1.609375 1.65625q0.921875 -1.109375 1.96875 -1.65625q1.0625 -0.546875 2.25 -0.546875q1.53125 0 2.578125 0.625q1.0625 0.609375 1.578125 1.8125q0.375 0.890625 0.375 2.859375l0 8.84375l-3.65625 0l0 -7.90625q0 -2.046875 -0.375 -2.65625q-0.515625 -0.78125 -1.5625 -0.78125q-0.765625 0 -1.453125 0.46875q-0.671875 0.46875 -0.96875 1.375q-0.296875 0.90625 -0.296875 2.859375l0 6.640625l-3.65625 0l0 -7.578125q0 -2.015625 -0.203125 -2.59375q-0.1875 -0.59375 -0.609375 -0.875q-0.40625 -0.296875 -1.109375 -0.296875q-0.84375 0 -1.515625 0.46875q-0.671875 0.453125 -0.96875 1.3125q-0.296875 0.859375 -0.296875 2.84375l0 6.71875l-3.65625 0l0 -13.828125zm23.12355 6.71875q0 -1.8125 0.890625 -3.515625q0.90625 -1.71875 2.546875 -2.609375q1.65625 -0.90625 3.6875 -0.90625q3.140625 0 5.140625 2.046875q2.0 2.03125 2.0 5.140625q0 3.140625 -2.03125 5.203125q-2.015625 2.0625 -5.078125 2.0625q-1.90625 0 -3.640625 -0.859375q-1.71875 -0.859375 -2.625 -2.515625q-0.890625 -1.65625 -0.890625 -4.046875zm3.75 0.203125q0 2.046875 0.96875 3.140625q0.984375 1.09375 2.421875 1.09375q1.421875 0 2.390625 -1.09375q0.984375 -1.09375 0.984375 -3.171875q0 -2.03125 -0.984375 -3.125q-0.96875 -1.09375 -2.390625 -1.09375q-1.4375 0 -2.421875 1.09375q-0.96875 1.09375 -0.96875 3.15625zm12.0952 2.96875l3.671875 -0.5625q0.234375 1.0625 0.953125 1.625q0.71875 0.546875 2.0 0.546875q1.421875 0 2.140625 -0.515625q0.46875 -0.375 0.46875 -0.984375q0 -0.421875 -0.25 -0.6875q-0.28125 -0.265625 -1.234375 -0.484375q-4.421875 -0.96875 -5.609375 -1.78125q-1.640625 -1.125 -1.640625 -3.109375q0 -1.796875 1.421875 -3.015625q1.421875 -1.234375 4.40625 -1.234375q2.828125 0 4.203125 0.9375q1.390625 0.921875 1.90625 2.71875l-3.4375 0.640625q-0.234375 -0.796875 -0.859375 -1.21875q-0.609375 -0.4375 -1.75 -0.4375q-1.4375 0 -2.0625 0.390625q-0.421875 0.296875 -0.421875 0.75q0 0.390625 0.359375 0.65625q0.5 0.375 3.421875 1.046875q2.921875 0.65625 4.078125 1.609375q1.140625 0.984375 1.140625 2.71875q0 1.90625 -1.59375 3.28125q-1.578125 1.359375 -4.6875 1.359375q-2.828125 0 -4.484375 -1.140625q-1.640625 -1.15625 -2.140625 -3.109375zm29.855896 -9.890625l0 2.921875l-2.5 0l0 5.5625q0 1.703125 0.0625 1.984375q0.078125 0.28125 0.328125 0.46875q0.265625 0.171875 0.625 0.171875q0.515625 0 1.46875 -0.359375l0.3125 2.84375q-1.265625 0.546875 -2.890625 0.546875q-0.984375 0 -1.78125 -0.328125q-0.796875 -0.328125 -1.171875 -0.859375q-0.359375 -0.53125 -0.5 -1.421875q-0.125 -0.640625 -0.125 -2.578125l0 -6.03125l-1.671875 0l0 -2.921875l1.671875 0l0 -2.734375l3.671875 -2.140625l0 4.875l2.5 0zm10.5486145 9.421875l3.640625 0.625q-0.703125 2.0 -2.21875 3.046875q-1.515625 1.046875 -3.796875 1.046875q-3.609375 0 -5.328125 -2.359375q-1.375 -1.890625 -1.375 -4.765625q0 -3.4375 1.796875 -5.375q1.796875 -1.953125 4.546875 -1.953125q3.078125 0 4.859375 2.046875q1.78125 2.03125 1.703125 6.234375l-9.15625 0q0.046875 1.625 0.890625 2.53125q0.84375 0.90625 2.109375 0.90625q0.859375 0 1.4375 -0.46875q0.59375 -0.46875 0.890625 -1.515625zm0.203125 -3.6875q-0.03125 -1.59375 -0.8125 -2.421875q-0.78125 -0.828125 -1.90625 -0.828125q-1.203125 0 -1.984375 0.875q-0.78125 0.875 -0.765625 2.375l5.46875 0zm-4.671875 -7.421875l1.796875 -3.890625l4.09375 0l-3.578125 3.890625l-2.3125 0zm23.340546 5.78125l-3.609375 0.65625q-0.1875 -1.09375 -0.828125 -1.640625q-0.640625 -0.546875 -1.671875 -0.546875q-1.359375 0 -2.171875 0.953125q-0.8125 0.9375 -0.8125 3.15625q0 2.453125 0.8125 3.46875q0.828125 1.015625 2.21875 1.015625q1.046875 0 1.703125 -0.59375q0.671875 -0.59375 0.953125 -2.03125l3.578125 0.609375q-0.546875 2.46875 -2.140625 3.734375q-1.59375 1.265625 -4.25 1.265625q-3.03125 0 -4.84375 -1.90625q-1.796875 -1.921875 -1.796875 -5.296875q0 -3.4375 1.796875 -5.34375q1.8125 -1.90625 4.90625 -1.90625q2.515625 0 4.0 1.09375q1.5 1.078125 2.15625 3.3125zm15.340576 9.734375l-3.65625 0l0 -7.046875q0 -2.25 -0.234375 -2.90625q-0.234375 -0.65625 -0.765625 -1.015625q-0.515625 -0.375 -1.265625 -0.375q-0.953125 0 -1.703125 0.53125q-0.75 0.515625 -1.03125 1.375q-0.28125 0.859375 -0.28125 3.171875l0 6.265625l-3.65625 0l0 -13.828125l3.390625 0l0 2.03125q1.8125 -2.34375 4.5625 -2.34375q1.203125 0 2.203125 0.4375q1.015625 0.4375 1.515625 1.125q0.515625 0.671875 0.71875 1.53125q0.203125 0.859375 0.203125 2.453125l0 8.59375zm3.7045593 -15.703125l0 -3.375l3.671875 0l0 3.375l-3.671875 0zm0 15.703125l0 -13.828125l3.671875 0l0 13.828125l-3.671875 0zm19.468475 -9.734375l-3.609375 0.65625q-0.1875 -1.09375 -0.828125 -1.640625q-0.640625 -0.546875 -1.671875 -0.546875q-1.359375 0 -2.171875 0.953125q-0.8125 0.9375 -0.8125 3.15625q0 2.453125 0.8125 3.46875q0.828125 1.015625 2.21875 1.015625q1.046875 0 1.703125 -0.59375q0.671875 -0.59375 0.953125 -2.03125l3.578125 0.609375q-0.546875 2.46875 -2.140625 3.734375q-1.59375 1.265625 -4.25 1.265625q-3.03125 0 -4.84375 -1.90625q-1.796875 -1.921875 -1.796875 -5.296875q0 -3.4375 1.796875 -5.34375q1.8125 -1.90625 4.90625 -1.90625q2.515625 0 4.0 1.09375q1.5 1.078125 2.15625 3.3125zm1.9186707 2.625q0 -1.8125 0.890625 -3.515625q0.90625 -1.71875 2.546875 -2.609375q1.65625 -0.90625 3.6875 -0.90625q3.140625 0 5.140625 2.046875q2.0 2.03125 2.0 5.140625q0 3.140625 -2.03125 5.203125q-2.015625 2.0625 -5.078125 2.0625q-1.90625 0 -3.640625 -0.859375q-1.71875 -0.859375 -2.625 -2.515625q-0.890625 -1.65625 -0.890625 -4.046875zm3.75 0.203125q0 2.046875 0.96875 3.140625q0.984375 1.09375 2.421875 1.09375q1.421875 0 2.390625 -1.09375q0.984375 -1.09375 0.984375 -3.171875q0 -2.03125 -0.984375 -3.125q-0.96875 -1.09375 -2.390625 -1.09375q-1.4375 0 -2.421875 1.09375q-0.96875 1.09375 -0.96875 3.15625zm12.095215 2.96875l3.671875 -0.5625q0.234375 1.0625 0.953125 1.625q0.71875 0.546875 2.0 0.546875q1.421875 0 2.140625 -0.515625q0.46875 -0.375 0.46875 -0.984375q0 -0.421875 -0.25 -0.6875q-0.28125 -0.265625 -1.234375 -0.484375q-4.421875 -0.96875 -5.609375 -1.78125q-1.640625 -1.125 -1.640625 -3.109375q0 -1.796875 1.421875 -3.015625q1.421875 -1.234375 4.40625 -1.234375q2.828125 0 4.203125 0.9375q1.390625 0.921875 1.90625 2.71875l-3.4375 0.640625q-0.234375 -0.796875 -0.859375 -1.21875q-0.609375 -0.4375 -1.75 -0.4375q-1.4375 0 -2.0625 0.390625q-0.421875 0.296875 -0.421875 0.75q0 0.390625 0.359375 0.65625q0.5 0.375 3.421875 1.046875q2.921875 0.65625 4.078125 1.609375q1.140625 0.984375 1.140625 2.71875q0 1.90625 -1.59375 3.28125q-1.578125 1.359375 -4.6875 1.359375q-2.828125 0 -4.484375 -1.140625q-1.640625 -1.15625 -2.140625 -3.109375z" fill-rule="nonzero"/><path fill="#000000" d="m148.9284 265.39557l0 -6.765625q-0.546875 0.765625 -1.53125 1.28125q-0.96875 0.5 -2.078125 0.5q-2.46875 0 -4.25 -1.96875q-1.765625 -1.96875 -1.765625 -5.3906403q0 -2.078125 0.71875 -3.734375q0.71875 -1.65625 2.09375 -2.5q1.375 -0.859375 3.015625 -0.859375q2.5625 0 4.03125 2.171875l0 -1.859375l2.109375 0l0 19.125015l-2.34375 0zm-7.21875 -12.250015q0 2.671875 1.109375 4.0156403q1.125 1.328125 2.6875 1.328125q1.5 0 2.578125 -1.265625q1.078125 -1.2812653 1.078125 -3.8593903q0 -2.765625 -1.140625 -4.15625q-1.125 -1.390625 -2.671875 -1.390625q-1.515625 0 -2.578125 1.296875q-1.0625 1.28125 -1.0625 4.03125zm22.293686 6.9531403l0 -2.03125q-1.609375 2.34375 -4.375 2.34375q-1.234375 0 -2.296875 -0.46875q-1.0625 -0.46875 -1.578125 -1.171875q-0.5 -0.71875 -0.71875 -1.75q-0.140625 -0.6875 -0.140625 -2.1875153l0 -8.5625l2.34375 0l0 7.671875q0 1.828125 0.140625 2.4687653q0.21875 0.921875 0.9375 1.453125q0.71875 0.53125 1.765625 0.53125q1.0625 0 1.984375 -0.53125q0.921875 -0.546875 1.296875 -1.46875q0.390625 -0.93751526 0.390625 -2.7187653l0 -7.40625l2.34375 0l0 13.82814l-2.09375 0zm15.231186 -4.4531403l2.421875 0.296875q-0.578125 2.1250153 -2.125 3.2968903q-1.546875 1.171875 -3.953125 1.171875q-3.03125 0 -4.8125 -1.859375q-1.78125 -1.875 -1.78125 -5.2500153q0 -3.484375 1.796875 -5.40625q1.796875 -1.9375 4.671875 -1.9375q2.765625 0 4.515625 1.890625q1.765625 1.890625 1.765625 5.3125q0 0.203125 -0.015625 0.625l-10.3125 0q0.140625 2.2812653 1.296875 3.5000153q1.15625 1.203125 2.890625 1.203125q1.28125 0 2.1875 -0.671875q0.921875 -0.6875 1.453125 -2.1718903zm-7.6875 -3.78125l7.71875 0q-0.15625 -1.75 -0.890625 -2.625q-1.125 -1.34375 -2.90625 -1.34375q-1.609375 0 -2.71875 1.078125q-1.09375 1.078125 -1.203125 2.890625zm19.512146 4.109375l2.328125 -0.359375q0.1875 1.3906403 1.078125 2.1406403q0.890625 0.734375 2.5 0.734375q1.609375 0 2.390625 -0.65625q0.78125 -0.65625 0.78125 -1.546875q0 -0.79689026 -0.6875 -1.2500153q-0.484375 -0.3125 -2.390625 -0.796875q-2.578125 -0.65625 -3.578125 -1.125q-1.0 -0.46875 -1.515625 -1.3125q-0.515625 -0.84375 -0.515625 -1.859375q0 -0.921875 0.421875 -1.703125q0.4375 -0.796875 1.15625 -1.3125q0.546875 -0.40625 1.484375 -0.6875q0.953125 -0.28125 2.03125 -0.28125q1.625 0 2.859375 0.46875q1.234375 0.46875 1.8125 1.28125q0.59375 0.796875 0.8125 2.140625l-2.296875 0.3125q-0.15625 -1.078125 -0.90625 -1.671875q-0.75 -0.59375 -2.109375 -0.59375q-1.609375 0 -2.3125 0.53125q-0.6875 0.53125 -0.6875 1.25q0 0.453125 0.296875 0.8125q0.28125 0.375 0.890625 0.625q0.359375 0.140625 2.078125 0.609375q2.484375 0.65625 3.46875 1.078125q0.984375 0.421875 1.53125 1.234375q0.5625 0.796875 0.5625 2.0000153q0 1.171875 -0.6875 2.21875q-0.671875 1.03125 -1.96875 1.59375q-1.28125 0.5625 -2.90625 0.5625q-2.703125 0 -4.125 -1.109375q-1.40625 -1.125 -1.796875 -3.3281403zm13.40625 -2.78125q0 -3.84375 2.125 -5.6875q1.78125 -1.546875 4.34375 -1.546875q2.859375 0 4.65625 1.875q1.8125 1.859375 1.8125 5.15625q0 2.671875 -0.796875 4.2031403q-0.796875 1.53125 -2.328125 2.375q-1.53125 0.84375 -3.34375 0.84375q-2.890625 0 -4.6875 -1.859375q-1.78125 -1.859375 -1.78125 -5.3593903zm2.40625 0q0 2.65625 1.15625 3.9843903q1.15625 1.3125 2.90625 1.3125q1.75 0 2.90625 -1.328125q1.15625 -1.3281403 1.15625 -4.0468903q0 -2.5625 -1.171875 -3.890625q-1.15625 -1.328125 -2.890625 -1.328125q-1.75 0 -2.90625 1.328125q-1.15625 1.3125 -1.15625 3.96875zm2.765625 -8.640625l1.734375 -3.640625l3.0625 0l-2.859375 3.640625l-1.9375 0zm17.059021 8.640625q0 -3.84375 2.125 -5.6875q1.78125 -1.546875 4.34375 -1.546875q2.859375 0 4.65625 1.875q1.8125 1.859375 1.8125 5.15625q0 2.671875 -0.796875 4.2031403q-0.796875 1.53125 -2.328125 2.375q-1.53125 0.84375 -3.34375 0.84375q-2.890625 0 -4.6875 -1.859375q-1.78125 -1.859375 -1.78125 -5.3593903zm2.40625 0q0 2.65625 1.15625 3.9843903q1.15625 1.3125 2.90625 1.3125q1.75 0 2.90625 -1.328125q1.15625 -1.3281403 1.15625 -4.0468903q0 -2.5625 -1.171875 -3.890625q-1.15625 -1.328125 -2.890625 -1.328125q-1.75 0 -2.90625 1.328125q-1.15625 1.3125 -1.15625 3.96875zm12.340561 2.78125l2.328125 -0.359375q0.1875 1.3906403 1.078125 2.1406403q0.890625 0.734375 2.5 0.734375q1.609375 0 2.390625 -0.65625q0.78125 -0.65625 0.78125 -1.546875q0 -0.79689026 -0.6875 -1.2500153q-0.484375 -0.3125 -2.390625 -0.796875q-2.578125 -0.65625 -3.578125 -1.125q-1.0 -0.46875 -1.515625 -1.3125q-0.515625 -0.84375 -0.515625 -1.859375q0 -0.921875 0.421875 -1.703125q0.4375 -0.796875 1.15625 -1.3125q0.546875 -0.40625 1.484375 -0.6875q0.953125 -0.28125 2.03125 -0.28125q1.625 0 2.859375 0.46875q1.234375 0.46875 1.8125 1.28125q0.59375 0.796875 0.8125 2.140625l-2.296875 0.3125q-0.15625 -1.078125 -0.90625 -1.671875q-0.75 -0.59375 -2.109375 -0.59375q-1.609375 0 -2.3125 0.53125q-0.6875 0.53125 -0.6875 1.25q0 0.453125 0.296875 0.8125q0.28125 0.375 0.890625 0.625q0.359375 0.140625 2.078125 0.609375q2.484375 0.65625 3.46875 1.078125q0.984375 0.421875 1.53125 1.234375q0.5625 0.796875 0.5625 2.0000153q0 1.171875 -0.6875 2.21875q-0.671875 1.03125 -1.96875 1.59375q-1.28125 0.5625 -2.90625 0.5625q-2.703125 0 -4.125 -1.109375q-1.40625 -1.125 -1.796875 -3.3281403zm30.640335 4.1250153l0 -1.75q-1.3125 2.0625 -3.859375 2.0625q-1.65625 0 -3.046875 -0.90625q-1.375 -0.921875 -2.140625 -2.546875q-0.765625 -1.6406403 -0.765625 -3.7500153q0 -2.078125 0.6875 -3.765625q0.703125 -1.6875 2.078125 -2.578125q1.375 -0.90625 3.078125 -0.90625q1.25 0 2.21875 0.53125q0.984375 0.53125 1.59375 1.375l0 -6.84375l2.34375 0l0 19.07814l-2.1875 0zm-7.40625 -6.8906403q0 2.640625 1.125 3.9687653q1.125 1.3125 2.640625 1.3125q1.53125 0 2.609375 -1.25q1.078125 -1.2656403 1.078125 -3.8437653q0 -2.84375 -1.09375 -4.171875q-1.09375 -1.328125 -2.703125 -1.328125q-1.546875 0 -2.609375 1.28125q-1.046875 1.28125 -1.046875 4.03125zm22.731201 2.4375l2.421875 0.296875q-0.578125 2.1250153 -2.125 3.2968903q-1.546875 1.171875 -3.953125 1.171875q-3.03125 0 -4.8125 -1.859375q-1.78125 -1.875 -1.78125 -5.2500153q0 -3.484375 1.796875 -5.40625q1.796875 -1.9375 4.671875 -1.9375q2.765625 0 4.515625 1.890625q1.765625 1.890625 1.765625 5.3125q0 0.203125 -0.015625 0.625l-10.3125 0q0.140625 2.2812653 1.296875 3.5000153q1.15625 1.203125 2.890625 1.203125q1.28125 0 2.1875 -0.671875q0.921875 -0.6875 1.453125 -2.1718903zm-7.6875 -3.78125l7.71875 0q-0.15625 -1.75 -0.890625 -2.625q-1.125 -1.34375 -2.90625 -1.34375q-1.609375 0 -2.71875 1.078125q-1.09375 1.078125 -1.203125 2.890625zm16.88742 8.23439l-5.25 -13.82814l2.46875 0l2.96875 8.28125q0.484375 1.34375 0.890625 2.7812653q0.296875 -1.09375 0.859375 -2.6250153l3.078125 -8.4375l2.40625 0l-5.234375 13.82814l-2.1875 0zm8.546875 -4.1250153l2.328125 -0.359375q0.1875 1.3906403 1.078125 2.1406403q0.890625 0.734375 2.5 0.734375q1.609375 0 2.390625 -0.65625q0.78125 -0.65625 0.78125 -1.546875q0 -0.79689026 -0.6875 -1.2500153q-0.484375 -0.3125 -2.390625 -0.796875q-2.578125 -0.65625 -3.578125 -1.125q-1.0 -0.46875 -1.515625 -1.3125q-0.515625 -0.84375 -0.515625 -1.859375q0 -0.921875 0.421875 -1.703125q0.4375 -0.796875 1.15625 -1.3125q0.546875 -0.40625 1.484375 -0.6875q0.953125 -0.28125 2.03125 -0.28125q1.625 0 2.859375 0.46875q1.234375 0.46875 1.8125 1.28125q0.59375 0.796875 0.8125 2.140625l-2.296875 0.3125q-0.15625 -1.078125 -0.90625 -1.671875q-0.75 -0.59375 -2.109375 -0.59375q-1.609375 0 -2.3125 0.53125q-0.6875 0.53125 -0.6875 1.25q0 0.453125 0.296875 0.8125q0.28125 0.375 0.890625 0.625q0.359375 0.140625 2.078125 0.609375q2.484375 0.65625 3.46875 1.078125q0.984375 0.421875 1.53125 1.234375q0.5625 0.796875 0.5625 2.0000153q0 1.171875 -0.6875 2.21875q-0.671875 1.03125 -1.96875 1.59375q-1.28125 0.5625 -2.90625 0.5625q-2.703125 0 -4.125 -1.109375q-1.40625 -1.125 -1.796875 -3.3281403z" fill-rule="nonzero"/><path fill="#000000" d="m206.23944 292.0987l0 -2.03125q-1.609375 2.34375 -4.375 2.34375q-1.234375 0 -2.296875 -0.46875q-1.0625 -0.46875 -1.578125 -1.171875q-0.5 -0.71875 -0.71875 -1.75q-0.140625 -0.6875 -0.140625 -2.1875l0 -8.5625l2.34375 0l0 7.671875q0 1.828125 0.140625 2.46875q0.21875 0.921875 0.9375 1.453125q0.71875 0.53125 1.765625 0.53125q1.0625 0 1.984375 -0.53125q0.921875 -0.546875 1.296875 -1.46875q0.390625 -0.9375 0.390625 -2.71875l0 -7.40625l2.34375 0l0 13.828125l-2.09375 0zm4.824936 -4.125l2.328125 -0.359375q0.1875 1.390625 1.078125 2.140625q0.890625 0.734375 2.5 0.734375q1.609375 0 2.390625 -0.65625q0.78125 -0.65625 0.78125 -1.546875q0 -0.796875 -0.6875 -1.25q-0.484375 -0.3125 -2.390625 -0.796875q-2.578125 -0.65625 -3.578125 -1.125q-1.0 -0.46875 -1.515625 -1.3125q-0.515625 -0.84375 -0.515625 -1.859375q0 -0.921875 0.421875 -1.703125q0.4375 -0.796875 1.15625 -1.3125q0.546875 -0.40625 1.484375 -0.6875q0.953125 -0.28125 2.03125 -0.28125q1.625 0 2.859375 0.46875q1.234375 0.46875 1.8125 1.28125q0.59375 0.796875 0.8125 2.140625l-2.296875 0.3125q-0.15625 -1.078125 -0.90625 -1.671875q-0.75 -0.59375 -2.109375 -0.59375q-1.609375 0 -2.3125 0.53125q-0.6875 0.53125 -0.6875 1.25q0 0.453125 0.296875 0.8125q0.28125 0.375 0.890625 0.625q0.359375 0.140625 2.078125 0.609375q2.484375 0.65625 3.46875 1.078125q0.984375 0.421875 1.53125 1.234375q0.5625 0.796875 0.5625 2.0q0 1.171875 -0.6875 2.21875q-0.671875 1.03125 -1.96875 1.59375q-1.28125 0.5625 -2.90625 0.5625q-2.703125 0 -4.125 -1.109375q-1.40625 -1.125 -1.796875 -3.328125zm23.296875 2.421875q-1.3125 1.109375 -2.515625 1.5625q-1.203125 0.453125 -2.578125 0.453125q-2.28125 0 -3.5 -1.109375q-1.21875 -1.109375 -1.21875 -2.84375q0 -1.015625 0.453125 -1.859375q0.46875 -0.84375 1.21875 -1.34375q0.75 -0.515625 1.6875 -0.765625q0.6875 -0.1875 2.078125 -0.359375q2.828125 -0.328125 4.171875 -0.796875q0.015625 -0.484375 0.015625 -0.625q0 -1.421875 -0.65625 -2.015625q-0.90625 -0.796875 -2.671875 -0.796875q-1.65625 0 -2.453125 0.59375q-0.78125 0.578125 -1.15625 2.046875l-2.296875 -0.3125q0.3125 -1.46875 1.03125 -2.375q0.71875 -0.90625 2.0625 -1.390625q1.359375 -0.5 3.140625 -0.5q1.78125 0 2.875 0.421875q1.109375 0.421875 1.625 1.046875q0.53125 0.625 0.734375 1.59375q0.125 0.59375 0.125 2.15625l0 3.125q0 3.265625 0.140625 4.140625q0.15625 0.859375 0.59375 1.65625l-2.4375 0q-0.375 -0.734375 -0.46875 -1.703125zm-0.203125 -5.234375q-1.265625 0.515625 -3.828125 0.890625q-1.4375 0.203125 -2.046875 0.46875q-0.59375 0.25 -0.921875 0.75q-0.3125 0.5 -0.3125 1.125q0 0.9375 0.703125 1.5625q0.703125 0.625 2.078125 0.625q1.34375 0 2.390625 -0.59375q1.0625 -0.59375 1.5625 -1.625q0.375 -0.796875 0.375 -2.34375l0 -0.859375zm5.996811 6.9375l0 -13.828125l2.109375 0l0 1.9375q0.640625 -1.015625 1.71875 -1.625q1.09375 -0.625 2.46875 -0.625q1.53125 0 2.515625 0.640625q0.984375 0.640625 1.390625 1.78125q1.640625 -2.421875 4.265625 -2.421875q2.0625 0 3.15625 1.140625q1.109375 1.140625 1.109375 3.515625l0 9.484375l-2.328125 0l0 -8.703125q0 -1.40625 -0.234375 -2.015625q-0.21875 -0.625 -0.828125 -1.0q-0.59375 -0.390625 -1.390625 -0.390625q-1.46875 0 -2.4375 0.96875q-0.953125 0.96875 -0.953125 3.109375l0 8.03125l-2.34375 0l0 -8.984375q0 -1.5625 -0.578125 -2.34375q-0.5625 -0.78125 -1.875 -0.78125q-0.984375 0 -1.828125 0.53125q-0.828125 0.515625 -1.21875 1.515625q-0.375 1.0 -0.375 2.890625l0 7.171875l-2.34375 0z" fill-rule="nonzero"/><path fill="#000000" fill-opacity="0.0" d="m593.42255 177.49869l269.32288 0l0 116.346466l-269.32288 0z" fill-rule="evenodd"/><path fill="#000000" d="m612.38074 212.09868l0 -15.859375l-5.65625 0l0 -3.21875l15.15625 0l0 3.21875l-5.640625 0l0 15.859375l-3.859375 0zm17.991028 -4.40625l3.640625 0.625q-0.703125 2.0 -2.21875 3.046875q-1.515625 1.046875 -3.796875 1.046875q-3.609375 0 -5.328125 -2.359375q-1.375 -1.890625 -1.375 -4.765625q0 -3.4375 1.796875 -5.375q1.796875 -1.953125 4.546875 -1.953125q3.078125 0 4.859375 2.046875q1.78125 2.03125 1.703125 6.234375l-9.15625 0q0.046875 1.625 0.890625 2.53125q0.84375 0.90625 2.109375 0.90625q0.859375 0 1.4375 -0.46875q0.59375 -0.46875 0.890625 -1.515625zm0.203125 -3.6875q-0.03125 -1.59375 -0.8125 -2.421875q-0.78125 -0.828125 -1.90625 -0.828125q-1.203125 0 -1.984375 0.875q-0.78125 0.875 -0.765625 2.375l5.46875 0zm10.121826 8.09375l-3.671875 0l0 -13.828125l3.40625 0l0 1.96875q0.875 -1.390625 1.5625 -1.828125q0.703125 -0.453125 1.578125 -0.453125q1.25 0 2.421875 0.703125l-1.140625 3.1875q-0.921875 -0.609375 -1.71875 -0.609375q-0.765625 0 -1.296875 0.421875q-0.53125 0.421875 -0.84375 1.53125q-0.296875 1.109375 -0.296875 4.640625l0 4.265625zm6.592285 -13.828125l3.375 0l0 1.890625q1.796875 -2.203125 4.296875 -2.203125q1.328125 0 2.296875 0.546875q0.984375 0.546875 1.609375 1.65625q0.921875 -1.109375 1.96875 -1.65625q1.0625 -0.546875 2.25 -0.546875q1.53125 0 2.578125 0.625q1.0625 0.609375 1.578125 1.8125q0.375 0.890625 0.375 2.859375l0 8.84375l-3.65625 0l0 -7.90625q0 -2.046875 -0.375 -2.65625q-0.515625 -0.78125 -1.5625 -0.78125q-0.765625 0 -1.453125 0.46875q-0.671875 0.46875 -0.96875 1.375q-0.296875 0.90625 -0.296875 2.859375l0 6.640625l-3.65625 0l0 -7.578125q0 -2.015625 -0.203125 -2.59375q-0.1875 -0.59375 -0.609375 -0.875q-0.40625 -0.296875 -1.109375 -0.296875q-0.84375 0 -1.515625 0.46875q-0.671875 0.453125 -0.96875 1.3125q-0.296875 0.859375 -0.296875 2.84375l0 6.71875l-3.65625 0l0 -13.828125zm23.123535 6.71875q0 -1.8125 0.890625 -3.515625q0.90625 -1.71875 2.546875 -2.609375q1.65625 -0.90625 3.6875 -0.90625q3.140625 0 5.140625 2.046875q2.0 2.03125 2.0 5.140625q0 3.140625 -2.03125 5.203125q-2.015625 2.0625 -5.078125 2.0625q-1.90625 0 -3.640625 -0.859375q-1.71875 -0.859375 -2.625 -2.515625q-0.890625 -1.65625 -0.890625 -4.046875zm3.75 0.203125q0 2.046875 0.96875 3.140625q0.984375 1.09375 2.421875 1.09375q1.421875 0 2.390625 -1.09375q0.984375 -1.09375 0.984375 -3.171875q0 -2.03125 -0.984375 -3.125q-0.96875 -1.09375 -2.390625 -1.09375q-1.4375 0 -2.421875 1.09375q-0.96875 1.09375 -0.96875 3.15625zm12.095215 2.96875l3.671875 -0.5625q0.234375 1.0625 0.953125 1.625q0.71875 0.546875 2.0 0.546875q1.421875 0 2.140625 -0.515625q0.46875 -0.375 0.46875 -0.984375q0 -0.421875 -0.25 -0.6875q-0.28125 -0.265625 -1.234375 -0.484375q-4.421875 -0.96875 -5.609375 -1.78125q-1.640625 -1.125 -1.640625 -3.109375q0 -1.796875 1.421875 -3.015625q1.421875 -1.234375 4.40625 -1.234375q2.828125 0 4.203125 0.9375q1.390625 0.921875 1.90625 2.71875l-3.4375 0.640625q-0.234375 -0.796875 -0.859375 -1.21875q-0.609375 -0.4375 -1.75 -0.4375q-1.4375 0 -2.0625 0.390625q-0.421875 0.296875 -0.421875 0.75q0 0.390625 0.359375 0.65625q0.5 0.375 3.421875 1.046875q2.921875 0.65625 4.078125 1.609375q1.140625 0.984375 1.140625 2.71875q0 1.90625 -1.59375 3.28125q-1.578125 1.359375 -4.6875 1.359375q-2.828125 0 -4.484375 -1.140625q-1.640625 -1.15625 -2.140625 -3.109375zm36.199646 3.9375l-3.40625 0l0 -2.03125q-0.84375 1.1875 -2.0 1.765625q-1.140625 0.578125 -2.3125 0.578125q-2.390625 0 -4.09375 -1.921875q-1.6875 -1.921875 -1.6875 -5.359375q0 -3.515625 1.65625 -5.34375q1.65625 -1.828125 4.171875 -1.828125q2.3125 0 4.015625 1.9375l0 -6.875l3.65625 0l0 19.078125zm-9.765625 -7.203125q0 2.203125 0.609375 3.1875q0.890625 1.4375 2.46875 1.4375q1.265625 0 2.15625 -1.0625q0.890625 -1.078125 0.890625 -3.21875q0 -2.375 -0.859375 -3.421875q-0.859375 -1.0625 -2.203125 -1.0625q-1.296875 0 -2.1875 1.046875q-0.875 1.03125 -0.875 3.09375zm12.517029 0.09375q0 -1.8125 0.890625 -3.515625q0.90625 -1.71875 2.546875 -2.609375q1.65625 -0.90625 3.6875 -0.90625q3.140625 0 5.140625 2.046875q2.0 2.03125 2.0 5.140625q0 3.140625 -2.03125 5.203125q-2.015625 2.0625 -5.078125 2.0625q-1.90625 0 -3.640625 -0.859375q-1.71875 -0.859375 -2.625 -2.515625q-0.890625 -1.65625 -0.890625 -4.046875zm3.75 0.203125q0 2.046875 0.96875 3.140625q0.984375 1.09375 2.421875 1.09375q1.421875 0 2.390625 -1.09375q0.984375 -1.09375 0.984375 -3.171875q0 -2.03125 -0.984375 -3.125q-0.96875 -1.09375 -2.390625 -1.09375q-1.4375 0 -2.421875 1.09375q-0.96875 1.09375 -0.96875 3.15625zm33.360535 6.90625l-3.65625 0l0 -7.046875q0 -2.25 -0.234375 -2.90625q-0.234375 -0.65625 -0.765625 -1.015625q-0.515625 -0.375 -1.265625 -0.375q-0.953125 0 -1.703125 0.53125q-0.75 0.515625 -1.03125 1.375q-0.28125 0.859375 -0.28125 3.171875l0 6.265625l-3.65625 0l0 -13.828125l3.390625 0l0 2.03125q1.8125 -2.34375 4.5625 -2.34375q1.203125 0 2.203125 0.4375q1.015625 0.4375 1.515625 1.125q0.515625 0.671875 0.71875 1.53125q0.203125 0.859375 0.203125 2.453125l0 8.59375zm11.720215 -4.40625l3.640625 0.625q-0.703125 2.0 -2.21875 3.046875q-1.515625 1.046875 -3.796875 1.046875q-3.609375 0 -5.328125 -2.359375q-1.375 -1.890625 -1.375 -4.765625q0 -3.4375 1.796875 -5.375q1.796875 -1.953125 4.546875 -1.953125q3.078125 0 4.859375 2.046875q1.78125 2.03125 1.703125 6.234375l-9.15625 0q0.046875 1.625 0.890625 2.53125q0.84375 0.90625 2.109375 0.90625q0.859375 0 1.4375 -0.46875q0.59375 -0.46875 0.890625 -1.515625zm0.203125 -3.6875q-0.03125 -1.59375 -0.8125 -2.421875q-0.78125 -0.828125 -1.90625 -0.828125q-1.203125 0 -1.984375 0.875q-0.78125 0.875 -0.765625 2.375l5.46875 0zm6.278076 9.0l4.171875 0.515625q0.109375 0.71875 0.484375 1.0q0.515625 0.390625 1.640625 0.390625q1.4375 0 2.140625 -0.4375q0.484375 -0.28125 0.734375 -0.921875q0.171875 -0.453125 0.171875 -1.671875l0 -2.015625q-1.640625 2.234375 -4.140625 2.234375q-2.78125 0 -4.40625 -2.359375q-1.28125 -1.859375 -1.28125 -4.625q0 -3.484375 1.671875 -5.3125q1.671875 -1.84375 4.15625 -1.84375q2.5625 0 4.234375 2.25l0 -1.9375l3.421875 0l0 12.40625q0 2.453125 -0.40625 3.65625q-0.40625 1.21875 -1.140625 1.90625q-0.71875 0.6875 -1.9375 1.078125q-1.21875 0.390625 -3.078125 0.390625q-3.515625 0 -4.984375 -1.203125q-1.46875 -1.203125 -1.46875 -3.046875q0 -0.1875 0.015625 -0.453125zm3.265625 -8.109375q0 2.203125 0.84375 3.234375q0.859375 1.015625 2.109375 1.015625q1.34375 0 2.265625 -1.046875q0.921875 -1.046875 0.921875 -3.109375q0 -2.140625 -0.890625 -3.1875q-0.875 -1.046875 -2.234375 -1.046875q-1.3125 0 -2.171875 1.03125q-0.84375 1.015625 -0.84375 3.109375zm12.501465 0.09375q0 -1.8125 0.890625 -3.515625q0.90625 -1.71875 2.546875 -2.609375q1.65625 -0.90625 3.6875 -0.90625q3.140625 0 5.140625 2.046875q2.0 2.03125 2.0 5.140625q0 3.140625 -2.03125 5.203125q-2.015625 2.0625 -5.078125 2.0625q-1.90625 0 -3.640625 -0.859375q-1.71875 -0.859375 -2.625 -2.515625q-0.890625 -1.65625 -0.890625 -4.046875zm3.75 0.203125q0 2.046875 0.96875 3.140625q0.984375 1.09375 2.421875 1.09375q1.421875 0 2.390625 -1.09375q0.984375 -1.09375 0.984375 -3.171875q0 -2.03125 -0.984375 -3.125q-0.96875 -1.09375 -2.390625 -1.09375q-1.4375 0 -2.421875 1.09375q-0.96875 1.09375 -0.96875 3.15625zm1.546875 -8.609375l1.796875 -3.890625l4.09375 0l-3.578125 3.890625l-2.3125 0zm23.892029 5.78125l-3.609375 0.65625q-0.1875 -1.09375 -0.828125 -1.640625q-0.640625 -0.546875 -1.671875 -0.546875q-1.359375 0 -2.171875 0.953125q-0.8125 0.9375 -0.8125 3.15625q0 2.453125 0.8125 3.46875q0.828125 1.015625 2.21875 1.015625q1.046875 0 1.703125 -0.59375q0.671875 -0.59375 0.953125 -2.03125l3.578125 0.609375q-0.546875 2.46875 -2.140625 3.734375q-1.59375 1.265625 -4.25 1.265625q-3.03125 0 -4.84375 -1.90625q-1.796875 -1.921875 -1.796875 -5.296875q0 -3.4375 1.796875 -5.34375q1.8125 -1.90625 4.90625 -1.90625q2.515625 0 4.0 1.09375q1.5 1.078125 2.15625 3.3125zm2.7624512 -5.96875l0 -3.375l3.671875 0l0 3.375l-3.671875 0zm0 15.703125l0 -13.828125l3.671875 0l0 13.828125l-3.671875 0zm6.562195 -7.109375q0 -1.8125 0.890625 -3.515625q0.90625 -1.71875 2.546875 -2.609375q1.65625 -0.90625 3.6875 -0.90625q3.140625 0 5.140625 2.046875q2.0 2.03125 2.0 5.140625q0 3.140625 -2.03125 5.203125q-2.015625 2.0625 -5.078125 2.0625q-1.90625 0 -3.640625 -0.859375q-1.71875 -0.859375 -2.625 -2.515625q-0.890625 -1.65625 -0.890625 -4.046875zm3.75 0.203125q0 2.046875 0.96875 3.140625q0.984375 1.09375 2.421875 1.09375q1.421875 0 2.390625 -1.09375q0.984375 -1.09375 0.984375 -3.171875q0 -2.03125 -0.984375 -3.125q-0.96875 -1.09375 -2.390625 -1.09375q-1.4375 0 -2.421875 1.09375q-0.96875 1.09375 -0.96875 3.15625z" fill-rule="nonzero"/><path fill="#000000" d="m634.25934 244.09868l0 -13.828125l2.109375 0l0 1.96875q1.53125 -2.28125 4.40625 -2.28125q1.25 0 2.296875 0.453125q1.046875 0.453125 1.5625 1.1875q0.53125 0.71875 0.734375 1.71875q0.125 0.65625 0.125 2.28125l0 8.5l-2.34375 0l0 -8.40625q0 -1.4375 -0.28125 -2.140625q-0.265625 -0.71875 -0.96875 -1.140625q-0.6875 -0.421875 -1.625 -0.421875q-1.484375 0 -2.578125 0.953125q-1.09375 0.953125 -1.09375 3.609375l0 7.546875l-2.34375 0zm23.856201 -1.703125q-1.3125 1.109375 -2.515625 1.5625q-1.203125 0.453125 -2.578125 0.453125q-2.28125 0 -3.5 -1.109375q-1.21875 -1.109375 -1.21875 -2.84375q0 -1.015625 0.453125 -1.859375q0.46875 -0.84375 1.21875 -1.34375q0.75 -0.515625 1.6875 -0.765625q0.6875 -0.1875 2.078125 -0.359375q2.828125 -0.328125 4.171875 -0.796875q0.015625 -0.484375 0.015625 -0.625q0 -1.421875 -0.65625 -2.015625q-0.90625 -0.796875 -2.671875 -0.796875q-1.65625 0 -2.453125 0.59375q-0.78125 0.578125 -1.15625 2.046875l-2.296875 -0.3125q0.3125 -1.46875 1.03125 -2.375q0.71875 -0.90625 2.0625 -1.390625q1.359375 -0.5 3.140625 -0.5q1.78125 0 2.875 0.421875q1.109375 0.421875 1.625 1.046875q0.53125 0.625 0.734375 1.59375q0.125 0.59375 0.125 2.15625l0 3.125q0 3.265625 0.140625 4.140625q0.15625 0.859375 0.59375 1.65625l-2.4375 0q-0.375 -0.734375 -0.46875 -1.703125zm-0.203125 -5.234375q-1.265625 0.515625 -3.828125 0.890625q-1.4375 0.203125 -2.046875 0.46875q-0.59375 0.25 -0.921875 0.75q-0.3125 0.5 -0.3125 1.125q0 0.9375 0.703125 1.5625q0.703125 0.625 2.078125 0.625q1.34375 0 2.390625 -0.59375q1.0625 -0.59375 1.5625 -1.625q0.375 -0.796875 0.375 -2.34375l0 -0.859375zm-7.59375 -8.921875q-0.015625 -1.359375 0.734375 -2.171875q0.75 -0.796875 1.90625 -0.796875q0.8125 0 2.203125 0.703125q0.765625 0.390625 1.21875 0.390625q0.421875 0 0.640625 -0.234375q0.21875 -0.234375 0.3125 -0.90625l1.6875 0q-0.03125 1.484375 -0.75 2.234375q-0.703125 0.734375 -1.796875 0.734375q-0.828125 0 -2.15625 -0.734375q-0.875 -0.46875 -1.28125 -0.46875q-0.4375 0 -0.71875 0.3125q-0.28125 0.3125 -0.265625 0.9375l-1.734375 0zm12.731201 8.953125q0 -3.84375 2.125 -5.6875q1.78125 -1.546875 4.34375 -1.546875q2.859375 0 4.65625 1.875q1.8125 1.859375 1.8125 5.15625q0 2.671875 -0.796875 4.203125q-0.796875 1.53125 -2.328125 2.375q-1.53125 0.84375 -3.34375 0.84375q-2.890625 0 -4.6875 -1.859375q-1.78125 -1.859375 -1.78125 -5.359375zm2.40625 0q0 2.65625 1.15625 3.984375q1.15625 1.3125 2.90625 1.3125q1.75 0 2.90625 -1.328125q1.15625 -1.328125 1.15625 -4.046875q0 -2.5625 -1.171875 -3.890625q-1.15625 -1.328125 -2.890625 -1.328125q-1.75 0 -2.90625 1.328125q-1.15625 1.3125 -1.15625 3.96875zm20.699646 -9.484375l0 -2.6875l2.34375 0l0 2.6875l-2.34375 0zm0 16.390625l0 -13.828125l2.34375 0l0 13.828125l-2.34375 0zm5.906555 0l0 -13.828125l2.109375 0l0 1.9375q0.640625 -1.015625 1.71875 -1.625q1.09375 -0.625 2.46875 -0.625q1.53125 0 2.515625 0.640625q0.984375 0.640625 1.390625 1.78125q1.640625 -2.421875 4.265625 -2.421875q2.0625 0 3.15625 1.140625q1.109375 1.140625 1.109375 3.515625l0 9.484375l-2.328125 0l0 -8.703125q0 -1.40625 -0.234375 -2.015625q-0.21875 -0.625 -0.828125 -1.0q-0.59375 -0.390625 -1.390625 -0.390625q-1.46875 0 -2.4375 0.96875q-0.953125 0.96875 -0.953125 3.109375l0 8.03125l-2.34375 0l0 -8.984375q0 -1.5625 -0.578125 -2.34375q-0.5625 -0.78125 -1.875 -0.78125q-0.984375 0 -1.828125 0.53125q-0.828125 0.515625 -1.21875 1.515625q-0.375 1.0 -0.375 2.890625l0 7.171875l-2.34375 0zm22.204834 5.296875l0 -19.125l2.140625 0l0 1.796875q0.75 -1.046875 1.703125 -1.578125q0.953125 -0.53125 2.3125 -0.53125q1.765625 0 3.109375 0.921875q1.359375 0.90625 2.046875 2.5625q0.6875 1.65625 0.6875 3.640625q0 2.125 -0.765625 3.828125q-0.75 1.6875 -2.203125 2.59375q-1.453125 0.90625 -3.046875 0.90625q-1.171875 0 -2.109375 -0.484375q-0.921875 -0.5 -1.53125 -1.265625l0 6.734375l-2.34375 0zm2.125 -12.125q0 2.65625 1.078125 3.9375q1.09375 1.28125 2.625 1.28125q1.5625 0 2.671875 -1.3125q1.109375 -1.328125 1.109375 -4.109375q0 -2.640625 -1.09375 -3.953125q-1.078125 -1.3125 -2.59375 -1.3125q-1.484375 0 -2.640625 1.40625q-1.15625 1.390625 -1.15625 4.0625zm11.840576 -0.078125q0 -3.84375 2.125 -5.6875q1.78125 -1.546875 4.34375 -1.546875q2.859375 0 4.65625 1.875q1.8125 1.859375 1.8125 5.15625q0 2.671875 -0.796875 4.203125q-0.796875 1.53125 -2.328125 2.375q-1.53125 0.84375 -3.34375 0.84375q-2.890625 0 -4.6875 -1.859375q-1.78125 -1.859375 -1.78125 -5.359375zm2.40625 0q0 2.65625 1.15625 3.984375q1.15625 1.3125 2.90625 1.3125q1.75 0 2.90625 -1.328125q1.15625 -1.328125 1.15625 -4.046875q0 -2.5625 -1.171875 -3.890625q-1.15625 -1.328125 -2.890625 -1.328125q-1.75 0 -2.90625 1.328125q-1.15625 1.3125 -1.15625 3.96875zm13.26239 6.90625l0 -13.828125l2.109375 0l0 2.09375q0.796875 -1.46875 1.484375 -1.9375q0.6875 -0.46875 1.5 -0.46875q1.1875 0 2.40625 0.765625l-0.796875 2.171875q-0.859375 -0.515625 -1.71875 -0.515625q-0.765625 0 -1.390625 0.46875q-0.609375 0.453125 -0.859375 1.28125q-0.390625 1.25 -0.390625 2.734375l0 7.234375l-2.34375 0zm14.017395 -2.09375l0.328125 2.0625q-0.984375 0.21875 -1.765625 0.21875q-1.265625 0 -1.96875 -0.40625q-0.703125 -0.40625 -1.0 -1.0625q-0.28125 -0.65625 -0.28125 -2.765625l0 -7.953125l-1.71875 0l0 -1.828125l1.71875 0l0 -3.421875l2.328125 -1.40625l0 4.828125l2.359375 0l0 1.828125l-2.359375 0l0 8.078125q0 1.0 0.125 1.296875q0.125 0.28125 0.40625 0.453125q0.28125 0.171875 0.796875 0.171875q0.390625 0 1.03125 -0.09375zm11.312195 0.390625q-1.3125 1.109375 -2.515625 1.5625q-1.203125 0.453125 -2.578125 0.453125q-2.28125 0 -3.5 -1.109375q-1.21875 -1.109375 -1.21875 -2.84375q0 -1.015625 0.453125 -1.859375q0.46875 -0.84375 1.21875 -1.34375q0.75 -0.515625 1.6875 -0.765625q0.6875 -0.1875 2.078125 -0.359375q2.828125 -0.328125 4.171875 -0.796875q0.015625 -0.484375 0.015625 -0.625q0 -1.421875 -0.65625 -2.015625q-0.90625 -0.796875 -2.671875 -0.796875q-1.65625 0 -2.453125 0.59375q-0.78125 0.578125 -1.15625 2.046875l-2.296875 -0.3125q0.3125 -1.46875 1.03125 -2.375q0.71875 -0.90625 2.0625 -1.390625q1.359375 -0.5 3.140625 -0.5q1.78125 0 2.875 0.421875q1.109375 0.421875 1.625 1.046875q0.53125 0.625 0.734375 1.59375q0.125 0.59375 0.125 2.15625l0 3.125q0 3.265625 0.140625 4.140625q0.15625 0.859375 0.59375 1.65625l-2.4375 0q-0.375 -0.734375 -0.46875 -1.703125zm-0.203125 -5.234375q-1.265625 0.515625 -3.828125 0.890625q-1.4375 0.203125 -2.046875 0.46875q-0.59375 0.25 -0.921875 0.75q-0.3125 0.5 -0.3125 1.125q0 0.9375 0.703125 1.5625q0.703125 0.625 2.078125 0.625q1.34375 0 2.390625 -0.59375q1.0625 -0.59375 1.5625 -1.625q0.375 -0.796875 0.375 -2.34375l0 -0.859375zm5.996826 6.9375l0 -13.828125l2.109375 0l0 1.96875q1.53125 -2.28125 4.40625 -2.28125q1.25 0 2.296875 0.453125q1.046875 0.453125 1.5625 1.1875q0.53125 0.71875 0.734375 1.71875q0.125 0.65625 0.125 2.28125l0 8.5l-2.34375 0l0 -8.40625q0 -1.4375 -0.28125 -2.140625q-0.265625 -0.71875 -0.96875 -1.140625q-0.6875 -0.421875 -1.625 -0.421875q-1.484375 0 -2.578125 0.953125q-1.09375 0.953125 -1.09375 3.609375l0 7.546875l-2.34375 0zm19.949951 -2.09375l0.328125 2.0625q-0.984375 0.21875 -1.765625 0.21875q-1.265625 0 -1.96875 -0.40625q-0.703125 -0.40625 -1.0 -1.0625q-0.28125 -0.65625 -0.28125 -2.765625l0 -7.953125l-1.71875 0l0 -1.828125l1.71875 0l0 -3.421875l2.328125 -1.40625l0 4.828125l2.359375 0l0 1.828125l-2.359375 0l0 8.078125q0 1.0 0.125 1.296875q0.125 0.28125 0.40625 0.453125q0.28125 0.171875 0.796875 0.171875q0.390625 0 1.03125 -0.09375zm11.749695 -2.359375l2.421875 0.296875q-0.578125 2.125 -2.125 3.296875q-1.546875 1.171875 -3.953125 1.171875q-3.03125 0 -4.8125 -1.859375q-1.78125 -1.875 -1.78125 -5.25q0 -3.484375 1.796875 -5.40625q1.796875 -1.9375 4.671875 -1.9375q2.765625 0 4.515625 1.890625q1.765625 1.890625 1.765625 5.3125q0 0.203125 -0.015625 0.625l-10.3125 0q0.140625 2.28125 1.296875 3.5q1.15625 1.203125 2.890625 1.203125q1.28125 0 2.1875 -0.671875q0.921875 -0.6875 1.453125 -2.171875zm-7.6875 -3.78125l7.71875 0q-0.15625 -1.75 -0.890625 -2.625q-1.125 -1.34375 -2.90625 -1.34375q-1.609375 0 -2.71875 1.078125q-1.09375 1.078125 -1.203125 2.890625zm12.106201 4.109375l2.328125 -0.359375q0.1875 1.390625 1.078125 2.140625q0.890625 0.734375 2.5 0.734375q1.609375 0 2.390625 -0.65625q0.78125 -0.65625 0.78125 -1.546875q0 -0.796875 -0.6875 -1.25q-0.484375 -0.3125 -2.390625 -0.796875q-2.578125 -0.65625 -3.578125 -1.125q-1.0 -0.46875 -1.515625 -1.3125q-0.515625 -0.84375 -0.515625 -1.859375q0 -0.921875 0.421875 -1.703125q0.4375 -0.796875 1.15625 -1.3125q0.546875 -0.40625 1.484375 -0.6875q0.953125 -0.28125 2.03125 -0.28125q1.625 0 2.859375 0.46875q1.234375 0.46875 1.8125 1.28125q0.59375 0.796875 0.8125 2.140625l-2.296875 0.3125q-0.15625 -1.078125 -0.90625 -1.671875q-0.75 -0.59375 -2.109375 -0.59375q-1.609375 0 -2.3125 0.53125q-0.6875 0.53125 -0.6875 1.25q0 0.453125 0.296875 0.8125q0.28125 0.375 0.890625 0.625q0.359375 0.140625 2.078125 0.609375q2.484375 0.65625 3.46875 1.078125q0.984375 0.421875 1.53125 1.234375q0.5625 0.796875 0.5625 2.0q0 1.171875 -0.6875 2.21875q-0.671875 1.03125 -1.96875 1.59375q-1.28125 0.5625 -2.90625 0.5625q-2.703125 0 -4.125 -1.109375q-1.40625 -1.125 -1.796875 -3.328125z" fill-rule="nonzero"/><path fill="#000000" d="m642.4202 281.39557l0 -19.125l2.140625 0l0 1.796875q0.75 -1.046875 1.703125 -1.578125q0.953125 -0.53125 2.3125 -0.53125q1.765625 0 3.109375 0.921875q1.359375 0.90625 2.046875 2.5625q0.6875 1.65625 0.6875 3.640625q0 2.125 -0.765625 3.828125q-0.75 1.6875 -2.203125 2.59375q-1.453125 0.90625 -3.046875 0.90625q-1.171875 0 -2.109375 -0.484375q-0.921875 -0.5 -1.53125 -1.265625l0 6.734375l-2.34375 0zm2.125 -12.125q0 2.65625 1.078125 3.9375q1.09375 1.28125 2.625 1.28125q1.5625 0 2.671875 -1.3125q1.109375 -1.328125 1.109375 -4.109375q0 -2.640625 -1.09375 -3.953125q-1.078125 -1.3125 -2.59375 -1.3125q-1.484375 0 -2.640625 1.40625q-1.15625 1.390625 -1.15625 4.0625zm21.731201 5.125q-1.3125 1.109375 -2.515625 1.5625q-1.203125 0.453125 -2.578125 0.453125q-2.28125 0 -3.5 -1.109375q-1.21875 -1.109375 -1.21875 -2.84375q0 -1.015625 0.453125 -1.859375q0.46875 -0.84375 1.21875 -1.34375q0.75 -0.515625 1.6875 -0.765625q0.6875 -0.1875 2.078125 -0.359375q2.828125 -0.328125 4.171875 -0.796875q0.015625 -0.484375 0.015625 -0.625q0 -1.421875 -0.65625 -2.015625q-0.90625 -0.796875 -2.671875 -0.796875q-1.65625 0 -2.453125 0.59375q-0.78125 0.578125 -1.15625 2.046875l-2.296875 -0.3125q0.3125 -1.46875 1.03125 -2.375q0.71875 -0.90625 2.0625 -1.390625q1.359375 -0.5 3.140625 -0.5q1.78125 0 2.875 0.421875q1.109375 0.421875 1.625 1.046875q0.53125 0.625 0.734375 1.59375q0.125 0.59375 0.125 2.15625l0 3.125q0 3.265625 0.140625 4.140625q0.15625 0.859375 0.59375 1.65625l-2.4375 0q-0.375 -0.734375 -0.46875 -1.703125zm-0.203125 -5.234375q-1.265625 0.515625 -3.828125 0.890625q-1.4375 0.203125 -2.046875 0.46875q-0.59375 0.25 -0.921875 0.75q-0.3125 0.5 -0.3125 1.125q0 0.9375 0.703125 1.5625q0.703125 0.625 2.078125 0.625q1.34375 0 2.390625 -0.59375q1.0625 -0.59375 1.5625 -1.625q0.375 -0.796875 0.375 -2.34375l0 -0.859375zm5.981201 6.9375l0 -13.828125l2.109375 0l0 2.09375q0.796875 -1.46875 1.484375 -1.9375q0.6875 -0.46875 1.5 -0.46875q1.1875 0 2.40625 0.765625l-0.796875 2.171875q-0.859375 -0.515625 -1.71875 -0.515625q-0.765625 0 -1.390625 0.46875q-0.609375 0.453125 -0.859375 1.28125q-0.390625 1.25 -0.390625 2.734375l0 7.234375l-2.34375 0zm17.923584 -1.703125q-1.3125 1.109375 -2.515625 1.5625q-1.203125 0.453125 -2.578125 0.453125q-2.28125 0 -3.5 -1.109375q-1.21875 -1.109375 -1.21875 -2.84375q0 -1.015625 0.453125 -1.859375q0.46875 -0.84375 1.21875 -1.34375q0.75 -0.515625 1.6875 -0.765625q0.6875 -0.1875 2.078125 -0.359375q2.828125 -0.328125 4.171875 -0.796875q0.015625 -0.484375 0.015625 -0.625q0 -1.421875 -0.65625 -2.015625q-0.90625 -0.796875 -2.671875 -0.796875q-1.65625 0 -2.453125 0.59375q-0.78125 0.578125 -1.15625 2.046875l-2.296875 -0.3125q0.3125 -1.46875 1.03125 -2.375q0.71875 -0.90625 2.0625 -1.390625q1.359375 -0.5 3.140625 -0.5q1.78125 0 2.875 0.421875q1.109375 0.421875 1.625 1.046875q0.53125 0.625 0.734375 1.59375q0.125 0.59375 0.125 2.15625l0 3.125q0 3.265625 0.140625 4.140625q0.15625 0.859375 0.59375 1.65625l-2.4375 0q-0.375 -0.734375 -0.46875 -1.703125zm-0.203125 -5.234375q-1.265625 0.515625 -3.828125 0.890625q-1.4375 0.203125 -2.046875 0.46875q-0.59375 0.25 -0.921875 0.75q-0.3125 0.5 -0.3125 1.125q0 0.9375 0.703125 1.5625q0.703125 0.625 2.078125 0.625q1.34375 0 2.390625 -0.59375q1.0625 -0.59375 1.5625 -1.625q0.375 -0.796875 0.375 -2.34375l0 -0.859375zm12.543396 0.03125q0 -3.84375 2.125 -5.6875q1.78125 -1.546875 4.34375 -1.546875q2.859375 0 4.65625 1.875q1.8125 1.859375 1.8125 5.15625q0 2.671875 -0.796875 4.203125q-0.796875 1.53125 -2.328125 2.375q-1.53125 0.84375 -3.34375 0.84375q-2.890625 0 -4.6875 -1.859375q-1.78125 -1.859375 -1.78125 -5.359375zm2.40625 0q0 2.65625 1.15625 3.984375q1.15625 1.3125 2.90625 1.3125q1.75 0 2.90625 -1.328125q1.15625 -1.328125 1.15625 -4.046875q0 -2.5625 -1.171875 -3.890625q-1.15625 -1.328125 -2.890625 -1.328125q-1.75 0 -2.90625 1.328125q-1.15625 1.3125 -1.15625 3.96875zm19.746521 2.78125l2.328125 -0.359375q0.1875 1.390625 1.078125 2.140625q0.890625 0.734375 2.5 0.734375q1.609375 0 2.390625 -0.65625q0.78125 -0.65625 0.78125 -1.546875q0 -0.796875 -0.6875 -1.25q-0.484375 -0.3125 -2.390625 -0.796875q-2.578125 -0.65625 -3.578125 -1.125q-1.0 -0.46875 -1.515625 -1.3125q-0.515625 -0.84375 -0.515625 -1.859375q0 -0.921875 0.421875 -1.703125q0.4375 -0.796875 1.15625 -1.3125q0.546875 -0.40625 1.484375 -0.6875q0.953125 -0.28125 2.03125 -0.28125q1.625 0 2.859375 0.46875q1.234375 0.46875 1.8125 1.28125q0.59375 0.796875 0.8125 2.140625l-2.296875 0.3125q-0.15625 -1.078125 -0.90625 -1.671875q-0.75 -0.59375 -2.109375 -0.59375q-1.609375 0 -2.3125 0.53125q-0.6875 0.53125 -0.6875 1.25q0 0.453125 0.296875 0.8125q0.28125 0.375 0.890625 0.625q0.359375 0.140625 2.078125 0.609375q2.484375 0.65625 3.46875 1.078125q0.984375 0.421875 1.53125 1.234375q0.5625 0.796875 0.5625 2.0q0 1.171875 -0.6875 2.21875q-0.671875 1.03125 -1.96875 1.59375q-1.28125 0.5625 -2.90625 0.5625q-2.703125 0 -4.125 -1.109375q-1.40625 -1.125 -1.796875 -3.328125zm14.28125 -12.265625l0 -2.6875l2.34375 0l0 2.6875l-2.34375 0zm0 16.390625l0 -13.828125l2.34375 0l0 13.828125l-2.34375 0zm4.969055 -4.125l2.328125 -0.359375q0.1875 1.390625 1.078125 2.140625q0.890625 0.734375 2.5 0.734375q1.609375 0 2.390625 -0.65625q0.78125 -0.65625 0.78125 -1.546875q0 -0.796875 -0.6875 -1.25q-0.484375 -0.3125 -2.390625 -0.796875q-2.578125 -0.65625 -3.578125 -1.125q-1.0 -0.46875 -1.515625 -1.3125q-0.515625 -0.84375 -0.515625 -1.859375q0 -0.921875 0.421875 -1.703125q0.4375 -0.796875 1.15625 -1.3125q0.546875 -0.40625 1.484375 -0.6875q0.953125 -0.28125 2.03125 -0.28125q1.625 0 2.859375 0.46875q1.234375 0.46875 1.8125 1.28125q0.59375 0.796875 0.8125 2.140625l-2.296875 0.3125q-0.15625 -1.078125 -0.90625 -1.671875q-0.75 -0.59375 -2.109375 -0.59375q-1.609375 0 -2.3125 0.53125q-0.6875 0.53125 -0.6875 1.25q0 0.453125 0.296875 0.8125q0.28125 0.375 0.890625 0.625q0.359375 0.140625 2.078125 0.609375q2.484375 0.65625 3.46875 1.078125q0.984375 0.421875 1.53125 1.234375q0.5625 0.796875 0.5625 2.0q0 1.171875 -0.6875 2.21875q-0.671875 1.03125 -1.96875 1.59375q-1.28125 0.5625 -2.90625 0.5625q-2.703125 0 -4.125 -1.109375q-1.40625 -1.125 -1.796875 -3.328125zm19.390625 2.03125l0.328125 2.0625q-0.984375 0.21875 -1.765625 0.21875q-1.265625 0 -1.96875 -0.40625q-0.703125 -0.40625 -1.0 -1.0625q-0.28125 -0.65625 -0.28125 -2.765625l0 -7.953125l-1.71875 0l0 -1.828125l1.71875 0l0 -3.421875l2.328125 -1.40625l0 4.828125l2.359375 0l0 1.828125l-2.359375 0l0 8.078125q0 1.0 0.125 1.296875q0.125 0.28125 0.40625 0.453125q0.28125 0.171875 0.796875 0.171875q0.390625 0 1.03125 -0.09375zm11.749695 -2.359375l2.421875 0.296875q-0.578125 2.125 -2.125 3.296875q-1.546875 1.171875 -3.953125 1.171875q-3.03125 0 -4.8125 -1.859375q-1.78125 -1.875 -1.78125 -5.25q0 -3.484375 1.796875 -5.40625q1.796875 -1.9375 4.671875 -1.9375q2.765625 0 4.515625 1.890625q1.765625 1.890625 1.765625 5.3125q0 0.203125 -0.015625 0.625l-10.3125 0q0.140625 2.28125 1.296875 3.5q1.15625 1.203125 2.890625 1.203125q1.28125 0 2.1875 -0.671875q0.921875 -0.6875 1.453125 -2.171875zm-7.6875 -3.78125l7.71875 0q-0.15625 -1.75 -0.890625 -2.625q-1.125 -1.34375 -2.90625 -1.34375q-1.609375 0 -2.71875 1.078125q-1.09375 1.078125 -1.203125 2.890625zm13.043701 8.234375l0 -13.828125l2.109375 0l0 1.9375q0.640625 -1.015625 1.71875 -1.625q1.09375 -0.625 2.46875 -0.625q1.53125 0 2.515625 0.640625q0.984375 0.640625 1.390625 1.78125q1.640625 -2.421875 4.265625 -2.421875q2.0625 0 3.15625 1.140625q1.109375 1.140625 1.109375 3.515625l0 9.484375l-2.328125 0l0 -8.703125q0 -1.40625 -0.234375 -2.015625q-0.21875 -0.625 -0.828125 -1.0q-0.59375 -0.390625 -1.390625 -0.390625q-1.46875 0 -2.4375 0.96875q-0.953125 0.96875 -0.953125 3.109375l0 8.03125l-2.34375 0l0 -8.984375q0 -1.5625 -0.578125 -2.34375q-0.5625 -0.78125 -1.875 -0.78125q-0.984375 0 -1.828125 0.53125q-0.828125 0.515625 -1.21875 1.515625q-0.375 1.0 -0.375 2.890625l0 7.171875l-2.34375 0zm31.236084 -1.703125q-1.3125 1.109375 -2.515625 1.5625q-1.203125 0.453125 -2.578125 0.453125q-2.28125 0 -3.5 -1.109375q-1.21875 -1.109375 -1.21875 -2.84375q0 -1.015625 0.453125 -1.859375q0.46875 -0.84375 1.21875 -1.34375q0.75 -0.515625 1.6875 -0.765625q0.6875 -0.1875 2.078125 -0.359375q2.828125 -0.328125 4.171875 -0.796875q0.015625 -0.484375 0.015625 -0.625q0 -1.421875 -0.65625 -2.015625q-0.90625 -0.796875 -2.671875 -0.796875q-1.65625 0 -2.453125 0.59375q-0.78125 0.578125 -1.15625 2.046875l-2.296875 -0.3125q0.3125 -1.46875 1.03125 -2.375q0.71875 -0.90625 2.0625 -1.390625q1.359375 -0.5 3.140625 -0.5q1.78125 0 2.875 0.421875q1.109375 0.421875 1.625 1.046875q0.53125 0.625 0.734375 1.59375q0.125 0.59375 0.125 2.15625l0 3.125q0 3.265625 0.140625 4.140625q0.15625 0.859375 0.59375 1.65625l-2.4375 0q-0.375 -0.734375 -0.46875 -1.703125zm-0.203125 -5.234375q-1.265625 0.515625 -3.828125 0.890625q-1.4375 0.203125 -2.046875 0.46875q-0.59375 0.25 -0.921875 0.75q-0.3125 0.5 -0.3125 1.125q0 0.9375 0.703125 1.5625q0.703125 0.625 2.078125 0.625q1.34375 0 2.390625 -0.59375q1.0625 -0.59375 1.5625 -1.625q0.375 -0.796875 0.375 -2.34375l0 -0.859375z" fill-rule="nonzero"/><path fill="#000000" fill-opacity="0.0" d="m378.4449 190.0l197.57483 0l0 96.944885l-197.57483 0z" fill-rule="evenodd"/><path fill="#ff0000" d="m394.34946 229.72l0 -22.71875l4.625 0l0 18.859375l11.5 0l0 3.859375l-16.125 0zm19.390625 -18.84375l0 -4.0625l4.390625 0l0 4.0625l-4.390625 0zm0 18.84375l0 -16.59375l4.390625 0l0 16.59375l-4.390625 0zm23.984375 0l-4.390625 0l0 -8.46875q0 -2.6875 -0.28125 -3.46875q-0.28125 -0.796875 -0.921875 -1.234375q-0.625 -0.4375 -1.515625 -0.4375q-1.140625 0 -2.046875 0.625q-0.90625 0.625 -1.25 1.65625q-0.328125 1.03125 -0.328125 3.8125l0 7.515625l-4.390625 0l0 -16.59375l4.078125 0l0 2.4375q2.171875 -2.8125 5.46875 -2.8125q1.453125 0 2.65625 0.53125q1.203125 0.515625 1.8125 1.328125q0.625 0.8125 0.859375 1.84375q0.25 1.03125 0.25 2.953125l0 10.3125zm4.046875 1.09375l5.015625 0.609375q0.125 0.875 0.578125 1.203125q0.625 0.46875 1.96875 0.46875q1.71875 0 2.578125 -0.515625q0.578125 -0.34375 0.875 -1.109375q0.203125 -0.546875 0.203125 -2.015625l0 -2.421875q-1.96875 2.6875 -4.96875 2.6875q-3.34375 0 -5.296875 -2.828125q-1.53125 -2.234375 -1.53125 -5.5625q0 -4.171875 2.0 -6.375q2.015625 -2.203125 5.0 -2.203125q3.078125 0 5.078125 2.703125l0 -2.328125l4.109375 0l0 14.890625q0 2.9375 -0.484375 4.390625q-0.484375 1.453125 -1.359375 2.28125q-0.875 0.828125 -2.34375 1.296875q-1.453125 0.46875 -3.6875 0.46875q-4.21875 0 -5.984375 -1.453125q-1.765625 -1.4375 -1.765625 -3.65625q0 -0.21875 0.015625 -0.53125zm3.921875 -9.734375q0 2.640625 1.015625 3.875q1.03125 1.21875 2.53125 1.21875q1.609375 0 2.71875 -1.25q1.109375 -1.265625 1.109375 -3.734375q0 -2.578125 -1.0625 -3.828125q-1.0625 -1.25 -2.6875 -1.25q-1.578125 0 -2.609375 1.234375q-1.015625 1.21875 -1.015625 3.734375zm26.953125 8.640625l0 -2.484375q-0.90625 1.328125 -2.390625 2.09375q-1.46875 0.765625 -3.109375 0.765625q-1.671875 0 -3.0 -0.734375q-1.328125 -0.734375 -1.921875 -2.0625q-0.59375 -1.328125 -0.59375 -3.671875l0 -10.5l4.390625 0l0 7.625q0 3.5 0.234375 4.296875q0.25 0.78125 0.890625 1.25q0.640625 0.453125 1.625 0.453125q1.125 0 2.015625 -0.609375q0.890625 -0.625 1.21875 -1.53125q0.328125 -0.921875 0.328125 -4.484375l0 -7.0l4.390625 0l0 16.59375l-4.078125 0zm11.90625 -11.53125l-3.984375 -0.71875q0.671875 -2.40625 2.3125 -3.5625q1.640625 -1.15625 4.875 -1.15625q2.9375 0 4.375 0.703125q1.4375 0.6875 2.015625 1.765625q0.59375 1.0625 0.59375 3.921875l-0.046875 5.125q0 2.1875 0.203125 3.234375q0.21875 1.03125 0.796875 2.21875l-4.34375 0q-0.171875 -0.4375 -0.421875 -1.296875q-0.109375 -0.390625 -0.15625 -0.515625q-1.125 1.09375 -2.40625 1.640625q-1.28125 0.546875 -2.734375 0.546875q-2.5625 0 -4.046875 -1.390625q-1.46875 -1.390625 -1.46875 -3.515625q0 -1.40625 0.671875 -2.5q0.671875 -1.109375 1.875 -1.6875q1.21875 -0.59375 3.5 -1.03125q3.078125 -0.578125 4.265625 -1.078125l0 -0.4375q0 -1.265625 -0.625 -1.796875q-0.625 -0.546875 -2.359375 -0.546875q-1.171875 0 -1.828125 0.46875q-0.65625 0.453125 -1.0625 1.609375zm5.875 3.5625q-0.84375 0.28125 -2.671875 0.671875q-1.828125 0.390625 -2.390625 0.765625q-0.859375 0.609375 -0.859375 1.546875q0 0.921875 0.6875 1.59375q0.6875 0.671875 1.75 0.671875q1.1875 0 2.265625 -0.78125q0.796875 -0.59375 1.046875 -1.453125q0.171875 -0.5625 0.171875 -2.140625l0 -0.875zm8.234375 9.0625l5.015625 0.609375q0.125 0.875 0.578125 1.203125q0.625 0.46875 1.96875 0.46875q1.71875 0 2.578125 -0.515625q0.578125 -0.34375 0.875 -1.109375q0.203125 -0.546875 0.203125 -2.015625l0 -2.421875q-1.96875 2.6875 -4.96875 2.6875q-3.34375 0 -5.296875 -2.828125q-1.53125 -2.234375 -1.53125 -5.5625q0 -4.171875 2.0 -6.375q2.015625 -2.203125 5.0 -2.203125q3.078125 0 5.078125 2.703125l0 -2.328125l4.1094055 0l0 14.890625q0 2.9375 -0.484375 4.390625q-0.484375 1.453125 -1.359375 2.28125q-0.8750305 0.828125 -2.3437805 1.296875q-1.453125 0.46875 -3.6875 0.46875q-4.21875 0 -5.984375 -1.453125q-1.765625 -1.4375 -1.765625 -3.65625q0 -0.21875 0.015625 -0.53125zm3.921875 -9.734375q0 2.640625 1.015625 3.875q1.03125 1.21875 2.53125 1.21875q1.609375 0 2.71875 -1.25q1.109375 -1.265625 1.109375 -3.734375q0 -2.578125 -1.0625 -3.828125q-1.0625 -1.25 -2.6875 -1.25q-1.578125 0 -2.609375 1.234375q-1.015625 1.21875 -1.015625 3.734375zm25.640656 3.359375l4.375 0.734375q-0.84375 2.40625 -2.671875 3.671875q-1.8125 1.25 -4.546875 1.25q-4.328125 0 -6.40625 -2.828125q-1.640625 -2.265625 -1.640625 -5.71875q0 -4.125 2.15625 -6.453125q2.15625 -2.34375 5.453125 -2.34375q3.703125 0 5.84375 2.453125q2.140625 2.4375 2.046875 7.484375l-11.0 0q0.046875 1.953125 1.0625 3.046875q1.015625 1.078125 2.53125 1.078125q1.03125 0 1.734375 -0.5625q0.703125 -0.5625 1.0625 -1.8125zm0.25 -4.4375q-0.046875 -1.90625 -0.984375 -2.890625q-0.9375 -1.0 -2.28125 -1.0q-1.4375 0 -2.375 1.046875q-0.9375 1.046875 -0.921875 2.84375l6.5625 0zm7.609375 -6.875l4.046875 0l0 2.265625q2.171875 -2.640625 5.171875 -2.640625q1.59375 0 2.765625 0.65625q1.171875 0.65625 1.921875 1.984375q1.09375 -1.328125 2.359375 -1.984375q1.265625 -0.65625 2.703125 -0.65625q1.828125 0 3.09375 0.75q1.265625 0.734375 1.890625 2.171875q0.453125 1.0625 0.453125 3.4375l0 10.609375l-4.390625 0l0 -9.484375q0 -2.46875 -0.453125 -3.1875q-0.609375 -0.9375 -1.875 -0.9375q-0.921875 0 -1.734375 0.5625q-0.8125 0.5625 -1.171875 1.65625q-0.359375 1.078125 -0.359375 3.421875l0 7.96875l-4.390625 0l0 -9.09375q0 -2.421875 -0.234375 -3.125q-0.234375 -0.703125 -0.734375 -1.046875q-0.484375 -0.34375 -1.328125 -0.34375q-1.015625 0 -1.828125 0.546875q-0.8125 0.546875 -1.171875 1.578125q-0.34375 1.03125 -0.34375 3.421875l0 8.0625l-4.390625 0l0 -16.59375z" fill-rule="nonzero"/><path fill="#ff0000" d="m425.3104 245.21375l4.625 0l0 12.40625q0 2.953125 0.171875 3.828125q0.296875 1.40625 1.40625 2.265625q1.125 0.84375 3.0625 0.84375q1.96875 0 2.96875 -0.796875q1.0 -0.8125 1.203125 -1.984375q0.203125 -1.171875 0.203125 -3.890625l0 -12.671875l4.625 0l0 12.03125q0 4.125 -0.375 5.828125q-0.375 1.703125 -1.390625 2.875q-1.0 1.171875 -2.6875 1.875q-1.6875 0.6875 -4.40625 0.6875q-3.28125 0 -4.984375 -0.75q-1.6875 -0.765625 -2.671875 -1.96875q-0.984375 -1.21875 -1.296875 -2.546875q-0.453125 -1.96875 -0.453125 -5.8125l0 -12.21875zm22.921875 22.90625l0 -22.90625l4.390625 0l0 8.25q2.03125 -2.3125 4.8125 -2.3125q3.03125 0 5.015625 2.203125q1.984375 2.1875 1.984375 6.296875q0 4.25 -2.03125 6.546875q-2.015625 2.296875 -4.90625 2.296875q-1.421875 0 -2.8125 -0.703125q-1.375 -0.71875 -2.375 -2.109375l0 2.4375l-4.078125 0zm4.359375 -8.65625q0 2.578125 0.8125 3.8125q1.140625 1.75 3.03125 1.75q1.453125 0 2.46875 -1.234375q1.03125 -1.25 1.03125 -3.921875q0 -2.84375 -1.03125 -4.09375q-1.03125 -1.265625 -2.640625 -1.265625q-1.578125 0 -2.625 1.234375q-1.046875 1.21875 -1.046875 3.71875zm15.375 8.65625l0 -16.59375l4.390625 0l0 16.59375l-4.390625 0zm-0.328125 -18.625l2.15625 -4.671875l4.921875 0l-4.296875 4.671875l-2.78125 0zm20.0625 24.9375l0 -8.34375q-0.859375 1.109375 -2.140625 1.765625q-1.28125 0.640625 -2.765625 0.640625q-2.828125 0 -4.65625 -2.125q-2.15625 -2.484375 -2.15625 -6.734375q0 -4.0 2.015625 -6.234375q2.03125 -2.25 5.03125 -2.25q1.65625 0 2.859375 0.703125q1.21875 0.703125 2.15625 2.125l0 -2.453125l4.046875 0l0 22.90625l-4.390625 0zm0.140625 -14.8125q0 -2.546875 -1.046875 -3.78125q-1.03125 -1.25 -2.59375 -1.25q-1.59375 0 -2.671875 1.265625q-1.0625 1.265625 -1.0625 4.015625q0 2.734375 1.03125 3.953125q1.03125 1.203125 2.546875 1.203125q1.515625 0 2.65625 -1.359375q1.140625 -1.359375 1.140625 -4.046875zm19.484375 8.5l0 -2.484375q-0.90625 1.328125 -2.390625 2.09375q-1.46875 0.765625 -3.109375 0.765625q-1.671875 0 -3.0 -0.734375q-1.328125 -0.734375 -1.921875 -2.0625q-0.59375 -1.328125 -0.59375 -3.671875l0 -10.5l4.390625 0l0 7.625q0 3.5 0.234375 4.296875q0.25 0.78125 0.890625 1.25q0.640625 0.453125 1.625 0.453125q1.125 0 2.015625 -0.609375q0.890625 -0.625 1.21875 -1.53125q0.328125 -0.921875 0.328125 -4.484375l0 -7.0l4.390625 0l0 16.59375l-4.078125 0zm11.9062805 -11.53125l-3.984375 -0.71875q0.671875 -2.40625 2.3125 -3.5625q1.640625 -1.15625 4.875 -1.15625q2.9375 0 4.375 0.703125q1.4375 0.6875 2.015625 1.765625q0.59375 1.0625 0.59375 3.921875l-0.046875 5.125q0 2.1875 0.203125 3.234375q0.21875 1.03125 0.796875 2.21875l-4.34375 0q-0.171875 -0.4375 -0.421875 -1.296875q-0.109375 -0.390625 -0.15625 -0.515625q-1.125 1.09375 -2.40625 1.640625q-1.28125 0.546875 -2.734375 0.546875q-2.5625 0 -4.046875 -1.390625q-1.46875 -1.390625 -1.46875 -3.515625q0 -1.40625 0.671875 -2.5q0.671875 -1.109375 1.875 -1.6875q1.21875 -0.59375 3.5 -1.03125q3.078125 -0.578125 4.265625 -1.078125l0 -0.4375q0 -1.265625 -0.625 -1.796875q-0.625 -0.546875 -2.359375 -0.546875q-1.171875 0 -1.828125 0.46875q-0.65625 0.453125 -1.0625 1.609375zm5.875 3.5625q-0.84375 0.28125 -2.671875 0.671875q-1.828125 0.390625 -2.390625 0.765625q-0.859375 0.609375 -0.859375 1.546875q0 0.921875 0.6875 1.59375q0.6875 0.671875 1.75 0.671875q1.1875 0 2.265625 -0.78125q0.796875 -0.59375 1.046875 -1.453125q0.171875 -0.5625 0.171875 -2.140625l0 -0.875z" fill-rule="nonzero"/><path fill="#000000" fill-opacity="0.0" d="m100.65879 424.3071l762.1102 0l0 48.472443l-762.1102 0z" fill-rule="evenodd"/><path fill="#000000" d="m122.78379 439.15958l2.28125 0l0 9.9375q0 2.578125 -0.59375 4.109375q-0.578125 1.515625 -2.109375 2.484375q-1.53125 0.953125 -4.015625 0.953125q-2.421875 0 -3.953125 -0.828125q-1.53125 -0.84375 -2.1875 -2.421875q-0.65625 -1.578125 -0.65625 -4.296875l0 -9.9375l2.265625 0l0 9.921875q0 2.234375 0.421875 3.296875q0.421875 1.0625 1.421875 1.640625q1.015625 0.5625 2.484375 0.5625q2.515625 0 3.578125 -1.125q1.0625 -1.140625 1.0625 -4.375l0 -9.921875zm7.738289 17.1875l-1.953125 0l0 -17.1875l2.109375 0l0 6.140625q1.328125 -1.6875 3.40625 -1.6875q1.140625 0 2.171875 0.46875q1.03125 0.46875 1.6875 1.3125q0.65625 0.828125 1.03125 2.015625q0.375 1.171875 0.375 2.53125q0 3.1875 -1.578125 4.9375q-1.578125 1.75 -3.796875 1.75q-2.203125 0 -3.453125 -1.84375l0 1.5625zm-0.03125 -6.3125q0 2.234375 0.609375 3.234375q1.0 1.625 2.703125 1.625q1.375 0 2.375 -1.203125q1.015625 -1.203125 1.015625 -3.578125q0 -2.4375 -0.96875 -3.59375q-0.953125 -1.171875 -2.328125 -1.171875q-1.390625 0 -2.40625 1.203125q-1.0 1.203125 -1.0 3.484375zm12.175781 6.3125l0 -12.453125l2.109375 0l0 12.453125l-2.109375 0zm-0.109375 -14.0l1.546875 -3.28125l2.765625 0l-2.578125 3.28125l-1.734375 0zm13.964844 18.765625l0 -6.09375q-0.484375 0.6875 -1.375 1.15625q-0.890625 0.453125 -1.875 0.453125q-2.21875 0 -3.828125 -1.765625q-1.59375 -1.78125 -1.59375 -4.859375q0 -1.875 0.640625 -3.359375q0.65625 -1.484375 1.890625 -2.25q1.25 -0.78125 2.71875 -0.78125q2.3125 0 3.640625 1.953125l0 -1.671875l1.890625 0l0 17.21875l-2.109375 0zm-6.5 -11.03125q0 2.40625 1.0 3.609375q1.015625 1.203125 2.421875 1.203125q1.34375 0 2.3125 -1.140625q0.984375 -1.140625 0.984375 -3.484375q0 -2.484375 -1.03125 -3.734375q-1.03125 -1.25 -2.40625 -1.25q-1.375 0 -2.328125 1.171875q-0.953125 1.15625 -0.953125 3.625zm20.066406 6.265625l0 -1.828125q-1.453125 2.109375 -3.9375 2.109375q-1.109375 0 -2.0625 -0.421875q-0.953125 -0.421875 -1.421875 -1.0625q-0.453125 -0.640625 -0.640625 -1.5625q-0.140625 -0.625 -0.140625 -1.96875l0 -7.71875l2.109375 0l0 6.90625q0 1.65625 0.140625 2.234375q0.1875 0.828125 0.828125 1.3125q0.65625 0.46875 1.609375 0.46875q0.9375 0 1.765625 -0.484375q0.84375 -0.5 1.1875 -1.328125q0.34375 -0.84375 0.34375 -2.4375l0 -6.671875l2.109375 0l0 12.453125l-1.890625 0zm13.316406 -1.53125q-1.171875 0.984375 -2.265625 1.40625q-1.078125 0.40625 -2.3125 0.40625q-2.046875 0 -3.15625 -1.0q-1.09375 -1.0 -1.09375 -2.5625q0 -0.921875 0.40625 -1.671875q0.421875 -0.75 1.09375 -1.203125q0.671875 -0.46875 1.515625 -0.703125q0.625 -0.15625 1.875 -0.3125q2.5625 -0.3125 3.765625 -0.734375q0.015625 -0.421875 0.015625 -0.546875q0 -1.28125 -0.609375 -1.8125q-0.796875 -0.71875 -2.390625 -0.71875q-1.5 0 -2.203125 0.53125q-0.703125 0.515625 -1.046875 1.84375l-2.0625 -0.28125q0.28125 -1.328125 0.921875 -2.140625q0.640625 -0.8125 1.859375 -1.25q1.21875 -0.453125 2.828125 -0.453125q1.59375 0 2.59375 0.375q1.0 0.375 1.46875 0.953125q0.46875 0.5625 0.65625 1.4375q0.09375 0.53125 0.09375 1.9375l0 2.8125q0 2.9375 0.140625 3.71875q0.140625 0.78125 0.53125 1.5l-2.203125 0q-0.328125 -0.65625 -0.421875 -1.53125zm-0.171875 -4.71875q-1.15625 0.46875 -3.453125 0.796875q-1.296875 0.1875 -1.84375 0.421875q-0.53125 0.234375 -0.828125 0.6875q-0.28125 0.453125 -0.28125 1.0q0 0.84375 0.625 1.40625q0.640625 0.5625 1.875 0.5625q1.21875 0 2.171875 -0.53125q0.953125 -0.53125 1.390625 -1.453125q0.34375 -0.71875 0.34375 -2.109375l0 -0.78125zm23.171875 -3.859375l-11.34375 0l0 -1.96875l11.34375 0l0 1.96875zm0 5.21875l-11.34375 0l0 -1.96875l11.34375 0l0 1.96875zm14.183594 3.0l0.3125 1.859375q-0.890625 0.203125 -1.59375 0.203125q-1.15625 0 -1.796875 -0.359375q-0.625 -0.375 -0.890625 -0.96875q-0.25 -0.59375 -0.25 -2.484375l0 -7.171875l-1.546875 0l0 -1.640625l1.546875 0l0 -3.078125l2.09375 -1.265625l0 4.34375l2.125 0l0 1.640625l-2.125 0l0 7.28125q0 0.90625 0.109375 1.171875q0.125 0.25 0.375 0.40625q0.25 0.140625 0.71875 0.140625q0.34375 0 0.921875 -0.078125zm10.589844 -2.125l2.171875 0.28125q-0.515625 1.90625 -1.90625 2.96875q-1.390625 1.046875 -3.5625 1.046875q-2.734375 0 -4.34375 -1.671875q-1.59375 -1.6875 -1.59375 -4.734375q0 -3.140625 1.609375 -4.875q1.625 -1.734375 4.203125 -1.734375q2.5 0 4.078125 1.703125q1.59375 1.703125 1.59375 4.78125q0 0.1875 -0.015625 0.5625l-9.28125 0q0.109375 2.046875 1.15625 3.140625q1.046875 1.09375 2.609375 1.09375q1.15625 0 1.96875 -0.609375q0.828125 -0.609375 1.3125 -1.953125zm-6.9375 -3.40625l6.953125 0q-0.140625 -1.5625 -0.796875 -2.359375q-1.0 -1.21875 -2.609375 -1.21875q-1.453125 0 -2.453125 0.984375q-0.984375 0.96875 -1.09375 2.59375zm11.738281 7.421875l0 -12.453125l1.890625 0l0 1.890625q0.734375 -1.328125 1.34375 -1.75q0.625 -0.421875 1.359375 -0.421875q1.0625 0 2.171875 0.6875l-0.734375 1.953125q-0.765625 -0.453125 -1.546875 -0.453125q-0.6875 0 -1.25 0.421875q-0.546875 0.40625 -0.78125 1.140625q-0.34375 1.125 -0.34375 2.46875l0 6.515625l-2.109375 0zm8.0078125 0l0 -12.453125l1.890625 0l0 1.75q0.59375 -0.90625 1.5625 -1.46875q0.96875 -0.5625 2.21875 -0.5625q1.375 0 2.25 0.578125q0.890625 0.578125 1.265625 1.609375q1.46875 -2.1875 3.8437347 -2.1875q1.84375 0 2.84375 1.03125q1.0 1.03125 1.0 3.15625l0 8.546875l-2.109375 0l0 -7.84375q0 -1.265625 -0.203125 -1.8125q-0.203125 -0.5625 -0.75 -0.90625q-0.53125 -0.34375 -1.25 -0.34375q-1.3124847 0 -2.1874847 0.875q-0.859375 0.875 -0.859375 2.796875l0 7.234375l-2.109375 0l0 -8.09375q0 -1.40625 -0.515625 -2.109375q-0.515625 -0.703125 -1.6875 -0.703125q-0.890625 0 -1.65625 0.46875q-0.75 0.46875 -1.09375 1.375q-0.34375 0.90625 -0.34375 2.609375l0 6.453125l-2.109375 0zm19.210922 -6.21875q0 -3.46875 1.921875 -5.125q1.609375 -1.390625 3.921875 -1.390625q2.5625 0 4.1875 1.6875q1.625 1.6875 1.625 4.640625q0 2.40625 -0.71875 3.78125q-0.71875 1.375 -2.09375 2.140625q-1.375 0.765625 -3.0 0.765625q-2.625 0 -4.234375 -1.671875q-1.609375 -1.6875 -1.609375 -4.828125zm2.171875 0q0 2.390625 1.03125 3.578125q1.046875 1.1875 2.640625 1.1875q1.5625 0 2.609375 -1.1875q1.046875 -1.203125 1.046875 -3.65625q0 -2.3125 -1.0625 -3.5q-1.046875 -1.1875 -2.59375 -1.1875q-1.59375 0 -2.640625 1.1875q-1.03125 1.1875 -1.03125 3.578125zm11.113281 2.5l2.09375 -0.328125q0.171875 1.25 0.96875 1.921875q0.8125 0.671875 2.25 0.671875q1.453125 0 2.15625 -0.59375q0.703125 -0.59375 0.703125 -1.390625q0 -0.71875 -0.625 -1.125q-0.421875 -0.28125 -2.15625 -0.71875q-2.3125 -0.578125 -3.21875 -1.0q-0.890625 -0.4375 -1.359375 -1.1875q-0.453125 -0.765625 -0.453125 -1.671875q0 -0.828125 0.375 -1.53125q0.390625 -0.71875 1.046875 -1.1875q0.484375 -0.359375 1.328125 -0.609375q0.859375 -0.265625 1.828125 -0.265625q1.46875 0 2.578125 0.421875q1.109375 0.421875 1.625 1.15625q0.53125 0.71875 0.734375 1.921875l-2.0625 0.28125q-0.140625 -0.96875 -0.8125 -1.5q-0.671875 -0.546875 -1.90625 -0.546875q-1.453125 0 -2.078125 0.484375q-0.625 0.484375 -0.625 1.125q0 0.40625 0.265625 0.734375q0.25 0.34375 0.8125 0.5625q0.3125 0.125 1.859375 0.546875q2.234375 0.59375 3.109375 0.984375q0.890625 0.375 1.390625 1.109375q0.515625 0.71875 0.515625 1.796875q0 1.046875 -0.625 1.984375q-0.609375 0.9375 -1.765625 1.453125q-1.15625 0.5 -2.625 0.5q-2.421875 0 -3.703125 -1.0q-1.265625 -1.015625 -1.625 -3.0zm27.449219 8.484375l0 -6.09375q-0.484375 0.6875 -1.375 1.15625q-0.890625 0.453125 -1.875 0.453125q-2.21875 0 -3.828125 -1.765625q-1.59375 -1.78125 -1.59375 -4.859375q0 -1.875 0.640625 -3.359375q0.65625 -1.484375 1.890625 -2.25q1.25 -0.78125 2.71875 -0.78125q2.3125 0 3.640625 1.953125l0 -1.671875l1.890625 0l0 17.21875l-2.109375 0zm-6.5 -11.03125q0 2.40625 1.0 3.609375q1.015625 1.203125 2.421875 1.203125q1.34375 0 2.3125 -1.140625q0.984375 -1.140625 0.984375 -3.484375q0 -2.484375 -1.03125 -3.734375q-1.03125 -1.25 -2.40625 -1.25q-1.375 0 -2.328125 1.171875q-0.953125 1.15625 -0.953125 3.625zm20.066406 6.265625l0 -1.828125q-1.453125 2.109375 -3.9375 2.109375q-1.109375 0 -2.0625 -0.421875q-0.953125 -0.421875 -1.421875 -1.0625q-0.453125 -0.640625 -0.640625 -1.5625q-0.140625 -0.625 -0.140625 -1.96875l0 -7.71875l2.109375 0l0 6.90625q0 1.65625 0.140625 2.234375q0.1875 0.828125 0.828125 1.3125q0.65625 0.46875 1.609375 0.46875q0.9375 0 1.765625 -0.484375q0.84375 -0.5 1.1875 -1.328125q0.34375 -0.84375 0.34375 -2.4375l0 -6.671875l2.109375 0l0 12.453125l-1.890625 0zm13.722656 -4.015625l2.171875 0.28125q-0.515625 1.90625 -1.90625 2.96875q-1.390625 1.046875 -3.5625 1.046875q-2.734375 0 -4.34375 -1.671875q-1.59375 -1.6875 -1.59375 -4.734375q0 -3.140625 1.609375 -4.875q1.625 -1.734375 4.203125 -1.734375q2.5 0 4.078125 1.703125q1.59375 1.703125 1.59375 4.78125q0 0.1875 -0.015625 0.5625l-9.28125 0q0.109375 2.046875 1.15625 3.140625q1.046875 1.09375 2.609375 1.09375q1.15625 0 1.96875 -0.609375q0.828125 -0.609375 1.3125 -1.953125zm-6.9375 -3.40625l6.953125 0q-0.140625 -1.5625 -0.796875 -2.359375q-1.0 -1.21875 -2.609375 -1.21875q-1.453125 0 -2.453125 0.984375q-0.984375 0.96875 -1.09375 2.59375zm26.5 7.421875l0 -1.578125q-1.1875 1.859375 -3.484375 1.859375q-1.484375 0 -2.734375 -0.8125q-1.25 -0.828125 -1.9375 -2.296875q-0.671875 -1.46875 -0.671875 -3.390625q0 -1.859375 0.609375 -3.375q0.625 -1.515625 1.859375 -2.328125q1.25 -0.8125 2.78125 -0.8125q1.125 0 2.0 0.484375q0.890625 0.46875 1.4375 1.234375l0 -6.171875l2.09375 0l0 17.1875l-1.953125 0zm-6.671875 -6.21875q0 2.390625 1.0 3.578125q1.015625 1.1875 2.390625 1.1875q1.390625 0 2.34375 -1.125q0.96875 -1.140625 0.96875 -3.453125q0 -2.5625 -0.984375 -3.75q-0.984375 -1.203125 -2.421875 -1.203125q-1.40625 0 -2.359375 1.15625q-0.9375 1.140625 -0.9375 3.609375zm20.472656 2.203125l2.171875 0.28125q-0.515625 1.90625 -1.90625 2.96875q-1.390625 1.046875 -3.5625 1.046875q-2.734375 0 -4.34375 -1.671875q-1.59375 -1.6875 -1.59375 -4.734375q0 -3.140625 1.609375 -4.875q1.625 -1.734375 4.203125 -1.734375q2.5 0 4.078125 1.703125q1.59375 1.703125 1.59375 4.78125q0 0.1875 -0.015625 0.5625l-9.28125 0q0.109375 2.046875 1.15625 3.140625q1.046875 1.09375 2.609375 1.09375q1.15625 0 1.96875 -0.609375q0.828125 -0.609375 1.3125 -1.953125zm-6.9375 -3.40625l6.953125 0q-0.140625 -1.5625 -0.796875 -2.359375q-1.0 -1.21875 -2.609375 -1.21875q-1.453125 0 -2.453125 0.984375q-0.984375 0.96875 -1.09375 2.59375zm15.222656 7.421875l-4.734375 -12.453125l2.21875 0l2.671875 7.453125q0.4375 1.21875 0.796875 2.515625q0.28125 -0.984375 0.78125 -2.375l2.765625 -7.59375l2.171875 0l-4.703125 12.453125l-1.96875 0zm7.6875 -3.71875l2.09375 -0.328125q0.171875 1.25 0.96875 1.921875q0.8125 0.671875 2.25 0.671875q1.453125 0 2.15625 -0.59375q0.703125 -0.59375 0.703125 -1.390625q0 -0.71875 -0.625 -1.125q-0.421875 -0.28125 -2.15625 -0.71875q-2.3125 -0.578125 -3.21875 -1.0q-0.890625 -0.4375 -1.359375 -1.1875q-0.453125 -0.765625 -0.453125 -1.671875q0 -0.828125 0.375 -1.53125q0.390625 -0.71875 1.046875 -1.1875q0.484375 -0.359375 1.328125 -0.609375q0.859375 -0.265625 1.828125 -0.265625q1.46875 0 2.578125 0.421875q1.109375 0.421875 1.625 1.15625q0.53125 0.71875 0.734375 1.921875l-2.0625 0.28125q-0.140625 -0.96875 -0.8125 -1.5q-0.671875 -0.546875 -1.90625 -0.546875q-1.453125 0 -2.078125 0.484375q-0.625 0.484375 -0.625 1.125q0 0.40625 0.265625 0.734375q0.25 0.34375 0.8125 0.5625q0.3125 0.125 1.859375 0.546875q2.234375 0.59375 3.109375 0.984375q0.890625 0.375 1.390625 1.109375q0.515625 0.71875 0.515625 1.796875q0 1.046875 -0.625 1.984375q-0.609375 0.9375 -1.765625 1.453125q-1.15625 0.5 -2.625 0.5q-2.421875 0 -3.703125 -1.0q-1.265625 -1.015625 -1.625 -3.0zm28.042969 -0.296875l2.171875 0.28125q-0.515625 1.90625 -1.90625 2.96875q-1.390625 1.046875 -3.5625 1.046875q-2.734375 0 -4.34375 -1.671875q-1.59375 -1.6875 -1.59375 -4.734375q0 -3.140625 1.609375 -4.875q1.625 -1.734375 4.203125 -1.734375q2.5 0 4.078125 1.703125q1.59375 1.703125 1.59375 4.78125q0 0.1875 -0.015625 0.5625l-9.28125 0q0.109375 2.046875 1.15625 3.140625q1.046875 1.09375 2.609375 1.09375q1.15625 0 1.96875 -0.609375q0.828125 -0.609375 1.3125 -1.953125zm-6.9375 -3.40625l6.953125 0q-0.140625 -1.5625 -0.796875 -2.359375q-1.0 -1.21875 -2.609375 -1.21875q-1.453125 0 -2.453125 0.984375q-0.984375 0.96875 -1.09375 2.59375zm18.421875 12.1875l0 -17.21875l1.921875 0l0 1.625q0.6875 -0.953125 1.53125 -1.421875q0.859375 -0.484375 2.078125 -0.484375q1.59375 0 2.8125 0.828125q1.21875 0.8125 1.84375 2.3125q0.625 1.5 0.625 3.28125q0 1.90625 -0.6875 3.4375q-0.6875 1.53125 -2.0 2.34375q-1.296875 0.8125 -2.734375 0.8125q-1.0625 0 -1.90625 -0.4375q-0.828125 -0.453125 -1.375 -1.140625l0 6.0625l-2.109375 0zm1.921875 -10.921875q0 2.40625 0.96875 3.5625q0.96875 1.140625 2.359375 1.140625q1.40625 0 2.40625 -1.1875q1.0 -1.1875 1.0 -3.6875q0 -2.375 -0.984375 -3.5625q-0.96875 -1.1875 -2.328125 -1.1875q-1.359375 0 -2.390625 1.265625q-1.03125 1.25 -1.03125 3.65625zm19.957031 2.140625l2.171875 0.28125q-0.515625 1.90625 -1.90625 2.96875q-1.390625 1.046875 -3.5625 1.046875q-2.734375 0 -4.34375 -1.671875q-1.59375 -1.6875 -1.59375 -4.734375q0 -3.140625 1.609375 -4.875q1.625 -1.734375 4.203125 -1.734375q2.5 0 4.078125 1.703125q1.59375 1.703125 1.59375 4.78125q0 0.1875 -0.015625 0.5625l-9.28125 0q0.109375 2.046875 1.15625 3.140625q1.046875 1.09375 2.609375 1.09375q1.15625 0 1.96875 -0.609375q0.828125 -0.609375 1.3125 -1.953125zm-6.9375 -3.40625l6.953125 0q-0.140625 -1.5625 -0.796875 -2.359375q-1.0 -1.21875 -2.609375 -1.21875q-1.453125 0 -2.453125 0.984375q-0.984375 0.96875 -1.09375 2.59375zm10.910156 3.703125l2.09375 -0.328125q0.171875 1.25 0.96875 1.921875q0.8125 0.671875 2.25 0.671875q1.453125 0 2.15625 -0.59375q0.703125 -0.59375 0.703125 -1.390625q0 -0.71875 -0.625 -1.125q-0.421875 -0.28125 -2.15625 -0.71875q-2.3125 -0.578125 -3.21875 -1.0q-0.890625 -0.4375 -1.359375 -1.1875q-0.453125 -0.765625 -0.453125 -1.671875q0 -0.828125 0.375 -1.53125q0.390625 -0.71875 1.046875 -1.1875q0.484375 -0.359375 1.328125 -0.609375q0.859375 -0.265625 1.828125 -0.265625q1.46875 0 2.578125 0.421875q1.109375 0.421875 1.625 1.15625q0.53125 0.71875 0.734375 1.921875l-2.0625 0.28125q-0.140625 -0.96875 -0.8125 -1.5q-0.671875 -0.546875 -1.90625 -0.546875q-1.453125 0 -2.078125 0.484375q-0.625 0.484375 -0.625 1.125q0 0.40625 0.265625 0.734375q0.25 0.34375 0.8125 0.5625q0.3125 0.125 1.859375 0.546875q2.234375 0.59375 3.109375 0.984375q0.890625 0.375 1.390625 1.109375q0.515625 0.71875 0.515625 1.796875q0 1.046875 -0.625 1.984375q-0.609375 0.9375 -1.765625 1.453125q-1.15625 0.5 -2.625 0.5q-2.421875 0 -3.703125 -1.0q-1.265625 -1.015625 -1.625 -3.0zm12.0 0l2.09375 -0.328125q0.171875 1.25 0.96875 1.921875q0.8125 0.671875 2.25 0.671875q1.453125 0 2.15625 -0.59375q0.703125 -0.59375 0.703125 -1.390625q0 -0.71875 -0.625 -1.125q-0.421875 -0.28125 -2.15625 -0.71875q-2.3125 -0.578125 -3.21875 -1.0q-0.890625 -0.4375 -1.359375 -1.1875q-0.453125 -0.765625 -0.453125 -1.671875q0 -0.828125 0.375 -1.53125q0.390625 -0.71875 1.046875 -1.1875q0.484375 -0.359375 1.328125 -0.609375q0.859375 -0.265625 1.828125 -0.265625q1.46875 0 2.578125 0.421875q1.109375 0.421875 1.625 1.15625q0.53125 0.71875 0.734375 1.921875l-2.0625 0.28125q-0.140625 -0.96875 -0.8125 -1.5q-0.671875 -0.546875 -1.90625 -0.546875q-1.453125 0 -2.078125 0.484375q-0.625 0.484375 -0.625 1.125q0 0.40625 0.265625 0.734375q0.25 0.34375 0.8125 0.5625q0.3125 0.125 1.859375 0.546875q2.234375 0.59375 3.109375 0.984375q0.890625 0.375 1.390625 1.109375q0.515625 0.71875 0.515625 1.796875q0 1.046875 -0.625 1.984375q-0.609375 0.9375 -1.765625 1.453125q-1.15625 0.5 -2.625 0.5q-2.421875 0 -3.703125 -1.0q-1.265625 -1.015625 -1.625 -3.0zm12.0625 -2.5q0 -3.46875 1.921875 -5.125q1.609375 -1.390625 3.921875 -1.390625q2.5625 0 4.1875 1.6875q1.625 1.6875 1.625 4.640625q0 2.40625 -0.71875 3.78125q-0.71875 1.375 -2.09375 2.140625q-1.375 0.765625 -3.0 0.765625q-2.625 0 -4.234375 -1.671875q-1.609375 -1.6875 -1.609375 -4.828125zm2.171875 0q0 2.390625 1.03125 3.578125q1.046875 1.1875 2.640625 1.1875q1.5625 0 2.609375 -1.1875q1.046875 -1.203125 1.046875 -3.65625q0 -2.3125 -1.0625 -3.5q-1.046875 -1.1875 -2.59375 -1.1875q-1.59375 0 -2.640625 1.1875q-1.03125 1.1875 -1.03125 3.578125zm20.082031 4.6875q-1.171875 0.984375 -2.265625 1.40625q-1.078125 0.40625 -2.3125 0.40625q-2.046875 0 -3.15625 -1.0q-1.09375 -1.0 -1.09375 -2.5625q0 -0.921875 0.40625 -1.671875q0.421875 -0.75 1.09375 -1.203125q0.671875 -0.46875 1.515625 -0.703125q0.625 -0.15625 1.875 -0.3125q2.5625 -0.3125 3.765625 -0.734375q0.015625 -0.421875 0.015625 -0.546875q0 -1.28125 -0.609375 -1.8125q-0.796875 -0.71875 -2.390625 -0.71875q-1.5 0 -2.203125 0.53125q-0.703125 0.515625 -1.046875 1.84375l-2.0625 -0.28125q0.28125 -1.328125 0.921875 -2.140625q0.640625 -0.8125 1.859375 -1.25q1.21875 -0.453125 2.828125 -0.453125q1.59375 0 2.59375 0.375q1.0 0.375 1.46875 0.953125q0.46875 0.5625 0.65625 1.4375q0.09375 0.53125 0.09375 1.9375l0 2.8125q0 2.9375 0.140625 3.71875q0.140625 0.78125 0.53125 1.5l-2.203125 0q-0.328125 -0.65625 -0.421875 -1.53125zm-0.171875 -4.71875q-1.15625 0.46875 -3.453125 0.796875q-1.296875 0.1875 -1.84375 0.421875q-0.53125 0.234375 -0.828125 0.6875q-0.28125 0.453125 -0.28125 1.0q0 0.84375 0.625 1.40625q0.640625 0.5625 1.875 0.5625q1.21875 0 2.171875 -0.53125q0.953125 -0.53125 1.390625 -1.453125q0.34375 -0.71875 0.34375 -2.109375l0 -0.78125zm4.5507812 2.53125l2.09375 -0.328125q0.171875 1.25 0.96875 1.921875q0.8125 0.671875 2.25 0.671875q1.453125 0 2.15625 -0.59375q0.703125 -0.59375 0.703125 -1.390625q0 -0.71875 -0.625 -1.125q-0.421875 -0.28125 -2.15625 -0.71875q-2.3125 -0.578125 -3.21875 -1.0q-0.890625 -0.4375 -1.359375 -1.1875q-0.453125 -0.765625 -0.453125 -1.671875q0 -0.828125 0.375 -1.53125q0.390625 -0.71875 1.046875 -1.1875q0.484375 -0.359375 1.328125 -0.609375q0.859375 -0.265625 1.828125 -0.265625q1.46875 0 2.578125 0.421875q1.109375 0.421875 1.625 1.15625q0.53125 0.71875 0.734375 1.921875l-2.0625 0.28125q-0.140625 -0.96875 -0.8125 -1.5q-0.671875 -0.546875 -1.90625 -0.546875q-1.453125 0 -2.078125 0.484375q-0.625 0.484375 -0.625 1.125q0 0.40625 0.265625 0.734375q0.25 0.34375 0.8125 0.5625q0.3125 0.125 1.859375 0.546875q2.234375 0.59375 3.109375 0.984375q0.890625 0.375 1.390625 1.109375q0.515625 0.71875 0.515625 1.796875q0 1.046875 -0.625 1.984375q-0.609375 0.9375 -1.765625 1.453125q-1.15625 0.5 -2.625 0.5q-2.421875 0 -3.703125 -1.0q-1.265625 -1.015625 -1.625 -3.0zm27.589874 3.71875l0 -1.578125q-1.1875 1.859375 -3.484375 1.859375q-1.484375 0 -2.734375 -0.8125q-1.25 -0.828125 -1.9375 -2.296875q-0.671875 -1.46875 -0.671875 -3.390625q0 -1.859375 0.609375 -3.375q0.625 -1.515625 1.859375 -2.328125q1.25 -0.8125 2.78125 -0.8125q1.125 0 2.0 0.484375q0.890625 0.46875 1.4375 1.234375l0 -6.171875l2.09375 0l0 17.1875l-1.953125 0zm-6.671875 -6.21875q0 2.390625 1.0 3.578125q1.015625 1.1875 2.390625 1.1875q1.390625 0 2.34375 -1.125q0.96875 -1.140625 0.96875 -3.453125q0 -2.5625 -0.984375 -3.75q-0.984375 -1.203125 -2.421875 -1.203125q-1.40625 0 -2.359375 1.15625q-0.9375 1.140625 -0.9375 3.609375zm11.160156 0q0 -3.46875 1.921875 -5.125q1.609375 -1.390625 3.921875 -1.390625q2.5625 0 4.1875 1.6875q1.625 1.6875 1.625 4.640625q0 2.40625 -0.71875 3.78125q-0.71875 1.375 -2.09375 2.140625q-1.375 0.765625 -3.0 0.765625q-2.625 0 -4.234375 -1.671875q-1.609375 -1.6875 -1.609375 -4.828125zm2.171875 0q0 2.390625 1.03125 3.578125q1.046875 1.1875 2.640625 1.1875q1.5625 0 2.609375 -1.1875q1.046875 -1.203125 1.046875 -3.65625q0 -2.3125 -1.0625 -3.5q-1.046875 -1.1875 -2.59375 -1.1875q-1.59375 0 -2.640625 1.1875q-1.03125 1.1875 -1.03125 3.578125zm18.625 6.21875l0 -12.453125l1.90625 0l0 1.78125q1.375 -2.0625 3.953125 -2.0625q1.125 0 2.0625 0.40625q0.953125 0.40625 1.421875 1.0625q0.46875 0.65625 0.65625 1.5625q0.125 0.578125 0.125 2.046875l0 7.65625l-2.109375 0l0 -7.578125q0 -1.28125 -0.25 -1.921875q-0.25 -0.640625 -0.875 -1.015625q-0.625 -0.390625 -1.46875 -0.390625q-1.34375 0 -2.328125 0.859375q-0.984375 0.859375 -0.984375 3.25l0 6.796875l-2.109375 0zm21.878906 -4.015625l2.171875 0.28125q-0.515625 1.90625 -1.90625 2.96875q-1.390625 1.046875 -3.5625 1.046875q-2.734375 0 -4.34375 -1.671875q-1.59375 -1.6875 -1.59375 -4.734375q0 -3.140625 1.609375 -4.875q1.625 -1.734375 4.203125 -1.734375q2.5 0 4.078125 1.703125q1.59375 1.703125 1.59375 4.78125q0 0.1875 -0.015625 0.5625l-9.28125 0q0.109375 2.046875 1.15625 3.140625q1.046875 1.09375 2.609375 1.09375q1.15625 0 1.96875 -0.609375q0.828125 -0.609375 1.3125 -1.953125zm-6.9375 -3.40625l6.953125 0q-0.140625 -1.5625 -0.796875 -2.359375q-1.0 -1.21875 -2.609375 -1.21875q-1.453125 0 -2.453125 0.984375q-0.984375 0.96875 -1.09375 2.59375zm11.378906 8.453125l2.046875 0.3125q0.125 0.9375 0.71875 1.375q0.78125 0.59375 2.140625 0.59375q1.46875 0 2.265625 -0.59375q0.796875 -0.578125 1.078125 -1.640625q0.15625 -0.640625 0.140625 -2.703125q-1.375 1.625 -3.4375 1.625q-2.5625 0 -3.96875 -1.84375q-1.40625 -1.859375 -1.40625 -4.453125q0 -1.78125 0.640625 -3.28125q0.640625 -1.515625 1.859375 -2.328125q1.234375 -0.828125 2.890625 -0.828125q2.203125 0 3.625 1.78125l0 -1.5l1.953125 0l0 10.765625q0 2.90625 -0.59375 4.109375q-0.59375 1.21875 -1.875 1.921875q-1.28125 0.703125 -3.15625 0.703125q-2.234375 0 -3.609375 -1.0q-1.359375 -1.0 -1.3125 -3.015625zm1.734375 -7.484375q0 2.453125 0.96875 3.578125q0.984375 1.125 2.453125 1.125q1.453125 0 2.4375 -1.109375q0.984375 -1.125 0.984375 -3.515625q0 -2.28125 -1.015625 -3.4375q-1.015625 -1.171875 -2.453125 -1.171875q-1.40625 0 -2.390625 1.140625q-0.984375 1.140625 -0.984375 3.390625zm11.207031 0.234375q0 -3.46875 1.921875 -5.125q1.609375 -1.390625 3.921875 -1.390625q2.5625 0 4.1875 1.6875q1.625 1.6875 1.625 4.640625q0 2.40625 -0.71875 3.78125q-0.71875 1.375 -2.09375 2.140625q-1.375 0.765625 -3.0 0.765625q-2.625 0 -4.234375 -1.671875q-1.609375 -1.6875 -1.609375 -4.828125zm2.171875 0q0 2.390625 1.03125 3.578125q1.046875 1.1875 2.640625 1.1875q1.5625 0 2.609375 -1.1875q1.046875 -1.203125 1.046875 -3.65625q0 -2.3125 -1.0625 -3.5q-1.046875 -1.1875 -2.59375 -1.1875q-1.59375 0 -2.640625 1.1875q-1.03125 1.1875 -1.03125 3.578125zm2.5 -7.78125l1.546875 -3.28125l2.765625 0l-2.578125 3.28125l-1.734375 0zm17.582031 9.4375l2.078125 0.265625q-0.34375 2.15625 -1.75 3.375q-1.390625 1.203125 -3.4375 1.203125q-2.546875 0 -4.109375 -1.671875q-1.546875 -1.671875 -1.546875 -4.78125q0 -2.015625 0.671875 -3.53125q0.671875 -1.515625 2.03125 -2.265625q1.359375 -0.765625 2.96875 -0.765625q2.03125 0 3.3125 1.03125q1.296875 1.03125 1.65625 2.90625l-2.046875 0.328125q-0.296875 -1.265625 -1.046875 -1.890625q-0.734375 -0.640625 -1.796875 -0.640625q-1.59375 0 -2.59375 1.15625q-0.984375 1.140625 -0.984375 3.609375q0 2.5 0.953125 3.640625q0.96875 1.140625 2.515625 1.140625q1.234375 0 2.0625 -0.765625q0.84375 -0.765625 1.0625 -2.34375zm3.890625 -10.1875l0 -2.4375l2.109375 0l0 2.4375l-2.109375 0zm0 14.75l0 -12.453125l2.109375 0l0 12.453125l-2.109375 0zm4.5351562 -6.21875q0 -3.46875 1.921875 -5.125q1.609375 -1.390625 3.921875 -1.390625q2.5625 0 4.1875 1.6875q1.625 1.6875 1.625 4.640625q0 2.40625 -0.71875 3.78125q-0.71875 1.375 -2.09375 2.140625q-1.375 0.765625 -3.0 0.765625q-2.625 0 -4.234375 -1.671875q-1.609375 -1.6875 -1.609375 -4.828125zm2.171875 0q0 2.390625 1.03125 3.578125q1.046875 1.1875 2.640625 1.1875q1.5625 0 2.609375 -1.1875q1.046875 -1.203125 1.046875 -3.65625q0 -2.3125 -1.0625 -3.5q-1.046875 -1.1875 -2.59375 -1.1875q-1.59375 0 -2.640625 1.1875q-1.03125 1.1875 -1.03125 3.578125zm19.140625 6.21875l0 -10.8125l-1.875 0l0 -1.640625l1.875 0l0 -1.3125q0 -1.265625 0.21875 -1.875q0.296875 -0.8125 1.0625 -1.3125q0.78125 -0.515625 2.15625 -0.515625q0.890625 0 1.96875 0.203125l-0.3125 1.84375q-0.65625 -0.125 -1.25 -0.125q-0.953125 0 -1.359375 0.421875q-0.390625 0.40625 -0.390625 1.53125l0 1.140625l2.421875 0l0 1.640625l-2.421875 0l0 10.8125l-2.09375 0zm14.277344 -1.53125q-1.171875 0.984375 -2.265625 1.40625q-1.078125 0.40625 -2.3125 0.40625q-2.046875 0 -3.15625 -1.0q-1.09375 -1.0 -1.09375 -2.5625q0 -0.921875 0.40625 -1.671875q0.421875 -0.75 1.09375 -1.203125q0.671875 -0.46875 1.515625 -0.703125q0.625 -0.15625 1.875 -0.3125q2.5625 -0.3125 3.765625 -0.734375q0.015625 -0.421875 0.015625 -0.546875q0 -1.28125 -0.609375 -1.8125q-0.796875 -0.71875 -2.390625 -0.71875q-1.5 0 -2.203125 0.53125q-0.703125 0.515625 -1.046875 1.84375l-2.0625 -0.28125q0.28125 -1.328125 0.921875 -2.140625q0.640625 -0.8125 1.859375 -1.25q1.21875 -0.453125 2.828125 -0.453125q1.59375 0 2.59375 0.375q1.0 0.375 1.46875 0.953125q0.46875 0.5625 0.65625 1.4375q0.09375 0.53125 0.09375 1.9375l0 2.8125q0 2.9375 0.140625 3.71875q0.140625 0.78125 0.53125 1.5l-2.203125 0q-0.328125 -0.65625 -0.421875 -1.53125zm-0.171875 -4.71875q-1.15625 0.46875 -3.453125 0.796875q-1.296875 0.1875 -1.84375 0.421875q-0.53125 0.234375 -0.828125 0.6875q-0.28125 0.453125 -0.28125 1.0q0 0.84375 0.625 1.40625q0.640625 0.5625 1.875 0.5625q1.21875 0 2.171875 -0.53125q0.953125 -0.53125 1.390625 -1.453125q0.34375 -0.71875 0.34375 -2.109375l0 -0.78125zm5.3476562 6.25l0 -17.1875l2.109375 0l0 17.1875l-2.109375 0zm13.503906 -1.53125q-1.171875 0.984375 -2.265625 1.40625q-1.078125 0.40625 -2.3125 0.40625q-2.046875 0 -3.15625 -1.0q-1.09375 -1.0 -1.09375 -2.5625q0 -0.921875 0.40625 -1.671875q0.421875 -0.75 1.09375 -1.203125q0.671875 -0.46875 1.515625 -0.703125q0.625 -0.15625 1.875 -0.3125q2.5625 -0.3125 3.765625 -0.734375q0.015625 -0.421875 0.015625 -0.546875q0 -1.28125 -0.609375 -1.8125q-0.796875 -0.71875 -2.390625 -0.71875q-1.5 0 -2.203125 0.53125q-0.703125 0.515625 -1.046875 1.84375l-2.0625 -0.28125q0.28125 -1.328125 0.921875 -2.140625q0.640625 -0.8125 1.859375 -1.25q1.21875 -0.453125 2.828125 -0.453125q1.59375 0 2.59375 0.375q1.0 0.375 1.46875 0.953125q0.46875 0.5625 0.65625 1.4375q0.09375 0.53125 0.09375 1.9375l0 2.8125q0 2.9375 0.140625 3.71875q0.140625 0.78125 0.53125 1.5l-2.203125 0q-0.328125 -0.65625 -0.421875 -1.53125zm-0.171875 -4.71875q-1.15625 0.46875 -3.453125 0.796875q-1.296875 0.1875 -1.84375 0.421875q-0.53125 0.234375 -0.828125 0.6875q-0.28125 0.453125 -0.28125 1.0q0 0.84375 0.625 1.40625q0.640625 0.5625 1.875 0.5625q1.21875 0 2.171875 -0.53125q0.953125 -0.53125 1.390625 -1.453125q0.34375 -0.71875 0.34375 -2.109375l0 -0.78125zm5.3945312 6.25l0 -12.453125l1.890625 0l0 1.75q0.59375 -0.90625 1.5625 -1.46875q0.96875 -0.5625 2.21875 -0.5625q1.375 0 2.25 0.578125q0.890625 0.578125 1.265625 1.609375q1.46875 -2.1875 3.84375 -2.1875q1.84375 0 2.84375 1.03125q1.0 1.03125 1.0 3.15625l0 8.546875l-2.109375 0l0 -7.84375q0 -1.265625 -0.203125 -1.8125q-0.203125 -0.5625 -0.75 -0.90625q-0.53125 -0.34375 -1.25 -0.34375q-1.3125 0 -2.1875 0.875q-0.859375 0.875 -0.859375 2.796875l0 7.234375l-2.109375 0l0 -8.09375q0 -1.40625 -0.515625 -2.109375q-0.515625 -0.703125 -1.6875 -0.703125q-0.890625 0 -1.65625 0.46875q-0.75 0.46875 -1.09375 1.375q-0.34375 0.90625 -0.34375 2.609375l0 6.453125l-2.109375 0zm35.191406 -4.015625l2.171875 0.28125q-0.515625 1.90625 -1.90625 2.96875q-1.390625 1.046875 -3.5625 1.046875q-2.734375 0 -4.34375 -1.671875q-1.59375 -1.6875 -1.59375 -4.734375q0 -3.140625 1.609375 -4.875q1.625 -1.734375 4.203125 -1.734375q2.5 0 4.078125 1.703125q1.59375 1.703125 1.59375 4.78125q0 0.1875 -0.015625 0.5625l-9.28125 0q0.109375 2.046875 1.15625 3.140625q1.046875 1.09375 2.609375 1.09375q1.15625 0 1.96875 -0.609375q0.828125 -0.609375 1.3125 -1.953125zm-6.9375 -3.40625l6.953125 0q-0.140625 -1.5625 -0.796875 -2.359375q-1.0 -1.21875 -2.609375 -1.21875q-1.453125 0 -2.453125 0.984375q-0.984375 0.96875 -1.09375 2.59375zm26.953125 3.40625l2.171875 0.28125q-0.515625 1.90625 -1.90625 2.96875q-1.390625 1.046875 -3.5625 1.046875q-2.734375 0 -4.34375 -1.671875q-1.59375 -1.6875 -1.59375 -4.734375q0 -3.140625 1.609375 -4.875q1.625 -1.734375 4.203125 -1.734375q2.5 0 4.078125 1.703125q1.59375 1.703125 1.59375 4.78125q0 0.1875 -0.015625 0.5625l-9.28125 0q0.109375 2.046875 1.15625 3.140625q1.046875 1.09375 2.609375 1.09375q1.15625 0 1.96875 -0.609375q0.828125 -0.609375 1.3125 -1.953125zm-6.9375 -3.40625l6.953125 0q-0.140625 -1.5625 -0.796875 -2.359375q-1.0 -1.21875 -2.609375 -1.21875q-1.453125 0 -2.453125 0.984375q-0.984375 0.96875 -1.09375 2.59375zm11.753906 7.421875l0 -12.453125l1.90625 0l0 1.78125q1.375 -2.0625 3.953125 -2.0625q1.125 0 2.0625 0.40625q0.953125 0.40625 1.421875 1.0625q0.46875 0.65625 0.65625 1.5625q0.125 0.578125 0.125 2.046875l0 7.65625l-2.109375 0l0 -7.578125q0 -1.28125 -0.25 -1.921875q-0.25 -0.640625 -0.875 -1.015625q-0.625 -0.390625 -1.46875 -0.390625q-1.34375 0 -2.328125 0.859375q-0.984375 0.859375 -0.984375 3.25l0 6.796875l-2.109375 0zm17.957031 -1.890625l0.3125 1.859375q-0.890625 0.203125 -1.59375 0.203125q-1.15625 0 -1.796875 -0.359375q-0.625 -0.375 -0.890625 -0.96875q-0.25 -0.59375 -0.25 -2.484375l0 -7.171875l-1.546875 0l0 -1.640625l1.546875 0l0 -3.078125l2.09375 -1.265625l0 4.34375l2.125 0l0 1.640625l-2.125 0l0 7.28125q0 0.90625 0.109375 1.171875q0.125 0.25 0.375 0.40625q0.25 0.140625 0.71875 0.140625q0.34375 0 0.921875 -0.078125zm10.589844 -2.125l2.171875 0.28125q-0.515625 1.90625 -1.90625 2.96875q-1.390625 1.046875 -3.5625 1.046875q-2.734375 0 -4.34375 -1.671875q-1.59375 -1.6875 -1.59375 -4.734375q0 -3.140625 1.609375 -4.875q1.625 -1.734375 4.203125 -1.734375q2.5 0 4.078125 1.703125q1.59375 1.703125 1.59375 4.78125q0 0.1875 -0.015625 0.5625l-9.28125 0q0.109375 2.046875 1.15625 3.140625q1.046875 1.09375 2.609375 1.09375q1.15625 0 1.96875 -0.609375q0.828125 -0.609375 1.3125 -1.953125zm-6.9375 -3.40625l6.953125 0q-0.140625 -1.5625 -0.796875 -2.359375q-1.0 -1.21875 -2.609375 -1.21875q-1.453125 0 -2.453125 0.984375q-0.984375 0.96875 -1.09375 2.59375zm11.753906 7.421875l0 -12.453125l1.90625 0l0 1.78125q1.375 -2.0625 3.953125 -2.0625q1.125 0 2.0625 0.40625q0.953125 0.40625 1.421875 1.0625q0.46875 0.65625 0.65625 1.5625q0.125 0.578125 0.125 2.046875l0 7.65625l-2.109375 0l0 -7.578125q0 -1.28125 -0.25 -1.921875q-0.25 -0.640625 -0.875 -1.015625q-0.625 -0.390625 -1.46875 -0.390625q-1.34375 0 -2.328125 0.859375q-0.984375 0.859375 -0.984375 3.25l0 6.796875l-2.109375 0zm21.425781 0l0 -1.578125q-1.1875 1.859375 -3.484375 1.859375q-1.484375 0 -2.734375 -0.8125q-1.25 -0.828125 -1.9375 -2.296875q-0.671875 -1.46875 -0.671875 -3.390625q0 -1.859375 0.609375 -3.375q0.625 -1.515625 1.859375 -2.328125q1.25 -0.8125 2.78125 -0.8125q1.125 0 2.0 0.484375q0.890625 0.46875 1.4375 1.234375l0 -6.171875l2.09375 0l0 17.1875l-1.953125 0zm-6.671875 -6.21875q0 2.390625 1.0 3.578125q1.015625 1.1875 2.390625 1.1875q1.390625 0 2.34375 -1.125q0.96875 -1.140625 0.96875 -3.453125q0 -2.5625 -0.984375 -3.75q-0.984375 -1.203125 -2.421875 -1.203125q-1.40625 0 -2.359375 1.15625q-0.9375 1.140625 -0.9375 3.609375zm20.472656 2.203125l2.171875 0.28125q-0.515625 1.90625 -1.90625 2.96875q-1.390625 1.046875 -3.5625 1.046875q-2.734375 0 -4.34375 -1.671875q-1.59375 -1.6875 -1.59375 -4.734375q0 -3.140625 1.609375 -4.875q1.625 -1.734375 4.203125 -1.734375q2.5 0 4.078125 1.703125q1.59375 1.703125 1.59375 4.78125q0 0.1875 -0.015625 0.5625l-9.28125 0q0.109375 2.046875 1.15625 3.140625q1.046875 1.09375 2.609375 1.09375q1.15625 0 1.96875 -0.609375q0.828125 -0.609375 1.3125 -1.953125zm-6.9375 -3.40625l6.953125 0q-0.140625 -1.5625 -0.796875 -2.359375q-1.0 -1.21875 -2.609375 -1.21875q-1.453125 0 -2.453125 0.984375q-0.984375 0.96875 -1.09375 2.59375zm11.753906 7.421875l0 -12.453125l1.890625 0l0 1.75q0.59375 -0.90625 1.5625 -1.46875q0.96875 -0.5625 2.21875 -0.5625q1.375 0 2.25 0.578125q0.890625 0.578125 1.265625 1.609375q1.46875 -2.1875 3.84375 -2.1875q1.84375 0 2.84375 1.03125q1.0 1.03125 1.0 3.15625l0 8.546875l-2.109375 0l0 -7.84375q0 -1.265625 -0.203125 -1.8125q-0.203125 -0.5625 -0.75 -0.90625q-0.53125 -0.34375 -1.25 -0.34375q-1.3125 0 -2.1875 0.875q-0.859375 0.875 -0.859375 2.796875l0 7.234375l-2.109375 0l0 -8.09375q0 -1.40625 -0.515625 -2.109375q-0.515625 -0.703125 -1.6875 -0.703125q-0.890625 0 -1.65625 0.46875q-0.75 0.46875 -1.09375 1.375q-0.34375 0.90625 -0.34375 2.609375l0 6.453125l-2.109375 0z" fill-rule="nonzero"/></g></svg>