<svg version="1.1" viewBox="0.0 0.0 699.0 432.0" fill="none" stroke="none" stroke-linecap="square" stroke-miterlimit="10" width="699" height="432" xmlns:xlink="http://www.w3.org/1999/xlink" xmlns="http://www.w3.org/2000/svg"><path fill="#ffffff" d="M0 0L699.0 0L699.0 432.0L0 432.0L0 0Z" fill-rule="nonzero"/><path stroke="#cccccc" stroke-width="1.0" stroke-linecap="butt" d="M52.5 63.5L52.5 350.5" fill-rule="nonzero"/><path stroke="#cccccc" stroke-width="1.0" stroke-linecap="butt" d="M177.5 63.5L177.5 350.5" fill-rule="nonzero"/><path stroke="#cccccc" stroke-width="1.0" stroke-linecap="butt" d="M302.5 63.5L302.5 350.5" fill-rule="nonzero"/><path stroke="#cccccc" stroke-width="1.0" stroke-linecap="butt" d="M427.5 63.5L427.5 350.5" fill-rule="nonzero"/><path stroke="#cccccc" stroke-width="1.0" stroke-linecap="butt" d="M552.5 63.5L552.5 350.5" fill-rule="nonzero"/><path stroke="#cccccc" stroke-width="1.0" stroke-linecap="butt" d="M677.5 63.5L677.5 350.5" fill-rule="nonzero"/><path stroke="#333333" stroke-width="1.0" stroke-linecap="butt" d="M52.5 350.5L677.5 350.5" fill-rule="nonzero"/><path stroke="#cccccc" stroke-width="1.0" stroke-linecap="butt" d="M52.5 278.5L677.5 278.5" fill-rule="nonzero"/><path stroke="#cccccc" stroke-width="1.0" stroke-linecap="butt" d="M52.5 206.5L677.5 206.5" fill-rule="nonzero"/><path stroke="#cccccc" stroke-width="1.0" stroke-linecap="butt" d="M52.5 134.5L677.5 134.5" fill-rule="nonzero"/><path stroke="#cccccc" stroke-width="1.0" stroke-linecap="butt" d="M52.5 63.5L677.5 63.5" fill-rule="nonzero"/><clipPath id="id_0"><path d="M52.6 63.0L677.4 63.0L677.4 350.4L52.6 350.4L52.6 63.0Z" clip-rule="nonzero"/></clipPath><path stroke="#4285f4" stroke-width="4.0" stroke-linecap="butt" clip-path="url(#id_0)" d="M52.6 292.92L177.56 235.44L302.52 177.96L427.48 120.48L552.44 106.11L677.4 91.74" fill-rule="nonzero"/><path stroke="#ea4335" stroke-width="4.0" stroke-linecap="butt" clip-path="url(#id_0)" d="M52.6 91.74L177.56 149.22L302.52 206.7L427.48 264.18L552.44 321.66L677.4 336.03" fill-rule="nonzero"/><path fill="#000000" fill-opacity="0.0" clip-path="url(#id_0)" d="M55.6 292.92C55.6 294.57684 54.256855 295.92 52.6 295.92C50.943146 295.92 49.6 294.57684 49.6 292.92C49.6 291.26315 50.943146 289.92 52.6 289.92C54.256855 289.92 55.6 291.26315 55.6 292.92Z" fill-rule="nonzero"/><path fill="#000000" fill-opacity="0.0" clip-path="url(#id_0)" d="M180.56 235.44C180.56 237.09685 179.21686 238.44 177.56 238.44C175.90315 238.44 174.56 237.09685 174.56 235.44C174.56 233.78314 175.90315 232.44 177.56 232.44C179.21686 232.44 180.56 233.78314 180.56 235.44Z" fill-rule="nonzero"/><path fill="#000000" fill-opacity="0.0" clip-path="url(#id_0)" d="M305.52 177.96C305.52 179.61685 304.17685 180.96 302.52 180.96C300.86316 180.96 299.52 179.61685 299.52 177.96C299.52 176.30315 300.86316 174.96 302.52 174.96C304.17685 174.96 305.52 176.30315 305.52 177.96Z" fill-rule="nonzero"/><path fill="#000000" fill-opacity="0.0" clip-path="url(#id_0)" d="M430.48 120.48C430.48 122.136856 429.13684 123.48 427.48 123.48C425.82315 123.48 424.48 122.136856 424.48 120.48C424.48 118.82314 425.82315 117.48 427.48 117.48C429.13684 117.48 430.48 118.82314 430.48 120.48Z" fill-rule="nonzero"/><path fill="#000000" fill-opacity="0.0" clip-path="url(#id_0)" d="M555.44 106.11C555.44 107.76685 554.09686 109.11 552.44 109.11C550.78314 109.11 549.44 107.76685 549.44 106.11C549.44 104.45315 550.78314 103.11 552.44 103.11C554.09686 103.11 555.44 104.45315 555.44 106.11Z" fill-rule="nonzero"/><path fill="#000000" fill-opacity="0.0" clip-path="url(#id_0)" d="M680.4 91.74C680.4 93.39685 679.0569 94.74 677.4 94.74C675.74316 94.74 674.4 93.39685 674.4 91.74C674.4 90.083145 675.74316 88.74 677.4 88.74C679.0569 88.74 680.4 90.083145 680.4 91.74Z" fill-rule="nonzero"/><path fill="#000000" fill-opacity="0.0" clip-path="url(#id_0)" d="M55.6 91.74C55.6 93.39685 54.256855 94.74 52.6 94.74C50.943146 94.74 49.6 93.39685 49.6 91.74C49.6 90.083145 50.943146 88.74 52.6 88.74C54.256855 88.74 55.6 90.083145 55.6 91.74Z" fill-rule="nonzero"/><path fill="#000000" fill-opacity="0.0" clip-path="url(#id_0)" d="M180.56 149.22C180.56 150.87686 179.21686 152.22 177.56 152.22C175.90315 152.22 174.56 150.87686 174.56 149.22C174.56 147.56314 175.90315 146.22 177.56 146.22C179.21686 146.22 180.56 147.56314 180.56 149.22Z" fill-rule="nonzero"/><path fill="#000000" fill-opacity="0.0" clip-path="url(#id_0)" d="M305.52 206.7C305.52 208.35686 304.17685 209.7 302.52 209.7C300.86316 209.7 299.52 208.35686 299.52 206.7C299.52 205.04315 300.86316 203.7 302.52 203.7C304.17685 203.7 305.52 205.04315 305.52 206.7Z" fill-rule="nonzero"/><path fill="#000000" fill-opacity="0.0" clip-path="url(#id_0)" d="M430.48 264.18C430.48 265.83685 429.13684 267.18 427.48 267.18C425.82315 267.18 424.48 265.83685 424.48 264.18C424.48 262.52313 425.82315 261.18 427.48 261.18C429.13684 261.18 430.48 262.52313 430.48 264.18Z" fill-rule="nonzero"/><path fill="#000000" fill-opacity="0.0" clip-path="url(#id_0)" d="M555.44 321.66C555.44 323.31686 554.09686 324.66 552.44 324.66C550.78314 324.66 549.44 323.31686 549.44 321.66C549.44 320.00314 550.78314 318.66 552.44 318.66C554.09686 318.66 555.44 320.00314 555.44 321.66Z" fill-rule="nonzero"/><path fill="#000000" fill-opacity="0.0" clip-path="url(#id_0)" d="M680.4 336.03C680.4 337.68686 679.0569 339.03 677.4 339.03C675.74316 339.03 674.4 337.68686 674.4 336.03C674.4 334.37314 675.74316 333.03 677.4 333.03C679.0569 333.03 680.4 334.37314 680.4 336.03Z" fill-rule="nonzero"/><path fill="#000000" d="M346.125 407.4L346.125 398.55624L342.82812 398.55624L342.82812 397.38437L350.76562 397.38437L350.76562 398.55624L347.45312 398.55624L347.45312 407.4L346.125 407.4ZM357.39062 405.05624L358.67188 405.2125Q358.35938 406.3375 357.54688 406.9625Q356.73438 407.57187 355.46875 407.57187Q353.875 407.57187 352.9375 406.5875Q352.01562 405.60312 352.01562 403.8375Q352.01562 401.99374 352.95312 400.99374Q353.90625 399.97812 355.40625 399.97812Q356.85938 399.97812 357.78125 400.97812Q358.70312 401.9625 358.70312 403.75937Q358.70312 403.86874 358.70312 404.0875L353.28125 404.0875Q353.35938 405.275 353.95312 405.91562Q354.5625 406.55624 355.48438 406.55624Q356.15625 406.55624 356.625 406.19687Q357.10938 405.8375 357.39062 405.05624ZM353.35938 403.07187L357.40625 403.07187Q357.32812 402.15 356.9375 401.69687Q356.35938 400.99374 355.42188 400.99374Q354.5625 400.99374 353.98438 401.55624Q353.42188 402.11874 353.35938 403.07187ZM360.42188 407.4L360.42188 400.13437L361.53125 400.13437L361.53125 401.16562Q361.85938 400.61874 362.42188 400.30624Q363.0 399.97812 363.71875 399.97812Q364.53125 399.97812 365.04688 400.32187Q365.5625 400.65 365.78125 401.24374Q366.64062 399.97812 368.01562 399.97812Q369.09375 399.97812 369.67188 400.57187Q370.26562 401.16562 370.26562 402.41562L370.26562 407.4L369.03125 407.4L369.03125 402.82187Q369.03125 402.0875 368.90625 401.75937Q368.79688 401.43124 368.48438 401.24374Q368.17188 401.04062 367.75 401.04062Q366.98438 401.04062 366.46875 401.55624Q365.96875 402.05624 365.96875 403.18124L365.96875 407.4L364.73438 407.4L364.73438 402.68124Q364.73438 401.86874 364.4375 401.4625Q364.14062 401.04062 363.45312 401.04062Q362.9375 401.04062 362.48438 401.32187Q362.04688 401.5875 361.84375 402.11874Q361.65625 402.63437 361.65625 403.63437L361.65625 407.4L360.42188 407.4ZM372.42188 410.18124L372.42188 400.13437L373.54688 400.13437L373.54688 401.0875Q373.9375 400.525 374.4375 400.25937Q374.9375 399.97812 375.65625 399.97812Q376.57812 399.97812 377.28125 400.4625Q378.0 400.93124 378.35938 401.80624Q378.71875 402.68124 378.71875 403.7125Q378.71875 404.82187 378.3125 405.72812Q377.92188 406.61874 377.15625 407.10312Q376.40625 407.57187 375.5625 407.57187Q374.95312 407.57187 374.45312 407.30624Q373.96875 407.04062 373.65625 406.65L373.65625 410.18124L372.42188 410.18124ZM373.53125 403.80624Q373.53125 405.2125 374.09375 405.88437Q374.67188 406.55624 375.48438 406.55624Q376.29688 406.55624 376.875 405.86874Q377.46875 405.16562 377.46875 403.7125Q377.46875 402.32187 376.89062 401.63437Q376.32812 400.94687 375.53125 400.94687Q374.75 400.94687 374.14062 401.68124Q373.53125 402.41562 373.53125 403.80624ZM379.96875 403.775Q379.96875 401.75937 381.09375 400.775Q382.01562 399.97812 383.375 399.97812Q384.85938 399.97812 385.8125 400.9625Q386.76562 401.93124 386.76562 403.66562Q386.76562 405.07187 386.34375 405.88437Q385.92188 406.68124 385.10938 407.13437Q384.3125 407.57187 383.375 407.57187Q381.84375 407.57187 380.90625 406.5875Q379.96875 405.60312 379.96875 403.775ZM381.23438 403.775Q381.23438 405.16562 381.84375 405.86874Q382.45312 406.55624 383.375 406.55624Q384.28125 406.55624 384.89062 405.85312Q385.5 405.15 385.5 403.72812Q385.5 402.38437 384.89062 401.69687Q384.28125 400.99374 383.375 400.99374Q382.45312 400.99374 381.84375 401.68124Q381.23438 402.36874 381.23438 403.775Z" fill-rule="nonzero"/><path fill="#000000" d="M38.178123 350.4625Q38.178123 348.68124 38.5375 347.60312Q38.9125 346.50937 39.63125 345.93124Q40.35 345.3375 41.44375 345.3375Q42.25625 345.3375 42.865623 345.66562Q43.475 345.99374 43.865623 346.60312Q44.271873 347.2125 44.490623 348.0875Q44.709373 348.9625 44.709373 350.4625Q44.709373 352.22812 44.35 353.30624Q43.990623 354.38437 43.271873 354.97812Q42.553123 355.57187 41.44375 355.57187Q40.00625 355.57187 39.178123 354.525Q38.178123 353.275 38.178123 350.4625ZM39.44375 350.4625Q39.44375 352.93124 40.021873 353.74374Q40.6 354.55624 41.44375 354.55624Q42.303123 354.55624 42.88125 353.74374Q43.459373 352.91562 43.459373 350.4625Q43.459373 347.97812 42.88125 347.16562Q42.303123 346.35312 41.428123 346.35312Q40.584373 346.35312 40.084373 347.07187Q39.44375 347.99374 39.44375 350.4625Z" fill-rule="nonzero"/><path fill="#000000" d="M36.646873 282.3625L36.646873 283.55L30.021875 283.55Q30.00625 283.1125 30.1625 282.6906Q30.428125 282.01874 30.975 281.3625Q31.5375 280.70624 32.584373 279.84686Q34.225 278.5031 34.7875 277.72186Q35.365623 276.9406 35.365623 276.2375Q35.365623 275.5031 34.834373 275.0031Q34.31875 274.5031 33.490623 274.5031Q32.6 274.5031 32.053123 275.03436Q31.521875 275.5656 31.521875 276.51874L30.25625 276.3781Q30.38125 274.97186 31.225 274.2375Q32.084373 273.4875 33.50625 273.4875Q34.959373 273.4875 35.7875 274.28436Q36.63125 275.08124 36.63125 276.26874Q36.63125 276.8781 36.38125 277.45624Q36.146873 278.03436 35.56875 278.675Q35.00625 279.3156 33.678123 280.4406Q32.56875 281.3625 32.25625 281.70624Q31.94375 282.03436 31.740625 282.3625L36.646873 282.3625ZM38.178123 280.925L39.475 280.8156Q39.615623 281.7531 40.13125 282.2375Q40.6625 282.70624 41.396873 282.70624Q42.2875 282.70624 42.896873 282.03436Q43.521873 281.3625 43.521873 280.26874Q43.521873 279.20624 42.928123 278.59686Q42.334373 277.9875 41.38125 277.9875Q40.7875 277.9875 40.303123 278.26874Q39.834373 278.53436 39.553123 278.95624L38.396873 278.8156L39.365623 273.65936L44.35 273.65936L44.35 274.84686L40.35 274.84686L39.81875 277.53436Q40.725 276.90936 41.709373 276.90936Q43.021873 276.90936 43.9125 277.8156Q44.81875 278.72186 44.81875 280.15936Q44.81875 281.51874 44.0375 282.5031Q43.06875 283.72186 41.396873 283.72186Q40.0375 283.72186 39.1625 282.95624Q38.303123 282.1906 38.178123 280.925Z" fill-rule="nonzero"/><path fill="#000000" d="M30.178125 209.075L31.475 208.96562Q31.615625 209.90312 32.13125 210.3875Q32.6625 210.85625 33.396873 210.85625Q34.2875 210.85625 34.896873 210.18437Q35.521873 209.5125 35.521873 208.41875Q35.521873 207.35625 34.928123 206.74687Q34.334373 206.1375 33.38125 206.1375Q32.7875 206.1375 32.303123 206.41875Q31.834375 206.68437 31.553125 207.10625L30.396875 206.96562L31.365625 201.80937L36.35 201.80937L36.35 202.99687L32.35 202.99687L31.81875 205.68437Q32.725 205.05937 33.709373 205.05937Q35.021873 205.05937 35.9125 205.96562Q36.81875 206.87187 36.81875 208.30937Q36.81875 209.66875 36.0375 210.65312Q35.06875 211.87187 33.396873 211.87187Q32.0375 211.87187 31.1625 211.10625Q30.303125 210.34062 30.178125 209.075ZM38.178123 206.7625Q38.178123 204.98125 38.5375 203.90312Q38.9125 202.80937 39.63125 202.23125Q40.35 201.6375 41.44375 201.6375Q42.25625 201.6375 42.865623 201.96562Q43.475 202.29375 43.865623 202.90312Q44.271873 203.5125 44.490623 204.3875Q44.709373 205.2625 44.709373 206.7625Q44.709373 208.52812 44.35 209.60625Q43.990623 210.68437 43.271873 211.27812Q42.553123 211.87187 41.44375 211.87187Q40.00625 211.87187 39.178123 210.825Q38.178123 209.575 38.178123 206.7625ZM39.44375 206.7625Q39.44375 209.23125 40.021873 210.04375Q40.6 210.85625 41.44375 210.85625Q42.303123 210.85625 42.88125 210.04375Q43.459373 209.21562 43.459373 206.7625Q43.459373 204.27812 42.88125 203.46562Q42.303123 202.65312 41.428123 202.65312Q40.584373 202.65312 40.084373 203.37187Q39.44375 204.29375 39.44375 206.7625Z" fill-rule="nonzero"/><path fill="#000000" d="M30.25625 131.14688L30.25625 129.95938L36.75625 129.95938L36.75625 130.9125Q35.7875 131.92813 34.85 133.61563Q33.9125 135.30313 33.396873 137.1Q33.0375 138.35 32.928123 139.85L31.6625 139.85Q31.678125 138.6625 32.115623 136.99063Q32.56875 135.31876 33.396873 133.77188Q34.240623 132.20938 35.178123 131.14688L30.25625 131.14688ZM38.178123 137.225L39.475 137.11563Q39.615623 138.05313 40.13125 138.5375Q40.6625 139.00626 41.396873 139.00626Q42.2875 139.00626 42.896873 138.33438Q43.521873 137.6625 43.521873 136.56876Q43.521873 135.50626 42.928123 134.89688Q42.334373 134.2875 41.38125 134.2875Q40.7875 134.2875 40.303123 134.56876Q39.834373 134.83438 39.553123 135.25626L38.396873 135.11563L39.365623 129.95938L44.35 129.95938L44.35 131.14688L40.35 131.14688L39.81875 133.83438Q40.725 133.20938 41.709373 133.20938Q43.021873 133.20938 43.9125 134.11563Q44.81875 135.02188 44.81875 136.45938Q44.81875 137.81876 44.0375 138.80313Q43.06875 140.02188 41.396873 140.02188Q40.0375 140.02188 39.1625 139.25626Q38.303123 138.49063 38.178123 137.225Z" fill-rule="nonzero"/><path fill="#000000" d="M26.81875 68.0L25.584375 68.0L25.584375 60.15625Q25.146875 60.578125 24.4125 61.015625Q23.69375 61.4375 23.13125 61.640625L23.13125 60.453125Q24.1625 59.96875 24.928125 59.28125Q25.709375 58.59375 26.021875 57.9375L26.81875 57.9375L26.81875 68.0ZM30.178125 63.0625Q30.178125 61.28125 30.5375 60.203125Q30.9125 59.109375 31.63125 58.53125Q32.35 57.9375 33.44375 57.9375Q34.25625 57.9375 34.865623 58.265625Q35.475 58.59375 35.865623 59.203125Q36.271873 59.8125 36.490623 60.6875Q36.709373 61.5625 36.709373 63.0625Q36.709373 64.828125 36.35 65.90625Q35.990623 66.984375 35.271873 67.578125Q34.553123 68.171875 33.44375 68.171875Q32.00625 68.171875 31.178125 67.125Q30.178125 65.875 30.178125 63.0625ZM31.44375 63.0625Q31.44375 65.53125 32.021873 66.34375Q32.6 67.15625 33.44375 67.15625Q34.303123 67.15625 34.88125 66.34375Q35.459373 65.515625 35.459373 63.0625Q35.459373 60.578125 34.88125 59.765625Q34.303123 58.953125 33.428123 58.953125Q32.584373 58.953125 32.084373 59.671875Q31.44375 60.59375 31.44375 63.0625ZM38.178123 63.0625Q38.178123 61.28125 38.5375 60.203125Q38.9125 59.109375 39.63125 58.53125Q40.35 57.9375 41.44375 57.9375Q42.25625 57.9375 42.865623 58.265625Q43.475 58.59375 43.865623 59.203125Q44.271873 59.8125 44.490623 60.6875Q44.709373 61.5625 44.709373 63.0625Q44.709373 64.828125 44.35 65.90625Q43.990623 66.984375 43.271873 67.578125Q42.553123 68.171875 41.44375 68.171875Q40.00625 68.171875 39.178123 67.125Q38.178123 65.875 38.178123 63.0625ZM39.44375 63.0625Q39.44375 65.53125 40.021873 66.34375Q40.6 67.15625 41.44375 67.15625Q42.303123 67.15625 42.88125 66.34375Q43.459373 65.515625 43.459373 63.0625Q43.459373 60.578125 42.88125 59.765625Q42.303123 58.953125 41.428123 58.953125Q40.584373 58.953125 40.084373 59.671875Q39.44375 60.59375 39.44375 63.0625Z" fill-rule="nonzero"/><path fill="#000000" d="M53.81875 370.4L52.584373 370.4L52.584373 362.55624Q52.146873 362.97812 51.4125 363.41562Q50.69375 363.8375 50.13125 364.04062L50.13125 362.85312Q51.1625 362.36874 51.928123 361.68124Q52.709373 360.99374 53.021873 360.3375L53.81875 360.3375L53.81875 370.4Z" fill-rule="nonzero"/><path fill="#000000" d="M180.60687 369.2125L180.60687 370.4L173.98187 370.4Q173.96625 369.9625 174.1225 369.54062Q174.38812 368.86874 174.935 368.2125Q175.4975 367.55624 176.54437 366.69687Q178.185 365.35312 178.7475 364.57187Q179.32562 363.79062 179.32562 363.0875Q179.32562 362.35312 178.79437 361.85312Q178.27875 361.35312 177.45062 361.35312Q176.56 361.35312 176.01312 361.88437Q175.48187 362.41562 175.48187 363.36874L174.21625 363.22812Q174.34125 361.82187 175.185 361.0875Q176.04437 360.3375 177.46625 360.3375Q178.91937 360.3375 179.7475 361.13437Q180.59125 361.93124 180.59125 363.11874Q180.59125 363.72812 180.34125 364.30624Q180.10687 364.88437 179.52875 365.525Q178.96625 366.16562 177.63812 367.29062Q176.52875 368.2125 176.21625 368.55624Q175.90375 368.88437 175.70062 369.2125L180.60687 369.2125Z" fill-rule="nonzero"/><path fill="#000000" d="M299.11374 367.75937L300.3325 367.5875Q300.55124 368.63437 301.05124 369.10312Q301.56686 369.55624 302.30124 369.55624Q303.17624 369.55624 303.77 368.9625Q304.36374 368.35312 304.36374 367.4625Q304.36374 366.61874 303.80124 366.07187Q303.25436 365.525 302.4106 365.525Q302.05124 365.525 301.5356 365.65L301.67624 364.57187Q301.80124 364.5875 301.86374 364.5875Q302.6606 364.5875 303.2856 364.18124Q303.9106 363.775 303.9106 362.91562Q303.9106 362.24374 303.4575 361.80624Q303.00436 361.35312 302.27 361.35312Q301.55124 361.35312 301.06686 361.80624Q300.5981 362.24374 300.4575 363.15L299.23874 362.93124Q299.4575 361.69687 300.25436 361.025Q301.05124 360.3375 302.23874 360.3375Q303.06686 360.3375 303.75436 360.69687Q304.44186 361.04062 304.80124 361.65Q305.17624 362.25937 305.17624 362.94687Q305.17624 363.5875 304.8325 364.11874Q304.48874 364.65 303.80124 364.97812Q304.69186 365.18124 305.17624 365.82187Q305.67624 366.4625 305.67624 367.44687Q305.67624 368.75937 304.7075 369.66562Q303.75436 370.57187 302.30124 370.57187Q300.9731 370.57187 300.0981 369.79062Q299.23874 369.00937 299.11374 367.75937Z" fill-rule="nonzero"/><path fill="#000000" d="M428.01126 370.4L428.01126 367.99374L423.6519 367.99374L423.6519 366.86874L428.23 360.38437L429.23 360.38437L429.23 366.86874L430.5894 366.86874L430.5894 367.99374L429.23 367.99374L429.23 370.4L428.01126 370.4ZM428.01126 366.86874L428.01126 362.35312L424.87064 366.86874L428.01126 366.86874Z" fill-rule="nonzero"/><path fill="#000000" d="M549.0181 367.775L550.315 367.66562Q550.4556 368.60312 550.97125 369.0875Q551.5025 369.55624 552.2369 369.55624Q553.1275 369.55624 553.7369 368.88437Q554.3619 368.2125 554.3619 367.11874Q554.3619 366.05624 553.7681 365.44687Q553.1744 364.8375 552.22125 364.8375Q551.6275 364.8375 551.1431 365.11874Q550.6744 365.38437 550.3931 365.80624L549.2369 365.66562L550.2056 360.50937L555.19 360.50937L555.19 361.69687L551.19 361.69687L550.65875 364.38437Q551.565 363.75937 552.5494 363.75937Q553.8619 363.75937 554.7525 364.66562Q555.65875 365.57187 555.65875 367.00937Q555.65875 368.36874 554.8775 369.35312Q553.90875 370.57187 552.2369 370.57187Q550.8775 370.57187 550.0025 369.80624Q549.1431 369.04062 549.0181 367.775Z" fill-rule="nonzero"/><path fill="#000000" d="M680.3688 362.8375L679.15 362.93124Q678.97815 362.19687 678.6813 361.86874Q678.1813 361.35312 677.4469 361.35312Q676.85315 361.35312 676.41565 361.68124Q675.8375 362.10312 675.4938 362.91562Q675.16565 363.72812 675.15 365.22812Q675.5875 364.55624 676.22815 364.22812Q676.8844 363.9 677.5875 363.9Q678.8219 363.9 679.6813 364.80624Q680.54065 365.7125 680.54065 367.15Q680.54065 368.0875 680.1344 368.9Q679.72815 369.7125 679.0094 370.15Q678.3063 370.57187 677.4 370.57187Q675.8688 370.57187 674.9 369.44687Q673.9313 368.30624 673.9313 365.7125Q673.9313 362.80624 674.9938 361.47812Q675.9313 360.3375 677.525 360.3375Q678.7125 360.3375 679.4625 361.00937Q680.2125 361.66562 680.3688 362.8375ZM675.3375 367.15Q675.3375 367.79062 675.60315 368.36874Q675.8844 368.94687 676.3688 369.25937Q676.85315 369.55624 677.3844 369.55624Q678.16565 369.55624 678.72815 368.93124Q679.29065 368.30624 679.29065 367.22812Q679.29065 366.18124 678.72815 365.5875Q678.1813 364.97812 677.3375 364.97812Q676.5094 364.97812 675.91565 365.5875Q675.3375 366.18124 675.3375 367.15Z" fill-rule="nonzero"/><path stroke="#4285f4" stroke-width="4.0" stroke-linecap="butt" d="M155.5 31.1L167.5 31.1" fill-rule="nonzero"/><path fill="#1a1a1a" d="M185.42188 35.365623Q186.46875 36.1 187.35938 36.428123L186.92188 37.490623Q185.6875 37.053123 184.45312 36.084373Q183.1875 36.803123 181.64062 36.803123Q180.09375 36.803123 178.82812 36.053123Q177.5625 35.2875 176.875 33.928123Q176.1875 32.56875 176.1875 30.865623Q176.1875 29.178123 176.875 27.787498Q177.5625 26.396873 178.82812 25.678123Q180.10938 24.943748 181.67188 24.943748Q183.26562 24.943748 184.53125 25.693748Q185.8125 26.443748 186.46875 27.803123Q187.14062 29.162498 187.14062 30.865623Q187.14062 32.271873 186.70312 33.4125Q186.28125 34.5375 185.42188 35.365623ZM182.07812 33.428123Q183.39062 33.803123 184.25 34.521873Q185.57812 33.303123 185.57812 30.865623Q185.57812 29.474998 185.10938 28.443748Q184.64062 27.396873 183.71875 26.818748Q182.8125 26.240623 181.6875 26.240623Q179.98438 26.240623 178.85938 27.412498Q177.75 28.568748 177.75 30.865623Q177.75 33.1 178.85938 34.303123Q179.96875 35.490623 181.6875 35.490623Q182.5 35.490623 183.21875 35.19375Q182.5 34.725 181.71875 34.5375L182.07812 33.428123ZM194.0 36.6L194.0 35.38125Q193.03125 36.7875 191.35938 36.7875Q190.625 36.7875 189.98438 36.50625Q189.35938 36.225 189.04688 35.803123Q188.73438 35.365623 188.60938 34.75625Q188.53125 34.334373 188.53125 33.44375L188.53125 28.303123L189.9375 28.303123L189.9375 32.896873Q189.9375 34.00625 190.01562 34.38125Q190.15625 34.94375 190.57812 35.25625Q191.01562 35.56875 191.64062 35.56875Q192.28125 35.56875 192.82812 35.25625Q193.39062 34.928123 193.60938 34.365623Q193.84375 33.803123 193.84375 32.740623L193.84375 28.303123L195.25 28.303123L195.25 36.6L194.0 36.6ZM202.96875 35.56875Q202.1875 36.240623 201.46875 36.521873Q200.75 36.7875 199.92188 36.7875Q198.54688 36.7875 197.8125 36.115623Q197.07812 35.44375 197.07812 34.4125Q197.07812 33.803123 197.35938 33.303123Q197.64062 32.7875 198.07812 32.490623Q198.53125 32.178123 199.09375 32.021873Q199.51562 31.912498 200.34375 31.818748Q202.04688 31.615623 202.85938 31.334373Q202.85938 31.037498 202.85938 30.959373Q202.85938 30.099998 202.46875 29.756248Q201.92188 29.271873 200.85938 29.271873Q199.875 29.271873 199.39062 29.631248Q198.92188 29.974998 198.70312 30.849998L197.32812 30.662498Q197.51562 29.787498 197.9375 29.240623Q198.375 28.693748 199.1875 28.412498Q200.0 28.115623 201.0625 28.115623Q202.125 28.115623 202.78125 28.365623Q203.45312 28.615623 203.76562 28.990623Q204.07812 29.365623 204.20312 29.943748Q204.28125 30.303123 204.28125 31.240623L204.28125 33.115623Q204.28125 35.084373 204.35938 35.6Q204.45312 36.115623 204.71875 36.6L203.25 36.6Q203.03125 36.1625 202.96875 35.56875ZM202.85938 32.428123Q202.09375 32.740623 200.5625 32.959373Q199.6875 33.084373 199.32812 33.240623Q198.96875 33.396873 198.76562 33.709373Q198.57812 34.00625 198.57812 34.365623Q198.57812 34.928123 199.0 35.303123Q199.4375 35.678123 200.25 35.678123Q201.0625 35.678123 201.6875 35.334373Q202.32812 34.975 202.625 34.35Q202.85938 33.88125 202.85938 32.94375L202.85938 32.428123ZM206.53125 36.6L206.53125 25.146873L207.9375 25.146873L207.9375 36.6L206.53125 36.6ZM210.5625 26.756248L210.5625 25.146873L211.96875 25.146873L211.96875 26.756248L210.5625 26.756248ZM210.5625 36.6L210.5625 28.303123L211.96875 28.303123L211.96875 36.6L210.5625 36.6ZM219.9375 36.6L219.9375 35.553123Q219.15625 36.7875 217.625 36.7875Q216.625 36.7875 215.79688 36.240623Q214.96875 35.69375 214.5 34.709373Q214.04688 33.725 214.04688 32.459373Q214.04688 31.209373 214.45312 30.209373Q214.875 29.193748 215.70312 28.662498Q216.53125 28.115623 217.5625 28.115623Q218.3125 28.115623 218.89062 28.428123Q219.48438 28.740623 219.84375 29.256248L219.84375 25.146873L221.25 25.146873L221.25 36.6L219.9375 36.6ZM215.5 32.459373Q215.5 34.053123 216.17188 34.85Q216.84375 35.63125 217.75 35.63125Q218.67188 35.63125 219.3125 34.88125Q219.96875 34.115623 219.96875 32.56875Q219.96875 30.865623 219.3125 30.068748Q218.65625 29.271873 217.6875 29.271873Q216.75 29.271873 216.125 30.037498Q215.5 30.803123 215.5 32.459373ZM228.96875 35.56875Q228.1875 36.240623 227.46875 36.521873Q226.75 36.7875 225.92188 36.7875Q224.54688 36.7875 223.8125 36.115623Q223.07812 35.44375 223.07812 34.4125Q223.07812 33.803123 223.35938 33.303123Q223.64062 32.7875 224.07812 32.490623Q224.53125 32.178123 225.09375 32.021873Q225.51562 31.912498 226.34375 31.818748Q228.04688 31.615623 228.85938 31.334373Q228.85938 31.037498 228.85938 30.959373Q228.85938 30.099998 228.46875 29.756248Q227.92188 29.271873 226.85938 29.271873Q225.875 29.271873 225.39062 29.631248Q224.92188 29.974998 224.70312 30.849998L223.32812 30.662498Q223.51562 29.787498 223.9375 29.240623Q224.375 28.693748 225.1875 28.412498Q226.0 28.115623 227.0625 28.115623Q228.125 28.115623 228.78125 28.365623Q229.45312 28.615623 229.76562 28.990623Q230.07812 29.365623 230.20312 29.943748Q230.28125 30.303123 230.28125 31.240623L230.28125 33.115623Q230.28125 35.084373 230.35938 35.6Q230.45312 36.115623 230.71875 36.6L229.25 36.6Q229.03125 36.1625 228.96875 35.56875ZM228.85938 32.428123Q228.09375 32.740623 226.5625 32.959373Q225.6875 33.084373 225.32812 33.240623Q224.96875 33.396873 224.76562 33.709373Q224.57812 34.00625 224.57812 34.365623Q224.57812 34.928123 225.0 35.303123Q225.4375 35.678123 226.25 35.678123Q227.0625 35.678123 227.6875 35.334373Q228.32812 34.975 228.625 34.35Q228.85938 33.88125 228.85938 32.94375L228.85938 32.428123ZM237.9375 36.6L237.9375 35.553123Q237.15625 36.7875 235.625 36.7875Q234.625 36.7875 233.79688 36.240623Q232.96875 35.69375 232.5 34.709373Q232.04688 33.725 232.04688 32.459373Q232.04688 31.209373 232.45312 30.209373Q232.875 29.193748 233.70312 28.662498Q234.53125 28.115623 235.5625 28.115623Q236.3125 28.115623 236.89062 28.428123Q237.48438 28.740623 237.84375 29.256248L237.84375 25.146873L239.25 25.146873L239.25 36.6L237.9375 36.6ZM233.5 32.459373Q233.5 34.053123 234.17188 34.85Q234.84375 35.63125 235.75 35.63125Q236.67188 35.63125 237.3125 34.88125Q237.96875 34.115623 237.96875 32.56875Q237.96875 30.865623 237.3125 30.068748Q236.65625 29.271873 235.6875 29.271873Q234.75 29.271873 234.125 30.037498Q233.5 30.803123 233.5 32.459373ZM247.23438 33.928123L248.6875 34.1Q248.34375 35.38125 247.40625 36.084373Q246.48438 36.7875 245.04688 36.7875Q243.21875 36.7875 242.15625 35.6625Q241.09375 34.5375 241.09375 32.521873Q241.09375 30.428123 242.17188 29.271873Q243.25 28.115623 244.96875 28.115623Q246.625 28.115623 247.67188 29.256248Q248.73438 30.381248 248.73438 32.428123Q248.73438 32.553123 248.73438 32.803123L242.54688 32.803123Q242.625 34.178123 243.3125 34.9125Q244.01562 35.63125 245.04688 35.63125Q245.82812 35.63125 246.375 35.225Q246.92188 34.81875 247.23438 33.928123ZM242.625 31.646873L247.25 31.646873Q247.15625 30.599998 246.71875 30.084373Q246.04688 29.271873 244.98438 29.271873Q244.01562 29.271873 243.34375 29.928123Q242.6875 30.568748 242.625 31.646873ZM255.0 36.6L255.0 25.146873L256.51562 25.146873L256.51562 36.6L255.0 36.6ZM258.5625 36.6L258.5625 28.303123L259.82812 28.303123L259.82812 29.474998Q260.73438 28.115623 262.46875 28.115623Q263.21875 28.115623 263.84375 28.381248Q264.46875 28.646873 264.78125 29.084373Q265.09375 29.521873 265.21875 30.131248Q265.29688 30.521873 265.29688 31.490623L265.29688 36.6L263.89062 36.6L263.89062 31.553123Q263.89062 30.693748 263.71875 30.271873Q263.5625 29.834373 263.14062 29.584373Q262.73438 29.334373 262.17188 29.334373Q261.26562 29.334373 260.60938 29.912498Q259.96875 30.474998 259.96875 32.06875L259.96875 36.6L258.5625 36.6ZM270.625 35.334373L270.82812 36.584373Q270.23438 36.709373 269.76562 36.709373Q269.0 36.709373 268.57812 36.475Q268.15625 36.225 267.98438 35.834373Q267.8125 35.428123 267.8125 34.1625L267.8125 29.396873L266.78125 29.396873L266.78125 28.303123L267.8125 28.303123L267.8125 26.240623L269.21875 25.396873L269.21875 28.303123L270.625 28.303123L270.625 29.396873L269.21875 29.396873L269.21875 34.240623Q269.21875 34.85 269.28125 35.021873Q269.35938 35.19375 269.53125 35.303123Q269.70312 35.396873 270.01562 35.396873Q270.25 35.396873 270.625 35.334373ZM277.23438 33.928123L278.6875 34.1Q278.34375 35.38125 277.40625 36.084373Q276.48438 36.7875 275.04688 36.7875Q273.21875 36.7875 272.15625 35.6625Q271.09375 34.5375 271.09375 32.521873Q271.09375 30.428123 272.17188 29.271873Q273.25 28.115623 274.96875 28.115623Q276.625 28.115623 277.67188 29.256248Q278.73438 30.381248 278.73438 32.428123Q278.73438 32.553123 278.73438 32.803123L272.54688 32.803123Q272.625 34.178123 273.3125 34.9125Q274.01562 35.63125 275.04688 35.63125Q275.82812 35.63125 276.375 35.225Q276.92188 34.81875 277.23438 33.928123ZM272.625 31.646873L277.25 31.646873Q277.15625 30.599998 276.71875 30.084373Q276.04688 29.271873 274.98438 29.271873Q274.01562 29.271873 273.34375 29.928123Q272.6875 30.568748 272.625 31.646873ZM280.54688 36.6L280.54688 28.303123L281.8125 28.303123L281.8125 29.553123Q282.29688 28.678123 282.70312 28.396873Q283.10938 28.115623 283.60938 28.115623Q284.3125 28.115623 285.04688 28.568748L284.5625 29.865623Q284.04688 29.568748 283.53125 29.568748Q283.07812 29.568748 282.70312 29.849998Q282.34375 30.115623 282.1875 30.615623Q281.95312 31.365623 281.95312 32.25625L281.95312 36.6L280.54688 36.6ZM285.5625 36.6L285.5625 28.303123L286.82812 28.303123L286.82812 29.474998Q287.73438 28.115623 289.46875 28.115623Q290.21875 28.115623 290.84375 28.381248Q291.46875 28.646873 291.78125 29.084373Q292.09375 29.521873 292.21875 30.131248Q292.29688 30.521873 292.29688 31.490623L292.29688 36.6L290.89062 36.6L290.89062 31.553123Q290.89062 30.693748 290.71875 30.271873Q290.5625 29.834373 290.14062 29.584373Q289.73438 29.334373 289.17188 29.334373Q288.26562 29.334373 287.60938 29.912498Q286.96875 30.474998 286.96875 32.06875L286.96875 36.6L285.5625 36.6ZM299.96875 35.56875Q299.1875 36.240623 298.46875 36.521873Q297.75 36.7875 296.92188 36.7875Q295.54688 36.7875 294.8125 36.115623Q294.07812 35.44375 294.07812 34.4125Q294.07812 33.803123 294.35938 33.303123Q294.64062 32.7875 295.07812 32.490623Q295.53125 32.178123 296.09375 32.021873Q296.51562 31.912498 297.34375 31.818748Q299.04688 31.615623 299.85938 31.334373Q299.85938 31.037498 299.85938 30.959373Q299.85938 30.099998 299.46875 29.756248Q298.92188 29.271873 297.85938 29.271873Q296.875 29.271873 296.39062 29.631248Q295.92188 29.974998 295.70312 30.849998L294.32812 30.662498Q294.51562 29.787498 294.9375 29.240623Q295.375 28.693748 296.1875 28.412498Q297.0 28.115623 298.0625 28.115623Q299.125 28.115623 299.78125 28.365623Q300.45312 28.615623 300.76562 28.990623Q301.07812 29.365623 301.20312 29.943748Q301.28125 30.303123 301.28125 31.240623L301.28125 33.115623Q301.28125 35.084373 301.35938 35.6Q301.45312 36.115623 301.71875 36.6L300.25 36.6Q300.03125 36.1625 299.96875 35.56875ZM299.85938 32.428123Q299.09375 32.740623 297.5625 32.959373Q296.6875 33.084373 296.32812 33.240623Q295.96875 33.396873 295.76562 33.709373Q295.57812 34.00625 295.57812 34.365623Q295.57812 34.928123 296.0 35.303123Q296.4375 35.678123 297.25 35.678123Q298.0625 35.678123 298.6875 35.334373Q299.32812 34.975 299.625 34.35Q299.85938 33.88125 299.85938 32.94375L299.85938 32.428123ZM313.23438 33.928123L314.6875 34.1Q314.34375 35.38125 313.40625 36.084373Q312.48438 36.7875 311.04688 36.7875Q309.21875 36.7875 308.15625 35.6625Q307.09375 34.5375 307.09375 32.521873Q307.09375 30.428123 308.17188 29.271873Q309.25 28.115623 310.96875 28.115623Q312.625 28.115623 313.67188 29.256248Q314.73438 30.381248 314.73438 32.428123Q314.73438 32.553123 314.73438 32.803123L308.54688 32.803123Q308.625 34.178123 309.3125 34.9125Q310.01562 35.63125 311.04688 35.63125Q311.82812 35.63125 312.375 35.225Q312.92188 34.81875 313.23438 33.928123ZM308.625 31.646873L313.25 31.646873Q313.15625 30.599998 312.71875 30.084373Q312.04688 29.271873 310.98438 29.271873Q310.01562 29.271873 309.34375 29.928123Q308.6875 30.568748 308.625 31.646873ZM320.76562 36.6L320.76562 25.146873L329.04688 25.146873L329.04688 26.490623L322.28125 26.490623L322.28125 30.006248L328.625 30.006248L328.625 31.349998L322.28125 31.349998L322.28125 35.240623L329.3125 35.240623L329.3125 36.6L320.76562 36.6ZM330.625 36.6L333.65625 32.2875L330.84375 28.303123L332.60938 28.303123L333.875 30.240623Q334.23438 30.803123 334.45312 31.178123Q334.79688 30.662498 335.09375 30.256248L336.48438 28.303123L338.17188 28.303123L335.29688 32.209373L338.39062 36.6L336.65625 36.6L334.95312 34.021873L334.5 33.31875L332.32812 36.6L330.625 36.6ZM342.625 35.334373L342.82812 36.584373Q342.23438 36.709373 341.76562 36.709373Q341.0 36.709373 340.57812 36.475Q340.15625 36.225 339.98438 35.834373Q339.8125 35.428123 339.8125 34.1625L339.8125 29.396873L338.78125 29.396873L338.78125 28.303123L339.8125 28.303123L339.8125 26.240623L341.21875 25.396873L341.21875 28.303123L342.625 28.303123L342.625 29.396873L341.21875 29.396873L341.21875 34.240623Q341.21875 34.85 341.28125 35.021873Q341.35938 35.19375 341.53125 35.303123Q341.70312 35.396873 342.01562 35.396873Q342.25 35.396873 342.625 35.334373ZM349.23438 33.928123L350.6875 34.1Q350.34375 35.38125 349.40625 36.084373Q348.48438 36.7875 347.04688 36.7875Q345.21875 36.7875 344.15625 35.6625Q343.09375 34.5375 343.09375 32.521873Q343.09375 30.428123 344.17188 29.271873Q345.25 28.115623 346.96875 28.115623Q348.625 28.115623 349.67188 29.256248Q350.73438 30.381248 350.73438 32.428123Q350.73438 32.553123 350.73438 32.803123L344.54688 32.803123Q344.625 34.178123 345.3125 34.9125Q346.01562 35.63125 347.04688 35.63125Q347.82812 35.63125 348.375 35.225Q348.92188 34.81875 349.23438 33.928123ZM344.625 31.646873L349.25 31.646873Q349.15625 30.599998 348.71875 30.084373Q348.04688 29.271873 346.98438 29.271873Q346.01562 29.271873 345.34375 29.928123Q344.6875 30.568748 344.625 31.646873ZM352.54688 36.6L352.54688 28.303123L353.8125 28.303123L353.8125 29.553123Q354.29688 28.678123 354.70312 28.396873Q355.10938 28.115623 355.60938 28.115623Q356.3125 28.115623 357.04688 28.568748L356.5625 29.865623Q356.04688 29.568748 355.53125 29.568748Q355.07812 29.568748 354.70312 29.849998Q354.34375 30.115623 354.1875 30.615623Q353.95312 31.365623 353.95312 32.25625L353.95312 36.6L352.54688 36.6ZM357.5625 36.6L357.5625 28.303123L358.82812 28.303123L358.82812 29.474998Q359.73438 28.115623 361.46875 28.115623Q362.21875 28.115623 362.84375 28.381248Q363.46875 28.646873 363.78125 29.084373Q364.09375 29.521873 364.21875 30.131248Q364.29688 30.521873 364.29688 31.490623L364.29688 36.6L362.89062 36.6L362.89062 31.553123Q362.89062 30.693748 362.71875 30.271873Q362.5625 29.834373 362.14062 29.584373Q361.73438 29.334373 361.17188 29.334373Q360.26562 29.334373 359.60938 29.912498Q358.96875 30.474998 358.96875 32.06875L358.96875 36.6L357.5625 36.6ZM371.96875 35.56875Q371.1875 36.240623 370.46875 36.521873Q369.75 36.7875 368.92188 36.7875Q367.54688 36.7875 366.8125 36.115623Q366.07812 35.44375 366.07812 34.4125Q366.07812 33.803123 366.35938 33.303123Q366.64062 32.7875 367.07812 32.490623Q367.53125 32.178123 368.09375 32.021873Q368.51562 31.912498 369.34375 31.818748Q371.04688 31.615623 371.85938 31.334373Q371.85938 31.037498 371.85938 30.959373Q371.85938 30.099998 371.46875 29.756248Q370.92188 29.271873 369.85938 29.271873Q368.875 29.271873 368.39062 29.631248Q367.92188 29.974998 367.70312 30.849998L366.32812 30.662498Q366.51562 29.787498 366.9375 29.240623Q367.375 28.693748 368.1875 28.412498Q369.0 28.115623 370.0625 28.115623Q371.125 28.115623 371.78125 28.365623Q372.45312 28.615623 372.76562 28.990623Q373.07812 29.365623 373.20312 29.943748Q373.28125 30.303123 373.28125 31.240623L373.28125 33.115623Q373.28125 35.084373 373.35938 35.6Q373.45312 36.115623 373.71875 36.6L372.25 36.6Q372.03125 36.1625 371.96875 35.56875ZM371.85938 32.428123Q371.09375 32.740623 369.5625 32.959373Q368.6875 33.084373 368.32812 33.240623Q367.96875 33.396873 367.76562 33.709373Q367.57812 34.00625 367.57812 34.365623Q367.57812 34.928123 368.0 35.303123Q368.4375 35.678123 369.25 35.678123Q370.0625 35.678123 370.6875 35.334373Q371.32812 34.975 371.625 34.35Q371.85938 33.88125 371.85938 32.94375L371.85938 32.428123Z" fill-rule="nonzero"/><path stroke="#ea4335" stroke-width="4.0" stroke-linecap="butt" d="M390.5 31.1L402.5 31.1" fill-rule="nonzero"/><path fill="#1a1a1a" d="M411.76562 36.6L411.76562 25.146873L416.84375 25.146873Q418.375 25.146873 419.17188 25.459373Q419.96875 25.756248 420.4375 26.537498Q420.92188 27.318748 420.92188 28.271873Q420.92188 29.490623 420.125 30.334373Q419.34375 31.162498 417.6875 31.381248Q418.29688 31.678123 418.60938 31.959373Q419.26562 32.56875 419.85938 33.475L421.85938 36.6L419.95312 36.6L418.4375 34.209373Q417.76562 33.178123 417.32812 32.63125Q416.90625 32.084373 416.5625 31.865623Q416.23438 31.646873 415.875 31.568748Q415.625 31.506248 415.03125 31.506248L413.28125 31.506248L413.28125 36.6L411.76562 36.6ZM413.28125 30.193748L416.53125 30.193748Q417.57812 30.193748 418.15625 29.990623Q418.75 29.771873 419.04688 29.303123Q419.35938 28.818748 419.35938 28.271873Q419.35938 27.459373 418.76562 26.943748Q418.17188 26.412498 416.90625 26.412498L413.28125 26.412498L413.28125 30.193748ZM423.5625 26.756248L423.5625 25.146873L424.96875 25.146873L424.96875 26.756248L423.5625 26.756248ZM423.5625 36.6L423.5625 28.303123L424.96875 28.303123L424.96875 36.6L423.5625 36.6ZM427.0 34.115623L428.39062 33.896873Q428.5 34.740623 429.03125 35.19375Q429.57812 35.63125 430.53125 35.63125Q431.5 35.63125 431.96875 35.240623Q432.4375 34.834373 432.4375 34.303123Q432.4375 33.834373 432.03125 33.553123Q431.73438 33.365623 430.59375 33.084373Q429.04688 32.69375 428.4375 32.4125Q427.84375 32.115623 427.53125 31.615623Q427.23438 31.115623 427.23438 30.506248Q427.23438 29.943748 427.48438 29.474998Q427.73438 29.006248 428.17188 28.693748Q428.5 28.443748 429.0625 28.287498Q429.64062 28.115623 430.28125 28.115623Q431.26562 28.115623 432.0 28.396873Q432.73438 28.678123 433.07812 29.162498Q433.4375 29.631248 433.57812 30.443748L432.20312 30.631248Q432.10938 29.990623 431.65625 29.631248Q431.20312 29.271873 430.39062 29.271873Q429.42188 29.271873 429.0 29.599998Q428.59375 29.912498 428.59375 30.334373Q428.59375 30.615623 428.76562 30.834373Q428.9375 31.053123 429.29688 31.209373Q429.51562 31.287498 430.54688 31.568748Q432.03125 31.959373 432.625 32.225Q433.21875 32.475 433.54688 32.959373Q433.89062 33.44375 433.89062 34.1625Q433.89062 34.865623 433.46875 35.490623Q433.0625 36.1 432.28125 36.44375Q431.51562 36.7875 430.54688 36.7875Q428.92188 36.7875 428.07812 36.115623Q427.23438 35.44375 427.0 34.115623ZM440.96875 33.553123L442.35938 33.740623Q442.125 35.1625 441.1875 35.975Q440.26562 36.7875 438.90625 36.7875Q437.20312 36.7875 436.15625 35.678123Q435.125 34.553123 435.125 32.475Q435.125 31.131248 435.5625 30.131248Q436.01562 29.115623 436.92188 28.615623Q437.84375 28.115623 438.90625 28.115623Q440.26562 28.115623 441.125 28.803123Q441.98438 29.474998 442.21875 30.740623L440.85938 30.943748Q440.65625 30.115623 440.15625 29.693748Q439.67188 29.271873 438.96875 29.271873Q437.90625 29.271873 437.23438 30.037498Q436.57812 30.787498 436.57812 32.44375Q436.57812 34.115623 437.21875 34.88125Q437.85938 35.63125 438.89062 35.63125Q439.71875 35.63125 440.26562 35.13125Q440.82812 34.615623 440.96875 33.553123ZM443.03125 32.44375Q443.03125 30.146873 444.3125 29.037498Q445.39062 28.115623 446.92188 28.115623Q448.64062 28.115623 449.71875 29.240623Q450.8125 30.349998 450.8125 32.334373Q450.8125 33.928123 450.32812 34.85Q449.84375 35.771873 448.92188 36.2875Q448.01562 36.7875 446.92188 36.7875Q445.1875 36.7875 444.10938 35.678123Q443.03125 34.553123 443.03125 32.44375ZM444.48438 32.44375Q444.48438 34.0375 445.17188 34.834373Q445.875 35.63125 446.92188 35.63125Q447.96875 35.63125 448.65625 34.834373Q449.35938 34.0375 449.35938 32.396873Q449.35938 30.865623 448.65625 30.068748Q447.96875 29.271873 446.92188 29.271873Q445.875 29.271873 445.17188 30.068748Q444.48438 30.849998 444.48438 32.44375ZM461.9375 36.6L461.9375 35.553123Q461.15625 36.7875 459.625 36.7875Q458.625 36.7875 457.79688 36.240623Q456.96875 35.69375 456.5 34.709373Q456.04688 33.725 456.04688 32.459373Q456.04688 31.209373 456.45312 30.209373Q456.875 29.193748 457.70312 28.662498Q458.53125 28.115623 459.5625 28.115623Q460.3125 28.115623 460.89062 28.428123Q461.48438 28.740623 461.84375 29.256248L461.84375 25.146873L463.25 25.146873L463.25 36.6L461.9375 36.6ZM457.5 32.459373Q457.5 34.053123 458.17188 34.85Q458.84375 35.63125 459.75 35.63125Q460.67188 35.63125 461.3125 34.88125Q461.96875 34.115623 461.96875 32.56875Q461.96875 30.865623 461.3125 30.068748Q460.65625 29.271873 459.6875 29.271873Q458.75 29.271873 458.125 30.037498Q457.5 30.803123 457.5 32.459373ZM471.23438 33.928123L472.6875 34.1Q472.34375 35.38125 471.40625 36.084373Q470.48438 36.7875 469.04688 36.7875Q467.21875 36.7875 466.15625 35.6625Q465.09375 34.5375 465.09375 32.521873Q465.09375 30.428123 466.17188 29.271873Q467.25 28.115623 468.96875 28.115623Q470.625 28.115623 471.67188 29.256248Q472.73438 30.381248 472.73438 32.428123Q472.73438 32.553123 472.73438 32.803123L466.54688 32.803123Q466.625 34.178123 467.3125 34.9125Q468.01562 35.63125 469.04688 35.63125Q469.82812 35.63125 470.375 35.225Q470.92188 34.81875 471.23438 33.928123ZM466.625 31.646873L471.25 31.646873Q471.15625 30.599998 470.71875 30.084373Q470.04688 29.271873 468.98438 29.271873Q468.01562 29.271873 467.34375 29.928123Q466.6875 30.568748 466.625 31.646873ZM478.8125 36.6L478.8125 25.146873L486.54688 25.146873L486.54688 26.490623L480.32812 26.490623L480.32812 30.037498L485.70312 30.037498L485.70312 31.396873L480.32812 31.396873L480.32812 36.6L478.8125 36.6ZM488.54688 36.6L488.54688 28.303123L489.8125 28.303123L489.8125 29.553123Q490.29688 28.678123 490.70312 28.396873Q491.10938 28.115623 491.60938 28.115623Q492.3125 28.115623 493.04688 28.568748L492.5625 29.865623Q492.04688 29.568748 491.53125 29.568748Q491.07812 29.568748 490.70312 29.849998Q490.34375 30.115623 490.1875 30.615623Q489.95312 31.365623 489.95312 32.25625L489.95312 36.6L488.54688 36.6ZM498.96875 35.56875Q498.1875 36.240623 497.46875 36.521873Q496.75 36.7875 495.92188 36.7875Q494.54688 36.7875 493.8125 36.115623Q493.07812 35.44375 493.07812 34.4125Q493.07812 33.803123 493.35938 33.303123Q493.64062 32.7875 494.07812 32.490623Q494.53125 32.178123 495.09375 32.021873Q495.51562 31.912498 496.34375 31.818748Q498.04688 31.615623 498.85938 31.334373Q498.85938 31.037498 498.85938 30.959373Q498.85938 30.099998 498.46875 29.756248Q497.92188 29.271873 496.85938 29.271873Q495.875 29.271873 495.39062 29.631248Q494.92188 29.974998 494.70312 30.849998L493.32812 30.662498Q493.51562 29.787498 493.9375 29.240623Q494.375 28.693748 495.1875 28.412498Q496.0 28.115623 497.0625 28.115623Q498.125 28.115623 498.78125 28.365623Q499.45312 28.615623 499.76562 28.990623Q500.07812 29.365623 500.20312 29.943748Q500.28125 30.303123 500.28125 31.240623L500.28125 33.115623Q500.28125 35.084373 500.35938 35.6Q500.45312 36.115623 500.71875 36.6L499.25 36.6Q499.03125 36.1625 498.96875 35.56875ZM498.85938 32.428123Q498.09375 32.740623 496.5625 32.959373Q495.6875 33.084373 495.32812 33.240623Q494.96875 33.396873 494.76562 33.709373Q494.57812 34.00625 494.57812 34.365623Q494.57812 34.928123 495.0 35.303123Q495.4375 35.678123 496.25 35.678123Q497.0625 35.678123 497.6875 35.334373Q498.32812 34.975 498.625 34.35Q498.85938 33.88125 498.85938 32.94375L498.85938 32.428123ZM507.96875 33.553123L509.35938 33.740623Q509.125 35.1625 508.1875 35.975Q507.26562 36.7875 505.90625 36.7875Q504.20312 36.7875 503.15625 35.678123Q502.125 34.553123 502.125 32.475Q502.125 31.131248 502.5625 30.131248Q503.01562 29.115623 503.92188 28.615623Q504.84375 28.115623 505.90625 28.115623Q507.26562 28.115623 508.125 28.803123Q508.98438 29.474998 509.21875 30.740623L507.85938 30.943748Q507.65625 30.115623 507.15625 29.693748Q506.67188 29.271873 505.96875 29.271873Q504.90625 29.271873 504.23438 30.037498Q503.57812 30.787498 503.57812 32.44375Q503.57812 34.115623 504.21875 34.88125Q504.85938 35.63125 505.89062 35.63125Q506.71875 35.63125 507.26562 35.13125Q507.82812 34.615623 507.96875 33.553123ZM515.96875 35.56875Q515.1875 36.240623 514.46875 36.521873Q513.75 36.7875 512.9219 36.7875Q511.54688 36.7875 510.8125 36.115623Q510.07812 35.44375 510.07812 34.4125Q510.07812 33.803123 510.35938 33.303123Q510.64062 32.7875 511.07812 32.490623Q511.53125 32.178123 512.09375 32.021873Q512.5156 31.912498 513.34375 31.818748Q515.0469 31.615623 515.8594 31.334373Q515.8594 31.037498 515.8594 30.959373Q515.8594 30.099998 515.46875 29.756248Q514.9219 29.271873 513.8594 29.271873Q512.875 29.271873 512.3906 29.631248Q511.92188 29.974998 511.70312 30.849998L510.32812 30.662498Q510.51562 29.787498 510.9375 29.240623Q511.375 28.693748 512.1875 28.412498Q513.0 28.115623 514.0625 28.115623Q515.125 28.115623 515.78125 28.365623Q516.4531 28.615623 516.7656 28.990623Q517.0781 29.365623 517.2031 29.943748Q517.28125 30.303123 517.28125 31.240623L517.28125 33.115623Q517.28125 35.084373 517.3594 35.6Q517.4531 36.115623 517.71875 36.6L516.25 36.6Q516.03125 36.1625 515.96875 35.56875ZM515.8594 32.428123Q515.09375 32.740623 513.5625 32.959373Q512.6875 33.084373 512.3281 33.240623Q511.96875 33.396873 511.76562 33.709373Q511.57812 34.00625 511.57812 34.365623Q511.57812 34.928123 512.0 35.303123Q512.4375 35.678123 513.25 35.678123Q514.0625 35.678123 514.6875 35.334373Q515.3281 34.975 515.625 34.35Q515.8594 33.88125 515.8594 32.94375L515.8594 32.428123ZM519.0 34.115623L520.3906 33.896873Q520.5 34.740623 521.03125 35.19375Q521.5781 35.63125 522.53125 35.63125Q523.5 35.63125 523.96875 35.240623Q524.4375 34.834373 524.4375 34.303123Q524.4375 33.834373 524.03125 33.553123Q523.7344 33.365623 522.59375 33.084373Q521.0469 32.69375 520.4375 32.4125Q519.84375 32.115623 519.53125 31.615623Q519.2344 31.115623 519.2344 30.506248Q519.2344 29.943748 519.4844 29.474998Q519.7344 29.006248 520.1719 28.693748Q520.5 28.443748 521.0625 28.287498Q521.6406 28.115623 522.28125 28.115623Q523.2656 28.115623 524.0 28.396873Q524.7344 28.678123 525.0781 29.162498Q525.4375 29.631248 525.5781 30.443748L524.2031 30.631248Q524.1094 29.990623 523.65625 29.631248Q523.2031 29.271873 522.3906 29.271873Q521.4219 29.271873 521.0 29.599998Q520.59375 29.912498 520.59375 30.334373Q520.59375 30.615623 520.7656 30.834373Q520.9375 31.053123 521.2969 31.209373Q521.5156 31.287498 522.5469 31.568748Q524.03125 31.959373 524.625 32.225Q525.21875 32.475 525.5469 32.959373Q525.8906 33.44375 525.8906 34.1625Q525.8906 34.865623 525.46875 35.490623Q525.0625 36.1 524.28125 36.44375Q523.5156 36.7875 522.5469 36.7875Q520.9219 36.7875 520.0781 36.115623Q519.2344 35.44375 519.0 34.115623ZM527.0 34.115623L528.3906 33.896873Q528.5 34.740623 529.03125 35.19375Q529.5781 35.63125 530.53125 35.63125Q531.5 35.63125 531.96875 35.240623Q532.4375 34.834373 532.4375 34.303123Q532.4375 33.834373 532.03125 33.553123Q531.7344 33.365623 530.59375 33.084373Q529.0469 32.69375 528.4375 32.4125Q527.84375 32.115623 527.53125 31.615623Q527.2344 31.115623 527.2344 30.506248Q527.2344 29.943748 527.4844 29.474998Q527.7344 29.006248 528.1719 28.693748Q528.5 28.443748 529.0625 28.287498Q529.6406 28.115623 530.28125 28.115623Q531.2656 28.115623 532.0 28.396873Q532.7344 28.678123 533.0781 29.162498Q533.4375 29.631248 533.5781 30.443748L532.2031 30.631248Q532.1094 29.990623 531.65625 29.631248Q531.2031 29.271873 530.3906 29.271873Q529.4219 29.271873 529.0 29.599998Q528.59375 29.912498 528.59375 30.334373Q528.59375 30.615623 528.7656 30.834373Q528.9375 31.053123 529.2969 31.209373Q529.5156 31.287498 530.5469 31.568748Q532.03125 31.959373 532.625 32.225Q533.21875 32.475 533.5469 32.959373Q533.8906 33.44375 533.8906 34.1625Q533.8906 34.865623 533.46875 35.490623Q533.0625 36.1 532.28125 36.44375Q531.5156 36.7875 530.5469 36.7875Q528.9219 36.7875 528.0781 36.115623Q527.2344 35.44375 527.0 34.115623ZM535.03125 32.44375Q535.03125 30.146873 536.3125 29.037498Q537.3906 28.115623 538.9219 28.115623Q540.6406 28.115623 541.71875 29.240623Q542.8125 30.349998 542.8125 32.334373Q542.8125 33.928123 542.3281 34.85Q541.84375 35.771873 540.9219 36.2875Q540.0156 36.7875 538.9219 36.7875Q537.1875 36.7875 536.1094 35.678123Q535.03125 34.553123 535.03125 32.44375ZM536.4844 32.44375Q536.4844 34.0375 537.1719 34.834373Q537.875 35.63125 538.9219 35.63125Q539.96875 35.63125 540.65625 34.834373Q541.3594 34.0375 541.3594 32.396873Q541.3594 30.865623 540.65625 30.068748Q539.96875 29.271873 538.9219 29.271873Q537.875 29.271873 537.1719 30.068748Q536.4844 30.849998 536.4844 32.44375Z" fill-rule="nonzero"/></svg>