<svg version="1.1" viewBox="0.0 0.0 600.0 371.0" fill="none" stroke="none" stroke-linecap="square" stroke-miterlimit="10" width="600" height="371" xmlns:xlink="http://www.w3.org/1999/xlink" xmlns="http://www.w3.org/2000/svg"><path fill="#ffffff" d="M0 0L600.0 0L600.0 371.0L0 371.0L0 0Z" fill-rule="nonzero"/><path stroke="#cccccc" stroke-width="1.0" stroke-linecap="butt" d="M45.5 112.5L45.5 300.5" fill-rule="nonzero"/><path stroke="#cccccc" stroke-width="1.0" stroke-linecap="butt" d="M152.5 112.5L152.5 300.5" fill-rule="nonzero"/><path stroke="#cccccc" stroke-width="1.0" stroke-linecap="butt" d="M259.5 112.5L259.5 300.5" fill-rule="nonzero"/><path stroke="#cccccc" stroke-width="1.0" stroke-linecap="butt" d="M367.5 112.5L367.5 300.5" fill-rule="nonzero"/><path stroke="#cccccc" stroke-width="1.0" stroke-linecap="butt" d="M474.5 112.5L474.5 300.5" fill-rule="nonzero"/><path stroke="#cccccc" stroke-width="1.0" stroke-linecap="butt" d="M581.5 112.5L581.5 300.5" fill-rule="nonzero"/><path stroke="#333333" stroke-width="1.0" stroke-linecap="butt" d="M45.5 300.5L581.5 300.5" fill-rule="nonzero"/><path stroke="#cccccc" stroke-width="1.0" stroke-linecap="butt" d="M45.5 253.5L581.5 253.5" fill-rule="nonzero"/><path stroke="#cccccc" stroke-width="1.0" stroke-linecap="butt" d="M45.5 206.5L581.5 206.5" fill-rule="nonzero"/><path stroke="#cccccc" stroke-width="1.0" stroke-linecap="butt" d="M45.5 159.5L581.5 159.5" fill-rule="nonzero"/><path stroke="#cccccc" stroke-width="1.0" stroke-linecap="butt" d="M45.5 112.5L581.5 112.5" fill-rule="nonzero"/><clipPath id="id_0"><path d="M45.55 112.28333L581.45 112.28333L581.45 300.45L45.55 300.45L45.55 112.28333Z" clip-rule="nonzero"/></clipPath><path stroke="#4285f4" stroke-width="2.0" stroke-linecap="butt" clip-path="url(#id_0)" d="M45.55 262.81668L152.73 225.18333L259.91 187.55L367.09 149.91667L474.27 140.50833L581.45 131.1" fill-rule="nonzero"/><path stroke="#ea4335" stroke-width="2.0" stroke-linecap="butt" clip-path="url(#id_0)" d="M45.55 131.1L152.73 168.73334L259.91 206.36667L367.09 244.0L474.27 281.63333L581.45 291.04166" fill-rule="nonzero"/><path fill="#000000" fill-opacity="0.0" clip-path="url(#id_0)" d="M48.55 262.81668C48.55 264.4735 47.206856 265.81668 45.55 265.81668C43.893147 265.81668 42.55 264.4735 42.55 262.81668C42.55 261.15982 43.893147 259.81668 45.55 259.81668C47.206856 259.81668 48.55 261.15982 48.55 262.81668Z" fill-rule="nonzero"/><path fill="#000000" fill-opacity="0.0" clip-path="url(#id_0)" d="M155.73 225.18333C155.73 226.8402 154.38686 228.18333 152.73 228.18333C151.07315 228.18333 149.73 226.8402 149.73 225.18333C149.73 223.52647 151.07315 222.18333 152.73 222.18333C154.38686 222.18333 155.73 223.52647 155.73 225.18333Z" fill-rule="nonzero"/><path fill="#000000" fill-opacity="0.0" clip-path="url(#id_0)" d="M262.91 187.55C262.91 189.20685 261.56686 190.55 259.91 190.55C258.25314 190.55 256.91 189.20685 256.91 187.55C256.91 185.89314 258.25314 184.55 259.91 184.55C261.56686 184.55 262.91 185.89314 262.91 187.55Z" fill-rule="nonzero"/><path fill="#000000" fill-opacity="0.0" clip-path="url(#id_0)" d="M370.09 149.91667C370.09 151.57352 368.74686 152.91667 367.09 152.91667C365.43314 152.91667 364.09 151.57352 364.09 149.91667C364.09 148.25981 365.43314 146.91667 367.09 146.91667C368.74686 146.91667 370.09 148.25981 370.09 149.91667Z" fill-rule="nonzero"/><path fill="#000000" fill-opacity="0.0" clip-path="url(#id_0)" d="M477.27 140.50833C477.27 142.16519 475.92685 143.50833 474.27 143.50833C472.61316 143.50833 471.27 142.16519 471.27 140.50833C471.27 138.85149 472.61316 137.50833 474.27 137.50833C475.92685 137.50833 477.27 138.85149 477.27 140.50833Z" fill-rule="nonzero"/><path fill="#000000" fill-opacity="0.0" clip-path="url(#id_0)" d="M584.45 131.1C584.45 132.75685 583.1069 134.1 581.45 134.1C579.79315 134.1 578.45 132.75685 578.45 131.1C578.45 129.44315 579.79315 128.1 581.45 128.1C583.1069 128.1 584.45 129.44315 584.45 131.1Z" fill-rule="nonzero"/><path fill="#000000" fill-opacity="0.0" clip-path="url(#id_0)" d="M48.55 131.1C48.55 132.75685 47.206856 134.1 45.55 134.1C43.893147 134.1 42.55 132.75685 42.55 131.1C42.55 129.44315 43.893147 128.1 45.55 128.1C47.206856 128.1 48.55 129.44315 48.55 131.1Z" fill-rule="nonzero"/><path fill="#000000" fill-opacity="0.0" clip-path="url(#id_0)" d="M155.73 168.73334C155.73 170.39018 154.38686 171.73334 152.73 171.73334C151.07315 171.73334 149.73 170.39018 149.73 168.73334C149.73 167.07648 151.07315 165.73334 152.73 165.73334C154.38686 165.73334 155.73 167.07648 155.73 168.73334Z" fill-rule="nonzero"/><path fill="#000000" fill-opacity="0.0" clip-path="url(#id_0)" d="M262.91 206.36667C262.91 208.02351 261.56686 209.36667 259.91 209.36667C258.25314 209.36667 256.91 208.02351 256.91 206.36667C256.91 204.70981 258.25314 203.36667 259.91 203.36667C261.56686 203.36667 262.91 204.70981 262.91 206.36667Z" fill-rule="nonzero"/><path fill="#000000" fill-opacity="0.0" clip-path="url(#id_0)" d="M370.09 244.0C370.09 245.65686 368.74686 247.0 367.09 247.0C365.43314 247.0 364.09 245.65686 364.09 244.0C364.09 242.34314 365.43314 241.0 367.09 241.0C368.74686 241.0 370.09 242.34314 370.09 244.0Z" fill-rule="nonzero"/><path fill="#000000" fill-opacity="0.0" clip-path="url(#id_0)" d="M477.27 281.63333C477.27 283.2902 475.92685 284.63333 474.27 284.63333C472.61316 284.63333 471.27 283.2902 471.27 281.63333C471.27 279.97647 472.61316 278.63333 474.27 278.63333C475.92685 278.63333 477.27 279.97647 477.27 281.63333Z" fill-rule="nonzero"/><path fill="#000000" fill-opacity="0.0" clip-path="url(#id_0)" d="M584.45 291.04166C584.45 292.69852 583.1069 294.04166 581.45 294.04166C579.79315 294.04166 578.45 292.69852 578.45 291.04166C578.45 289.38483 579.79315 288.04166 581.45 288.04166C583.1069 288.04166 584.45 289.38483 584.45 291.04166Z" fill-rule="nonzero"/><path fill="#000000" d="M297.60938 349.45L297.60938 341.8719L294.78125 341.8719L294.78125 340.85626L301.59375 340.85626L301.59375 341.8719L298.75 341.8719L298.75 349.45L297.60938 349.45ZM306.54688 347.45L307.64062 347.575Q307.39062 348.52814 306.6875 349.0594Q305.98438 349.59064 304.90625 349.59064Q303.54688 349.59064 302.73438 348.7469Q301.9375 347.90314 301.9375 346.3875Q301.9375 344.825 302.75 343.96564Q303.5625 343.09064 304.84375 343.09064Q306.09375 343.09064 306.875 343.9344Q307.67188 344.77814 307.67188 346.325Q307.67188 346.41876 307.67188 346.60626L303.03125 346.60626Q303.09375 347.6375 303.60938 348.1844Q304.125 348.71564 304.90625 348.71564Q305.48438 348.71564 305.89062 348.41876Q306.3125 348.10626 306.54688 347.45ZM303.09375 345.7469L306.5625 345.7469Q306.5 344.95 306.17188 344.5594Q305.65625 343.95 304.85938 343.95Q304.125 343.95 303.625 344.4344Q303.14062 344.91876 303.09375 345.7469ZM309.29688 349.45L309.29688 343.23126L310.23438 343.23126L310.23438 344.10626Q310.53125 343.6375 311.01562 343.3719Q311.5 343.09064 312.125 343.09064Q312.8125 343.09064 313.25 343.3719Q313.70312 343.65314 313.875 344.16876Q314.625 343.09064 315.79688 343.09064Q316.73438 343.09064 317.21875 343.60626Q317.71875 344.10626 317.71875 345.1844L317.71875 349.45L316.67188 349.45L316.67188 345.52814Q316.67188 344.90314 316.5625 344.6219Q316.46875 344.34064 316.20312 344.16876Q315.9375 343.9969 315.5625 343.9969Q314.90625 343.9969 314.46875 344.4344Q314.04688 344.8719 314.04688 345.84064L314.04688 349.45L312.98438 349.45L312.98438 345.40314Q312.98438 344.7 312.71875 344.35626Q312.46875 343.9969 311.89062 343.9969Q311.4375 343.9969 311.0625 344.23126Q310.6875 344.46564 310.51562 344.91876Q310.34375 345.3719 310.34375 346.21564L310.34375 349.45L309.29688 349.45ZM319.29688 351.84064L319.29688 343.23126L320.25 343.23126L320.25 344.02814Q320.59375 343.5594 321.01562 343.325Q321.45312 343.09064 322.0625 343.09064Q322.85938 343.09064 323.46875 343.4969Q324.07812 343.90314 324.375 344.65314Q324.6875 345.40314 324.6875 346.29376Q324.6875 347.2469 324.34375 348.0125Q324.01562 348.77814 323.35938 349.1844Q322.70312 349.59064 321.98438 349.59064Q321.45312 349.59064 321.03125 349.3719Q320.60938 349.1375 320.34375 348.8094L320.34375 351.84064L319.29688 351.84064ZM320.25 346.3719Q320.25 347.575 320.73438 348.15314Q321.21875 348.71564 321.90625 348.71564Q322.60938 348.71564 323.10938 348.1219Q323.60938 347.52814 323.60938 346.27814Q323.60938 345.09064 323.125 344.5125Q322.64062 343.91876 321.95312 343.91876Q321.28125 343.91876 320.76562 344.54376Q320.25 345.16876 320.25 346.3719ZM325.90625 346.34064Q325.90625 344.60626 326.85938 343.77814Q327.65625 343.09064 328.8125 343.09064Q330.09375 343.09064 330.90625 343.9344Q331.73438 344.7625 331.73438 346.2469Q331.73438 347.45 331.375 348.1375Q331.01562 348.825 330.3125 349.21564Q329.625 349.59064 328.8125 349.59064Q327.51562 349.59064 326.70312 348.7625Q325.90625 347.91876 325.90625 346.34064ZM326.98438 346.34064Q326.98438 347.52814 327.5 348.1219Q328.03125 348.71564 328.8125 348.71564Q329.60938 348.71564 330.125 348.1219Q330.64062 347.52814 330.64062 346.3094Q330.64062 345.15314 330.10938 344.5594Q329.59375 343.96564 328.8125 343.96564Q328.03125 343.96564 327.5 344.5594Q326.98438 345.1375 326.98438 346.34064Z" fill-rule="nonzero"/><path fill="#000000" d="M33.05 300.21564Q33.05 298.6844 33.3625 297.7625Q33.675 296.825 34.284374 296.325Q34.909374 295.825 35.846874 295.825Q36.534374 295.825 37.05 296.10626Q37.58125 296.3875 37.925 296.91876Q38.26875 297.4344 38.45625 298.1844Q38.64375 298.9344 38.64375 300.21564Q38.64375 301.73126 38.33125 302.65314Q38.034374 303.575 37.409374 304.09064Q36.8 304.59064 35.846874 304.59064Q34.6125 304.59064 33.89375 303.7Q33.05 302.6375 33.05 300.21564ZM34.128124 300.21564Q34.128124 302.325 34.628124 303.02814Q35.128124 303.73126 35.846874 303.73126Q36.58125 303.73126 37.065624 303.02814Q37.565624 302.325 37.565624 300.21564Q37.565624 298.09064 37.065624 297.40314Q36.58125 296.7 35.83125 296.7Q35.1125 296.7 34.675 297.3094Q34.128124 298.09064 34.128124 300.21564Z" fill-rule="nonzero"/><path fill="#000000" d="M31.596874 256.3927L31.596874 257.40833L25.909374 257.40833Q25.909374 257.03333 26.034374 256.67395Q26.253124 256.09583 26.721874 255.53333Q27.20625 254.97083 28.1125 254.23645Q29.51875 253.0802 30.003124 252.40833Q30.503124 251.73645 30.503124 251.1427Q30.503124 250.5177 30.05 250.09583Q29.596874 249.65833 28.878124 249.65833Q28.1125 249.65833 27.659374 250.11145Q27.20625 250.56458 27.190624 251.37708L26.1125 251.2677Q26.221874 250.04895 26.940624 249.42395Q27.675 248.78333 28.909374 248.78333Q30.14375 248.78333 30.8625 249.47083Q31.58125 250.15833 31.58125 251.17395Q31.58125 251.68958 31.3625 252.18958Q31.159374 252.67395 30.659374 253.23645Q30.175 253.78333 29.05 254.73645Q28.096874 255.53333 27.815624 255.8302Q27.55 256.11145 27.378124 256.3927L31.596874 256.3927ZM33.05 255.15833L34.159374 255.06458Q34.284374 255.87708 34.721874 256.28333Q35.175 256.68958 35.815624 256.68958Q36.565624 256.68958 37.096874 256.11145Q37.628124 255.53333 37.628124 254.59583Q37.628124 253.68958 37.1125 253.17395Q36.6125 252.6427 35.784374 252.6427Q35.284374 252.6427 34.8625 252.87708Q34.45625 253.11145 34.221874 253.47083L33.2375 253.34583L34.065624 248.93958L38.346874 248.93958L38.346874 249.93958L34.909374 249.93958L34.45625 252.25208Q35.221874 251.7052 36.065624 251.7052Q37.190624 251.7052 37.95625 252.48645Q38.7375 253.2677 38.7375 254.50208Q38.7375 255.65833 38.065624 256.5177Q37.2375 257.54895 35.815624 257.54895Q34.64375 257.54895 33.89375 256.8927Q33.159374 256.23645 33.05 255.15833Z" fill-rule="nonzero"/><path fill="#000000" d="M26.05 208.11667L27.159374 208.02292Q27.284374 208.83542 27.721874 209.24167Q28.175 209.64792 28.815624 209.64792Q29.565624 209.64792 30.096874 209.0698Q30.628124 208.49167 30.628124 207.55417Q30.628124 206.64792 30.1125 206.1323Q29.6125 205.60104 28.784374 205.60104Q28.284374 205.60104 27.8625 205.83542Q27.45625 206.0698 27.221874 206.42917L26.2375 206.30417L27.065624 201.89792L31.346874 201.89792L31.346874 202.89792L27.909374 202.89792L27.45625 205.21042Q28.221874 204.66354 29.065624 204.66354Q30.190624 204.66354 30.95625 205.4448Q31.7375 206.22604 31.7375 207.46042Q31.7375 208.61667 31.065624 209.47604Q30.2375 210.5073 28.815624 210.5073Q27.64375 210.5073 26.89375 209.85104Q26.159374 209.1948 26.05 208.11667ZM33.05 206.1323Q33.05 204.60104 33.3625 203.67917Q33.675 202.74167 34.284374 202.24167Q34.909374 201.74167 35.846874 201.74167Q36.534374 201.74167 37.05 202.02292Q37.58125 202.30417 37.925 202.83542Q38.26875 203.35104 38.45625 204.10104Q38.64375 204.85104 38.64375 206.1323Q38.64375 207.64792 38.33125 208.5698Q38.034374 209.49167 37.409374 210.0073Q36.8 210.5073 35.846874 210.5073Q34.6125 210.5073 33.89375 209.61667Q33.05 208.55417 33.05 206.1323ZM34.128124 206.1323Q34.128124 208.24167 34.628124 208.9448Q35.128124 209.64792 35.846874 209.64792Q36.58125 209.64792 37.065624 208.9448Q37.565624 208.24167 37.565624 206.1323Q37.565624 204.0073 37.065624 203.3198Q36.58125 202.61667 35.83125 202.61667Q35.1125 202.61667 34.675 203.22604Q34.128124 204.0073 34.128124 206.1323Z" fill-rule="nonzero"/><path fill="#000000" d="M26.1125 155.85625L26.1125 154.84062L31.675 154.84062L31.675 155.66875Q30.8625 156.54375 30.05 157.99687Q29.253124 159.43437 28.815624 160.96562Q28.4875 162.04375 28.409374 163.325L27.315624 163.325Q27.33125 162.30937 27.70625 160.87187Q28.096874 159.43437 28.8 158.10625Q29.51875 156.77812 30.33125 155.85625L26.1125 155.85625ZM33.05 161.075L34.159374 160.98125Q34.284374 161.79375 34.721874 162.2Q35.175 162.60625 35.815624 162.60625Q36.565624 162.60625 37.096874 162.02812Q37.628124 161.45 37.628124 160.5125Q37.628124 159.60625 37.1125 159.09062Q36.6125 158.55937 35.784374 158.55937Q35.284374 158.55937 34.8625 158.79375Q34.45625 159.02812 34.221874 159.3875L33.2375 159.2625L34.065624 154.85625L38.346874 154.85625L38.346874 155.85625L34.909374 155.85625L34.45625 158.16875Q35.221874 157.62187 36.065624 157.62187Q37.190624 157.62187 37.95625 158.40312Q38.7375 159.18437 38.7375 160.41875Q38.7375 161.575 38.065624 162.43437Q37.2375 163.46562 35.815624 163.46562Q34.64375 163.46562 33.89375 162.80937Q33.159374 162.15312 33.05 161.075Z" fill-rule="nonzero"/><path fill="#000000" d="M23.01875 116.28333L21.971874 116.28333L21.971874 109.56458Q21.58125 109.92396 20.95625 110.29896Q20.346874 110.65833 19.8625 110.83021L19.8625 109.81458Q20.7375 109.39271 21.39375 108.81458Q22.065624 108.22083 22.346874 107.65833L23.01875 107.65833L23.01875 116.28333ZM26.05 112.04896Q26.05 110.51771 26.3625 109.59583Q26.675 108.65833 27.284374 108.15833Q27.909374 107.65833 28.846874 107.65833Q29.534374 107.65833 30.05 107.93958Q30.58125 108.22083 30.925 108.75208Q31.26875 109.26771 31.45625 110.01771Q31.64375 110.76771 31.64375 112.04896Q31.64375 113.56458 31.33125 114.48646Q31.034374 115.40833 30.409374 115.92396Q29.8 116.42396 28.846874 116.42396Q27.6125 116.42396 26.89375 115.53333Q26.05 114.47083 26.05 112.04896ZM27.128124 112.04896Q27.128124 114.15833 27.628124 114.86146Q28.128124 115.56458 28.846874 115.56458Q29.58125 115.56458 30.065624 114.86146Q30.565624 114.15833 30.565624 112.04896Q30.565624 109.92396 30.065624 109.23646Q29.58125 108.53333 28.83125 108.53333Q28.1125 108.53333 27.675 109.14271Q27.128124 109.92396 27.128124 112.04896ZM33.05 112.04896Q33.05 110.51771 33.3625 109.59583Q33.675 108.65833 34.284374 108.15833Q34.909374 107.65833 35.846874 107.65833Q36.534374 107.65833 37.05 107.93958Q37.58125 108.22083 37.925 108.75208Q38.26875 109.26771 38.45625 110.01771Q38.64375 110.76771 38.64375 112.04896Q38.64375 113.56458 38.33125 114.48646Q38.034374 115.40833 37.409374 115.92396Q36.8 116.42396 35.846874 116.42396Q34.6125 116.42396 33.89375 115.53333Q33.05 114.47083 33.05 112.04896ZM34.128124 112.04896Q34.128124 114.15833 34.628124 114.86146Q35.128124 115.56458 35.846874 115.56458Q36.58125 115.56458 37.065624 114.86146Q37.565624 114.15833 37.565624 112.04896Q37.565624 109.92396 37.065624 109.23646Q36.58125 108.53333 35.83125 108.53333Q35.1125 108.53333 34.675 109.14271Q34.128124 109.92396 34.128124 112.04896Z" fill-rule="nonzero"/><path fill="#000000" d="M46.51875 317.45L45.471874 317.45L45.471874 310.73126Q45.08125 311.09064 44.45625 311.46564Q43.846874 311.825 43.3625 311.9969L43.3625 310.98126Q44.2375 310.5594 44.89375 309.98126Q45.565624 309.3875 45.846874 308.825L46.51875 308.825L46.51875 317.45Z" fill-rule="nonzero"/><path fill="#000000" d="M155.27687 316.4344L155.27687 317.45L149.58937 317.45Q149.58937 317.075 149.71437 316.71564Q149.93312 316.1375 150.40187 315.575Q150.88625 315.0125 151.7925 314.27814Q153.19875 313.1219 153.68312 312.45Q154.18312 311.77814 154.18312 311.1844Q154.18312 310.5594 153.73 310.1375Q153.27687 309.7 152.55812 309.7Q151.7925 309.7 151.33937 310.15314Q150.88625 310.60626 150.87062 311.41876L149.7925 311.3094Q149.90187 310.09064 150.62062 309.46564Q151.355 308.825 152.58937 308.825Q153.82375 308.825 154.5425 309.5125Q155.26125 310.2 155.26125 311.21564Q155.26125 311.73126 155.0425 312.23126Q154.83937 312.71564 154.33937 313.27814Q153.855 313.825 152.73 314.77814Q151.77687 315.575 151.49562 315.8719Q151.23 316.15314 151.05812 316.4344L155.27687 316.4344Z" fill-rule="nonzero"/><path fill="#000000" d="M256.91 315.1844L257.9725 315.04376Q258.14438 315.9344 258.58188 316.34064Q259.01938 316.73126 259.64438 316.73126Q260.39438 316.73126 260.91 316.21564Q261.42563 315.7 261.42563 314.9344Q261.42563 314.21564 260.94125 313.7469Q260.4725 313.2625 259.73813 313.2625Q259.44125 313.2625 258.98813 313.3875L259.11313 312.45Q259.2225 312.46564 259.285 312.46564Q259.95688 312.46564 260.48813 312.1219Q261.035 311.7625 261.035 311.02814Q261.035 310.45 260.64438 310.075Q260.25375 309.6844 259.62875 309.6844Q259.01938 309.6844 258.5975 310.075Q258.19125 310.46564 258.08188 311.23126L257.01938 311.04376Q257.20688 309.9969 257.89438 309.41876Q258.58188 308.825 259.5975 308.825Q260.30063 308.825 260.89438 309.1375Q261.48813 309.4344 261.80063 309.95Q262.11313 310.46564 262.11313 311.0594Q262.11313 311.60626 261.81625 312.075Q261.51938 312.52814 260.94125 312.79376Q261.69125 312.96564 262.11313 313.52814Q262.535 314.075 262.535 314.91876Q262.535 316.04376 261.70688 316.825Q260.89438 317.60626 259.64438 317.60626Q258.51938 317.60626 257.76938 316.9344Q257.01938 316.2469 256.91 315.1844Z" fill-rule="nonzero"/><path fill="#000000" d="M367.465 317.45L367.465 315.3875L363.74625 315.3875L363.74625 314.41876L367.66812 308.85626L368.5275 308.85626L368.5275 314.41876L369.68375 314.41876L369.68375 315.3875L368.5275 315.3875L368.5275 317.45L367.465 317.45ZM367.465 314.41876L367.465 310.5594L364.7775 314.41876L367.465 314.41876Z" fill-rule="nonzero"/><path fill="#000000" d="M471.27 315.2L472.37936 315.10626Q472.50436 315.91876 472.94186 316.325Q473.395 316.73126 474.0356 316.73126Q474.7856 316.73126 475.31686 316.15314Q475.8481 315.575 475.8481 314.6375Q475.8481 313.73126 475.3325 313.21564Q474.8325 312.6844 474.00436 312.6844Q473.50436 312.6844 473.0825 312.91876Q472.67624 313.15314 472.44186 313.5125L471.4575 313.3875L472.2856 308.98126L476.56686 308.98126L476.56686 309.98126L473.12936 309.98126L472.67624 312.29376Q473.44186 311.7469 474.2856 311.7469Q475.4106 311.7469 476.17624 312.52814Q476.9575 313.3094 476.9575 314.54376Q476.9575 315.7 476.2856 316.5594Q475.4575 317.59064 474.0356 317.59064Q472.86374 317.59064 472.11374 316.9344Q471.37936 316.27814 471.27 315.2Z" fill-rule="nonzero"/><path fill="#000000" d="M583.91876 310.96564L582.8719 311.04376Q582.73126 310.41876 582.48126 310.1375Q582.04376 309.6844 581.41876 309.6844Q580.91876 309.6844 580.52814 309.96564Q580.04376 310.34064 579.7469 311.04376Q579.46564 311.73126 579.45 313.0125Q579.825 312.4344 580.3719 312.15314Q580.9344 311.8719 581.54376 311.8719Q582.59064 311.8719 583.325 312.65314Q584.075 313.4344 584.075 314.65314Q584.075 315.46564 583.71564 316.16876Q583.3719 316.85626 582.7625 317.23126Q582.15314 317.59064 581.3875 317.59064Q580.0594 317.59064 579.23126 316.6219Q578.40314 315.65314 578.40314 313.4344Q578.40314 310.9344 579.325 309.8094Q580.1219 308.825 581.48126 308.825Q582.4969 308.825 583.1375 309.40314Q583.79376 309.96564 583.91876 310.96564ZM579.6219 314.66876Q579.6219 315.21564 579.84064 315.71564Q580.075 316.2 580.48126 316.46564Q580.90314 316.73126 581.3719 316.73126Q582.02814 316.73126 582.5125 316.2Q582.9969 315.65314 582.9969 314.73126Q582.9969 313.84064 582.5125 313.325Q582.04376 312.8094 581.325 312.8094Q580.60626 312.8094 580.10626 313.325Q579.6219 313.84064 579.6219 314.66876Z" fill-rule="nonzero"/><path stroke="#4285f4" stroke-width="4.0" stroke-linecap="butt" d="M145.0 85.916664L157.0 85.916664" fill-rule="nonzero"/><path fill="#1a1a1a" d="M172.4375 88.99479Q173.23438 89.541664 173.89062 89.791664L173.5625 90.58854Q172.64062 90.24479 171.71875 89.52604Q170.76562 90.05729 169.60938 90.05729Q168.4375 90.05729 167.48438 89.49479Q166.54688 88.93229 166.03125 87.916664Q165.51562 86.90104 165.51562 85.61979Q165.51562 84.354164 166.03125 83.30729Q166.54688 82.260414 167.5 81.71354Q168.45312 81.166664 169.625 81.166664Q170.8125 81.166664 171.76562 81.74479Q172.73438 82.30729 173.23438 83.322914Q173.73438 84.33854 173.73438 85.61979Q173.73438 86.68229 173.40625 87.52604Q173.09375 88.36979 172.4375 88.99479ZM169.9375 87.541664Q170.92188 87.822914 171.5625 88.36979Q172.5625 87.447914 172.5625 85.61979Q172.5625 84.572914 172.20312 83.791664Q171.84375 83.010414 171.15625 82.58854Q170.48438 82.15104 169.64062 82.15104Q168.35938 82.15104 167.51562 83.02604Q166.6875 83.885414 166.6875 85.61979Q166.6875 87.291664 167.51562 88.197914Q168.34375 89.08854 169.64062 89.08854Q170.25 89.08854 170.78125 88.854164Q170.25 88.510414 169.65625 88.36979L169.9375 87.541664ZM178.875 89.916664L178.875 88.99479Q178.14062 90.05729 176.89062 90.05729Q176.34375 90.05729 175.85938 89.854164Q175.39062 89.635414 175.15625 89.322914Q174.92188 88.99479 174.82812 88.52604Q174.76562 88.229164 174.76562 87.541664L174.76562 83.697914L175.82812 83.697914L175.82812 87.15104Q175.82812 87.96354 175.89062 88.260414Q175.98438 88.666664 176.29688 88.916664Q176.625 89.15104 177.10938 89.15104Q177.57812 89.15104 177.98438 88.916664Q178.40625 88.666664 178.57812 88.24479Q178.76562 87.822914 178.76562 87.02604L178.76562 83.697914L179.8125 83.697914L179.8125 89.916664L178.875 89.916664ZM185.85938 89.15104Q185.26562 89.65104 184.71875 89.854164Q184.1875 90.05729 183.5625 90.05729Q182.53125 90.05729 181.98438 89.55729Q181.4375 89.05729 181.4375 88.27604Q181.4375 87.822914 181.64062 87.447914Q181.84375 87.05729 182.1875 86.83854Q182.53125 86.604164 182.95312 86.49479Q183.25 86.40104 183.89062 86.322914Q185.15625 86.18229 185.76562 85.96354Q185.76562 85.74479 185.76562 85.697914Q185.76562 85.041664 185.46875 84.77604Q185.0625 84.43229 184.26562 84.43229Q183.53125 84.43229 183.17188 84.697914Q182.8125 84.947914 182.64062 85.604164L181.60938 85.46354Q181.75 84.80729 182.07812 84.40104Q182.40625 83.99479 183.01562 83.77604Q183.625 83.55729 184.42188 83.55729Q185.21875 83.55729 185.71875 83.74479Q186.21875 83.93229 186.45312 84.21354Q186.6875 84.49479 186.78125 84.93229Q186.82812 85.197914 186.82812 85.90104L186.82812 87.30729Q186.82812 88.77604 186.89062 89.166664Q186.96875 89.55729 187.17188 89.916664L186.0625 89.916664Q185.90625 89.58854 185.85938 89.15104ZM185.76562 86.791664Q185.1875 87.02604 184.04688 87.197914Q183.39062 87.291664 183.125 87.416664Q182.85938 87.52604 182.70312 87.74479Q182.5625 87.96354 182.5625 88.24479Q182.5625 88.666664 182.875 88.947914Q183.20312 89.229164 183.8125 89.229164Q184.42188 89.229164 184.89062 88.96354Q185.375 88.697914 185.59375 88.229164Q185.76562 87.86979 185.76562 87.18229L185.76562 86.791664ZM188.76562 89.916664L188.76562 81.322914L189.82812 81.322914L189.82812 89.916664L188.76562 89.916664ZM191.79688 82.541664L191.79688 81.322914L192.85938 81.322914L192.85938 82.541664L191.79688 82.541664ZM191.79688 89.916664L191.79688 83.697914L192.85938 83.697914L192.85938 89.916664L191.79688 89.916664ZM198.82812 89.916664L198.82812 89.135414Q198.23438 90.05729 197.09375 90.05729Q196.34375 90.05729 195.71875 89.65104Q195.09375 89.229164 194.75 88.49479Q194.40625 87.760414 194.40625 86.80729Q194.40625 85.885414 194.71875 85.11979Q195.03125 84.354164 195.65625 83.96354Q196.28125 83.55729 197.04688 83.55729Q197.60938 83.55729 198.04688 83.791664Q198.48438 84.02604 198.76562 84.40104L198.76562 81.322914L199.8125 81.322914L199.8125 89.916664L198.82812 89.916664ZM195.5 86.80729Q195.5 88.010414 196.0 88.604164Q196.5 89.18229 197.1875 89.18229Q197.875 89.18229 198.35938 88.61979Q198.84375 88.05729 198.84375 86.90104Q198.84375 85.61979 198.34375 85.02604Q197.85938 84.43229 197.14062 84.43229Q196.4375 84.43229 195.96875 85.010414Q195.5 85.572914 195.5 86.80729ZM205.85938 89.15104Q205.26562 89.65104 204.71875 89.854164Q204.1875 90.05729 203.5625 90.05729Q202.53125 90.05729 201.98438 89.55729Q201.4375 89.05729 201.4375 88.27604Q201.4375 87.822914 201.64062 87.447914Q201.84375 87.05729 202.1875 86.83854Q202.53125 86.604164 202.95312 86.49479Q203.25 86.40104 203.89062 86.322914Q205.15625 86.18229 205.76562 85.96354Q205.76562 85.74479 205.76562 85.697914Q205.76562 85.041664 205.46875 84.77604Q205.0625 84.43229 204.26562 84.43229Q203.53125 84.43229 203.17188 84.697914Q202.8125 84.947914 202.64062 85.604164L201.60938 85.46354Q201.75 84.80729 202.07812 84.40104Q202.40625 83.99479 203.01562 83.77604Q203.625 83.55729 204.42188 83.55729Q205.21875 83.55729 205.71875 83.74479Q206.21875 83.93229 206.45312 84.21354Q206.6875 84.49479 206.78125 84.93229Q206.82812 85.197914 206.82812 85.90104L206.82812 87.30729Q206.82812 88.77604 206.89062 89.166664Q206.96875 89.55729 207.17188 89.916664L206.0625 89.916664Q205.90625 89.58854 205.85938 89.15104ZM205.76562 86.791664Q205.1875 87.02604 204.04688 87.197914Q203.39062 87.291664 203.125 87.416664Q202.85938 87.52604 202.70312 87.74479Q202.5625 87.96354 202.5625 88.24479Q202.5625 88.666664 202.875 88.947914Q203.20312 89.229164 203.8125 89.229164Q204.42188 89.229164 204.89062 88.96354Q205.375 88.697914 205.59375 88.229164Q205.76562 87.86979 205.76562 87.18229L205.76562 86.791664ZM212.82812 89.916664L212.82812 89.135414Q212.23438 90.05729 211.09375 90.05729Q210.34375 90.05729 209.71875 89.65104Q209.09375 89.229164 208.75 88.49479Q208.40625 87.760414 208.40625 86.80729Q208.40625 85.885414 208.71875 85.11979Q209.03125 84.354164 209.65625 83.96354Q210.28125 83.55729 211.04688 83.55729Q211.60938 83.55729 212.04688 83.791664Q212.48438 84.02604 212.76562 84.40104L212.76562 81.322914L213.8125 81.322914L213.8125 89.916664L212.82812 89.916664ZM209.5 86.80729Q209.5 88.010414 210.0 88.604164Q210.5 89.18229 211.1875 89.18229Q211.875 89.18229 212.35938 88.61979Q212.84375 88.05729 212.84375 86.90104Q212.84375 85.61979 212.34375 85.02604Q211.85938 84.43229 211.14062 84.43229Q210.4375 84.43229 209.96875 85.010414Q209.5 85.572914 209.5 86.80729ZM220.04688 87.916664L221.14062 88.041664Q220.89062 88.99479 220.1875 89.52604Q219.48438 90.05729 218.40625 90.05729Q217.04688 90.05729 216.23438 89.21354Q215.4375 88.36979 215.4375 86.854164Q215.4375 85.291664 216.25 84.43229Q217.0625 83.55729 218.34375 83.55729Q219.59375 83.55729 220.375 84.40104Q221.17188 85.24479 221.17188 86.791664Q221.17188 86.885414 221.17188 87.072914L216.53125 87.072914Q216.59375 88.104164 217.10938 88.65104Q217.625 89.18229 218.40625 89.18229Q218.98438 89.18229 219.39062 88.885414Q219.8125 88.572914 220.04688 87.916664ZM216.59375 86.21354L220.0625 86.21354Q220.0 85.416664 219.67188 85.02604Q219.15625 84.416664 218.35938 84.416664Q217.625 84.416664 217.125 84.90104Q216.64062 85.385414 216.59375 86.21354ZM226.125 89.916664L226.125 81.322914L227.25 81.322914L227.25 89.916664L226.125 89.916664ZM228.79688 89.916664L228.79688 83.697914L229.73438 83.697914L229.73438 84.572914Q230.42188 83.55729 231.71875 83.55729Q232.28125 83.55729 232.75 83.760414Q233.23438 83.96354 233.46875 84.291664Q233.70312 84.61979 233.79688 85.05729Q233.84375 85.354164 233.84375 86.08854L233.84375 89.916664L232.79688 89.916664L232.79688 86.135414Q232.79688 85.479164 232.67188 85.166664Q232.54688 84.854164 232.23438 84.666664Q231.92188 84.46354 231.5 84.46354Q230.82812 84.46354 230.32812 84.90104Q229.84375 85.322914 229.84375 86.510414L229.84375 89.916664L228.79688 89.916664ZM238.09375 88.979164L238.25 89.90104Q237.79688 89.99479 237.45312 89.99479Q236.875 89.99479 236.5625 89.822914Q236.25 89.635414 236.10938 89.33854Q235.98438 89.041664 235.98438 88.08854L235.98438 84.510414L235.21875 84.510414L235.21875 83.697914L235.98438 83.697914L235.98438 82.15104L237.03125 81.52604L237.03125 83.697914L238.09375 83.697914L238.09375 84.510414L237.03125 84.510414L237.03125 88.15104Q237.03125 88.604164 237.07812 88.729164Q237.14062 88.854164 237.26562 88.93229Q237.39062 89.010414 237.625 89.010414Q237.8125 89.010414 238.09375 88.979164ZM243.04688 87.916664L244.14062 88.041664Q243.89062 88.99479 243.1875 89.52604Q242.48438 90.05729 241.40625 90.05729Q240.04688 90.05729 239.23438 89.21354Q238.4375 88.36979 238.4375 86.854164Q238.4375 85.291664 239.25 84.43229Q240.0625 83.55729 241.34375 83.55729Q242.59375 83.55729 243.375 84.40104Q244.17188 85.24479 244.17188 86.791664Q244.17188 86.885414 244.17188 87.072914L239.53125 87.072914Q239.59375 88.104164 240.10938 88.65104Q240.625 89.18229 241.40625 89.18229Q241.98438 89.18229 242.39062 88.885414Q242.8125 88.572914 243.04688 87.916664ZM239.59375 86.21354L243.0625 86.21354Q243.0 85.416664 242.67188 85.02604Q242.15625 84.416664 241.35938 84.416664Q240.625 84.416664 240.125 84.90104Q239.64062 85.385414 239.59375 86.21354ZM245.78125 89.916664L245.78125 83.697914L246.73438 83.697914L246.73438 84.635414Q247.09375 83.979164 247.39062 83.77604Q247.70312 83.55729 248.07812 83.55729Q248.60938 83.55729 249.15625 83.885414L248.79688 84.86979Q248.40625 84.635414 248.03125 84.635414Q247.67188 84.635414 247.39062 84.854164Q247.125 85.05729 247.01562 85.43229Q246.82812 85.99479 246.82812 86.65104L246.82812 89.916664L245.78125 89.916664ZM249.79688 89.916664L249.79688 83.697914L250.73438 83.697914L250.73438 84.572914Q251.42188 83.55729 252.71875 83.55729Q253.28125 83.55729 253.75 83.760414Q254.23438 83.96354 254.46875 84.291664Q254.70312 84.61979 254.79688 85.05729Q254.84375 85.354164 254.84375 86.08854L254.84375 89.916664L253.79688 89.916664L253.79688 86.135414Q253.79688 85.479164 253.67188 85.166664Q253.54688 84.854164 253.23438 84.666664Q252.92188 84.46354 252.5 84.46354Q251.82812 84.46354 251.32812 84.90104Q250.84375 85.322914 250.84375 86.510414L250.84375 89.916664L249.79688 89.916664ZM260.85938 89.15104Q260.26562 89.65104 259.71875 89.854164Q259.1875 90.05729 258.5625 90.05729Q257.53125 90.05729 256.98438 89.55729Q256.4375 89.05729 256.4375 88.27604Q256.4375 87.822914 256.64062 87.447914Q256.84375 87.05729 257.1875 86.83854Q257.53125 86.604164 257.95312 86.49479Q258.25 86.40104 258.89062 86.322914Q260.15625 86.18229 260.76562 85.96354Q260.76562 85.74479 260.76562 85.697914Q260.76562 85.041664 260.46875 84.77604Q260.0625 84.43229 259.26562 84.43229Q258.53125 84.43229 258.17188 84.697914Q257.8125 84.947914 257.64062 85.604164L256.60938 85.46354Q256.75 84.80729 257.07812 84.40104Q257.40625 83.99479 258.01562 83.77604Q258.625 83.55729 259.42188 83.55729Q260.21875 83.55729 260.71875 83.74479Q261.21875 83.93229 261.45312 84.21354Q261.6875 84.49479 261.78125 84.93229Q261.82812 85.197914 261.82812 85.90104L261.82812 87.30729Q261.82812 88.77604 261.89062 89.166664Q261.96875 89.55729 262.17188 89.916664L261.0625 89.916664Q260.90625 89.58854 260.85938 89.15104ZM260.76562 86.791664Q260.1875 87.02604 259.04688 87.197914Q258.39062 87.291664 258.125 87.416664Q257.85938 87.52604 257.70312 87.74479Q257.5625 87.96354 257.5625 88.24479Q257.5625 88.666664 257.875 88.947914Q258.20312 89.229164 258.8125 89.229164Q259.42188 89.229164 259.89062 88.96354Q260.375 88.697914 260.59375 88.229164Q260.76562 87.86979 260.76562 87.18229L260.76562 86.791664ZM271.04688 87.916664L272.14062 88.041664Q271.89062 88.99479 271.1875 89.52604Q270.48438 90.05729 269.40625 90.05729Q268.04688 90.05729 267.23438 89.21354Q266.4375 88.36979 266.4375 86.854164Q266.4375 85.291664 267.25 84.43229Q268.0625 83.55729 269.34375 83.55729Q270.59375 83.55729 271.375 84.40104Q272.17188 85.24479 272.17188 86.791664Q272.17188 86.885414 272.17188 87.072914L267.53125 87.072914Q267.59375 88.104164 268.10938 88.65104Q268.625 89.18229 269.40625 89.18229Q269.98438 89.18229 270.39062 88.885414Q270.8125 88.572914 271.04688 87.916664ZM267.59375 86.21354L271.0625 86.21354Q271.0 85.416664 270.67188 85.02604Q270.15625 84.416664 269.35938 84.416664Q268.625 84.416664 268.125 84.90104Q267.64062 85.385414 267.59375 86.21354ZM276.95312 89.916664L276.95312 81.322914L283.15625 81.322914L283.15625 82.33854L278.09375 82.33854L278.09375 84.96354L282.84375 84.96354L282.84375 85.979164L278.09375 85.979164L278.09375 88.90104L283.35938 88.90104L283.35938 89.916664L276.95312 89.916664ZM284.09375 89.916664L286.35938 86.68229L284.26562 83.697914L285.57812 83.697914L286.53125 85.15104Q286.79688 85.572914 286.96875 85.854164Q287.21875 85.46354 287.4375 85.166664L288.48438 83.697914L289.75 83.697914L287.59375 86.61979L289.90625 89.916664L288.625 89.916664L287.34375 87.979164L287.0 87.46354L285.35938 89.916664L284.09375 89.916664ZM293.09375 88.979164L293.25 89.90104Q292.79688 89.99479 292.45312 89.99479Q291.875 89.99479 291.5625 89.822914Q291.25 89.635414 291.10938 89.33854Q290.98438 89.041664 290.98438 88.08854L290.98438 84.510414L290.21875 84.510414L290.21875 83.697914L290.98438 83.697914L290.98438 82.15104L292.03125 81.52604L292.03125 83.697914L293.09375 83.697914L293.09375 84.510414L292.03125 84.510414L292.03125 88.15104Q292.03125 88.604164 292.07812 88.729164Q292.14062 88.854164 292.26562 88.93229Q292.39062 89.010414 292.625 89.010414Q292.8125 89.010414 293.09375 88.979164ZM298.04688 87.916664L299.14062 88.041664Q298.89062 88.99479 298.1875 89.52604Q297.48438 90.05729 296.40625 90.05729Q295.04688 90.05729 294.23438 89.21354Q293.4375 88.36979 293.4375 86.854164Q293.4375 85.291664 294.25 84.43229Q295.0625 83.55729 296.34375 83.55729Q297.59375 83.55729 298.375 84.40104Q299.17188 85.24479 299.17188 86.791664Q299.17188 86.885414 299.17188 87.072914L294.53125 87.072914Q294.59375 88.104164 295.10938 88.65104Q295.625 89.18229 296.40625 89.18229Q296.98438 89.18229 297.39062 88.885414Q297.8125 88.572914 298.04688 87.916664ZM294.59375 86.21354L298.0625 86.21354Q298.0 85.416664 297.67188 85.02604Q297.15625 84.416664 296.35938 84.416664Q295.625 84.416664 295.125 84.90104Q294.64062 85.385414 294.59375 86.21354ZM300.78125 89.916664L300.78125 83.697914L301.73438 83.697914L301.73438 84.635414Q302.09375 83.979164 302.39062 83.77604Q302.70312 83.55729 303.07812 83.55729Q303.60938 83.55729 304.15625 83.885414L303.79688 84.86979Q303.40625 84.635414 303.03125 84.635414Q302.67188 84.635414 302.39062 84.854164Q302.125 85.05729 302.01562 85.43229Q301.82812 85.99479 301.82812 86.65104L301.82812 89.916664L300.78125 89.916664ZM304.79688 89.916664L304.79688 83.697914L305.73438 83.697914L305.73438 84.572914Q306.42188 83.55729 307.71875 83.55729Q308.28125 83.55729 308.75 83.760414Q309.23438 83.96354 309.46875 84.291664Q309.70312 84.61979 309.79688 85.05729Q309.84375 85.354164 309.84375 86.08854L309.84375 89.916664L308.79688 89.916664L308.79688 86.135414Q308.79688 85.479164 308.67188 85.166664Q308.54688 84.854164 308.23438 84.666664Q307.92188 84.46354 307.5 84.46354Q306.82812 84.46354 306.32812 84.90104Q305.84375 85.322914 305.84375 86.510414L305.84375 89.916664L304.79688 89.916664ZM315.85938 89.15104Q315.26562 89.65104 314.71875 89.854164Q314.1875 90.05729 313.5625 90.05729Q312.53125 90.05729 311.98438 89.55729Q311.4375 89.05729 311.4375 88.27604Q311.4375 87.822914 311.64062 87.447914Q311.84375 87.05729 312.1875 86.83854Q312.53125 86.604164 312.95312 86.49479Q313.25 86.40104 313.89062 86.322914Q315.15625 86.18229 315.76562 85.96354Q315.76562 85.74479 315.76562 85.697914Q315.76562 85.041664 315.46875 84.77604Q315.0625 84.43229 314.26562 84.43229Q313.53125 84.43229 313.17188 84.697914Q312.8125 84.947914 312.64062 85.604164L311.60938 85.46354Q311.75 84.80729 312.07812 84.40104Q312.40625 83.99479 313.01562 83.77604Q313.625 83.55729 314.42188 83.55729Q315.21875 83.55729 315.71875 83.74479Q316.21875 83.93229 316.45312 84.21354Q316.6875 84.49479 316.78125 84.93229Q316.82812 85.197914 316.82812 85.90104L316.82812 87.30729Q316.82812 88.77604 316.89062 89.166664Q316.96875 89.55729 317.17188 89.916664L316.0625 89.916664Q315.90625 89.58854 315.85938 89.15104ZM315.76562 86.791664Q315.1875 87.02604 314.04688 87.197914Q313.39062 87.291664 313.125 87.416664Q312.85938 87.52604 312.70312 87.74479Q312.5625 87.96354 312.5625 88.24479Q312.5625 88.666664 312.875 88.947914Q313.20312 89.229164 313.8125 89.229164Q314.42188 89.229164 314.89062 88.96354Q315.375 88.697914 315.59375 88.229164Q315.76562 87.86979 315.76562 87.18229L315.76562 86.791664Z" fill-rule="nonzero"/><path stroke="#ea4335" stroke-width="4.0" stroke-linecap="butt" d="M334.0 85.916664L346.0 85.916664" fill-rule="nonzero"/><path fill="#1a1a1a" d="M354.9375 89.916664L354.9375 81.322914L358.75 81.322914Q359.90625 81.322914 360.5 81.55729Q361.09375 81.791664 361.45312 82.385414Q361.8125 82.96354 361.8125 83.666664Q361.8125 84.58854 361.21875 85.21354Q360.625 85.83854 359.39062 86.010414Q359.84375 86.229164 360.07812 86.43229Q360.57812 86.885414 361.01562 87.572914L362.51562 89.916664L361.07812 89.916664L359.95312 88.135414Q359.45312 87.354164 359.125 86.947914Q358.8125 86.541664 358.54688 86.385414Q358.29688 86.21354 358.03125 86.135414Q357.84375 86.104164 357.40625 86.104164L356.07812 86.104164L356.07812 89.916664L354.9375 89.916664ZM356.07812 85.11979L358.53125 85.11979Q359.29688 85.11979 359.73438 84.96354Q360.1875 84.791664 360.40625 84.447914Q360.64062 84.08854 360.64062 83.666664Q360.64062 83.05729 360.1875 82.666664Q359.75 82.27604 358.79688 82.27604L356.07812 82.27604L356.07812 85.11979ZM363.79688 82.541664L363.79688 81.322914L364.85938 81.322914L364.85938 82.541664L363.79688 82.541664ZM363.79688 89.916664L363.79688 83.697914L364.85938 83.697914L364.85938 89.916664L363.79688 89.916664ZM366.375 88.05729L367.40625 87.90104Q367.5 88.52604 367.89062 88.854164Q368.29688 89.18229 369.03125 89.18229Q369.75 89.18229 370.09375 88.90104Q370.45312 88.604164 370.45312 88.197914Q370.45312 87.83854 370.14062 87.635414Q369.92188 87.49479 369.0625 87.27604Q367.90625 86.979164 367.45312 86.77604Q367.01562 86.55729 366.78125 86.18229Q366.54688 85.80729 366.54688 85.33854Q366.54688 84.93229 366.73438 84.572914Q366.92188 84.21354 367.25 83.979164Q367.5 83.80729 367.92188 83.68229Q368.34375 83.55729 368.84375 83.55729Q369.5625 83.55729 370.10938 83.77604Q370.67188 83.979164 370.9375 84.33854Q371.20312 84.697914 371.29688 85.291664L370.26562 85.43229Q370.20312 84.96354 369.85938 84.697914Q369.53125 84.416664 368.90625 84.416664Q368.1875 84.416664 367.875 84.666664Q367.5625 84.90104 367.5625 85.229164Q367.5625 85.43229 367.6875 85.58854Q367.82812 85.760414 368.09375 85.86979Q368.25 85.93229 369.03125 86.135414Q370.15625 86.447914 370.59375 86.635414Q371.03125 86.822914 371.28125 87.18229Q371.53125 87.541664 371.53125 88.08854Q371.53125 88.61979 371.21875 89.08854Q370.92188 89.541664 370.34375 89.80729Q369.76562 90.05729 369.03125 90.05729Q367.8125 90.05729 367.17188 89.55729Q366.54688 89.041664 366.375 88.05729ZM376.85938 87.635414L377.89062 87.77604Q377.71875 88.83854 377.01562 89.447914Q376.3125 90.05729 375.29688 90.05729Q374.01562 90.05729 373.23438 89.229164Q372.46875 88.385414 372.46875 86.822914Q372.46875 85.822914 372.79688 85.072914Q373.14062 84.30729 373.8125 83.93229Q374.5 83.55729 375.3125 83.55729Q376.3125 83.55729 376.95312 84.072914Q377.60938 84.572914 377.79688 85.52604L376.76562 85.68229Q376.625 85.05729 376.25 84.74479Q375.875 84.416664 375.34375 84.416664Q374.54688 84.416664 374.04688 84.99479Q373.54688 85.55729 373.54688 86.791664Q373.54688 88.05729 374.03125 88.61979Q374.51562 89.18229 375.28125 89.18229Q375.90625 89.18229 376.3125 88.80729Q376.73438 88.43229 376.85938 87.635414ZM378.40625 86.80729Q378.40625 85.072914 379.35938 84.24479Q380.15625 83.55729 381.3125 83.55729Q382.59375 83.55729 383.40625 84.40104Q384.23438 85.229164 384.23438 86.71354Q384.23438 87.916664 383.875 88.604164Q383.51562 89.291664 382.8125 89.68229Q382.125 90.05729 381.3125 90.05729Q380.01562 90.05729 379.20312 89.229164Q378.40625 88.385414 378.40625 86.80729ZM379.48438 86.80729Q379.48438 87.99479 380.0 88.58854Q380.53125 89.18229 381.3125 89.18229Q382.10938 89.18229 382.625 88.58854Q383.14062 87.99479 383.14062 86.77604Q383.14062 85.61979 382.60938 85.02604Q382.09375 84.43229 381.3125 84.43229Q380.53125 84.43229 380.0 85.02604Q379.48438 85.604164 379.48438 86.80729ZM392.82812 89.916664L392.82812 89.135414Q392.23438 90.05729 391.09375 90.05729Q390.34375 90.05729 389.71875 89.65104Q389.09375 89.229164 388.75 88.49479Q388.40625 87.760414 388.40625 86.80729Q388.40625 85.885414 388.71875 85.11979Q389.03125 84.354164 389.65625 83.96354Q390.28125 83.55729 391.04688 83.55729Q391.60938 83.55729 392.04688 83.791664Q392.48438 84.02604 392.76562 84.40104L392.76562 81.322914L393.8125 81.322914L393.8125 89.916664L392.82812 89.916664ZM389.5 86.80729Q389.5 88.010414 390.0 88.604164Q390.5 89.18229 391.1875 89.18229Q391.875 89.18229 392.35938 88.61979Q392.84375 88.05729 392.84375 86.90104Q392.84375 85.61979 392.34375 85.02604Q391.85938 84.43229 391.14062 84.43229Q390.4375 84.43229 389.96875 85.010414Q389.5 85.572914 389.5 86.80729ZM400.04688 87.916664L401.14062 88.041664Q400.89062 88.99479 400.1875 89.52604Q399.48438 90.05729 398.40625 90.05729Q397.04688 90.05729 396.23438 89.21354Q395.4375 88.36979 395.4375 86.854164Q395.4375 85.291664 396.25 84.43229Q397.0625 83.55729 398.34375 83.55729Q399.59375 83.55729 400.375 84.40104Q401.17188 85.24479 401.17188 86.791664Q401.17188 86.885414 401.17188 87.072914L396.53125 87.072914Q396.59375 88.104164 397.10938 88.65104Q397.625 89.18229 398.40625 89.18229Q398.98438 89.18229 399.39062 88.885414Q399.8125 88.572914 400.04688 87.916664ZM396.59375 86.21354L400.0625 86.21354Q400.0 85.416664 399.67188 85.02604Q399.15625 84.416664 398.35938 84.416664Q397.625 84.416664 397.125 84.90104Q396.64062 85.385414 396.59375 86.21354ZM405.98438 89.916664L405.98438 81.322914L411.78125 81.322914L411.78125 82.33854L407.125 82.33854L407.125 84.99479L411.15625 84.99479L411.15625 86.010414L407.125 86.010414L407.125 89.916664L405.98438 89.916664ZM412.78125 89.916664L412.78125 83.697914L413.73438 83.697914L413.73438 84.635414Q414.09375 83.979164 414.39062 83.77604Q414.70312 83.55729 415.07812 83.55729Q415.60938 83.55729 416.15625 83.885414L415.79688 84.86979Q415.40625 84.635414 415.03125 84.635414Q414.67188 84.635414 414.39062 84.854164Q414.125 85.05729 414.01562 85.43229Q413.82812 85.99479 413.82812 86.65104L413.82812 89.916664L412.78125 89.916664ZM420.85938 89.15104Q420.26562 89.65104 419.71875 89.854164Q419.1875 90.05729 418.5625 90.05729Q417.53125 90.05729 416.98438 89.55729Q416.4375 89.05729 416.4375 88.27604Q416.4375 87.822914 416.64062 87.447914Q416.84375 87.05729 417.1875 86.83854Q417.53125 86.604164 417.95312 86.49479Q418.25 86.40104 418.89062 86.322914Q420.15625 86.18229 420.76562 85.96354Q420.76562 85.74479 420.76562 85.697914Q420.76562 85.041664 420.46875 84.77604Q420.0625 84.43229 419.26562 84.43229Q418.53125 84.43229 418.17188 84.697914Q417.8125 84.947914 417.64062 85.604164L416.60938 85.46354Q416.75 84.80729 417.07812 84.40104Q417.40625 83.99479 418.01562 83.77604Q418.625 83.55729 419.42188 83.55729Q420.21875 83.55729 420.71875 83.74479Q421.21875 83.93229 421.45312 84.21354Q421.6875 84.49479 421.78125 84.93229Q421.82812 85.197914 421.82812 85.90104L421.82812 87.30729Q421.82812 88.77604 421.89062 89.166664Q421.96875 89.55729 422.17188 89.916664L421.0625 89.916664Q420.90625 89.58854 420.85938 89.15104ZM420.76562 86.791664Q420.1875 87.02604 419.04688 87.197914Q418.39062 87.291664 418.125 87.416664Q417.85938 87.52604 417.70312 87.74479Q417.5625 87.96354 417.5625 88.24479Q417.5625 88.666664 417.875 88.947914Q418.20312 89.229164 418.8125 89.229164Q419.42188 89.229164 419.89062 88.96354Q420.375 88.697914 420.59375 88.229164Q420.76562 87.86979 420.76562 87.18229L420.76562 86.791664ZM427.85938 87.635414L428.89062 87.77604Q428.71875 88.83854 428.01562 89.447914Q427.3125 90.05729 426.29688 90.05729Q425.01562 90.05729 424.23438 89.229164Q423.46875 88.385414 423.46875 86.822914Q423.46875 85.822914 423.79688 85.072914Q424.14062 84.30729 424.8125 83.93229Q425.5 83.55729 426.3125 83.55729Q427.3125 83.55729 427.95312 84.072914Q428.60938 84.572914 428.79688 85.52604L427.76562 85.68229Q427.625 85.05729 427.25 84.74479Q426.875 84.416664 426.34375 84.416664Q425.54688 84.416664 425.04688 84.99479Q424.54688 85.55729 424.54688 86.791664Q424.54688 88.05729 425.03125 88.61979Q425.51562 89.18229 426.28125 89.18229Q426.90625 89.18229 427.3125 88.80729Q427.73438 88.43229 427.85938 87.635414ZM433.85938 89.15104Q433.26562 89.65104 432.71875 89.854164Q432.1875 90.05729 431.5625 90.05729Q430.53125 90.05729 429.98438 89.55729Q429.4375 89.05729 429.4375 88.27604Q429.4375 87.822914 429.64062 87.447914Q429.84375 87.05729 430.1875 86.83854Q430.53125 86.604164 430.95312 86.49479Q431.25 86.40104 431.89062 86.322914Q433.15625 86.18229 433.76562 85.96354Q433.76562 85.74479 433.76562 85.697914Q433.76562 85.041664 433.46875 84.77604Q433.0625 84.43229 432.26562 84.43229Q431.53125 84.43229 431.17188 84.697914Q430.8125 84.947914 430.64062 85.604164L429.60938 85.46354Q429.75 84.80729 430.07812 84.40104Q430.40625 83.99479 431.01562 83.77604Q431.625 83.55729 432.42188 83.55729Q433.21875 83.55729 433.71875 83.74479Q434.21875 83.93229 434.45312 84.21354Q434.6875 84.49479 434.78125 84.93229Q434.82812 85.197914 434.82812 85.90104L434.82812 87.30729Q434.82812 88.77604 434.89062 89.166664Q434.96875 89.55729 435.17188 89.916664L434.0625 89.916664Q433.90625 89.58854 433.85938 89.15104ZM433.76562 86.791664Q433.1875 87.02604 432.04688 87.197914Q431.39062 87.291664 431.125 87.416664Q430.85938 87.52604 430.70312 87.74479Q430.5625 87.96354 430.5625 88.24479Q430.5625 88.666664 430.875 88.947914Q431.20312 89.229164 431.8125 89.229164Q432.42188 89.229164 432.89062 88.96354Q433.375 88.697914 433.59375 88.229164Q433.76562 87.86979 433.76562 87.18229L433.76562 86.791664ZM436.375 88.05729L437.40625 87.90104Q437.5 88.52604 437.89062 88.854164Q438.29688 89.18229 439.03125 89.18229Q439.75 89.18229 440.09375 88.90104Q440.45312 88.604164 440.45312 88.197914Q440.45312 87.83854 440.14062 87.635414Q439.92188 87.49479 439.0625 87.27604Q437.90625 86.979164 437.45312 86.77604Q437.01562 86.55729 436.78125 86.18229Q436.54688 85.80729 436.54688 85.33854Q436.54688 84.93229 436.73438 84.572914Q436.92188 84.21354 437.25 83.979164Q437.5 83.80729 437.92188 83.68229Q438.34375 83.55729 438.84375 83.55729Q439.5625 83.55729 440.10938 83.77604Q440.67188 83.979164 440.9375 84.33854Q441.20312 84.697914 441.29688 85.291664L440.26562 85.43229Q440.20312 84.96354 439.85938 84.697914Q439.53125 84.416664 438.90625 84.416664Q438.1875 84.416664 437.875 84.666664Q437.5625 84.90104 437.5625 85.229164Q437.5625 85.43229 437.6875 85.58854Q437.82812 85.760414 438.09375 85.86979Q438.25 85.93229 439.03125 86.135414Q440.15625 86.447914 440.59375 86.635414Q441.03125 86.822914 441.28125 87.18229Q441.53125 87.541664 441.53125 88.08854Q441.53125 88.61979 441.21875 89.08854Q440.92188 89.541664 440.34375 89.80729Q439.76562 90.05729 439.03125 90.05729Q437.8125 90.05729 437.17188 89.55729Q436.54688 89.041664 436.375 88.05729ZM442.375 88.05729L443.40625 87.90104Q443.5 88.52604 443.89062 88.854164Q444.29688 89.18229 445.03125 89.18229Q445.75 89.18229 446.09375 88.90104Q446.45312 88.604164 446.45312 88.197914Q446.45312 87.83854 446.14062 87.635414Q445.92188 87.49479 445.0625 87.27604Q443.90625 86.979164 443.45312 86.77604Q443.01562 86.55729 442.78125 86.18229Q442.54688 85.80729 442.54688 85.33854Q442.54688 84.93229 442.73438 84.572914Q442.92188 84.21354 443.25 83.979164Q443.5 83.80729 443.92188 83.68229Q444.34375 83.55729 444.84375 83.55729Q445.5625 83.55729 446.10938 83.77604Q446.67188 83.979164 446.9375 84.33854Q447.20312 84.697914 447.29688 85.291664L446.26562 85.43229Q446.20312 84.96354 445.85938 84.697914Q445.53125 84.416664 444.90625 84.416664Q444.1875 84.416664 443.875 84.666664Q443.5625 84.90104 443.5625 85.229164Q443.5625 85.43229 443.6875 85.58854Q443.82812 85.760414 444.09375 85.86979Q444.25 85.93229 445.03125 86.135414Q446.15625 86.447914 446.59375 86.635414Q447.03125 86.822914 447.28125 87.18229Q447.53125 87.541664 447.53125 88.08854Q447.53125 88.61979 447.21875 89.08854Q446.92188 89.541664 446.34375 89.80729Q445.76562 90.05729 445.03125 90.05729Q443.8125 90.05729 443.17188 89.55729Q442.54688 89.041664 442.375 88.05729ZM448.40625 86.80729Q448.40625 85.072914 449.35938 84.24479Q450.15625 83.55729 451.3125 83.55729Q452.59375 83.55729 453.40625 84.40104Q454.23438 85.229164 454.23438 86.71354Q454.23438 87.916664 453.875 88.604164Q453.51562 89.291664 452.8125 89.68229Q452.125 90.05729 451.3125 90.05729Q450.01562 90.05729 449.20312 89.229164Q448.40625 88.385414 448.40625 86.80729ZM449.48438 86.80729Q449.48438 87.99479 450.0 88.58854Q450.53125 89.18229 451.3125 89.18229Q452.10938 89.18229 452.625 88.58854Q453.14062 87.99479 453.14062 86.77604Q453.14062 85.61979 452.60938 85.02604Q452.09375 84.43229 451.3125 84.43229Q450.53125 84.43229 450.0 85.02604Q449.48438 85.604164 449.48438 86.80729Z" fill-rule="nonzero"/><path fill="#757575" d="M20.128124 37.55L20.128124 23.2375L26.471874 23.2375Q28.378124 23.2375 29.378124 23.628124Q30.378124 24.003124 30.971874 24.9875Q31.565624 25.95625 31.565624 27.14375Q31.565624 28.659374 30.58125 29.70625Q29.596874 30.753124 27.534374 31.034374Q28.284374 31.39375 28.675 31.753124Q29.503124 32.503124 30.253124 33.659374L32.7375 37.55L30.3625 37.55L28.45625 34.565624Q27.628124 33.284374 27.096874 32.596874Q26.565624 31.909374 26.128124 31.64375Q25.70625 31.3625 25.26875 31.253124Q24.940624 31.190624 24.221874 31.190624L22.01875 31.190624L22.01875 37.55L20.128124 37.55ZM22.01875 29.55L26.096874 29.55Q27.39375 29.55 28.1125 29.284374Q28.846874 29.01875 29.221874 28.425Q29.6125 27.83125 29.6125 27.14375Q29.6125 26.128124 28.878124 25.471874Q28.14375 24.815624 26.55 24.815624L22.01875 24.815624L22.01875 29.55ZM33.878124 25.253124L33.878124 23.2375L35.64375 23.2375L35.64375 25.253124L33.878124 25.253124ZM33.878124 37.55L33.878124 27.175L35.64375 27.175L35.64375 37.55L33.878124 37.55ZM37.159374 34.45625L38.909374 34.175Q39.05 35.221874 39.721874 35.784374Q40.39375 36.33125 41.596874 36.33125Q42.8 36.33125 43.378124 35.846874Q43.971874 35.346874 43.971874 34.690624Q43.971874 34.096874 43.45625 33.753124Q43.096874 33.51875 41.659374 33.159374Q39.721874 32.659374 38.971874 32.315624Q38.2375 31.95625 37.846874 31.33125Q37.45625 30.690624 37.45625 29.925Q37.45625 29.2375 37.76875 28.64375Q38.096874 28.05 38.64375 27.659374Q39.05 27.3625 39.753124 27.159374Q40.471874 26.940624 41.284374 26.940624Q42.503124 26.940624 43.425 27.3Q44.346874 27.64375 44.784374 28.253124Q45.221874 28.846874 45.39375 29.846874L43.675 30.08125Q43.55 29.284374 42.9875 28.846874Q42.425 28.39375 41.409374 28.39375Q40.190624 28.39375 39.675 28.8Q39.159374 29.190624 39.159374 29.721874Q39.159374 30.065624 39.378124 30.346874Q39.58125 30.628124 40.05 30.815624Q40.315624 30.909374 41.596874 31.253124Q43.471874 31.753124 44.20625 32.08125Q44.940624 32.39375 45.3625 33.003124Q45.784374 33.596874 45.784374 34.503124Q45.784374 35.378124 45.26875 36.159374Q44.753124 36.940624 43.784374 37.3625Q42.815624 37.784374 41.596874 37.784374Q39.58125 37.784374 38.51875 36.940624Q37.45625 36.096874 37.159374 34.45625ZM54.64375 33.753124L56.3625 33.971874Q56.08125 35.76875 54.909374 36.784374Q53.753124 37.784374 52.05 37.784374Q49.925 37.784374 48.628124 36.39375Q47.33125 35.003124 47.33125 32.409374Q47.33125 30.721874 47.878124 29.471874Q48.440624 28.20625 49.58125 27.58125Q50.721874 26.940624 52.065624 26.940624Q53.753124 26.940624 54.815624 27.8Q55.89375 28.659374 56.20625 30.221874L54.4875 30.4875Q54.253124 29.440624 53.628124 28.925Q53.003124 28.39375 52.128124 28.39375Q50.8 28.39375 49.971874 29.346874Q49.14375 30.3 49.14375 32.346874Q49.14375 34.440624 49.940624 35.39375Q50.7375 36.33125 52.034374 36.33125Q53.065624 36.33125 53.753124 35.70625Q54.45625 35.065624 54.64375 33.753124ZM57.221874 32.3625Q57.221874 29.4875 58.815624 28.096874Q60.159374 26.940624 62.08125 26.940624Q64.22188 26.940624 65.56563 28.346874Q66.925 29.753124 66.925 32.221874Q66.925 34.221874 66.33125 35.378124Q65.7375 36.51875 64.58125 37.159374Q63.440624 37.784374 62.08125 37.784374Q59.89375 37.784374 58.55 36.39375Q57.221874 34.9875 57.221874 32.3625ZM59.01875 32.3625Q59.01875 34.3625 59.878124 35.346874Q60.753124 36.33125 62.08125 36.33125Q63.39375 36.33125 64.25313 35.346874Q65.12813 34.346874 65.12813 32.3Q65.12813 30.378124 64.25313 29.39375Q63.378124 28.39375 62.08125 28.39375Q60.753124 28.39375 59.878124 29.39375Q59.01875 30.378124 59.01875 32.3625ZM81.59688 37.55L81.59688 36.2375Q80.6125 37.784374 78.69063 37.784374Q77.45625 37.784374 76.40938 37.096874Q75.37813 36.409374 74.8 35.190624Q74.2375 33.971874 74.2375 32.378124Q74.2375 30.815624 74.75313 29.55Q75.26875 28.284374 76.3 27.6125Q77.34688 26.940624 78.6125 26.940624Q79.55 26.940624 80.28438 27.346874Q81.01875 27.7375 81.4875 28.3625L81.4875 23.2375L83.22188 23.2375L83.22188 37.55L81.59688 37.55ZM76.03438 32.378124Q76.03438 34.3625 76.87813 35.346874Q77.72188 36.33125 78.8625 36.33125Q80.01875 36.33125 80.81563 35.39375Q81.62813 34.45625 81.62813 32.51875Q81.62813 30.39375 80.8 29.39375Q79.9875 28.39375 78.78438 28.39375Q77.6125 28.39375 76.81563 29.3625Q76.03438 30.315624 76.03438 32.378124ZM92.97188 34.20625L94.78438 34.440624Q94.3625 36.01875 93.19063 36.909374Q92.03438 37.784374 90.22188 37.784374Q87.95625 37.784374 86.6125 36.39375Q85.28438 34.9875 85.28438 32.45625Q85.28438 29.83125 86.62813 28.39375Q87.97188 26.940624 90.12813 26.940624Q92.20625 26.940624 93.51875 28.3625Q94.84688 29.76875 94.84688 32.346874Q94.84688 32.503124 94.83125 32.815624L87.09688 32.815624Q87.19063 34.51875 88.06563 35.425Q88.94063 36.33125 90.2375 36.33125Q91.20625 36.33125 91.87813 35.83125Q92.56563 35.315624 92.97188 34.20625ZM87.19063 31.3625L92.9875 31.3625Q92.87813 30.065624 92.33125 29.409374Q91.4875 28.39375 90.14375 28.39375Q88.94063 28.39375 88.1125 29.20625Q87.28438 30.003124 87.19063 31.3625ZM103.19063 37.55L103.19063 23.2375L112.84688 23.2375L112.84688 24.925L105.08125 24.925L105.08125 29.3625L111.8 29.3625L111.8 31.05L105.08125 31.05L105.08125 37.55L103.19063 37.55ZM114.84688 37.55L114.84688 27.175L116.425 27.175L116.425 28.753124Q117.03438 27.64375 117.55 27.3Q118.06563 26.940624 118.675 26.940624Q119.56563 26.940624 120.4875 27.503124L119.87813 29.14375Q119.2375 28.753124 118.59688 28.753124Q118.01875 28.753124 117.55 29.1125Q117.09688 29.45625 116.89375 30.065624Q116.6125 31.003124 116.6125 32.1125L116.6125 37.55L114.84688 37.55ZM128.64375 36.26875Q127.65938 37.096874 126.75313 37.440624Q125.84688 37.784374 124.81563 37.784374Q123.1125 37.784374 122.19063 36.95625Q121.26875 36.1125 121.26875 34.815624Q121.26875 34.05 121.6125 33.425Q121.97188 32.8 122.53438 32.425Q123.09688 32.034374 123.8 31.83125Q124.31563 31.70625 125.3625 31.565624Q127.4875 31.315624 128.4875 30.971874Q128.50313 30.6125 128.50313 30.503124Q128.50313 29.440624 128.00313 28.9875Q127.33125 28.39375 126.00313 28.39375Q124.75313 28.39375 124.15938 28.83125Q123.58125 29.26875 123.3 30.378124L121.58125 30.14375Q121.81563 29.034374 122.34688 28.3625Q122.87813 27.675 123.89375 27.315624Q124.90938 26.940624 126.25313 26.940624Q127.58125 26.940624 128.40938 27.253124Q129.2375 27.565624 129.62813 28.05Q130.01875 28.51875 130.175 29.2375Q130.26875 29.690624 130.26875 30.8625L130.26875 33.20625Q130.26875 35.659374 130.37813 36.315624Q130.4875 36.95625 130.83125 37.55L128.9875 37.55Q128.72188 37.003124 128.64375 36.26875ZM128.4875 32.346874Q127.53438 32.7375 125.6125 33.003124Q124.53438 33.159374 124.08125 33.3625Q123.64375 33.55 123.39375 33.925Q123.14375 34.3 123.14375 34.76875Q123.14375 35.471874 123.675 35.940624Q124.20625 36.409374 125.2375 36.409374Q126.25313 36.409374 127.03438 35.971874Q127.83125 35.51875 128.20625 34.753124Q128.4875 34.14375 128.4875 32.9875L128.4875 32.346874ZM139.64375 33.753124L141.3625 33.971874Q141.08125 35.76875 139.90938 36.784374Q138.75313 37.784374 137.05 37.784374Q134.925 37.784374 133.62813 36.39375Q132.33125 35.003124 132.33125 32.409374Q132.33125 30.721874 132.87813 29.471874Q133.44063 28.20625 134.58125 27.58125Q135.72188 26.940624 137.06563 26.940624Q138.75313 26.940624 139.81563 27.8Q140.89375 28.659374 141.20625 30.221874L139.4875 30.4875Q139.25313 29.440624 138.62813 28.925Q138.00313 28.39375 137.12813 28.39375Q135.8 28.39375 134.97188 29.346874Q134.14375 30.3 134.14375 32.346874Q134.14375 34.440624 134.94063 35.39375Q135.7375 36.33125 137.03438 36.33125Q138.06563 36.33125 138.75313 35.70625Q139.45625 35.065624 139.64375 33.753124ZM149.64375 36.26875Q148.65938 37.096874 147.75313 37.440624Q146.84688 37.784374 145.81563 37.784374Q144.1125 37.784374 143.19063 36.95625Q142.26875 36.1125 142.26875 34.815624Q142.26875 34.05 142.6125 33.425Q142.97188 32.8 143.53438 32.425Q144.09688 32.034374 144.8 31.83125Q145.31563 31.70625 146.3625 31.565624Q148.4875 31.315624 149.4875 30.971874Q149.50313 30.6125 149.50313 30.503124Q149.50313 29.440624 149.00313 28.9875Q148.33125 28.39375 147.00313 28.39375Q145.75313 28.39375 145.15938 28.83125Q144.58125 29.26875 144.3 30.378124L142.58125 30.14375Q142.81563 29.034374 143.34688 28.3625Q143.87813 27.675 144.89375 27.315624Q145.90938 26.940624 147.25313 26.940624Q148.58125 26.940624 149.40938 27.253124Q150.2375 27.565624 150.62813 28.05Q151.01875 28.51875 151.175 29.2375Q151.26875 29.690624 151.26875 30.8625L151.26875 33.20625Q151.26875 35.659374 151.37813 36.315624Q151.4875 36.95625 151.83125 37.55L149.9875 37.55Q149.72188 37.003124 149.64375 36.26875ZM149.4875 32.346874Q148.53438 32.7375 146.6125 33.003124Q145.53438 33.159374 145.08125 33.3625Q144.64375 33.55 144.39375 33.925Q144.14375 34.3 144.14375 34.76875Q144.14375 35.471874 144.675 35.940624Q145.20625 36.409374 146.2375 36.409374Q147.25313 36.409374 148.03438 35.971874Q148.83125 35.51875 149.20625 34.753124Q149.4875 34.14375 149.4875 32.9875L149.4875 32.346874ZM153.15938 34.45625L154.90938 34.175Q155.05 35.221874 155.72188 35.784374Q156.39375 36.33125 157.59688 36.33125Q158.8 36.33125 159.37813 35.846874Q159.97188 35.346874 159.97188 34.690624Q159.97188 34.096874 159.45625 33.753124Q159.09688 33.51875 157.65938 33.159374Q155.72188 32.659374 154.97188 32.315624Q154.2375 31.95625 153.84688 31.33125Q153.45625 30.690624 153.45625 29.925Q153.45625 29.2375 153.76875 28.64375Q154.09688 28.05 154.64375 27.659374Q155.05 27.3625 155.75313 27.159374Q156.47188 26.940624 157.28438 26.940624Q158.50313 26.940624 159.425 27.3Q160.34688 27.64375 160.78438 28.253124Q161.22188 28.846874 161.39375 29.846874L159.675 30.08125Q159.55 29.284374 158.9875 28.846874Q158.425 28.39375 157.40938 28.39375Q156.19063 28.39375 155.675 28.8Q155.15938 29.190624 155.15938 29.721874Q155.15938 30.065624 155.37813 30.346874Q155.58125 30.628124 156.05 30.815624Q156.31563 30.909374 157.59688 31.253124Q159.47188 31.753124 160.20625 32.08125Q160.94063 32.39375 161.3625 33.003124Q161.78438 33.596874 161.78438 34.503124Q161.78438 35.378124 161.26875 36.159374Q160.75313 36.940624 159.78438 37.3625Q158.81563 37.784374 157.59688 37.784374Q155.58125 37.784374 154.51875 36.940624Q153.45625 36.096874 153.15938 34.45625ZM163.15938 34.45625L164.90938 34.175Q165.05 35.221874 165.72188 35.784374Q166.39375 36.33125 167.59688 36.33125Q168.8 36.33125 169.37813 35.846874Q169.97188 35.346874 169.97188 34.690624Q169.97188 34.096874 169.45625 33.753124Q169.09688 33.51875 167.65938 33.159374Q165.72188 32.659374 164.97188 32.315624Q164.2375 31.95625 163.84688 31.33125Q163.45625 30.690624 163.45625 29.925Q163.45625 29.2375 163.76875 28.64375Q164.09688 28.05 164.64375 27.659374Q165.05 27.3625 165.75313 27.159374Q166.47188 26.940624 167.28438 26.940624Q168.50313 26.940624 169.425 27.3Q170.34688 27.64375 170.78438 28.253124Q171.22188 28.846874 171.39375 29.846874L169.675 30.08125Q169.55 29.284374 168.9875 28.846874Q168.425 28.39375 167.40938 28.39375Q166.19063 28.39375 165.675 28.8Q165.15938 29.190624 165.15938 29.721874Q165.15938 30.065624 165.37813 30.346874Q165.58125 30.628124 166.05 30.815624Q166.31563 30.909374 167.59688 31.253124Q169.47188 31.753124 170.20625 32.08125Q170.94063 32.39375 171.3625 33.003124Q171.78438 33.596874 171.78438 34.503124Q171.78438 35.378124 171.26875 36.159374Q170.75313 36.940624 169.78438 37.3625Q168.81563 37.784374 167.59688 37.784374Q165.58125 37.784374 164.51875 36.940624Q163.45625 36.096874 163.15938 34.45625ZM173.22188 32.3625Q173.22188 29.4875 174.81563 28.096874Q176.15938 26.940624 178.08125 26.940624Q180.22188 26.940624 181.56563 28.346874Q182.925 29.753124 182.925 32.221874Q182.925 34.221874 182.33125 35.378124Q181.7375 36.51875 180.58125 37.159374Q179.44063 37.784374 178.08125 37.784374Q175.89375 37.784374 174.55 36.39375Q173.22188 34.9875 173.22188 32.3625ZM175.01875 32.3625Q175.01875 34.3625 175.87813 35.346874Q176.75313 36.33125 178.08125 36.33125Q179.39375 36.33125 180.25313 35.346874Q181.12813 34.346874 181.12813 32.3Q181.12813 30.378124 180.25313 29.39375Q179.37813 28.39375 178.08125 28.39375Q176.75313 28.39375 175.87813 29.39375Q175.01875 30.378124 175.01875 32.3625ZM193.75313 37.55L189.8 27.175L191.65938 27.175L193.89375 33.39375Q194.25313 34.39375 194.55 35.471874Q194.78438 34.659374 195.20625 33.503124L197.50313 27.175L199.31563 27.175L195.39375 37.55L193.75313 37.55ZM200.15938 34.45625L201.90938 34.175Q202.05 35.221874 202.72188 35.784374Q203.39375 36.33125 204.59688 36.33125Q205.8 36.33125 206.37813 35.846874Q206.97188 35.346874 206.97188 34.690624Q206.97188 34.096874 206.45625 33.753124Q206.09688 33.51875 204.65938 33.159374Q202.72188 32.659374 201.97188 32.315624Q201.2375 31.95625 200.84688 31.33125Q200.45625 30.690624 200.45625 29.925Q200.45625 29.2375 200.76875 28.64375Q201.09688 28.05 201.64375 27.659374Q202.05 27.3625 202.75313 27.159374Q203.47188 26.940624 204.28438 26.940624Q205.50313 26.940624 206.425 27.3Q207.34688 27.64375 207.78438 28.253124Q208.22188 28.846874 208.39375 29.846874L206.675 30.08125Q206.55 29.284374 205.9875 28.846874Q205.425 28.39375 204.40938 28.39375Q203.19063 28.39375 202.675 28.8Q202.15938 29.190624 202.15938 29.721874Q202.15938 30.065624 202.37813 30.346874Q202.58125 30.628124 203.05 30.815624Q203.31563 30.909374 204.59688 31.253124Q206.47188 31.753124 207.20625 32.08125Q207.94063 32.39375 208.3625 33.003124Q208.78438 33.596874 208.78438 34.503124Q208.78438 35.378124 208.26875 36.159374Q207.75313 36.940624 206.78438 37.3625Q205.81563 37.784374 204.59688 37.784374Q202.58125 37.784374 201.51875 36.940624Q200.45625 36.096874 200.15938 34.45625ZM217.40938 37.55L217.40938 23.2375L219.31563 23.2375L219.31563 37.55L217.40938 37.55ZM222.8625 37.55L222.8625 27.175L224.44063 27.175L224.44063 28.628124Q224.925 27.878124 225.7375 27.409374Q226.55 26.940624 227.58125 26.940624Q228.7375 26.940624 229.47188 27.425Q230.20625 27.89375 230.51875 28.753124Q231.75313 26.940624 233.72188 26.940624Q235.26875 26.940624 236.09688 27.8Q236.925 28.659374 236.925 30.425L236.925 37.55L235.175 37.55L235.175 31.01875Q235.175 29.95625 235.00313 29.503124Q234.83125 29.034374 234.37813 28.753124Q233.94063 28.471874 233.33125 28.471874Q232.2375 28.471874 231.50313 29.20625Q230.78438 29.925 230.78438 31.51875L230.78438 37.55L229.03438 37.55L229.03438 30.815624Q229.03438 29.64375 228.59688 29.065624Q228.175 28.471874 227.19063 28.471874Q226.45625 28.471874 225.81563 28.8625Q225.19063 29.253124 224.90938 30.003124Q224.62813 30.753124 224.62813 32.175L224.62813 37.55L222.8625 37.55ZM239.8625 41.51875L239.8625 27.175L241.47188 27.175L241.47188 28.51875Q242.03438 27.7375 242.7375 27.346874Q243.45625 26.940624 244.47188 26.940624Q245.8 26.940624 246.81563 27.628124Q247.83125 28.315624 248.34688 29.565624Q248.87813 30.8 248.87813 32.284374Q248.87813 33.878124 248.3 35.159374Q247.7375 36.425 246.64375 37.1125Q245.55 37.784374 244.34688 37.784374Q243.47188 37.784374 242.76875 37.409374Q242.08125 37.034374 241.62813 36.471874L241.62813 41.51875L239.8625 41.51875ZM241.45625 32.425Q241.45625 34.425 242.26875 35.378124Q243.08125 36.33125 244.2375 36.33125Q245.40938 36.33125 246.2375 35.346874Q247.08125 34.3625 247.08125 32.26875Q247.08125 30.3 246.25313 29.315624Q245.44063 28.315624 244.31563 28.315624Q243.19063 28.315624 242.31563 29.378124Q241.45625 30.425 241.45625 32.425ZM250.22188 32.3625Q250.22188 29.4875 251.81563 28.096874Q253.15938 26.940624 255.08125 26.940624Q257.22186 26.940624 258.5656 28.346874Q259.925 29.753124 259.925 32.221874Q259.925 34.221874 259.33124 35.378124Q258.7375 36.51875 257.58124 37.159374Q256.4406 37.784374 255.08125 37.784374Q252.89375 37.784374 251.55 36.39375Q250.22188 34.9875 250.22188 32.3625ZM252.01875 32.3625Q252.01875 34.3625 252.87813 35.346874Q253.75313 36.33125 255.08125 36.33125Q256.39374 36.33125 257.2531 35.346874Q258.1281 34.346874 258.1281 32.3Q258.1281 30.378124 257.2531 29.39375Q256.3781 28.39375 255.08125 28.39375Q253.75313 28.39375 252.87813 29.39375Q252.01875 30.378124 252.01875 32.3625ZM261.84686 37.55L261.84686 27.175L263.425 27.175L263.425 28.753124Q264.03436 27.64375 264.55 27.3Q265.0656 26.940624 265.675 26.940624Q266.5656 26.940624 267.4875 27.503124L266.8781 29.14375Q266.2375 28.753124 265.59686 28.753124Q265.01874 28.753124 264.55 29.1125Q264.09686 29.45625 263.89374 30.065624Q263.6125 31.003124 263.6125 32.1125L263.6125 37.55L261.84686 37.55ZM272.70624 35.971874L272.95624 37.534374Q272.22186 37.690624 271.6281 37.690624Q270.675 37.690624 270.14374 37.39375Q269.6281 37.08125 269.40936 36.596874Q269.1906 36.096874 269.1906 34.51875L269.1906 28.55L267.90936 28.55L267.90936 27.175L269.1906 27.175L269.1906 24.6125L270.9406 23.55L270.9406 27.175L272.70624 27.175L272.70624 28.55L270.9406 28.55L270.9406 34.6125Q270.9406 35.3625 271.03436 35.58125Q271.1281 35.784374 271.33124 35.925Q271.55 36.05 271.9406 36.05Q272.22186 36.05 272.70624 35.971874ZM281.64374 36.26875Q280.65936 37.096874 279.7531 37.440624Q278.84686 37.784374 277.8156 37.784374Q276.1125 37.784374 275.1906 36.95625Q274.26874 36.1125 274.26874 34.815624Q274.26874 34.05 274.6125 33.425Q274.97186 32.8 275.53436 32.425Q276.09686 32.034374 276.8 31.83125Q277.3156 31.70625 278.3625 31.565624Q280.4875 31.315624 281.4875 30.971874Q281.5031 30.6125 281.5031 30.503124Q281.5031 29.440624 281.0031 28.9875Q280.33124 28.39375 279.0031 28.39375Q277.7531 28.39375 277.15936 28.83125Q276.58124 29.26875 276.3 30.378124L274.58124 30.14375Q274.8156 29.034374 275.34686 28.3625Q275.8781 27.675 276.89374 27.315624Q277.90936 26.940624 279.2531 26.940624Q280.58124 26.940624 281.40936 27.253124Q282.2375 27.565624 282.6281 28.05Q283.01874 28.51875 283.175 29.2375Q283.26874 29.690624 283.26874 30.8625L283.26874 33.20625Q283.26874 35.659374 283.3781 36.315624Q283.4875 36.95625 283.83124 37.55L281.9875 37.55Q281.72186 37.003124 281.64374 36.26875ZM281.4875 32.346874Q280.53436 32.7375 278.6125 33.003124Q277.53436 33.159374 277.08124 33.3625Q276.64374 33.55 276.39374 33.925Q276.14374 34.3 276.14374 34.76875Q276.14374 35.471874 276.675 35.940624Q277.20624 36.409374 278.2375 36.409374Q279.2531 36.409374 280.03436 35.971874Q280.83124 35.51875 281.20624 34.753124Q281.4875 34.14375 281.4875 32.9875L281.4875 32.346874ZM278.90936 24.221874L277.8 25.89375L275.8 25.89375L277.90936 23.159374L279.78436 23.159374L281.97186 25.89375L279.9875 25.89375L278.90936 24.221874ZM285.8625 37.55L285.8625 27.175L287.45624 27.175L287.45624 28.659374Q288.59686 26.940624 290.7531 26.940624Q291.6906 26.940624 292.47186 27.284374Q293.26874 27.6125 293.65936 28.159374Q294.05 28.70625 294.20624 29.45625Q294.3 29.95625 294.3 31.175L294.3 37.55L292.53436 37.55L292.53436 31.2375Q292.53436 30.159374 292.33124 29.628124Q292.1281 29.096874 291.59686 28.784374Q291.08124 28.471874 290.3781 28.471874Q289.2531 28.471874 288.4406 29.190624Q287.6281 29.89375 287.6281 31.878124L287.6281 37.55L285.8625 37.55ZM303.64374 33.753124L305.3625 33.971874Q305.08124 35.76875 303.90936 36.784374Q302.7531 37.784374 301.05 37.784374Q298.925 37.784374 297.6281 36.39375Q296.33124 35.003124 296.33124 32.409374Q296.33124 30.721874 296.8781 29.471874Q297.4406 28.20625 298.58124 27.58125Q299.72186 26.940624 301.0656 26.940624Q302.7531 26.940624 303.8156 27.8Q304.89374 28.659374 305.20624 30.221874L303.4875 30.4875Q303.2531 29.440624 302.6281 28.925Q302.0031 28.39375 301.1281 28.39375Q299.8 28.39375 298.97186 29.346874Q298.14374 30.3 298.14374 32.346874Q298.14374 34.440624 298.9406 35.39375Q299.7375 36.33125 301.03436 36.33125Q302.0656 36.33125 302.7531 35.70625Q303.45624 35.065624 303.64374 33.753124ZM306.8781 25.253124L306.8781 23.2375L308.64374 23.2375L308.64374 25.253124L306.8781 25.253124ZM306.8781 37.55L306.8781 27.175L308.64374 27.175L308.64374 37.55L306.8781 37.55ZM317.64374 36.26875Q316.65936 37.096874 315.7531 37.440624Q314.84686 37.784374 313.8156 37.784374Q312.1125 37.784374 311.1906 36.95625Q310.26874 36.1125 310.26874 34.815624Q310.26874 34.05 310.6125 33.425Q310.97186 32.8 311.53436 32.425Q312.09686 32.034374 312.8 31.83125Q313.3156 31.70625 314.3625 31.565624Q316.4875 31.315624 317.4875 30.971874Q317.5031 30.6125 317.5031 30.503124Q317.5031 29.440624 317.0031 28.9875Q316.33124 28.39375 315.0031 28.39375Q313.7531 28.39375 313.15936 28.83125Q312.58124 29.26875 312.3 30.378124L310.58124 30.14375Q310.8156 29.034374 311.34686 28.3625Q311.8781 27.675 312.89374 27.315624Q313.90936 26.940624 315.2531 26.940624Q316.58124 26.940624 317.40936 27.253124Q318.2375 27.565624 318.6281 28.05Q319.01874 28.51875 319.175 29.2375Q319.26874 29.690624 319.26874 30.8625L319.26874 33.20625Q319.26874 35.659374 319.3781 36.315624Q319.4875 36.95625 319.83124 37.55L317.9875 37.55Q317.72186 37.003124 317.64374 36.26875ZM317.4875 32.346874Q316.53436 32.7375 314.6125 33.003124Q313.53436 33.159374 313.08124 33.3625Q312.64374 33.55 312.39374 33.925Q312.14374 34.3 312.14374 34.76875Q312.14374 35.471874 312.675 35.940624Q313.20624 36.409374 314.2375 36.409374Q315.2531 36.409374 316.03436 35.971874Q316.83124 35.51875 317.20624 34.753124Q317.4875 34.14375 317.4875 32.9875L317.4875 32.346874ZM334.59686 37.55L334.59686 36.2375Q333.6125 37.784374 331.6906 37.784374Q330.45624 37.784374 329.40936 37.096874Q328.3781 36.409374 327.8 35.190624Q327.2375 33.971874 327.2375 32.378124Q327.2375 30.815624 327.7531 29.55Q328.26874 28.284374 329.3 27.6125Q330.34686 26.940624 331.6125 26.940624Q332.55 26.940624 333.28436 27.346874Q334.01874 27.7375 334.4875 28.3625L334.4875 23.2375L336.22186 23.2375L336.22186 37.55L334.59686 37.55ZM329.03436 32.378124Q329.03436 34.3625 329.8781 35.346874Q330.72186 36.33125 331.8625 36.33125Q333.01874 36.33125 333.8156 35.39375Q334.6281 34.45625 334.6281 32.51875Q334.6281 30.39375 333.8 29.39375Q332.9875 28.39375 331.78436 28.39375Q330.6125 28.39375 329.8156 29.3625Q329.03436 30.315624 329.03436 32.378124ZM345.97186 34.20625L347.78436 34.440624Q347.3625 36.01875 346.1906 36.909374Q345.03436 37.784374 343.22186 37.784374Q340.95624 37.784374 339.6125 36.39375Q338.28436 34.9875 338.28436 32.45625Q338.28436 29.83125 339.6281 28.39375Q340.97186 26.940624 343.1281 26.940624Q345.20624 26.940624 346.51874 28.3625Q347.84686 29.76875 347.84686 32.346874Q347.84686 32.503124 347.83124 32.815624L340.09686 32.815624Q340.1906 34.51875 341.0656 35.425Q341.9406 36.33125 343.2375 36.33125Q344.20624 36.33125 344.8781 35.83125Q345.5656 35.315624 345.97186 34.20625ZM340.1906 31.3625L345.9875 31.3625Q345.8781 30.065624 345.33124 29.409374Q344.4875 28.39375 343.14374 28.39375Q341.9406 28.39375 341.1125 29.20625Q340.28436 30.003124 340.1906 31.3625ZM356.1906 37.55L356.1906 23.2375L365.84686 23.2375L365.84686 24.925L358.08124 24.925L358.08124 29.3625L364.8 29.3625L364.8 31.05L358.08124 31.05L358.08124 37.55L356.1906 37.55ZM374.64374 36.26875Q373.65936 37.096874 372.7531 37.440624Q371.84686 37.784374 370.8156 37.784374Q369.1125 37.784374 368.1906 36.95625Q367.26874 36.1125 367.26874 34.815624Q367.26874 34.05 367.6125 33.425Q367.97186 32.8 368.53436 32.425Q369.09686 32.034374 369.8 31.83125Q370.3156 31.70625 371.3625 31.565624Q373.4875 31.315624 374.4875 30.971874Q374.5031 30.6125 374.5031 30.503124Q374.5031 29.440624 374.0031 28.9875Q373.33124 28.39375 372.0031 28.39375Q370.7531 28.39375 370.15936 28.83125Q369.58124 29.26875 369.3 30.378124L367.58124 30.14375Q367.8156 29.034374 368.34686 28.3625Q368.8781 27.675 369.89374 27.315624Q370.90936 26.940624 372.2531 26.940624Q373.58124 26.940624 374.40936 27.253124Q375.2375 27.565624 375.6281 28.05Q376.01874 28.51875 376.175 29.2375Q376.26874 29.690624 376.26874 30.8625L376.26874 33.20625Q376.26874 35.659374 376.3781 36.315624Q376.4875 36.95625 376.83124 37.55L374.9875 37.55Q374.72186 37.003124 374.64374 36.26875ZM374.4875 32.346874Q373.53436 32.7375 371.6125 33.003124Q370.53436 33.159374 370.08124 33.3625Q369.64374 33.55 369.39374 33.925Q369.14374 34.3 369.14374 34.76875Q369.14374 35.471874 369.675 35.940624Q370.20624 36.409374 371.2375 36.409374Q372.2531 36.409374 373.03436 35.971874Q373.83124 35.51875 374.20624 34.753124Q374.4875 34.14375 374.4875 32.9875L374.4875 32.346874ZM382.70624 35.971874L382.95624 37.534374Q382.22186 37.690624 381.6281 37.690624Q380.675 37.690624 380.14374 37.39375Q379.6281 37.08125 379.40936 36.596874Q379.1906 36.096874 379.1906 34.51875L379.1906 28.55L377.90936 28.55L377.90936 27.175L379.1906 27.175L379.1906 24.6125L380.9406 23.55L380.9406 27.175L382.70624 27.175L382.70624 28.55L380.9406 28.55L380.9406 34.6125Q380.9406 35.3625 381.03436 35.58125Q381.1281 35.784374 381.33124 35.925Q381.55 36.05 381.9406 36.05Q382.22186 36.05 382.70624 35.971874ZM384.22186 32.3625Q384.22186 29.4875 385.8156 28.096874Q387.15936 26.940624 389.08124 26.940624Q391.22186 26.940624 392.5656 28.346874Q393.925 29.753124 393.925 32.221874Q393.925 34.221874 393.33124 35.378124Q392.7375 36.51875 391.58124 37.159374Q390.4406 37.784374 389.08124 37.784374Q386.89374 37.784374 385.55 36.39375Q384.22186 34.9875 384.22186 32.3625ZM386.01874 32.3625Q386.01874 34.3625 386.8781 35.346874Q387.7531 36.33125 389.08124 36.33125Q390.39374 36.33125 391.2531 35.346874Q392.1281 34.346874 392.1281 32.3Q392.1281 30.378124 391.2531 29.39375Q390.3781 28.39375 389.08124 28.39375Q387.7531 28.39375 386.8781 29.39375Q386.01874 30.378124 386.01874 32.3625ZM395.84686 37.55L395.84686 27.175L397.425 27.175L397.425 28.753124Q398.03436 27.64375 398.55 27.3Q399.0656 26.940624 399.675 26.940624Q400.5656 26.940624 401.4875 27.503124L400.8781 29.14375Q400.2375 28.753124 399.59686 28.753124Q399.01874 28.753124 398.55 29.1125Q398.09686 29.45625 397.89374 30.065624Q397.6125 31.003124 397.6125 32.1125L397.6125 37.55L395.84686 37.55ZM409.97186 34.20625L411.78436 34.440624Q411.3625 36.01875 410.1906 36.909374Q409.03436 37.784374 407.22186 37.784374Q404.95624 37.784374 403.6125 36.39375Q402.28436 34.9875 402.28436 32.45625Q402.28436 29.83125 403.6281 28.39375Q404.97186 26.940624 407.1281 26.940624Q409.20624 26.940624 410.51874 28.3625Q411.84686 29.76875 411.84686 32.346874Q411.84686 32.503124 411.83124 32.815624L404.09686 32.815624Q404.1906 34.51875 405.0656 35.425Q405.9406 36.33125 407.2375 36.33125Q408.20624 36.33125 408.8781 35.83125Q409.5656 35.315624 409.97186 34.20625ZM404.1906 31.3625L409.9875 31.3625Q409.8781 30.065624 409.33124 29.409374Q408.4875 28.39375 407.14374 28.39375Q405.9406 28.39375 405.1125 29.20625Q404.28436 30.003124 404.1906 31.3625ZM413.15936 34.45625L414.90936 34.175Q415.05 35.221874 415.72186 35.784374Q416.39374 36.33125 417.59686 36.33125Q418.8 36.33125 419.3781 35.846874Q419.97186 35.346874 419.97186 34.690624Q419.97186 34.096874 419.45624 33.753124Q419.09686 33.51875 417.65936 33.159374Q415.72186 32.659374 414.97186 32.315624Q414.2375 31.95625 413.84686 31.33125Q413.45624 30.690624 413.45624 29.925Q413.45624 29.2375 413.76874 28.64375Q414.09686 28.05 414.64374 27.659374Q415.05 27.3625 415.7531 27.159374Q416.47186 26.940624 417.28436 26.940624Q418.5031 26.940624 419.425 27.3Q420.34686 27.64375 420.78436 28.253124Q421.22186 28.846874 421.39374 29.846874L419.675 30.08125Q419.55 29.284374 418.9875 28.846874Q418.425 28.39375 417.40936 28.39375Q416.1906 28.39375 415.675 28.8Q415.15936 29.190624 415.15936 29.721874Q415.15936 30.065624 415.3781 30.346874Q415.58124 30.628124 416.05 30.815624Q416.3156 30.909374 417.59686 31.253124Q419.47186 31.753124 420.20624 32.08125Q420.9406 32.39375 421.3625 33.003124Q421.78436 33.596874 421.78436 34.503124Q421.78436 35.378124 421.26874 36.159374Q420.7531 36.940624 419.78436 37.3625Q418.8156 37.784374 417.59686 37.784374Q415.58124 37.784374 414.51874 36.940624Q413.45624 36.096874 413.15936 34.45625ZM436.59686 37.55L436.59686 36.2375Q435.6125 37.784374 433.6906 37.784374Q432.45624 37.784374 431.40936 37.096874Q430.3781 36.409374 429.8 35.190624Q429.2375 33.971874 429.2375 32.378124Q429.2375 30.815624 429.7531 29.55Q430.26874 28.284374 431.3 27.6125Q432.34686 26.940624 433.6125 26.940624Q434.55 26.940624 435.28436 27.346874Q436.01874 27.7375 436.4875 28.3625L436.4875 23.2375L438.22186 23.2375L438.22186 37.55L436.59686 37.55ZM431.03436 32.378124Q431.03436 34.3625 431.8781 35.346874Q432.72186 36.33125 433.8625 36.33125Q435.01874 36.33125 435.8156 35.39375Q436.6281 34.45625 436.6281 32.51875Q436.6281 30.39375 435.8 29.39375Q434.9875 28.39375 433.78436 28.39375Q432.6125 28.39375 431.8156 29.3625Q431.03436 30.315624 431.03436 32.378124ZM447.97186 34.20625L449.78436 34.440624Q449.3625 36.01875 448.1906 36.909374Q447.03436 37.784374 445.22186 37.784374Q442.95624 37.784374 441.6125 36.39375Q440.28436 34.9875 440.28436 32.45625Q440.28436 29.83125 441.6281 28.39375Q442.97186 26.940624 445.1281 26.940624Q447.20624 26.940624 448.51874 28.3625Q449.84686 29.76875 449.84686 32.346874Q449.84686 32.503124 449.83124 32.815624L442.09686 32.815624Q442.1906 34.51875 443.0656 35.425Q443.9406 36.33125 445.2375 36.33125Q446.20624 36.33125 446.8781 35.83125Q447.5656 35.315624 447.97186 34.20625ZM442.1906 31.3625L447.9875 31.3625Q447.8781 30.065624 447.33124 29.409374Q446.4875 28.39375 445.14374 28.39375Q443.9406 28.39375 443.1125 29.20625Q442.28436 30.003124 442.1906 31.3625ZM468.9406 36.01875Q470.26874 36.925 471.3781 37.346874L470.8156 38.659374Q469.26874 38.1125 467.7375 36.909374Q466.14374 37.8 464.22186 37.8Q462.28436 37.8 460.6906 36.8625Q459.1125 35.925 458.2531 34.221874Q457.40936 32.51875 457.40936 30.39375Q457.40936 28.26875 458.26874 26.534374Q459.1281 24.8 460.70624 23.89375Q462.3 22.971874 464.26874 22.971874Q466.2531 22.971874 467.83124 23.925Q469.425 24.8625 470.2531 26.565624Q471.09686 28.253124 471.09686 30.378124Q471.09686 32.14375 470.5656 33.565624Q470.03436 34.971874 468.9406 36.01875ZM464.76874 33.596874Q466.40936 34.05 467.47186 34.95625Q469.14374 33.440624 469.14374 30.378124Q469.14374 28.64375 468.55 27.346874Q467.97186 26.05 466.83124 25.33125Q465.6906 24.6125 464.26874 24.6125Q462.15936 24.6125 460.7531 26.065624Q459.3625 27.503124 459.3625 30.39375Q459.3625 33.190624 460.7375 34.690624Q462.1281 36.175 464.26874 36.175Q465.28436 36.175 466.1906 35.784374Q465.3 35.221874 464.3156 34.971874L464.76874 33.596874ZM480.65936 37.55L480.65936 36.01875Q479.45624 37.784374 477.3781 37.784374Q476.45624 37.784374 475.65936 37.440624Q474.8625 37.08125 474.47186 36.55Q474.09686 36.01875 473.9406 35.2375Q473.83124 34.721874 473.83124 33.596874L473.83124 27.175L475.58124 27.175L475.58124 32.925Q475.58124 34.3 475.6906 34.784374Q475.8625 35.471874 476.39374 35.878124Q476.9406 36.26875 477.72186 36.26875Q478.51874 36.26875 479.20624 35.8625Q479.90936 35.45625 480.1906 34.76875Q480.4875 34.065624 480.4875 32.7375L480.4875 27.175L482.2375 27.175L482.2375 37.55L480.65936 37.55ZM491.64374 36.26875Q490.65936 37.096874 489.7531 37.440624Q488.84686 37.784374 487.8156 37.784374Q486.1125 37.784374 485.1906 36.95625Q484.26874 36.1125 484.26874 34.815624Q484.26874 34.05 484.6125 33.425Q484.97186 32.8 485.53436 32.425Q486.09686 32.034374 486.8 31.83125Q487.3156 31.70625 488.3625 31.565624Q490.4875 31.315624 491.4875 30.971874Q491.5031 30.6125 491.5031 30.503124Q491.5031 29.440624 491.0031 28.9875Q490.33124 28.39375 489.0031 28.39375Q487.7531 28.39375 487.15936 28.83125Q486.58124 29.26875 486.3 30.378124L484.58124 30.14375Q484.8156 29.034374 485.34686 28.3625Q485.8781 27.675 486.89374 27.315624Q487.90936 26.940624 489.2531 26.940624Q490.58124 26.940624 491.40936 27.253124Q492.2375 27.565624 492.6281 28.05Q493.01874 28.51875 493.175 29.2375Q493.26874 29.690624 493.26874 30.8625L493.26874 33.20625Q493.26874 35.659374 493.3781 36.315624Q493.4875 36.95625 493.83124 37.55L491.9875 37.55Q491.72186 37.003124 491.64374 36.26875ZM491.4875 32.346874Q490.53436 32.7375 488.6125 33.003124Q487.53436 33.159374 487.08124 33.3625Q486.64374 33.55 486.39374 33.925Q486.14374 34.3 486.14374 34.76875Q486.14374 35.471874 486.675 35.940624Q487.20624 36.409374 488.2375 36.409374Q489.2531 36.409374 490.03436 35.971874Q490.83124 35.51875 491.20624 34.753124Q491.4875 34.14375 491.4875 32.9875L491.4875 32.346874ZM495.83124 37.55L495.83124 23.2375L497.58124 23.2375L497.58124 37.55L495.83124 37.55ZM499.8781 25.253124L499.8781 23.2375L501.64374 23.2375L501.64374 25.253124L499.8781 25.253124ZM499.8781 37.55L499.8781 27.175L501.64374 27.175L501.64374 37.55L499.8781 37.55ZM510.59686 37.55L510.59686 36.2375Q509.6125 37.784374 507.6906 37.784374Q506.45624 37.784374 505.40936 37.096874Q504.3781 36.409374 503.8 35.190624Q503.2375 33.971874 503.2375 32.378124Q503.2375 30.815624 503.7531 29.55Q504.26874 28.284374 505.3 27.6125Q506.34686 26.940624 507.6125 26.940624Q508.55 26.940624 509.28436 27.346874Q510.01874 27.7375 510.4875 28.3625L510.4875 23.2375L512.22186 23.2375L512.22186 37.55L510.59686 37.55ZM505.03436 32.378124Q505.03436 34.3625 505.8781 35.346874Q506.72186 36.33125 507.8625 36.33125Q509.01874 36.33125 509.8156 35.39375Q510.6281 34.45625 510.6281 32.51875Q510.6281 30.39375 509.8 29.39375Q508.9875 28.39375 507.78436 28.39375Q506.6125 28.39375 505.8156 29.3625Q505.03436 30.315624 505.03436 32.378124ZM521.64374 36.26875Q520.65936 37.096874 519.7531 37.440624Q518.84686 37.784374 517.8156 37.784374Q516.1125 37.784374 515.1906 36.95625Q514.26874 36.1125 514.26874 34.815624Q514.26874 34.05 514.6125 33.425Q514.97186 32.8 515.53436 32.425Q516.09686 32.034374 516.8 31.83125Q517.3156 31.70625 518.3625 31.565624Q520.4875 31.315624 521.4875 30.971874Q521.5031 30.6125 521.5031 30.503124Q521.5031 29.440624 521.0031 28.9875Q520.33124 28.39375 519.0031 28.39375Q517.7531 28.39375 517.15936 28.83125Q516.58124 29.26875 516.3 30.378124L514.58124 30.14375Q514.8156 29.034374 515.34686 28.3625Q515.8781 27.675 516.89374 27.315624Q517.90936 26.940624 519.2531 26.940624Q520.58124 26.940624 521.40936 27.253124Q522.2375 27.565624 522.6281 28.05Q523.01874 28.51875 523.175 29.2375Q523.26874 29.690624 523.26874 30.8625L523.26874 33.20625Q523.26874 35.659374 523.3781 36.315624Q523.4875 36.95625 523.83124 37.55L521.9875 37.55Q521.72186 37.003124 521.64374 36.26875ZM521.4875 32.346874Q520.53436 32.7375 518.6125 33.003124Q517.53436 33.159374 517.08124 33.3625Q516.64374 33.55 516.39374 33.925Q516.14374 34.3 516.14374 34.76875Q516.14374 35.471874 516.675 35.940624Q517.20624 36.409374 518.2375 36.409374Q519.2531 36.409374 520.03436 35.971874Q520.83124 35.51875 521.20624 34.753124Q521.4875 34.14375 521.4875 32.9875L521.4875 32.346874ZM532.59686 37.55L532.59686 36.2375Q531.6125 37.784374 529.6906 37.784374Q528.45624 37.784374 527.40936 37.096874Q526.3781 36.409374 525.8 35.190624Q525.2375 33.971874 525.2375 32.378124Q525.2375 30.815624 525.7531 29.55Q526.26874 28.284374 527.3 27.6125Q528.34686 26.940624 529.6125 26.940624Q530.55 26.940624 531.28436 27.346874Q532.01874 27.7375 532.4875 28.3625L532.4875 23.2375L534.22186 23.2375L534.22186 37.55L532.59686 37.55ZM527.03436 32.378124Q527.03436 34.3625 527.8781 35.346874Q528.72186 36.33125 529.8625 36.33125Q531.01874 36.33125 531.8156 35.39375Q532.6281 34.45625 532.6281 32.51875Q532.6281 30.39375 531.8 29.39375Q530.9875 28.39375 529.78436 28.39375Q528.6125 28.39375 527.8156 29.3625Q527.03436 30.315624 527.03436 32.378124ZM543.97186 34.20625L545.78436 34.440624Q545.3625 36.01875 544.1906 36.909374Q543.03436 37.784374 541.22186 37.784374Q538.95624 37.784374 537.6125 36.39375Q536.28436 34.9875 536.28436 32.45625Q536.28436 29.83125 537.6281 28.39375Q538.97186 26.940624 541.1281 26.940624Q543.20624 26.940624 544.51874 28.3625Q545.84686 29.76875 545.84686 32.346874Q545.84686 32.503124 545.83124 32.815624L538.09686 32.815624Q538.1906 34.51875 539.0656 35.425Q539.9406 36.33125 541.2375 36.33125Q542.20624 36.33125 542.8781 35.83125Q543.5656 35.315624 543.97186 34.20625ZM538.1906 31.3625L543.9875 31.3625Q543.8781 30.065624 543.33124 29.409374Q542.4875 28.39375 541.14374 28.39375Q539.9406 28.39375 539.1125 29.20625Q538.28436 30.003124 538.1906 31.3625Z" fill-rule="nonzero"/><path fill="#757575" d="M20.409374 61.55L20.409374 47.2375L22.315624 47.2375L22.315624 61.55L20.409374 61.55ZM25.8625 61.55L25.8625 51.175L27.45625 51.175L27.45625 52.659374Q28.596874 50.940624 30.753124 50.940624Q31.690624 50.940624 32.471874 51.284374Q33.26875 51.6125 33.659374 52.159374Q34.05 52.70625 34.20625 53.45625Q34.3 53.95625 34.3 55.175L34.3 61.55L32.534374 61.55L32.534374 55.2375Q32.534374 54.159374 32.33125 53.628124Q32.128124 53.096874 31.596874 52.784374Q31.08125 52.471874 30.378124 52.471874Q29.253124 52.471874 28.440624 53.190624Q27.628124 53.89375 27.628124 55.878124L27.628124 61.55L25.8625 61.55ZM40.70625 59.971874L40.95625 61.534374Q40.221874 61.690624 39.628124 61.690624Q38.675 61.690624 38.14375 61.39375Q37.628124 61.08125 37.409374 60.596874Q37.190624 60.096874 37.190624 58.51875L37.190624 52.55L35.909374 52.55L35.909374 51.175L37.190624 51.175L37.190624 48.6125L38.940624 47.55L38.940624 51.175L40.70625 51.175L40.70625 52.55L38.940624 52.55L38.940624 58.6125Q38.940624 59.3625 39.034374 59.58125Q39.128124 59.784374 39.33125 59.925Q39.55 60.05 39.940624 60.05Q40.221874 60.05 40.70625 59.971874ZM49.971874 58.20625L51.784374 58.440624Q51.3625 60.01875 50.190624 60.909374Q49.034374 61.784374 47.221874 61.784374Q44.95625 61.784374 43.6125 60.39375Q42.284374 58.9875 42.284374 56.45625Q42.284374 53.83125 43.628124 52.39375Q44.971874 50.940624 47.128124 50.940624Q49.20625 50.940624 50.51875 52.3625Q51.846874 53.76875 51.846874 56.346874Q51.846874 56.503124 51.83125 56.815624L44.096874 56.815624Q44.190624 58.51875 45.065624 59.425Q45.940624 60.33125 47.2375 60.33125Q48.20625 60.33125 48.878124 59.83125Q49.565624 59.315624 49.971874 58.20625ZM44.190624 55.3625L49.9875 55.3625Q49.878124 54.065624 49.33125 53.409374Q48.4875 52.39375 47.14375 52.39375Q45.940624 52.39375 45.1125 53.20625Q44.284374 54.003124 44.190624 55.3625ZM53.846874 61.55L53.846874 51.175L55.425 51.175L55.425 52.753124Q56.034374 51.64375 56.55 51.3Q57.065624 50.940624 57.675 50.940624Q58.565624 50.940624 59.4875 51.503124L58.878124 53.14375Q58.2375 52.753124 57.596874 52.753124Q57.01875 52.753124 56.55 53.1125Q56.096874 53.45625 55.89375 54.065624Q55.6125 55.003124 55.6125 56.1125L55.6125 61.55L53.846874 61.55ZM60.8625 61.55L60.8625 51.175L62.45625 51.175L62.45625 52.659374Q63.596874 50.940624 65.75313 50.940624Q66.69063 50.940624 67.47188 51.284374Q68.26875 51.6125 68.65938 52.159374Q69.05 52.70625 69.20625 53.45625Q69.3 53.95625 69.3 55.175L69.3 61.55L67.53438 61.55L67.53438 55.2375Q67.53438 54.159374 67.33125 53.628124Q67.12813 53.096874 66.59688 52.784374Q66.08125 52.471874 65.37813 52.471874Q64.25313 52.471874 63.440624 53.190624Q62.628124 53.89375 62.628124 55.878124L62.628124 61.55L60.8625 61.55ZM78.64375 60.26875Q77.65938 61.096874 76.75313 61.440624Q75.84688 61.784374 74.81563 61.784374Q73.1125 61.784374 72.19063 60.95625Q71.26875 60.1125 71.26875 58.815624Q71.26875 58.05 71.6125 57.425Q71.97188 56.8 72.53438 56.425Q73.09688 56.034374 73.8 55.83125Q74.31563 55.70625 75.3625 55.565624Q77.4875 55.315624 78.4875 54.971874Q78.50313 54.6125 78.50313 54.503124Q78.50313 53.440624 78.00313 52.9875Q77.33125 52.39375 76.00313 52.39375Q74.75313 52.39375 74.15938 52.83125Q73.58125 53.26875 73.3 54.378124L71.58125 54.14375Q71.81563 53.034374 72.34688 52.3625Q72.87813 51.675 73.89375 51.315624Q74.90938 50.940624 76.25313 50.940624Q77.58125 50.940624 78.40938 51.253124Q79.2375 51.565624 79.62813 52.05Q80.01875 52.51875 80.175 53.2375Q80.26875 53.690624 80.26875 54.8625L80.26875 57.20625Q80.26875 59.659374 80.37813 60.315624Q80.4875 60.95625 80.83125 61.55L78.9875 61.55Q78.72188 61.003124 78.64375 60.26875ZM78.4875 56.346874Q77.53438 56.7375 75.6125 57.003124Q74.53438 57.159374 74.08125 57.3625Q73.64375 57.55 73.39375 57.925Q73.14375 58.3 73.14375 58.76875Q73.14375 59.471874 73.675 59.940624Q74.20625 60.409374 75.2375 60.409374Q76.25313 60.409374 77.03438 59.971874Q77.83125 59.51875 78.20625 58.753124Q78.4875 58.14375 78.4875 56.9875L78.4875 56.346874ZM95.97188 58.20625L97.78438 58.440624Q97.3625 60.01875 96.19063 60.909374Q95.03438 61.784374 93.22188 61.784374Q90.95625 61.784374 89.6125 60.39375Q88.28438 58.9875 88.28438 56.45625Q88.28438 53.83125 89.62813 52.39375Q90.97188 50.940624 93.12813 50.940624Q95.20625 50.940624 96.51875 52.3625Q97.84688 53.76875 97.84688 56.346874Q97.84688 56.503124 97.83125 56.815624L90.09688 56.815624Q90.19063 58.51875 91.06563 59.425Q91.94063 60.33125 93.2375 60.33125Q94.20625 60.33125 94.87813 59.83125Q95.56563 59.315624 95.97188 58.20625ZM90.19063 55.3625L95.9875 55.3625Q95.87813 54.065624 95.33125 53.409374Q94.4875 52.39375 93.14375 52.39375Q91.94063 52.39375 91.1125 53.20625Q90.28438 54.003124 90.19063 55.3625ZM106.12813 61.55L106.12813 47.2375L116.4875 47.2375L116.4875 48.925L108.03438 48.925L108.03438 53.3L115.94063 53.3L115.94063 54.9875L108.03438 54.9875L108.03438 59.8625L116.81563 59.8625L116.81563 61.55L106.12813 61.55ZM117.69063 61.55L121.4875 56.159374L117.9875 51.175L120.175 51.175L121.76875 53.6125Q122.22188 54.3 122.4875 54.76875Q122.925 54.128124 123.28438 53.628124L125.03438 51.175L127.12813 51.175L123.55 56.065624L127.40938 61.55L125.25313 61.55L123.1125 58.33125L122.55 57.45625L119.83125 61.55L117.69063 61.55ZM132.70625 59.971874L132.95625 61.534374Q132.22188 61.690624 131.62813 61.690624Q130.675 61.690624 130.14375 61.39375Q129.62813 61.08125 129.40938 60.596874Q129.19063 60.096874 129.19063 58.51875L129.19063 52.55L127.90938 52.55L127.90938 51.175L129.19063 51.175L129.19063 48.6125L130.94063 47.55L130.94063 51.175L132.70625 51.175L132.70625 52.55L130.94063 52.55L130.94063 58.6125Q130.94063 59.3625 131.03438 59.58125Q131.12813 59.784374 131.33125 59.925Q131.55 60.05 131.94063 60.05Q132.22188 60.05 132.70625 59.971874ZM141.97188 58.20625L143.78438 58.440624Q143.3625 60.01875 142.19063 60.909374Q141.03438 61.784374 139.22188 61.784374Q136.95625 61.784374 135.6125 60.39375Q134.28438 58.9875 134.28438 56.45625Q134.28438 53.83125 135.62813 52.39375Q136.97188 50.940624 139.12813 50.940624Q141.20625 50.940624 142.51875 52.3625Q143.84688 53.76875 143.84688 56.346874Q143.84688 56.503124 143.83125 56.815624L136.09688 56.815624Q136.19063 58.51875 137.06563 59.425Q137.94063 60.33125 139.2375 60.33125Q140.20625 60.33125 140.87813 59.83125Q141.56563 59.315624 141.97188 58.20625ZM136.19063 55.3625L141.9875 55.3625Q141.87813 54.065624 141.33125 53.409374Q140.4875 52.39375 139.14375 52.39375Q137.94063 52.39375 137.1125 53.20625Q136.28438 54.003124 136.19063 55.3625ZM145.84688 61.55L145.84688 51.175L147.425 51.175L147.425 52.753124Q148.03438 51.64375 148.55 51.3Q149.06563 50.940624 149.675 50.940624Q150.56563 50.940624 151.4875 51.503124L150.87813 53.14375Q150.2375 52.753124 149.59688 52.753124Q149.01875 52.753124 148.55 53.1125Q148.09688 53.45625 147.89375 54.065624Q147.6125 55.003124 147.6125 56.1125L147.6125 61.55L145.84688 61.55ZM152.8625 61.55L152.8625 51.175L154.45625 51.175L154.45625 52.659374Q155.59688 50.940624 157.75313 50.940624Q158.69063 50.940624 159.47188 51.284374Q160.26875 51.6125 160.65938 52.159374Q161.05 52.70625 161.20625 53.45625Q161.3 53.95625 161.3 55.175L161.3 61.55L159.53438 61.55L159.53438 55.2375Q159.53438 54.159374 159.33125 53.628124Q159.12813 53.096874 158.59688 52.784374Q158.08125 52.471874 157.37813 52.471874Q156.25313 52.471874 155.44063 53.190624Q154.62813 53.89375 154.62813 55.878124L154.62813 61.55L152.8625 61.55ZM170.64375 60.26875Q169.65938 61.096874 168.75313 61.440624Q167.84688 61.784374 166.81563 61.784374Q165.1125 61.784374 164.19063 60.95625Q163.26875 60.1125 163.26875 58.815624Q163.26875 58.05 163.6125 57.425Q163.97188 56.8 164.53438 56.425Q165.09688 56.034374 165.8 55.83125Q166.31563 55.70625 167.3625 55.565624Q169.4875 55.315624 170.4875 54.971874Q170.50313 54.6125 170.50313 54.503124Q170.50313 53.440624 170.00313 52.9875Q169.33125 52.39375 168.00313 52.39375Q166.75313 52.39375 166.15938 52.83125Q165.58125 53.26875 165.3 54.378124L163.58125 54.14375Q163.81563 53.034374 164.34688 52.3625Q164.87813 51.675 165.89375 51.315624Q166.90938 50.940624 168.25313 50.940624Q169.58125 50.940624 170.40938 51.253124Q171.2375 51.565624 171.62813 52.05Q172.01875 52.51875 172.175 53.2375Q172.26875 53.690624 172.26875 54.8625L172.26875 57.20625Q172.26875 59.659374 172.37813 60.315624Q172.4875 60.95625 172.83125 61.55L170.9875 61.55Q170.72188 61.003124 170.64375 60.26875ZM170.4875 56.346874Q169.53438 56.7375 167.6125 57.003124Q166.53438 57.159374 166.08125 57.3625Q165.64375 57.55 165.39375 57.925Q165.14375 58.3 165.14375 58.76875Q165.14375 59.471874 165.675 59.940624Q166.20625 60.409374 167.2375 60.409374Q168.25313 60.409374 169.03438 59.971874Q169.83125 59.51875 170.20625 58.753124Q170.4875 58.14375 170.4875 56.9875L170.4875 56.346874ZM187.97188 58.20625L189.78438 58.440624Q189.3625 60.01875 188.19063 60.909374Q187.03438 61.784374 185.22188 61.784374Q182.95625 61.784374 181.6125 60.39375Q180.28438 58.9875 180.28438 56.45625Q180.28438 53.83125 181.62813 52.39375Q182.97188 50.940624 185.12813 50.940624Q187.20625 50.940624 188.51875 52.3625Q189.84688 53.76875 189.84688 56.346874Q189.84688 56.503124 189.83125 56.815624L182.09688 56.815624Q182.19063 58.51875 183.06563 59.425Q183.94063 60.33125 185.2375 60.33125Q186.20625 60.33125 186.87813 59.83125Q187.56563 59.315624 187.97188 58.20625ZM182.19063 55.3625L187.9875 55.3625Q187.87813 54.065624 187.33125 53.409374Q186.4875 52.39375 185.14375 52.39375Q183.94063 52.39375 183.1125 53.20625Q182.28438 54.003124 182.19063 55.3625ZM191.8625 61.55L191.8625 51.175L193.44063 51.175L193.44063 52.628124Q193.925 51.878124 194.7375 51.409374Q195.55 50.940624 196.58125 50.940624Q197.7375 50.940624 198.47188 51.425Q199.20625 51.89375 199.51875 52.753124Q200.75313 50.940624 202.72188 50.940624Q204.26875 50.940624 205.09688 51.8Q205.925 52.659374 205.925 54.425L205.925 61.55L204.175 61.55L204.175 55.01875Q204.175 53.95625 204.00313 53.503124Q203.83125 53.034374 203.37813 52.753124Q202.94063 52.471874 202.33125 52.471874Q201.2375 52.471874 200.50313 53.20625Q199.78438 53.925 199.78438 55.51875L199.78438 61.55L198.03438 61.55L198.03438 54.815624Q198.03438 53.64375 197.59688 53.065624Q197.175 52.471874 196.19063 52.471874Q195.45625 52.471874 194.81563 52.8625Q194.19063 53.253124 193.90938 54.003124Q193.62813 54.753124 193.62813 56.175L193.62813 61.55L191.8625 61.55ZM215.03438 61.55L215.03438 47.2375L217.89375 47.2375L221.26875 57.3625Q221.7375 58.784374 221.95625 59.4875Q222.20625 58.70625 222.72188 57.190624L226.14375 47.2375L228.69063 47.2375L228.69063 61.55L226.87813 61.55L226.87813 49.565624L222.70625 61.55L221.00313 61.55L216.8625 49.3625L216.8625 61.55L215.03438 61.55ZM236.19063 61.55L230.64375 47.2375L232.69063 47.2375L236.40938 57.628124Q236.8625 58.878124 237.15938 59.971874Q237.4875 58.8 237.94063 57.628124L241.8 47.2375L243.7375 47.2375L238.12813 61.55L236.19063 61.55ZM245.09688 61.55L245.09688 47.2375L250.4875 47.2375Q251.925 47.2375 252.675 47.3625Q253.72188 47.55 254.44063 48.05Q255.15938 48.534374 255.58125 49.425Q256.01874 50.315624 256.01874 51.378124Q256.01874 53.20625 254.84688 54.471874Q253.69063 55.721874 250.65938 55.721874L246.9875 55.721874L246.9875 61.55L245.09688 61.55ZM246.9875 54.034374L250.69063 54.034374Q252.51875 54.034374 253.28438 53.3625Q254.06563 52.675 254.06563 51.425Q254.06563 50.534374 253.6125 49.89375Q253.15938 49.253124 252.425 49.05Q251.94063 48.925 250.64375 48.925L246.9875 48.925L246.9875 54.034374ZM257.15936 58.45625L258.90936 58.175Q259.05 59.221874 259.72186 59.784374Q260.39374 60.33125 261.59686 60.33125Q262.8 60.33125 263.3781 59.846874Q263.97186 59.346874 263.97186 58.690624Q263.97186 58.096874 263.45624 57.753124Q263.09686 57.51875 261.65936 57.159374Q259.72186 56.659374 258.97186 56.315624Q258.2375 55.95625 257.84686 55.33125Q257.45624 54.690624 257.45624 53.925Q257.45624 53.2375 257.76874 52.64375Q258.09686 52.05 258.64374 51.659374Q259.05 51.3625 259.7531 51.159374Q260.47186 50.940624 261.28436 50.940624Q262.5031 50.940624 263.425 51.3Q264.34686 51.64375 264.78436 52.253124Q265.22186 52.846874 265.39374 53.846874L263.675 54.08125Q263.55 53.284374 262.9875 52.846874Q262.425 52.39375 261.40936 52.39375Q260.1906 52.39375 259.675 52.8Q259.15936 53.190624 259.15936 53.721874Q259.15936 54.065624 259.3781 54.346874Q259.58124 54.628124 260.05 54.815624Q260.3156 54.909374 261.59686 55.253124Q263.47186 55.753124 264.20624 56.08125Q264.9406 56.39375 265.3625 57.003124Q265.78436 57.596874 265.78436 58.503124Q265.78436 59.378124 265.26874 60.159374Q264.7531 60.940624 263.78436 61.3625Q262.8156 61.784374 261.59686 61.784374Q259.58124 61.784374 258.51874 60.940624Q257.45624 60.096874 257.15936 58.45625Z" fill-rule="nonzero"/></svg>