<svg version="1.1" viewBox="0.0 0.0 600.0 371.0" fill="none" stroke="none" stroke-linecap="square" stroke-miterlimit="10" width="600" height="371" xmlns:xlink="http://www.w3.org/1999/xlink" xmlns="http://www.w3.org/2000/svg"><path fill="#ffffff" d="M0 0L600.0 0L600.0 371.0L0 371.0L0 0Z" fill-rule="nonzero"/><path stroke="#cccccc" stroke-width="1.0" stroke-linecap="butt" d="M45.5 51.5L45.5 300.5" fill-rule="nonzero"/><path stroke="#cccccc" stroke-width="1.0" stroke-linecap="butt" d="M152.5 51.5L152.5 300.5" fill-rule="nonzero"/><path stroke="#cccccc" stroke-width="1.0" stroke-linecap="butt" d="M259.5 51.5L259.5 300.5" fill-rule="nonzero"/><path stroke="#cccccc" stroke-width="1.0" stroke-linecap="butt" d="M367.5 51.5L367.5 300.5" fill-rule="nonzero"/><path stroke="#cccccc" stroke-width="1.0" stroke-linecap="butt" d="M474.5 51.5L474.5 300.5" fill-rule="nonzero"/><path stroke="#cccccc" stroke-width="1.0" stroke-linecap="butt" d="M581.5 51.5L581.5 300.5" fill-rule="nonzero"/><path stroke="#333333" stroke-width="1.0" stroke-linecap="butt" d="M45.5 300.5L581.5 300.5" fill-rule="nonzero"/><path stroke="#cccccc" stroke-width="1.0" stroke-linecap="butt" d="M45.5 238.5L581.5 238.5" fill-rule="nonzero"/><path stroke="#cccccc" stroke-width="1.0" stroke-linecap="butt" d="M45.5 176.5L581.5 176.5" fill-rule="nonzero"/><path stroke="#cccccc" stroke-width="1.0" stroke-linecap="butt" d="M45.5 114.5L581.5 114.5" fill-rule="nonzero"/><path stroke="#cccccc" stroke-width="1.0" stroke-linecap="butt" d="M45.5 51.5L581.5 51.5" fill-rule="nonzero"/><clipPath id="id_0"><path d="M45.55 51.916668L581.45 51.916668L581.45 300.45L45.55 300.45L45.55 51.916668Z" clip-rule="nonzero"/></clipPath><path stroke="#4285f4" stroke-width="2.0" stroke-linecap="butt" clip-path="url(#id_0)" d="M45.55 250.74333L152.73 201.03667L259.91 151.33L367.09 101.62334L474.27 89.19666L581.45 76.77" fill-rule="nonzero"/><path stroke="#ea4335" stroke-width="2.0" stroke-linecap="butt" clip-path="url(#id_0)" d="M45.55 76.77L152.73 126.47667L259.91 176.18333L367.09 225.89L474.27 275.59668L581.45 288.02335" fill-rule="nonzero"/><path fill="#000000" fill-opacity="0.0" clip-path="url(#id_0)" d="M48.55 250.74333C48.55 252.40019 47.206856 253.74333 45.55 253.74333C43.893147 253.74333 42.55 252.40019 42.55 250.74333C42.55 249.08647 43.893147 247.74333 45.55 247.74333C47.206856 247.74333 48.55 249.08647 48.55 250.74333Z" fill-rule="nonzero"/><path fill="#000000" fill-opacity="0.0" clip-path="url(#id_0)" d="M155.73 201.03667C155.73 202.69353 154.38686 204.03667 152.73 204.03667C151.07315 204.03667 149.73 202.69353 149.73 201.03667C149.73 199.3798 151.07315 198.03667 152.73 198.03667C154.38686 198.03667 155.73 199.3798 155.73 201.03667Z" fill-rule="nonzero"/><path fill="#000000" fill-opacity="0.0" clip-path="url(#id_0)" d="M262.91 151.33C262.91 152.98685 261.56686 154.33 259.91 154.33C258.25314 154.33 256.91 152.98685 256.91 151.33C256.91 149.67314 258.25314 148.33 259.91 148.33C261.56686 148.33 262.91 149.67314 262.91 151.33Z" fill-rule="nonzero"/><path fill="#000000" fill-opacity="0.0" clip-path="url(#id_0)" d="M370.09 101.62334C370.09 103.28019 368.74686 104.62334 367.09 104.62334C365.43314 104.62334 364.09 103.28019 364.09 101.62334C364.09 99.96648 365.43314 98.62334 367.09 98.62334C368.74686 98.62334 370.09 99.96648 370.09 101.62334Z" fill-rule="nonzero"/><path fill="#000000" fill-opacity="0.0" clip-path="url(#id_0)" d="M477.27 89.19666C477.27 90.85352 475.92685 92.19666 474.27 92.19666C472.61316 92.19666 471.27 90.85352 471.27 89.19666C471.27 87.53981 472.61316 86.19666 474.27 86.19666C475.92685 86.19666 477.27 87.53981 477.27 89.19666Z" fill-rule="nonzero"/><path fill="#000000" fill-opacity="0.0" clip-path="url(#id_0)" d="M584.45 76.77C584.45 78.42686 583.1069 79.77 581.45 79.77C579.79315 79.77 578.45 78.42686 578.45 76.77C578.45 75.113144 579.79315 73.77 581.45 73.77C583.1069 73.77 584.45 75.113144 584.45 76.77Z" fill-rule="nonzero"/><path fill="#000000" fill-opacity="0.0" clip-path="url(#id_0)" d="M48.55 76.77C48.55 78.42686 47.206856 79.77 45.55 79.77C43.893147 79.77 42.55 78.42686 42.55 76.77C42.55 75.113144 43.893147 73.77 45.55 73.77C47.206856 73.77 48.55 75.113144 48.55 76.77Z" fill-rule="nonzero"/><path fill="#000000" fill-opacity="0.0" clip-path="url(#id_0)" d="M155.73 126.47667C155.73 128.13351 154.38686 129.47667 152.73 129.47667C151.07315 129.47667 149.73 128.13351 149.73 126.47667C149.73 124.81981 151.07315 123.47667 152.73 123.47667C154.38686 123.47667 155.73 124.81981 155.73 126.47667Z" fill-rule="nonzero"/><path fill="#000000" fill-opacity="0.0" clip-path="url(#id_0)" d="M262.91 176.18333C262.91 177.8402 261.56686 179.18333 259.91 179.18333C258.25314 179.18333 256.91 177.8402 256.91 176.18333C256.91 174.52647 258.25314 173.18333 259.91 173.18333C261.56686 173.18333 262.91 174.52647 262.91 176.18333Z" fill-rule="nonzero"/><path fill="#000000" fill-opacity="0.0" clip-path="url(#id_0)" d="M370.09 225.89C370.09 227.54686 368.74686 228.89 367.09 228.89C365.43314 228.89 364.09 227.54686 364.09 225.89C364.09 224.23314 365.43314 222.89 367.09 222.89C368.74686 222.89 370.09 224.23314 370.09 225.89Z" fill-rule="nonzero"/><path fill="#000000" fill-opacity="0.0" clip-path="url(#id_0)" d="M477.27 275.59668C477.27 277.2535 475.92685 278.59668 474.27 278.59668C472.61316 278.59668 471.27 277.2535 471.27 275.59668C471.27 273.93982 472.61316 272.59668 474.27 272.59668C475.92685 272.59668 477.27 273.93982 477.27 275.59668Z" fill-rule="nonzero"/><path fill="#000000" fill-opacity="0.0" clip-path="url(#id_0)" d="M584.45 288.02335C584.45 289.68018 583.1069 291.02335 581.45 291.02335C579.79315 291.02335 578.45 289.68018 578.45 288.02335C578.45 286.3665 579.79315 285.02335 581.45 285.02335C583.1069 285.02335 584.45 286.3665 584.45 288.02335Z" fill-rule="nonzero"/><path fill="#000000" d="M297.60938 349.45L297.60938 341.8719L294.78125 341.8719L294.78125 340.85626L301.59375 340.85626L301.59375 341.8719L298.75 341.8719L298.75 349.45L297.60938 349.45ZM306.54688 347.45L307.64062 347.575Q307.39062 348.52814 306.6875 349.0594Q305.98438 349.59064 304.90625 349.59064Q303.54688 349.59064 302.73438 348.7469Q301.9375 347.90314 301.9375 346.3875Q301.9375 344.825 302.75 343.96564Q303.5625 343.09064 304.84375 343.09064Q306.09375 343.09064 306.875 343.9344Q307.67188 344.77814 307.67188 346.325Q307.67188 346.41876 307.67188 346.60626L303.03125 346.60626Q303.09375 347.6375 303.60938 348.1844Q304.125 348.71564 304.90625 348.71564Q305.48438 348.71564 305.89062 348.41876Q306.3125 348.10626 306.54688 347.45ZM303.09375 345.7469L306.5625 345.7469Q306.5 344.95 306.17188 344.5594Q305.65625 343.95 304.85938 343.95Q304.125 343.95 303.625 344.4344Q303.14062 344.91876 303.09375 345.7469ZM309.29688 349.45L309.29688 343.23126L310.23438 343.23126L310.23438 344.10626Q310.53125 343.6375 311.01562 343.3719Q311.5 343.09064 312.125 343.09064Q312.8125 343.09064 313.25 343.3719Q313.70312 343.65314 313.875 344.16876Q314.625 343.09064 315.79688 343.09064Q316.73438 343.09064 317.21875 343.60626Q317.71875 344.10626 317.71875 345.1844L317.71875 349.45L316.67188 349.45L316.67188 345.52814Q316.67188 344.90314 316.5625 344.6219Q316.46875 344.34064 316.20312 344.16876Q315.9375 343.9969 315.5625 343.9969Q314.90625 343.9969 314.46875 344.4344Q314.04688 344.8719 314.04688 345.84064L314.04688 349.45L312.98438 349.45L312.98438 345.40314Q312.98438 344.7 312.71875 344.35626Q312.46875 343.9969 311.89062 343.9969Q311.4375 343.9969 311.0625 344.23126Q310.6875 344.46564 310.51562 344.91876Q310.34375 345.3719 310.34375 346.21564L310.34375 349.45L309.29688 349.45ZM319.29688 351.84064L319.29688 343.23126L320.25 343.23126L320.25 344.02814Q320.59375 343.5594 321.01562 343.325Q321.45312 343.09064 322.0625 343.09064Q322.85938 343.09064 323.46875 343.4969Q324.07812 343.90314 324.375 344.65314Q324.6875 345.40314 324.6875 346.29376Q324.6875 347.2469 324.34375 348.0125Q324.01562 348.77814 323.35938 349.1844Q322.70312 349.59064 321.98438 349.59064Q321.45312 349.59064 321.03125 349.3719Q320.60938 349.1375 320.34375 348.8094L320.34375 351.84064L319.29688 351.84064ZM320.25 346.3719Q320.25 347.575 320.73438 348.15314Q321.21875 348.71564 321.90625 348.71564Q322.60938 348.71564 323.10938 348.1219Q323.60938 347.52814 323.60938 346.27814Q323.60938 345.09064 323.125 344.5125Q322.64062 343.91876 321.95312 343.91876Q321.28125 343.91876 320.76562 344.54376Q320.25 345.16876 320.25 346.3719ZM325.90625 346.34064Q325.90625 344.60626 326.85938 343.77814Q327.65625 343.09064 328.8125 343.09064Q330.09375 343.09064 330.90625 343.9344Q331.73438 344.7625 331.73438 346.2469Q331.73438 347.45 331.375 348.1375Q331.01562 348.825 330.3125 349.21564Q329.625 349.59064 328.8125 349.59064Q327.51562 349.59064 326.70312 348.7625Q325.90625 347.91876 325.90625 346.34064ZM326.98438 346.34064Q326.98438 347.52814 327.5 348.1219Q328.03125 348.71564 328.8125 348.71564Q329.60938 348.71564 330.125 348.1219Q330.64062 347.52814 330.64062 346.3094Q330.64062 345.15314 330.10938 344.5594Q329.59375 343.96564 328.8125 343.96564Q328.03125 343.96564 327.5 344.5594Q326.98438 345.1375 326.98438 346.34064Z" fill-rule="nonzero"/><path fill="#000000" d="M33.05 300.21564Q33.05 298.6844 33.3625 297.7625Q33.675 296.825 34.284374 296.325Q34.909374 295.825 35.846874 295.825Q36.534374 295.825 37.05 296.10626Q37.58125 296.3875 37.925 296.91876Q38.26875 297.4344 38.45625 298.1844Q38.64375 298.9344 38.64375 300.21564Q38.64375 301.73126 38.33125 302.65314Q38.034374 303.575 37.409374 304.09064Q36.8 304.59064 35.846874 304.59064Q34.6125 304.59064 33.89375 303.7Q33.05 302.6375 33.05 300.21564ZM34.128124 300.21564Q34.128124 302.325 34.628124 303.02814Q35.128124 303.73126 35.846874 303.73126Q36.58125 303.73126 37.065624 303.02814Q37.565624 302.325 37.565624 300.21564Q37.565624 298.09064 37.065624 297.40314Q36.58125 296.7 35.83125 296.7Q35.1125 296.7 34.675 297.3094Q34.128124 298.09064 34.128124 300.21564Z" fill-rule="nonzero"/><path fill="#000000" d="M31.596874 241.30104L31.596874 242.31667L25.909374 242.31667Q25.909374 241.94167 26.034374 241.58229Q26.253124 241.00417 26.721874 240.44167Q27.20625 239.87917 28.1125 239.14479Q29.51875 237.98854 30.003124 237.31667Q30.503124 236.64479 30.503124 236.05104Q30.503124 235.42604 30.05 235.00417Q29.596874 234.56667 28.878124 234.56667Q28.1125 234.56667 27.659374 235.01979Q27.20625 235.47292 27.190624 236.28542L26.1125 236.17604Q26.221874 234.95729 26.940624 234.33229Q27.675 233.69167 28.909374 233.69167Q30.14375 233.69167 30.8625 234.37917Q31.58125 235.06667 31.58125 236.08229Q31.58125 236.59792 31.3625 237.09792Q31.159374 237.58229 30.659374 238.14479Q30.175 238.69167 29.05 239.64479Q28.096874 240.44167 27.815624 240.73854Q27.55 241.01979 27.378124 241.30104L31.596874 241.30104ZM33.05 240.06667L34.159374 239.97292Q34.284374 240.78542 34.721874 241.19167Q35.175 241.59792 35.815624 241.59792Q36.565624 241.59792 37.096874 241.01979Q37.628124 240.44167 37.628124 239.50417Q37.628124 238.59792 37.1125 238.08229Q36.6125 237.55104 35.784374 237.55104Q35.284374 237.55104 34.8625 237.78542Q34.45625 238.01979 34.221874 238.37917L33.2375 238.25417L34.065624 233.84792L38.346874 233.84792L38.346874 234.84792L34.909374 234.84792L34.45625 237.16042Q35.221874 236.61354 36.065624 236.61354Q37.190624 236.61354 37.95625 237.39479Q38.7375 238.17604 38.7375 239.41042Q38.7375 240.56667 38.065624 241.42604Q37.2375 242.45729 35.815624 242.45729Q34.64375 242.45729 33.89375 241.80104Q33.159374 241.14479 33.05 240.06667Z" fill-rule="nonzero"/><path fill="#000000" d="M26.05 177.93333L27.159374 177.83958Q27.284374 178.65208 27.721874 179.05833Q28.175 179.46458 28.815624 179.46458Q29.565624 179.46458 30.096874 178.88646Q30.628124 178.30833 30.628124 177.37083Q30.628124 176.46458 30.1125 175.94896Q29.6125 175.41771 28.784374 175.41771Q28.284374 175.41771 27.8625 175.65208Q27.45625 175.88646 27.221874 176.24583L26.2375 176.12083L27.065624 171.71458L31.346874 171.71458L31.346874 172.71458L27.909374 172.71458L27.45625 175.02708Q28.221874 174.48021 29.065624 174.48021Q30.190624 174.48021 30.95625 175.26146Q31.7375 176.04271 31.7375 177.27708Q31.7375 178.43333 31.065624 179.29271Q30.2375 180.32396 28.815624 180.32396Q27.64375 180.32396 26.89375 179.66771Q26.159374 179.01146 26.05 177.93333ZM33.05 175.94896Q33.05 174.41771 33.3625 173.49583Q33.675 172.55833 34.284374 172.05833Q34.909374 171.55833 35.846874 171.55833Q36.534374 171.55833 37.05 171.83958Q37.58125 172.12083 37.925 172.65208Q38.26875 173.16771 38.45625 173.91771Q38.64375 174.66771 38.64375 175.94896Q38.64375 177.46458 38.33125 178.38646Q38.034374 179.30833 37.409374 179.82396Q36.8 180.32396 35.846874 180.32396Q34.6125 180.32396 33.89375 179.43333Q33.05 178.37083 33.05 175.94896ZM34.128124 175.94896Q34.128124 178.05833 34.628124 178.76146Q35.128124 179.46458 35.846874 179.46458Q36.58125 179.46458 37.065624 178.76146Q37.565624 178.05833 37.565624 175.94896Q37.565624 173.82396 37.065624 173.13646Q36.58125 172.43333 35.83125 172.43333Q35.1125 172.43333 34.675 173.04271Q34.128124 173.82396 34.128124 175.94896Z" fill-rule="nonzero"/><path fill="#000000" d="M26.1125 110.58125L26.1125 109.56563L31.675 109.56563L31.675 110.39375Q30.8625 111.26875 30.05 112.72188Q29.253124 114.15938 28.815624 115.69063Q28.4875 116.76875 28.409374 118.05L27.315624 118.05Q27.33125 117.03438 27.70625 115.59688Q28.096874 114.15938 28.8 112.83125Q29.51875 111.50313 30.33125 110.58125L26.1125 110.58125ZM33.05 115.8L34.159374 115.70625Q34.284374 116.51875 34.721874 116.925Q35.175 117.33125 35.815624 117.33125Q36.565624 117.33125 37.096874 116.75313Q37.628124 116.175 37.628124 115.2375Q37.628124 114.33125 37.1125 113.81563Q36.6125 113.28438 35.784374 113.28438Q35.284374 113.28438 34.8625 113.51875Q34.45625 113.75313 34.221874 114.1125L33.2375 113.9875L34.065624 109.58125L38.346874 109.58125L38.346874 110.58125L34.909374 110.58125L34.45625 112.89375Q35.221874 112.34688 36.065624 112.34688Q37.190624 112.34688 37.95625 113.12813Q38.7375 113.90938 38.7375 115.14375Q38.7375 116.3 38.065624 117.15938Q37.2375 118.19063 35.815624 118.19063Q34.64375 118.19063 33.89375 117.53438Q33.159374 116.87813 33.05 115.8Z" fill-rule="nonzero"/><path fill="#000000" d="M23.01875 55.916668L21.971874 55.916668L21.971874 49.197918Q21.58125 49.557293 20.95625 49.932293Q20.346874 50.291668 19.8625 50.463543L19.8625 49.447918Q20.7375 49.026043 21.39375 48.447918Q22.065624 47.854168 22.346874 47.291668L23.01875 47.291668L23.01875 55.916668ZM26.05 51.682293Q26.05 50.151043 26.3625 49.229168Q26.675 48.291668 27.284374 47.791668Q27.909374 47.291668 28.846874 47.291668Q29.534374 47.291668 30.05 47.572918Q30.58125 47.854168 30.925 48.385418Q31.26875 48.901043 31.45625 49.651043Q31.64375 50.401043 31.64375 51.682293Q31.64375 53.197918 31.33125 54.119793Q31.034374 55.041668 30.409374 55.557293Q29.8 56.057293 28.846874 56.057293Q27.6125 56.057293 26.89375 55.166668Q26.05 54.104168 26.05 51.682293ZM27.128124 51.682293Q27.128124 53.791668 27.628124 54.494793Q28.128124 55.197918 28.846874 55.197918Q29.58125 55.197918 30.065624 54.494793Q30.565624 53.791668 30.565624 51.682293Q30.565624 49.557293 30.065624 48.869793Q29.58125 48.166668 28.83125 48.166668Q28.1125 48.166668 27.675 48.776043Q27.128124 49.557293 27.128124 51.682293ZM33.05 51.682293Q33.05 50.151043 33.3625 49.229168Q33.675 48.291668 34.284374 47.791668Q34.909374 47.291668 35.846874 47.291668Q36.534374 47.291668 37.05 47.572918Q37.58125 47.854168 37.925 48.385418Q38.26875 48.901043 38.45625 49.651043Q38.64375 50.401043 38.64375 51.682293Q38.64375 53.197918 38.33125 54.119793Q38.034374 55.041668 37.409374 55.557293Q36.8 56.057293 35.846874 56.057293Q34.6125 56.057293 33.89375 55.166668Q33.05 54.104168 33.05 51.682293ZM34.128124 51.682293Q34.128124 53.791668 34.628124 54.494793Q35.128124 55.197918 35.846874 55.197918Q36.58125 55.197918 37.065624 54.494793Q37.565624 53.791668 37.565624 51.682293Q37.565624 49.557293 37.065624 48.869793Q36.58125 48.166668 35.83125 48.166668Q35.1125 48.166668 34.675 48.776043Q34.128124 49.557293 34.128124 51.682293Z" fill-rule="nonzero"/><path fill="#000000" d="M46.51875 317.45L45.471874 317.45L45.471874 310.73126Q45.08125 311.09064 44.45625 311.46564Q43.846874 311.825 43.3625 311.9969L43.3625 310.98126Q44.2375 310.5594 44.89375 309.98126Q45.565624 309.3875 45.846874 308.825L46.51875 308.825L46.51875 317.45Z" fill-rule="nonzero"/><path fill="#000000" d="M155.27687 316.4344L155.27687 317.45L149.58937 317.45Q149.58937 317.075 149.71437 316.71564Q149.93312 316.1375 150.40187 315.575Q150.88625 315.0125 151.7925 314.27814Q153.19875 313.1219 153.68312 312.45Q154.18312 311.77814 154.18312 311.1844Q154.18312 310.5594 153.73 310.1375Q153.27687 309.7 152.55812 309.7Q151.7925 309.7 151.33937 310.15314Q150.88625 310.60626 150.87062 311.41876L149.7925 311.3094Q149.90187 310.09064 150.62062 309.46564Q151.355 308.825 152.58937 308.825Q153.82375 308.825 154.5425 309.5125Q155.26125 310.2 155.26125 311.21564Q155.26125 311.73126 155.0425 312.23126Q154.83937 312.71564 154.33937 313.27814Q153.855 313.825 152.73 314.77814Q151.77687 315.575 151.49562 315.8719Q151.23 316.15314 151.05812 316.4344L155.27687 316.4344Z" fill-rule="nonzero"/><path fill="#000000" d="M256.91 315.1844L257.9725 315.04376Q258.14438 315.9344 258.58188 316.34064Q259.01938 316.73126 259.64438 316.73126Q260.39438 316.73126 260.91 316.21564Q261.42563 315.7 261.42563 314.9344Q261.42563 314.21564 260.94125 313.7469Q260.4725 313.2625 259.73813 313.2625Q259.44125 313.2625 258.98813 313.3875L259.11313 312.45Q259.2225 312.46564 259.285 312.46564Q259.95688 312.46564 260.48813 312.1219Q261.035 311.7625 261.035 311.02814Q261.035 310.45 260.64438 310.075Q260.25375 309.6844 259.62875 309.6844Q259.01938 309.6844 258.5975 310.075Q258.19125 310.46564 258.08188 311.23126L257.01938 311.04376Q257.20688 309.9969 257.89438 309.41876Q258.58188 308.825 259.5975 308.825Q260.30063 308.825 260.89438 309.1375Q261.48813 309.4344 261.80063 309.95Q262.11313 310.46564 262.11313 311.0594Q262.11313 311.60626 261.81625 312.075Q261.51938 312.52814 260.94125 312.79376Q261.69125 312.96564 262.11313 313.52814Q262.535 314.075 262.535 314.91876Q262.535 316.04376 261.70688 316.825Q260.89438 317.60626 259.64438 317.60626Q258.51938 317.60626 257.76938 316.9344Q257.01938 316.2469 256.91 315.1844Z" fill-rule="nonzero"/><path fill="#000000" d="M367.465 317.45L367.465 315.3875L363.74625 315.3875L363.74625 314.41876L367.66812 308.85626L368.5275 308.85626L368.5275 314.41876L369.68375 314.41876L369.68375 315.3875L368.5275 315.3875L368.5275 317.45L367.465 317.45ZM367.465 314.41876L367.465 310.5594L364.7775 314.41876L367.465 314.41876Z" fill-rule="nonzero"/><path fill="#000000" d="M471.27 315.2L472.37936 315.10626Q472.50436 315.91876 472.94186 316.325Q473.395 316.73126 474.0356 316.73126Q474.7856 316.73126 475.31686 316.15314Q475.8481 315.575 475.8481 314.6375Q475.8481 313.73126 475.3325 313.21564Q474.8325 312.6844 474.00436 312.6844Q473.50436 312.6844 473.0825 312.91876Q472.67624 313.15314 472.44186 313.5125L471.4575 313.3875L472.2856 308.98126L476.56686 308.98126L476.56686 309.98126L473.12936 309.98126L472.67624 312.29376Q473.44186 311.7469 474.2856 311.7469Q475.4106 311.7469 476.17624 312.52814Q476.9575 313.3094 476.9575 314.54376Q476.9575 315.7 476.2856 316.5594Q475.4575 317.59064 474.0356 317.59064Q472.86374 317.59064 472.11374 316.9344Q471.37936 316.27814 471.27 315.2Z" fill-rule="nonzero"/><path fill="#000000" d="M583.91876 310.96564L582.8719 311.04376Q582.73126 310.41876 582.48126 310.1375Q582.04376 309.6844 581.41876 309.6844Q580.91876 309.6844 580.52814 309.96564Q580.04376 310.34064 579.7469 311.04376Q579.46564 311.73126 579.45 313.0125Q579.825 312.4344 580.3719 312.15314Q580.9344 311.8719 581.54376 311.8719Q582.59064 311.8719 583.325 312.65314Q584.075 313.4344 584.075 314.65314Q584.075 315.46564 583.71564 316.16876Q583.3719 316.85626 582.7625 317.23126Q582.15314 317.59064 581.3875 317.59064Q580.0594 317.59064 579.23126 316.6219Q578.40314 315.65314 578.40314 313.4344Q578.40314 310.9344 579.325 309.8094Q580.1219 308.825 581.48126 308.825Q582.4969 308.825 583.1375 309.40314Q583.79376 309.96564 583.91876 310.96564ZM579.6219 314.66876Q579.6219 315.21564 579.84064 315.71564Q580.075 316.2 580.48126 316.46564Q580.90314 316.73126 581.3719 316.73126Q582.02814 316.73126 582.5125 316.2Q582.9969 315.65314 582.9969 314.73126Q582.9969 313.84064 582.5125 313.325Q582.04376 312.8094 581.325 312.8094Q580.60626 312.8094 580.10626 313.325Q579.6219 313.84064 579.6219 314.66876Z" fill-rule="nonzero"/><path stroke="#4285f4" stroke-width="4.0" stroke-linecap="butt" d="M145.0 25.55L157.0 25.55" fill-rule="nonzero"/><path fill="#1a1a1a" d="M172.4375 28.628124Q173.23438 29.175 173.89062 29.425L173.5625 30.221874Q172.64062 29.878124 171.71875 29.159374Q170.76562 29.690624 169.60938 29.690624Q168.4375 29.690624 167.48438 29.128124Q166.54688 28.565624 166.03125 27.55Q165.51562 26.534374 165.51562 25.253124Q165.51562 23.9875 166.03125 22.940624Q166.54688 21.89375 167.5 21.346874Q168.45312 20.8 169.625 20.8Q170.8125 20.8 171.76562 21.378124Q172.73438 21.940624 173.23438 22.95625Q173.73438 23.971874 173.73438 25.253124Q173.73438 26.315624 173.40625 27.159374Q173.09375 28.003124 172.4375 28.628124ZM169.9375 27.175Q170.92188 27.45625 171.5625 28.003124Q172.5625 27.08125 172.5625 25.253124Q172.5625 24.20625 172.20312 23.425Q171.84375 22.64375 171.15625 22.221874Q170.48438 21.784374 169.64062 21.784374Q168.35938 21.784374 167.51562 22.659374Q166.6875 23.51875 166.6875 25.253124Q166.6875 26.925 167.51562 27.83125Q168.34375 28.721874 169.64062 28.721874Q170.25 28.721874 170.78125 28.4875Q170.25 28.14375 169.65625 28.003124L169.9375 27.175ZM178.875 29.55L178.875 28.628124Q178.14062 29.690624 176.89062 29.690624Q176.34375 29.690624 175.85938 29.4875Q175.39062 29.26875 175.15625 28.95625Q174.92188 28.628124 174.82812 28.159374Q174.76562 27.8625 174.76562 27.175L174.76562 23.33125L175.82812 23.33125L175.82812 26.784374Q175.82812 27.596874 175.89062 27.89375Q175.98438 28.3 176.29688 28.55Q176.625 28.784374 177.10938 28.784374Q177.57812 28.784374 177.98438 28.55Q178.40625 28.3 178.57812 27.878124Q178.76562 27.45625 178.76562 26.659374L178.76562 23.33125L179.8125 23.33125L179.8125 29.55L178.875 29.55ZM185.85938 28.784374Q185.26562 29.284374 184.71875 29.4875Q184.1875 29.690624 183.5625 29.690624Q182.53125 29.690624 181.98438 29.190624Q181.4375 28.690624 181.4375 27.909374Q181.4375 27.45625 181.64062 27.08125Q181.84375 26.690624 182.1875 26.471874Q182.53125 26.2375 182.95312 26.128124Q183.25 26.034374 183.89062 25.95625Q185.15625 25.815624 185.76562 25.596874Q185.76562 25.378124 185.76562 25.33125Q185.76562 24.675 185.46875 24.409374Q185.0625 24.065624 184.26562 24.065624Q183.53125 24.065624 183.17188 24.33125Q182.8125 24.58125 182.64062 25.2375L181.60938 25.096874Q181.75 24.440624 182.07812 24.034374Q182.40625 23.628124 183.01562 23.409374Q183.625 23.190624 184.42188 23.190624Q185.21875 23.190624 185.71875 23.378124Q186.21875 23.565624 186.45312 23.846874Q186.6875 24.128124 186.78125 24.565624Q186.82812 24.83125 186.82812 25.534374L186.82812 26.940624Q186.82812 28.409374 186.89062 28.8Q186.96875 29.190624 187.17188 29.55L186.0625 29.55Q185.90625 29.221874 185.85938 28.784374ZM185.76562 26.425Q185.1875 26.659374 184.04688 26.83125Q183.39062 26.925 183.125 27.05Q182.85938 27.159374 182.70312 27.378124Q182.5625 27.596874 182.5625 27.878124Q182.5625 28.3 182.875 28.58125Q183.20312 28.8625 183.8125 28.8625Q184.42188 28.8625 184.89062 28.596874Q185.375 28.33125 185.59375 27.8625Q185.76562 27.503124 185.76562 26.815624L185.76562 26.425ZM188.76562 29.55L188.76562 20.95625L189.82812 20.95625L189.82812 29.55L188.76562 29.55ZM191.79688 22.175L191.79688 20.95625L192.85938 20.95625L192.85938 22.175L191.79688 22.175ZM191.79688 29.55L191.79688 23.33125L192.85938 23.33125L192.85938 29.55L191.79688 29.55ZM198.82812 29.55L198.82812 28.76875Q198.23438 29.690624 197.09375 29.690624Q196.34375 29.690624 195.71875 29.284374Q195.09375 28.8625 194.75 28.128124Q194.40625 27.39375 194.40625 26.440624Q194.40625 25.51875 194.71875 24.753124Q195.03125 23.9875 195.65625 23.596874Q196.28125 23.190624 197.04688 23.190624Q197.60938 23.190624 198.04688 23.425Q198.48438 23.659374 198.76562 24.034374L198.76562 20.95625L199.8125 20.95625L199.8125 29.55L198.82812 29.55ZM195.5 26.440624Q195.5 27.64375 196.0 28.2375Q196.5 28.815624 197.1875 28.815624Q197.875 28.815624 198.35938 28.253124Q198.84375 27.690624 198.84375 26.534374Q198.84375 25.253124 198.34375 24.659374Q197.85938 24.065624 197.14062 24.065624Q196.4375 24.065624 195.96875 24.64375Q195.5 25.20625 195.5 26.440624ZM205.85938 28.784374Q205.26562 29.284374 204.71875 29.4875Q204.1875 29.690624 203.5625 29.690624Q202.53125 29.690624 201.98438 29.190624Q201.4375 28.690624 201.4375 27.909374Q201.4375 27.45625 201.64062 27.08125Q201.84375 26.690624 202.1875 26.471874Q202.53125 26.2375 202.95312 26.128124Q203.25 26.034374 203.89062 25.95625Q205.15625 25.815624 205.76562 25.596874Q205.76562 25.378124 205.76562 25.33125Q205.76562 24.675 205.46875 24.409374Q205.0625 24.065624 204.26562 24.065624Q203.53125 24.065624 203.17188 24.33125Q202.8125 24.58125 202.64062 25.2375L201.60938 25.096874Q201.75 24.440624 202.07812 24.034374Q202.40625 23.628124 203.01562 23.409374Q203.625 23.190624 204.42188 23.190624Q205.21875 23.190624 205.71875 23.378124Q206.21875 23.565624 206.45312 23.846874Q206.6875 24.128124 206.78125 24.565624Q206.82812 24.83125 206.82812 25.534374L206.82812 26.940624Q206.82812 28.409374 206.89062 28.8Q206.96875 29.190624 207.17188 29.55L206.0625 29.55Q205.90625 29.221874 205.85938 28.784374ZM205.76562 26.425Q205.1875 26.659374 204.04688 26.83125Q203.39062 26.925 203.125 27.05Q202.85938 27.159374 202.70312 27.378124Q202.5625 27.596874 202.5625 27.878124Q202.5625 28.3 202.875 28.58125Q203.20312 28.8625 203.8125 28.8625Q204.42188 28.8625 204.89062 28.596874Q205.375 28.33125 205.59375 27.8625Q205.76562 27.503124 205.76562 26.815624L205.76562 26.425ZM212.82812 29.55L212.82812 28.76875Q212.23438 29.690624 211.09375 29.690624Q210.34375 29.690624 209.71875 29.284374Q209.09375 28.8625 208.75 28.128124Q208.40625 27.39375 208.40625 26.440624Q208.40625 25.51875 208.71875 24.753124Q209.03125 23.9875 209.65625 23.596874Q210.28125 23.190624 211.04688 23.190624Q211.60938 23.190624 212.04688 23.425Q212.48438 23.659374 212.76562 24.034374L212.76562 20.95625L213.8125 20.95625L213.8125 29.55L212.82812 29.55ZM209.5 26.440624Q209.5 27.64375 210.0 28.2375Q210.5 28.815624 211.1875 28.815624Q211.875 28.815624 212.35938 28.253124Q212.84375 27.690624 212.84375 26.534374Q212.84375 25.253124 212.34375 24.659374Q211.85938 24.065624 211.14062 24.065624Q210.4375 24.065624 209.96875 24.64375Q209.5 25.20625 209.5 26.440624ZM220.04688 27.55L221.14062 27.675Q220.89062 28.628124 220.1875 29.159374Q219.48438 29.690624 218.40625 29.690624Q217.04688 29.690624 216.23438 28.846874Q215.4375 28.003124 215.4375 26.4875Q215.4375 24.925 216.25 24.065624Q217.0625 23.190624 218.34375 23.190624Q219.59375 23.190624 220.375 24.034374Q221.17188 24.878124 221.17188 26.425Q221.17188 26.51875 221.17188 26.70625L216.53125 26.70625Q216.59375 27.7375 217.10938 28.284374Q217.625 28.815624 218.40625 28.815624Q218.98438 28.815624 219.39062 28.51875Q219.8125 28.20625 220.04688 27.55ZM216.59375 25.846874L220.0625 25.846874Q220.0 25.05 219.67188 24.659374Q219.15625 24.05 218.35938 24.05Q217.625 24.05 217.125 24.534374Q216.64062 25.01875 216.59375 25.846874ZM226.125 29.55L226.125 20.95625L227.25 20.95625L227.25 29.55L226.125 29.55ZM228.79688 29.55L228.79688 23.33125L229.73438 23.33125L229.73438 24.20625Q230.42188 23.190624 231.71875 23.190624Q232.28125 23.190624 232.75 23.39375Q233.23438 23.596874 233.46875 23.925Q233.70312 24.253124 233.79688 24.690624Q233.84375 24.9875 233.84375 25.721874L233.84375 29.55L232.79688 29.55L232.79688 25.76875Q232.79688 25.1125 232.67188 24.8Q232.54688 24.4875 232.23438 24.3Q231.92188 24.096874 231.5 24.096874Q230.82812 24.096874 230.32812 24.534374Q229.84375 24.95625 229.84375 26.14375L229.84375 29.55L228.79688 29.55ZM238.09375 28.6125L238.25 29.534374Q237.79688 29.628124 237.45312 29.628124Q236.875 29.628124 236.5625 29.45625Q236.25 29.26875 236.10938 28.971874Q235.98438 28.675 235.98438 27.721874L235.98438 24.14375L235.21875 24.14375L235.21875 23.33125L235.98438 23.33125L235.98438 21.784374L237.03125 21.159374L237.03125 23.33125L238.09375 23.33125L238.09375 24.14375L237.03125 24.14375L237.03125 27.784374Q237.03125 28.2375 237.07812 28.3625Q237.14062 28.4875 237.26562 28.565624Q237.39062 28.64375 237.625 28.64375Q237.8125 28.64375 238.09375 28.6125ZM243.04688 27.55L244.14062 27.675Q243.89062 28.628124 243.1875 29.159374Q242.48438 29.690624 241.40625 29.690624Q240.04688 29.690624 239.23438 28.846874Q238.4375 28.003124 238.4375 26.4875Q238.4375 24.925 239.25 24.065624Q240.0625 23.190624 241.34375 23.190624Q242.59375 23.190624 243.375 24.034374Q244.17188 24.878124 244.17188 26.425Q244.17188 26.51875 244.17188 26.70625L239.53125 26.70625Q239.59375 27.7375 240.10938 28.284374Q240.625 28.815624 241.40625 28.815624Q241.98438 28.815624 242.39062 28.51875Q242.8125 28.20625 243.04688 27.55ZM239.59375 25.846874L243.0625 25.846874Q243.0 25.05 242.67188 24.659374Q242.15625 24.05 241.35938 24.05Q240.625 24.05 240.125 24.534374Q239.64062 25.01875 239.59375 25.846874ZM245.78125 29.55L245.78125 23.33125L246.73438 23.33125L246.73438 24.26875Q247.09375 23.6125 247.39062 23.409374Q247.70312 23.190624 248.07812 23.190624Q248.60938 23.190624 249.15625 23.51875L248.79688 24.503124Q248.40625 24.26875 248.03125 24.26875Q247.67188 24.26875 247.39062 24.4875Q247.125 24.690624 247.01562 25.065624Q246.82812 25.628124 246.82812 26.284374L246.82812 29.55L245.78125 29.55ZM249.79688 29.55L249.79688 23.33125L250.73438 23.33125L250.73438 24.20625Q251.42188 23.190624 252.71875 23.190624Q253.28125 23.190624 253.75 23.39375Q254.23438 23.596874 254.46875 23.925Q254.70312 24.253124 254.79688 24.690624Q254.84375 24.9875 254.84375 25.721874L254.84375 29.55L253.79688 29.55L253.79688 25.76875Q253.79688 25.1125 253.67188 24.8Q253.54688 24.4875 253.23438 24.3Q252.92188 24.096874 252.5 24.096874Q251.82812 24.096874 251.32812 24.534374Q250.84375 24.95625 250.84375 26.14375L250.84375 29.55L249.79688 29.55ZM260.85938 28.784374Q260.26562 29.284374 259.71875 29.4875Q259.1875 29.690624 258.5625 29.690624Q257.53125 29.690624 256.98438 29.190624Q256.4375 28.690624 256.4375 27.909374Q256.4375 27.45625 256.64062 27.08125Q256.84375 26.690624 257.1875 26.471874Q257.53125 26.2375 257.95312 26.128124Q258.25 26.034374 258.89062 25.95625Q260.15625 25.815624 260.76562 25.596874Q260.76562 25.378124 260.76562 25.33125Q260.76562 24.675 260.46875 24.409374Q260.0625 24.065624 259.26562 24.065624Q258.53125 24.065624 258.17188 24.33125Q257.8125 24.58125 257.64062 25.2375L256.60938 25.096874Q256.75 24.440624 257.07812 24.034374Q257.40625 23.628124 258.01562 23.409374Q258.625 23.190624 259.42188 23.190624Q260.21875 23.190624 260.71875 23.378124Q261.21875 23.565624 261.45312 23.846874Q261.6875 24.128124 261.78125 24.565624Q261.82812 24.83125 261.82812 25.534374L261.82812 26.940624Q261.82812 28.409374 261.89062 28.8Q261.96875 29.190624 262.17188 29.55L261.0625 29.55Q260.90625 29.221874 260.85938 28.784374ZM260.76562 26.425Q260.1875 26.659374 259.04688 26.83125Q258.39062 26.925 258.125 27.05Q257.85938 27.159374 257.70312 27.378124Q257.5625 27.596874 257.5625 27.878124Q257.5625 28.3 257.875 28.58125Q258.20312 28.8625 258.8125 28.8625Q259.42188 28.8625 259.89062 28.596874Q260.375 28.33125 260.59375 27.8625Q260.76562 27.503124 260.76562 26.815624L260.76562 26.425ZM271.04688 27.55L272.14062 27.675Q271.89062 28.628124 271.1875 29.159374Q270.48438 29.690624 269.40625 29.690624Q268.04688 29.690624 267.23438 28.846874Q266.4375 28.003124 266.4375 26.4875Q266.4375 24.925 267.25 24.065624Q268.0625 23.190624 269.34375 23.190624Q270.59375 23.190624 271.375 24.034374Q272.17188 24.878124 272.17188 26.425Q272.17188 26.51875 272.17188 26.70625L267.53125 26.70625Q267.59375 27.7375 268.10938 28.284374Q268.625 28.815624 269.40625 28.815624Q269.98438 28.815624 270.39062 28.51875Q270.8125 28.20625 271.04688 27.55ZM267.59375 25.846874L271.0625 25.846874Q271.0 25.05 270.67188 24.659374Q270.15625 24.05 269.35938 24.05Q268.625 24.05 268.125 24.534374Q267.64062 25.01875 267.59375 25.846874ZM276.95312 29.55L276.95312 20.95625L283.15625 20.95625L283.15625 21.971874L278.09375 21.971874L278.09375 24.596874L282.84375 24.596874L282.84375 25.6125L278.09375 25.6125L278.09375 28.534374L283.35938 28.534374L283.35938 29.55L276.95312 29.55ZM284.09375 29.55L286.35938 26.315624L284.26562 23.33125L285.57812 23.33125L286.53125 24.784374Q286.79688 25.20625 286.96875 25.4875Q287.21875 25.096874 287.4375 24.8L288.48438 23.33125L289.75 23.33125L287.59375 26.253124L289.90625 29.55L288.625 29.55L287.34375 27.6125L287.0 27.096874L285.35938 29.55L284.09375 29.55ZM293.09375 28.6125L293.25 29.534374Q292.79688 29.628124 292.45312 29.628124Q291.875 29.628124 291.5625 29.45625Q291.25 29.26875 291.10938 28.971874Q290.98438 28.675 290.98438 27.721874L290.98438 24.14375L290.21875 24.14375L290.21875 23.33125L290.98438 23.33125L290.98438 21.784374L292.03125 21.159374L292.03125 23.33125L293.09375 23.33125L293.09375 24.14375L292.03125 24.14375L292.03125 27.784374Q292.03125 28.2375 292.07812 28.3625Q292.14062 28.4875 292.26562 28.565624Q292.39062 28.64375 292.625 28.64375Q292.8125 28.64375 293.09375 28.6125ZM298.04688 27.55L299.14062 27.675Q298.89062 28.628124 298.1875 29.159374Q297.48438 29.690624 296.40625 29.690624Q295.04688 29.690624 294.23438 28.846874Q293.4375 28.003124 293.4375 26.4875Q293.4375 24.925 294.25 24.065624Q295.0625 23.190624 296.34375 23.190624Q297.59375 23.190624 298.375 24.034374Q299.17188 24.878124 299.17188 26.425Q299.17188 26.51875 299.17188 26.70625L294.53125 26.70625Q294.59375 27.7375 295.10938 28.284374Q295.625 28.815624 296.40625 28.815624Q296.98438 28.815624 297.39062 28.51875Q297.8125 28.20625 298.04688 27.55ZM294.59375 25.846874L298.0625 25.846874Q298.0 25.05 297.67188 24.659374Q297.15625 24.05 296.35938 24.05Q295.625 24.05 295.125 24.534374Q294.64062 25.01875 294.59375 25.846874ZM300.78125 29.55L300.78125 23.33125L301.73438 23.33125L301.73438 24.26875Q302.09375 23.6125 302.39062 23.409374Q302.70312 23.190624 303.07812 23.190624Q303.60938 23.190624 304.15625 23.51875L303.79688 24.503124Q303.40625 24.26875 303.03125 24.26875Q302.67188 24.26875 302.39062 24.4875Q302.125 24.690624 302.01562 25.065624Q301.82812 25.628124 301.82812 26.284374L301.82812 29.55L300.78125 29.55ZM304.79688 29.55L304.79688 23.33125L305.73438 23.33125L305.73438 24.20625Q306.42188 23.190624 307.71875 23.190624Q308.28125 23.190624 308.75 23.39375Q309.23438 23.596874 309.46875 23.925Q309.70312 24.253124 309.79688 24.690624Q309.84375 24.9875 309.84375 25.721874L309.84375 29.55L308.79688 29.55L308.79688 25.76875Q308.79688 25.1125 308.67188 24.8Q308.54688 24.4875 308.23438 24.3Q307.92188 24.096874 307.5 24.096874Q306.82812 24.096874 306.32812 24.534374Q305.84375 24.95625 305.84375 26.14375L305.84375 29.55L304.79688 29.55ZM315.85938 28.784374Q315.26562 29.284374 314.71875 29.4875Q314.1875 29.690624 313.5625 29.690624Q312.53125 29.690624 311.98438 29.190624Q311.4375 28.690624 311.4375 27.909374Q311.4375 27.45625 311.64062 27.08125Q311.84375 26.690624 312.1875 26.471874Q312.53125 26.2375 312.95312 26.128124Q313.25 26.034374 313.89062 25.95625Q315.15625 25.815624 315.76562 25.596874Q315.76562 25.378124 315.76562 25.33125Q315.76562 24.675 315.46875 24.409374Q315.0625 24.065624 314.26562 24.065624Q313.53125 24.065624 313.17188 24.33125Q312.8125 24.58125 312.64062 25.2375L311.60938 25.096874Q311.75 24.440624 312.07812 24.034374Q312.40625 23.628124 313.01562 23.409374Q313.625 23.190624 314.42188 23.190624Q315.21875 23.190624 315.71875 23.378124Q316.21875 23.565624 316.45312 23.846874Q316.6875 24.128124 316.78125 24.565624Q316.82812 24.83125 316.82812 25.534374L316.82812 26.940624Q316.82812 28.409374 316.89062 28.8Q316.96875 29.190624 317.17188 29.55L316.0625 29.55Q315.90625 29.221874 315.85938 28.784374ZM315.76562 26.425Q315.1875 26.659374 314.04688 26.83125Q313.39062 26.925 313.125 27.05Q312.85938 27.159374 312.70312 27.378124Q312.5625 27.596874 312.5625 27.878124Q312.5625 28.3 312.875 28.58125Q313.20312 28.8625 313.8125 28.8625Q314.42188 28.8625 314.89062 28.596874Q315.375 28.33125 315.59375 27.8625Q315.76562 27.503124 315.76562 26.815624L315.76562 26.425Z" fill-rule="nonzero"/><path stroke="#ea4335" stroke-width="4.0" stroke-linecap="butt" d="M334.0 25.55L346.0 25.55" fill-rule="nonzero"/><path fill="#1a1a1a" d="M354.9375 29.55L354.9375 20.95625L358.75 20.95625Q359.90625 20.95625 360.5 21.190624Q361.09375 21.425 361.45312 22.01875Q361.8125 22.596874 361.8125 23.3Q361.8125 24.221874 361.21875 24.846874Q360.625 25.471874 359.39062 25.64375Q359.84375 25.8625 360.07812 26.065624Q360.57812 26.51875 361.01562 27.20625L362.51562 29.55L361.07812 29.55L359.95312 27.76875Q359.45312 26.9875 359.125 26.58125Q358.8125 26.175 358.54688 26.01875Q358.29688 25.846874 358.03125 25.76875Q357.84375 25.7375 357.40625 25.7375L356.07812 25.7375L356.07812 29.55L354.9375 29.55ZM356.07812 24.753124L358.53125 24.753124Q359.29688 24.753124 359.73438 24.596874Q360.1875 24.425 360.40625 24.08125Q360.64062 23.721874 360.64062 23.3Q360.64062 22.690624 360.1875 22.3Q359.75 21.909374 358.79688 21.909374L356.07812 21.909374L356.07812 24.753124ZM363.79688 22.175L363.79688 20.95625L364.85938 20.95625L364.85938 22.175L363.79688 22.175ZM363.79688 29.55L363.79688 23.33125L364.85938 23.33125L364.85938 29.55L363.79688 29.55ZM366.375 27.690624L367.40625 27.534374Q367.5 28.159374 367.89062 28.4875Q368.29688 28.815624 369.03125 28.815624Q369.75 28.815624 370.09375 28.534374Q370.45312 28.2375 370.45312 27.83125Q370.45312 27.471874 370.14062 27.26875Q369.92188 27.128124 369.0625 26.909374Q367.90625 26.6125 367.45312 26.409374Q367.01562 26.190624 366.78125 25.815624Q366.54688 25.440624 366.54688 24.971874Q366.54688 24.565624 366.73438 24.20625Q366.92188 23.846874 367.25 23.6125Q367.5 23.440624 367.92188 23.315624Q368.34375 23.190624 368.84375 23.190624Q369.5625 23.190624 370.10938 23.409374Q370.67188 23.6125 370.9375 23.971874Q371.20312 24.33125 371.29688 24.925L370.26562 25.065624Q370.20312 24.596874 369.85938 24.33125Q369.53125 24.05 368.90625 24.05Q368.1875 24.05 367.875 24.3Q367.5625 24.534374 367.5625 24.8625Q367.5625 25.065624 367.6875 25.221874Q367.82812 25.39375 368.09375 25.503124Q368.25 25.565624 369.03125 25.76875Q370.15625 26.08125 370.59375 26.26875Q371.03125 26.45625 371.28125 26.815624Q371.53125 27.175 371.53125 27.721874Q371.53125 28.253124 371.21875 28.721874Q370.92188 29.175 370.34375 29.440624Q369.76562 29.690624 369.03125 29.690624Q367.8125 29.690624 367.17188 29.190624Q366.54688 28.675 366.375 27.690624ZM376.85938 27.26875L377.89062 27.409374Q377.71875 28.471874 377.01562 29.08125Q376.3125 29.690624 375.29688 29.690624Q374.01562 29.690624 373.23438 28.8625Q372.46875 28.01875 372.46875 26.45625Q372.46875 25.45625 372.79688 24.70625Q373.14062 23.940624 373.8125 23.565624Q374.5 23.190624 375.3125 23.190624Q376.3125 23.190624 376.95312 23.70625Q377.60938 24.20625 377.79688 25.159374L376.76562 25.315624Q376.625 24.690624 376.25 24.378124Q375.875 24.05 375.34375 24.05Q374.54688 24.05 374.04688 24.628124Q373.54688 25.190624 373.54688 26.425Q373.54688 27.690624 374.03125 28.253124Q374.51562 28.815624 375.28125 28.815624Q375.90625 28.815624 376.3125 28.440624Q376.73438 28.065624 376.85938 27.26875ZM378.40625 26.440624Q378.40625 24.70625 379.35938 23.878124Q380.15625 23.190624 381.3125 23.190624Q382.59375 23.190624 383.40625 24.034374Q384.23438 24.8625 384.23438 26.346874Q384.23438 27.55 383.875 28.2375Q383.51562 28.925 382.8125 29.315624Q382.125 29.690624 381.3125 29.690624Q380.01562 29.690624 379.20312 28.8625Q378.40625 28.01875 378.40625 26.440624ZM379.48438 26.440624Q379.48438 27.628124 380.0 28.221874Q380.53125 28.815624 381.3125 28.815624Q382.10938 28.815624 382.625 28.221874Q383.14062 27.628124 383.14062 26.409374Q383.14062 25.253124 382.60938 24.659374Q382.09375 24.065624 381.3125 24.065624Q380.53125 24.065624 380.0 24.659374Q379.48438 25.2375 379.48438 26.440624ZM392.82812 29.55L392.82812 28.76875Q392.23438 29.690624 391.09375 29.690624Q390.34375 29.690624 389.71875 29.284374Q389.09375 28.8625 388.75 28.128124Q388.40625 27.39375 388.40625 26.440624Q388.40625 25.51875 388.71875 24.753124Q389.03125 23.9875 389.65625 23.596874Q390.28125 23.190624 391.04688 23.190624Q391.60938 23.190624 392.04688 23.425Q392.48438 23.659374 392.76562 24.034374L392.76562 20.95625L393.8125 20.95625L393.8125 29.55L392.82812 29.55ZM389.5 26.440624Q389.5 27.64375 390.0 28.2375Q390.5 28.815624 391.1875 28.815624Q391.875 28.815624 392.35938 28.253124Q392.84375 27.690624 392.84375 26.534374Q392.84375 25.253124 392.34375 24.659374Q391.85938 24.065624 391.14062 24.065624Q390.4375 24.065624 389.96875 24.64375Q389.5 25.20625 389.5 26.440624ZM400.04688 27.55L401.14062 27.675Q400.89062 28.628124 400.1875 29.159374Q399.48438 29.690624 398.40625 29.690624Q397.04688 29.690624 396.23438 28.846874Q395.4375 28.003124 395.4375 26.4875Q395.4375 24.925 396.25 24.065624Q397.0625 23.190624 398.34375 23.190624Q399.59375 23.190624 400.375 24.034374Q401.17188 24.878124 401.17188 26.425Q401.17188 26.51875 401.17188 26.70625L396.53125 26.70625Q396.59375 27.7375 397.10938 28.284374Q397.625 28.815624 398.40625 28.815624Q398.98438 28.815624 399.39062 28.51875Q399.8125 28.20625 400.04688 27.55ZM396.59375 25.846874L400.0625 25.846874Q400.0 25.05 399.67188 24.659374Q399.15625 24.05 398.35938 24.05Q397.625 24.05 397.125 24.534374Q396.64062 25.01875 396.59375 25.846874ZM405.98438 29.55L405.98438 20.95625L411.78125 20.95625L411.78125 21.971874L407.125 21.971874L407.125 24.628124L411.15625 24.628124L411.15625 25.64375L407.125 25.64375L407.125 29.55L405.98438 29.55ZM412.78125 29.55L412.78125 23.33125L413.73438 23.33125L413.73438 24.26875Q414.09375 23.6125 414.39062 23.409374Q414.70312 23.190624 415.07812 23.190624Q415.60938 23.190624 416.15625 23.51875L415.79688 24.503124Q415.40625 24.26875 415.03125 24.26875Q414.67188 24.26875 414.39062 24.4875Q414.125 24.690624 414.01562 25.065624Q413.82812 25.628124 413.82812 26.284374L413.82812 29.55L412.78125 29.55ZM420.85938 28.784374Q420.26562 29.284374 419.71875 29.4875Q419.1875 29.690624 418.5625 29.690624Q417.53125 29.690624 416.98438 29.190624Q416.4375 28.690624 416.4375 27.909374Q416.4375 27.45625 416.64062 27.08125Q416.84375 26.690624 417.1875 26.471874Q417.53125 26.2375 417.95312 26.128124Q418.25 26.034374 418.89062 25.95625Q420.15625 25.815624 420.76562 25.596874Q420.76562 25.378124 420.76562 25.33125Q420.76562 24.675 420.46875 24.409374Q420.0625 24.065624 419.26562 24.065624Q418.53125 24.065624 418.17188 24.33125Q417.8125 24.58125 417.64062 25.2375L416.60938 25.096874Q416.75 24.440624 417.07812 24.034374Q417.40625 23.628124 418.01562 23.409374Q418.625 23.190624 419.42188 23.190624Q420.21875 23.190624 420.71875 23.378124Q421.21875 23.565624 421.45312 23.846874Q421.6875 24.128124 421.78125 24.565624Q421.82812 24.83125 421.82812 25.534374L421.82812 26.940624Q421.82812 28.409374 421.89062 28.8Q421.96875 29.190624 422.17188 29.55L421.0625 29.55Q420.90625 29.221874 420.85938 28.784374ZM420.76562 26.425Q420.1875 26.659374 419.04688 26.83125Q418.39062 26.925 418.125 27.05Q417.85938 27.159374 417.70312 27.378124Q417.5625 27.596874 417.5625 27.878124Q417.5625 28.3 417.875 28.58125Q418.20312 28.8625 418.8125 28.8625Q419.42188 28.8625 419.89062 28.596874Q420.375 28.33125 420.59375 27.8625Q420.76562 27.503124 420.76562 26.815624L420.76562 26.425ZM427.85938 27.26875L428.89062 27.409374Q428.71875 28.471874 428.01562 29.08125Q427.3125 29.690624 426.29688 29.690624Q425.01562 29.690624 424.23438 28.8625Q423.46875 28.01875 423.46875 26.45625Q423.46875 25.45625 423.79688 24.70625Q424.14062 23.940624 424.8125 23.565624Q425.5 23.190624 426.3125 23.190624Q427.3125 23.190624 427.95312 23.70625Q428.60938 24.20625 428.79688 25.159374L427.76562 25.315624Q427.625 24.690624 427.25 24.378124Q426.875 24.05 426.34375 24.05Q425.54688 24.05 425.04688 24.628124Q424.54688 25.190624 424.54688 26.425Q424.54688 27.690624 425.03125 28.253124Q425.51562 28.815624 426.28125 28.815624Q426.90625 28.815624 427.3125 28.440624Q427.73438 28.065624 427.85938 27.26875ZM433.85938 28.784374Q433.26562 29.284374 432.71875 29.4875Q432.1875 29.690624 431.5625 29.690624Q430.53125 29.690624 429.98438 29.190624Q429.4375 28.690624 429.4375 27.909374Q429.4375 27.45625 429.64062 27.08125Q429.84375 26.690624 430.1875 26.471874Q430.53125 26.2375 430.95312 26.128124Q431.25 26.034374 431.89062 25.95625Q433.15625 25.815624 433.76562 25.596874Q433.76562 25.378124 433.76562 25.33125Q433.76562 24.675 433.46875 24.409374Q433.0625 24.065624 432.26562 24.065624Q431.53125 24.065624 431.17188 24.33125Q430.8125 24.58125 430.64062 25.2375L429.60938 25.096874Q429.75 24.440624 430.07812 24.034374Q430.40625 23.628124 431.01562 23.409374Q431.625 23.190624 432.42188 23.190624Q433.21875 23.190624 433.71875 23.378124Q434.21875 23.565624 434.45312 23.846874Q434.6875 24.128124 434.78125 24.565624Q434.82812 24.83125 434.82812 25.534374L434.82812 26.940624Q434.82812 28.409374 434.89062 28.8Q434.96875 29.190624 435.17188 29.55L434.0625 29.55Q433.90625 29.221874 433.85938 28.784374ZM433.76562 26.425Q433.1875 26.659374 432.04688 26.83125Q431.39062 26.925 431.125 27.05Q430.85938 27.159374 430.70312 27.378124Q430.5625 27.596874 430.5625 27.878124Q430.5625 28.3 430.875 28.58125Q431.20312 28.8625 431.8125 28.8625Q432.42188 28.8625 432.89062 28.596874Q433.375 28.33125 433.59375 27.8625Q433.76562 27.503124 433.76562 26.815624L433.76562 26.425ZM436.375 27.690624L437.40625 27.534374Q437.5 28.159374 437.89062 28.4875Q438.29688 28.815624 439.03125 28.815624Q439.75 28.815624 440.09375 28.534374Q440.45312 28.2375 440.45312 27.83125Q440.45312 27.471874 440.14062 27.26875Q439.92188 27.128124 439.0625 26.909374Q437.90625 26.6125 437.45312 26.409374Q437.01562 26.190624 436.78125 25.815624Q436.54688 25.440624 436.54688 24.971874Q436.54688 24.565624 436.73438 24.20625Q436.92188 23.846874 437.25 23.6125Q437.5 23.440624 437.92188 23.315624Q438.34375 23.190624 438.84375 23.190624Q439.5625 23.190624 440.10938 23.409374Q440.67188 23.6125 440.9375 23.971874Q441.20312 24.33125 441.29688 24.925L440.26562 25.065624Q440.20312 24.596874 439.85938 24.33125Q439.53125 24.05 438.90625 24.05Q438.1875 24.05 437.875 24.3Q437.5625 24.534374 437.5625 24.8625Q437.5625 25.065624 437.6875 25.221874Q437.82812 25.39375 438.09375 25.503124Q438.25 25.565624 439.03125 25.76875Q440.15625 26.08125 440.59375 26.26875Q441.03125 26.45625 441.28125 26.815624Q441.53125 27.175 441.53125 27.721874Q441.53125 28.253124 441.21875 28.721874Q440.92188 29.175 440.34375 29.440624Q439.76562 29.690624 439.03125 29.690624Q437.8125 29.690624 437.17188 29.190624Q436.54688 28.675 436.375 27.690624ZM442.375 27.690624L443.40625 27.534374Q443.5 28.159374 443.89062 28.4875Q444.29688 28.815624 445.03125 28.815624Q445.75 28.815624 446.09375 28.534374Q446.45312 28.2375 446.45312 27.83125Q446.45312 27.471874 446.14062 27.26875Q445.92188 27.128124 445.0625 26.909374Q443.90625 26.6125 443.45312 26.409374Q443.01562 26.190624 442.78125 25.815624Q442.54688 25.440624 442.54688 24.971874Q442.54688 24.565624 442.73438 24.20625Q442.92188 23.846874 443.25 23.6125Q443.5 23.440624 443.92188 23.315624Q444.34375 23.190624 444.84375 23.190624Q445.5625 23.190624 446.10938 23.409374Q446.67188 23.6125 446.9375 23.971874Q447.20312 24.33125 447.29688 24.925L446.26562 25.065624Q446.20312 24.596874 445.85938 24.33125Q445.53125 24.05 444.90625 24.05Q444.1875 24.05 443.875 24.3Q443.5625 24.534374 443.5625 24.8625Q443.5625 25.065624 443.6875 25.221874Q443.82812 25.39375 444.09375 25.503124Q444.25 25.565624 445.03125 25.76875Q446.15625 26.08125 446.59375 26.26875Q447.03125 26.45625 447.28125 26.815624Q447.53125 27.175 447.53125 27.721874Q447.53125 28.253124 447.21875 28.721874Q446.92188 29.175 446.34375 29.440624Q445.76562 29.690624 445.03125 29.690624Q443.8125 29.690624 443.17188 29.190624Q442.54688 28.675 442.375 27.690624ZM448.40625 26.440624Q448.40625 24.70625 449.35938 23.878124Q450.15625 23.190624 451.3125 23.190624Q452.59375 23.190624 453.40625 24.034374Q454.23438 24.8625 454.23438 26.346874Q454.23438 27.55 453.875 28.2375Q453.51562 28.925 452.8125 29.315624Q452.125 29.690624 451.3125 29.690624Q450.01562 29.690624 449.20312 28.8625Q448.40625 28.01875 448.40625 26.440624ZM449.48438 26.440624Q449.48438 27.628124 450.0 28.221874Q450.53125 28.815624 451.3125 28.815624Q452.10938 28.815624 452.625 28.221874Q453.14062 27.628124 453.14062 26.409374Q453.14062 25.253124 452.60938 24.659374Q452.09375 24.065624 451.3125 24.065624Q450.53125 24.065624 450.0 24.659374Q449.48438 25.2375 449.48438 26.440624Z" fill-rule="nonzero"/></svg>