<svg xmlns="http://www.w3.org/2000/svg" xmlns:xlink="http://www.w3.org/1999/xlink" xmlns:lucid="lucid" width="1221" height="222"><g transform="translate(-79 -339)" lucid:page-tab-id="0_0"><path d="M0 0h1870.4v1323.2H0z" fill="#fff"/><path d="M100 360h60v80h-60zM180 360h60v80h-60z" stroke="#000" stroke-width="2" fill="#e5e5e5"/><path d="M100 480h60v60h-60z" stroke="#000" stroke-opacity="0" stroke-width="2" fill="#fff" fill-opacity="0"/><use xlink:href="#a" transform="matrix(1,0,0,1,105,485) translate(4.629629629629633 30.27777777777778)"/><path d="M130 442v19.5" stroke="#000" stroke-width="2" fill="none"/><path d="M131 442.03h-2V441h2z" stroke="#000" stroke-width=".05"/><path d="M130 476.76l-4.64-14.26h9.27z" stroke="#000" stroke-width="2"/><path d="M180 479h60v60h-60z" stroke="#000" stroke-opacity="0" stroke-width="2" fill="#fff" fill-opacity="0"/><use xlink:href="#a" transform="matrix(1,0,0,1,185,484) translate(4.629629629629633 30.27777777777778)"/><path d="M210 441v19.5M210 441.03V440" stroke="#000" stroke-width="2" fill="none"/><path d="M210 475.76l-4.63-14.26h9.26z" stroke="#000" stroke-width="2"/><path d="M260 479h60v60h-60z" stroke="#000" stroke-opacity="0" stroke-width="2" fill="#fff" fill-opacity="0"/><use xlink:href="#a" transform="matrix(1,0,0,1,265,484) translate(4.629629629629633 30.27777777777778)"/><path d="M290 441v19.5M290 441.03V440" stroke="#000" stroke-width="2" fill="none"/><path d="M290 475.76l-4.63-14.26h9.26z" stroke="#000" stroke-width="2"/><path d="M340 480h60v60h-60z" stroke="#000" stroke-opacity="0" stroke-width="2" fill="#fff" fill-opacity="0"/><use xlink:href="#a" transform="matrix(1,0,0,1,345,485) translate(4.629629629629633 30.27777777777778)"/><path d="M370 442v19.5M370 442.03V441" stroke="#000" stroke-width="2" fill="none"/><path d="M370 476.76l-4.63-14.26h9.26z" stroke="#000" stroke-width="2"/><path d="M420 479h60v60h-60z" stroke="#000" stroke-opacity="0" stroke-width="2" fill="#fff" fill-opacity="0"/><use xlink:href="#a" transform="matrix(1,0,0,1,425,484) translate(4.629629629629633 30.27777777777778)"/><path d="M450 441v19.5M450 441.03V440" stroke="#000" stroke-width="2" fill="none"/><path d="M450 475.76l-4.63-14.26h9.26z" stroke="#000" stroke-width="2"/><path d="M500 479h60v60h-60z" stroke="#000" stroke-opacity="0" stroke-width="2" fill="#fff" fill-opacity="0"/><use xlink:href="#a" transform="matrix(1,0,0,1,505,484) translate(4.629629629629633 30.27777777777778)"/><path d="M530 441v19.5M530 441.03V440" stroke="#000" stroke-width="2" fill="none"/><path d="M530 475.76l-4.63-14.26h9.26z" stroke="#000" stroke-width="2"/><path d="M580 480h60v60h-60z" stroke="#000" stroke-opacity="0" stroke-width="2" fill="#fff" fill-opacity="0"/><use xlink:href="#a" transform="matrix(1,0,0,1,585,485) translate(4.629629629629633 30.27777777777778)"/><path d="M610 442v19.5M610 442.03V441" stroke="#000" stroke-width="2" fill="none"/><path d="M610 476.76l-4.63-14.26h9.26z" stroke="#000" stroke-width="2"/><path d="M660 479h60v60h-60z" stroke="#000" stroke-opacity="0" stroke-width="2" fill="#fff" fill-opacity="0"/><use xlink:href="#a" transform="matrix(1,0,0,1,665,484) translate(4.629629629629633 30.27777777777778)"/><path d="M690 441v19.5M690 441.03V440" stroke="#000" stroke-width="2" fill="none"/><path d="M690 475.76l-4.63-14.26h9.26z" stroke="#000" stroke-width="2"/><path d="M740 479h60v60h-60z" stroke="#000" stroke-opacity="0" stroke-width="2" fill="#fff" fill-opacity="0"/><use xlink:href="#a" transform="matrix(1,0,0,1,745,484) translate(4.629629629629633 30.27777777777778)"/><path d="M770 441v19.5M770 441.03V440" stroke="#000" stroke-width="2" fill="none"/><path d="M770 475.76l-4.63-14.26h9.26z" stroke="#000" stroke-width="2"/><path d="M820 480h60v60h-60z" stroke="#000" stroke-opacity="0" stroke-width="2" fill="#fff" fill-opacity="0"/><use xlink:href="#a" transform="matrix(1,0,0,1,825,485) translate(4.629629629629633 30.27777777777778)"/><path d="M850 442v19.5M850 442.03V441" stroke="#000" stroke-width="2" fill="none"/><path d="M850 476.76l-4.63-14.26h9.26z" stroke="#000" stroke-width="2"/><path d="M900 479h60v60h-60z" stroke="#000" stroke-opacity="0" stroke-width="2" fill="#fff" fill-opacity="0"/><use xlink:href="#a" transform="matrix(1,0,0,1,905,484) translate(4.629629629629633 30.27777777777778)"/><path d="M930 441v19.5M930 441.03V440" stroke="#000" stroke-width="2" fill="none"/><path d="M930 475.76l-4.63-14.26h9.26z" stroke="#000" stroke-width="2"/><path d="M980 479h60v60h-60z" stroke="#000" stroke-opacity="0" stroke-width="2" fill="#fff" fill-opacity="0"/><use xlink:href="#a" transform="matrix(1,0,0,1,985,484) translate(4.629629629629633 30.27777777777778)"/><path d="M1010 441v19.5M1010 441.03V440" stroke="#000" stroke-width="2" fill="none"/><path d="M1010 475.76l-4.63-14.26h9.26z" stroke="#000" stroke-width="2"/><path d="M1119 360h160v80h-160z" stroke="#000" stroke-opacity="0" stroke-width="2" fill="#fff" fill-opacity="0"/><use xlink:href="#b" transform="matrix(1,0,0,1,1124,365) translate(27.629629629629626 41.020833333333336)"/><path d="M1043.5 400h46.4M1043.6 400h-3.6" stroke="#000" stroke-width="7" fill="none"/><path d="M1107.67 400l-14.26 4.63v-9.26z" stroke="#000" stroke-width="7"/><path d="M260 360h60v80h-60zM340 360h60v80h-60zM420 360h60v80h-60zM500 360h60v80h-60zM580 360h60v80h-60zM660 360h60v80h-60zM740 360h60v80h-60zM820 360h60v80h-60zM900 360h60v80h-60zM980 360h60v80h-60z" stroke="#000" stroke-width="2" fill="#e5e5e5"/><defs><path d="M185-189c-5-48-123-54-124 2 14 75 158 14 163 119 3 78-121 87-175 55-17-10-28-26-33-46l33-7c5 56 141 63 141-1 0-78-155-14-162-118-5-82 145-84 179-34 5 7 8 16 11 25" id="c"/><path d="M118-107v75H92v-75H18v-26h74v-75h26v75h74v26h-74" id="d"/><g id="a"><use transform="matrix(0.06172839506172839,0,0,0.06172839506172839,0,0)" xlink:href="#c"/><use transform="matrix(0.06172839506172839,0,0,0.06172839506172839,14.814814814814813,0)" xlink:href="#d"/><use transform="matrix(0.06172839506172839,0,0,0.06172839506172839,27.777777777777775,0)" xlink:href="#d"/></g><path d="M169-182c-1-43-94-46-97-3 18 66 151 10 154 114 3 95-165 93-204 36-6-8-10-19-12-30l50-8c3 46 112 56 116 5-17-69-150-10-154-114-4-87 153-88 188-35 5 8 8 18 10 28" id="e"/><path d="M123 10C108 53 80 86 19 72V37c35 8 53-11 59-39L3-190h52l48 148c12-52 28-100 44-148h51" id="f"/><path d="M137-138c1-29-70-34-71-4 15 46 118 7 119 86 1 83-164 76-172 9l43-7c4 19 20 25 44 25 33 8 57-30 24-41C81-84 22-81 20-136c-2-80 154-74 161-7" id="g"/><path d="M115-3C79 11 28 4 28-45v-112H4v-33h27l15-45h31v45h36v33H77v99c-1 23 16 31 38 25v30" id="h"/><path d="M185-48c-13 30-37 53-82 52C43 2 14-33 14-96s30-98 90-98c62 0 83 45 84 108H66c0 31 8 55 39 56 18 0 30-7 34-22zm-45-69c5-46-57-63-70-21-2 6-4 13-4 21h74" id="i"/><path d="M220-157c-53 9-28 100-34 157h-49v-107c1-27-5-49-29-50C55-147 81-57 75 0H25l-1-190h47c2 12-1 28 3 38 10-53 101-56 108 0 13-22 24-43 59-42 82 1 51 116 57 194h-49v-107c-1-25-5-48-29-50" id="j"/><g id="b"><use transform="matrix(0.07407407407407408,0,0,0.07407407407407408,0,0)" xlink:href="#e"/><use transform="matrix(0.07407407407407408,0,0,0.07407407407407408,17.77777777777778,0)" xlink:href="#f"/><use transform="matrix(0.07407407407407408,0,0,0.07407407407407408,32.592592592592595,0)" xlink:href="#g"/><use transform="matrix(0.07407407407407408,0,0,0.07407407407407408,47.40740740740741,0)" xlink:href="#h"/><use transform="matrix(0.07407407407407408,0,0,0.07407407407407408,56.22222222222223,0)" xlink:href="#i"/><use transform="matrix(0.07407407407407408,0,0,0.07407407407407408,71.03703703703704,0)" xlink:href="#j"/></g></defs></g></svg>