<svg version="1.1" viewBox="0.0 0.0 600.0 371.0" fill="none" stroke="none" stroke-linecap="square" stroke-miterlimit="10" width="600" height="371" xmlns:xlink="http://www.w3.org/1999/xlink" xmlns="http://www.w3.org/2000/svg"><path fill="#ffffff" d="M0 0L600.0 0L600.0 371.0L0 371.0L0 0Z" fill-rule="nonzero"/><path stroke="#cccccc" stroke-width="1.0" stroke-linecap="butt" d="M114.5 26.5L114.5 298.5" fill-rule="nonzero"/><path stroke="#cccccc" stroke-width="1.0" stroke-linecap="butt" d="M186.5 26.5L186.5 298.5" fill-rule="nonzero"/><path stroke="#cccccc" stroke-width="1.0" stroke-linecap="butt" d="M258.5 26.5L258.5 298.5" fill-rule="nonzero"/><path stroke="#cccccc" stroke-width="1.0" stroke-linecap="butt" d="M330.5 26.5L330.5 298.5" fill-rule="nonzero"/><path stroke="#cccccc" stroke-width="1.0" stroke-linecap="butt" d="M401.5 26.5L401.5 298.5" fill-rule="nonzero"/><path stroke="#cccccc" stroke-width="1.0" stroke-linecap="butt" d="M473.5 26.5L473.5 298.5" fill-rule="nonzero"/><path stroke="#cccccc" stroke-width="1.0" stroke-linecap="butt" d="M545.5 26.5L545.5 298.5" fill-rule="nonzero"/><path stroke="#333333" stroke-width="1.0" stroke-linecap="butt" d="M78.5 298.5L581.5 298.5" fill-rule="nonzero"/><path stroke="#cccccc" stroke-width="1.0" stroke-linecap="butt" d="M78.5 230.5L581.5 230.5" fill-rule="nonzero"/><path stroke="#cccccc" stroke-width="1.0" stroke-linecap="butt" d="M78.5 162.5L581.5 162.5" fill-rule="nonzero"/><path stroke="#cccccc" stroke-width="1.0" stroke-linecap="butt" d="M78.5 94.5L581.5 94.5" fill-rule="nonzero"/><path stroke="#cccccc" stroke-width="1.0" stroke-linecap="butt" d="M78.5 26.5L581.5 26.5" fill-rule="nonzero"/><path stroke="#eeeeee" stroke-width="1.0" stroke-linecap="butt" d="M222.23572 78.15L222.23572 94.15" fill-rule="nonzero"/><path stroke="#eeeeee" stroke-width="1.0" stroke-linecap="butt" d="M258.15714 91.77L258.15714 107.77" fill-rule="nonzero"/><path stroke="#eeeeee" stroke-width="1.0" stroke-linecap="butt" d="M294.07858 91.77L294.07858 107.77" fill-rule="nonzero"/><path stroke="#eeeeee" stroke-width="1.0" stroke-linecap="butt" d="M330.0 105.39L330.0 121.39" fill-rule="nonzero"/><path stroke="#eeeeee" stroke-width="1.0" stroke-linecap="butt" d="M365.92142 146.25L365.92142 162.25" fill-rule="nonzero"/><path stroke="#eeeeee" stroke-width="1.0" stroke-linecap="butt" d="M401.84286 166.68L401.84286 182.68" fill-rule="nonzero"/><path stroke="#eeeeee" stroke-width="1.0" stroke-linecap="butt" d="M437.76428 187.11L437.76428 203.11" fill-rule="nonzero"/><path stroke="#eeeeee" stroke-width="1.0" stroke-linecap="butt" d="M473.6857 200.73L473.6857 216.73" fill-rule="nonzero"/><path stroke="#eeeeee" stroke-width="1.0" stroke-linecap="butt" d="M509.60715 234.78L509.60715 250.78" fill-rule="nonzero"/><path stroke="#eeeeee" stroke-width="1.0" stroke-linecap="butt" d="M545.52856 258.615L545.52856 274.615" fill-rule="nonzero"/><path stroke="#eeeeee" stroke-width="1.0" stroke-linecap="butt" d="M581.45 282.45L581.45 298.45" fill-rule="nonzero"/><clipPath id="id_0"><path d="M78.55 26.05L581.45 26.05L581.45 298.45L78.55 298.45L78.55 26.05Z" clip-rule="nonzero"/></clipPath><path stroke="#4285f4" stroke-width="2.0" stroke-linecap="butt" clip-path="url(#id_0)" d="M78.55 26.05L114.47143 32.86L150.39285 53.29L186.31429 53.29L222.23572 94.15L258.15714 107.77L294.07858 107.77L330.0 121.39L365.92142 162.25L401.84286 182.68L437.76428 203.11L473.6857 216.73L509.60715 250.78L545.52856 274.615L581.45 298.45" fill-rule="nonzero"/><path fill="#000000" fill-opacity="0.0" clip-path="url(#id_0)" d="M81.55 26.05C81.55 27.706854 80.206856 29.05 78.55 29.05C76.89314 29.05 75.55 27.706854 75.55 26.05C75.55 24.393147 76.89314 23.05 78.55 23.05C80.206856 23.05 81.55 24.393147 81.55 26.05Z" fill-rule="nonzero"/><path fill="#000000" fill-opacity="0.0" clip-path="url(#id_0)" d="M117.47143 32.86C117.47143 34.516853 116.12828 35.86 114.47143 35.86C112.814575 35.86 111.47143 34.516853 111.47143 32.86C111.47143 31.203146 112.814575 29.86 114.47143 29.86C116.12828 29.86 117.47143 31.203146 117.47143 32.86Z" fill-rule="nonzero"/><path fill="#000000" fill-opacity="0.0" clip-path="url(#id_0)" d="M153.39285 53.29C153.39285 54.946854 152.04971 56.29 150.39285 56.29C148.73601 56.29 147.39285 54.946854 147.39285 53.29C147.39285 51.633144 148.73601 50.29 150.39285 50.29C152.04971 50.29 153.39285 51.633144 153.39285 53.29Z" fill-rule="nonzero"/><path fill="#000000" fill-opacity="0.0" clip-path="url(#id_0)" d="M189.31429 53.29C189.31429 54.946854 187.97115 56.29 186.31429 56.29C184.65742 56.29 183.31429 54.946854 183.31429 53.29C183.31429 51.633144 184.65742 50.29 186.31429 50.29C187.97115 50.29 189.31429 51.633144 189.31429 53.29Z" fill-rule="nonzero"/><path fill="#000000" fill-opacity="0.0" clip-path="url(#id_0)" d="M225.23572 94.15C225.23572 95.806854 223.89256 97.15 222.23572 97.15C220.57886 97.15 219.23572 95.806854 219.23572 94.15C219.23572 92.49315 220.57886 91.15 222.23572 91.15C223.89256 91.15 225.23572 92.49315 225.23572 94.15Z" fill-rule="nonzero"/><path fill="#000000" fill-opacity="0.0" clip-path="url(#id_0)" d="M261.15714 107.77C261.15714 109.42686 259.814 110.77 258.15714 110.77C256.50027 110.77 255.15715 109.42686 255.15715 107.77C255.15715 106.113144 256.50027 104.77 258.15714 104.77C259.814 104.77 261.15714 106.113144 261.15714 107.77Z" fill-rule="nonzero"/><path fill="#000000" fill-opacity="0.0" clip-path="url(#id_0)" d="M297.07858 107.77C297.07858 109.42686 295.7354 110.77 294.07858 110.77C292.42172 110.77 291.07858 109.42686 291.07858 107.77C291.07858 106.113144 292.42172 104.77 294.07858 104.77C295.7354 104.77 297.07858 106.113144 297.07858 107.77Z" fill-rule="nonzero"/><path fill="#000000" fill-opacity="0.0" clip-path="url(#id_0)" d="M333.0 121.39C333.0 123.04685 331.65686 124.39 330.0 124.39C328.34314 124.39 327.0 123.04685 327.0 121.39C327.0 119.73315 328.34314 118.39 330.0 118.39C331.65686 118.39 333.0 119.73315 333.0 121.39Z" fill-rule="nonzero"/><path fill="#000000" fill-opacity="0.0" clip-path="url(#id_0)" d="M368.92142 162.25C368.92142 163.90686 367.57828 165.25 365.92142 165.25C364.2646 165.25 362.92142 163.90686 362.92142 162.25C362.92142 160.59314 364.2646 159.25 365.92142 159.25C367.57828 159.25 368.92142 160.59314 368.92142 162.25Z" fill-rule="nonzero"/><path fill="#000000" fill-opacity="0.0" clip-path="url(#id_0)" d="M404.84286 182.68C404.84286 184.33685 403.49973 185.68 401.84286 185.68C400.186 185.68 398.84286 184.33685 398.84286 182.68C398.84286 181.02315 400.186 179.68 401.84286 179.68C403.49973 179.68 404.84286 181.02315 404.84286 182.68Z" fill-rule="nonzero"/><path fill="#000000" fill-opacity="0.0" clip-path="url(#id_0)" d="M440.76428 203.11C440.76428 204.76686 439.42114 206.11 437.76428 206.11C436.10742 206.11 434.76428 204.76686 434.76428 203.11C434.76428 201.45314 436.10742 200.11 437.76428 200.11C439.42114 200.11 440.76428 201.45314 440.76428 203.11Z" fill-rule="nonzero"/><path fill="#000000" fill-opacity="0.0" clip-path="url(#id_0)" d="M476.6857 216.73C476.6857 218.38686 475.34256 219.73 473.6857 219.73C472.02887 219.73 470.6857 218.38686 470.6857 216.73C470.6857 215.07315 472.02887 213.73 473.6857 213.73C475.34256 213.73 476.6857 215.07315 476.6857 216.73Z" fill-rule="nonzero"/><path fill="#000000" fill-opacity="0.0" clip-path="url(#id_0)" d="M512.6071 250.78C512.6071 252.43686 511.264 253.78 509.60715 253.78C507.9503 253.78 506.60715 252.43686 506.60715 250.78C506.60715 249.12314 507.9503 247.78 509.60715 247.78C511.264 247.78 512.6071 249.12314 512.6071 250.78Z" fill-rule="nonzero"/><path fill="#000000" fill-opacity="0.0" clip-path="url(#id_0)" d="M548.52856 274.615C548.52856 276.27185 547.1854 277.615 545.52856 277.615C543.8717 277.615 542.52856 276.27185 542.52856 274.615C542.52856 272.95816 543.8717 271.615 545.52856 271.615C547.1854 271.615 548.52856 272.95816 548.52856 274.615Z" fill-rule="nonzero"/><path fill="#000000" fill-opacity="0.0" clip-path="url(#id_0)" d="M584.45 298.45C584.45 300.10684 583.1069 301.45 581.45 301.45C579.79315 301.45 578.45 300.10684 578.45 298.45C578.45 296.79315 579.79315 295.45 581.45 295.45C583.1069 295.45 584.45 296.79315 584.45 298.45Z" fill-rule="nonzero"/><path stroke="#ffffff" stroke-width="3.0" stroke-linejoin="round" stroke-linecap="round" d="M214.01697 71.35313L214.82947 71.35313Q215.61072 71.3375 216.04822 70.94688Q216.48572 70.55625 216.48572 69.88438Q216.48572 68.38438 214.98572 68.38438Q214.2826 68.38438 213.86072 68.79063Q213.45447 69.19688 213.45447 69.85313L212.36072 69.85313Q212.36072 68.8375 213.0951 68.16563Q213.8451 67.49375 214.98572 67.49375Q216.18884 67.49375 216.87634 68.13438Q217.56384 68.775 217.56384 69.91563Q217.56384 70.47813 217.20447 70.99375Q216.8451 71.50938 216.2201 71.775Q216.92322 71.99375 217.29822 72.50938Q217.68884 73.025 217.68884 73.775Q217.68884 74.91563 216.93884 75.60313Q216.18884 76.275 214.98572 76.275Q213.79822 76.275 213.0326 75.61875Q212.2826 74.9625 212.2826 73.9L213.37634 73.9Q213.37634 74.57188 213.81384 74.97813Q214.25134 75.38438 215.00134 75.38438Q215.7826 75.38438 216.18884 74.97813Q216.61072 74.55625 216.61072 73.79063Q216.61072 73.05625 216.1576 72.66563Q215.70447 72.25938 214.82947 72.24375L214.01697 72.24375L214.01697 71.35313ZM224.79822 72.50938Q224.79822 74.41563 224.14197 75.35313Q223.50134 76.275 222.11072 76.275Q220.75134 76.275 220.0951 75.36875Q219.43884 74.4625 219.4076 72.65L219.4076 71.2125Q219.4076 69.32188 220.04822 68.41563Q220.70447 67.49375 222.0951 67.49375Q223.4701 67.49375 224.12634 68.38438Q224.7826 69.25938 224.79822 71.10313L224.79822 72.50938ZM223.70447 71.025Q223.70447 69.65 223.31384 69.025Q222.93884 68.38438 222.0951 68.38438Q221.26697 68.38438 220.87634 69.025Q220.50134 69.65 220.50134 70.94688L220.50134 72.68125Q220.50134 74.05625 220.89197 74.72813Q221.29822 75.38438 222.11072 75.38438Q222.9076 75.38438 223.29822 74.75938Q223.68884 74.13438 223.70447 72.80625L223.70447 71.025ZM231.79822 72.50938Q231.79822 74.41563 231.14197 75.35313Q230.50134 76.275 229.11072 76.275Q227.75134 76.275 227.0951 75.36875Q226.43884 74.4625 226.4076 72.65L226.4076 71.2125Q226.4076 69.32188 227.04822 68.41563Q227.70447 67.49375 229.0951 67.49375Q230.4701 67.49375 231.12634 68.38438Q231.7826 69.25938 231.79822 71.10313L231.79822 72.50938ZM230.70447 71.025Q230.70447 69.65 230.31384 69.025Q229.93884 68.38438 229.0951 68.38438Q228.26697 68.38438 227.87634 69.025Q227.50134 69.65 227.50134 70.94688L227.50134 72.68125Q227.50134 74.05625 227.89197 74.72813Q228.29822 75.38438 229.11072 75.38438Q229.9076 75.38438 230.29822 74.75938Q230.68884 74.13438 230.70447 72.80625L230.70447 71.025Z" fill-rule="nonzero"/><path fill="#4285f4" d="M214.01697 71.35313L214.82947 71.35313Q215.61072 71.3375 216.04822 70.94688Q216.48572 70.55625 216.48572 69.88438Q216.48572 68.38438 214.98572 68.38438Q214.2826 68.38438 213.86072 68.79063Q213.45447 69.19688 213.45447 69.85313L212.36072 69.85313Q212.36072 68.8375 213.0951 68.16563Q213.8451 67.49375 214.98572 67.49375Q216.18884 67.49375 216.87634 68.13438Q217.56384 68.775 217.56384 69.91563Q217.56384 70.47813 217.20447 70.99375Q216.8451 71.50938 216.2201 71.775Q216.92322 71.99375 217.29822 72.50938Q217.68884 73.025 217.68884 73.775Q217.68884 74.91563 216.93884 75.60313Q216.18884 76.275 214.98572 76.275Q213.79822 76.275 213.0326 75.61875Q212.2826 74.9625 212.2826 73.9L213.37634 73.9Q213.37634 74.57188 213.81384 74.97813Q214.25134 75.38438 215.00134 75.38438Q215.7826 75.38438 216.18884 74.97813Q216.61072 74.55625 216.61072 73.79063Q216.61072 73.05625 216.1576 72.66563Q215.70447 72.25938 214.82947 72.24375L214.01697 72.24375L214.01697 71.35313ZM224.79822 72.50938Q224.79822 74.41563 224.14197 75.35313Q223.50134 76.275 222.11072 76.275Q220.75134 76.275 220.0951 75.36875Q219.43884 74.4625 219.4076 72.65L219.4076 71.2125Q219.4076 69.32188 220.04822 68.41563Q220.70447 67.49375 222.0951 67.49375Q223.4701 67.49375 224.12634 68.38438Q224.7826 69.25938 224.79822 71.10313L224.79822 72.50938ZM223.70447 71.025Q223.70447 69.65 223.31384 69.025Q222.93884 68.38438 222.0951 68.38438Q221.26697 68.38438 220.87634 69.025Q220.50134 69.65 220.50134 70.94688L220.50134 72.68125Q220.50134 74.05625 220.89197 74.72813Q221.29822 75.38438 222.11072 75.38438Q222.9076 75.38438 223.29822 74.75938Q223.68884 74.13438 223.70447 72.80625L223.70447 71.025ZM231.79822 72.50938Q231.79822 74.41563 231.14197 75.35313Q230.50134 76.275 229.11072 76.275Q227.75134 76.275 227.0951 75.36875Q226.43884 74.4625 226.4076 72.65L226.4076 71.2125Q226.4076 69.32188 227.04822 68.41563Q227.70447 67.49375 229.0951 67.49375Q230.4701 67.49375 231.12634 68.38438Q231.7826 69.25938 231.79822 71.10313L231.79822 72.50938ZM230.70447 71.025Q230.70447 69.65 230.31384 69.025Q229.93884 68.38438 229.0951 68.38438Q228.26697 68.38438 227.87634 69.025Q227.50134 69.65 227.50134 70.94688L227.50134 72.68125Q227.50134 74.05625 227.89197 74.72813Q228.29822 75.38438 229.11072 75.38438Q229.9076 75.38438 230.29822 74.75938Q230.68884 74.13438 230.70447 72.80625L230.70447 71.025Z" fill-rule="nonzero"/><path stroke="#ffffff" stroke-width="3.0" stroke-linejoin="round" stroke-linecap="round" d="M253.95403 89.77L248.36028 89.77L248.36028 88.98875L251.3134 85.7075Q251.96965 84.9575 252.21965 84.50437Q252.46965 84.03562 252.46965 83.53562Q252.46965 82.86375 252.0634 82.44187Q251.67278 82.00437 250.98528 82.00437Q250.1884 82.00437 249.73528 82.47312Q249.28215 82.92625 249.28215 83.75437L248.20403 83.75437Q248.20403 82.56687 248.95403 81.84812Q249.71965 81.11375 250.98528 81.11375Q252.1884 81.11375 252.8759 81.73875Q253.5634 82.36375 253.5634 83.41062Q253.5634 84.66062 251.95403 86.41062L249.67278 88.87937L253.95403 88.87937L253.95403 89.77ZM260.54776 83.4575Q260.54776 84.09812 260.204 84.59812Q259.86026 85.09812 259.29776 85.37937Q259.954 85.66062 260.34464 86.22312Q260.73526 86.77 260.73526 87.47312Q260.73526 88.56687 259.98526 89.23875Q259.2509 89.895 258.03214 89.895Q256.79776 89.895 256.04776 89.23875Q255.3134 88.56687 255.3134 87.47312Q255.3134 86.77 255.6884 86.22312Q256.0634 85.66062 256.73526 85.37937Q256.17276 85.09812 255.84465 84.59812Q255.51653 84.09812 255.51653 83.4575Q255.51653 82.37937 256.204 81.75437Q256.8915 81.11375 258.03214 81.11375Q259.15714 81.11375 259.84464 81.75437Q260.54776 82.37937 260.54776 83.4575ZM259.65714 87.44187Q259.65714 86.72312 259.204 86.28562Q258.7509 85.8325 258.0165 85.8325Q257.28214 85.8325 256.829 86.28562Q256.3915 86.72312 256.3915 87.4575Q256.3915 88.17625 256.829 88.59812Q257.2665 89.00437 258.03214 89.00437Q258.78214 89.00437 259.21964 88.5825Q259.65714 88.16062 259.65714 87.44187ZM258.03214 82.00437Q257.3915 82.00437 256.98526 82.41062Q256.59464 82.80125 256.59464 83.48875Q256.59464 84.12937 256.98526 84.53562Q257.3759 84.94187 258.0165 84.94187Q258.67276 84.94187 259.0634 84.53562Q259.454 84.12937 259.454 83.48875Q259.454 82.8325 259.04776 82.42625Q258.6415 82.00437 258.03214 82.00437ZM267.71964 86.12937Q267.71964 88.03562 267.0634 88.97312Q266.42276 89.895 265.03214 89.895Q263.67276 89.895 263.0165 88.98875Q262.36026 88.0825 262.329 86.27L262.329 84.8325Q262.329 82.94187 262.96964 82.03562Q263.6259 81.11375 265.0165 81.11375Q266.3915 81.11375 267.04776 82.00437Q267.704 82.87937 267.71964 84.72312L267.71964 86.12937ZM266.6259 84.645Q266.6259 83.27 266.23526 82.645Q265.86026 82.00437 265.0165 82.00437Q264.1884 82.00437 263.79776 82.645Q263.42276 83.27 263.42276 84.56687L263.42276 86.30125Q263.42276 87.67625 263.8134 88.34812Q264.21964 89.00437 265.03214 89.00437Q265.829 89.00437 266.21964 88.37937Q266.61026 87.75437 266.6259 86.42625L266.6259 84.645Z" fill-rule="nonzero"/><path fill="#4285f4" d="M253.95403 89.77L248.36028 89.77L248.36028 88.98875L251.3134 85.7075Q251.96965 84.9575 252.21965 84.50437Q252.46965 84.03562 252.46965 83.53562Q252.46965 82.86375 252.0634 82.44187Q251.67278 82.00437 250.98528 82.00437Q250.1884 82.00437 249.73528 82.47312Q249.28215 82.92625 249.28215 83.75437L248.20403 83.75437Q248.20403 82.56687 248.95403 81.84812Q249.71965 81.11375 250.98528 81.11375Q252.1884 81.11375 252.8759 81.73875Q253.5634 82.36375 253.5634 83.41062Q253.5634 84.66062 251.95403 86.41062L249.67278 88.87937L253.95403 88.87937L253.95403 89.77ZM260.5478 83.4575Q260.5478 84.09812 260.20404 84.59812Q259.8603 85.09812 259.2978 85.37937Q259.95404 85.66062 260.34467 86.22312Q260.7353 86.77 260.7353 87.47312Q260.7353 88.56687 259.9853 89.23875Q259.25092 89.895 258.03217 89.895Q256.7978 89.895 256.0478 89.23875Q255.3134 88.56687 255.3134 87.47312Q255.3134 86.77 255.6884 86.22312Q256.06342 85.66062 256.7353 85.37937Q256.1728 85.09812 255.84465 84.59812Q255.51653 84.09812 255.51653 83.4575Q255.51653 82.37937 256.20404 81.75437Q256.89154 81.11375 258.03217 81.11375Q259.15717 81.11375 259.84467 81.75437Q260.5478 82.37937 260.5478 83.4575ZM259.65717 87.44187Q259.65717 86.72312 259.20404 86.28562Q258.75092 85.8325 258.01654 85.8325Q257.28217 85.8325 256.82904 86.28562Q256.39154 86.72312 256.39154 87.4575Q256.39154 88.17625 256.82904 88.59812Q257.26654 89.00437 258.03217 89.00437Q258.78217 89.00437 259.21967 88.5825Q259.65717 88.16062 259.65717 87.44187ZM258.03217 82.00437Q257.39154 82.00437 256.9853 82.41062Q256.59467 82.80125 256.59467 83.48875Q256.59467 84.12937 256.9853 84.53562Q257.37592 84.94187 258.01654 84.94187Q258.6728 84.94187 259.06342 84.53562Q259.45404 84.12937 259.45404 83.48875Q259.45404 82.8325 259.0478 82.42625Q258.64154 82.00437 258.03217 82.00437ZM267.71967 86.12937Q267.71967 88.03562 267.06342 88.97312Q266.4228 89.895 265.03217 89.895Q263.6728 89.895 263.01654 88.98875Q262.3603 88.0825 262.32904 86.27L262.32904 84.8325Q262.32904 82.94187 262.96967 82.03562Q263.62592 81.11375 265.01654 81.11375Q266.39154 81.11375 267.0478 82.00437Q267.70404 82.87937 267.71967 84.72312L267.71967 86.12937ZM266.62592 84.645Q266.62592 83.27 266.2353 82.645Q265.8603 82.00437 265.01654 82.00437Q264.18842 82.00437 263.7978 82.645Q263.4228 83.27 263.4228 84.56687L263.4228 86.30125Q263.4228 87.67625 263.81342 88.34812Q264.21967 89.00437 265.03217 89.00437Q265.82904 89.00437 266.21967 88.37937Q266.6103 87.75437 266.62592 86.42625L266.62592 84.645Z" fill-rule="nonzero"/><path stroke="#ffffff" stroke-width="3.0" stroke-linejoin="round" stroke-linecap="round" d="M289.87546 89.77L284.2817 89.77L284.2817 88.98875L287.23483 85.7075Q287.89108 84.9575 288.14108 84.50437Q288.39108 84.03562 288.39108 83.53562Q288.39108 82.86375 287.98483 82.44187Q287.5942 82.00437 286.9067 82.00437Q286.10983 82.00437 285.6567 82.47312Q285.20358 82.92625 285.20358 83.75437L284.12546 83.75437Q284.12546 82.56687 284.87546 81.84812Q285.64108 81.11375 286.9067 81.11375Q288.10983 81.11375 288.79733 81.73875Q289.48483 82.36375 289.48483 83.41062Q289.48483 84.66062 287.87546 86.41062L285.5942 88.87937L289.87546 88.87937L289.87546 89.77ZM296.4692 83.4575Q296.4692 84.09812 296.12546 84.59812Q295.7817 85.09812 295.2192 85.37937Q295.87546 85.66062 296.26608 86.22312Q296.6567 86.77 296.6567 87.47312Q296.6567 88.56687 295.9067 89.23875Q295.17233 89.895 293.95358 89.895Q292.7192 89.895 291.9692 89.23875Q291.23483 88.56687 291.23483 87.47312Q291.23483 86.77 291.60983 86.22312Q291.98483 85.66062 292.6567 85.37937Q292.0942 85.09812 291.76608 84.59812Q291.43796 84.09812 291.43796 83.4575Q291.43796 82.37937 292.12546 81.75437Q292.81296 81.11375 293.95358 81.11375Q295.07858 81.11375 295.76608 81.75437Q296.4692 82.37937 296.4692 83.4575ZM295.57858 87.44187Q295.57858 86.72312 295.12546 86.28562Q294.67233 85.8325 293.93796 85.8325Q293.20358 85.8325 292.75046 86.28562Q292.31296 86.72312 292.31296 87.4575Q292.31296 88.17625 292.75046 88.59812Q293.18796 89.00437 293.95358 89.00437Q294.70358 89.00437 295.14108 88.5825Q295.57858 88.16062 295.57858 87.44187ZM293.95358 82.00437Q293.31296 82.00437 292.9067 82.41062Q292.51608 82.80125 292.51608 83.48875Q292.51608 84.12937 292.9067 84.53562Q293.29733 84.94187 293.93796 84.94187Q294.5942 84.94187 294.98483 84.53562Q295.37546 84.12937 295.37546 83.48875Q295.37546 82.8325 294.9692 82.42625Q294.56296 82.00437 293.95358 82.00437ZM303.64108 86.12937Q303.64108 88.03562 302.98483 88.97312Q302.3442 89.895 300.95358 89.895Q299.5942 89.895 298.93796 88.98875Q298.2817 88.0825 298.25046 86.27L298.25046 84.8325Q298.25046 82.94187 298.89108 82.03562Q299.54733 81.11375 300.93796 81.11375Q302.31296 81.11375 302.9692 82.00437Q303.62546 82.87937 303.64108 84.72312L303.64108 86.12937ZM302.54733 84.645Q302.54733 83.27 302.1567 82.645Q301.7817 82.00437 300.93796 82.00437Q300.10983 82.00437 299.7192 82.645Q299.3442 83.27 299.3442 84.56687L299.3442 86.30125Q299.3442 87.67625 299.73483 88.34812Q300.14108 89.00437 300.95358 89.00437Q301.75046 89.00437 302.14108 88.37937Q302.5317 87.75437 302.54733 86.42625L302.54733 84.645Z" fill-rule="nonzero"/><path fill="#4285f4" d="M289.87546 89.77L284.2817 89.77L284.2817 88.98875L287.23483 85.7075Q287.89108 84.9575 288.14108 84.50437Q288.39108 84.03562 288.39108 83.53562Q288.39108 82.86375 287.98483 82.44187Q287.5942 82.00437 286.9067 82.00437Q286.10983 82.00437 285.6567 82.47312Q285.20358 82.92625 285.20358 83.75437L284.12546 83.75437Q284.12546 82.56687 284.87546 81.84812Q285.64108 81.11375 286.9067 81.11375Q288.10983 81.11375 288.79733 81.73875Q289.48483 82.36375 289.48483 83.41062Q289.48483 84.66062 287.87546 86.41062L285.5942 88.87937L289.87546 88.87937L289.87546 89.77ZM296.4692 83.4575Q296.4692 84.09812 296.12546 84.59812Q295.7817 85.09812 295.2192 85.37937Q295.87546 85.66062 296.26608 86.22312Q296.6567 86.77 296.6567 87.47312Q296.6567 88.56687 295.9067 89.23875Q295.17233 89.895 293.95358 89.895Q292.7192 89.895 291.9692 89.23875Q291.23483 88.56687 291.23483 87.47312Q291.23483 86.77 291.60983 86.22312Q291.98483 85.66062 292.6567 85.37937Q292.0942 85.09812 291.76608 84.59812Q291.43796 84.09812 291.43796 83.4575Q291.43796 82.37937 292.12546 81.75437Q292.81296 81.11375 293.95358 81.11375Q295.07858 81.11375 295.76608 81.75437Q296.4692 82.37937 296.4692 83.4575ZM295.57858 87.44187Q295.57858 86.72312 295.12546 86.28562Q294.67233 85.8325 293.93796 85.8325Q293.20358 85.8325 292.75046 86.28562Q292.31296 86.72312 292.31296 87.4575Q292.31296 88.17625 292.75046 88.59812Q293.18796 89.00437 293.95358 89.00437Q294.70358 89.00437 295.14108 88.5825Q295.57858 88.16062 295.57858 87.44187ZM293.95358 82.00437Q293.31296 82.00437 292.9067 82.41062Q292.51608 82.80125 292.51608 83.48875Q292.51608 84.12937 292.9067 84.53562Q293.29733 84.94187 293.93796 84.94187Q294.5942 84.94187 294.98483 84.53562Q295.37546 84.12937 295.37546 83.48875Q295.37546 82.8325 294.9692 82.42625Q294.56296 82.00437 293.95358 82.00437ZM303.64108 86.12937Q303.64108 88.03562 302.98483 88.97312Q302.3442 89.895 300.95358 89.895Q299.5942 89.895 298.93796 88.98875Q298.2817 88.0825 298.25046 86.27L298.25046 84.8325Q298.25046 82.94187 298.89108 82.03562Q299.54733 81.11375 300.93796 81.11375Q302.31296 81.11375 302.9692 82.00437Q303.62546 82.87937 303.64108 84.72312L303.64108 86.12937ZM302.54733 84.645Q302.54733 83.27 302.1567 82.645Q301.7817 82.00437 300.93796 82.00437Q300.10983 82.00437 299.7192 82.645Q299.3442 83.27 299.3442 84.56687L299.3442 86.30125Q299.3442 87.67625 299.73483 88.34812Q300.14108 89.00437 300.95358 89.00437Q301.75046 89.00437 302.14108 88.37937Q302.5317 87.75437 302.54733 86.42625L302.54733 84.645Z" fill-rule="nonzero"/><path stroke="#ffffff" stroke-width="3.0" stroke-linejoin="round" stroke-linecap="round" d="M325.79688 103.39L320.20312 103.39L320.20312 102.60875L323.15625 99.3275Q323.8125 98.5775 324.0625 98.124374Q324.3125 97.655624 324.3125 97.155624Q324.3125 96.48375 323.90625 96.061874Q323.51562 95.624374 322.82812 95.624374Q322.03125 95.624374 321.57812 96.093124Q321.125 96.54625 321.125 97.374374L320.04688 97.374374Q320.04688 96.186874 320.79688 95.468124Q321.5625 94.73375 322.82812 94.73375Q324.03125 94.73375 324.71875 95.35875Q325.40625 95.98375 325.40625 97.030624Q325.40625 98.280624 323.79688 100.030624L321.51562 102.499374L325.79688 102.499374L325.79688 103.39ZM331.46875 94.85875L331.46875 95.765L331.26562 95.765Q330.0 95.79625 329.25 96.530624Q328.5 97.249374 328.375 98.561874Q329.0625 97.79625 330.21875 97.79625Q331.32812 97.79625 332.0 98.5775Q332.67188 99.35875 332.67188 100.60875Q332.67188 101.92125 331.95312 102.718124Q331.23438 103.515 330.01562 103.515Q328.79688 103.515 328.03125 102.5775Q327.28125 101.624374 327.28125 100.14L327.28125 99.73375Q327.28125 97.374374 328.28125 96.124374Q329.28125 94.874374 331.26562 94.85875L331.46875 94.85875ZM330.04688 98.7025Q329.48438 98.7025 329.01562 99.030624Q328.54688 99.35875 328.35938 99.874374L328.35938 100.265Q328.35938 101.3275 328.82812 101.968124Q329.3125 102.60875 330.01562 102.60875Q330.75 102.60875 331.17188 102.0775Q331.59375 101.530624 331.59375 100.655624Q331.59375 99.780624 331.17188 99.249374Q330.75 98.7025 330.04688 98.7025ZM339.5625 99.749374Q339.5625 101.655624 338.90625 102.593124Q338.26562 103.515 336.875 103.515Q335.51562 103.515 334.85938 102.60875Q334.20312 101.7025 334.17188 99.89L334.17188 98.4525Q334.17188 96.561874 334.8125 95.655624Q335.46875 94.73375 336.85938 94.73375Q338.23438 94.73375 338.89062 95.624374Q339.54688 96.499374 339.5625 98.343124L339.5625 99.749374ZM338.46875 98.265Q338.46875 96.89 338.07812 96.265Q337.70312 95.624374 336.85938 95.624374Q336.03125 95.624374 335.64062 96.265Q335.26562 96.89 335.26562 98.186874L335.26562 99.92125Q335.26562 101.29625 335.65625 101.968124Q336.0625 102.624374 336.875 102.624374Q337.67188 102.624374 338.0625 101.999374Q338.45312 101.374374 338.46875 100.04625L338.46875 98.265Z" fill-rule="nonzero"/><path fill="#4285f4" d="M325.79688 103.39L320.20312 103.39L320.20312 102.60875L323.15625 99.3275Q323.8125 98.5775 324.0625 98.124374Q324.3125 97.655624 324.3125 97.155624Q324.3125 96.48375 323.90625 96.061874Q323.51562 95.624374 322.82812 95.624374Q322.03125 95.624374 321.57812 96.093124Q321.125 96.54625 321.125 97.374374L320.04688 97.374374Q320.04688 96.186874 320.79688 95.468124Q321.5625 94.73375 322.82812 94.73375Q324.03125 94.73375 324.71875 95.35875Q325.40625 95.98375 325.40625 97.030624Q325.40625 98.280624 323.79688 100.030624L321.51562 102.499374L325.79688 102.499374L325.79688 103.39ZM331.46875 94.85875L331.46875 95.765L331.26562 95.765Q330.0 95.79625 329.25 96.530624Q328.5 97.249374 328.375 98.561874Q329.0625 97.79625 330.21875 97.79625Q331.32812 97.79625 332.0 98.5775Q332.67188 99.35875 332.67188 100.60875Q332.67188 101.92125 331.95312 102.718124Q331.23438 103.515 330.01562 103.515Q328.79688 103.515 328.03125 102.5775Q327.28125 101.624374 327.28125 100.14L327.28125 99.73375Q327.28125 97.374374 328.28125 96.124374Q329.28125 94.874374 331.26562 94.85875L331.46875 94.85875ZM330.04688 98.7025Q329.48438 98.7025 329.01562 99.030624Q328.54688 99.35875 328.35938 99.874374L328.35938 100.265Q328.35938 101.3275 328.82812 101.968124Q329.3125 102.60875 330.01562 102.60875Q330.75 102.60875 331.17188 102.0775Q331.59375 101.530624 331.59375 100.655624Q331.59375 99.780624 331.17188 99.249374Q330.75 98.7025 330.04688 98.7025ZM339.5625 99.749374Q339.5625 101.655624 338.90625 102.593124Q338.26562 103.515 336.875 103.515Q335.51562 103.515 334.85938 102.60875Q334.20312 101.7025 334.17188 99.89L334.17188 98.4525Q334.17188 96.561874 334.8125 95.655624Q335.46875 94.73375 336.85938 94.73375Q338.23438 94.73375 338.89062 95.624374Q339.54688 96.499374 339.5625 98.343124L339.5625 99.749374ZM338.46875 98.265Q338.46875 96.89 338.07812 96.265Q337.70312 95.624374 336.85938 95.624374Q336.03125 95.624374 335.64062 96.265Q335.26562 96.89 335.26562 98.186874L335.26562 99.92125Q335.26562 101.29625 335.65625 101.968124Q336.0625 102.624374 336.875 102.624374Q337.67188 102.624374 338.0625 101.999374Q338.45312 101.374374 338.46875 100.04625L338.46875 98.265Z" fill-rule="nonzero"/><path stroke="#ffffff" stroke-width="3.0" stroke-linejoin="round" stroke-linecap="round" d="M361.7183 144.25L356.12454 144.25L356.12454 143.46875L359.07767 140.1875Q359.73392 139.4375 359.98392 138.98438Q360.23392 138.51562 360.23392 138.01562Q360.23392 137.34375 359.82767 136.92188Q359.43704 136.48438 358.74954 136.48438Q357.95267 136.48438 357.49954 136.95312Q357.04642 137.40625 357.04642 138.23438L355.9683 138.23438Q355.9683 137.04688 356.7183 136.32812Q357.48392 135.59375 358.74954 135.59375Q359.95267 135.59375 360.64017 136.21875Q361.32767 136.84375 361.32767 137.89062Q361.32767 139.14062 359.7183 140.89062L357.43704 143.35938L361.7183 143.35938L361.7183 144.25ZM368.48392 140.60938Q368.48392 142.51562 367.82767 143.45312Q367.18704 144.375 365.79642 144.375Q364.43704 144.375 363.7808 143.46875Q363.12454 142.5625 363.0933 140.75L363.0933 139.3125Q363.0933 137.42188 363.73392 136.51562Q364.39017 135.59375 365.7808 135.59375Q367.1558 135.59375 367.81204 136.48438Q368.4683 137.35938 368.48392 139.20312L368.48392 140.60938ZM367.39017 139.125Q367.39017 137.75 366.99954 137.125Q366.62454 136.48438 365.7808 136.48438Q364.95267 136.48438 364.56204 137.125Q364.18704 137.75 364.18704 139.04688L364.18704 140.78125Q364.18704 142.15625 364.57767 142.82812Q364.98392 143.48438 365.79642 143.48438Q366.5933 143.48438 366.98392 142.85938Q367.37454 142.23438 367.39017 140.90625L367.39017 139.125ZM375.48392 140.60938Q375.48392 142.51562 374.82767 143.45312Q374.18704 144.375 372.79642 144.375Q371.43704 144.375 370.7808 143.46875Q370.12454 142.5625 370.0933 140.75L370.0933 139.3125Q370.0933 137.42188 370.73392 136.51562Q371.39017 135.59375 372.7808 135.59375Q374.1558 135.59375 374.81204 136.48438Q375.4683 137.35938 375.48392 139.20312L375.48392 140.60938ZM374.39017 139.125Q374.39017 137.75 373.99954 137.125Q373.62454 136.48438 372.7808 136.48438Q371.95267 136.48438 371.56204 137.125Q371.18704 137.75 371.18704 139.04688L371.18704 140.78125Q371.18704 142.15625 371.57767 142.82812Q371.98392 143.48438 372.79642 143.48438Q373.5933 143.48438 373.98392 142.85938Q374.37454 142.23438 374.39017 140.90625L374.39017 139.125Z" fill-rule="nonzero"/><path fill="#4285f4" d="M361.7183 144.25L356.12454 144.25L356.12454 143.46875L359.07767 140.1875Q359.73392 139.4375 359.98392 138.98438Q360.23392 138.51562 360.23392 138.01562Q360.23392 137.34375 359.82767 136.92188Q359.43704 136.48438 358.74954 136.48438Q357.95267 136.48438 357.49954 136.95312Q357.04642 137.40625 357.04642 138.23438L355.9683 138.23438Q355.9683 137.04688 356.7183 136.32812Q357.48392 135.59375 358.74954 135.59375Q359.95267 135.59375 360.64017 136.21875Q361.32767 136.84375 361.32767 137.89062Q361.32767 139.14062 359.7183 140.89062L357.43704 143.35938L361.7183 143.35938L361.7183 144.25ZM368.48392 140.60938Q368.48392 142.51562 367.82767 143.45312Q367.18704 144.375 365.79642 144.375Q364.43704 144.375 363.7808 143.46875Q363.12454 142.5625 363.0933 140.75L363.0933 139.3125Q363.0933 137.42188 363.73392 136.51562Q364.39017 135.59375 365.7808 135.59375Q367.1558 135.59375 367.81204 136.48438Q368.4683 137.35938 368.48392 139.20312L368.48392 140.60938ZM367.39017 139.125Q367.39017 137.75 366.99954 137.125Q366.62454 136.48438 365.7808 136.48438Q364.95267 136.48438 364.56204 137.125Q364.18704 137.75 364.18704 139.04688L364.18704 140.78125Q364.18704 142.15625 364.57767 142.82812Q364.98392 143.48438 365.79642 143.48438Q366.5933 143.48438 366.98392 142.85938Q367.37454 142.23438 367.39017 140.90625L367.39017 139.125ZM375.48392 140.60938Q375.48392 142.51562 374.82767 143.45312Q374.18704 144.375 372.79642 144.375Q371.43704 144.375 370.7808 143.46875Q370.12454 142.5625 370.0933 140.75L370.0933 139.3125Q370.0933 137.42188 370.73392 136.51562Q371.39017 135.59375 372.7808 135.59375Q374.1558 135.59375 374.81204 136.48438Q375.4683 137.35938 375.48392 139.20312L375.48392 140.60938ZM374.39017 139.125Q374.39017 137.75 373.99954 137.125Q373.62454 136.48438 372.7808 136.48438Q371.95267 136.48438 371.56204 137.125Q371.18704 137.75 371.18704 139.04688L371.18704 140.78125Q371.18704 142.15625 371.57767 142.82812Q371.98392 143.48438 372.79642 143.48438Q373.5933 143.48438 373.98392 142.85938Q374.37454 142.23438 374.39017 140.90625L374.39017 139.125Z" fill-rule="nonzero"/><path stroke="#ffffff" stroke-width="3.0" stroke-linejoin="round" stroke-linecap="round" d="M395.6085 164.68L394.53036 164.68L394.53036 157.46124L392.34286 158.25812L392.34286 157.27374L395.45224 156.10187L395.6085 156.10187L395.6085 164.68ZM404.5616 156.75812L401.03036 164.68L399.88974 164.68L403.40536 157.03937L398.796 157.03937L398.796 156.14874L404.5616 156.14874L404.5616 156.75812ZM411.40536 161.03937Q411.40536 162.94562 410.7491 163.88312Q410.1085 164.805 408.71786 164.805Q407.3585 164.805 406.70224 163.89874Q406.046 162.9925 406.01474 161.18L406.01474 159.7425Q406.01474 157.85187 406.65536 156.94562Q407.3116 156.02374 408.70224 156.02374Q410.07724 156.02374 410.7335 156.91437Q411.38974 157.78937 411.40536 159.63312L411.40536 161.03937ZM410.3116 159.555Q410.3116 158.18 409.921 157.555Q409.546 156.91437 408.70224 156.91437Q407.8741 156.91437 407.4835 157.555Q407.1085 158.18 407.1085 159.47687L407.1085 161.21124Q407.1085 162.58624 407.4991 163.25812Q407.90536 163.91437 408.71786 163.91437Q409.51474 163.91437 409.90536 163.28937Q410.296 162.66437 410.3116 161.33624L410.3116 159.555Z" fill-rule="nonzero"/><path fill="#4285f4" d="M395.6085 164.68L394.53036 164.68L394.53036 157.46124L392.34286 158.25812L392.34286 157.27374L395.45224 156.10187L395.6085 156.10187L395.6085 164.68ZM404.5616 156.75812L401.03036 164.68L399.88974 164.68L403.40536 157.03937L398.796 157.03937L398.796 156.14874L404.5616 156.14874L404.5616 156.75812ZM411.40536 161.03937Q411.40536 162.94562 410.7491 163.88312Q410.1085 164.805 408.71786 164.805Q407.3585 164.805 406.70224 163.89874Q406.046 162.9925 406.01474 161.18L406.01474 159.7425Q406.01474 157.85187 406.65536 156.94562Q407.3116 156.02374 408.70224 156.02374Q410.07724 156.02374 410.7335 156.91437Q411.38974 157.78937 411.40536 159.63312L411.40536 161.03937ZM410.3116 159.555Q410.3116 158.18 409.921 157.555Q409.546 156.91437 408.70224 156.91437Q407.8741 156.91437 407.4835 157.555Q407.1085 158.18 407.1085 159.47687L407.1085 161.21124Q407.1085 162.58624 407.4991 163.25812Q407.90536 163.91437 408.71786 163.91437Q409.51474 163.91437 409.90536 163.28937Q410.296 162.66437 410.3116 161.33624L410.3116 159.555Z" fill-rule="nonzero"/><path stroke="#ffffff" stroke-width="3.0" stroke-linejoin="round" stroke-linecap="round" d="M431.5299 185.11L430.45178 185.11L430.45178 177.89125L428.26428 178.68813L428.26428 177.70375L431.37366 176.53188L431.5299 176.53188L431.5299 185.11ZM439.54553 182.25063L440.73303 182.25063L440.73303 183.12563L439.54553 183.12563L439.54553 185.11L438.4674 185.11L438.4674 183.12563L434.57678 183.12563L434.57678 182.485L438.38928 176.57875L439.54553 176.57875L439.54553 182.25063ZM435.81116 182.25063L438.4674 182.25063L438.4674 178.06313L438.32678 178.2975L435.81116 182.25063ZM447.32678 181.46938Q447.32678 183.37563 446.67053 184.31313Q446.0299 185.235 444.63928 185.235Q443.2799 185.235 442.62366 184.32875Q441.9674 183.4225 441.93616 181.61L441.93616 180.1725Q441.93616 178.28188 442.57678 177.37563Q443.23303 176.45375 444.62366 176.45375Q445.99866 176.45375 446.6549 177.34438Q447.31116 178.21938 447.32678 180.06313L447.32678 181.46938ZM446.23303 179.985Q446.23303 178.61 445.8424 177.985Q445.4674 177.34438 444.62366 177.34438Q443.79553 177.34438 443.4049 177.985Q443.0299 178.61 443.0299 179.90688L443.0299 181.64125Q443.0299 183.01625 443.42053 183.68813Q443.82678 184.34438 444.63928 184.34438Q445.43616 184.34438 445.82678 183.71938Q446.2174 183.09438 446.23303 181.76625L446.23303 179.985Z" fill-rule="nonzero"/><path fill="#4285f4" d="M431.5299 185.11L430.45178 185.11L430.45178 177.89125L428.26428 178.68813L428.26428 177.70375L431.37366 176.53188L431.5299 176.53188L431.5299 185.11ZM439.54553 182.25063L440.73303 182.25063L440.73303 183.12563L439.54553 183.12563L439.54553 185.11L438.4674 185.11L438.4674 183.12563L434.57678 183.12563L434.57678 182.485L438.38928 176.57875L439.54553 176.57875L439.54553 182.25063ZM435.81116 182.25063L438.4674 182.25063L438.4674 178.06313L438.32678 178.2975L435.81116 182.25063ZM447.32678 181.46938Q447.32678 183.37563 446.67053 184.31313Q446.0299 185.235 444.63928 185.235Q443.2799 185.235 442.62366 184.32875Q441.9674 183.4225 441.93616 181.61L441.93616 180.1725Q441.93616 178.28188 442.57678 177.37563Q443.23303 176.45375 444.62366 176.45375Q445.99866 176.45375 446.6549 177.34438Q447.31116 178.21938 447.32678 180.06313L447.32678 181.46938ZM446.23303 179.985Q446.23303 178.61 445.8424 177.985Q445.4674 177.34438 444.62366 177.34438Q443.79553 177.34438 443.4049 177.985Q443.0299 178.61 443.0299 179.90688L443.0299 181.64125Q443.0299 183.01625 443.42053 183.68813Q443.82678 184.34438 444.63928 184.34438Q445.43616 184.34438 445.82678 183.71938Q446.2174 183.09438 446.23303 181.76625L446.23303 179.985Z" fill-rule="nonzero"/><path stroke="#ffffff" stroke-width="3.0" stroke-linejoin="round" stroke-linecap="round" d="M467.45132 198.73L466.3732 198.73L466.3732 191.51125L464.1857 192.30812L464.1857 191.32375L467.29507 190.15187L467.45132 190.15187L467.45132 198.73ZM476.48257 198.73L470.88882 198.73L470.88882 197.94875L473.84195 194.6675Q474.4982 193.9175 474.7482 193.46437Q474.9982 192.99562 474.9982 192.49562Q474.9982 191.82375 474.59195 191.40187Q474.20132 190.96437 473.51382 190.96437Q472.71695 190.96437 472.26382 191.43312Q471.8107 191.88625 471.8107 192.71437L470.73257 192.71437Q470.73257 191.52687 471.48257 190.80812Q472.2482 190.07375 473.51382 190.07375Q474.71695 190.07375 475.40445 190.69875Q476.09195 191.32375 476.09195 192.37062Q476.09195 193.62062 474.48257 195.37062L472.20132 197.83937L476.48257 197.83937L476.48257 198.73ZM483.2482 195.08937Q483.2482 196.99562 482.59195 197.93312Q481.95132 198.855 480.5607 198.855Q479.20132 198.855 478.54507 197.94875Q477.88882 197.0425 477.85757 195.23L477.85757 193.7925Q477.85757 191.90187 478.4982 190.99562Q479.15445 190.07375 480.54507 190.07375Q481.92007 190.07375 482.57632 190.96437Q483.23257 191.83937 483.2482 193.68312L483.2482 195.08937ZM482.15445 193.605Q482.15445 192.23 481.76382 191.605Q481.38882 190.96437 480.54507 190.96437Q479.71695 190.96437 479.32632 191.605Q478.95132 192.23 478.95132 193.52687L478.95132 195.26125Q478.95132 196.63625 479.34195 197.30812Q479.7482 197.96437 480.5607 197.96437Q481.35757 197.96437 481.7482 197.33937Q482.13882 196.71437 482.15445 195.38625L482.15445 193.605Z" fill-rule="nonzero"/><path fill="#4285f4" d="M467.45132 198.73L466.3732 198.73L466.3732 191.51125L464.1857 192.30812L464.1857 191.32375L467.29507 190.15187L467.45132 190.15187L467.45132 198.73ZM476.48257 198.73L470.88882 198.73L470.88882 197.94875L473.84195 194.6675Q474.4982 193.9175 474.7482 193.46437Q474.9982 192.99562 474.9982 192.49562Q474.9982 191.82375 474.59195 191.40187Q474.20132 190.96437 473.51382 190.96437Q472.71695 190.96437 472.26382 191.43312Q471.8107 191.88625 471.8107 192.71437L470.73257 192.71437Q470.73257 191.52687 471.48257 190.80812Q472.2482 190.07375 473.51382 190.07375Q474.71695 190.07375 475.40445 190.69875Q476.09195 191.32375 476.09195 192.37062Q476.09195 193.62062 474.48257 195.37062L472.20132 197.83937L476.48257 197.83937L476.48257 198.73ZM483.2482 195.08937Q483.2482 196.99562 482.59195 197.93312Q481.95132 198.855 480.5607 198.855Q479.20132 198.855 478.54507 197.94875Q477.88882 197.0425 477.85757 195.23L477.85757 193.7925Q477.85757 191.90187 478.4982 190.99562Q479.15445 190.07375 480.54507 190.07375Q481.92007 190.07375 482.57632 190.96437Q483.23257 191.83937 483.2482 193.68312L483.2482 195.08937ZM482.15445 193.605Q482.15445 192.23 481.76382 191.605Q481.38882 190.96437 480.54507 190.96437Q479.71695 190.96437 479.32632 191.605Q478.95132 192.23 478.95132 193.52687L478.95132 195.26125Q478.95132 196.63625 479.34195 197.30812Q479.7482 197.96437 480.5607 197.96437Q481.35757 197.96437 481.7482 197.33937Q482.13882 196.71437 482.15445 195.38625L482.15445 193.605Z" fill-rule="nonzero"/><path stroke="#ffffff" stroke-width="3.0" stroke-linejoin="round" stroke-linecap="round" d="M508.8259 224.85812L505.29465 232.78L504.15402 232.78L507.66965 225.13937L503.06027 225.13937L503.06027 224.24875L508.8259 224.24875L508.8259 224.85812ZM515.6696 229.13937Q515.6696 231.04562 515.01337 231.98312Q514.37274 232.905 512.9821 232.905Q511.62277 232.905 510.96652 231.99875Q510.31027 231.0925 510.27902 229.28L510.27902 227.8425Q510.27902 225.95187 510.91965 225.04562Q511.5759 224.12375 512.9665 224.12375Q514.3415 224.12375 514.99774 225.01437Q515.654 225.88937 515.6696 227.73312L515.6696 229.13937ZM514.57587 227.655Q514.57587 226.28 514.18524 225.655Q513.81024 225.01437 512.9665 225.01437Q512.13837 225.01437 511.74777 225.655Q511.37277 226.28 511.37277 227.57687L511.37277 229.31125Q511.37277 230.68625 511.7634 231.35812Q512.1696 232.01437 512.9821 232.01437Q513.779 232.01437 514.1696 231.38937Q514.56024 230.76437 514.57587 229.43625L514.57587 227.655Z" fill-rule="nonzero"/><path fill="#4285f4" d="M508.8259 224.85812L505.29465 232.78L504.15402 232.78L507.66965 225.13937L503.06027 225.13937L503.06027 224.24875L508.8259 224.24875L508.8259 224.85812ZM515.6697 229.13937Q515.6697 231.04562 515.0134 231.98312Q514.3728 232.905 512.9822 232.905Q511.62277 232.905 510.96652 231.99875Q510.31027 231.0925 510.27902 229.28L510.27902 227.8425Q510.27902 225.95187 510.91965 225.04562Q511.5759 224.12375 512.96655 224.12375Q514.34155 224.12375 514.9978 225.01437Q515.65405 225.88937 515.6697 227.73312L515.6697 229.13937ZM514.5759 227.655Q514.5759 226.28 514.1853 225.655Q513.8103 225.01437 512.96655 225.01437Q512.1384 225.01437 511.74777 225.655Q511.37277 226.28 511.37277 227.57687L511.37277 229.31125Q511.37277 230.68625 511.7634 231.35812Q512.1697 232.01437 512.9822 232.01437Q513.77905 232.01437 514.1697 231.38937Q514.5603 230.76437 514.5759 229.43625L514.5759 227.655Z" fill-rule="nonzero"/><path stroke="#ffffff" stroke-width="3.0" stroke-linejoin="round" stroke-linecap="round" d="M540.8098 251.81813L541.6223 251.81813Q542.40356 251.8025 542.84106 251.41188Q543.27856 251.02126 543.27856 250.34938Q543.27856 248.84938 541.77856 248.84938Q541.07544 248.84938 540.65356 249.25563Q540.2473 249.66188 540.2473 250.31813L539.15356 250.31813Q539.15356 249.3025 539.88794 248.63063Q540.63794 247.95876 541.77856 247.95876Q542.9817 247.95876 543.6692 248.59938Q544.3567 249.24 544.3567 250.38063Q544.3567 250.94313 543.9973 251.45876Q543.63794 251.97438 543.01294 252.24Q543.71606 252.45876 544.09106 252.97438Q544.4817 253.49 544.4817 254.24Q544.4817 255.38063 543.7317 256.0681Q542.9817 256.74 541.77856 256.74Q540.59106 256.74 539.82544 256.08374Q539.07544 255.4275 539.07544 254.365L540.1692 254.365Q540.1692 255.03688 540.6067 255.44313Q541.0442 255.84938 541.7942 255.84938Q542.57544 255.84938 542.9817 255.44313Q543.40356 255.02126 543.40356 254.25563Q543.40356 253.52126 542.95044 253.13063Q542.4973 252.72438 541.6223 252.70876L540.8098 252.70876L540.8098 251.81813ZM546.7317 252.33376L547.1692 248.08376L551.5442 248.08376L551.5442 249.08376L548.09106 249.08376L547.82544 251.41188Q548.46606 251.03688 549.26294 251.03688Q550.4192 251.03688 551.1067 251.81813Q551.7942 252.58376 551.7942 253.89626Q551.7942 255.20876 551.07544 255.97438Q550.3723 256.74 549.09106 256.74Q547.96606 256.74 547.2473 256.115Q546.52856 255.47438 546.4348 254.365L547.45044 254.365Q547.5598 255.09938 547.9817 255.47438Q548.40356 255.84938 549.09106 255.84938Q549.84106 255.84938 550.27856 255.33376Q550.71606 254.81813 550.71606 253.91188Q550.71606 253.0525 550.2473 252.53688Q549.77856 252.02126 548.9973 252.02126Q548.2942 252.02126 547.88794 252.31813L547.6067 252.5525L546.7317 252.33376Z" fill-rule="nonzero"/><path fill="#4285f4" d="M540.8098 251.81812L541.6223 251.81812Q542.40356 251.80249 542.84106 251.41187Q543.27856 251.02124 543.27856 250.34937Q543.27856 248.84937 541.77856 248.84937Q541.07544 248.84937 540.65356 249.25562Q540.2473 249.66187 540.2473 250.31812L539.15356 250.31812Q539.15356 249.30249 539.88794 248.63062Q540.63794 247.95874 541.77856 247.95874Q542.9817 247.95874 543.6692 248.59937Q544.3567 249.23999 544.3567 250.38062Q544.3567 250.94312 543.9973 251.45874Q543.63794 251.97437 543.01294 252.23999Q543.71606 252.45874 544.09106 252.97437Q544.4817 253.48999 544.4817 254.23999Q544.4817 255.38062 543.7317 256.0681Q542.9817 256.74 541.77856 256.74Q540.59106 256.74 539.82544 256.08374Q539.07544 255.42749 539.07544 254.36499L540.1692 254.36499Q540.1692 255.03687 540.6067 255.44312Q541.0442 255.84937 541.7942 255.84937Q542.57544 255.84937 542.9817 255.44312Q543.40356 255.02124 543.40356 254.25562Q543.40356 253.52124 542.95044 253.13062Q542.4973 252.72437 541.6223 252.70874L540.8098 252.70874L540.8098 251.81812ZM546.7317 252.33374L547.1692 248.08374L551.5442 248.08374L551.5442 249.08374L548.09106 249.08374L547.82544 251.41187Q548.46606 251.03687 549.26294 251.03687Q550.4192 251.03687 551.1067 251.81812Q551.7942 252.58374 551.7942 253.89624Q551.7942 255.20874 551.07544 255.97437Q550.3723 256.74 549.09106 256.74Q547.96606 256.74 547.2473 256.115Q546.52856 255.47437 546.4348 254.36499L547.45044 254.36499Q547.5598 255.09937 547.9817 255.47437Q548.40356 255.84937 549.09106 255.84937Q549.84106 255.84937 550.27856 255.33374Q550.71606 254.81812 550.71606 253.91187Q550.71606 253.05249 550.2473 252.53687Q549.77856 252.02124 548.9973 252.02124Q548.2942 252.02124 547.88794 252.31812L547.6067 252.55249L546.7317 252.33374Z" fill-rule="nonzero"/><path stroke="#ffffff" stroke-width="3.0" stroke-linejoin="round" stroke-linecap="round" d="M584.0125 276.8094Q584.0125 278.71564 583.35626 279.65314Q582.71564 280.575 581.325 280.575Q579.96564 280.575 579.3094 279.66876Q578.65314 278.7625 578.6219 276.95L578.6219 275.5125Q578.6219 273.6219 579.2625 272.71564Q579.91876 271.79376 581.3094 271.79376Q582.6844 271.79376 583.34064 272.6844Q583.9969 273.5594 584.0125 275.40314L584.0125 276.8094ZM582.91876 275.325Q582.91876 273.95 582.52814 273.325Q582.15314 272.6844 581.3094 272.6844Q580.48126 272.6844 580.09064 273.325Q579.71564 273.95 579.71564 275.2469L579.71564 276.98126Q579.71564 278.35626 580.10626 279.02814Q580.5125 279.6844 581.325 279.6844Q582.1219 279.6844 582.5125 279.0594Q582.90314 278.4344 582.91876 277.10626L582.91876 275.325Z" fill-rule="nonzero"/><path fill="#4285f4" d="M584.0125 276.8094Q584.0125 278.71564 583.35626 279.65314Q582.71564 280.575 581.325 280.575Q579.96564 280.575 579.3094 279.66876Q578.65314 278.7625 578.6219 276.95L578.6219 275.5125Q578.6219 273.6219 579.2625 272.71564Q579.91876 271.79376 581.3094 271.79376Q582.6844 271.79376 583.34064 272.6844Q583.9969 273.5594 584.0125 275.40314L584.0125 276.8094ZM582.91876 275.325Q582.91876 273.95 582.52814 273.325Q582.15314 272.6844 581.3094 272.6844Q580.48126 272.6844 580.09064 273.325Q579.71564 273.95 579.71564 275.2469L579.71564 276.98126Q579.71564 278.35626 580.10626 279.02814Q580.5125 279.6844 581.325 279.6844Q582.1219 279.6844 582.5125 279.0594Q582.90314 278.4344 582.91876 277.10626L582.91876 275.325Z" fill-rule="nonzero"/><path fill="#424242" d="M320.48438 349.45L320.48438 340.91876L322.90625 340.91876Q324.01562 340.91876 324.85938 341.41876Q325.71875 341.90314 326.1875 342.8094Q326.65625 343.71564 326.65625 344.90314L326.65625 345.4344Q326.65625 346.65314 326.1875 347.5594Q325.73438 348.46564 324.85938 348.95Q324.0 349.4344 322.85938 349.45L320.48438 349.45ZM321.60938 341.84064L321.60938 348.52814L322.79688 348.52814Q324.09375 348.52814 324.8125 347.73126Q325.54688 346.91876 325.54688 345.41876L325.54688 344.91876Q325.54688 343.46564 324.85938 342.66876Q324.1875 341.85626 322.92188 341.84064L321.60938 341.84064ZM332.23438 349.45Q332.14062 349.2625 332.07812 348.77814Q331.32812 349.575 330.28125 349.575Q329.34375 349.575 328.73438 349.04376Q328.14062 348.5125 328.14062 347.6844Q328.14062 346.7 328.89062 346.15314Q329.64062 345.60626 331.01562 345.60626L332.0625 345.60626L332.0625 345.10626Q332.0625 344.54376 331.71875 344.21564Q331.39062 343.8719 330.71875 343.8719Q330.14062 343.8719 329.75 344.16876Q329.35938 344.45 329.35938 344.8719L328.26562 344.8719Q328.26562 344.3875 328.59375 343.95Q328.9375 343.5125 329.51562 343.2625Q330.09375 342.9969 330.78125 342.9969Q331.89062 342.9969 332.5 343.54376Q333.125 344.09064 333.15625 345.04376L333.15625 347.96564Q333.15625 348.84064 333.375 349.35626L333.375 349.45L332.23438 349.45ZM330.4375 348.6219Q330.95312 348.6219 331.40625 348.35626Q331.85938 348.09064 332.0625 347.66876L332.0625 346.3719L331.21875 346.3719Q329.21875 346.3719 329.21875 347.54376Q329.21875 348.04376 329.5625 348.34064Q329.90625 348.6219 330.4375 348.6219ZM337.39062 347.85626L338.875 343.10626L340.03125 343.10626L337.48438 350.4344Q336.89062 352.0125 335.60938 352.0125L335.39062 351.9969L335.0 351.91876L335.0 351.04376L335.28125 351.0594Q335.84375 351.0594 336.14062 350.84064Q336.45312 350.6219 336.65625 350.02814L336.89062 349.3719L334.625 343.10626L335.8125 343.10626L337.39062 347.85626Z" fill-rule="nonzero"/><path fill="#424242" d="M26.753138 244.0Q26.331263 245.4375 25.721888 246.10938Q25.112513 246.76562 24.221888 246.76562Q23.221888 246.76562 22.565638 245.96875Q21.893763 245.15625 21.893763 243.85938Q21.893763 242.98438 22.237513 242.29688Q22.581263 241.60938 23.175013 241.23438Q23.768763 240.84375 24.487513 240.84375L24.487513 241.98438Q23.706263 241.98438 23.268763 242.48438Q22.831263 242.96875 22.831263 243.85938Q22.831263 244.6875 23.206263 245.15625Q23.565638 245.625 24.206263 245.625Q24.737513 245.625 25.096888 245.1875Q25.456263 244.73438 25.753138 243.67188Q26.050013 242.60938 26.409388 242.01562Q26.768763 241.40625 27.253138 241.125Q27.737513 240.82812 28.378138 240.82812Q29.425013 240.82812 30.050013 241.64062Q30.675013 242.45312 30.675013 243.79688Q30.675013 244.6875 30.331263 245.45312Q29.987513 246.20312 29.409388 246.625Q28.815638 247.03125 28.081263 247.03125L28.081263 245.90625Q28.846888 245.90625 29.300013 245.32812Q29.753138 244.75 29.753138 243.79688Q29.753138 242.90625 29.393763 242.4375Q29.018763 241.96875 28.393763 241.96875Q27.768763 241.96875 27.425013 242.40625Q27.081263 242.84375 26.753138 244.0ZM29.925013 235.76562Q30.675013 236.39062 30.675013 237.625Q30.675013 238.64062 30.081263 239.17188Q29.487513 239.70312 28.331263 239.70312L24.206263 239.70312L24.206263 238.625L28.300013 238.625Q29.753138 238.625 29.753138 237.45312Q29.753138 236.20312 28.815638 235.79688L24.206263 235.79688L24.206263 234.70312L30.550013 234.70312L30.550013 235.73438L29.925013 235.76562ZM24.206263 231.65625L24.909388 231.625Q24.096888 230.9375 24.096888 229.75Q24.096888 228.42188 25.112513 227.9375Q24.659388 227.625 24.378138 227.125Q24.096888 226.60938 24.096888 225.92188Q24.096888 223.82812 26.300013 223.79688L30.550013 223.79688L30.550013 224.875L26.362513 224.875Q25.690638 224.875 25.362513 225.1875Q25.018763 225.5 25.018763 226.23438Q25.018763 226.84375 25.378138 227.25Q25.737513 227.64062 26.346888 227.70312L30.550013 227.70312L30.550013 228.78125L26.393763 228.78125Q25.018763 228.78125 25.018763 230.14062Q25.018763 231.20312 25.925013 231.59375L30.550013 231.59375L30.550013 232.6875L24.206263 232.6875L24.206263 231.65625ZM27.315638 218.96875Q26.393763 218.96875 25.643763 218.60938Q24.893763 218.23438 24.503138 217.57812Q24.096888 216.92188 24.096888 216.09375Q24.096888 214.79688 24.987513 214.0Q25.878138 213.1875 27.378138 213.1875L27.456263 213.1875Q28.378138 213.1875 29.112513 213.54688Q29.846888 213.90625 30.268763 214.5625Q30.675013 215.21875 30.675013 216.07812Q30.675013 217.35938 29.784388 218.17188Q28.878138 218.96875 27.393763 218.96875L27.315638 218.96875ZM27.456263 217.875Q28.503138 217.875 29.143763 217.39062Q29.784388 216.89062 29.784388 216.07812Q29.784388 215.25 29.143763 214.76562Q28.487513 214.28125 27.315638 214.28125Q26.284388 214.28125 25.643763 214.78125Q24.987513 215.26562 24.987513 216.09375Q24.987513 216.89062 25.628138 217.39062Q26.253138 217.875 27.456263 217.875ZM30.550013 211.14062L25.050013 211.14062L25.050013 212.14062L24.206263 212.14062L24.206263 211.14062L23.565638 211.14062Q22.534388 211.14062 21.987513 210.60938Q21.425013 210.0625 21.425013 209.0625Q21.425013 208.6875 21.518763 208.3125L22.409388 208.375Q22.346888 208.65625 22.346888 208.95312Q22.346888 209.48438 22.659388 209.78125Q22.971888 210.0625 23.534388 210.0625L24.206263 210.0625L24.206263 208.70312L25.050013 208.70312L25.050013 210.0625L30.550013 210.0625L30.550013 211.14062ZM25.175013 201.60938Q25.143763 201.85938 25.143763 202.14062Q25.143763 203.21875 26.050013 203.59375L30.550013 203.59375L30.550013 204.67188L24.206263 204.67188L24.206263 203.625L24.940638 203.60938Q24.096888 203.07812 24.096888 202.09375Q24.096888 201.78125 24.175013 201.60938L25.175013 201.60938ZM30.675013 198.04688Q30.675013 199.34375 29.831263 200.15625Q28.971888 200.95312 27.550013 200.95312L27.362513 200.95312Q26.409388 200.95312 25.675013 200.59375Q24.925013 200.23438 24.518763 199.59375Q24.096888 198.9375 24.096888 198.1875Q24.096888 196.95312 24.909388 196.26562Q25.721888 195.57812 27.237513 195.57812L27.690638 195.57812L27.690638 199.875Q28.628138 199.84375 29.206263 199.32812Q29.784388 198.79688 29.784388 197.98438Q29.784388 197.42188 29.550013 197.03125Q29.315638 196.625 28.925013 196.3125L29.440638 195.65625Q30.675013 196.45312 30.675013 198.04688ZM24.987513 198.1875Q24.987513 198.84375 25.471888 199.29688Q25.940638 199.73438 26.800013 199.82812L26.800013 196.65625L26.721888 196.65625Q25.893763 196.70312 25.440638 197.10938Q24.987513 197.5 24.987513 198.1875ZM24.206263 193.65625L24.909388 193.625Q24.096888 192.9375 24.096888 191.75Q24.096888 190.42188 25.112513 189.9375Q24.659388 189.625 24.378138 189.125Q24.096888 188.60938 24.096888 187.92188Q24.096888 185.82812 26.300013 185.79688L30.550013 185.79688L30.550013 186.875L26.362513 186.875Q25.690638 186.875 25.362513 187.1875Q25.018763 187.5 25.018763 188.23438Q25.018763 188.84375 25.378138 189.25Q25.737513 189.64062 26.346888 189.70312L30.550013 189.70312L30.550013 190.78125L26.393763 190.78125Q25.018763 190.78125 25.018763 192.14062Q25.018763 193.20312 25.925013 193.59375L30.550013 193.59375L30.550013 194.6875L24.206263 194.6875L24.206263 193.65625ZM30.550013 179.76562Q30.362513 179.85938 29.878138 179.92188Q30.675013 180.67188 30.675013 181.71875Q30.675013 182.65625 30.143763 183.26562Q29.612513 183.85938 28.784388 183.85938Q27.800013 183.85938 27.253138 183.10938Q26.706263 182.35938 26.706263 180.98438L26.706263 179.9375L26.206263 179.9375Q25.643763 179.9375 25.315638 180.28125Q24.971888 180.60938 24.971888 181.28125Q24.971888 181.85938 25.268763 182.25Q25.550013 182.64062 25.971888 182.64062L25.971888 183.73438Q25.487513 183.73438 25.050013 183.40625Q24.612513 183.0625 24.362513 182.48438Q24.096888 181.90625 24.096888 181.21875Q24.096888 180.10938 24.643763 179.5Q25.190638 178.875 26.143763 178.84375L29.065638 178.84375Q29.940638 178.84375 30.456263 178.625L30.550013 178.625L30.550013 179.76562ZM29.721888 181.5625Q29.721888 181.04688 29.456263 180.59375Q29.190638 180.14062 28.768763 179.9375L27.471888 179.9375L27.471888 180.78125Q27.471888 182.78125 28.643763 182.78125Q29.143763 182.78125 29.440638 182.4375Q29.721888 182.09375 29.721888 181.5625ZM30.550013 175.5L30.550013 176.57812L24.206263 176.57812L24.206263 175.5L30.550013 175.5ZM22.534388 176.67188Q22.268763 176.67188 22.081263 176.51562Q21.893763 176.34375 21.893763 176.03125Q21.893763 175.71875 22.081263 175.5625Q22.268763 175.39062 22.534388 175.39062Q22.784388 175.39062 22.971888 175.5625Q23.143763 175.71875 23.143763 176.03125Q23.143763 176.34375 22.971888 176.51562Q22.784388 176.67188 22.534388 176.67188ZM24.206263 172.65625L25.003138 172.625Q24.096888 171.89062 24.096888 170.71875Q24.096888 168.70312 26.362513 168.6875L30.550013 168.6875L30.550013 169.78125L26.346888 169.78125Q25.675013 169.78125 25.346888 170.09375Q25.018763 170.39062 25.018763 171.04688Q25.018763 171.57812 25.300013 171.98438Q25.581263 172.375 26.034388 172.59375L30.550013 172.59375L30.550013 173.67188L24.206263 173.67188L24.206263 172.65625ZM30.550013 165.5L30.550013 166.57812L24.206263 166.57812L24.206263 165.5L30.550013 165.5ZM22.534388 166.67188Q22.268763 166.67188 22.081263 166.51562Q21.893763 166.34375 21.893763 166.03125Q21.893763 165.71875 22.081263 165.5625Q22.268763 165.39062 22.534388 165.39062Q22.784388 165.39062 22.971888 165.5625Q23.143763 165.71875 23.143763 166.03125Q23.143763 166.34375 22.971888 166.51562Q22.784388 166.67188 22.534388 166.67188ZM24.206263 162.65625L25.003138 162.625Q24.096888 161.89062 24.096888 160.71875Q24.096888 158.70312 26.362513 158.6875L30.550013 158.6875L30.550013 159.78125L26.346888 159.78125Q25.675013 159.78125 25.346888 160.09375Q25.018763 160.39062 25.018763 161.04688Q25.018763 161.57812 25.300013 161.98438Q25.581263 162.375 26.034388 162.59375L30.550013 162.59375L30.550013 163.67188L24.206263 163.67188L24.206263 162.65625ZM27.331263 156.9375Q25.846888 156.9375 24.971888 156.25Q24.096888 155.5625 24.096888 154.4375Q24.096888 153.28125 24.909388 152.625L24.206263 152.57812L24.206263 151.57812L30.393763 151.57812Q31.628138 151.57812 32.33126 152.3125Q33.05001 153.04688 33.05001 154.26562Q33.05001 154.95312 32.753136 155.60938Q32.45626 156.26562 31.956263 156.60938L31.300013 156.04688Q32.159386 155.35938 32.159386 154.34375Q32.159386 153.5625 31.706263 153.125Q31.268763 152.67188 30.456263 152.67188L29.909388 152.67188Q30.675013 153.32812 30.675013 154.45312Q30.675013 155.5625 29.784388 156.25Q28.878138 156.9375 27.331263 156.9375ZM27.456263 155.84375Q28.518763 155.84375 29.143763 155.40625Q29.753138 154.96875 29.753138 154.17188Q29.753138 153.15625 28.815638 152.67188L25.925013 152.67188Q25.018763 153.17188 25.018763 154.17188Q25.018763 154.95312 25.628138 155.40625Q26.237513 155.84375 27.456263 155.84375ZM22.675013 145.20312L24.206263 145.20312L24.206263 144.03125L25.050013 144.03125L25.050013 145.20312L28.971888 145.20312Q29.362513 145.20312 29.550013 145.04688Q29.737513 144.89062 29.737513 144.51562Q29.737513 144.32812 29.675013 144.0L30.550013 144.0Q30.675013 144.42188 30.675013 144.82812Q30.675013 145.54688 30.237513 145.92188Q29.784388 146.29688 28.971888 146.29688L25.050013 146.29688L25.050013 147.45312L24.206263 147.45312L24.206263 146.29688L22.675013 146.29688L22.675013 145.20312ZM30.550013 138.76562Q30.362513 138.85938 29.878138 138.92188Q30.675013 139.67188 30.675013 140.71875Q30.675013 141.65625 30.143763 142.26562Q29.612513 142.85938 28.784388 142.85938Q27.800013 142.85938 27.253138 142.10938Q26.706263 141.35938 26.706263 139.98438L26.706263 138.9375L26.206263 138.9375Q25.643763 138.9375 25.315638 139.28125Q24.971888 139.60938 24.971888 140.28125Q24.971888 140.85938 25.268763 141.25Q25.550013 141.64062 25.971888 141.64062L25.971888 142.73438Q25.487513 142.73438 25.050013 142.40625Q24.612513 142.0625 24.362513 141.48438Q24.096888 140.90625 24.096888 140.21875Q24.096888 139.10938 24.643763 138.5Q25.190638 137.875 26.143763 137.84375L29.065638 137.84375Q29.940638 137.84375 30.456263 137.625L30.550013 137.625L30.550013 138.76562ZM29.721888 140.5625Q29.721888 140.04688 29.456263 139.59375Q29.190638 139.14062 28.768763 138.9375L27.471888 138.9375L27.471888 139.78125Q27.471888 141.78125 28.643763 141.78125Q29.143763 141.78125 29.440638 141.4375Q29.721888 141.09375 29.721888 140.5625ZM28.862513 131.98438Q28.425013 131.98438 28.190638 132.32812Q27.940638 132.65625 27.768763 133.48438Q27.596888 134.29688 27.346888 134.78125Q27.096888 135.26562 26.768763 135.5Q26.425013 135.71875 25.956263 135.71875Q25.175013 135.71875 24.643763 135.0625Q24.096888 134.40625 24.096888 133.375Q24.096888 132.29688 24.659388 131.64062Q25.206263 130.96875 26.065638 130.96875L26.065638 132.04688Q25.628138 132.04688 25.315638 132.4375Q24.987513 132.8125 24.987513 133.375Q24.987513 133.96875 25.253138 134.3125Q25.503138 134.64062 25.909388 134.64062Q26.300013 134.64062 26.503138 134.32812Q26.706263 134.01562 26.893763 133.20312Q27.065638 132.39062 27.315638 131.89062Q27.565638 131.39062 27.925013 131.15625Q28.284388 130.90625 28.784388 130.90625Q29.643763 130.90625 30.159388 131.59375Q30.675013 132.26562 30.675013 133.34375Q30.675013 134.10938 30.409388 134.70312Q30.128138 135.28125 29.643763 135.60938Q29.159388 135.9375 28.596888 135.9375L28.596888 134.85938Q29.143763 134.82812 29.471888 134.42188Q29.784388 134.01562 29.784388 133.34375Q29.784388 132.73438 29.534388 132.35938Q29.284388 131.98438 28.862513 131.98438ZM27.612513 127.90625L28.315638 128.59375L30.550013 128.59375L30.550013 129.67188L21.550013 129.67188L21.550013 128.59375L26.987513 128.59375L26.300013 128.01562L24.206263 126.03125L24.206263 124.71875L26.862513 127.1875L30.550013 124.421875L30.550013 125.703125L27.612513 127.90625ZM24.971888 119.59375Q24.096888 118.875 24.096888 117.71875Q24.096888 115.703125 26.362513 115.6875L30.550013 115.6875L30.550013 116.78125L26.346888 116.78125Q25.675013 116.78125 25.346888 117.09375Q25.018763 117.390625 25.018763 118.046875Q25.018763 118.578125 25.300013 118.984375Q25.581263 119.375 26.034388 119.59375L30.550013 119.59375L30.550013 120.671875L21.550013 120.671875L21.550013 119.59375L24.971888 119.59375ZM27.315638 113.96875Q26.393763 113.96875 25.643763 113.609375Q24.893763 113.234375 24.503138 112.578125Q24.096888 111.921875 24.096888 111.09375Q24.096888 109.796875 24.987513 109.0Q25.878138 108.1875 27.378138 108.1875L27.456263 108.1875Q28.378138 108.1875 29.112513 108.546875Q29.846888 108.90625 30.268763 109.5625Q30.675013 110.21875 30.675013 111.078125Q30.675013 112.359375 29.784388 113.171875Q28.878138 113.96875 27.393763 113.96875L27.315638 113.96875ZM27.456263 112.875Q28.503138 112.875 29.143763 112.390625Q29.784388 111.890625 29.784388 111.078125Q29.784388 110.25 29.143763 109.765625Q28.487513 109.28125 27.315638 109.28125Q26.284388 109.28125 25.643763 109.78125Q24.987513 110.265625 24.987513 111.09375Q24.987513 111.890625 25.628138 112.390625Q26.253138 112.875 27.456263 112.875ZM29.925013 102.765625Q30.675013 103.390625 30.675013 104.625Q30.675013 105.640625 30.081263 106.171875Q29.487513 106.703125 28.331263 106.703125L24.206263 106.703125L24.206263 105.625L28.300013 105.625Q29.753138 105.625 29.753138 104.453125Q29.753138 103.203125 28.815638 102.796875L24.206263 102.796875L24.206263 101.703125L30.550013 101.703125L30.550013 102.734375L29.925013 102.765625ZM25.175013 96.609375Q25.143763 96.859375 25.143763 97.140625Q25.143763 98.21875 26.050013 98.59375L30.550013 98.59375L30.550013 99.671875L24.206263 99.671875L24.206263 98.625L24.940638 98.609375Q24.096888 98.078125 24.096888 97.09375Q24.096888 96.78125 24.175013 96.609375L25.175013 96.609375ZM28.862513 91.984375Q28.425013 91.984375 28.190638 92.328125Q27.940638 92.65625 27.768763 93.484375Q27.596888 94.296875 27.346888 94.78125Q27.096888 95.265625 26.768763 95.5Q26.425013 95.71875 25.956263 95.71875Q25.175013 95.71875 24.643763 95.0625Q24.096888 94.40625 24.096888 93.375Q24.096888 92.296875 24.659388 91.640625Q25.206263 90.96875 26.065638 90.96875L26.065638 92.046875Q25.628138 92.046875 25.315638 92.4375Q24.987513 92.8125 24.987513 93.375Q24.987513 93.96875 25.253138 94.3125Q25.503138 94.640625 25.909388 94.640625Q26.300013 94.640625 26.503138 94.328125Q26.706263 94.015625 26.893763 93.203125Q27.065638 92.390625 27.315638 91.890625Q27.565638 91.390625 27.925013 91.15625Q28.284388 90.90625 28.784388 90.90625Q29.643763 90.90625 30.159388 91.59375Q30.675013 92.265625 30.675013 93.34375Q30.675013 94.109375 30.409388 94.703125Q30.128138 95.28125 29.643763 95.609375Q29.159388 95.9375 28.596888 95.9375L28.596888 94.859375Q29.143763 94.828125 29.471888 94.421875Q29.784388 94.015625 29.784388 93.34375Q29.784388 92.734375 29.534388 92.359375Q29.284388 91.984375 28.862513 91.984375Z" fill-rule="nonzero"/><path fill="#757575" d="M71.6125 299.3094Q71.6125 301.21564 70.95625 302.15314Q70.31563 303.075 68.925 303.075Q67.56563 303.075 66.90938 302.16876Q66.25313 301.2625 66.22188 299.45L66.22188 298.0125Q66.22188 296.1219 66.8625 295.21564Q67.51875 294.29376 68.90938 294.29376Q70.28438 294.29376 70.94063 295.1844Q71.59688 296.0594 71.6125 297.90314L71.6125 299.3094ZM70.51875 297.825Q70.51875 296.45 70.12813 295.825Q69.75313 295.1844 68.90938 295.1844Q68.08125 295.1844 67.69063 295.825Q67.31563 296.45 67.31563 297.7469L67.31563 299.48126Q67.31563 300.85626 67.70625 301.52814Q68.1125 302.1844 68.925 302.1844Q69.72188 302.1844 70.1125 301.5594Q70.50313 300.9344 70.51875 299.60626L70.51875 297.825Z" fill-rule="nonzero"/><path fill="#757575" d="M55.815624 234.85L54.7375 234.85L54.7375 227.63126L52.55 228.42813L52.55 227.44376L55.659374 226.27188L55.815624 226.27188L55.815624 234.85ZM64.6125 231.20938Q64.6125 233.11563 63.95625 234.05313Q63.315624 234.975 61.925 234.975Q60.565624 234.975 59.909374 234.06876Q59.253124 233.1625 59.221874 231.35L59.221874 229.9125Q59.221874 228.02188 59.8625 227.11563Q60.51875 226.19376 61.909374 226.19376Q63.284374 226.19376 63.940624 227.08438Q64.59688 227.95938 64.6125 229.80313L64.6125 231.20938ZM63.51875 229.725Q63.51875 228.35 63.128124 227.725Q62.753124 227.08438 61.909374 227.08438Q61.08125 227.08438 60.690624 227.725Q60.315624 228.35 60.315624 229.64688L60.315624 231.38126Q60.315624 232.75626 60.70625 233.42813Q61.1125 234.08438 61.925 234.08438Q62.721874 234.08438 63.1125 233.45938Q63.503124 232.83438 63.51875 231.50626L63.51875 229.725ZM71.6125 231.20938Q71.6125 233.11563 70.95625 234.05313Q70.31563 234.975 68.925 234.975Q67.56563 234.975 66.90938 234.06876Q66.25313 233.1625 66.22188 231.35L66.22188 229.9125Q66.22188 228.02188 66.8625 227.11563Q67.51875 226.19376 68.90938 226.19376Q70.28438 226.19376 70.94063 227.08438Q71.59688 227.95938 71.6125 229.80313L71.6125 231.20938ZM70.51875 229.725Q70.51875 228.35 70.12813 227.725Q69.75313 227.08438 68.90938 227.08438Q68.08125 227.08438 67.69063 227.725Q67.31563 228.35 67.31563 229.64688L67.31563 231.38126Q67.31563 232.75626 67.70625 233.42813Q68.1125 234.08438 68.925 234.08438Q69.72188 234.08438 70.1125 233.45938Q70.50313 232.83438 70.51875 231.50626L70.51875 229.725Z" fill-rule="nonzero"/><path fill="#757575" d="M57.846874 166.75L52.253124 166.75L52.253124 165.96875L55.20625 162.6875Q55.8625 161.9375 56.1125 161.48438Q56.3625 161.01562 56.3625 160.51562Q56.3625 159.84375 55.95625 159.42188Q55.565624 158.98438 54.878124 158.98438Q54.08125 158.98438 53.628124 159.45312Q53.175 159.90625 53.175 160.73438L52.096874 160.73438Q52.096874 159.54688 52.846874 158.82812Q53.6125 158.09375 54.878124 158.09375Q56.08125 158.09375 56.76875 158.71875Q57.45625 159.34375 57.45625 160.39062Q57.45625 161.64062 55.846874 163.39062L53.565624 165.85938L57.846874 165.85938L57.846874 166.75ZM64.6125 163.10938Q64.6125 165.01562 63.95625 165.95312Q63.315624 166.875 61.925 166.875Q60.565624 166.875 59.909374 165.96875Q59.253124 165.0625 59.221874 163.25L59.221874 161.8125Q59.221874 159.92188 59.8625 159.01562Q60.51875 158.09375 61.909374 158.09375Q63.284374 158.09375 63.940624 158.98438Q64.59688 159.85938 64.6125 161.70312L64.6125 163.10938ZM63.51875 161.625Q63.51875 160.25 63.128124 159.625Q62.753124 158.98438 61.909374 158.98438Q61.08125 158.98438 60.690624 159.625Q60.315624 160.25 60.315624 161.54688L60.315624 163.28125Q60.315624 164.65625 60.70625 165.32812Q61.1125 165.98438 61.925 165.98438Q62.721874 165.98438 63.1125 165.35938Q63.503124 164.73438 63.51875 163.40625L63.51875 161.625ZM71.6125 163.10938Q71.6125 165.01562 70.95625 165.95312Q70.31563 166.875 68.925 166.875Q67.56563 166.875 66.90938 165.96875Q66.25313 165.0625 66.22188 163.25L66.22188 161.8125Q66.22188 159.92188 66.8625 159.01562Q67.51875 158.09375 68.90938 158.09375Q70.28438 158.09375 70.94063 158.98438Q71.59688 159.85938 71.6125 161.70312L71.6125 163.10938ZM70.51875 161.625Q70.51875 160.25 70.12813 159.625Q69.75313 158.98438 68.90938 158.98438Q68.08125 158.98438 67.69063 159.625Q67.31563 160.25 67.31563 161.54688L67.31563 163.28125Q67.31563 164.65625 67.70625 165.32812Q68.1125 165.98438 68.925 165.98438Q69.72188 165.98438 70.1125 165.35938Q70.50313 164.73438 70.51875 163.40625L70.51875 161.625Z" fill-rule="nonzero"/><path fill="#757575" d="M53.83125 93.85313L54.64375 93.85313Q55.425 93.8375 55.8625 93.44688Q56.3 93.05625 56.3 92.38438Q56.3 90.88438 54.8 90.88438Q54.096874 90.88438 53.675 91.29063Q53.26875 91.69688 53.26875 92.35313L52.175 92.35313Q52.175 91.3375 52.909374 90.66563Q53.659374 89.99375 54.8 89.99375Q56.003124 89.99375 56.690624 90.63438Q57.378124 91.275 57.378124 92.41563Q57.378124 92.97813 57.01875 93.49375Q56.659374 94.00938 56.034374 94.275Q56.7375 94.49375 57.1125 95.00938Q57.503124 95.525 57.503124 96.275Q57.503124 97.41563 56.753124 98.10313Q56.003124 98.775 54.8 98.775Q53.6125 98.775 52.846874 98.11875Q52.096874 97.4625 52.096874 96.4L53.190624 96.4Q53.190624 97.07188 53.628124 97.47813Q54.065624 97.88438 54.815624 97.88438Q55.596874 97.88438 56.003124 97.47813Q56.425 97.05625 56.425 96.29063Q56.425 95.55625 55.971874 95.16563Q55.51875 94.75938 54.64375 94.74375L53.83125 94.74375L53.83125 93.85313ZM64.6125 95.00938Q64.6125 96.91563 63.95625 97.85313Q63.315624 98.775 61.925 98.775Q60.565624 98.775 59.909374 97.86875Q59.253124 96.9625 59.221874 95.15L59.221874 93.7125Q59.221874 91.82188 59.8625 90.91563Q60.51875 89.99375 61.909374 89.99375Q63.284374 89.99375 63.940624 90.88438Q64.59688 91.75938 64.6125 93.60313L64.6125 95.00938ZM63.51875 93.525Q63.51875 92.15 63.128124 91.525Q62.753124 90.88438 61.909374 90.88438Q61.08125 90.88438 60.690624 91.525Q60.315624 92.15 60.315624 93.44688L60.315624 95.18125Q60.315624 96.55625 60.70625 97.22813Q61.1125 97.88438 61.925 97.88438Q62.721874 97.88438 63.1125 97.25938Q63.503124 96.63438 63.51875 95.30625L63.51875 93.525ZM71.6125 95.00938Q71.6125 96.91563 70.95625 97.85313Q70.31563 98.775 68.925 98.775Q67.56563 98.775 66.90938 97.86875Q66.25313 96.9625 66.22188 95.15L66.22188 93.7125Q66.22188 91.82188 66.8625 90.91563Q67.51875 89.99375 68.90938 89.99375Q70.28438 89.99375 70.94063 90.88438Q71.59688 91.75938 71.6125 93.60313L71.6125 95.00938ZM70.51875 93.525Q70.51875 92.15 70.12813 91.525Q69.75313 90.88438 68.90938 90.88438Q68.08125 90.88438 67.69063 91.525Q67.31563 92.15 67.31563 93.44688L67.31563 95.18125Q67.31563 96.55625 67.70625 97.22813Q68.1125 97.88438 68.925 97.88438Q69.72188 97.88438 70.1125 97.25938Q70.50313 96.63438 70.51875 95.30625L70.51875 93.525Z" fill-rule="nonzero"/><path fill="#757575" d="M56.83125 27.690624L58.01875 27.690624L58.01875 28.565624L56.83125 28.565624L56.83125 30.55L55.753124 30.55L55.753124 28.565624L51.8625 28.565624L51.8625 27.925L55.675 22.01875L56.83125 22.01875L56.83125 27.690624ZM53.096874 27.690624L55.753124 27.690624L55.753124 23.503124L55.6125 23.7375L53.096874 27.690624ZM64.6125 26.909374Q64.6125 28.815624 63.95625 29.753124Q63.315624 30.675 61.925 30.675Q60.565624 30.675 59.909374 29.76875Q59.253124 28.8625 59.221874 27.05L59.221874 25.6125Q59.221874 23.721874 59.8625 22.815624Q60.51875 21.89375 61.909374 21.89375Q63.284374 21.89375 63.940624 22.784374Q64.59688 23.659374 64.6125 25.503124L64.6125 26.909374ZM63.51875 25.425Q63.51875 24.05 63.128124 23.425Q62.753124 22.784374 61.909374 22.784374Q61.08125 22.784374 60.690624 23.425Q60.315624 24.05 60.315624 25.346874L60.315624 27.08125Q60.315624 28.45625 60.70625 29.128124Q61.1125 29.784374 61.925 29.784374Q62.721874 29.784374 63.1125 29.159374Q63.503124 28.534374 63.51875 27.20625L63.51875 25.425ZM71.6125 26.909374Q71.6125 28.815624 70.95625 29.753124Q70.31563 30.675 68.925 30.675Q67.56563 30.675 66.90938 29.76875Q66.25313 28.8625 66.22188 27.05L66.22188 25.6125Q66.22188 23.721874 66.8625 22.815624Q67.51875 21.89375 68.90938 21.89375Q70.28438 21.89375 70.94063 22.784374Q71.59688 23.659374 71.6125 25.503124L71.6125 26.909374ZM70.51875 25.425Q70.51875 24.05 70.12813 23.425Q69.75313 22.784374 68.90938 22.784374Q68.08125 22.784374 67.69063 23.425Q67.31563 24.05 67.31563 25.346874L67.31563 27.08125Q67.31563 28.45625 67.70625 29.128124Q68.1125 29.784374 68.925 29.784374Q69.72188 29.784374 70.1125 29.159374Q70.50313 28.534374 70.51875 27.20625L70.51875 25.425Z" fill-rule="nonzero"/><path fill="#757575" d="M117.2683 316.45L111.67455 316.45L111.67455 315.66876L114.62768 312.3875Q115.28393 311.6375 115.53393 311.1844Q115.78393 310.71564 115.78393 310.21564Q115.78393 309.54376 115.37768 309.1219Q114.98705 308.6844 114.29955 308.6844Q113.50268 308.6844 113.04955 309.15314Q112.59643 309.60626 112.59643 310.4344L111.5183 310.4344Q111.5183 309.2469 112.2683 308.52814Q113.03393 307.79376 114.29955 307.79376Q115.50268 307.79376 116.19018 308.41876Q116.87768 309.04376 116.87768 310.09064Q116.87768 311.34064 115.2683 313.09064L112.98705 315.5594L117.2683 315.5594L117.2683 316.45Z" fill-rule="nonzero"/><path fill="#757575" d="M188.09554 313.59064L189.28304 313.59064L189.28304 314.46564L188.09554 314.46564L188.09554 316.45L187.01741 316.45L187.01741 314.46564L183.12679 314.46564L183.12679 313.825L186.93929 307.91876L188.09554 307.91876L188.09554 313.59064ZM184.36116 313.59064L187.01741 313.59064L187.01741 309.40314L186.87679 309.6375L184.36116 313.59064Z" fill-rule="nonzero"/><path fill="#757575" d="M259.62592 307.91876L259.62592 308.825L259.4228 308.825Q258.15717 308.85626 257.40717 309.59064Q256.65717 310.3094 256.53217 311.6219Q257.21967 310.85626 258.37592 310.85626Q259.4853 310.85626 260.15717 311.6375Q260.82904 312.41876 260.82904 313.66876Q260.82904 314.98126 260.1103 315.77814Q259.39154 316.575 258.1728 316.575Q256.95404 316.575 256.18842 315.6375Q255.4384 314.6844 255.4384 313.2L255.4384 312.79376Q255.4384 310.4344 256.43842 309.1844Q257.43842 307.9344 259.4228 307.91876L259.62592 307.91876ZM258.20404 311.7625Q257.64154 311.7625 257.1728 312.09064Q256.70404 312.41876 256.51654 312.9344L256.51654 313.325Q256.51654 314.3875 256.9853 315.02814Q257.46967 315.66876 258.1728 315.66876Q258.90717 315.66876 259.32904 315.1375Q259.75092 314.59064 259.75092 313.71564Q259.75092 312.84064 259.32904 312.3094Q258.90717 311.7625 258.20404 311.7625Z" fill-rule="nonzero"/><path fill="#757575" d="M332.39062 310.1375Q332.39062 310.77814 332.04688 311.27814Q331.70312 311.77814 331.14062 312.0594Q331.79688 312.34064 332.1875 312.90314Q332.57812 313.45 332.57812 314.15314Q332.57812 315.2469 331.82812 315.91876Q331.09375 316.575 329.875 316.575Q328.64062 316.575 327.89062 315.91876Q327.15625 315.2469 327.15625 314.15314Q327.15625 313.45 327.53125 312.90314Q327.90625 312.34064 328.57812 312.0594Q328.01562 311.77814 327.6875 311.27814Q327.35938 310.77814 327.35938 310.1375Q327.35938 309.0594 328.04688 308.4344Q328.73438 307.79376 329.875 307.79376Q331.0 307.79376 331.6875 308.4344Q332.39062 309.0594 332.39062 310.1375ZM331.5 314.1219Q331.5 313.40314 331.04688 312.96564Q330.59375 312.5125 329.85938 312.5125Q329.125 312.5125 328.67188 312.96564Q328.23438 313.40314 328.23438 314.1375Q328.23438 314.85626 328.67188 315.27814Q329.10938 315.6844 329.875 315.6844Q330.625 315.6844 331.0625 315.2625Q331.5 314.84064 331.5 314.1219ZM329.875 308.6844Q329.23438 308.6844 328.82812 309.09064Q328.4375 309.48126 328.4375 310.16876Q328.4375 310.8094 328.82812 311.21564Q329.21875 311.6219 329.85938 311.6219Q330.51562 311.6219 330.90625 311.21564Q331.29688 310.8094 331.29688 310.16876Q331.29688 309.5125 330.89062 309.10626Q330.48438 308.6844 329.875 308.6844Z" fill-rule="nonzero"/><path fill="#757575" d="M399.1085 316.45L398.03036 316.45L398.03036 309.23126L395.84286 310.02814L395.84286 309.04376L398.95224 307.8719L399.1085 307.8719L399.1085 316.45ZM407.90536 312.8094Q407.90536 314.71564 407.2491 315.65314Q406.6085 316.575 405.21786 316.575Q403.8585 316.575 403.20224 315.66876Q402.546 314.7625 402.51474 312.95L402.51474 311.5125Q402.51474 309.6219 403.15536 308.71564Q403.8116 307.79376 405.20224 307.79376Q406.57724 307.79376 407.2335 308.6844Q407.88974 309.5594 407.90536 311.40314L407.90536 312.8094ZM406.8116 311.325Q406.8116 309.95 406.421 309.325Q406.046 308.6844 405.20224 308.6844Q404.3741 308.6844 403.9835 309.325Q403.6085 309.95 403.6085 311.2469L403.6085 312.98126Q403.6085 314.35626 403.9991 315.02814Q404.40536 315.6844 405.21786 315.6844Q406.01474 315.6844 406.40536 315.0594Q406.796 314.4344 406.8116 313.10626L406.8116 311.325Z" fill-rule="nonzero"/><path fill="#757575" d="M470.95132 316.45L469.8732 316.45L469.8732 309.23126L467.6857 310.02814L467.6857 309.04376L470.79507 307.8719L470.95132 307.8719L470.95132 316.45ZM479.98257 316.45L474.38882 316.45L474.38882 315.66876L477.34195 312.3875Q477.9982 311.6375 478.2482 311.1844Q478.4982 310.71564 478.4982 310.21564Q478.4982 309.54376 478.09195 309.1219Q477.70132 308.6844 477.01382 308.6844Q476.21695 308.6844 475.76382 309.15314Q475.3107 309.60626 475.3107 310.4344L474.23257 310.4344Q474.23257 309.2469 474.98257 308.52814Q475.7482 307.79376 477.01382 307.79376Q478.21695 307.79376 478.90445 308.41876Q479.59195 309.04376 479.59195 310.09064Q479.59195 311.34064 477.98257 313.09064L475.70132 315.5594L479.98257 315.5594L479.98257 316.45Z" fill-rule="nonzero"/><path fill="#757575" d="M542.7942 316.45L541.71606 316.45L541.71606 309.23126L539.52856 310.02814L539.52856 309.04376L542.63794 307.8719L542.7942 307.8719L542.7942 316.45ZM550.8098 313.59064L551.9973 313.59064L551.9973 314.46564L550.8098 314.46564L550.8098 316.45L549.7317 316.45L549.7317 314.46564L545.84106 314.46564L545.84106 313.825L549.65356 307.91876L550.8098 307.91876L550.8098 313.59064ZM547.07544 313.59064L549.7317 313.59064L549.7317 309.40314L549.59106 309.6375L547.07544 313.59064Z" fill-rule="nonzero"/></svg>