<svg version="1.1" viewBox="0.0 0.0 600.0 371.0" fill="none" stroke="none" stroke-linecap="square" stroke-miterlimit="10" width="600" height="371" xmlns:xlink="http://www.w3.org/1999/xlink" xmlns="http://www.w3.org/2000/svg"><path fill="#ffffff" d="M0 0L600.0 0L600.0 371.0L0 371.0L0 0Z" fill-rule="nonzero"/><path stroke="#333333" stroke-width="1.0" stroke-linecap="butt" d="M86.5 18.5L86.5 298.5" fill-rule="nonzero"/><path stroke="#cccccc" stroke-width="1.0" stroke-linecap="butt" d="M210.5 18.5L210.5 298.5" fill-rule="nonzero"/><path stroke="#cccccc" stroke-width="1.0" stroke-linecap="butt" d="M334.5 18.5L334.5 298.5" fill-rule="nonzero"/><path stroke="#cccccc" stroke-width="1.0" stroke-linecap="butt" d="M457.5 18.5L457.5 298.5" fill-rule="nonzero"/><path stroke="#cccccc" stroke-width="1.0" stroke-linecap="butt" d="M581.5 18.5L581.5 298.5" fill-rule="nonzero"/><clipPath id="id_0"><path d="M86.55 18.55L581.45 18.55L581.45 298.45L86.55 298.45L86.55 18.55Z" clip-rule="nonzero"/></clipPath><path stroke="#000000" stroke-width="2.0" stroke-linecap="butt" stroke-opacity="0.0" clip-path="url(#id_0)" d="M87.0 83.0L87.0 41.0L276.0 41.0C277.10458 41.0 278.0 41.89543 278.0 43.0L278.0 81.0C278.0 82.10457 277.10458 83.0 276.0 83.0Z" fill-rule="nonzero"/><path fill="#4285f4" clip-path="url(#id_0)" d="M87.0 83.0L87.0 41.0L276.0 41.0C277.10458 41.0 278.0 41.89543 278.0 43.0L278.0 81.0C278.0 82.10457 277.10458 83.0 276.0 83.0Z" fill-rule="nonzero"/><path stroke="#000000" stroke-width="2.0" stroke-linecap="butt" stroke-opacity="0.0" clip-path="url(#id_0)" d="M87.0 147.0L87.0 105.0L474.0 105.0C475.10458 105.0 476.0 105.89543 476.0 107.0L476.0 145.0C476.0 146.10457 475.10458 147.0 474.0 147.0Z" fill-rule="nonzero"/><path fill="#4285f4" clip-path="url(#id_0)" d="M87.0 147.0L87.0 105.0L474.0 105.0C475.10458 105.0 476.0 105.89543 476.0 107.0L476.0 145.0C476.0 146.10457 475.10458 147.0 474.0 147.0Z" fill-rule="nonzero"/><path stroke="#000000" stroke-width="2.0" stroke-linecap="butt" stroke-opacity="0.0" clip-path="url(#id_0)" d="M87.0 212.0L87.0 170.0L577.0 170.0C578.10455 170.0 579.0 170.89543 579.0 172.0L579.0 210.0C579.0 211.10457 578.10455 212.0 577.0 212.0Z" fill-rule="nonzero"/><path fill="#4285f4" clip-path="url(#id_0)" d="M87.0 212.0L87.0 170.0L577.0 170.0C578.10455 170.0 579.0 170.89543 579.0 172.0L579.0 210.0C579.0 211.10457 578.10455 212.0 577.0 212.0Z" fill-rule="nonzero"/><path stroke="#000000" stroke-width="2.0" stroke-linecap="butt" stroke-opacity="0.0" clip-path="url(#id_0)" d="M87.0 276.0L87.0 234.0L248.0 234.0C249.10457 234.0 250.0 234.89543 250.0 236.0L250.0 274.0C250.0 275.10458 249.10457 276.0 248.0 276.0Z" fill-rule="nonzero"/><path fill="#4285f4" clip-path="url(#id_0)" d="M87.0 276.0L87.0 234.0L248.0 234.0C249.10457 234.0 250.0 234.89543 250.0 236.0L250.0 274.0C250.0 275.10458 249.10457 276.0 248.0 276.0Z" fill-rule="nonzero"/><path stroke="#4285f4" stroke-width="3.0" stroke-linejoin="round" stroke-linecap="round" d="M253.78937 66.5L252.71124 66.5L252.71124 59.28125L250.52374 60.078125L250.52374 59.09375L253.63312 57.921875L253.78937 57.921875L253.78937 66.5ZM257.72687 62.21875L258.16437 57.96875L262.53937 57.96875L262.53937 58.96875L259.08624 58.96875L258.82062 61.296875Q259.46124 60.921875 260.25812 60.921875Q261.41437 60.921875 262.10187 61.703125Q262.78937 62.46875 262.78937 63.78125Q262.78937 65.09375 262.07062 65.859375Q261.3675 66.625 260.08624 66.625Q258.96124 66.625 258.2425 66.0Q257.52374 65.359375 257.43 64.25L258.44562 64.25Q258.555 64.984375 258.97687 65.359375Q259.39874 65.734375 260.08624 65.734375Q260.83624 65.734375 261.27374 65.21875Q261.71124 64.703125 261.71124 63.796875Q261.71124 62.9375 261.2425 62.421875Q260.77374 61.90625 259.9925 61.90625Q259.28937 61.90625 258.88312 62.203125L258.60187 62.4375L257.72687 62.21875ZM264.3675 65.9375Q264.3675 65.65625 264.52374 65.46875Q264.69562 65.28125 265.02374 65.28125Q265.3675 65.28125 265.53937 65.46875Q265.71124 65.65625 265.71124 65.9375Q265.71124 66.203125 265.53937 66.390625Q265.3675 66.5625 265.02374 66.5625Q264.69562 66.5625 264.52374 66.390625Q264.3675 66.203125 264.3675 65.9375ZM267.72687 62.21875L268.16437 57.96875L272.53937 57.96875L272.53937 58.96875L269.08624 58.96875L268.82062 61.296875Q269.46124 60.921875 270.25812 60.921875Q271.41437 60.921875 272.10187 61.703125Q272.78937 62.46875 272.78937 63.78125Q272.78937 65.09375 272.07062 65.859375Q271.3675 66.625 270.08624 66.625Q268.96124 66.625 268.2425 66.0Q267.52374 65.359375 267.43 64.25L268.44562 64.25Q268.555 64.984375 268.97687 65.359375Q269.39874 65.734375 270.08624 65.734375Q270.83624 65.734375 271.27374 65.21875Q271.71124 64.703125 271.71124 63.796875Q271.71124 62.9375 271.2425 62.421875Q270.77374 61.90625 269.9925 61.90625Q269.28937 61.90625 268.88312 62.203125L268.60187 62.4375L267.72687 62.21875Z" fill-rule="nonzero"/><path fill="#ffffff" d="M253.78937 66.5L252.71124 66.5L252.71124 59.28125L250.52374 60.078125L250.52374 59.09375L253.63312 57.921875L253.78937 57.921875L253.78937 66.5ZM257.72687 62.21875L258.16437 57.96875L262.53937 57.96875L262.53937 58.96875L259.08624 58.96875L258.82062 61.296875Q259.46124 60.921875 260.25812 60.921875Q261.41437 60.921875 262.10187 61.703125Q262.78937 62.46875 262.78937 63.78125Q262.78937 65.09375 262.07062 65.859375Q261.3675 66.625 260.08624 66.625Q258.96124 66.625 258.2425 66.0Q257.52374 65.359375 257.43 64.25L258.44562 64.25Q258.555 64.984375 258.97687 65.359375Q259.39874 65.734375 260.08624 65.734375Q260.83624 65.734375 261.27374 65.21875Q261.71124 64.703125 261.71124 63.796875Q261.71124 62.9375 261.2425 62.421875Q260.77374 61.90625 259.9925 61.90625Q259.28937 61.90625 258.88312 62.203125L258.60187 62.4375L257.72687 62.21875ZM264.3675 65.9375Q264.3675 65.65625 264.52374 65.46875Q264.69562 65.28125 265.02374 65.28125Q265.3675 65.28125 265.53937 65.46875Q265.71124 65.65625 265.71124 65.9375Q265.71124 66.203125 265.53937 66.390625Q265.3675 66.5625 265.02374 66.5625Q264.69562 66.5625 264.52374 66.390625Q264.3675 66.203125 264.3675 65.9375ZM267.72687 62.21875L268.16437 57.96875L272.53937 57.96875L272.53937 58.96875L269.08624 58.96875L268.82062 61.296875Q269.46124 60.921875 270.25812 60.921875Q271.41437 60.921875 272.10187 61.703125Q272.78937 62.46875 272.78937 63.78125Q272.78937 65.09375 272.07062 65.859375Q271.3675 66.625 270.08624 66.625Q268.96124 66.625 268.2425 66.0Q267.52374 65.359375 267.43 64.25L268.44562 64.25Q268.555 64.984375 268.97687 65.359375Q269.39874 65.734375 270.08624 65.734375Q270.83624 65.734375 271.27374 65.21875Q271.71124 64.703125 271.71124 63.796875Q271.71124 62.9375 271.2425 62.421875Q270.77374 61.90625 269.9925 61.90625Q269.28937 61.90625 268.88312 62.203125L268.60187 62.4375L267.72687 62.21875Z" fill-rule="nonzero"/><path stroke="#4285f4" stroke-width="3.0" stroke-linejoin="round" stroke-linecap="round" d="M449.765 125.703125L450.5775 125.703125Q451.35876 125.6875 451.79626 125.296875Q452.23376 124.90625 452.23376 124.234375Q452.23376 122.734375 450.73376 122.734375Q450.03064 122.734375 449.60876 123.140625Q449.2025 123.546875 449.2025 124.203125L448.10876 124.203125Q448.10876 123.1875 448.84314 122.515625Q449.59314 121.84375 450.73376 121.84375Q451.9369 121.84375 452.6244 122.484375Q453.3119 123.125 453.3119 124.265625Q453.3119 124.828125 452.9525 125.34375Q452.59314 125.859375 451.96814 126.125Q452.67126 126.34375 453.04626 126.859375Q453.4369 127.375 453.4369 128.125Q453.4369 129.26562 452.6869 129.95312Q451.9369 130.625 450.73376 130.625Q449.54626 130.625 448.78064 129.96875Q448.03064 129.3125 448.03064 128.25L449.1244 128.25Q449.1244 128.92188 449.5619 129.32812Q449.9994 129.73438 450.7494 129.73438Q451.53064 129.73438 451.9369 129.32812Q452.35876 128.90625 452.35876 128.14062Q452.35876 127.40625 451.90564 127.015625Q451.4525 126.609375 450.5775 126.59375L449.765 126.59375L449.765 125.703125ZM458.7494 130.5L457.67126 130.5L457.67126 123.28125L455.48376 124.078125L455.48376 123.09375L458.59314 121.921875L458.7494 121.921875L458.7494 130.5ZM462.3275 129.9375Q462.3275 129.65625 462.48376 129.46875Q462.65564 129.28125 462.98376 129.28125Q463.3275 129.28125 463.4994 129.46875Q463.67126 129.65625 463.67126 129.9375Q463.67126 130.20312 463.4994 130.39062Q463.3275 130.5625 462.98376 130.5625Q462.65564 130.5625 462.48376 130.39062Q462.3275 130.20312 462.3275 129.9375ZM465.6869 126.21875L466.1244 121.96875L470.4994 121.96875L470.4994 122.96875L467.04626 122.96875L466.78064 125.296875Q467.42126 124.921875 468.21814 124.921875Q469.3744 124.921875 470.0619 125.703125Q470.7494 126.46875 470.7494 127.78125Q470.7494 129.09375 470.03064 129.85938Q469.3275 130.625 468.04626 130.625Q466.92126 130.625 466.2025 130.0Q465.48376 129.35938 465.39 128.25L466.40564 128.25Q466.515 128.98438 466.9369 129.35938Q467.35876 129.73438 468.04626 129.73438Q468.79626 129.73438 469.23376 129.21875Q469.67126 128.70312 469.67126 127.796875Q469.67126 126.9375 469.2025 126.421875Q468.73376 125.90625 467.9525 125.90625Q467.2494 125.90625 466.84314 126.203125L466.5619 126.4375L465.6869 126.21875Z" fill-rule="nonzero"/><path fill="#ffffff" d="M449.765 125.703125L450.5775 125.703125Q451.35876 125.6875 451.79626 125.296875Q452.23376 124.90625 452.23376 124.234375Q452.23376 122.734375 450.73376 122.734375Q450.03064 122.734375 449.60876 123.140625Q449.2025 123.546875 449.2025 124.203125L448.10876 124.203125Q448.10876 123.1875 448.84314 122.515625Q449.59314 121.84375 450.73376 121.84375Q451.9369 121.84375 452.6244 122.484375Q453.3119 123.125 453.3119 124.265625Q453.3119 124.828125 452.9525 125.34375Q452.59314 125.859375 451.96814 126.125Q452.67126 126.34375 453.04626 126.859375Q453.4369 127.375 453.4369 128.125Q453.4369 129.26562 452.6869 129.95312Q451.9369 130.625 450.73376 130.625Q449.54626 130.625 448.78064 129.96875Q448.03064 129.3125 448.03064 128.25L449.1244 128.25Q449.1244 128.92188 449.5619 129.32812Q449.9994 129.73438 450.7494 129.73438Q451.53064 129.73438 451.9369 129.32812Q452.35876 128.90625 452.35876 128.14062Q452.35876 127.40625 451.90564 127.015625Q451.4525 126.609375 450.5775 126.59375L449.765 126.59375L449.765 125.703125ZM458.7494 130.5L457.67126 130.5L457.67126 123.28125L455.48376 124.078125L455.48376 123.09375L458.59314 121.921875L458.7494 121.921875L458.7494 130.5ZM462.3275 129.9375Q462.3275 129.65625 462.48376 129.46875Q462.65564 129.28125 462.98376 129.28125Q463.3275 129.28125 463.4994 129.46875Q463.67126 129.65625 463.67126 129.9375Q463.67126 130.20312 463.4994 130.39062Q463.3275 130.5625 462.98376 130.5625Q462.65564 130.5625 462.48376 130.39062Q462.3275 130.20312 462.3275 129.9375ZM465.6869 126.21875L466.1244 121.96875L470.4994 121.96875L470.4994 122.96875L467.04626 122.96875L466.78064 125.296875Q467.42126 124.921875 468.21814 124.921875Q469.3744 124.921875 470.0619 125.703125Q470.7494 126.46875 470.7494 127.78125Q470.7494 129.09375 470.03064 129.85938Q469.3275 130.625 468.04626 130.625Q466.92126 130.625 466.2025 130.0Q465.48376 129.35938 465.39 128.25L466.40564 128.25Q466.515 128.98438 466.9369 129.35938Q467.35876 129.73438 468.04626 129.73438Q468.79626 129.73438 469.23376 129.21875Q469.67126 128.70312 469.67126 127.796875Q469.67126 126.9375 469.2025 126.421875Q468.73376 125.90625 467.9525 125.90625Q467.2494 125.90625 466.84314 126.203125L466.5619 126.4375L465.6869 126.21875Z" fill-rule="nonzero"/><path stroke="#4285f4" stroke-width="3.0" stroke-linejoin="round" stroke-linecap="round" d="M552.4567 190.70312L553.2692 190.70312Q554.0505 190.6875 554.488 190.29688Q554.9255 189.90625 554.9255 189.23438Q554.9255 187.73438 553.4255 187.73438Q552.72235 187.73438 552.3005 188.14062Q551.8942 188.54688 551.8942 189.20312L550.8005 189.20312Q550.8005 188.1875 551.53485 187.51562Q552.28485 186.84375 553.4255 186.84375Q554.6286 186.84375 555.3161 187.48438Q556.0036 188.125 556.0036 189.26562Q556.0036 189.82812 555.6442 190.34375Q555.28485 190.85938 554.65985 191.125Q555.363 191.34375 555.738 191.85938Q556.1286 192.375 556.1286 193.125Q556.1286 194.26562 555.3786 194.95312Q554.6286 195.625 553.4255 195.625Q552.238 195.625 551.47235 194.96875Q550.72235 194.3125 550.72235 193.25L551.8161 193.25Q551.8161 193.92188 552.2536 194.32812Q552.6911 194.73438 553.4411 194.73438Q554.22235 194.73438 554.6286 194.32812Q555.0505 193.90625 555.0505 193.14062Q555.0505 192.40625 554.59735 192.01562Q554.1442 191.60938 553.2692 191.59375L552.4567 191.59375L552.4567 190.70312ZM562.03485 191.75Q561.7067 192.15625 561.22235 192.40625Q560.7536 192.64062 560.1911 192.64062Q559.4567 192.64062 558.90985 192.28125Q558.363 191.92188 558.0661 191.26562Q557.7692 190.59375 557.7692 189.79688Q557.7692 188.95312 558.0817 188.26562Q558.40985 187.57812 559.0036 187.21875Q559.613 186.84375 560.40985 186.84375Q561.6755 186.84375 562.3942 187.79688Q563.1286 188.75 563.1286 190.375L563.1286 190.6875Q563.1286 193.1875 562.1442 194.32812Q561.15985 195.46875 559.1755 195.5L558.9567 195.5L558.9567 194.59375L559.1911 194.59375Q560.53485 194.5625 561.2536 193.89062Q561.97235 193.21875 562.03485 191.75ZM560.363 191.75Q560.90985 191.75 561.363 191.42188Q561.8317 191.07812 562.0505 190.59375L562.0505 190.15625Q562.0505 189.09375 561.5817 188.42188Q561.113 187.75 560.40985 187.75Q559.6911 187.75 559.2536 188.29688Q558.8317 188.84375 558.8317 189.75Q558.8317 190.625 559.238 191.1875Q559.65985 191.75 560.363 191.75ZM565.0192 194.9375Q565.0192 194.65625 565.1755 194.46875Q565.34735 194.28125 565.6755 194.28125Q566.0192 194.28125 566.1911 194.46875Q566.363 194.65625 566.363 194.9375Q566.363 195.20312 566.1911 195.39062Q566.0192 195.5625 565.6755 195.5625Q565.34735 195.5625 565.1755 195.39062Q565.0192 195.20312 565.0192 194.9375ZM573.0661 189.1875Q573.0661 189.82812 572.72235 190.32812Q572.3786 190.82812 571.8161 191.10938Q572.47235 191.39062 572.863 191.95312Q573.2536 192.5 573.2536 193.20312Q573.2536 194.29688 572.5036 194.96875Q571.7692 195.625 570.5505 195.625Q569.3161 195.625 568.5661 194.96875Q567.8317 194.29688 567.8317 193.20312Q567.8317 192.5 568.2067 191.95312Q568.5817 191.39062 569.2536 191.10938Q568.6911 190.82812 568.363 190.32812Q568.03485 189.82812 568.03485 189.1875Q568.03485 188.10938 568.72235 187.48438Q569.40985 186.84375 570.5505 186.84375Q571.6755 186.84375 572.363 187.48438Q573.0661 188.10938 573.0661 189.1875ZM572.1755 193.17188Q572.1755 192.45312 571.72235 192.01562Q571.2692 191.5625 570.53485 191.5625Q569.8005 191.5625 569.34735 192.01562Q568.90985 192.45312 568.90985 193.1875Q568.90985 193.90625 569.34735 194.32812Q569.78485 194.73438 570.5505 194.73438Q571.3005 194.73438 571.738 194.3125Q572.1755 193.89062 572.1755 193.17188ZM570.5505 187.73438Q569.90985 187.73438 569.5036 188.14062Q569.113 188.53125 569.113 189.21875Q569.113 189.85938 569.5036 190.26562Q569.8942 190.67188 570.53485 190.67188Q571.1911 190.67188 571.5817 190.26562Q571.97235 189.85938 571.97235 189.21875Q571.97235 188.5625 571.5661 188.15625Q571.15985 187.73438 570.5505 187.73438Z" fill-rule="nonzero"/><path fill="#ffffff" d="M552.4567 190.70312L553.2692 190.70312Q554.0505 190.6875 554.488 190.29688Q554.9255 189.90625 554.9255 189.23438Q554.9255 187.73438 553.4255 187.73438Q552.72235 187.73438 552.3005 188.14062Q551.8942 188.54688 551.8942 189.20312L550.8005 189.20312Q550.8005 188.1875 551.53485 187.51562Q552.28485 186.84375 553.4255 186.84375Q554.6286 186.84375 555.3161 187.48438Q556.0036 188.125 556.0036 189.26562Q556.0036 189.82812 555.6442 190.34375Q555.28485 190.85938 554.65985 191.125Q555.363 191.34375 555.738 191.85938Q556.1286 192.375 556.1286 193.125Q556.1286 194.26562 555.3786 194.95312Q554.6286 195.625 553.4255 195.625Q552.238 195.625 551.47235 194.96875Q550.72235 194.3125 550.72235 193.25L551.8161 193.25Q551.8161 193.92188 552.2536 194.32812Q552.6911 194.73438 553.4411 194.73438Q554.22235 194.73438 554.6286 194.32812Q555.0505 193.90625 555.0505 193.14062Q555.0505 192.40625 554.59735 192.01562Q554.1442 191.60938 553.2692 191.59375L552.4567 191.59375L552.4567 190.70312ZM562.03485 191.75Q561.7067 192.15625 561.22235 192.40625Q560.7536 192.64062 560.1911 192.64062Q559.4567 192.64062 558.90985 192.28125Q558.363 191.92188 558.0661 191.26562Q557.7692 190.59375 557.7692 189.79688Q557.7692 188.95312 558.0817 188.26562Q558.40985 187.57812 559.0036 187.21875Q559.613 186.84375 560.40985 186.84375Q561.6755 186.84375 562.3942 187.79688Q563.1286 188.75 563.1286 190.375L563.1286 190.6875Q563.1286 193.1875 562.1442 194.32812Q561.15985 195.46875 559.1755 195.5L558.9567 195.5L558.9567 194.59375L559.1911 194.59375Q560.53485 194.5625 561.2536 193.89062Q561.97235 193.21875 562.03485 191.75ZM560.363 191.75Q560.90985 191.75 561.363 191.42188Q561.8317 191.07812 562.0505 190.59375L562.0505 190.15625Q562.0505 189.09375 561.5817 188.42188Q561.113 187.75 560.40985 187.75Q559.6911 187.75 559.2536 188.29688Q558.8317 188.84375 558.8317 189.75Q558.8317 190.625 559.238 191.1875Q559.65985 191.75 560.363 191.75ZM565.0192 194.9375Q565.0192 194.65625 565.1755 194.46875Q565.34735 194.28125 565.6755 194.28125Q566.0192 194.28125 566.1911 194.46875Q566.363 194.65625 566.363 194.9375Q566.363 195.20312 566.1911 195.39062Q566.0192 195.5625 565.6755 195.5625Q565.34735 195.5625 565.1755 195.39062Q565.0192 195.20312 565.0192 194.9375ZM573.0661 189.1875Q573.0661 189.82812 572.72235 190.32812Q572.3786 190.82812 571.8161 191.10938Q572.47235 191.39062 572.863 191.95312Q573.2536 192.5 573.2536 193.20312Q573.2536 194.29688 572.5036 194.96875Q571.7692 195.625 570.5505 195.625Q569.3161 195.625 568.5661 194.96875Q567.8317 194.29688 567.8317 193.20312Q567.8317 192.5 568.2067 191.95312Q568.5817 191.39062 569.2536 191.10938Q568.6911 190.82812 568.363 190.32812Q568.03485 189.82812 568.03485 189.1875Q568.03485 188.10938 568.72235 187.48438Q569.40985 186.84375 570.5505 186.84375Q571.6755 186.84375 572.363 187.48438Q573.0661 188.10938 573.0661 189.1875ZM572.1755 193.17188Q572.1755 192.45312 571.72235 192.01562Q571.2692 191.5625 570.53485 191.5625Q569.8005 191.5625 569.34735 192.01562Q568.90985 192.45312 568.90985 193.1875Q568.90985 193.90625 569.34735 194.32812Q569.78485 194.73438 570.5505 194.73438Q571.3005 194.73438 571.738 194.3125Q572.1755 193.89062 572.1755 193.17188ZM570.5505 187.73438Q569.90985 187.73438 569.5036 188.14062Q569.113 188.53125 569.113 189.21875Q569.113 189.85938 569.5036 190.26562Q569.8942 190.67188 570.53485 190.67188Q571.1911 190.67188 571.5817 190.26562Q571.97235 189.85938 571.97235 189.21875Q571.97235 188.5625 571.5661 188.15625Q571.15985 187.73438 570.5505 187.73438Z" fill-rule="nonzero"/><path stroke="#4285f4" stroke-width="3.0" stroke-linejoin="round" stroke-linecap="round" d="M225.33263 259.5L224.2545 259.5L224.2545 252.28125L222.067 253.07812L222.067 252.09375L225.17638 250.92188L225.33263 250.92188L225.33263 259.5ZM230.34825 254.70312L231.16075 254.70312Q231.942 254.6875 232.3795 254.29688Q232.817 253.90625 232.817 253.23438Q232.817 251.73438 231.317 251.73438Q230.61388 251.73438 230.192 252.14062Q229.78575 252.54688 229.78575 253.20312L228.692 253.20312Q228.692 252.1875 229.42638 251.51562Q230.17638 250.84375 231.317 250.84375Q232.52013 250.84375 233.20763 251.48438Q233.89513 252.125 233.89513 253.26562Q233.89513 253.82812 233.53575 254.34375Q233.17638 254.85938 232.55138 255.125Q233.2545 255.34375 233.6295 255.85938Q234.02013 256.375 234.02013 257.125Q234.02013 258.26562 233.27013 258.95312Q232.52013 259.625 231.317 259.625Q230.1295 259.625 229.36388 258.96875Q228.61388 258.3125 228.61388 257.25L229.70763 257.25Q229.70763 257.92188 230.14513 258.32812Q230.58263 258.73438 231.33263 258.73438Q232.11388 258.73438 232.52013 258.32812Q232.942 257.90625 232.942 257.14062Q232.942 256.40625 232.48888 256.01562Q232.03575 255.60938 231.16075 255.59375L230.34825 255.59375L230.34825 254.70312ZM235.91075 258.9375Q235.91075 258.65625 236.067 258.46875Q236.23888 258.28125 236.567 258.28125Q236.91075 258.28125 237.08263 258.46875Q237.2545 258.65625 237.2545 258.9375Q237.2545 259.20312 237.08263 259.39062Q236.91075 259.5625 236.567 259.5625Q236.23888 259.5625 236.067 259.39062Q235.91075 259.20312 235.91075 258.9375ZM244.36388 259.5L238.77013 259.5L238.77013 258.71875L241.72325 255.4375Q242.3795 254.6875 242.6295 254.23438Q242.8795 253.76562 242.8795 253.26562Q242.8795 252.59375 242.47325 252.17188Q242.08263 251.73438 241.39513 251.73438Q240.59825 251.73438 240.14513 252.20312Q239.692 252.65625 239.692 253.48438L238.61388 253.48438Q238.61388 252.29688 239.36388 251.57812Q240.1295 250.84375 241.39513 250.84375Q242.59825 250.84375 243.28575 251.46875Q243.97325 252.09375 243.97325 253.14062Q243.97325 254.39062 242.36388 256.14062L240.08263 258.60938L244.36388 258.60938L244.36388 259.5Z" fill-rule="nonzero"/><path fill="#ffffff" d="M225.33263 259.5L224.2545 259.5L224.2545 252.28125L222.067 253.07812L222.067 252.09375L225.17638 250.92188L225.33263 250.92188L225.33263 259.5ZM230.34825 254.70312L231.16075 254.70312Q231.942 254.6875 232.3795 254.29688Q232.817 253.90625 232.817 253.23438Q232.817 251.73438 231.317 251.73438Q230.61388 251.73438 230.192 252.14062Q229.78575 252.54688 229.78575 253.20312L228.692 253.20312Q228.692 252.1875 229.42638 251.51562Q230.17638 250.84375 231.317 250.84375Q232.52013 250.84375 233.20763 251.48438Q233.89513 252.125 233.89513 253.26562Q233.89513 253.82812 233.53575 254.34375Q233.17638 254.85938 232.55138 255.125Q233.2545 255.34375 233.6295 255.85938Q234.02013 256.375 234.02013 257.125Q234.02013 258.26562 233.27013 258.95312Q232.52013 259.625 231.317 259.625Q230.1295 259.625 229.36388 258.96875Q228.61388 258.3125 228.61388 257.25L229.70763 257.25Q229.70763 257.92188 230.14513 258.32812Q230.58263 258.73438 231.33263 258.73438Q232.11388 258.73438 232.52013 258.32812Q232.942 257.90625 232.942 257.14062Q232.942 256.40625 232.48888 256.01562Q232.03575 255.60938 231.16075 255.59375L230.34825 255.59375L230.34825 254.70312ZM235.91075 258.9375Q235.91075 258.65625 236.067 258.46875Q236.23888 258.28125 236.567 258.28125Q236.91075 258.28125 237.08263 258.46875Q237.2545 258.65625 237.2545 258.9375Q237.2545 259.20312 237.08263 259.39062Q236.91075 259.5625 236.567 259.5625Q236.23888 259.5625 236.067 259.39062Q235.91075 259.20312 235.91075 258.9375ZM244.36388 259.5L238.77013 259.5L238.77013 258.71875L241.72325 255.4375Q242.3795 254.6875 242.6295 254.23438Q242.8795 253.76562 242.8795 253.26562Q242.8795 252.59375 242.47325 252.17188Q242.08263 251.73438 241.39513 251.73438Q240.59825 251.73438 240.14513 252.20312Q239.692 252.65625 239.692 253.48438L238.61388 253.48438Q238.61388 252.29688 239.36388 251.57812Q240.1295 250.84375 241.39513 250.84375Q242.59825 250.84375 243.28575 251.46875Q243.97325 252.09375 243.97325 253.14062Q243.97325 254.39062 242.36388 256.14062L240.08263 258.60938L244.36388 258.60938L244.36388 259.5Z" fill-rule="nonzero"/><path fill="#424242" d="M307.10938 342.5594Q307.10938 341.79376 307.59375 341.29376Q308.09375 340.79376 308.85938 340.79376Q309.64062 340.79376 310.125 341.29376Q310.60938 341.79376 310.60938 342.59064L310.60938 343.0125Q310.60938 343.77814 310.10938 344.27814Q309.625 344.7625 308.875 344.7625Q308.10938 344.7625 307.60938 344.27814Q307.10938 343.77814 307.10938 342.96564L307.10938 342.5594ZM307.92188 343.0125Q307.92188 343.46564 308.17188 343.7625Q308.4375 344.0594 308.875 344.0594Q309.29688 344.0594 309.54688 343.77814Q309.79688 343.48126 309.79688 342.98126L309.79688 342.5594Q309.79688 342.10626 309.54688 341.8094Q309.29688 341.4969 308.85938 341.4969Q308.42188 341.4969 308.17188 341.8094Q307.92188 342.10626 307.92188 342.575L307.92188 343.0125ZM311.26562 347.35626Q311.26562 346.59064 311.75 346.10626Q312.25 345.60626 313.01562 345.60626Q313.78125 345.60626 314.26562 346.10626Q314.76562 346.59064 314.76562 347.40314L314.76562 347.8094Q314.76562 348.575 314.28125 349.075Q313.79688 349.575 313.03125 349.575Q312.26562 349.575 311.76562 349.09064Q311.26562 348.59064 311.26562 347.77814L311.26562 347.35626ZM312.07812 347.8094Q312.07812 348.27814 312.32812 348.575Q312.59375 348.8719 313.03125 348.8719Q313.45312 348.8719 313.70312 348.59064Q313.95312 348.29376 313.95312 347.79376L313.95312 347.35626Q313.95312 346.8875 313.6875 346.60626Q313.4375 346.3094 313.01562 346.3094Q312.59375 346.3094 312.32812 346.60626Q312.07812 346.8875 312.07812 347.3875L312.07812 347.8094ZM309.125 348.8094L308.5 348.41876L312.67188 341.7469L313.28125 342.1375L309.125 348.8094ZM324.67188 346.35626Q324.67188 347.79376 324.01562 348.6844Q323.35938 349.575 322.21875 349.575Q321.0625 349.575 320.40625 348.84064L320.40625 351.8875L319.32812 351.8875L319.32812 343.10626L320.3125 343.10626L320.35938 343.8094Q321.03125 342.9969 322.20312 342.9969Q323.34375 342.9969 324.0 343.85626Q324.67188 344.71564 324.67188 346.2469L324.67188 346.35626ZM323.59375 346.23126Q323.59375 345.15314 323.125 344.54376Q322.67188 343.91876 321.875 343.91876Q320.89062 343.91876 320.40625 344.77814L320.40625 347.8094Q320.89062 348.6844 321.89062 348.6844Q322.67188 348.6844 323.125 348.075Q323.59375 347.45 323.59375 346.23126ZM329.39062 344.075Q329.14062 344.04376 328.85938 344.04376Q327.78125 344.04376 327.40625 344.95L327.40625 349.45L326.32812 349.45L326.32812 343.10626L327.375 343.10626L327.39062 343.84064Q327.92188 342.9969 328.90625 342.9969Q329.21875 342.9969 329.39062 343.075L329.39062 344.075ZM330.03125 346.21564Q330.03125 345.29376 330.39062 344.54376Q330.76562 343.79376 331.42188 343.40314Q332.07812 342.9969 332.90625 342.9969Q334.20312 342.9969 335.0 343.8875Q335.8125 344.77814 335.8125 346.27814L335.8125 346.35626Q335.8125 347.27814 335.45312 348.0125Q335.09375 348.7469 334.4375 349.16876Q333.78125 349.575 332.92188 349.575Q331.64062 349.575 330.82812 348.6844Q330.03125 347.77814 330.03125 346.29376L330.03125 346.21564ZM331.125 346.35626Q331.125 347.40314 331.60938 348.04376Q332.10938 348.6844 332.92188 348.6844Q333.75 348.6844 334.23438 348.04376Q334.71875 347.3875 334.71875 346.21564Q334.71875 345.1844 334.21875 344.54376Q333.73438 343.8875 332.90625 343.8875Q332.10938 343.8875 331.60938 344.52814Q331.125 345.15314 331.125 346.35626ZM338.4375 343.10626L338.4375 350.1844Q338.4375 352.0125 336.78125 352.0125Q336.42188 352.0125 336.125 351.90314L336.125 351.04376Q336.3125 351.09064 336.60938 351.09064Q336.96875 351.09064 337.15625 350.8875Q337.35938 350.7 337.35938 350.2L337.35938 343.10626L338.4375 343.10626ZM337.25 341.4344Q337.25 341.16876 337.40625 340.98126Q337.5625 340.79376 337.875 340.79376Q338.1875 340.79376 338.34375 340.98126Q338.51562 341.16876 338.51562 341.4344Q338.51562 341.6844 338.34375 341.8719Q338.1875 342.04376 337.875 342.04376Q337.5625 342.04376 337.40625 341.8719Q337.25 341.6844 337.25 341.4344ZM342.95312 349.575Q341.65625 349.575 340.84375 348.73126Q340.04688 347.8719 340.04688 346.45L340.04688 346.2625Q340.04688 345.3094 340.40625 344.575Q340.76562 343.825 341.40625 343.41876Q342.0625 342.9969 342.8125 342.9969Q344.04688 342.9969 344.73438 343.8094Q345.42188 344.6219 345.42188 346.1375L345.42188 346.59064L341.125 346.59064Q341.15625 347.52814 341.67188 348.10626Q342.20312 348.6844 343.01562 348.6844Q343.57812 348.6844 343.96875 348.45Q344.375 348.21564 344.6875 347.825L345.34375 348.34064Q344.54688 349.575 342.95312 349.575ZM342.8125 343.8875Q342.15625 343.8875 341.70312 344.3719Q341.26562 344.84064 341.17188 345.7L344.34375 345.7L344.34375 345.6219Q344.29688 344.79376 343.89062 344.34064Q343.5 343.8875 342.8125 343.8875ZM348.85938 348.6844Q349.4375 348.6844 349.875 348.34064Q350.3125 347.98126 350.35938 347.45L351.39062 347.45Q351.35938 347.9969 351.0 348.4969Q350.65625 348.98126 350.07812 349.27814Q349.51562 349.575 348.85938 349.575Q347.5625 349.575 346.79688 348.71564Q346.04688 347.84064 346.04688 346.34064L346.04688 346.15314Q346.04688 345.23126 346.375 344.5125Q346.71875 343.79376 347.34375 343.40314Q347.98438 342.9969 348.85938 342.9969Q349.92188 342.9969 350.625 343.6375Q351.34375 344.2625 351.39062 345.29376L350.35938 345.29376Q350.3125 344.66876 349.89062 344.27814Q349.46875 343.8875 348.85938 343.8875Q348.03125 343.8875 347.57812 344.48126Q347.125 345.075 347.125 346.2L347.125 346.40314Q347.125 347.4969 347.57812 348.09064Q348.03125 348.6844 348.85938 348.6844ZM353.79688 341.575L353.79688 343.10626L354.96875 343.10626L354.96875 343.95L353.79688 343.95L353.79688 347.8719Q353.79688 348.2625 353.95312 348.45Q354.10938 348.6375 354.48438 348.6375Q354.67188 348.6375 355.0 348.575L355.0 349.45Q354.57812 349.575 354.17188 349.575Q353.45312 349.575 353.07812 349.1375Q352.70312 348.6844 352.70312 347.8719L352.70312 343.95L351.54688 343.95L351.54688 343.10626L352.70312 343.10626L352.70312 341.575L353.79688 341.575ZM360.01562 347.7625Q360.01562 347.325 359.67188 347.09064Q359.34375 346.84064 358.51562 346.66876Q357.70312 346.4969 357.21875 346.2469Q356.73438 345.9969 356.5 345.66876Q356.28125 345.325 356.28125 344.85626Q356.28125 344.075 356.9375 343.54376Q357.59375 342.9969 358.625 342.9969Q359.70312 342.9969 360.35938 343.5594Q361.03125 344.10626 361.03125 344.96564L359.95312 344.96564Q359.95312 344.52814 359.5625 344.21564Q359.1875 343.8875 358.625 343.8875Q358.03125 343.8875 357.6875 344.15314Q357.35938 344.40314 357.35938 344.8094Q357.35938 345.2 357.67188 345.40314Q357.98438 345.60626 358.79688 345.79376Q359.60938 345.96564 360.10938 346.21564Q360.60938 346.46564 360.84375 346.825Q361.09375 347.1844 361.09375 347.6844Q361.09375 348.54376 360.40625 349.0594Q359.73438 349.575 358.65625 349.575Q357.89062 349.575 357.29688 349.3094Q356.71875 349.02814 356.39062 348.54376Q356.0625 348.0594 356.0625 347.4969L357.14062 347.4969Q357.17188 348.04376 357.57812 348.3719Q357.98438 348.6844 358.65625 348.6844Q359.26562 348.6844 359.64062 348.4344Q360.01562 348.1844 360.01562 347.7625Z" fill-rule="nonzero"/><path fill="#757575" d="M29.55 57.951508L29.55 63.748383Q29.534374 64.95151 28.784374 65.73276Q28.034374 66.49838 26.753124 66.59213L26.440624 66.60776Q25.05 66.60776 24.20625 65.85776Q23.378124 65.09213 23.378124 63.764008L23.378124 57.951508L24.4875 57.951508L24.4875 63.732758Q24.4875 64.65463 24.9875 65.17026Q25.503124 65.68588 26.440624 65.68588Q27.409374 65.68588 27.909374 65.17026Q28.409374 64.65463 28.409374 63.732758L28.409374 57.951508L29.55 57.951508ZM32.39375 60.139008L32.425 60.935883Q33.159374 60.029633 34.33125 60.029633Q36.346874 60.029633 36.3625 62.295258L36.3625 66.48276L35.26875 66.48276L35.26875 62.279633Q35.26875 61.607758 34.95625 61.279633Q34.659374 60.951508 34.003124 60.951508Q33.471874 60.951508 33.065624 61.232758Q32.675 61.514008 32.45625 61.967133L32.45625 66.48276L31.378124 66.48276L31.378124 60.139008L32.39375 60.139008ZM38.1125 63.264008Q38.1125 61.795258 38.8 60.920258Q39.4875 60.029633 40.6125 60.029633Q41.721874 60.029633 42.378124 60.779633L42.378124 57.482758L43.45625 57.482758L43.45625 66.48276L42.45625 66.48276L42.409374 65.79526Q41.753124 66.60776 40.596874 66.60776Q39.503124 66.60776 38.8 65.70151Q38.1125 64.79526 38.1125 63.342133L38.1125 63.264008ZM39.190624 63.389008Q39.190624 64.46713 39.628124 65.07651Q40.08125 65.68588 40.8625 65.68588Q41.89375 65.68588 42.378124 64.74838L42.378124 61.842133Q41.89375 60.951508 40.878124 60.951508Q40.08125 60.951508 39.628124 61.560883Q39.190624 62.170258 39.190624 63.389008ZM48.003124 66.60776Q46.70625 66.60776 45.89375 65.76401Q45.096874 64.90463 45.096874 63.482758L45.096874 63.295258Q45.096874 62.342133 45.45625 61.607758Q45.815624 60.857758 46.45625 60.451508Q47.1125 60.029633 47.8625 60.029633Q49.096874 60.029633 49.784374 60.842133Q50.471874 61.654633 50.471874 63.170258L50.471874 63.623383L46.175 63.623383Q46.20625 64.56088 46.721874 65.13901Q47.253124 65.71713 48.065624 65.71713Q48.628124 65.71713 49.01875 65.48276Q49.425 65.24838 49.7375 64.85776L50.39375 65.37338Q49.596874 66.60776 48.003124 66.60776ZM47.8625 60.920258Q47.20625 60.920258 46.753124 61.404633Q46.315624 61.873383 46.221874 62.732758L49.39375 62.732758L49.39375 62.654633Q49.346874 61.826508 48.940624 61.373383Q48.55 60.920258 47.8625 60.920258ZM54.440624 61.107758Q54.190624 61.076508 53.909374 61.076508Q52.83125 61.076508 52.45625 61.982758L52.45625 66.48276L51.378124 66.48276L51.378124 60.139008L52.425 60.139008L52.440624 60.873383Q52.971874 60.029633 53.95625 60.029633Q54.26875 60.029633 54.440624 60.107758L54.440624 61.107758ZM61.815624 66.48276L60.7375 66.48276L60.7375 59.264008L58.55 60.060883L58.55 59.076508L61.659374 57.904633L61.815624 57.904633L61.815624 66.48276ZM70.6125 62.842133Q70.6125 64.74838 69.95625 65.68588Q69.31563 66.60776 67.925 66.60776Q66.56563 66.60776 65.90938 65.70151Q65.25313 64.79526 65.22188 62.982758L65.22188 61.545258Q65.22188 59.654633 65.8625 58.748383Q66.51875 57.826508 67.90938 57.826508Q69.28438 57.826508 69.94063 58.717133Q70.59688 59.592133 70.6125 61.435883L70.6125 62.842133ZM69.51875 61.357758Q69.51875 59.982758 69.12813 59.357758Q68.75313 58.717133 67.90938 58.717133Q67.08125 58.717133 66.69063 59.357758Q66.31563 59.982758 66.31563 61.279633L66.31563 63.014008Q66.31563 64.38901 66.70625 65.06088Q67.1125 65.71713 67.925 65.71713Q68.72188 65.71713 69.1125 65.09213Q69.50313 64.46713 69.51875 63.139008L69.51875 61.357758ZM72.15938 59.592133Q72.15938 58.826508 72.64375 58.326508Q73.14375 57.826508 73.90938 57.826508Q74.69063 57.826508 75.175 58.326508Q75.65938 58.826508 75.65938 59.623383L75.65938 60.045258Q75.65938 60.810883 75.15938 61.310883Q74.675 61.795258 73.925 61.795258Q73.15938 61.795258 72.65938 61.310883Q72.15938 60.810883 72.15938 59.998383L72.15938 59.592133ZM72.97188 60.045258Q72.97188 60.498383 73.22188 60.795258Q73.4875 61.092133 73.925 61.092133Q74.34688 61.092133 74.59688 60.810883Q74.84688 60.514008 74.84688 60.014008L74.84688 59.592133Q74.84688 59.139008 74.59688 58.842133Q74.34688 58.529633 73.90938 58.529633Q73.47188 58.529633 73.22188 58.842133Q72.97188 59.139008 72.97188 59.607758L72.97188 60.045258ZM76.31563 64.38901Q76.31563 63.623383 76.8 63.139008Q77.3 62.639008 78.06563 62.639008Q78.83125 62.639008 79.31563 63.139008Q79.81563 63.623383 79.81563 64.43588L79.81563 64.84213Q79.81563 65.60776 79.33125 66.10776Q78.84688 66.60776 78.08125 66.60776Q77.31563 66.60776 76.81563 66.12338Q76.31563 65.62338 76.31563 64.81088L76.31563 64.38901ZM77.12813 64.84213Q77.12813 65.31088 77.37813 65.60776Q77.64375 65.90463 78.08125 65.90463Q78.50313 65.90463 78.75313 65.62338Q79.00313 65.32651 79.00313 64.82651L79.00313 64.38901Q79.00313 63.920258 78.7375 63.639008Q78.4875 63.342133 78.06563 63.342133Q77.64375 63.342133 77.37813 63.639008Q77.12813 63.920258 77.12813 64.42026L77.12813 64.84213ZM74.175 65.84213L73.55 65.45151L77.72188 58.779633L78.33125 59.170258L74.175 65.84213Z" fill-rule="nonzero"/><path fill="#757575" d="M31.846874 130.82759L26.253124 130.82759L26.253124 130.04634L29.20625 126.76509Q29.8625 126.01509 30.1125 125.561966Q30.3625 125.093216 30.3625 124.593216Q30.3625 123.92134 29.95625 123.499466Q29.565624 123.061966 28.878124 123.061966Q28.08125 123.061966 27.628124 123.530716Q27.175 123.98384 27.175 124.811966L26.096874 124.811966Q26.096874 123.624466 26.846874 122.905716Q27.6125 122.17134 28.878124 122.17134Q30.08125 122.17134 30.76875 122.79634Q31.45625 123.42134 31.45625 124.468216Q31.45625 125.718216 29.846874 127.468216L27.565624 129.93697L31.846874 129.93697L31.846874 130.82759ZM36.815624 130.82759L35.7375 130.82759L35.7375 123.60884L33.55 124.405716L33.55 123.42134L36.659374 122.249466L36.815624 122.249466L36.815624 130.82759ZM40.159374 123.936966Q40.159374 123.17134 40.64375 122.67134Q41.14375 122.17134 41.909374 122.17134Q42.690624 122.17134 43.175 122.67134Q43.659374 123.17134 43.659374 123.968216L43.659374 124.39009Q43.659374 125.155716 43.159374 125.655716Q42.675 126.14009 41.925 126.14009Q41.159374 126.14009 40.659374 125.655716Q40.159374 125.155716 40.159374 124.343216L40.159374 123.936966ZM40.971874 124.39009Q40.971874 124.843216 41.221874 125.14009Q41.4875 125.436966 41.925 125.436966Q42.346874 125.436966 42.596874 125.155716Q42.846874 124.85884 42.846874 124.35884L42.846874 123.936966Q42.846874 123.48384 42.596874 123.186966Q42.346874 122.874466 41.909374 122.874466Q41.471874 122.874466 41.221874 123.186966Q40.971874 123.48384 40.971874 123.95259L40.971874 124.39009ZM44.315624 128.73384Q44.315624 127.968216 44.8 127.48384Q45.3 126.98384 46.065624 126.98384Q46.83125 126.98384 47.315624 127.48384Q47.815624 127.968216 47.815624 128.78072L47.815624 129.18697Q47.815624 129.95259 47.33125 130.45259Q46.846874 130.95259 46.08125 130.95259Q45.315624 130.95259 44.815624 130.46822Q44.315624 129.96822 44.315624 129.15572L44.315624 128.73384ZM45.128124 129.18697Q45.128124 129.65572 45.378124 129.95259Q45.64375 130.24947 46.08125 130.24947Q46.503124 130.24947 46.753124 129.96822Q47.003124 129.67134 47.003124 129.17134L47.003124 128.73384Q47.003124 128.26509 46.7375 127.98384Q46.4875 127.686966 46.065624 127.686966Q45.64375 127.686966 45.378124 127.98384Q45.128124 128.26509 45.128124 128.76509L45.128124 129.18697ZM42.175 130.18697L41.55 129.79634L45.721874 123.124466L46.33125 123.51509L42.175 130.18697ZM54.628124 127.64009L51.76875 127.64009L51.76875 126.76509L54.628124 126.76509L54.628124 127.64009ZM58.753124 126.54634L59.190624 122.29634L63.565624 122.29634L63.565624 123.29634L60.1125 123.29634L59.846874 125.624466Q60.4875 125.249466 61.284374 125.249466Q62.440624 125.249466 63.128124 126.030716Q63.815624 126.79634 63.815624 128.10884Q63.815624 129.42134 63.096874 130.18697Q62.39375 130.95259 61.1125 130.95259Q59.9875 130.95259 59.26875 130.32759Q58.55 129.68697 58.45625 128.57759L59.471874 128.57759Q59.58125 129.31197 60.003124 129.68697Q60.425 130.06197 61.1125 130.06197Q61.8625 130.06197 62.3 129.54634Q62.7375 129.03072 62.7375 128.12447Q62.7375 127.26509 62.26875 126.749466Q61.8 126.23384 61.01875 126.23384Q60.315624 126.23384 59.909374 126.530716L59.628124 126.76509L58.753124 126.54634ZM70.6125 127.186966Q70.6125 129.09322 69.95625 130.03072Q69.31563 130.95259 67.925 130.95259Q66.56563 130.95259 65.90938 130.04634Q65.25313 129.14009 65.22188 127.32759L65.22188 125.89009Q65.22188 123.999466 65.8625 123.093216Q66.51875 122.17134 67.90938 122.17134Q69.28438 122.17134 69.94063 123.061966Q70.59688 123.936966 70.6125 125.780716L70.6125 127.186966ZM69.51875 125.70259Q69.51875 124.32759 69.12813 123.70259Q68.75313 123.061966 67.90938 123.061966Q67.08125 123.061966 66.69063 123.70259Q66.31563 124.32759 66.31563 125.624466L66.31563 127.35884Q66.31563 128.73384 66.70625 129.40572Q67.1125 130.06197 67.925 130.06197Q68.72188 130.06197 69.1125 129.43697Q69.50313 128.81197 69.51875 127.48384L69.51875 125.70259ZM72.15938 123.936966Q72.15938 123.17134 72.64375 122.67134Q73.14375 122.17134 73.90938 122.17134Q74.69063 122.17134 75.175 122.67134Q75.65938 123.17134 75.65938 123.968216L75.65938 124.39009Q75.65938 125.155716 75.15938 125.655716Q74.675 126.14009 73.925 126.14009Q73.15938 126.14009 72.65938 125.655716Q72.15938 125.155716 72.15938 124.343216L72.15938 123.936966ZM72.97188 124.39009Q72.97188 124.843216 73.22188 125.14009Q73.4875 125.436966 73.925 125.436966Q74.34688 125.436966 74.59688 125.155716Q74.84688 124.85884 74.84688 124.35884L74.84688 123.936966Q74.84688 123.48384 74.59688 123.186966Q74.34688 122.874466 73.90938 122.874466Q73.47188 122.874466 73.22188 123.186966Q72.97188 123.48384 72.97188 123.95259L72.97188 124.39009ZM76.31563 128.73384Q76.31563 127.968216 76.8 127.48384Q77.3 126.98384 78.06563 126.98384Q78.83125 126.98384 79.31563 127.48384Q79.81563 127.968216 79.81563 128.78072L79.81563 129.18697Q79.81563 129.95259 79.33125 130.45259Q78.84688 130.95259 78.08125 130.95259Q77.31563 130.95259 76.81563 130.46822Q76.31563 129.96822 76.31563 129.15572L76.31563 128.73384ZM77.12813 129.18697Q77.12813 129.65572 77.37813 129.95259Q77.64375 130.24947 78.08125 130.24947Q78.50313 130.24947 78.75313 129.96822Q79.00313 129.67134 79.00313 129.17134L79.00313 128.73384Q79.00313 128.26509 78.7375 127.98384Q78.4875 127.686966 78.06563 127.686966Q77.64375 127.686966 77.37813 127.98384Q77.12813 128.26509 77.12813 128.76509L77.12813 129.18697ZM74.175 130.18697L73.55 129.79634L77.72188 123.124466L78.33125 123.51509L74.175 130.18697Z" fill-rule="nonzero"/><path fill="#757575" d="M19.753124 190.89116L20.190624 186.64116L24.565624 186.64116L24.565624 187.64116L21.1125 187.64116L20.846874 189.96928Q21.4875 189.59428 22.284374 189.59428Q23.440624 189.59428 24.128124 190.37553Q24.815624 191.14116 24.815624 192.45366Q24.815624 193.76616 24.096874 194.53178Q23.39375 195.29741 22.1125 195.29741Q20.9875 195.29741 20.26875 194.67241Q19.55 194.03178 19.45625 192.92241L20.471874 192.92241Q20.58125 193.65678 21.003124 194.03178Q21.425 194.40678 22.1125 194.40678Q22.8625 194.40678 23.3 193.89116Q23.7375 193.37553 23.7375 192.46928Q23.7375 191.60991 23.26875 191.09428Q22.8 190.57866 22.01875 190.57866Q21.315624 190.57866 20.909374 190.87553L20.628124 191.10991L19.753124 190.89116ZM29.815624 195.17241L28.7375 195.17241L28.7375 187.95366L26.55 188.75053L26.55 187.76616L29.659374 186.59428L29.815624 186.59428L29.815624 195.17241ZM33.159374 188.28178Q33.159374 187.51616 33.64375 187.01616Q34.14375 186.51616 34.909374 186.51616Q35.690624 186.51616 36.175 187.01616Q36.659374 187.51616 36.659374 188.31303L36.659374 188.73491Q36.659374 189.50053 36.159374 190.00053Q35.675 190.48491 34.925 190.48491Q34.159374 190.48491 33.659374 190.00053Q33.159374 189.50053 33.159374 188.68803L33.159374 188.28178ZM33.971874 188.73491Q33.971874 189.18803 34.221874 189.48491Q34.4875 189.78178 34.925 189.78178Q35.346874 189.78178 35.596874 189.50053Q35.846874 189.20366 35.846874 188.70366L35.846874 188.28178Q35.846874 187.82866 35.596874 187.53178Q35.346874 187.21928 34.909374 187.21928Q34.471874 187.21928 34.221874 187.53178Q33.971874 187.82866 33.971874 188.29741L33.971874 188.73491ZM37.315624 193.07866Q37.315624 192.31303 37.8 191.82866Q38.3 191.32866 39.065624 191.32866Q39.83125 191.32866 40.315624 191.82866Q40.815624 192.31303 40.815624 193.12553L40.815624 193.53178Q40.815624 194.29741 40.33125 194.79741Q39.846874 195.29741 39.08125 195.29741Q38.315624 195.29741 37.815624 194.81303Q37.315624 194.31303 37.315624 193.50053L37.315624 193.07866ZM38.128124 193.53178Q38.128124 194.00053 38.378124 194.29741Q38.64375 194.59428 39.08125 194.59428Q39.503124 194.59428 39.753124 194.31303Q40.003124 194.01616 40.003124 193.51616L40.003124 193.07866Q40.003124 192.60991 39.7375 192.32866Q39.4875 192.03178 39.065624 192.03178Q38.64375 192.03178 38.378124 192.32866Q38.128124 192.60991 38.128124 193.10991L38.128124 193.53178ZM35.175 194.53178L34.55 194.14116L38.721874 187.46928L39.33125 187.85991L35.175 194.53178ZM47.628124 191.98491L44.76875 191.98491L44.76875 191.10991L47.628124 191.10991L47.628124 191.98491ZM56.846874 195.17241L51.253124 195.17241L51.253124 194.39116L54.20625 191.10991Q54.8625 190.35991 55.1125 189.90678Q55.3625 189.43803 55.3625 188.93803Q55.3625 188.26616 54.95625 187.84428Q54.565624 187.40678 53.878124 187.40678Q53.08125 187.40678 52.628124 187.87553Q52.175 188.32866 52.175 189.15678L51.096874 189.15678Q51.096874 187.96928 51.846874 187.25053Q52.6125 186.51616 53.878124 186.51616Q55.08125 186.51616 55.76875 187.14116Q56.45625 187.76616 56.45625 188.81303Q56.45625 190.06303 54.846874 191.81303L52.565624 194.28178L56.846874 194.28178L56.846874 195.17241ZM63.6125 191.53178Q63.6125 193.43803 62.95625 194.37553Q62.315624 195.29741 60.925 195.29741Q59.565624 195.29741 58.909374 194.39116Q58.253124 193.48491 58.221874 191.67241L58.221874 190.23491Q58.221874 188.34428 58.8625 187.43803Q59.51875 186.51616 60.909374 186.51616Q62.284374 186.51616 62.940624 187.40678Q63.596874 188.28178 63.6125 190.12553L63.6125 191.53178ZM62.51875 190.04741Q62.51875 188.67241 62.128124 188.04741Q61.753124 187.40678 60.909374 187.40678Q60.08125 187.40678 59.690624 188.04741Q59.315624 188.67241 59.315624 189.96928L59.315624 191.70366Q59.315624 193.07866 59.70625 193.75053Q60.1125 194.40678 60.925 194.40678Q61.721874 194.40678 62.1125 193.78178Q62.503124 193.15678 62.51875 191.82866L62.51875 190.04741ZM70.6125 191.53178Q70.6125 193.43803 69.95625 194.37553Q69.31563 195.29741 67.925 195.29741Q66.56563 195.29741 65.90938 194.39116Q65.25313 193.48491 65.22188 191.67241L65.22188 190.23491Q65.22188 188.34428 65.8625 187.43803Q66.51875 186.51616 67.90938 186.51616Q69.28438 186.51616 69.94063 187.40678Q70.59688 188.28178 70.6125 190.12553L70.6125 191.53178ZM69.51875 190.04741Q69.51875 188.67241 69.12813 188.04741Q68.75313 187.40678 67.90938 187.40678Q67.08125 187.40678 66.69063 188.04741Q66.31563 188.67241 66.31563 189.96928L66.31563 191.70366Q66.31563 193.07866 66.70625 193.75053Q67.1125 194.40678 67.925 194.40678Q68.72188 194.40678 69.1125 193.78178Q69.50313 193.15678 69.51875 191.82866L69.51875 190.04741ZM72.15938 188.28178Q72.15938 187.51616 72.64375 187.01616Q73.14375 186.51616 73.90938 186.51616Q74.69063 186.51616 75.175 187.01616Q75.65938 187.51616 75.65938 188.31303L75.65938 188.73491Q75.65938 189.50053 75.15938 190.00053Q74.675 190.48491 73.925 190.48491Q73.15938 190.48491 72.65938 190.00053Q72.15938 189.50053 72.15938 188.68803L72.15938 188.28178ZM72.97188 188.73491Q72.97188 189.18803 73.22188 189.48491Q73.4875 189.78178 73.925 189.78178Q74.34688 189.78178 74.59688 189.50053Q74.84688 189.20366 74.84688 188.70366L74.84688 188.28178Q74.84688 187.82866 74.59688 187.53178Q74.34688 187.21928 73.90938 187.21928Q73.47188 187.21928 73.22188 187.53178Q72.97188 187.82866 72.97188 188.29741L72.97188 188.73491ZM76.31563 193.07866Q76.31563 192.31303 76.8 191.82866Q77.3 191.32866 78.06563 191.32866Q78.83125 191.32866 79.31563 191.82866Q79.81563 192.31303 79.81563 193.12553L79.81563 193.53178Q79.81563 194.29741 79.33125 194.79741Q78.84688 195.29741 78.08125 195.29741Q77.31563 195.29741 76.81563 194.81303Q76.31563 194.31303 76.31563 193.50053L76.31563 193.07866ZM77.12813 193.53178Q77.12813 194.00053 77.37813 194.29741Q77.64375 194.59428 78.08125 194.59428Q78.50313 194.59428 78.75313 194.31303Q79.00313 194.01616 79.00313 193.51616L79.00313 193.07866Q79.00313 192.60991 78.7375 192.32866Q78.4875 192.03178 78.06563 192.03178Q77.64375 192.03178 77.37813 192.32866Q77.12813 192.60991 77.12813 193.10991L77.12813 193.53178ZM74.175 194.53178L73.55 194.14116L77.72188 187.46928L78.33125 187.85991L74.175 194.53178Z" fill-rule="nonzero"/><path fill="#757575" d="M31.096874 255.53287Q31.096874 256.78287 30.675 257.72037Q30.253124 258.64224 29.471874 259.14224Q28.70625 259.64224 27.675 259.64224Q26.675 259.64224 25.89375 259.14224Q25.1125 258.64224 24.675 257.736Q24.253124 256.81412 24.2375 255.59537L24.2375 254.986Q24.2375 253.75162 24.659374 252.81412Q25.096874 251.87662 25.878124 251.37662Q26.659374 250.861 27.675 250.861Q28.690624 250.861 29.471874 251.361Q30.253124 251.861 30.675 252.7985Q31.096874 253.736 31.096874 254.986L31.096874 255.53287ZM29.9875 254.97037Q29.9875 253.45474 29.378124 252.64224Q28.76875 251.82974 27.675 251.82974Q26.596874 251.82974 25.9875 252.64224Q25.378124 253.45474 25.3625 254.89224L25.3625 255.53287Q25.3625 257.00162 25.971874 257.84537Q26.596874 258.6735 27.675 258.6735Q28.76875 258.6735 29.3625 257.89224Q29.971874 257.09537 29.9875 255.611L29.9875 254.97037ZM34.45625 258.0485L36.034374 253.1735L37.14375 253.1735L34.8625 259.51724L34.034374 259.51724L31.7375 253.1735L32.846874 253.1735L34.45625 258.0485ZM41.003124 259.64224Q39.70625 259.64224 38.89375 258.7985Q38.096874 257.93912 38.096874 256.51724L38.096874 256.32974Q38.096874 255.37662 38.45625 254.64224Q38.815624 253.89224 39.45625 253.486Q40.1125 253.06412 40.8625 253.06412Q42.096874 253.06412 42.784374 253.87662Q43.471874 254.68912 43.471874 256.20474L43.471874 256.65787L39.175 256.65787Q39.20625 257.59537 39.721874 258.1735Q40.253124 258.75162 41.065624 258.75162Q41.628124 258.75162 42.01875 258.51724Q42.425 258.28287 42.7375 257.89224L43.39375 258.40787Q42.596874 259.64224 41.003124 259.64224ZM40.8625 253.95474Q40.20625 253.95474 39.753124 254.43912Q39.315624 254.90787 39.221874 255.76724L42.39375 255.76724L42.39375 255.68912Q42.346874 254.861 41.940624 254.40787Q41.55 253.95474 40.8625 253.95474ZM47.440624 254.14224Q47.190624 254.111 46.909374 254.111Q45.83125 254.111 45.45625 255.01724L45.45625 259.51724L44.378124 259.51724L44.378124 253.1735L45.425 253.1735L45.440624 253.90787Q45.971874 253.06412 46.95625 253.06412Q47.26875 253.06412 47.440624 253.14224L47.440624 254.14224ZM56.846874 259.51724L51.253124 259.51724L51.253124 258.736L54.20625 255.45474Q54.8625 254.70474 55.1125 254.25162Q55.3625 253.78287 55.3625 253.28287Q55.3625 252.611 54.95625 252.18912Q54.565624 251.75162 53.878124 251.75162Q53.08125 251.75162 52.628124 252.22037Q52.175 252.6735 52.175 253.50162L51.096874 253.50162Q51.096874 252.31412 51.846874 251.59537Q52.6125 250.861 53.878124 250.861Q55.08125 250.861 55.76875 251.486Q56.45625 252.111 56.45625 253.15787Q56.45625 254.40787 54.846874 256.15787L52.565624 258.62662L56.846874 258.62662L56.846874 259.51724ZM63.6125 255.87662Q63.6125 257.78287 62.95625 258.72037Q62.315624 259.64224 60.925 259.64224Q59.565624 259.64224 58.909374 258.736Q58.253124 257.82974 58.221874 256.01724L58.221874 254.57974Q58.221874 252.68912 58.8625 251.78287Q59.51875 250.861 60.909374 250.861Q62.284374 250.861 62.940624 251.75162Q63.596874 252.62662 63.6125 254.47037L63.6125 255.87662ZM62.51875 254.39224Q62.51875 253.01724 62.128124 252.39224Q61.753124 251.75162 60.909374 251.75162Q60.08125 251.75162 59.690624 252.39224Q59.315624 253.01724 59.315624 254.31412L59.315624 256.0485Q59.315624 257.4235 59.70625 258.09537Q60.1125 258.75162 60.925 258.75162Q61.721874 258.75162 62.1125 258.12662Q62.503124 257.50162 62.51875 256.1735L62.51875 254.39224ZM70.6125 255.87662Q70.6125 257.78287 69.95625 258.72037Q69.31563 259.64224 67.925 259.64224Q66.56563 259.64224 65.90938 258.736Q65.25313 257.82974 65.22188 256.01724L65.22188 254.57974Q65.22188 252.68912 65.8625 251.78287Q66.51875 250.861 67.90938 250.861Q69.28438 250.861 69.94063 251.75162Q70.59688 252.62662 70.6125 254.47037L70.6125 255.87662ZM69.51875 254.39224Q69.51875 253.01724 69.12813 252.39224Q68.75313 251.75162 67.90938 251.75162Q67.08125 251.75162 66.69063 252.39224Q66.31563 253.01724 66.31563 254.31412L66.31563 256.0485Q66.31563 257.4235 66.70625 258.09537Q67.1125 258.75162 67.925 258.75162Q68.72188 258.75162 69.1125 258.12662Q69.50313 257.50162 69.51875 256.1735L69.51875 254.39224ZM72.15938 252.62662Q72.15938 251.861 72.64375 251.361Q73.14375 250.861 73.90938 250.861Q74.69063 250.861 75.175 251.361Q75.65938 251.861 75.65938 252.65787L75.65938 253.07974Q75.65938 253.84537 75.15938 254.34537Q74.675 254.82974 73.925 254.82974Q73.15938 254.82974 72.65938 254.34537Q72.15938 253.84537 72.15938 253.03287L72.15938 252.62662ZM72.97188 253.07974Q72.97188 253.53287 73.22188 253.82974Q73.4875 254.12662 73.925 254.12662Q74.34688 254.12662 74.59688 253.84537Q74.84688 253.5485 74.84688 253.0485L74.84688 252.62662Q74.84688 252.1735 74.59688 251.87662Q74.34688 251.56412 73.90938 251.56412Q73.47188 251.56412 73.22188 251.87662Q72.97188 252.1735 72.97188 252.64224L72.97188 253.07974ZM76.31563 257.4235Q76.31563 256.65787 76.8 256.1735Q77.3 255.6735 78.06563 255.6735Q78.83125 255.6735 79.31563 256.1735Q79.81563 256.65787 79.81563 257.47037L79.81563 257.87662Q79.81563 258.64224 79.33125 259.14224Q78.84688 259.64224 78.08125 259.64224Q77.31563 259.64224 76.81563 259.15787Q76.31563 258.65787 76.31563 257.84537L76.31563 257.4235ZM77.12813 257.87662Q77.12813 258.34537 77.37813 258.64224Q77.64375 258.93912 78.08125 258.93912Q78.50313 258.93912 78.75313 258.65787Q79.00313 258.361 79.00313 257.861L79.00313 257.4235Q79.00313 256.95474 78.7375 256.6735Q78.4875 256.37662 78.06563 256.37662Q77.64375 256.37662 77.37813 256.6735Q77.12813 256.95474 77.12813 257.45474L77.12813 257.87662ZM74.175 258.87662L73.55 258.486L77.72188 251.81412L78.33125 252.20474L74.175 258.87662Z" fill-rule="nonzero"/><path fill="#757575" d="M89.1125 312.8094Q89.1125 314.71564 88.45625 315.65314Q87.81563 316.575 86.425 316.575Q85.06563 316.575 84.40938 315.66876Q83.75313 314.7625 83.72188 312.95L83.72188 311.5125Q83.72188 309.6219 84.3625 308.71564Q85.01875 307.79376 86.40938 307.79376Q87.78438 307.79376 88.44063 308.6844Q89.09688 309.5594 89.1125 311.40314L89.1125 312.8094ZM88.01875 311.325Q88.01875 309.95 87.62813 309.325Q87.25313 308.6844 86.40938 308.6844Q85.58125 308.6844 85.19063 309.325Q84.81563 309.95 84.81563 311.2469L84.81563 312.98126Q84.81563 314.35626 85.20625 315.02814Q85.6125 315.6844 86.425 315.6844Q87.22188 315.6844 87.6125 315.0594Q88.00313 314.4344 88.01875 313.10626L88.01875 311.325Z" fill-rule="nonzero"/><path fill="#757575" d="M207.54062 316.45L206.4625 316.45L206.4625 309.23126L204.275 310.02814L204.275 309.04376L207.38437 307.8719L207.54062 307.8719L207.54062 316.45ZM216.3375 312.8094Q216.3375 314.71564 215.68124 315.65314Q215.04062 316.575 213.65 316.575Q212.29062 316.575 211.63437 315.66876Q210.97812 314.7625 210.94687 312.95L210.94687 311.5125Q210.94687 309.6219 211.5875 308.71564Q212.24374 307.79376 213.63437 307.79376Q215.00937 307.79376 215.66562 308.6844Q216.32187 309.5594 216.3375 311.40314L216.3375 312.8094ZM215.24374 311.325Q215.24374 309.95 214.85312 309.325Q214.47812 308.6844 213.63437 308.6844Q212.80624 308.6844 212.41562 309.325Q212.04062 309.95 212.04062 311.2469L212.04062 312.98126Q212.04062 314.35626 212.43124 315.02814Q212.8375 315.6844 213.65 315.6844Q214.44687 315.6844 214.8375 315.0594Q215.22812 314.4344 215.24374 313.10626L215.24374 311.325Z" fill-rule="nonzero"/><path fill="#757575" d="M333.29688 316.45L327.70312 316.45L327.70312 315.66876L330.65625 312.3875Q331.3125 311.6375 331.5625 311.1844Q331.8125 310.71564 331.8125 310.21564Q331.8125 309.54376 331.40625 309.1219Q331.01562 308.6844 330.32812 308.6844Q329.53125 308.6844 329.07812 309.15314Q328.625 309.60626 328.625 310.4344L327.54688 310.4344Q327.54688 309.2469 328.29688 308.52814Q329.0625 307.79376 330.32812 307.79376Q331.53125 307.79376 332.21875 308.41876Q332.90625 309.04376 332.90625 310.09064Q332.90625 311.34064 331.29688 313.09064L329.01562 315.5594L333.29688 315.5594L333.29688 316.45ZM340.0625 312.8094Q340.0625 314.71564 339.40625 315.65314Q338.76562 316.575 337.375 316.575Q336.01562 316.575 335.35938 315.66876Q334.70312 314.7625 334.67188 312.95L334.67188 311.5125Q334.67188 309.6219 335.3125 308.71564Q335.96875 307.79376 337.35938 307.79376Q338.73438 307.79376 339.39062 308.6844Q340.04688 309.5594 340.0625 311.40314L340.0625 312.8094ZM338.96875 311.325Q338.96875 309.95 338.57812 309.325Q338.20312 308.6844 337.35938 308.6844Q336.53125 308.6844 336.14062 309.325Q335.76562 309.95 335.76562 311.2469L335.76562 312.98126Q335.76562 314.35626 336.15625 315.02814Q336.5625 315.6844 337.375 315.6844Q338.17188 315.6844 338.5625 315.0594Q338.95312 314.4344 338.96875 313.10626L338.96875 311.325Z" fill-rule="nonzero"/><path fill="#757575" d="M453.00626 311.65314L453.81876 311.65314Q454.6 311.6375 455.0375 311.2469Q455.475 310.85626 455.475 310.1844Q455.475 308.6844 453.975 308.6844Q453.27188 308.6844 452.85 309.09064Q452.44376 309.4969 452.44376 310.15314L451.35 310.15314Q451.35 309.1375 452.08438 308.46564Q452.83438 307.79376 453.975 307.79376Q455.17813 307.79376 455.86563 308.4344Q456.55313 309.075 456.55313 310.21564Q456.55313 310.77814 456.19376 311.29376Q455.83438 311.8094 455.20938 312.075Q455.9125 312.29376 456.2875 312.8094Q456.67813 313.325 456.67813 314.075Q456.67813 315.21564 455.92813 315.90314Q455.17813 316.575 453.975 316.575Q452.7875 316.575 452.02188 315.91876Q451.27188 315.2625 451.27188 314.2L452.36563 314.2Q452.36563 314.8719 452.80313 315.27814Q453.24063 315.6844 453.99063 315.6844Q454.77188 315.6844 455.17813 315.27814Q455.6 314.85626 455.6 314.09064Q455.6 313.35626 455.14688 312.96564Q454.69376 312.5594 453.81876 312.54376L453.00626 312.54376L453.00626 311.65314ZM463.7875 312.8094Q463.7875 314.71564 463.13126 315.65314Q462.49063 316.575 461.1 316.575Q459.74063 316.575 459.08438 315.66876Q458.42813 314.7625 458.39688 312.95L458.39688 311.5125Q458.39688 309.6219 459.0375 308.71564Q459.69376 307.79376 461.08438 307.79376Q462.45938 307.79376 463.11563 308.6844Q463.77188 309.5594 463.7875 311.40314L463.7875 312.8094ZM462.69376 311.325Q462.69376 309.95 462.30313 309.325Q461.92813 308.6844 461.08438 308.6844Q460.25626 308.6844 459.86563 309.325Q459.49063 309.95 459.49063 311.2469L459.49063 312.98126Q459.49063 314.35626 459.88126 315.02814Q460.2875 315.6844 461.1 315.6844Q461.89688 315.6844 462.2875 315.0594Q462.67813 314.4344 462.69376 313.10626L462.69376 311.325Z" fill-rule="nonzero"/><path fill="#757575" d="M579.73126 313.59064L580.91876 313.59064L580.91876 314.46564L579.73126 314.46564L579.73126 316.45L578.65314 316.45L578.65314 314.46564L574.7625 314.46564L574.7625 313.825L578.575 307.91876L579.73126 307.91876L579.73126 313.59064ZM575.9969 313.59064L578.65314 313.59064L578.65314 309.40314L578.5125 309.6375L575.9969 313.59064ZM587.5125 312.8094Q587.5125 314.71564 586.85626 315.65314Q586.21564 316.575 584.825 316.575Q583.46564 316.575 582.8094 315.66876Q582.15314 314.7625 582.1219 312.95L582.1219 311.5125Q582.1219 309.6219 582.7625 308.71564Q583.41876 307.79376 584.8094 307.79376Q586.1844 307.79376 586.84064 308.6844Q587.4969 309.5594 587.5125 311.40314L587.5125 312.8094ZM586.41876 311.325Q586.41876 309.95 586.02814 309.325Q585.65314 308.6844 584.8094 308.6844Q583.98126 308.6844 583.59064 309.325Q583.21564 309.95 583.21564 311.2469L583.21564 312.98126Q583.21564 314.35626 583.60626 315.02814Q584.0125 315.6844 584.825 315.6844Q585.6219 315.6844 586.0125 315.0594Q586.40314 314.4344 586.41876 313.10626L586.41876 311.325Z" fill-rule="nonzero"/></svg>