<svg version="1.1" viewBox="0.0 0.0 600.0 371.0" fill="none" stroke="none" stroke-linecap="square" stroke-miterlimit="10" width="600" height="371" xmlns:xlink="http://www.w3.org/1999/xlink" xmlns="http://www.w3.org/2000/svg"><path fill="#ffffff" d="M0 0L600.0 0L600.0 371.0L0 371.0L0 0Z" fill-rule="nonzero"/><path stroke="#333333" stroke-width="1.0" stroke-linecap="butt" d="M86.5 18.5L86.5 298.5" fill-rule="nonzero"/><path stroke="#cccccc" stroke-width="1.0" stroke-linecap="butt" d="M251.5 18.5L251.5 298.5" fill-rule="nonzero"/><path stroke="#cccccc" stroke-width="1.0" stroke-linecap="butt" d="M416.5 18.5L416.5 298.5" fill-rule="nonzero"/><path stroke="#cccccc" stroke-width="1.0" stroke-linecap="butt" d="M581.5 18.5L581.5 298.5" fill-rule="nonzero"/><clipPath id="id_0"><path d="M86.55 18.55L581.45 18.55L581.45 298.45L86.55 298.45L86.55 18.55Z" clip-rule="nonzero"/></clipPath><path stroke="#000000" stroke-width="2.0" stroke-linecap="butt" stroke-opacity="0.0" clip-path="url(#id_0)" d="M87.0 83.0L87.0 41.0L199.0 41.0C200.10457 41.0 201.0 41.89543 201.0 43.0L201.0 81.0C201.0 82.10457 200.10457 83.0 199.0 83.0Z" fill-rule="nonzero"/><path fill="#4285f4" clip-path="url(#id_0)" d="M87.0 83.0L87.0 41.0L199.0 41.0C200.10457 41.0 201.0 41.89543 201.0 43.0L201.0 81.0C201.0 82.10457 200.10457 83.0 199.0 83.0Z" fill-rule="nonzero"/><path stroke="#000000" stroke-width="2.0" stroke-linecap="butt" stroke-opacity="0.0" clip-path="url(#id_0)" d="M87.0 147.0L87.0 105.0L235.0 105.0C236.10457 105.0 237.0 105.89543 237.0 107.0L237.0 145.0C237.0 146.10457 236.10457 147.0 235.0 147.0Z" fill-rule="nonzero"/><path fill="#4285f4" clip-path="url(#id_0)" d="M87.0 147.0L87.0 105.0L235.0 105.0C236.10457 105.0 237.0 105.89543 237.0 107.0L237.0 145.0C237.0 146.10457 236.10457 147.0 235.0 147.0Z" fill-rule="nonzero"/><path stroke="#000000" stroke-width="2.0" stroke-linecap="butt" stroke-opacity="0.0" clip-path="url(#id_0)" d="M87.0 212.0L87.0 170.0L542.0 170.0C543.10455 170.0 544.0 170.89543 544.0 172.0L544.0 210.0C544.0 211.10457 543.10455 212.0 542.0 212.0Z" fill-rule="nonzero"/><path fill="#4285f4" clip-path="url(#id_0)" d="M87.0 212.0L87.0 170.0L542.0 170.0C543.10455 170.0 544.0 170.89543 544.0 172.0L544.0 210.0C544.0 211.10457 543.10455 212.0 542.0 212.0Z" fill-rule="nonzero"/><path stroke="#000000" stroke-width="2.0" stroke-linecap="butt" stroke-opacity="0.0" clip-path="url(#id_0)" d="M87.0 276.0L87.0 234.0L186.0 234.0C187.10457 234.0 188.0 234.89543 188.0 236.0L188.0 274.0C188.0 275.10458 187.10457 276.0 186.0 276.0Z" fill-rule="nonzero"/><path fill="#4285f4" clip-path="url(#id_0)" d="M87.0 276.0L87.0 234.0L186.0 234.0C187.10457 234.0 188.0 234.89543 188.0 236.0L188.0 274.0C188.0 275.10458 187.10457 276.0 186.0 276.0Z" fill-rule="nonzero"/><path stroke="#4285f4" stroke-width="3.0" stroke-linejoin="round" stroke-linecap="round" d="M176.66747 66.5L175.58934 66.5L175.58934 59.28125L173.40184 60.078125L173.40184 59.09375L176.51122 57.921875L176.66747 57.921875L176.66747 66.5ZM181.68309 61.703125L182.49559 61.703125Q183.27684 61.6875 183.71434 61.296875Q184.15184 60.90625 184.15184 60.234375Q184.15184 58.734375 182.65184 58.734375Q181.94872 58.734375 181.52684 59.140625Q181.12059 59.546875 181.12059 60.203125L180.02684 60.203125Q180.02684 59.1875 180.76122 58.515625Q181.51122 57.84375 182.65184 57.84375Q183.85497 57.84375 184.54247 58.484375Q185.22997 59.125 185.22997 60.265625Q185.22997 60.828125 184.87059 61.34375Q184.51122 61.859375 183.88622 62.125Q184.58934 62.34375 184.96434 62.859375Q185.35497 63.375 185.35497 64.125Q185.35497 65.265625 184.60497 65.953125Q183.85497 66.625 182.65184 66.625Q181.46434 66.625 180.69872 65.96875Q179.94872 65.3125 179.94872 64.25L181.04247 64.25Q181.04247 64.921875 181.47997 65.328125Q181.91747 65.734375 182.66747 65.734375Q183.44872 65.734375 183.85497 65.328125Q184.27684 64.90625 184.27684 64.140625Q184.27684 63.40625 183.82372 63.015625Q183.37059 62.609375 182.49559 62.59375L181.68309 62.59375L181.68309 61.703125ZM187.24559 65.9375Q187.24559 65.65625 187.40184 65.46875Q187.57372 65.28125 187.90184 65.28125Q188.24559 65.28125 188.41747 65.46875Q188.58934 65.65625 188.58934 65.9375Q188.58934 66.203125 188.41747 66.390625Q188.24559 66.5625 187.90184 66.5625Q187.57372 66.5625 187.40184 66.390625Q187.24559 66.203125 187.24559 65.9375ZM194.26122 62.75Q193.93309 63.15625 193.44872 63.40625Q192.97997 63.640625 192.41747 63.640625Q191.68309 63.640625 191.13622 63.28125Q190.58934 62.921875 190.29247 62.265625Q189.99559 61.59375 189.99559 60.796875Q189.99559 59.953125 190.30809 59.265625Q190.63622 58.578125 191.22997 58.21875Q191.83934 57.84375 192.63622 57.84375Q193.90184 57.84375 194.62059 58.796875Q195.35497 59.75 195.35497 61.375L195.35497 61.6875Q195.35497 64.1875 194.37059 65.328125Q193.38622 66.46875 191.40184 66.5L191.18309 66.5L191.18309 65.59375L191.41747 65.59375Q192.76122 65.5625 193.47997 64.890625Q194.19872 64.21875 194.26122 62.75ZM192.58934 62.75Q193.13622 62.75 193.58934 62.421875Q194.05809 62.078125 194.27684 61.59375L194.27684 61.15625Q194.27684 60.09375 193.80809 59.421875Q193.33934 58.75 192.63622 58.75Q191.91747 58.75 191.47997 59.296875Q191.05809 59.84375 191.05809 60.75Q191.05809 61.625 191.46434 62.1875Q191.88622 62.75 192.58934 62.75Z" fill-rule="nonzero"/><path fill="#ffffff" d="M176.66747 66.5L175.58934 66.5L175.58934 59.28125L173.40184 60.078125L173.40184 59.09375L176.51122 57.921875L176.66747 57.921875L176.66747 66.5ZM181.68309 61.703125L182.49559 61.703125Q183.27684 61.6875 183.71434 61.296875Q184.15184 60.90625 184.15184 60.234375Q184.15184 58.734375 182.65184 58.734375Q181.94872 58.734375 181.52684 59.140625Q181.12059 59.546875 181.12059 60.203125L180.02684 60.203125Q180.02684 59.1875 180.76122 58.515625Q181.51122 57.84375 182.65184 57.84375Q183.85497 57.84375 184.54247 58.484375Q185.22997 59.125 185.22997 60.265625Q185.22997 60.828125 184.87059 61.34375Q184.51122 61.859375 183.88622 62.125Q184.58934 62.34375 184.96434 62.859375Q185.35497 63.375 185.35497 64.125Q185.35497 65.265625 184.60497 65.953125Q183.85497 66.625 182.65184 66.625Q181.46434 66.625 180.69872 65.96875Q179.94872 65.3125 179.94872 64.25L181.04247 64.25Q181.04247 64.921875 181.47997 65.328125Q181.91747 65.734375 182.66747 65.734375Q183.44872 65.734375 183.85497 65.328125Q184.27684 64.90625 184.27684 64.140625Q184.27684 63.40625 183.82372 63.015625Q183.37059 62.609375 182.49559 62.59375L181.68309 62.59375L181.68309 61.703125ZM187.24559 65.9375Q187.24559 65.65625 187.40184 65.46875Q187.57372 65.28125 187.90184 65.28125Q188.24559 65.28125 188.41747 65.46875Q188.58934 65.65625 188.58934 65.9375Q188.58934 66.203125 188.41747 66.390625Q188.24559 66.5625 187.90184 66.5625Q187.57372 66.5625 187.40184 66.390625Q187.24559 66.203125 187.24559 65.9375ZM194.26122 62.75Q193.93309 63.15625 193.44872 63.40625Q192.97997 63.640625 192.41747 63.640625Q191.68309 63.640625 191.13622 63.28125Q190.58934 62.921875 190.29247 62.265625Q189.99559 61.59375 189.99559 60.796875Q189.99559 59.953125 190.30809 59.265625Q190.63622 58.578125 191.22997 58.21875Q191.83934 57.84375 192.63622 57.84375Q193.90184 57.84375 194.62059 58.796875Q195.35497 59.75 195.35497 61.375L195.35497 61.6875Q195.35497 64.1875 194.37059 65.328125Q193.38622 66.46875 191.40184 66.5L191.18309 66.5L191.18309 65.59375L191.41747 65.59375Q192.76122 65.5625 193.47997 64.890625Q194.19872 64.21875 194.26122 62.75ZM192.58934 62.75Q193.13622 62.75 193.58934 62.421875Q194.05809 62.078125 194.27684 61.59375L194.27684 61.15625Q194.27684 60.09375 193.80809 59.421875Q193.33934 58.75 192.63622 58.75Q191.91747 58.75 191.47997 59.296875Q191.05809 59.84375 191.05809 60.75Q191.05809 61.625 191.46434 62.1875Q191.88622 62.75 192.58934 62.75Z" fill-rule="nonzero"/><path stroke="#4285f4" stroke-width="3.0" stroke-linejoin="round" stroke-linecap="round" d="M212.96013 130.5L211.882 130.5L211.882 123.28125L209.6945 124.078125L209.6945 123.09375L212.80388 121.921875L212.96013 121.921875L212.96013 130.5ZM221.58513 124.1875Q221.58513 124.828125 221.24138 125.328125Q220.89763 125.828125 220.33513 126.109375Q220.99138 126.390625 221.382 126.953125Q221.77263 127.5 221.77263 128.20312Q221.77263 129.29688 221.02263 129.96875Q220.28825 130.625 219.0695 130.625Q217.83513 130.625 217.08513 129.96875Q216.35075 129.29688 216.35075 128.20312Q216.35075 127.5 216.72575 126.953125Q217.10075 126.390625 217.77263 126.109375Q217.21013 125.828125 216.882 125.328125Q216.55388 124.828125 216.55388 124.1875Q216.55388 123.109375 217.24138 122.484375Q217.92888 121.84375 219.0695 121.84375Q220.1945 121.84375 220.882 122.484375Q221.58513 123.109375 221.58513 124.1875ZM220.6945 128.17188Q220.6945 127.453125 220.24138 127.015625Q219.78825 126.5625 219.05388 126.5625Q218.3195 126.5625 217.86638 127.015625Q217.42888 127.453125 217.42888 128.1875Q217.42888 128.90625 217.86638 129.32812Q218.30388 129.73438 219.0695 129.73438Q219.8195 129.73438 220.257 129.3125Q220.6945 128.89062 220.6945 128.17188ZM219.0695 122.734375Q218.42888 122.734375 218.02263 123.140625Q217.632 123.53125 217.632 124.21875Q217.632 124.859375 218.02263 125.265625Q218.41325 125.671875 219.05388 125.671875Q219.71013 125.671875 220.10075 125.265625Q220.49138 124.859375 220.49138 124.21875Q220.49138 123.5625 220.08513 123.15625Q219.67888 122.734375 219.0695 122.734375ZM223.53825 129.9375Q223.53825 129.65625 223.6945 129.46875Q223.86638 129.28125 224.1945 129.28125Q224.53825 129.28125 224.71013 129.46875Q224.882 129.65625 224.882 129.9375Q224.882 130.20312 224.71013 130.39062Q224.53825 130.5625 224.1945 130.5625Q223.86638 130.5625 223.6945 130.39062Q223.53825 130.20312 223.53825 129.9375ZM227.97575 125.703125L228.78825 125.703125Q229.5695 125.6875 230.007 125.296875Q230.4445 124.90625 230.4445 124.234375Q230.4445 122.734375 228.9445 122.734375Q228.24138 122.734375 227.8195 123.140625Q227.41325 123.546875 227.41325 124.203125L226.3195 124.203125Q226.3195 123.1875 227.05388 122.515625Q227.80388 121.84375 228.9445 121.84375Q230.14763 121.84375 230.83513 122.484375Q231.52263 123.125 231.52263 124.265625Q231.52263 124.828125 231.16325 125.34375Q230.80388 125.859375 230.17888 126.125Q230.882 126.34375 231.257 126.859375Q231.64763 127.375 231.64763 128.125Q231.64763 129.26562 230.89763 129.95312Q230.14763 130.625 228.9445 130.625Q227.757 130.625 226.99138 129.96875Q226.24138 129.3125 226.24138 128.25L227.33513 128.25Q227.33513 128.92188 227.77263 129.32812Q228.21013 129.73438 228.96013 129.73438Q229.74138 129.73438 230.14763 129.32812Q230.5695 128.90625 230.5695 128.14062Q230.5695 127.40625 230.11638 127.015625Q229.66325 126.609375 228.78825 126.59375L227.97575 126.59375L227.97575 125.703125Z" fill-rule="nonzero"/><path fill="#ffffff" d="M212.96013 130.5L211.882 130.5L211.882 123.28125L209.6945 124.078125L209.6945 123.09375L212.80388 121.921875L212.96013 121.921875L212.96013 130.5ZM221.58513 124.1875Q221.58513 124.828125 221.24138 125.328125Q220.89763 125.828125 220.33513 126.109375Q220.99138 126.390625 221.382 126.953125Q221.77263 127.5 221.77263 128.20312Q221.77263 129.29688 221.02263 129.96875Q220.28825 130.625 219.0695 130.625Q217.83513 130.625 217.08513 129.96875Q216.35075 129.29688 216.35075 128.20312Q216.35075 127.5 216.72575 126.953125Q217.10075 126.390625 217.77263 126.109375Q217.21013 125.828125 216.882 125.328125Q216.55388 124.828125 216.55388 124.1875Q216.55388 123.109375 217.24138 122.484375Q217.92888 121.84375 219.0695 121.84375Q220.1945 121.84375 220.882 122.484375Q221.58513 123.109375 221.58513 124.1875ZM220.6945 128.17188Q220.6945 127.453125 220.24138 127.015625Q219.78825 126.5625 219.05388 126.5625Q218.3195 126.5625 217.86638 127.015625Q217.42888 127.453125 217.42888 128.1875Q217.42888 128.90625 217.86638 129.32812Q218.30388 129.73438 219.0695 129.73438Q219.8195 129.73438 220.257 129.3125Q220.6945 128.89062 220.6945 128.17188ZM219.0695 122.734375Q218.42888 122.734375 218.02263 123.140625Q217.632 123.53125 217.632 124.21875Q217.632 124.859375 218.02263 125.265625Q218.41325 125.671875 219.05388 125.671875Q219.71013 125.671875 220.10075 125.265625Q220.49138 124.859375 220.49138 124.21875Q220.49138 123.5625 220.08513 123.15625Q219.67888 122.734375 219.0695 122.734375ZM223.53825 129.9375Q223.53825 129.65625 223.6945 129.46875Q223.86638 129.28125 224.1945 129.28125Q224.53825 129.28125 224.71013 129.46875Q224.882 129.65625 224.882 129.9375Q224.882 130.20312 224.71013 130.39062Q224.53825 130.5625 224.1945 130.5625Q223.86638 130.5625 223.6945 130.39062Q223.53825 130.20312 223.53825 129.9375ZM227.97575 125.703125L228.78825 125.703125Q229.5695 125.6875 230.007 125.296875Q230.4445 124.90625 230.4445 124.234375Q230.4445 122.734375 228.9445 122.734375Q228.24138 122.734375 227.8195 123.140625Q227.41325 123.546875 227.41325 124.203125L226.3195 124.203125Q226.3195 123.1875 227.05388 122.515625Q227.80388 121.84375 228.9445 121.84375Q230.14763 121.84375 230.83513 122.484375Q231.52263 123.125 231.52263 124.265625Q231.52263 124.828125 231.16325 125.34375Q230.80388 125.859375 230.17888 126.125Q230.882 126.34375 231.257 126.859375Q231.64763 127.375 231.64763 128.125Q231.64763 129.26562 230.89763 129.95312Q230.14763 130.625 228.9445 130.625Q227.757 130.625 226.99138 129.96875Q226.24138 129.3125 226.24138 128.25L227.33513 128.25Q227.33513 128.92188 227.77263 129.32812Q228.21013 129.73438 228.96013 129.73438Q229.74138 129.73438 230.14763 129.32812Q230.5695 128.90625 230.5695 128.14062Q230.5695 127.40625 230.11638 127.015625Q229.66325 126.609375 228.78825 126.59375L227.97575 126.59375L227.97575 125.703125Z" fill-rule="nonzero"/><path stroke="#4285f4" stroke-width="3.0" stroke-linejoin="round" stroke-linecap="round" d="M516.7356 191.21875L517.1731 186.96875L521.5481 186.96875L521.5481 187.96875L518.095 187.96875L517.82935 190.29688Q518.47 189.92188 519.26685 189.92188Q520.4231 189.92188 521.1106 190.70312Q521.7981 191.46875 521.7981 192.78125Q521.7981 194.09375 521.07935 194.85938Q520.3762 195.625 519.095 195.625Q517.97 195.625 517.2512 195.0Q516.5325 194.35938 516.4387 193.25L517.45435 193.25Q517.5637 193.98438 517.9856 194.35938Q518.4075 194.73438 519.095 194.73438Q519.845 194.73438 520.2825 194.21875Q520.72 193.70312 520.72 192.79688Q520.72 191.9375 520.2512 191.42188Q519.7825 190.90625 519.0012 190.90625Q518.2981 190.90625 517.89185 191.20312L517.6106 191.4375L516.7356 191.21875ZM523.7356 191.21875L524.1731 186.96875L528.5481 186.96875L528.5481 187.96875L525.095 187.96875L524.82935 190.29688Q525.47 189.92188 526.26685 189.92188Q527.4231 189.92188 528.1106 190.70312Q528.7981 191.46875 528.7981 192.78125Q528.7981 194.09375 528.07935 194.85938Q527.3762 195.625 526.095 195.625Q524.97 195.625 524.2512 195.0Q523.5325 194.35938 523.4387 193.25L524.45435 193.25Q524.5637 193.98438 524.9856 194.35938Q525.4075 194.73438 526.095 194.73438Q526.845 194.73438 527.2825 194.21875Q527.72 193.70312 527.72 192.79688Q527.72 191.9375 527.2512 191.42188Q526.7825 190.90625 526.0012 190.90625Q525.2981 190.90625 524.89185 191.20312L524.6106 191.4375L523.7356 191.21875ZM530.3762 194.9375Q530.3762 194.65625 530.5325 194.46875Q530.70435 194.28125 531.0325 194.28125Q531.3762 194.28125 531.5481 194.46875Q531.72 194.65625 531.72 194.9375Q531.72 195.20312 531.5481 195.39062Q531.3762 195.5625 531.0325 195.5625Q530.70435 195.5625 530.5325 195.39062Q530.3762 195.20312 530.3762 194.9375ZM533.7356 191.21875L534.1731 186.96875L538.5481 186.96875L538.5481 187.96875L535.095 187.96875L534.82935 190.29688Q535.47 189.92188 536.26685 189.92188Q537.4231 189.92188 538.1106 190.70312Q538.7981 191.46875 538.7981 192.78125Q538.7981 194.09375 538.07935 194.85938Q537.3762 195.625 536.095 195.625Q534.97 195.625 534.2512 195.0Q533.5325 194.35938 533.4387 193.25L534.45435 193.25Q534.5637 193.98438 534.9856 194.35938Q535.4075 194.73438 536.095 194.73438Q536.845 194.73438 537.2825 194.21875Q537.72 193.70312 537.72 192.79688Q537.72 191.9375 537.2512 191.42188Q536.7825 190.90625 536.0012 190.90625Q535.2981 190.90625 534.89185 191.20312L534.6106 191.4375L533.7356 191.21875Z" fill-rule="nonzero"/><path fill="#ffffff" d="M516.7356 191.21875L517.1731 186.96875L521.5481 186.96875L521.5481 187.96875L518.095 187.96875L517.82935 190.29688Q518.47 189.92188 519.26685 189.92188Q520.4231 189.92188 521.1106 190.70312Q521.7981 191.46875 521.7981 192.78125Q521.7981 194.09375 521.07935 194.85938Q520.3762 195.625 519.095 195.625Q517.97 195.625 517.2512 195.0Q516.5325 194.35938 516.4387 193.25L517.45435 193.25Q517.5637 193.98438 517.9856 194.35938Q518.4075 194.73438 519.095 194.73438Q519.845 194.73438 520.2825 194.21875Q520.72 193.70312 520.72 192.79688Q520.72 191.9375 520.2512 191.42188Q519.7825 190.90625 519.0012 190.90625Q518.2981 190.90625 517.89185 191.20312L517.6106 191.4375L516.7356 191.21875ZM523.7356 191.21875L524.1731 186.96875L528.5481 186.96875L528.5481 187.96875L525.095 187.96875L524.82935 190.29688Q525.47 189.92188 526.26685 189.92188Q527.4231 189.92188 528.1106 190.70312Q528.7981 191.46875 528.7981 192.78125Q528.7981 194.09375 528.07935 194.85938Q527.3762 195.625 526.095 195.625Q524.97 195.625 524.2512 195.0Q523.5325 194.35938 523.4387 193.25L524.45435 193.25Q524.5637 193.98438 524.9856 194.35938Q525.4075 194.73438 526.095 194.73438Q526.845 194.73438 527.2825 194.21875Q527.72 193.70312 527.72 192.79688Q527.72 191.9375 527.2512 191.42188Q526.7825 190.90625 526.0012 190.90625Q525.2981 190.90625 524.89185 191.20312L524.6106 191.4375L523.7356 191.21875ZM530.3762 194.9375Q530.3762 194.65625 530.5325 194.46875Q530.70435 194.28125 531.0325 194.28125Q531.3762 194.28125 531.5481 194.46875Q531.72 194.65625 531.72 194.9375Q531.72 195.20312 531.5481 195.39062Q531.3762 195.5625 531.0325 195.5625Q530.70435 195.5625 530.5325 195.39062Q530.3762 195.20312 530.3762 194.9375ZM533.7356 191.21875L534.1731 186.96875L538.5481 186.96875L538.5481 187.96875L535.095 187.96875L534.82935 190.29688Q535.47 189.92188 536.26685 189.92188Q537.4231 189.92188 538.1106 190.70312Q538.7981 191.46875 538.7981 192.78125Q538.7981 194.09375 538.07935 194.85938Q537.3762 195.625 536.095 195.625Q534.97 195.625 534.2512 195.0Q533.5325 194.35938 533.4387 193.25L534.45435 193.25Q534.5637 193.98438 534.9856 194.35938Q535.4075 194.73438 536.095 194.73438Q536.845 194.73438 537.2825 194.21875Q537.72 193.70312 537.72 192.79688Q537.72 191.9375 537.2512 191.42188Q536.7825 190.90625 536.0012 190.90625Q535.2981 190.90625 534.89185 191.20312L534.6106 191.4375L533.7356 191.21875Z" fill-rule="nonzero"/><path stroke="#4285f4" stroke-width="3.0" stroke-linejoin="round" stroke-linecap="round" d="M163.47012 259.5L162.392 259.5L162.392 252.28125L160.2045 253.07812L160.2045 252.09375L163.31387 250.92188L163.47012 250.92188L163.47012 259.5ZM172.50137 259.5L166.90762 259.5L166.90762 258.71875L169.86075 255.4375Q170.517 254.6875 170.767 254.23438Q171.017 253.76562 171.017 253.26562Q171.017 252.59375 170.61075 252.17188Q170.22012 251.73438 169.53262 251.73438Q168.73575 251.73438 168.28262 252.20312Q167.8295 252.65625 167.8295 253.48438L166.75137 253.48438Q166.75137 252.29688 167.50137 251.57812Q168.267 250.84375 169.53262 250.84375Q170.73575 250.84375 171.42325 251.46875Q172.11075 252.09375 172.11075 253.14062Q172.11075 254.39062 170.50137 256.14062L168.22012 258.60938L172.50137 258.60938L172.50137 259.5ZM174.04825 258.9375Q174.04825 258.65625 174.2045 258.46875Q174.37637 258.28125 174.7045 258.28125Q175.04825 258.28125 175.22012 258.46875Q175.392 258.65625 175.392 258.9375Q175.392 259.20312 175.22012 259.39062Q175.04825 259.5625 174.7045 259.5625Q174.37637 259.5625 174.2045 259.39062Q174.04825 259.20312 174.04825 258.9375ZM178.48575 254.70312L179.29825 254.70312Q180.0795 254.6875 180.517 254.29688Q180.9545 253.90625 180.9545 253.23438Q180.9545 251.73438 179.4545 251.73438Q178.75137 251.73438 178.3295 252.14062Q177.92325 252.54688 177.92325 253.20312L176.8295 253.20312Q176.8295 252.1875 177.56387 251.51562Q178.31387 250.84375 179.4545 250.84375Q180.65762 250.84375 181.34512 251.48438Q182.03262 252.125 182.03262 253.26562Q182.03262 253.82812 181.67325 254.34375Q181.31387 254.85938 180.68887 255.125Q181.392 255.34375 181.767 255.85938Q182.15762 256.375 182.15762 257.125Q182.15762 258.26562 181.40762 258.95312Q180.65762 259.625 179.4545 259.625Q178.267 259.625 177.50137 258.96875Q176.75137 258.3125 176.75137 257.25L177.84512 257.25Q177.84512 257.92188 178.28262 258.32812Q178.72012 258.73438 179.47012 258.73438Q180.25137 258.73438 180.65762 258.32812Q181.0795 257.90625 181.0795 257.14062Q181.0795 256.40625 180.62637 256.01562Q180.17325 255.60938 179.29825 255.59375L178.48575 255.59375L178.48575 254.70312Z" fill-rule="nonzero"/><path fill="#ffffff" d="M163.47012 259.5L162.392 259.5L162.392 252.28125L160.2045 253.07812L160.2045 252.09375L163.31387 250.92188L163.47012 250.92188L163.47012 259.5ZM172.50137 259.5L166.90762 259.5L166.90762 258.71875L169.86075 255.4375Q170.517 254.6875 170.767 254.23438Q171.017 253.76562 171.017 253.26562Q171.017 252.59375 170.61075 252.17188Q170.22012 251.73438 169.53262 251.73438Q168.73575 251.73438 168.28262 252.20312Q167.8295 252.65625 167.8295 253.48438L166.75137 253.48438Q166.75137 252.29688 167.50137 251.57812Q168.267 250.84375 169.53262 250.84375Q170.73575 250.84375 171.42325 251.46875Q172.11075 252.09375 172.11075 253.14062Q172.11075 254.39062 170.50137 256.14062L168.22012 258.60938L172.50137 258.60938L172.50137 259.5ZM174.04825 258.9375Q174.04825 258.65625 174.2045 258.46875Q174.37637 258.28125 174.7045 258.28125Q175.04825 258.28125 175.22012 258.46875Q175.392 258.65625 175.392 258.9375Q175.392 259.20312 175.22012 259.39062Q175.04825 259.5625 174.7045 259.5625Q174.37637 259.5625 174.2045 259.39062Q174.04825 259.20312 174.04825 258.9375ZM178.48575 254.70312L179.29825 254.70312Q180.0795 254.6875 180.517 254.29688Q180.9545 253.90625 180.9545 253.23438Q180.9545 251.73438 179.4545 251.73438Q178.75137 251.73438 178.3295 252.14062Q177.92325 252.54688 177.92325 253.20312L176.8295 253.20312Q176.8295 252.1875 177.56387 251.51562Q178.31387 250.84375 179.4545 250.84375Q180.65762 250.84375 181.34512 251.48438Q182.03262 252.125 182.03262 253.26562Q182.03262 253.82812 181.67325 254.34375Q181.31387 254.85938 180.68887 255.125Q181.392 255.34375 181.767 255.85938Q182.15762 256.375 182.15762 257.125Q182.15762 258.26562 181.40762 258.95312Q180.65762 259.625 179.4545 259.625Q178.267 259.625 177.50137 258.96875Q176.75137 258.3125 176.75137 257.25L177.84512 257.25Q177.84512 257.92188 178.28262 258.32812Q178.72012 258.73438 179.47012 258.73438Q180.25137 258.73438 180.65762 258.32812Q181.0795 257.90625 181.0795 257.14062Q181.0795 256.40625 180.62637 256.01562Q180.17325 255.60938 179.29825 255.59375L178.48575 255.59375L178.48575 254.70312Z" fill-rule="nonzero"/><path fill="#424242" d="M307.10938 342.5594Q307.10938 341.79376 307.59375 341.29376Q308.09375 340.79376 308.85938 340.79376Q309.64062 340.79376 310.125 341.29376Q310.60938 341.79376 310.60938 342.59064L310.60938 343.0125Q310.60938 343.77814 310.10938 344.27814Q309.625 344.7625 308.875 344.7625Q308.10938 344.7625 307.60938 344.27814Q307.10938 343.77814 307.10938 342.96564L307.10938 342.5594ZM307.92188 343.0125Q307.92188 343.46564 308.17188 343.7625Q308.4375 344.0594 308.875 344.0594Q309.29688 344.0594 309.54688 343.77814Q309.79688 343.48126 309.79688 342.98126L309.79688 342.5594Q309.79688 342.10626 309.54688 341.8094Q309.29688 341.4969 308.85938 341.4969Q308.42188 341.4969 308.17188 341.8094Q307.92188 342.10626 307.92188 342.575L307.92188 343.0125ZM311.26562 347.35626Q311.26562 346.59064 311.75 346.10626Q312.25 345.60626 313.01562 345.60626Q313.78125 345.60626 314.26562 346.10626Q314.76562 346.59064 314.76562 347.40314L314.76562 347.8094Q314.76562 348.575 314.28125 349.075Q313.79688 349.575 313.03125 349.575Q312.26562 349.575 311.76562 349.09064Q311.26562 348.59064 311.26562 347.77814L311.26562 347.35626ZM312.07812 347.8094Q312.07812 348.27814 312.32812 348.575Q312.59375 348.8719 313.03125 348.8719Q313.45312 348.8719 313.70312 348.59064Q313.95312 348.29376 313.95312 347.79376L313.95312 347.35626Q313.95312 346.8875 313.6875 346.60626Q313.4375 346.3094 313.01562 346.3094Q312.59375 346.3094 312.32812 346.60626Q312.07812 346.8875 312.07812 347.3875L312.07812 347.8094ZM309.125 348.8094L308.5 348.41876L312.67188 341.7469L313.28125 342.1375L309.125 348.8094ZM324.67188 346.35626Q324.67188 347.79376 324.01562 348.6844Q323.35938 349.575 322.21875 349.575Q321.0625 349.575 320.40625 348.84064L320.40625 351.8875L319.32812 351.8875L319.32812 343.10626L320.3125 343.10626L320.35938 343.8094Q321.03125 342.9969 322.20312 342.9969Q323.34375 342.9969 324.0 343.85626Q324.67188 344.71564 324.67188 346.2469L324.67188 346.35626ZM323.59375 346.23126Q323.59375 345.15314 323.125 344.54376Q322.67188 343.91876 321.875 343.91876Q320.89062 343.91876 320.40625 344.77814L320.40625 347.8094Q320.89062 348.6844 321.89062 348.6844Q322.67188 348.6844 323.125 348.075Q323.59375 347.45 323.59375 346.23126ZM329.39062 344.075Q329.14062 344.04376 328.85938 344.04376Q327.78125 344.04376 327.40625 344.95L327.40625 349.45L326.32812 349.45L326.32812 343.10626L327.375 343.10626L327.39062 343.84064Q327.92188 342.9969 328.90625 342.9969Q329.21875 342.9969 329.39062 343.075L329.39062 344.075ZM330.03125 346.21564Q330.03125 345.29376 330.39062 344.54376Q330.76562 343.79376 331.42188 343.40314Q332.07812 342.9969 332.90625 342.9969Q334.20312 342.9969 335.0 343.8875Q335.8125 344.77814 335.8125 346.27814L335.8125 346.35626Q335.8125 347.27814 335.45312 348.0125Q335.09375 348.7469 334.4375 349.16876Q333.78125 349.575 332.92188 349.575Q331.64062 349.575 330.82812 348.6844Q330.03125 347.77814 330.03125 346.29376L330.03125 346.21564ZM331.125 346.35626Q331.125 347.40314 331.60938 348.04376Q332.10938 348.6844 332.92188 348.6844Q333.75 348.6844 334.23438 348.04376Q334.71875 347.3875 334.71875 346.21564Q334.71875 345.1844 334.21875 344.54376Q333.73438 343.8875 332.90625 343.8875Q332.10938 343.8875 331.60938 344.52814Q331.125 345.15314 331.125 346.35626ZM338.4375 343.10626L338.4375 350.1844Q338.4375 352.0125 336.78125 352.0125Q336.42188 352.0125 336.125 351.90314L336.125 351.04376Q336.3125 351.09064 336.60938 351.09064Q336.96875 351.09064 337.15625 350.8875Q337.35938 350.7 337.35938 350.2L337.35938 343.10626L338.4375 343.10626ZM337.25 341.4344Q337.25 341.16876 337.40625 340.98126Q337.5625 340.79376 337.875 340.79376Q338.1875 340.79376 338.34375 340.98126Q338.51562 341.16876 338.51562 341.4344Q338.51562 341.6844 338.34375 341.8719Q338.1875 342.04376 337.875 342.04376Q337.5625 342.04376 337.40625 341.8719Q337.25 341.6844 337.25 341.4344ZM342.95312 349.575Q341.65625 349.575 340.84375 348.73126Q340.04688 347.8719 340.04688 346.45L340.04688 346.2625Q340.04688 345.3094 340.40625 344.575Q340.76562 343.825 341.40625 343.41876Q342.0625 342.9969 342.8125 342.9969Q344.04688 342.9969 344.73438 343.8094Q345.42188 344.6219 345.42188 346.1375L345.42188 346.59064L341.125 346.59064Q341.15625 347.52814 341.67188 348.10626Q342.20312 348.6844 343.01562 348.6844Q343.57812 348.6844 343.96875 348.45Q344.375 348.21564 344.6875 347.825L345.34375 348.34064Q344.54688 349.575 342.95312 349.575ZM342.8125 343.8875Q342.15625 343.8875 341.70312 344.3719Q341.26562 344.84064 341.17188 345.7L344.34375 345.7L344.34375 345.6219Q344.29688 344.79376 343.89062 344.34064Q343.5 343.8875 342.8125 343.8875ZM348.85938 348.6844Q349.4375 348.6844 349.875 348.34064Q350.3125 347.98126 350.35938 347.45L351.39062 347.45Q351.35938 347.9969 351.0 348.4969Q350.65625 348.98126 350.07812 349.27814Q349.51562 349.575 348.85938 349.575Q347.5625 349.575 346.79688 348.71564Q346.04688 347.84064 346.04688 346.34064L346.04688 346.15314Q346.04688 345.23126 346.375 344.5125Q346.71875 343.79376 347.34375 343.40314Q347.98438 342.9969 348.85938 342.9969Q349.92188 342.9969 350.625 343.6375Q351.34375 344.2625 351.39062 345.29376L350.35938 345.29376Q350.3125 344.66876 349.89062 344.27814Q349.46875 343.8875 348.85938 343.8875Q348.03125 343.8875 347.57812 344.48126Q347.125 345.075 347.125 346.2L347.125 346.40314Q347.125 347.4969 347.57812 348.09064Q348.03125 348.6844 348.85938 348.6844ZM353.79688 341.575L353.79688 343.10626L354.96875 343.10626L354.96875 343.95L353.79688 343.95L353.79688 347.8719Q353.79688 348.2625 353.95312 348.45Q354.10938 348.6375 354.48438 348.6375Q354.67188 348.6375 355.0 348.575L355.0 349.45Q354.57812 349.575 354.17188 349.575Q353.45312 349.575 353.07812 349.1375Q352.70312 348.6844 352.70312 347.8719L352.70312 343.95L351.54688 343.95L351.54688 343.10626L352.70312 343.10626L352.70312 341.575L353.79688 341.575ZM360.01562 347.7625Q360.01562 347.325 359.67188 347.09064Q359.34375 346.84064 358.51562 346.66876Q357.70312 346.4969 357.21875 346.2469Q356.73438 345.9969 356.5 345.66876Q356.28125 345.325 356.28125 344.85626Q356.28125 344.075 356.9375 343.54376Q357.59375 342.9969 358.625 342.9969Q359.70312 342.9969 360.35938 343.5594Q361.03125 344.10626 361.03125 344.96564L359.95312 344.96564Q359.95312 344.52814 359.5625 344.21564Q359.1875 343.8875 358.625 343.8875Q358.03125 343.8875 357.6875 344.15314Q357.35938 344.40314 357.35938 344.8094Q357.35938 345.2 357.67188 345.40314Q357.98438 345.60626 358.79688 345.79376Q359.60938 345.96564 360.10938 346.21564Q360.60938 346.46564 360.84375 346.825Q361.09375 347.1844 361.09375 347.6844Q361.09375 348.54376 360.40625 349.0594Q359.73438 349.575 358.65625 349.575Q357.89062 349.575 357.29688 349.3094Q356.71875 349.02814 356.39062 348.54376Q356.0625 348.0594 356.0625 347.4969L357.14062 347.4969Q357.17188 348.04376 357.57812 348.3719Q357.98438 348.6844 358.65625 348.6844Q359.26562 348.6844 359.64062 348.4344Q360.01562 348.1844 360.01562 347.7625Z" fill-rule="nonzero"/><path fill="#757575" d="M29.55 57.951508L29.55 63.748383Q29.534374 64.95151 28.784374 65.73276Q28.034374 66.49838 26.753124 66.59213L26.440624 66.60776Q25.05 66.60776 24.20625 65.85776Q23.378124 65.09213 23.378124 63.764008L23.378124 57.951508L24.4875 57.951508L24.4875 63.732758Q24.4875 64.65463 24.9875 65.17026Q25.503124 65.68588 26.440624 65.68588Q27.409374 65.68588 27.909374 65.17026Q28.409374 64.65463 28.409374 63.732758L28.409374 57.951508L29.55 57.951508ZM32.39375 60.139008L32.425 60.935883Q33.159374 60.029633 34.33125 60.029633Q36.346874 60.029633 36.3625 62.295258L36.3625 66.48276L35.26875 66.48276L35.26875 62.279633Q35.26875 61.607758 34.95625 61.279633Q34.659374 60.951508 34.003124 60.951508Q33.471874 60.951508 33.065624 61.232758Q32.675 61.514008 32.45625 61.967133L32.45625 66.48276L31.378124 66.48276L31.378124 60.139008L32.39375 60.139008ZM38.1125 63.264008Q38.1125 61.795258 38.8 60.920258Q39.4875 60.029633 40.6125 60.029633Q41.721874 60.029633 42.378124 60.779633L42.378124 57.482758L43.45625 57.482758L43.45625 66.48276L42.45625 66.48276L42.409374 65.79526Q41.753124 66.60776 40.596874 66.60776Q39.503124 66.60776 38.8 65.70151Q38.1125 64.79526 38.1125 63.342133L38.1125 63.264008ZM39.190624 63.389008Q39.190624 64.46713 39.628124 65.07651Q40.08125 65.68588 40.8625 65.68588Q41.89375 65.68588 42.378124 64.74838L42.378124 61.842133Q41.89375 60.951508 40.878124 60.951508Q40.08125 60.951508 39.628124 61.560883Q39.190624 62.170258 39.190624 63.389008ZM48.003124 66.60776Q46.70625 66.60776 45.89375 65.76401Q45.096874 64.90463 45.096874 63.482758L45.096874 63.295258Q45.096874 62.342133 45.45625 61.607758Q45.815624 60.857758 46.45625 60.451508Q47.1125 60.029633 47.8625 60.029633Q49.096874 60.029633 49.784374 60.842133Q50.471874 61.654633 50.471874 63.170258L50.471874 63.623383L46.175 63.623383Q46.20625 64.56088 46.721874 65.13901Q47.253124 65.71713 48.065624 65.71713Q48.628124 65.71713 49.01875 65.48276Q49.425 65.24838 49.7375 64.85776L50.39375 65.37338Q49.596874 66.60776 48.003124 66.60776ZM47.8625 60.920258Q47.20625 60.920258 46.753124 61.404633Q46.315624 61.873383 46.221874 62.732758L49.39375 62.732758L49.39375 62.654633Q49.346874 61.826508 48.940624 61.373383Q48.55 60.920258 47.8625 60.920258ZM54.440624 61.107758Q54.190624 61.076508 53.909374 61.076508Q52.83125 61.076508 52.45625 61.982758L52.45625 66.48276L51.378124 66.48276L51.378124 60.139008L52.425 60.139008L52.440624 60.873383Q52.971874 60.029633 53.95625 60.029633Q54.26875 60.029633 54.440624 60.107758L54.440624 61.107758ZM63.846874 66.48276L58.253124 66.48276L58.253124 65.70151L61.20625 62.420258Q61.8625 61.670258 62.1125 61.217133Q62.3625 60.748383 62.3625 60.248383Q62.3625 59.576508 61.95625 59.154633Q61.565624 58.717133 60.878124 58.717133Q60.08125 58.717133 59.628124 59.185883Q59.175 59.639008 59.175 60.467133L58.096874 60.467133Q58.096874 59.279633 58.846874 58.560883Q59.6125 57.826508 60.878124 57.826508Q62.08125 57.826508 62.76875 58.451508Q63.45625 59.076508 63.45625 60.123383Q63.45625 61.373383 61.846874 63.123383L59.565624 65.59213L63.846874 65.59213L63.846874 66.48276ZM70.6125 62.842133Q70.6125 64.74838 69.95625 65.68588Q69.31563 66.60776 67.925 66.60776Q66.56563 66.60776 65.90938 65.70151Q65.25313 64.79526 65.22188 62.982758L65.22188 61.545258Q65.22188 59.654633 65.8625 58.748383Q66.51875 57.826508 67.90938 57.826508Q69.28438 57.826508 69.94063 58.717133Q70.59688 59.592133 70.6125 61.435883L70.6125 62.842133ZM69.51875 61.357758Q69.51875 59.982758 69.12813 59.357758Q68.75313 58.717133 67.90938 58.717133Q67.08125 58.717133 66.69063 59.357758Q66.31563 59.982758 66.31563 61.279633L66.31563 63.014008Q66.31563 64.38901 66.70625 65.06088Q67.1125 65.71713 67.925 65.71713Q68.72188 65.71713 69.1125 65.09213Q69.50313 64.46713 69.51875 63.139008L69.51875 61.357758ZM72.15938 59.592133Q72.15938 58.826508 72.64375 58.326508Q73.14375 57.826508 73.90938 57.826508Q74.69063 57.826508 75.175 58.326508Q75.65938 58.826508 75.65938 59.623383L75.65938 60.045258Q75.65938 60.810883 75.15938 61.310883Q74.675 61.795258 73.925 61.795258Q73.15938 61.795258 72.65938 61.310883Q72.15938 60.810883 72.15938 59.998383L72.15938 59.592133ZM72.97188 60.045258Q72.97188 60.498383 73.22188 60.795258Q73.4875 61.092133 73.925 61.092133Q74.34688 61.092133 74.59688 60.810883Q74.84688 60.514008 74.84688 60.014008L74.84688 59.592133Q74.84688 59.139008 74.59688 58.842133Q74.34688 58.529633 73.90938 58.529633Q73.47188 58.529633 73.22188 58.842133Q72.97188 59.139008 72.97188 59.607758L72.97188 60.045258ZM76.31563 64.38901Q76.31563 63.623383 76.8 63.139008Q77.3 62.639008 78.06563 62.639008Q78.83125 62.639008 79.31563 63.139008Q79.81563 63.623383 79.81563 64.43588L79.81563 64.84213Q79.81563 65.60776 79.33125 66.10776Q78.84688 66.60776 78.08125 66.60776Q77.31563 66.60776 76.81563 66.12338Q76.31563 65.62338 76.31563 64.81088L76.31563 64.38901ZM77.12813 64.84213Q77.12813 65.31088 77.37813 65.60776Q77.64375 65.90463 78.08125 65.90463Q78.50313 65.90463 78.75313 65.62338Q79.00313 65.32651 79.00313 64.82651L79.00313 64.38901Q79.00313 63.920258 78.7375 63.639008Q78.4875 63.342133 78.06563 63.342133Q77.64375 63.342133 77.37813 63.639008Q77.12813 63.920258 77.12813 64.42026L77.12813 64.84213ZM74.175 65.84213L73.55 65.45151L77.72188 58.779633L78.33125 59.170258L74.175 65.84213Z" fill-rule="nonzero"/><path fill="#757575" d="M31.846874 130.82759L26.253124 130.82759L26.253124 130.04634L29.20625 126.76509Q29.8625 126.01509 30.1125 125.561966Q30.3625 125.093216 30.3625 124.593216Q30.3625 123.92134 29.95625 123.499466Q29.565624 123.061966 28.878124 123.061966Q28.08125 123.061966 27.628124 123.530716Q27.175 123.98384 27.175 124.811966L26.096874 124.811966Q26.096874 123.624466 26.846874 122.905716Q27.6125 122.17134 28.878124 122.17134Q30.08125 122.17134 30.76875 122.79634Q31.45625 123.42134 31.45625 124.468216Q31.45625 125.718216 29.846874 127.468216L27.565624 129.93697L31.846874 129.93697L31.846874 130.82759ZM36.815624 130.82759L35.7375 130.82759L35.7375 123.60884L33.55 124.405716L33.55 123.42134L36.659374 122.249466L36.815624 122.249466L36.815624 130.82759ZM40.159374 123.936966Q40.159374 123.17134 40.64375 122.67134Q41.14375 122.17134 41.909374 122.17134Q42.690624 122.17134 43.175 122.67134Q43.659374 123.17134 43.659374 123.968216L43.659374 124.39009Q43.659374 125.155716 43.159374 125.655716Q42.675 126.14009 41.925 126.14009Q41.159374 126.14009 40.659374 125.655716Q40.159374 125.155716 40.159374 124.343216L40.159374 123.936966ZM40.971874 124.39009Q40.971874 124.843216 41.221874 125.14009Q41.4875 125.436966 41.925 125.436966Q42.346874 125.436966 42.596874 125.155716Q42.846874 124.85884 42.846874 124.35884L42.846874 123.936966Q42.846874 123.48384 42.596874 123.186966Q42.346874 122.874466 41.909374 122.874466Q41.471874 122.874466 41.221874 123.186966Q40.971874 123.48384 40.971874 123.95259L40.971874 124.39009ZM44.315624 128.73384Q44.315624 127.968216 44.8 127.48384Q45.3 126.98384 46.065624 126.98384Q46.83125 126.98384 47.315624 127.48384Q47.815624 127.968216 47.815624 128.78072L47.815624 129.18697Q47.815624 129.95259 47.33125 130.45259Q46.846874 130.95259 46.08125 130.95259Q45.315624 130.95259 44.815624 130.46822Q44.315624 129.96822 44.315624 129.15572L44.315624 128.73384ZM45.128124 129.18697Q45.128124 129.65572 45.378124 129.95259Q45.64375 130.24947 46.08125 130.24947Q46.503124 130.24947 46.753124 129.96822Q47.003124 129.67134 47.003124 129.17134L47.003124 128.73384Q47.003124 128.26509 46.7375 127.98384Q46.4875 127.686966 46.065624 127.686966Q45.64375 127.686966 45.378124 127.98384Q45.128124 128.26509 45.128124 128.76509L45.128124 129.18697ZM42.175 130.18697L41.55 129.79634L45.721874 123.124466L46.33125 123.51509L42.175 130.18697ZM54.628124 127.64009L51.76875 127.64009L51.76875 126.76509L54.628124 126.76509L54.628124 127.64009ZM58.753124 126.54634L59.190624 122.29634L63.565624 122.29634L63.565624 123.29634L60.1125 123.29634L59.846874 125.624466Q60.4875 125.249466 61.284374 125.249466Q62.440624 125.249466 63.128124 126.030716Q63.815624 126.79634 63.815624 128.10884Q63.815624 129.42134 63.096874 130.18697Q62.39375 130.95259 61.1125 130.95259Q59.9875 130.95259 59.26875 130.32759Q58.55 129.68697 58.45625 128.57759L59.471874 128.57759Q59.58125 129.31197 60.003124 129.68697Q60.425 130.06197 61.1125 130.06197Q61.8625 130.06197 62.3 129.54634Q62.7375 129.03072 62.7375 128.12447Q62.7375 127.26509 62.26875 126.749466Q61.8 126.23384 61.01875 126.23384Q60.315624 126.23384 59.909374 126.530716L59.628124 126.76509L58.753124 126.54634ZM70.6125 127.186966Q70.6125 129.09322 69.95625 130.03072Q69.31563 130.95259 67.925 130.95259Q66.56563 130.95259 65.90938 130.04634Q65.25313 129.14009 65.22188 127.32759L65.22188 125.89009Q65.22188 123.999466 65.8625 123.093216Q66.51875 122.17134 67.90938 122.17134Q69.28438 122.17134 69.94063 123.061966Q70.59688 123.936966 70.6125 125.780716L70.6125 127.186966ZM69.51875 125.70259Q69.51875 124.32759 69.12813 123.70259Q68.75313 123.061966 67.90938 123.061966Q67.08125 123.061966 66.69063 123.70259Q66.31563 124.32759 66.31563 125.624466L66.31563 127.35884Q66.31563 128.73384 66.70625 129.40572Q67.1125 130.06197 67.925 130.06197Q68.72188 130.06197 69.1125 129.43697Q69.50313 128.81197 69.51875 127.48384L69.51875 125.70259ZM72.15938 123.936966Q72.15938 123.17134 72.64375 122.67134Q73.14375 122.17134 73.90938 122.17134Q74.69063 122.17134 75.175 122.67134Q75.65938 123.17134 75.65938 123.968216L75.65938 124.39009Q75.65938 125.155716 75.15938 125.655716Q74.675 126.14009 73.925 126.14009Q73.15938 126.14009 72.65938 125.655716Q72.15938 125.155716 72.15938 124.343216L72.15938 123.936966ZM72.97188 124.39009Q72.97188 124.843216 73.22188 125.14009Q73.4875 125.436966 73.925 125.436966Q74.34688 125.436966 74.59688 125.155716Q74.84688 124.85884 74.84688 124.35884L74.84688 123.936966Q74.84688 123.48384 74.59688 123.186966Q74.34688 122.874466 73.90938 122.874466Q73.47188 122.874466 73.22188 123.186966Q72.97188 123.48384 72.97188 123.95259L72.97188 124.39009ZM76.31563 128.73384Q76.31563 127.968216 76.8 127.48384Q77.3 126.98384 78.06563 126.98384Q78.83125 126.98384 79.31563 127.48384Q79.81563 127.968216 79.81563 128.78072L79.81563 129.18697Q79.81563 129.95259 79.33125 130.45259Q78.84688 130.95259 78.08125 130.95259Q77.31563 130.95259 76.81563 130.46822Q76.31563 129.96822 76.31563 129.15572L76.31563 128.73384ZM77.12813 129.18697Q77.12813 129.65572 77.37813 129.95259Q77.64375 130.24947 78.08125 130.24947Q78.50313 130.24947 78.75313 129.96822Q79.00313 129.67134 79.00313 129.17134L79.00313 128.73384Q79.00313 128.26509 78.7375 127.98384Q78.4875 127.686966 78.06563 127.686966Q77.64375 127.686966 77.37813 127.98384Q77.12813 128.26509 77.12813 128.76509L77.12813 129.18697ZM74.175 130.18697L73.55 129.79634L77.72188 123.124466L78.33125 123.51509L74.175 130.18697Z" fill-rule="nonzero"/><path fill="#757575" d="M19.753124 190.89116L20.190624 186.64116L24.565624 186.64116L24.565624 187.64116L21.1125 187.64116L20.846874 189.96928Q21.4875 189.59428 22.284374 189.59428Q23.440624 189.59428 24.128124 190.37553Q24.815624 191.14116 24.815624 192.45366Q24.815624 193.76616 24.096874 194.53178Q23.39375 195.29741 22.1125 195.29741Q20.9875 195.29741 20.26875 194.67241Q19.55 194.03178 19.45625 192.92241L20.471874 192.92241Q20.58125 193.65678 21.003124 194.03178Q21.425 194.40678 22.1125 194.40678Q22.8625 194.40678 23.3 193.89116Q23.7375 193.37553 23.7375 192.46928Q23.7375 191.60991 23.26875 191.09428Q22.8 190.57866 22.01875 190.57866Q21.315624 190.57866 20.909374 190.87553L20.628124 191.10991L19.753124 190.89116ZM29.815624 195.17241L28.7375 195.17241L28.7375 187.95366L26.55 188.75053L26.55 187.76616L29.659374 186.59428L29.815624 186.59428L29.815624 195.17241ZM33.159374 188.28178Q33.159374 187.51616 33.64375 187.01616Q34.14375 186.51616 34.909374 186.51616Q35.690624 186.51616 36.175 187.01616Q36.659374 187.51616 36.659374 188.31303L36.659374 188.73491Q36.659374 189.50053 36.159374 190.00053Q35.675 190.48491 34.925 190.48491Q34.159374 190.48491 33.659374 190.00053Q33.159374 189.50053 33.159374 188.68803L33.159374 188.28178ZM33.971874 188.73491Q33.971874 189.18803 34.221874 189.48491Q34.4875 189.78178 34.925 189.78178Q35.346874 189.78178 35.596874 189.50053Q35.846874 189.20366 35.846874 188.70366L35.846874 188.28178Q35.846874 187.82866 35.596874 187.53178Q35.346874 187.21928 34.909374 187.21928Q34.471874 187.21928 34.221874 187.53178Q33.971874 187.82866 33.971874 188.29741L33.971874 188.73491ZM37.315624 193.07866Q37.315624 192.31303 37.8 191.82866Q38.3 191.32866 39.065624 191.32866Q39.83125 191.32866 40.315624 191.82866Q40.815624 192.31303 40.815624 193.12553L40.815624 193.53178Q40.815624 194.29741 40.33125 194.79741Q39.846874 195.29741 39.08125 195.29741Q38.315624 195.29741 37.815624 194.81303Q37.315624 194.31303 37.315624 193.50053L37.315624 193.07866ZM38.128124 193.53178Q38.128124 194.00053 38.378124 194.29741Q38.64375 194.59428 39.08125 194.59428Q39.503124 194.59428 39.753124 194.31303Q40.003124 194.01616 40.003124 193.51616L40.003124 193.07866Q40.003124 192.60991 39.7375 192.32866Q39.4875 192.03178 39.065624 192.03178Q38.64375 192.03178 38.378124 192.32866Q38.128124 192.60991 38.128124 193.10991L38.128124 193.53178ZM35.175 194.53178L34.55 194.14116L38.721874 187.46928L39.33125 187.85991L35.175 194.53178ZM47.628124 191.98491L44.76875 191.98491L44.76875 191.10991L47.628124 191.10991L47.628124 191.98491ZM56.846874 195.17241L51.253124 195.17241L51.253124 194.39116L54.20625 191.10991Q54.8625 190.35991 55.1125 189.90678Q55.3625 189.43803 55.3625 188.93803Q55.3625 188.26616 54.95625 187.84428Q54.565624 187.40678 53.878124 187.40678Q53.08125 187.40678 52.628124 187.87553Q52.175 188.32866 52.175 189.15678L51.096874 189.15678Q51.096874 187.96928 51.846874 187.25053Q52.6125 186.51616 53.878124 186.51616Q55.08125 186.51616 55.76875 187.14116Q56.45625 187.76616 56.45625 188.81303Q56.45625 190.06303 54.846874 191.81303L52.565624 194.28178L56.846874 194.28178L56.846874 195.17241ZM63.6125 191.53178Q63.6125 193.43803 62.95625 194.37553Q62.315624 195.29741 60.925 195.29741Q59.565624 195.29741 58.909374 194.39116Q58.253124 193.48491 58.221874 191.67241L58.221874 190.23491Q58.221874 188.34428 58.8625 187.43803Q59.51875 186.51616 60.909374 186.51616Q62.284374 186.51616 62.940624 187.40678Q63.596874 188.28178 63.6125 190.12553L63.6125 191.53178ZM62.51875 190.04741Q62.51875 188.67241 62.128124 188.04741Q61.753124 187.40678 60.909374 187.40678Q60.08125 187.40678 59.690624 188.04741Q59.315624 188.67241 59.315624 189.96928L59.315624 191.70366Q59.315624 193.07866 59.70625 193.75053Q60.1125 194.40678 60.925 194.40678Q61.721874 194.40678 62.1125 193.78178Q62.503124 193.15678 62.51875 191.82866L62.51875 190.04741ZM70.6125 191.53178Q70.6125 193.43803 69.95625 194.37553Q69.31563 195.29741 67.925 195.29741Q66.56563 195.29741 65.90938 194.39116Q65.25313 193.48491 65.22188 191.67241L65.22188 190.23491Q65.22188 188.34428 65.8625 187.43803Q66.51875 186.51616 67.90938 186.51616Q69.28438 186.51616 69.94063 187.40678Q70.59688 188.28178 70.6125 190.12553L70.6125 191.53178ZM69.51875 190.04741Q69.51875 188.67241 69.12813 188.04741Q68.75313 187.40678 67.90938 187.40678Q67.08125 187.40678 66.69063 188.04741Q66.31563 188.67241 66.31563 189.96928L66.31563 191.70366Q66.31563 193.07866 66.70625 193.75053Q67.1125 194.40678 67.925 194.40678Q68.72188 194.40678 69.1125 193.78178Q69.50313 193.15678 69.51875 191.82866L69.51875 190.04741ZM72.15938 188.28178Q72.15938 187.51616 72.64375 187.01616Q73.14375 186.51616 73.90938 186.51616Q74.69063 186.51616 75.175 187.01616Q75.65938 187.51616 75.65938 188.31303L75.65938 188.73491Q75.65938 189.50053 75.15938 190.00053Q74.675 190.48491 73.925 190.48491Q73.15938 190.48491 72.65938 190.00053Q72.15938 189.50053 72.15938 188.68803L72.15938 188.28178ZM72.97188 188.73491Q72.97188 189.18803 73.22188 189.48491Q73.4875 189.78178 73.925 189.78178Q74.34688 189.78178 74.59688 189.50053Q74.84688 189.20366 74.84688 188.70366L74.84688 188.28178Q74.84688 187.82866 74.59688 187.53178Q74.34688 187.21928 73.90938 187.21928Q73.47188 187.21928 73.22188 187.53178Q72.97188 187.82866 72.97188 188.29741L72.97188 188.73491ZM76.31563 193.07866Q76.31563 192.31303 76.8 191.82866Q77.3 191.32866 78.06563 191.32866Q78.83125 191.32866 79.31563 191.82866Q79.81563 192.31303 79.81563 193.12553L79.81563 193.53178Q79.81563 194.29741 79.33125 194.79741Q78.84688 195.29741 78.08125 195.29741Q77.31563 195.29741 76.81563 194.81303Q76.31563 194.31303 76.31563 193.50053L76.31563 193.07866ZM77.12813 193.53178Q77.12813 194.00053 77.37813 194.29741Q77.64375 194.59428 78.08125 194.59428Q78.50313 194.59428 78.75313 194.31303Q79.00313 194.01616 79.00313 193.51616L79.00313 193.07866Q79.00313 192.60991 78.7375 192.32866Q78.4875 192.03178 78.06563 192.03178Q77.64375 192.03178 77.37813 192.32866Q77.12813 192.60991 77.12813 193.10991L77.12813 193.53178ZM74.175 194.53178L73.55 194.14116L77.72188 187.46928L78.33125 187.85991L74.175 194.53178Z" fill-rule="nonzero"/><path fill="#757575" d="M31.096874 255.53287Q31.096874 256.78287 30.675 257.72037Q30.253124 258.64224 29.471874 259.14224Q28.70625 259.64224 27.675 259.64224Q26.675 259.64224 25.89375 259.14224Q25.1125 258.64224 24.675 257.736Q24.253124 256.81412 24.2375 255.59537L24.2375 254.986Q24.2375 253.75162 24.659374 252.81412Q25.096874 251.87662 25.878124 251.37662Q26.659374 250.861 27.675 250.861Q28.690624 250.861 29.471874 251.361Q30.253124 251.861 30.675 252.7985Q31.096874 253.736 31.096874 254.986L31.096874 255.53287ZM29.9875 254.97037Q29.9875 253.45474 29.378124 252.64224Q28.76875 251.82974 27.675 251.82974Q26.596874 251.82974 25.9875 252.64224Q25.378124 253.45474 25.3625 254.89224L25.3625 255.53287Q25.3625 257.00162 25.971874 257.84537Q26.596874 258.6735 27.675 258.6735Q28.76875 258.6735 29.3625 257.89224Q29.971874 257.09537 29.9875 255.611L29.9875 254.97037ZM34.45625 258.0485L36.034374 253.1735L37.14375 253.1735L34.8625 259.51724L34.034374 259.51724L31.7375 253.1735L32.846874 253.1735L34.45625 258.0485ZM41.003124 259.64224Q39.70625 259.64224 38.89375 258.7985Q38.096874 257.93912 38.096874 256.51724L38.096874 256.32974Q38.096874 255.37662 38.45625 254.64224Q38.815624 253.89224 39.45625 253.486Q40.1125 253.06412 40.8625 253.06412Q42.096874 253.06412 42.784374 253.87662Q43.471874 254.68912 43.471874 256.20474L43.471874 256.65787L39.175 256.65787Q39.20625 257.59537 39.721874 258.1735Q40.253124 258.75162 41.065624 258.75162Q41.628124 258.75162 42.01875 258.51724Q42.425 258.28287 42.7375 257.89224L43.39375 258.40787Q42.596874 259.64224 41.003124 259.64224ZM40.8625 253.95474Q40.20625 253.95474 39.753124 254.43912Q39.315624 254.90787 39.221874 255.76724L42.39375 255.76724L42.39375 255.68912Q42.346874 254.861 41.940624 254.40787Q41.55 253.95474 40.8625 253.95474ZM47.440624 254.14224Q47.190624 254.111 46.909374 254.111Q45.83125 254.111 45.45625 255.01724L45.45625 259.51724L44.378124 259.51724L44.378124 253.1735L45.425 253.1735L45.440624 253.90787Q45.971874 253.06412 46.95625 253.06412Q47.26875 253.06412 47.440624 253.14224L47.440624 254.14224ZM56.846874 259.51724L51.253124 259.51724L51.253124 258.736L54.20625 255.45474Q54.8625 254.70474 55.1125 254.25162Q55.3625 253.78287 55.3625 253.28287Q55.3625 252.611 54.95625 252.18912Q54.565624 251.75162 53.878124 251.75162Q53.08125 251.75162 52.628124 252.22037Q52.175 252.6735 52.175 253.50162L51.096874 253.50162Q51.096874 252.31412 51.846874 251.59537Q52.6125 250.861 53.878124 250.861Q55.08125 250.861 55.76875 251.486Q56.45625 252.111 56.45625 253.15787Q56.45625 254.40787 54.846874 256.15787L52.565624 258.62662L56.846874 258.62662L56.846874 259.51724ZM63.6125 255.87662Q63.6125 257.78287 62.95625 258.72037Q62.315624 259.64224 60.925 259.64224Q59.565624 259.64224 58.909374 258.736Q58.253124 257.82974 58.221874 256.01724L58.221874 254.57974Q58.221874 252.68912 58.8625 251.78287Q59.51875 250.861 60.909374 250.861Q62.284374 250.861 62.940624 251.75162Q63.596874 252.62662 63.6125 254.47037L63.6125 255.87662ZM62.51875 254.39224Q62.51875 253.01724 62.128124 252.39224Q61.753124 251.75162 60.909374 251.75162Q60.08125 251.75162 59.690624 252.39224Q59.315624 253.01724 59.315624 254.31412L59.315624 256.0485Q59.315624 257.4235 59.70625 258.09537Q60.1125 258.75162 60.925 258.75162Q61.721874 258.75162 62.1125 258.12662Q62.503124 257.50162 62.51875 256.1735L62.51875 254.39224ZM70.6125 255.87662Q70.6125 257.78287 69.95625 258.72037Q69.31563 259.64224 67.925 259.64224Q66.56563 259.64224 65.90938 258.736Q65.25313 257.82974 65.22188 256.01724L65.22188 254.57974Q65.22188 252.68912 65.8625 251.78287Q66.51875 250.861 67.90938 250.861Q69.28438 250.861 69.94063 251.75162Q70.59688 252.62662 70.6125 254.47037L70.6125 255.87662ZM69.51875 254.39224Q69.51875 253.01724 69.12813 252.39224Q68.75313 251.75162 67.90938 251.75162Q67.08125 251.75162 66.69063 252.39224Q66.31563 253.01724 66.31563 254.31412L66.31563 256.0485Q66.31563 257.4235 66.70625 258.09537Q67.1125 258.75162 67.925 258.75162Q68.72188 258.75162 69.1125 258.12662Q69.50313 257.50162 69.51875 256.1735L69.51875 254.39224ZM72.15938 252.62662Q72.15938 251.861 72.64375 251.361Q73.14375 250.861 73.90938 250.861Q74.69063 250.861 75.175 251.361Q75.65938 251.861 75.65938 252.65787L75.65938 253.07974Q75.65938 253.84537 75.15938 254.34537Q74.675 254.82974 73.925 254.82974Q73.15938 254.82974 72.65938 254.34537Q72.15938 253.84537 72.15938 253.03287L72.15938 252.62662ZM72.97188 253.07974Q72.97188 253.53287 73.22188 253.82974Q73.4875 254.12662 73.925 254.12662Q74.34688 254.12662 74.59688 253.84537Q74.84688 253.5485 74.84688 253.0485L74.84688 252.62662Q74.84688 252.1735 74.59688 251.87662Q74.34688 251.56412 73.90938 251.56412Q73.47188 251.56412 73.22188 251.87662Q72.97188 252.1735 72.97188 252.64224L72.97188 253.07974ZM76.31563 257.4235Q76.31563 256.65787 76.8 256.1735Q77.3 255.6735 78.06563 255.6735Q78.83125 255.6735 79.31563 256.1735Q79.81563 256.65787 79.81563 257.47037L79.81563 257.87662Q79.81563 258.64224 79.33125 259.14224Q78.84688 259.64224 78.08125 259.64224Q77.31563 259.64224 76.81563 259.15787Q76.31563 258.65787 76.31563 257.84537L76.31563 257.4235ZM77.12813 257.87662Q77.12813 258.34537 77.37813 258.64224Q77.64375 258.93912 78.08125 258.93912Q78.50313 258.93912 78.75313 258.65787Q79.00313 258.361 79.00313 257.861L79.00313 257.4235Q79.00313 256.95474 78.7375 256.6735Q78.4875 256.37662 78.06563 256.37662Q77.64375 256.37662 77.37813 256.6735Q77.12813 256.95474 77.12813 257.45474L77.12813 257.87662ZM74.175 258.87662L73.55 258.486L77.72188 251.81412L78.33125 252.20474L74.175 258.87662Z" fill-rule="nonzero"/><path fill="#757575" d="M89.1125 312.8094Q89.1125 314.71564 88.45625 315.65314Q87.81563 316.575 86.425 316.575Q85.06563 316.575 84.40938 315.66876Q83.75313 314.7625 83.72188 312.95L83.72188 311.5125Q83.72188 309.6219 84.3625 308.71564Q85.01875 307.79376 86.40938 307.79376Q87.78438 307.79376 88.44063 308.6844Q89.09688 309.5594 89.1125 311.40314L89.1125 312.8094ZM88.01875 311.325Q88.01875 309.95 87.62813 309.325Q87.25313 308.6844 86.40938 308.6844Q85.58125 308.6844 85.19063 309.325Q84.81563 309.95 84.81563 311.2469L84.81563 312.98126Q84.81563 314.35626 85.20625 315.02814Q85.6125 315.6844 86.425 315.6844Q87.22188 315.6844 87.6125 315.0594Q88.00313 314.4344 88.01875 313.10626L88.01875 311.325Z" fill-rule="nonzero"/><path fill="#757575" d="M250.81354 316.45L245.21979 316.45L245.21979 315.66876L248.17291 312.3875Q248.82916 311.6375 249.07916 311.1844Q249.32916 310.71564 249.32916 310.21564Q249.32916 309.54376 248.92291 309.1219Q248.53229 308.6844 247.84479 308.6844Q247.04791 308.6844 246.59479 309.15314Q246.14166 309.60626 246.14166 310.4344L245.06354 310.4344Q245.06354 309.2469 245.81354 308.52814Q246.57916 307.79376 247.84479 307.79376Q249.04791 307.79376 249.73541 308.41876Q250.42291 309.04376 250.42291 310.09064Q250.42291 311.34064 248.81354 313.09064L246.53229 315.5594L250.81354 315.5594L250.81354 316.45ZM257.57916 312.8094Q257.57916 314.71564 256.9229 315.65314Q256.2823 316.575 254.89166 316.575Q253.53229 316.575 252.87604 315.66876Q252.21979 314.7625 252.18854 312.95L252.18854 311.5125Q252.18854 309.6219 252.82916 308.71564Q253.48541 307.79376 254.87604 307.79376Q256.25104 307.79376 256.9073 308.6844Q257.56354 309.5594 257.57916 311.40314L257.57916 312.8094ZM256.4854 311.325Q256.4854 309.95 256.0948 309.325Q255.71979 308.6844 254.87604 308.6844Q254.04791 308.6844 253.65729 309.325Q253.28229 309.95 253.28229 311.2469L253.28229 312.98126Q253.28229 314.35626 253.67291 315.02814Q254.07916 315.6844 254.89166 315.6844Q255.68854 315.6844 256.07916 315.0594Q256.4698 314.4344 256.4854 313.10626L256.4854 311.325Z" fill-rule="nonzero"/><path fill="#757575" d="M414.7646 313.59064L415.9521 313.59064L415.9521 314.46564L414.7646 314.46564L414.7646 316.45L413.68646 316.45L413.68646 314.46564L409.79584 314.46564L409.79584 313.825L413.60834 307.91876L414.7646 307.91876L414.7646 313.59064ZM411.0302 313.59064L413.68646 313.59064L413.68646 309.40314L413.54584 309.6375L411.0302 313.59064ZM422.54584 312.8094Q422.54584 314.71564 421.8896 315.65314Q421.24896 316.575 419.85834 316.575Q418.49896 316.575 417.8427 315.66876Q417.18646 314.7625 417.1552 312.95L417.1552 311.5125Q417.1552 309.6219 417.79584 308.71564Q418.4521 307.79376 419.8427 307.79376Q421.2177 307.79376 421.87396 308.6844Q422.5302 309.5594 422.54584 311.40314L422.54584 312.8094ZM421.4521 311.325Q421.4521 309.95 421.06146 309.325Q420.68646 308.6844 419.8427 308.6844Q419.0146 308.6844 418.62396 309.325Q418.24896 309.95 418.24896 311.2469L418.24896 312.98126Q418.24896 314.35626 418.6396 315.02814Q419.04584 315.6844 419.85834 315.6844Q420.6552 315.6844 421.04584 315.0594Q421.43646 314.4344 421.4521 313.10626L421.4521 311.325Z" fill-rule="nonzero"/><path fill="#757575" d="M579.41876 307.91876L579.41876 308.825L579.21564 308.825Q577.95 308.85626 577.2 309.59064Q576.45 310.3094 576.325 311.6219Q577.0125 310.85626 578.16876 310.85626Q579.27814 310.85626 579.95 311.6375Q580.6219 312.41876 580.6219 313.66876Q580.6219 314.98126 579.90314 315.77814Q579.1844 316.575 577.96564 316.575Q576.7469 316.575 575.98126 315.6375Q575.23126 314.6844 575.23126 313.2L575.23126 312.79376Q575.23126 310.4344 576.23126 309.1844Q577.23126 307.9344 579.21564 307.91876L579.41876 307.91876ZM577.9969 311.7625Q577.4344 311.7625 576.96564 312.09064Q576.4969 312.41876 576.3094 312.9344L576.3094 313.325Q576.3094 314.3875 576.77814 315.02814Q577.2625 315.66876 577.96564 315.66876Q578.7 315.66876 579.1219 315.1375Q579.54376 314.59064 579.54376 313.71564Q579.54376 312.84064 579.1219 312.3094Q578.7 311.7625 577.9969 311.7625ZM587.5125 312.8094Q587.5125 314.71564 586.85626 315.65314Q586.21564 316.575 584.825 316.575Q583.46564 316.575 582.8094 315.66876Q582.15314 314.7625 582.1219 312.95L582.1219 311.5125Q582.1219 309.6219 582.7625 308.71564Q583.41876 307.79376 584.8094 307.79376Q586.1844 307.79376 586.84064 308.6844Q587.4969 309.5594 587.5125 311.40314L587.5125 312.8094ZM586.41876 311.325Q586.41876 309.95 586.02814 309.325Q585.65314 308.6844 584.8094 308.6844Q583.98126 308.6844 583.59064 309.325Q583.21564 309.95 583.21564 311.2469L583.21564 312.98126Q583.21564 314.35626 583.60626 315.02814Q584.0125 315.6844 584.825 315.6844Q585.6219 315.6844 586.0125 315.0594Q586.40314 314.4344 586.41876 313.10626L586.41876 311.325Z" fill-rule="nonzero"/></svg>