<svg xmlns="http://www.w3.org/2000/svg" xmlns:xlink="http://www.w3.org/1999/xlink" xmlns:lucid="lucid" width="862" height="276"><g transform="translate(-119 -197.0000000000037)" lucid:page-tab-id="0_0"><path d="M0 0h1870.4v1323.2H0z" fill="#fff"/><path d="M300 319.97c0 44.18-35.82 80-80 80s-80-35.82-80-80 35.82-80 80-80 80 35.82 80 80z" stroke="#000" stroke-width="2" fill="#e5e5e5"/><use xlink:href="#a" transform="matrix(1,0,0,1,145,244.97191985287603) translate(20.962962962962962 82.27083333333334)"/><path d="M302 319.97h38.5" stroke="#000" stroke-width="2" fill="none"/><path d="M302.03 320.97h-1.06l.03-1v-1H302z" stroke="#000" stroke-width=".05"/><path d="M355.76 319.97l-14.26 4.64v-9.26z" stroke="#000" stroke-width="2"/><path d="M521.77 313.96h38.97M521.8 313.96h-1.02" stroke="#000" stroke-width="2" fill="none"/><path d="M576 313.96l-14.26 4.64v-9.27z" stroke="#000" stroke-width="2"/><path d="M742 319.97h38.5M742.03 319.97H741" stroke="#000" stroke-width="2" fill="none"/><path d="M795.76 319.97l-14.26 4.64v-9.26z" stroke="#000" stroke-width="2"/><path d="M880 401.97V470H220v-50.53M880 402v-1.03" stroke="#000" stroke-width="2" fill="none"/><path d="M220 404.2l4.63 14.27h-9.26z" stroke="#000" stroke-width="2"/><path d="M164.7 259.46l-1.94-2.3-2.1-2.72-1.7-2.44-1.42-2.2-1.15-2-.97-1.84-.78-1.7-.65-1.55-.53-1.45-.43-1.37-.34-1.3-.26-1.2-.2-1.17-.15-1.1-.1-1.06-.03-1.02v-1l.05-.95.1-.93.1-.9.18-.9.2-.9.24-.86.28-.86.32-.85.36-.85.4-.86.47-.85.5-.85.57-.86.63-.9.7-.88.77-.9.86-.9.97-.95 1.07-.96 1.2-.98 1.37-1 1.54-1.04 1.72-1.07 1.97-1.08 2.23-1.1 2.55-1.15 2.92-1.15 3.34-1.15 3.82-1.12 4.37-1.1 4.95-.98 5.56-.87 6.17-.7 6.68-.44 7.07-.16 7.23.15 7.17.47 6.9.75 6.4 1 5.87 1.16 5.24 1.28 4.63 1.37 4.06 1.38 3.54 1.4 3.08 1.35 2.68 1.34 2.34 1.3 2.05 1.24 1.8 1.2 1.58 1.18 1.4 1.13 1.22 1.1 1.1 1.04.96 1.03.88 1 .77.98.7.95.6.94.55.92.48.9.44.9.38.9.33.88.3.9.24.88.2.9.18.9.12.9.1.93.04.94.02.96-.04 1-.08 1-.13 1.06-.2 1.1-.23 1.13-.32 1.2-.38 1.24-.48 1.3-.57 1.4-.7 1.5-.6 1.13" stroke="#000" stroke-width="2" stroke-linejoin="round" fill="none"/><path d="M166.1 259.57l-1.5 1.33-.68-.8 1.53-1.3z" stroke="#000" stroke-width=".05"/><path d="M280.78 261.7l4.98-14.14 7.37 5.63z" stroke="#000" stroke-width="2"/><path d="M520 319.97c0 44.18-35.82 80-80 80s-80-35.82-80-80 35.82-80 80-80 80 35.82 80 80z" stroke="#000" stroke-width="2" fill="#e5e5e5"/><use xlink:href="#b" transform="matrix(1,0,0,1,365,244.9719198528766) translate(7.7037037037037095 82.27083333333334)"/><path d="M384.7 259.46l-1.94-2.3-2.1-2.72-1.7-2.44-1.42-2.2-1.15-2-.97-1.84-.78-1.7-.65-1.55-.53-1.45-.43-1.37-.34-1.3-.26-1.2-.2-1.17-.14-1.1-.1-1.06-.03-1.02v-1l.05-.95.1-.93.1-.9.18-.9.2-.9.24-.86.28-.86.32-.85.36-.85.4-.86.47-.85.5-.85.57-.86.63-.9.7-.88.77-.9.86-.9.97-.95 1.07-.96 1.2-.98 1.37-1 1.54-1.04 1.73-1.07 1.96-1.08 2.23-1.1 2.55-1.15 2.92-1.15 3.34-1.15 3.82-1.12 4.37-1.1 4.95-.98 5.56-.87 6.17-.7 6.68-.44 7.07-.16 7.23.15 7.17.47 6.9.75 6.4 1 5.87 1.16 5.24 1.28 4.63 1.37 4.06 1.38 3.54 1.4 3.08 1.35 2.68 1.34 2.34 1.3 2.05 1.24 1.8 1.2 1.58 1.18 1.4 1.13 1.22 1.1 1.1 1.04.96 1.03.88 1 .77.98.7.95.6.94.55.92.48.9.44.9.38.9.33.88.3.9.24.88.2.9.18.9.12.9.1.93.04.94.02.96-.04 1-.08 1-.13 1.06-.2 1.1-.23 1.13-.32 1.2-.38 1.24-.48 1.3-.57 1.4-.7 1.5-.6 1.13" stroke="#000" stroke-width="2" stroke-linejoin="round" fill="none"/><path d="M386.1 259.57l-1.5 1.33-.68-.8 1.53-1.3z" stroke="#000" stroke-width=".05"/><path d="M500.78 261.7l4.98-14.14 7.37 5.63z" stroke="#000" stroke-width="2"/><path d="M740 319.97c0 44.18-35.82 80-80 80s-80-35.82-80-80 35.82-80 80-80 80 35.82 80 80z" stroke="#000" stroke-width="2" fill="#e5e5e5"/><use xlink:href="#c" transform="matrix(1,0,0,1,585,244.9719198528766) translate(0.2962962962962905 82.27083333333334)"/><path d="M604.7 259.46l-1.94-2.3-2.1-2.72-1.7-2.44-1.42-2.2-1.15-2-.97-1.84-.78-1.7-.65-1.55-.53-1.45-.43-1.37-.34-1.3-.26-1.2-.2-1.17-.14-1.1-.1-1.06-.03-1.02v-1l.05-.95.1-.93.1-.9.18-.9.2-.9.24-.86.28-.86.32-.85.36-.85.4-.86.46-.85.5-.85.58-.86.63-.9.7-.88.77-.9.86-.9.97-.95 1.07-.96 1.2-.98 1.37-1 1.54-1.04 1.73-1.07 1.96-1.08 2.23-1.1 2.55-1.15 2.92-1.15 3.34-1.15 3.82-1.12 4.37-1.1 4.95-.98 5.56-.87 6.17-.7 6.68-.44 7.07-.16 7.23.15 7.17.47 6.9.75 6.4 1 5.87 1.16 5.24 1.28 4.63 1.37 4.06 1.38 3.54 1.4 3.08 1.35 2.68 1.34 2.34 1.3 2.05 1.24 1.8 1.2 1.58 1.18 1.4 1.13 1.22 1.1 1.1 1.04.96 1.03.88 1 .77.98.7.95.6.94.55.92.48.9.44.9.38.9.33.88.3.9.24.88.2.9.18.9.12.9.1.93.04.94.02.96-.04 1-.08 1-.13 1.06-.2 1.1-.23 1.13-.32 1.2-.38 1.24-.48 1.3-.57 1.4-.7 1.5-.6 1.13" stroke="#000" stroke-width="2" stroke-linejoin="round" fill="none"/><path d="M606.1 259.57l-1.5 1.33-.68-.8 1.53-1.3z" stroke="#000" stroke-width=".05"/><path d="M720.78 261.7l4.98-14.14 7.37 5.63z" stroke="#000" stroke-width="2"/><path d="M960 319.97c0 44.18-35.82 80-80 80s-80-35.82-80-80 35.82-80 80-80 80 35.82 80 80z" stroke="#000" stroke-width="2" fill="#e5e5e5"/><use xlink:href="#d" transform="matrix(1,0,0,1,805,244.9719198528766) translate(17.111111111111114 82.27083333333334)"/><path d="M824.7 259.46l-1.94-2.3-2.1-2.72-1.7-2.44-1.42-2.2-1.15-2-.97-1.84-.78-1.7-.65-1.55-.53-1.45-.43-1.37-.34-1.3-.26-1.2-.2-1.17-.14-1.1-.1-1.06-.03-1.02v-1l.05-.95.1-.93.1-.9.18-.9.2-.9.24-.86.28-.86.32-.85.36-.85.4-.86.46-.85.5-.85.58-.86.63-.9.7-.88.77-.9.86-.9.97-.95 1.07-.96 1.2-.98 1.37-1 1.54-1.04 1.73-1.07 1.96-1.08 2.23-1.1 2.55-1.15 2.92-1.15 3.34-1.15 3.82-1.12 4.37-1.1 4.95-.98 5.56-.87 6.17-.7 6.68-.44 7.07-.16 7.23.15 7.17.47 6.9.75 6.4 1 5.87 1.16 5.24 1.28 4.63 1.37 4.06 1.38 3.54 1.4 3.08 1.35 2.68 1.34 2.34 1.3 2.05 1.24 1.8 1.2 1.58 1.18 1.4 1.13 1.22 1.1 1.1 1.04.96 1.03.88 1 .77.98.7.95.6.94.55.92.48.9.44.9.38.9.33.88.3.9.24.88.2.9.18.9.12.9.1.93.04.94.02.96-.04 1-.08 1-.13 1.06-.2 1.1-.23 1.13-.32 1.2-.38 1.24-.48 1.3-.57 1.4-.7 1.5-.6 1.13" stroke="#000" stroke-width="2" stroke-linejoin="round" fill="none"/><path d="M826.1 259.57l-1.5 1.33-.68-.8 1.53-1.3z" stroke="#000" stroke-width=".05"/><path d="M940.78 261.7l4.98-14.14 7.37 5.63z" stroke="#000" stroke-width="2"/><defs><path d="M33 0v-248h34V0H33" id="e"/><path d="M117-194c89-4 53 116 60 194h-32v-121c0-31-8-49-39-48C34-167 62-67 57 0H25l-1-190h30c1 10-1 24 2 32 11-22 29-35 61-36" id="f"/><path d="M96-169c-40 0-48 33-48 73s9 75 48 75c24 0 41-14 43-38l32 2c-6 37-31 61-74 61-59 0-76-41-82-99-10-93 101-131 147-64 4 7 5 14 7 22l-32 3c-4-21-16-35-41-35" id="g"/><path d="M100-194c63 0 86 42 84 106H49c0 40 14 67 53 68 26 1 43-12 49-29l28 8c-11 28-37 45-77 45C44 4 14-33 15-96c1-61 26-98 85-98zm52 81c6-60-76-77-97-28-3 7-6 17-6 28h103" id="h"/><path d="M115-194c55 1 70 41 70 98S169 2 115 4C84 4 66-9 55-30l1 105H24l-1-265h31l2 30c10-21 28-34 59-34zm-8 174c40 0 45-34 45-75s-6-73-45-74c-42 0-51 32-51 76 0 43 10 73 51 73" id="i"/><path d="M59-47c-2 24 18 29 38 22v24C64 9 27 4 27-40v-127H5v-23h24l9-43h21v43h35v23H59v120" id="j"/><path d="M24-231v-30h32v30H24zM24 0v-190h32V0H24" id="k"/><path d="M100-194c62-1 85 37 85 99 1 63-27 99-86 99S16-35 15-95c0-66 28-99 85-99zM99-20c44 1 53-31 53-75 0-43-8-75-51-75s-53 32-53 75 10 74 51 75" id="l"/><g id="a"><use transform="matrix(0.07407407407407408,0,0,0.07407407407407408,0,0)" xlink:href="#e"/><use transform="matrix(0.07407407407407408,0,0,0.07407407407407408,7.407407407407408,0)" xlink:href="#f"/><use transform="matrix(0.07407407407407408,0,0,0.07407407407407408,22.222222222222225,0)" xlink:href="#g"/><use transform="matrix(0.07407407407407408,0,0,0.07407407407407408,35.55555555555556,0)" xlink:href="#h"/><use transform="matrix(0.07407407407407408,0,0,0.07407407407407408,50.370370370370374,0)" xlink:href="#i"/><use transform="matrix(0.07407407407407408,0,0,0.07407407407407408,65.18518518518519,0)" xlink:href="#j"/><use transform="matrix(0.07407407407407408,0,0,0.07407407407407408,72.5925925925926,0)" xlink:href="#k"/><use transform="matrix(0.07407407407407408,0,0,0.07407407407407408,78.44444444444444,0)" xlink:href="#l"/><use transform="matrix(0.07407407407407408,0,0,0.07407407407407408,93.25925925925927,0)" xlink:href="#f"/></g><path d="M30 0v-248h187v28H63v79h144v27H63v87h162V0H30" id="m"/><path d="M24 0v-261h32V0H24" id="n"/><path d="M141-36C126-15 110 5 73 4 37 3 15-17 15-53c-1-64 63-63 125-63 3-35-9-54-41-54-24 1-41 7-42 31l-33-3c5-37 33-52 76-52 45 0 72 20 72 64v82c-1 20 7 32 28 27v20c-31 9-61-2-59-35zM48-53c0 20 12 33 32 33 41-3 63-29 60-74-43 2-92-5-92 41" id="o"/><path d="M115-194c53 0 69 39 70 98 0 66-23 100-70 100C84 3 66-7 56-30L54 0H23l1-261h32v101c10-23 28-34 59-34zm-8 174c40 0 45-34 45-75 0-40-5-75-45-74-42 0-51 32-51 76 0 43 10 73 51 73" id="p"/><path d="M114-163C36-179 61-72 57 0H25l-1-190h30c1 12-1 29 2 39 6-27 23-49 58-41v29" id="q"/><g id="b"><use transform="matrix(0.07407407407407408,0,0,0.07407407407407408,0,0)" xlink:href="#m"/><use transform="matrix(0.07407407407407408,0,0,0.07407407407407408,17.77777777777778,0)" xlink:href="#n"/><use transform="matrix(0.07407407407407408,0,0,0.07407407407407408,23.629629629629633,0)" xlink:href="#o"/><use transform="matrix(0.07407407407407408,0,0,0.07407407407407408,38.44444444444445,0)" xlink:href="#p"/><use transform="matrix(0.07407407407407408,0,0,0.07407407407407408,53.25925925925927,0)" xlink:href="#l"/><use transform="matrix(0.07407407407407408,0,0,0.07407407407407408,68.07407407407408,0)" xlink:href="#q"/><use transform="matrix(0.07407407407407408,0,0,0.07407407407407408,76.88888888888889,0)" xlink:href="#o"/><use transform="matrix(0.07407407407407408,0,0,0.07407407407407408,91.7037037037037,0)" xlink:href="#j"/><use transform="matrix(0.07407407407407408,0,0,0.07407407407407408,99.11111111111111,0)" xlink:href="#k"/><use transform="matrix(0.07407407407407408,0,0,0.07407407407407408,104.96296296296295,0)" xlink:href="#l"/><use transform="matrix(0.07407407407407408,0,0,0.07407407407407408,119.77777777777777,0)" xlink:href="#f"/></g><path d="M212-179c-10-28-35-45-73-45-59 0-87 40-87 99 0 60 29 101 89 101 43 0 62-24 78-52l27 14C228-24 195 4 139 4 59 4 22-46 18-125c-6-104 99-153 187-111 19 9 31 26 39 46" id="r"/><path d="M135-143c-3-34-86-38-87 0 15 53 115 12 119 90S17 21 10-45l28-5c4 36 97 45 98 0-10-56-113-15-118-90-4-57 82-63 122-42 12 7 21 19 24 35" id="s"/><path d="M84 4C-5 8 30-112 23-190h32v120c0 31 7 50 39 49 72-2 45-101 50-169h31l1 190h-30c-1-10 1-25-2-33-11 22-28 36-60 37" id="t"/><g id="c"><use transform="matrix(0.07407407407407408,0,0,0.07407407407407408,0,0)" xlink:href="#r"/><use transform="matrix(0.07407407407407408,0,0,0.07407407407407408,19.185185185185187,0)" xlink:href="#l"/><use transform="matrix(0.07407407407407408,0,0,0.07407407407407408,34,0)" xlink:href="#f"/><use transform="matrix(0.07407407407407408,0,0,0.07407407407407408,48.81481481481481,0)" xlink:href="#s"/><use transform="matrix(0.07407407407407408,0,0,0.07407407407407408,62.14814814814816,0)" xlink:href="#j"/><use transform="matrix(0.07407407407407408,0,0,0.07407407407407408,69.55555555555556,0)" xlink:href="#q"/><use transform="matrix(0.07407407407407408,0,0,0.07407407407407408,78.37037037037038,0)" xlink:href="#t"/><use transform="matrix(0.07407407407407408,0,0,0.07407407407407408,93.18518518518519,0)" xlink:href="#g"/><use transform="matrix(0.07407407407407408,0,0,0.07407407407407408,106.51851851851853,0)" xlink:href="#j"/><use transform="matrix(0.07407407407407408,0,0,0.07407407407407408,113.92592592592594,0)" xlink:href="#k"/><use transform="matrix(0.07407407407407408,0,0,0.07407407407407408,119.7777777777778,0)" xlink:href="#l"/><use transform="matrix(0.07407407407407408,0,0,0.07407407407407408,134.5925925925926,0)" xlink:href="#f"/></g><path d="M127-220V0H93v-220H8v-28h204v28h-85" id="u"/><g id="d"><use transform="matrix(0.07407407407407408,0,0,0.07407407407407408,0,0)" xlink:href="#u"/><use transform="matrix(0.07407407407407408,0,0,0.07407407407407408,15.259259259259261,0)" xlink:href="#q"/><use transform="matrix(0.07407407407407408,0,0,0.07407407407407408,24.074074074074076,0)" xlink:href="#o"/><use transform="matrix(0.07407407407407408,0,0,0.07407407407407408,38.88888888888889,0)" xlink:href="#f"/><use transform="matrix(0.07407407407407408,0,0,0.07407407407407408,53.70370370370371,0)" xlink:href="#s"/><use transform="matrix(0.07407407407407408,0,0,0.07407407407407408,67.03703703703704,0)" xlink:href="#k"/><use transform="matrix(0.07407407407407408,0,0,0.07407407407407408,72.88888888888889,0)" xlink:href="#j"/><use transform="matrix(0.07407407407407408,0,0,0.07407407407407408,80.29629629629629,0)" xlink:href="#k"/><use transform="matrix(0.07407407407407408,0,0,0.07407407407407408,86.14814814814814,0)" xlink:href="#l"/><use transform="matrix(0.07407407407407408,0,0,0.07407407407407408,100.96296296296296,0)" xlink:href="#f"/></g></defs></g></svg>