<svg xmlns="http://www.w3.org/2000/svg" xmlns:xlink="http://www.w3.org/1999/xlink" xmlns:lucid="lucid" width="775" height="551"><g transform="translate(-120 -40)" lucid:page-tab-id="0_0"><path d="M0 0h1870.4v1323.2H0z" fill="#fff"/><path d="M140 60h140v80H140z" stroke="#000" stroke-width="2" fill="#fff"/><use xlink:href="#a" transform="matrix(1,0,0,1,140,60) translate(44.055 44.4)"/><path d="M210 142v2.98m0 3.97v5.96m0 3.98v5.96m0 3.98v5.96m0 3.97v5.96m0 3.98v5.96m0 3.97v5.97m0 3.97v5.96m0 3.98v5.95m0 3.98v5.97m0 3.97v5.96m0 3.97v5.96m0 3.97v5.96m0 3.97v5.96m0 3.97v5.96m0 3.97v5.96m0 3.97v5.96m0 3.96v5.96m0 3.97v5.95m0 3.98v5.95m0 3.98v5.96m0 3.97v5.95m0 3.97v5.96m0 3.97v5.96m0 3.98v5.96m0 3.98v5.96m0 3.97v5.96m0 3.98v5.96m0 3.97v5.97m0 3.97V433m0 3.98v5.95m0 3.98v5.97m0 3.97v5.96m0 3.97v5.96m0 3.97v5.96m0 3.97v5.96m0 3.97v5.96m0 3.97v5.96m0 3.97v5.96m0 3.96v5.96m0 3.97v5.95m0 3.98v5.95m0 3.98v5.96m0 3.97v5.95m0 3.97V579" stroke="#000" stroke-width="2" fill="none"/><path d="M211 142.03h-2V141h2z"/><path d="M210 578.97V580" stroke="#000" stroke-width="2" fill="none"/><path d="M190 200h40v320h-40zM434 60h140v80H434z" stroke="#000" stroke-width="2" fill="#fff"/><use xlink:href="#b" transform="matrix(1,0,0,1,434,60) translate(39.529999999999994 44.4)"/><path d="M504 142v2.97m0 3.95v5.93m0 3.96v5.94m0 3.95v5.92m0 3.96v5.93m0 3.97v5.93m0 3.95v5.93m0 3.96v5.93m0 3.95v5.94m0 3.95v5.94m0 3.96v5.93m0 3.95v5.94m0 3.95v5.93m0 3.96v5.93m0 3.94v5.93m0 3.96v5.93m0 3.96v5.93m0 3.95v5.93m0 3.96v5.92m0 3.95v5.94m0 3.96v5.93m0 3.95v5.93m0 3.95v5.94m0 3.95v5.93m0 3.96v5.94m0 3.95v5.92m0 3.96V402m0 3.97v5.93m0 3.95v5.93m0 3.96v5.93m0 3.95v5.94m0 3.95v5.94m0 3.96v5.93m0 3.95v5.94m0 3.95v5.93m0 3.96V491m0 3.94v5.94m0 3.95v5.93m0 3.96v5.93m0 3.95v5.93m0 3.96v5.92m0 3.96v5.93m0 3.96v5.93m0 3.95v5.93m0 3.95V577" stroke="#000" stroke-width="2" fill="none"/><path d="M505 142.03h-2V141h2z"/><path d="M504 576.97V578" stroke="#000" stroke-width="2" fill="none"/><path d="M484 240h40v200h-40zM735 60h140v80H735z" stroke="#000" stroke-width="2" fill="#fff"/><use xlink:href="#c" transform="matrix(1,0,0,1,735,60) translate(39.58 31.9)"/><use xlink:href="#d" transform="matrix(1,0,0,1,735,60) translate(32.029999999999994 53.5)"/><path d="M232 246h232.5" stroke="#000" stroke-width="2" fill="none"/><path d="M232.03 247H231v-2h1.03z"/><path d="M479.76 246l-14.26 4.64v-9.28z" stroke="#000" stroke-width="2"/><use xlink:href="#e" transform="matrix(1,0,0,1,337.1,220.39999999999995) translate(0 14.4)"/><path d="M815 142v2.97m0 3.95v5.93m0 3.96v5.94m0 3.95v5.92m0 3.96v5.93m0 3.97v5.93m0 3.95v5.93m0 3.96v5.93m0 3.95v5.94m0 3.95v5.94m0 3.96v5.93m0 3.95v5.94m0 3.95v5.93m0 3.96v5.93m0 3.94v5.93m0 3.96v5.93m0 3.96v5.93m0 3.95v5.93m0 3.96v5.92m0 3.95v5.94m0 3.96v5.93m0 3.95v5.93m0 3.95v5.94m0 3.95v5.93m0 3.96v5.94m0 3.95v5.92m0 3.96V402m0 3.97v5.93m0 3.95v5.93m0 3.96v5.93m0 3.95v5.94m0 3.95v5.94m0 3.96v5.93m0 3.95v5.94m0 3.95v5.93m0 3.96V491m0 3.94v5.94m0 3.95v5.93m0 3.96v5.93m0 3.95v5.93m0 3.96v5.92m0 3.96v5.93m0 3.96v5.93m0 3.95v5.93m0 3.95V577M815 142.03V141M815 576.97V578" stroke="#000" stroke-width="2" fill="none"/><path d="M795 300h40v80h-40z" stroke="#000" stroke-width="2" fill="#fff"/><path d="M526 304.67h249.5" stroke="#000" stroke-width="2" fill="none"/><path d="M526.03 305.67H525v-2h1.03z"/><path d="M790.76 304.67l-14.26 4.63v-9.27z" stroke="#000" stroke-width="2"/><use xlink:href="#f" transform="matrix(1,0,0,1,626.075,279.0666666666667) translate(0 14.4)"/><path d="M543.5 381.33h2m7.96 0h3.98m7.96 0h3.98m7.96 0h4m7.95 0h3.97m7.96 0h3.98m7.98 0h3.98m7.96 0h3.98m7.97 0h3.98m7.96 0h4m6.62-1.33h3.98m7.97 0h3.98m7.96 0h4m7.95 0h4m7.95 0h3.98m7.96 0h3.98m7.97 0h3.97m7.96 0h3.98m7.98 0h3.98m7.96 0h3.98m7.96 0h4m7.95 0h2" stroke="#000" stroke-width="2" fill="none"/><path d="M528.24 381.33l14.26-4.63v9.27z" stroke="#000" stroke-width="2"/><path d="M792.97 380H794M249.5 440h2.04m8.16 0h4.08m8.16 0H276m8.17 0h4.08m8.16 0h4.1m8.15 0h4.08m8.15 0h4.08m8.16 0h4.08m8.16 0h4.08m8.15 0h4.07m8.16 0h4.08m8.17 0h4.08m8.15 0h4.08m8.16 0h4.08m8.16 0h4.08m8.15 0h4.1m8.15 0h4.08m8.16 0h4.07m8.15 0h4.08m8.16 0H482" stroke="#000" stroke-width="2" fill="none"/><path d="M234.24 440l14.26-4.64v9.28z" stroke="#000" stroke-width="2"/><path d="M481.97 440H483" stroke="#000" stroke-width="2" fill="none"/><defs><path d="M96-169c-40 0-48 33-48 73s9 75 48 75c24 0 41-14 43-38l32 2c-6 37-31 61-74 61-59 0-76-41-82-99-10-93 101-131 147-64 4 7 5 14 7 22l-32 3c-4-21-16-35-41-35" id="g"/><path d="M24 0v-261h32V0H24" id="h"/><path d="M24-231v-30h32v30H24zM24 0v-190h32V0H24" id="i"/><path d="M100-194c63 0 86 42 84 106H49c0 40 14 67 53 68 26 1 43-12 49-29l28 8c-11 28-37 45-77 45C44 4 14-33 15-96c1-61 26-98 85-98zm52 81c6-60-76-77-97-28-3 7-6 17-6 28h103" id="j"/><path d="M117-194c89-4 53 116 60 194h-32v-121c0-31-8-49-39-48C34-167 62-67 57 0H25l-1-190h30c1 10-1 24 2 32 11-22 29-35 61-36" id="k"/><path d="M59-47c-2 24 18 29 38 22v24C64 9 27 4 27-40v-127H5v-23h24l9-43h21v43h35v23H59v120" id="l"/><g id="a"><use transform="matrix(0.05,0,0,0.05,0,0)" xlink:href="#g"/><use transform="matrix(0.05,0,0,0.05,9,0)" xlink:href="#h"/><use transform="matrix(0.05,0,0,0.05,12.949999999999998,0)" xlink:href="#i"/><use transform="matrix(0.05,0,0,0.05,16.9,0)" xlink:href="#j"/><use transform="matrix(0.05,0,0,0.05,26.899999999999995,0)" xlink:href="#k"/><use transform="matrix(0.05,0,0,0.05,36.9,0)" xlink:href="#l"/><use transform="matrix(0.05,0,0,0.05,41.9,0)" xlink:href="#j"/></g><path d="M141-36C126-15 110 5 73 4 37 3 15-17 15-53c-1-64 63-63 125-63 3-35-9-54-41-54-24 1-41 7-42 31l-33-3c5-37 33-52 76-52 45 0 72 20 72 64v82c-1 20 7 32 28 27v20c-31 9-61-2-59-35zM48-53c0 20 12 33 32 33 41-3 63-29 60-74-43 2-92-5-92 41" id="m"/><path d="M85-194c31 0 48 13 60 33l-1-100h32l1 261h-30c-2-10 0-23-3-31C134-8 116 4 85 4 32 4 16-35 15-94c0-66 23-100 70-100zm9 24c-40 0-46 34-46 75 0 40 6 74 45 74 42 0 51-32 51-76 0-42-9-74-50-73" id="n"/><path d="M115-194c55 1 70 41 70 98S169 2 115 4C84 4 66-9 55-30l1 105H24l-1-265h31l2 30c10-21 28-34 59-34zm-8 174c40 0 45-34 45-75s-6-73-45-74c-42 0-51 32-51 76 0 43 10 73 51 73" id="o"/><path d="M114-163C36-179 61-72 57 0H25l-1-190h30c1 12-1 29 2 39 6-27 23-49 58-41v29" id="p"/><g id="b"><use transform="matrix(0.05,0,0,0.05,0,0)" xlink:href="#m"/><use transform="matrix(0.05,0,0,0.05,10,0)" xlink:href="#n"/><use transform="matrix(0.05,0,0,0.05,20,0)" xlink:href="#m"/><use transform="matrix(0.05,0,0,0.05,30,0)" xlink:href="#o"/><use transform="matrix(0.05,0,0,0.05,40,0)" xlink:href="#l"/><use transform="matrix(0.05,0,0,0.05,45,0)" xlink:href="#j"/><use transform="matrix(0.05,0,0,0.05,55,0)" xlink:href="#p"/></g><path d="M100-194c62-1 85 37 85 99 1 63-27 99-86 99S16-35 15-95c0-66 28-99 85-99zM99-20c44 1 53-31 53-75 0-43-8-75-51-75s-53 32-53 75 10 74 51 75" id="q"/><path d="M24-231v-30h32v30H24zM-9 49c24 4 33-6 33-30v-209h32V24c2 40-23 58-65 49V49" id="r"/><g id="c"><use transform="matrix(0.05,0,0,0.05,0,0)" xlink:href="#o"/><use transform="matrix(0.05,0,0,0.05,10,0)" xlink:href="#p"/><use transform="matrix(0.05,0,0,0.05,15.949999999999998,0)" xlink:href="#q"/><use transform="matrix(0.05,0,0,0.05,25.950000000000003,0)" xlink:href="#r"/><use transform="matrix(0.05,0,0,0.05,29.899999999999995,0)" xlink:href="#j"/><use transform="matrix(0.05,0,0,0.05,39.9,0)" xlink:href="#l"/><use transform="matrix(0.05,0,0,0.05,44.9,0)" xlink:href="#q"/><use transform="matrix(0.05,0,0,0.05,54.900000000000006,0)" xlink:href="#p"/></g><path d="M185-189c-5-48-123-54-124 2 14 75 158 14 163 119 3 78-121 87-175 55-17-10-28-26-33-46l33-7c5 56 141 63 141-1 0-78-155-14-162-118-5-82 145-84 179-34 5 7 8 16 11 25" id="s"/><path d="M210-169c-67 3-38 105-44 169h-31v-121c0-29-5-50-35-48C34-165 62-65 56 0H25l-1-190h30c1 10-1 24 2 32 10-44 99-50 107 0 11-21 27-35 58-36 85-2 47 119 55 194h-31v-121c0-29-5-49-35-48" id="t"/><path d="M135-143c-3-34-86-38-87 0 15 53 115 12 119 90S17 21 10-45l28-5c4 36 97 45 98 0-10-56-113-15-118-90-4-57 82-63 122-42 12 7 21 19 24 35" id="u"/><path d="M84 4C-5 8 30-112 23-190h32v120c0 31 7 50 39 49 72-2 45-101 50-169h31l1 190h-30c-1-10 1-25-2-33-11 22-28 36-60 37" id="v"/><path d="M177-190C167-65 218 103 67 71c-23-6-38-20-44-43l32-5c15 47 100 32 89-28v-30C133-14 115 1 83 1 29 1 15-40 15-95c0-56 16-97 71-98 29-1 48 16 59 35 1-10 0-23 2-32h30zM94-22c36 0 50-32 50-73 0-42-14-75-50-75-39 0-46 34-46 75s6 73 46 73" id="w"/><g id="d"><use transform="matrix(0.05,0,0,0.05,0,0)" xlink:href="#s"/><use transform="matrix(0.05,0,0,0.05,12,0)" xlink:href="#m"/><use transform="matrix(0.05,0,0,0.05,22,0)" xlink:href="#t"/><use transform="matrix(0.05,0,0,0.05,36.95,0)" xlink:href="#u"/><use transform="matrix(0.05,0,0,0.05,45.95,0)" xlink:href="#v"/><use transform="matrix(0.05,0,0,0.05,55.95,0)" xlink:href="#k"/><use transform="matrix(0.05,0,0,0.05,65.95,0)" xlink:href="#w"/></g><path d="M87 75C49 33 22-17 22-94c0-76 28-126 65-167h31c-38 41-64 92-64 168S80 34 118 75H87" id="x"/><path d="M33-261c38 41 65 92 65 168S71 34 33 75H2C39 34 66-17 66-93S39-220 2-261h31" id="y"/><g id="e"><use transform="matrix(0.05,0,0,0.05,0,0)" xlink:href="#h"/><use transform="matrix(0.05,0,0,0.05,3.95,0)" xlink:href="#i"/><use transform="matrix(0.05,0,0,0.05,7.9,0)" xlink:href="#w"/><use transform="matrix(0.05,0,0,0.05,17.9,0)" xlink:href="#m"/><use transform="matrix(0.05,0,0,0.05,27.899999999999995,0)" xlink:href="#x"/><use transform="matrix(0.05,0,0,0.05,33.85,0)" xlink:href="#y"/></g><path d="M140-251c81 0 123 46 123 126C263-46 219 4 140 4 59 4 17-45 17-125s42-126 123-126zm0 227c63 0 89-41 89-101s-29-99-89-99c-61 0-89 39-89 99S79-25 140-24" id="z"/><g id="f"><use transform="matrix(0.05,0,0,0.05,0,0)" xlink:href="#l"/><use transform="matrix(0.05,0,0,0.05,5,0)" xlink:href="#v"/><use transform="matrix(0.05,0,0,0.05,15,0)" xlink:href="#p"/><use transform="matrix(0.05,0,0,0.05,20.95,0)" xlink:href="#k"/><use transform="matrix(0.05,0,0,0.05,30.950000000000003,0)" xlink:href="#z"/><use transform="matrix(0.05,0,0,0.05,44.95,0)" xlink:href="#k"/><use transform="matrix(0.05,0,0,0.05,54.95,0)" xlink:href="#x"/><use transform="matrix(0.05,0,0,0.05,60.900000000000006,0)" xlink:href="#y"/></g></defs></g></svg>