<svg xmlns="http://www.w3.org/2000/svg" xmlns:xlink="http://www.w3.org/1999/xlink" xmlns:lucid="lucid" width="760" height="120"><g transform="translate(-700 -260)" lucid:page-tab-id="0_0"><path d="M0 0h1760v1360H0z" fill="#fff"/><path d="M736 280c-8.84 0-16 7.16-16 16v48c0 8.84 7.16 16 16 16h128c8.84 0 16-7.16 16-16v-48c0-8.84-7.16-16-16-16z" stroke="#000" stroke-width="2" fill="#fff"/><use xlink:href="#a" transform="matrix(1,0,0,1,728,288) translate(54.05 35.6)"/><path d="M1016 280c-8.84 0-16 7.16-16 16v48c0 8.84 7.16 16 16 16h148c8.84 0 16-7.16 16-16v-48c0-8.84-7.16-16-16-16z" stroke="#000" stroke-width="2" fill="#fff"/><use xlink:href="#b" transform="matrix(1,0,0,1,1008,288) translate(67.5 23.866639999999997)"/><use xlink:href="#c" transform="matrix(1,0,0,1,1008,288) translate(-2.1180788888888884 46.71112)"/><path d="M1296 280c-8.84 0-16 7.16-16 16v48c0 8.84 7.16 16 16 16h128c8.84 0 16-7.16 16-16v-48c0-8.84-7.16-16-16-16z" stroke="#000" stroke-width="2" fill="#fff"/><use xlink:href="#d" transform="matrix(1,0,0,1,1288,288) translate(0.8424716666666683 35.91112)"/><use xlink:href="#e" transform="matrix(1,0,0,1,1288,288) translate(24.84247166666667 35.91112)"/><path d="M882 320h98.5" stroke="#000" stroke-width="2" fill="none"/><path d="M882.03 321H881v-2h1.03z"/><path d="M995.76 320l-14.26 4.64v-9.28z" stroke="#000" stroke-width="2"/><path d="M1182 320h78.5" stroke="#000" stroke-width="2" fill="none"/><path d="M1182.03 321H1181v-2h1.03z"/><path d="M1275.76 320l-14.26 4.64v-9.28z" stroke="#000" stroke-width="2"/><defs><path d="M108 0H70L1-190h34L89-25l56-165h34" id="f"/><path d="M24-231v-30h32v30H24zM24 0v-190h32V0H24" id="g"/><path d="M100-194c63 0 86 42 84 106H49c0 40 14 67 53 68 26 1 43-12 49-29l28 8c-11 28-37 45-77 45C44 4 14-33 15-96c1-61 26-98 85-98zm52 81c6-60-76-77-97-28-3 7-6 17-6 28h103" id="h"/><path d="M206 0h-36l-40-164L89 0H53L-1-190h32L70-26l43-164h34l41 164 42-164h31" id="i"/><g id="a"><use transform="matrix(0.05,0,0,0.05,0,0)" xlink:href="#f"/><use transform="matrix(0.05,0,0,0.05,9,0)" xlink:href="#g"/><use transform="matrix(0.05,0,0,0.05,12.949999999999998,0)" xlink:href="#h"/><use transform="matrix(0.05,0,0,0.05,22.95,0)" xlink:href="#i"/></g><path d="M115-194c55 1 70 41 70 98S169 2 115 4C84 4 66-9 55-30l1 105H24l-1-265h31l2 30c10-21 28-34 59-34zm-8 174c40 0 45-34 45-75s-6-73-45-74c-42 0-51 32-51 76 0 43 10 73 51 73" id="j"/><path d="M115-194c53 0 69 39 70 98 0 66-23 100-70 100C84 3 66-7 56-30L54 0H23l1-261h32v101c10-23 28-34 59-34zm-8 174c40 0 45-34 45-75 0-40-5-75-45-74-42 0-51 32-51 76 0 43 10 73 51 73" id="k"/><path d="M135-143c-3-34-86-38-87 0 15 53 115 12 119 90S17 21 10-45l28-5c4 36 97 45 98 0-10-56-113-15-118-90-4-57 82-63 122-42 12 7 21 19 24 35" id="l"/><g id="b"><use transform="matrix(0.05,0,0,0.05,0,0)" xlink:href="#j"/><use transform="matrix(0.05,0,0,0.05,10,0)" xlink:href="#k"/><use transform="matrix(0.05,0,0,0.05,20,0)" xlink:href="#l"/></g><path d="M87 75C49 33 22-17 22-94c0-76 28-126 65-167h31c-38 41-64 92-64 168S80 34 118 75H87" id="m"/><path d="M160-131c35 5 61 23 61 61C221 17 115-2 30 0v-248c76 3 177-17 177 60 0 33-19 50-47 57zm-97-11c50-1 110 9 110-42 0-47-63-36-110-37v79zm0 115c55-2 124 14 124-45 0-56-70-42-124-44v89" id="n"/><path d="M100-194c62-1 85 37 85 99 1 63-27 99-86 99S16-35 15-95c0-66 28-99 85-99zM99-20c44 1 53-31 53-75 0-43-8-75-51-75s-53 32-53 75 10 74 51 75" id="o"/><path d="M143 0L79-87 56-68V0H24v-261h32v163l83-92h37l-77 82L181 0h-38" id="p"/><path d="M185-189c-5-48-123-54-124 2 14 75 158 14 163 119 3 78-121 87-175 55-17-10-28-26-33-46l33-7c5 56 141 63 141-1 0-78-155-14-162-118-5-82 145-84 179-34 5 7 8 16 11 25" id="q"/><path d="M141-36C126-15 110 5 73 4 37 3 15-17 15-53c-1-64 63-63 125-63 3-35-9-54-41-54-24 1-41 7-42 31l-33-3c5-37 33-52 76-52 45 0 72 20 72 64v82c-1 20 7 32 28 27v20c-31 9-61-2-59-35zM48-53c0 20 12 33 32 33 41-3 63-29 60-74-43 2-92-5-92 41" id="r"/><path d="M114-163C36-179 61-72 57 0H25l-1-190h30c1 12-1 29 2 39 6-27 23-49 58-41v29" id="s"/><path d="M96-169c-40 0-48 33-48 73s9 75 48 75c24 0 41-14 43-38l32 2c-6 37-31 61-74 61-59 0-76-41-82-99-10-93 101-131 147-64 4 7 5 14 7 22l-32 3c-4-21-16-35-41-35" id="t"/><path d="M106-169C34-169 62-67 57 0H25v-261h32l-1 103c12-21 28-36 61-36 89 0 53 116 60 194h-32v-121c2-32-8-49-39-48" id="u"/><path d="M30-248c87 1 191-15 191 75 0 78-77 80-158 76V0H30v-248zm33 125c57 0 124 11 124-50 0-59-68-47-124-48v98" id="v"/><path d="M141 0L90-78 38 0H4l68-98-65-92h35l48 74 47-74h35l-64 92 68 98h-35" id="w"/><path d="M179-190L93 31C79 59 56 82 12 73V49c39 6 53-20 64-50L1-190h34L92-34l54-156h33" id="x"/><path d="M33-261c38 41 65 92 65 168S71 34 33 75H2C39 34 66-17 66-93S39-220 2-261h31" id="y"/><g id="c"><use transform="matrix(0.05,0,0,0.05,0,0)" xlink:href="#m"/><use transform="matrix(0.05432111111111112,0,0,0.05432111111111112,5.95,0)" xlink:href="#n"/><use transform="matrix(0.05432111111111112,0,0,0.05432111111111112,18.987066666666667,0)" xlink:href="#o"/><use transform="matrix(0.05432111111111112,0,0,0.05432111111111112,29.85128888888889,0)" xlink:href="#o"/><use transform="matrix(0.05432111111111112,0,0,0.05432111111111112,40.71551111111111,0)" xlink:href="#p"/><use transform="matrix(0.05432111111111112,0,0,0.05432111111111112,50.49331111111111,0)" xlink:href="#q"/><use transform="matrix(0.05432111111111112,0,0,0.05432111111111112,63.53037777777778,0)" xlink:href="#h"/><use transform="matrix(0.05432111111111112,0,0,0.05432111111111112,74.3946,0)" xlink:href="#r"/><use transform="matrix(0.05432111111111112,0,0,0.05432111111111112,85.25882222222222,0)" xlink:href="#s"/><use transform="matrix(0.05432111111111112,0,0,0.05432111111111112,91.72303444444444,0)" xlink:href="#t"/><use transform="matrix(0.05432111111111112,0,0,0.05432111111111112,101.50083444444444,0)" xlink:href="#u"/><use transform="matrix(0.05432111111111112,0,0,0.05432111111111112,112.36505666666665,0)" xlink:href="#v"/><use transform="matrix(0.05432111111111112,0,0,0.05432111111111112,125.40212333333332,0)" xlink:href="#s"/><use transform="matrix(0.05432111111111112,0,0,0.05432111111111112,131.86633555555554,0)" xlink:href="#o"/><use transform="matrix(0.05432111111111112,0,0,0.05432111111111112,142.73055777777776,0)" xlink:href="#w"/><use transform="matrix(0.05432111111111112,0,0,0.05432111111111112,152.50835777777777,0)" xlink:href="#x"/><use transform="matrix(0.05,0,0,0.05,162.2861577777778,0)" xlink:href="#y"/></g><g id="d"><use transform="matrix(0.05,0,0,0.05,0,0)" xlink:href="#k"/><use transform="matrix(0.05,0,0,0.05,10,0)" xlink:href="#l"/></g><g id="e"><use transform="matrix(0.05,0,0,0.05,0,0)" xlink:href="#m"/><use transform="matrix(0.05432111111111112,0,0,0.05432111111111112,5.95,0)" xlink:href="#n"/><use transform="matrix(0.05432111111111112,0,0,0.05432111111111112,18.987066666666667,0)" xlink:href="#o"/><use transform="matrix(0.05432111111111112,0,0,0.05432111111111112,29.85128888888889,0)" xlink:href="#o"/><use transform="matrix(0.05432111111111112,0,0,0.05432111111111112,40.71551111111111,0)" xlink:href="#p"/><use transform="matrix(0.05432111111111112,0,0,0.05432111111111112,50.49331111111111,0)" xlink:href="#q"/><use transform="matrix(0.05432111111111112,0,0,0.05432111111111112,63.53037777777778,0)" xlink:href="#h"/><use transform="matrix(0.05432111111111112,0,0,0.05432111111111112,74.3946,0)" xlink:href="#r"/><use transform="matrix(0.05432111111111112,0,0,0.05432111111111112,85.25882222222222,0)" xlink:href="#s"/><use transform="matrix(0.05432111111111112,0,0,0.05432111111111112,91.72303444444444,0)" xlink:href="#t"/><use transform="matrix(0.05432111111111112,0,0,0.05432111111111112,101.50083444444444,0)" xlink:href="#u"/><use transform="matrix(0.05,0,0,0.05,112.36505666666665,0)" xlink:href="#y"/></g></defs></g></svg>