<svg xmlns="http://www.w3.org/2000/svg" xmlns:xlink="http://www.w3.org/1999/xlink" xmlns:lucid="lucid" width="974" height="551"><g transform="translate(20 -40)" lucid:page-tab-id="0_0"><path d="M0 0h1870.4v1323.2H0z" fill="#fff"/><path d="M140 60h140v80H140z" stroke="#000" stroke-width="2" fill="#fff"/><use xlink:href="#a" transform="matrix(1,0,0,1,140,60) translate(21.57999999999999 44.4)"/><path d="M210 142v2.98m0 3.97v5.96m0 3.98v5.96m0 3.98v5.96m0 3.97v5.96m0 3.98v5.96m0 3.97v5.97m0 3.97v5.96m0 3.98v5.95m0 3.98v5.97m0 3.97v5.96m0 3.97v5.96m0 3.97v5.96m0 3.97v5.96m0 3.97v5.96m0 3.97v5.96m0 3.97v5.96m0 3.96v5.96m0 3.97v5.95m0 3.98v5.95m0 3.98v5.96m0 3.97v5.95m0 3.97v5.96m0 3.97v5.96m0 3.98v5.96m0 3.98v5.96m0 3.97v5.96m0 3.98v5.96m0 3.97v5.97m0 3.97V433m0 3.98v5.95m0 3.98v5.97m0 3.97v5.96m0 3.97v5.96m0 3.97v5.96m0 3.97v5.96m0 3.97v5.96m0 3.97v5.96m0 3.97v5.96m0 3.96v5.96m0 3.97v5.95m0 3.98v5.95m0 3.98v5.96m0 3.97v5.95m0 3.97V579" stroke="#000" stroke-width="2" fill="none"/><path d="M211 142.03h-2V141h2z"/><path d="M210 578.97V580" stroke="#000" stroke-width="2" fill="none"/><path d="M190 200h40v360h-40zM434 60h140v80H434z" stroke="#000" stroke-width="2" fill="#fff"/><use xlink:href="#b" transform="matrix(1,0,0,1,434,60) translate(19.104999999999997 44.4)"/><path d="M504 142v2.97m0 3.95v5.93m0 3.96v5.94m0 3.95v5.92m0 3.96v5.93m0 3.97v5.93m0 3.95v5.93m0 3.96v5.93m0 3.95v5.94m0 3.95v5.94m0 3.96v5.93m0 3.95v5.94m0 3.95v5.93m0 3.96v5.93m0 3.94v5.93m0 3.96v5.93m0 3.96v5.93m0 3.95v5.93m0 3.96v5.92m0 3.95v5.94m0 3.96v5.93m0 3.95v5.93m0 3.95v5.94m0 3.95v5.93m0 3.96v5.94m0 3.95v5.92m0 3.96V402m0 3.97v5.93m0 3.95v5.93m0 3.96v5.93m0 3.95v5.94m0 3.95v5.94m0 3.96v5.93m0 3.95v5.94m0 3.95v5.93m0 3.96V491m0 3.94v5.94m0 3.95v5.93m0 3.96v5.93m0 3.95v5.93m0 3.96v5.92m0 3.96v5.93m0 3.96v5.93m0 3.95v5.93m0 3.95V577" stroke="#000" stroke-width="2" fill="none"/><path d="M505 142.03h-2V141h2z"/><path d="M504 576.97V578" stroke="#000" stroke-width="2" fill="none"/><path d="M480 300h40v40h-40zM220 260h40v260h-40zM614 60h140v80H614z" stroke="#000" stroke-width="2" fill="#fff"/><use xlink:href="#c" transform="matrix(1,0,0,1,614,60) translate(19.104999999999997 44.4)"/><path d="M684 142v2.97m0 3.95v5.93m0 3.96v5.94m0 3.95v5.92m0 3.96v5.93m0 3.97v5.93m0 3.95v5.93m0 3.96v5.93m0 3.95v5.94m0 3.95v5.94m0 3.96v5.93m0 3.95v5.94m0 3.95v5.93m0 3.96v5.93m0 3.94v5.93m0 3.96v5.93m0 3.96v5.93m0 3.95v5.93m0 3.96v5.92m0 3.95v5.94m0 3.96v5.93m0 3.95v5.93m0 3.95v5.94m0 3.95v5.93m0 3.96v5.94m0 3.95v5.92m0 3.96V402m0 3.97v5.93m0 3.95v5.93m0 3.96v5.93m0 3.95v5.94m0 3.95v5.94m0 3.96v5.93m0 3.95v5.94m0 3.95v5.93m0 3.96V491m0 3.94v5.94m0 3.95v5.93m0 3.96v5.93m0 3.95v5.93m0 3.96v5.92m0 3.96v5.93m0 3.96v5.93m0 3.95v5.93m0 3.95V577" stroke="#000" stroke-width="2" fill="none"/><path d="M685 142.03h-2V141h2z"/><path d="M684 576.97V578" stroke="#000" stroke-width="2" fill="none"/><path d="M794 60h140v80H794z" stroke="#000" stroke-width="2" fill="#fff"/><use xlink:href="#d" transform="matrix(1,0,0,1,794,60) translate(19.104999999999997 44.4)"/><path d="M864 142v2.97m0 3.95v5.93m0 3.96v5.94m0 3.95v5.92m0 3.96v5.93m0 3.97v5.93m0 3.95v5.93m0 3.96v5.93m0 3.95v5.94m0 3.95v5.94m0 3.96v5.93m0 3.95v5.94m0 3.95v5.93m0 3.96v5.93m0 3.94v5.93m0 3.96v5.93m0 3.96v5.93m0 3.95v5.93m0 3.96v5.92m0 3.95v5.94m0 3.96v5.93m0 3.95v5.93m0 3.95v5.94m0 3.95v5.93m0 3.96v5.94m0 3.95v5.92m0 3.96V402m0 3.97v5.93m0 3.95v5.93m0 3.96v5.93m0 3.95v5.94m0 3.95v5.94m0 3.96v5.93m0 3.95v5.94m0 3.95v5.93m0 3.96V491m0 3.94v5.94m0 3.95v5.93m0 3.96v5.93m0 3.95v5.93m0 3.96v5.92m0 3.96v5.93m0 3.96v5.93m0 3.95v5.93m0 3.95V577" stroke="#000" stroke-width="2" fill="none"/><path d="M865 142.03h-2V141h2z"/><path d="M864 576.97V578M261 380h379.5M261.03 380H260" stroke="#000" stroke-width="2" fill="none"/><path d="M655.76 380l-14.26 4.64v-9.28z" stroke="#000" stroke-width="2"/><use xlink:href="#e" transform="matrix(1,0,0,1,426.05,354.4) translate(0 14.4)"/><path d="M660 380h40v40h-40zM840 460h40v40h-40z" stroke="#000" stroke-width="2" fill="#fff"/><path d="M261 460h559.5M261.03 460H260" stroke="#000" stroke-width="2" fill="none"/><path d="M835.76 460l-14.26 4.64v-9.28z" stroke="#000" stroke-width="2"/><use xlink:href="#e" transform="matrix(1,0,0,1,516.05,434.4) translate(0 14.4)"/><path d="M262 307.33h198.5" stroke="#000" stroke-width="2" fill="none"/><path d="M262.03 308.33H261v-2h1.03z"/><path d="M475.76 307.33l-14.26 4.64v-9.27z" stroke="#000" stroke-width="2"/><use xlink:href="#e" transform="matrix(1,0,0,1,336.55,281.7333333333333) translate(0 14.4)"/><path d="M200 220h240v60H200z" stroke="#000" stroke-opacity="0" stroke-width="2" fill="#fff" fill-opacity="0"/><use xlink:href="#f" transform="matrix(1,0,0,1,205,225) translate(46.125 28.6)"/><path d="M81 200h89.5M81.03 200H80" stroke="#000" stroke-width="2" fill="none"/><path d="M185.76 200l-14.26 4.64v-9.28z" stroke="#000" stroke-width="2"/><path d="M0 160h240v60H0z" stroke="#000" stroke-opacity="0" stroke-width="2" fill="#fff" fill-opacity="0"/><use xlink:href="#g" transform="matrix(1,0,0,1,5,165) translate(75.1 28.6)"/><defs><path d="M59-47c-2 24 18 29 38 22v24C64 9 27 4 27-40v-127H5v-23h24l9-43h21v43h35v23H59v120" id="h"/><path d="M100-194c63 0 86 42 84 106H49c0 40 14 67 53 68 26 1 43-12 49-29l28 8c-11 28-37 45-77 45C44 4 14-33 15-96c1-61 26-98 85-98zm52 81c6-60-76-77-97-28-3 7-6 17-6 28h103" id="i"/><path d="M210-169c-67 3-38 105-44 169h-31v-121c0-29-5-50-35-48C34-165 62-65 56 0H25l-1-190h30c1 10-1 24 2 32 10-44 99-50 107 0 11-21 27-35 58-36 85-2 47 119 55 194h-31v-121c0-29-5-49-35-48" id="j"/><path d="M115-194c55 1 70 41 70 98S169 2 115 4C84 4 66-9 55-30l1 105H24l-1-265h31l2 30c10-21 28-34 59-34zm-8 174c40 0 45-34 45-75s-6-73-45-74c-42 0-51 32-51 76 0 43 10 73 51 73" id="k"/><path d="M114-163C36-179 61-72 57 0H25l-1-190h30c1 12-1 29 2 39 6-27 23-49 58-41v29" id="l"/><path d="M141-36C126-15 110 5 73 4 37 3 15-17 15-53c-1-64 63-63 125-63 3-35-9-54-41-54-24 1-41 7-42 31l-33-3c5-37 33-52 76-52 45 0 72 20 72 64v82c-1 20 7 32 28 27v20c-31 9-61-2-59-35zM48-53c0 20 12 33 32 33 41-3 63-29 60-74-43 2-92-5-92 41" id="m"/><path d="M84 4C-5 8 30-112 23-190h32v120c0 31 7 50 39 49 72-2 45-101 50-169h31l1 190h-30c-1-10 1-25-2-33-11 22-28 36-60 37" id="n"/><g id="a"><use transform="matrix(0.05,0,0,0.05,0,0)" xlink:href="#h"/><use transform="matrix(0.05,0,0,0.05,5,0)" xlink:href="#i"/><use transform="matrix(0.05,0,0,0.05,15,0)" xlink:href="#j"/><use transform="matrix(0.05,0,0,0.05,29.950000000000003,0)" xlink:href="#k"/><use transform="matrix(0.05,0,0,0.05,39.95,0)" xlink:href="#i"/><use transform="matrix(0.05,0,0,0.05,49.95,0)" xlink:href="#l"/><use transform="matrix(0.05,0,0,0.05,55.900000000000006,0)" xlink:href="#m"/><use transform="matrix(0.05,0,0,0.05,65.9,0)" xlink:href="#h"/><use transform="matrix(0.05,0,0,0.05,70.9,0)" xlink:href="#n"/><use transform="matrix(0.05,0,0,0.05,80.9,0)" xlink:href="#l"/><use transform="matrix(0.05,0,0,0.05,86.85000000000001,0)" xlink:href="#m"/></g><path d="M100-194c62-1 85 37 85 99 1 63-27 99-86 99S16-35 15-95c0-66 28-99 85-99zM99-20c44 1 53-31 53-75 0-43-8-75-51-75s-53 32-53 75 10 74 51 75" id="o"/><path d="M27 0v-27h64v-190l-56 39v-29l58-41h29v221h61V0H27" id="p"/><g id="b"><use transform="matrix(0.05,0,0,0.05,0,0)" xlink:href="#h"/><use transform="matrix(0.05,0,0,0.05,5,0)" xlink:href="#i"/><use transform="matrix(0.05,0,0,0.05,15,0)" xlink:href="#l"/><use transform="matrix(0.05,0,0,0.05,20.95,0)" xlink:href="#j"/><use transform="matrix(0.05,0,0,0.05,35.9,0)" xlink:href="#o"/><use transform="matrix(0.05,0,0,0.05,45.9,0)" xlink:href="#j"/><use transform="matrix(0.05,0,0,0.05,60.85,0)" xlink:href="#i"/><use transform="matrix(0.05,0,0,0.05,70.85,0)" xlink:href="#h"/><use transform="matrix(0.05,0,0,0.05,75.85,0)" xlink:href="#l"/><use transform="matrix(0.05,0,0,0.05,81.8,0)" xlink:href="#o"/><use transform="matrix(0.05,0,0,0.05,91.8,0)" xlink:href="#p"/></g><path d="M101-251c82-7 93 87 43 132L82-64C71-53 59-42 53-27h129V0H18c2-99 128-94 128-182 0-28-16-43-45-43s-46 15-49 41l-32-3c6-41 34-60 81-64" id="q"/><g id="c"><use transform="matrix(0.05,0,0,0.05,0,0)" xlink:href="#h"/><use transform="matrix(0.05,0,0,0.05,5,0)" xlink:href="#i"/><use transform="matrix(0.05,0,0,0.05,15,0)" xlink:href="#l"/><use transform="matrix(0.05,0,0,0.05,20.95,0)" xlink:href="#j"/><use transform="matrix(0.05,0,0,0.05,35.9,0)" xlink:href="#o"/><use transform="matrix(0.05,0,0,0.05,45.9,0)" xlink:href="#j"/><use transform="matrix(0.05,0,0,0.05,60.85,0)" xlink:href="#i"/><use transform="matrix(0.05,0,0,0.05,70.85,0)" xlink:href="#h"/><use transform="matrix(0.05,0,0,0.05,75.85,0)" xlink:href="#l"/><use transform="matrix(0.05,0,0,0.05,81.8,0)" xlink:href="#o"/><use transform="matrix(0.05,0,0,0.05,91.8,0)" xlink:href="#q"/></g><path d="M126-127c33 6 58 20 58 59 0 88-139 92-164 29-3-8-5-16-6-25l32-3c6 27 21 44 54 44 32 0 52-15 52-46 0-38-36-46-79-43v-28c39 1 72-4 72-42 0-27-17-43-46-43-28 0-47 15-49 41l-32-3c6-42 35-63 81-64 48-1 79 21 79 65 0 36-21 52-52 59" id="r"/><g id="d"><use transform="matrix(0.05,0,0,0.05,0,0)" xlink:href="#h"/><use transform="matrix(0.05,0,0,0.05,5,0)" xlink:href="#i"/><use transform="matrix(0.05,0,0,0.05,15,0)" xlink:href="#l"/><use transform="matrix(0.05,0,0,0.05,20.95,0)" xlink:href="#j"/><use transform="matrix(0.05,0,0,0.05,35.9,0)" xlink:href="#o"/><use transform="matrix(0.05,0,0,0.05,45.9,0)" xlink:href="#j"/><use transform="matrix(0.05,0,0,0.05,60.85,0)" xlink:href="#i"/><use transform="matrix(0.05,0,0,0.05,70.85,0)" xlink:href="#h"/><use transform="matrix(0.05,0,0,0.05,75.85,0)" xlink:href="#l"/><use transform="matrix(0.05,0,0,0.05,81.8,0)" xlink:href="#o"/><use transform="matrix(0.05,0,0,0.05,91.8,0)" xlink:href="#r"/></g><path d="M85-194c31 0 48 13 60 33l-1-100h32l1 261h-30c-2-10 0-23-3-31C134-8 116 4 85 4 32 4 16-35 15-94c0-66 23-100 70-100zm9 24c-40 0-46 34-46 75 0 40 6 74 45 74 42 0 51-32 51-76 0-42-9-74-50-73" id="s"/><path d="M87 75C49 33 22-17 22-94c0-76 28-126 65-167h31c-38 41-64 92-64 168S80 34 118 75H87" id="t"/><path d="M33-261c38 41 65 92 65 168S71 34 33 75H2C39 34 66-17 66-93S39-220 2-261h31" id="u"/><g id="e"><use transform="matrix(0.05,0,0,0.05,0,0)" xlink:href="#n"/><use transform="matrix(0.05,0,0,0.05,10,0)" xlink:href="#k"/><use transform="matrix(0.05,0,0,0.05,20,0)" xlink:href="#s"/><use transform="matrix(0.05,0,0,0.05,30,0)" xlink:href="#m"/><use transform="matrix(0.05,0,0,0.05,40,0)" xlink:href="#h"/><use transform="matrix(0.05,0,0,0.05,45,0)" xlink:href="#i"/><use transform="matrix(0.05,0,0,0.05,55,0)" xlink:href="#t"/><use transform="matrix(0.05,0,0,0.05,60.95,0)" xlink:href="#u"/></g><path d="M117-194c89-4 53 116 60 194h-32v-121c0-31-8-49-39-48C34-167 62-67 57 0H25l-1-190h30c1 10-1 24 2 32 11-22 29-35 61-36" id="v"/><path d="M24-231v-30h32v30H24zM24 0v-190h32V0H24" id="w"/><path d="M101-234c-31-9-42 10-38 44h38v23H63V0H32v-167H5v-23h27c-7-52 17-82 69-68v24" id="x"/><path d="M179-190L93 31C79 59 56 82 12 73V49c39 6 53-20 64-50L1-190h34L92-34l54-156h33" id="y"/><path d="M140-251c81 0 123 46 123 126C263-46 219 4 140 4 59 4 17-45 17-125s42-126 123-126zm0 227c63 0 89-41 89-101s-29-99-89-99c-61 0-89 39-89 99S79-25 140-24" id="z"/><path d="M115-194c53 0 69 39 70 98 0 66-23 100-70 100C84 3 66-7 56-30L54 0H23l1-261h32v101c10-23 28-34 59-34zm-8 174c40 0 45-34 45-75 0-40-5-75-45-74-42 0-51 32-51 76 0 43 10 73 51 73" id="A"/><path d="M135-143c-3-34-86-38-87 0 15 53 115 12 119 90S17 21 10-45l28-5c4 36 97 45 98 0-10-56-113-15-118-90-4-57 82-63 122-42 12 7 21 19 24 35" id="B"/><path d="M108 0H70L1-190h34L89-25l56-165h34" id="C"/><g id="f"><use transform="matrix(0.05,0,0,0.05,0,0)" xlink:href="#v"/><use transform="matrix(0.05,0,0,0.05,10,0)" xlink:href="#o"/><use transform="matrix(0.05,0,0,0.05,20,0)" xlink:href="#h"/><use transform="matrix(0.05,0,0,0.05,25,0)" xlink:href="#w"/><use transform="matrix(0.05,0,0,0.05,28.950000000000003,0)" xlink:href="#x"/><use transform="matrix(0.05,0,0,0.05,33.95,0)" xlink:href="#y"/><use transform="matrix(0.05,0,0,0.05,42.95,0)" xlink:href="#z"/><use transform="matrix(0.05,0,0,0.05,56.95,0)" xlink:href="#A"/><use transform="matrix(0.05,0,0,0.05,66.95,0)" xlink:href="#B"/><use transform="matrix(0.05,0,0,0.05,75.95,0)" xlink:href="#i"/><use transform="matrix(0.05,0,0,0.05,85.95,0)" xlink:href="#l"/><use transform="matrix(0.05,0,0,0.05,91.9,0)" xlink:href="#C"/><use transform="matrix(0.05,0,0,0.05,100.9,0)" xlink:href="#i"/><use transform="matrix(0.05,0,0,0.05,110.9,0)" xlink:href="#l"/><use transform="matrix(0.05,0,0,0.05,116.85000000000001,0)" xlink:href="#B"/><use transform="matrix(0.05,0,0,0.05,125.85000000000001,0)" xlink:href="#t"/><use transform="matrix(0.05,0,0,0.05,131.8,0)" xlink:href="#u"/></g><path d="M127-220V0H93v-220H8v-28h204v28h-85" id="D"/><g id="g"><use transform="matrix(0.05,0,0,0.05,0,0)" xlink:href="#B"/><use transform="matrix(0.05,0,0,0.05,9,0)" xlink:href="#i"/><use transform="matrix(0.05,0,0,0.05,19,0)" xlink:href="#h"/><use transform="matrix(0.05,0,0,0.05,24,0)" xlink:href="#D"/><use transform="matrix(0.05,0,0,0.05,32.95,0)" xlink:href="#i"/><use transform="matrix(0.05,0,0,0.05,42.95,0)" xlink:href="#j"/><use transform="matrix(0.05,0,0,0.05,57.900000000000006,0)" xlink:href="#k"/><use transform="matrix(0.05,0,0,0.05,67.9,0)" xlink:href="#t"/><use transform="matrix(0.05,0,0,0.05,73.85000000000001,0)" xlink:href="#u"/></g></defs></g></svg>