<svg xmlns="http://www.w3.org/2000/svg" xmlns:xlink="http://www.w3.org/1999/xlink" xmlns:lucid="lucid" width="670" height="453.39"><g transform="translate(-11 29.818333333333356)" lucid:page-tab-id="0_0"><path d="M0-1259.2h1870.4v2582.4H0z" fill="#fff"/><path d="M32-8.82h628v411.4H32z" stroke="#000" stroke-width="2" fill="#e5e5e5"/><use xlink:href="#a" transform="matrix(1,0,0,1,37,-3.8183333333333564) translate(0 25.125694444444445)"/><use xlink:href="#b" transform="matrix(1,0,0,1,37,-3.8183333333333564) translate(15.703703703703704 25.125694444444445)"/><use xlink:href="#c" transform="matrix(1,0,0,1,37,-3.8183333333333564) translate(108.48641975308644 25.125694444444445)"/><use xlink:href="#d" transform="matrix(1,0,0,1,37,-3.8183333333333564) translate(206.5691358024692 25.125694444444445)"/><use xlink:href="#e" transform="matrix(1,0,0,1,37,-3.8183333333333564) translate(0 59.045694444444436)"/><use xlink:href="#f" transform="matrix(1,0,0,1,37,-3.8183333333333564) translate(41.876543209876544 59.045694444444436)"/><use xlink:href="#g" transform="matrix(1,0,0,1,37,-3.8183333333333564) translate(98.0172839506173 59.045694444444436)"/><use xlink:href="#e" transform="matrix(1,0,0,1,37,-3.8183333333333564) translate(0 92.96569444444444)"/><use xlink:href="#h" transform="matrix(1,0,0,1,37,-3.8183333333333564) translate(41.876543209876544 92.96569444444444)"/><use xlink:href="#g" transform="matrix(1,0,0,1,37,-3.8183333333333564) translate(150.2320987654321 92.96569444444444)"/><use xlink:href="#e" transform="matrix(1,0,0,1,37,-3.8183333333333564) translate(0 126.88569444444444)"/><use xlink:href="#i" transform="matrix(1,0,0,1,37,-3.8183333333333564) translate(41.876543209876544 126.88569444444444)"/><use xlink:href="#g" transform="matrix(1,0,0,1,37,-3.8183333333333564) translate(141.20246913580246 126.88569444444444)"/><use xlink:href="#e" transform="matrix(1,0,0,1,37,-3.8183333333333564) translate(0 160.8056944444444)"/><use xlink:href="#j" transform="matrix(1,0,0,1,37,-3.8183333333333564) translate(41.876543209876544 160.8056944444444)"/><use xlink:href="#g" transform="matrix(1,0,0,1,37,-3.8183333333333564) translate(211.67283950617286 160.8056944444444)"/><use xlink:href="#a" transform="matrix(1,0,0,1,37,-3.8183333333333564) translate(0 194.7256944444444)"/><use xlink:href="#k" transform="matrix(1,0,0,1,37,-3.8183333333333564) translate(15.703703703703704 194.7256944444444)"/><use xlink:href="#d" transform="matrix(1,0,0,1,37,-3.8183333333333564) translate(130.66790123456792 194.7256944444444)"/><use xlink:href="#e" transform="matrix(1,0,0,1,37,-3.8183333333333564) translate(0 228.6456944444444)"/><use xlink:href="#k" transform="matrix(1,0,0,1,37,-3.8183333333333564) translate(41.876543209876544 228.6456944444444)"/><use xlink:href="#l" transform="matrix(1,0,0,1,37,-3.8183333333333564) translate(156.84074074074076 228.6456944444444)"/><use xlink:href="#m" transform="matrix(1,0,0,1,37,-3.8183333333333564) translate(297.9123456790124 228.6456944444444)"/><use xlink:href="#e" transform="matrix(1,0,0,1,37,-3.8183333333333564) translate(0 262.5656944444444)"/><use xlink:href="#k" transform="matrix(1,0,0,1,37,-3.8183333333333564) translate(41.876543209876544 262.5656944444444)"/><use xlink:href="#l" transform="matrix(1,0,0,1,37,-3.8183333333333564) translate(156.84074074074076 262.5656944444444)"/><use xlink:href="#n" transform="matrix(1,0,0,1,37,-3.8183333333333564) translate(297.9123456790124 262.5656944444444)"/><use xlink:href="#e" transform="matrix(1,0,0,1,37,-3.8183333333333564) translate(0 296.4856944444444)"/><use xlink:href="#o" transform="matrix(1,0,0,1,37,-3.8183333333333564) translate(41.876543209876544 296.4856944444444)"/><use xlink:href="#a" transform="matrix(1,0,0,1,37,-3.8183333333333564) translate(0 330.4056944444444)"/><use xlink:href="#p" transform="matrix(1,0,0,1,37,-3.8183333333333564) translate(15.703703703703704 330.4056944444444)"/><use xlink:href="#d" transform="matrix(1,0,0,1,37,-3.8183333333333564) translate(156.84074074074076 330.4056944444444)"/><use xlink:href="#a" transform="matrix(1,0,0,1,37,-3.8183333333333564) translate(0 364.3256944444444)"/><use xlink:href="#q" transform="matrix(1,0,0,1,37,-3.8183333333333564) translate(15.703703703703704 364.3256944444444)"/><use xlink:href="#r" transform="matrix(1,0,0,1,37,-3.8183333333333564) translate(95.40000000000002 364.3256944444444)"/><use xlink:href="#a" transform="matrix(1,0,0,1,37,-3.8183333333333564) translate(0 398.24569444444444)"/><use xlink:href="#s" transform="matrix(1,0,0,1,37,-3.8183333333333564) translate(15.703703703703704 398.24569444444444)"/><use xlink:href="#t" transform="matrix(1,0,0,1,37,-3.8183333333333564) translate(81.07037037037038 398.24569444444444)"/><defs><path d="M80-196l47-18 7 23-49 13 32 44-20 13-27-46-27 45-21-12 33-44-49-13 8-23 47 19-2-53h23" id="u"/><use transform="matrix(0.0654320987654321,0,0,0.0654320987654321,0,0)" xlink:href="#u" id="a"/><path d="M30 0v-248h187v28H63v79h144v27H63v87h162V0H30" id="v"/><path d="M141 0L90-78 38 0H4l68-98-65-92h35l48 74 47-74h35l-64 92 68 98h-35" id="w"/><path d="M59-47c-2 24 18 29 38 22v24C64 9 27 4 27-40v-127H5v-23h24l9-43h21v43h35v23H59v120" id="x"/><path d="M100-194c63 0 86 42 84 106H49c0 40 14 67 53 68 26 1 43-12 49-29l28 8c-11 28-37 45-77 45C44 4 14-33 15-96c1-61 26-98 85-98zm52 81c6-60-76-77-97-28-3 7-6 17-6 28h103" id="y"/><path d="M114-163C36-179 61-72 57 0H25l-1-190h30c1 12-1 29 2 39 6-27 23-49 58-41v29" id="z"/><path d="M117-194c89-4 53 116 60 194h-32v-121c0-31-8-49-39-48C34-167 62-67 57 0H25l-1-190h30c1 10-1 24 2 32 11-22 29-35 61-36" id="A"/><path d="M141-36C126-15 110 5 73 4 37 3 15-17 15-53c-1-64 63-63 125-63 3-35-9-54-41-54-24 1-41 7-42 31l-33-3c5-37 33-52 76-52 45 0 72 20 72 64v82c-1 20 7 32 28 27v20c-31 9-61-2-59-35zM48-53c0 20 12 33 32 33 41-3 63-29 60-74-43 2-92-5-92 41" id="B"/><path d="M24 0v-261h32V0H24" id="C"/><g id="b"><use transform="matrix(0.0654320987654321,0,0,0.0654320987654321,0,0)" xlink:href="#v"/><use transform="matrix(0.0654320987654321,0,0,0.0654320987654321,15.703703703703704,0)" xlink:href="#w"/><use transform="matrix(0.0654320987654321,0,0,0.0654320987654321,27.48148148148148,0)" xlink:href="#x"/><use transform="matrix(0.0654320987654321,0,0,0.0654320987654321,34.02469135802469,0)" xlink:href="#y"/><use transform="matrix(0.0654320987654321,0,0,0.0654320987654321,47.111111111111114,0)" xlink:href="#z"/><use transform="matrix(0.0654320987654321,0,0,0.0654320987654321,54.897530864197535,0)" xlink:href="#A"/><use transform="matrix(0.0654320987654321,0,0,0.0654320987654321,67.98395061728395,0)" xlink:href="#B"/><use transform="matrix(0.0654320987654321,0,0,0.0654320987654321,81.07037037037037,0)" xlink:href="#C"/></g><path d="M33 0v-248h34V0H33" id="D"/><path d="M101-234c-31-9-42 10-38 44h38v23H63V0H32v-167H5v-23h27c-7-52 17-82 69-68v24" id="E"/><path d="M96-169c-40 0-48 33-48 73s9 75 48 75c24 0 41-14 43-38l32 2c-6 37-31 61-74 61-59 0-76-41-82-99-10-93 101-131 147-64 4 7 5 14 7 22l-32 3c-4-21-16-35-41-35" id="F"/><g id="c"><use transform="matrix(0.0654320987654321,0,0,0.0654320987654321,0,0)" xlink:href="#D"/><use transform="matrix(0.0654320987654321,0,0,0.0654320987654321,6.5432098765432105,0)" xlink:href="#A"/><use transform="matrix(0.0654320987654321,0,0,0.0654320987654321,19.629629629629633,0)" xlink:href="#x"/><use transform="matrix(0.0654320987654321,0,0,0.0654320987654321,26.172839506172842,0)" xlink:href="#y"/><use transform="matrix(0.0654320987654321,0,0,0.0654320987654321,39.25925925925927,0)" xlink:href="#z"/><use transform="matrix(0.0654320987654321,0,0,0.0654320987654321,47.04567901234569,0)" xlink:href="#E"/><use transform="matrix(0.0654320987654321,0,0,0.0654320987654321,53.588888888888896,0)" xlink:href="#B"/><use transform="matrix(0.0654320987654321,0,0,0.0654320987654321,66.67530864197532,0)" xlink:href="#F"/><use transform="matrix(0.0654320987654321,0,0,0.0654320987654321,78.4530864197531,0)" xlink:href="#y"/></g><path d="M233-177c-1 41-23 64-60 70L243 0h-38l-65-103H63V0H30v-248c88 3 205-21 203 71zM63-129c60-2 137 13 137-47 0-61-80-42-137-45v92" id="G"/><path d="M145-31C134-9 116 4 85 4 32 4 16-35 15-94c0-59 17-99 70-100 32-1 48 14 60 33 0-11-1-24 2-32h30l-1 268h-32zM93-21c41 0 51-33 51-76s-8-73-50-73c-40 0-46 35-46 75s5 74 45 74" id="H"/><path d="M84 4C-5 8 30-112 23-190h32v120c0 31 7 50 39 49 72-2 45-101 50-169h31l1 190h-30c-1-10 1-25-2-33-11 22-28 36-60 37" id="I"/><path d="M24-231v-30h32v30H24zM24 0v-190h32V0H24" id="J"/><path d="M210-169c-67 3-38 105-44 169h-31v-121c0-29-5-50-35-48C34-165 62-65 56 0H25l-1-190h30c1 10-1 24 2 32 10-44 99-50 107 0 11-21 27-35 58-36 85-2 47 119 55 194h-31v-121c0-29-5-49-35-48" id="K"/><path d="M135-143c-3-34-86-38-87 0 15 53 115 12 119 90S17 21 10-45l28-5c4 36 97 45 98 0-10-56-113-15-118-90-4-57 82-63 122-42 12 7 21 19 24 35" id="L"/><g id="d"><use transform="matrix(0.0654320987654321,0,0,0.0654320987654321,0,0)" xlink:href="#G"/><use transform="matrix(0.0654320987654321,0,0,0.0654320987654321,16.946913580246914,0)" xlink:href="#y"/><use transform="matrix(0.0654320987654321,0,0,0.0654320987654321,30.033333333333335,0)" xlink:href="#H"/><use transform="matrix(0.0654320987654321,0,0,0.0654320987654321,43.119753086419756,0)" xlink:href="#I"/><use transform="matrix(0.0654320987654321,0,0,0.0654320987654321,56.20617283950618,0)" xlink:href="#J"/><use transform="matrix(0.0654320987654321,0,0,0.0654320987654321,61.375308641975316,0)" xlink:href="#z"/><use transform="matrix(0.0654320987654321,0,0,0.0654320987654321,69.16172839506174,0)" xlink:href="#y"/><use transform="matrix(0.0654320987654321,0,0,0.0654320987654321,82.24814814814816,0)" xlink:href="#K"/><use transform="matrix(0.0654320987654321,0,0,0.0654320987654321,101.81234567901237,0)" xlink:href="#y"/><use transform="matrix(0.0654320987654321,0,0,0.0654320987654321,114.89876543209878,0)" xlink:href="#A"/><use transform="matrix(0.0654320987654321,0,0,0.0654320987654321,127.9851851851852,0)" xlink:href="#x"/><use transform="matrix(0.0654320987654321,0,0,0.0654320987654321,134.52839506172842,0)" xlink:href="#L"/></g><use transform="matrix(0.0654320987654321,0,0,0.0654320987654321,26.172839506172842,0)" xlink:href="#u" id="e"/><path d="M232-93c-1 65-40 97-104 97C67 4 28-28 28-90v-158h33c8 89-33 224 67 224 102 0 64-133 71-224h33v155" id="M"/><g id="f"><use transform="matrix(0.0654320987654321,0,0,0.0654320987654321,0,0)" xlink:href="#M"/><use transform="matrix(0.0654320987654321,0,0,0.0654320987654321,16.946913580246914,0)" xlink:href="#L"/><use transform="matrix(0.0654320987654321,0,0,0.0654320987654321,28.724691358024693,0)" xlink:href="#y"/><use transform="matrix(0.0654320987654321,0,0,0.0654320987654321,41.81111111111112,0)" xlink:href="#z"/></g><g id="g"><use transform="matrix(0.0654320987654321,0,0,0.0654320987654321,0,0)" xlink:href="#D"/><use transform="matrix(0.0654320987654321,0,0,0.0654320987654321,6.5432098765432105,0)" xlink:href="#A"/><use transform="matrix(0.0654320987654321,0,0,0.0654320987654321,19.629629629629633,0)" xlink:href="#x"/><use transform="matrix(0.0654320987654321,0,0,0.0654320987654321,26.172839506172842,0)" xlink:href="#y"/><use transform="matrix(0.0654320987654321,0,0,0.0654320987654321,39.25925925925927,0)" xlink:href="#z"/><use transform="matrix(0.0654320987654321,0,0,0.0654320987654321,47.04567901234569,0)" xlink:href="#E"/><use transform="matrix(0.0654320987654321,0,0,0.0654320987654321,53.588888888888896,0)" xlink:href="#B"/><use transform="matrix(0.0654320987654321,0,0,0.0654320987654321,66.67530864197532,0)" xlink:href="#F"/><use transform="matrix(0.0654320987654321,0,0,0.0654320987654321,78.4530864197531,0)" xlink:href="#y"/></g><path d="M197 0v-115H63V0H30v-248h33v105h134v-105h34V0h-34" id="N"/><path d="M85-194c31 0 48 13 60 33l-1-100h32l1 261h-30c-2-10 0-23-3-31C134-8 116 4 85 4 32 4 16-35 15-94c0-66 23-100 70-100zm9 24c-40 0-46 34-46 75 0 40 6 74 45 74 42 0 51-32 51-76 0-42-9-74-50-73" id="O"/><path d="M206 0h-36l-40-164L89 0H53L-1-190h32L70-26l43-164h34l41 164 42-164h31" id="P"/><g id="h"><use transform="matrix(0.0654320987654321,0,0,0.0654320987654321,0,0)" xlink:href="#N"/><use transform="matrix(0.0654320987654321,0,0,0.0654320987654321,16.946913580246914,0)" xlink:href="#B"/><use transform="matrix(0.0654320987654321,0,0,0.0654320987654321,30.033333333333335,0)" xlink:href="#z"/><use transform="matrix(0.0654320987654321,0,0,0.0654320987654321,37.81975308641975,0)" xlink:href="#O"/><use transform="matrix(0.0654320987654321,0,0,0.0654320987654321,50.90617283950617,0)" xlink:href="#P"/><use transform="matrix(0.0654320987654321,0,0,0.0654320987654321,67.85308641975308,0)" xlink:href="#B"/><use transform="matrix(0.0654320987654321,0,0,0.0654320987654321,80.9395061728395,0)" xlink:href="#z"/><use transform="matrix(0.0654320987654321,0,0,0.0654320987654321,88.7259259259259,0)" xlink:href="#y"/></g><path d="M185-189c-5-48-123-54-124 2 14 75 158 14 163 119 3 78-121 87-175 55-17-10-28-26-33-46l33-7c5 56 141 63 141-1 0-78-155-14-162-118-5-82 145-84 179-34 5 7 8 16 11 25" id="Q"/><path d="M100-194c62-1 85 37 85 99 1 63-27 99-86 99S16-35 15-95c0-66 28-99 85-99zM99-20c44 1 53-31 53-75 0-43-8-75-51-75s-53 32-53 75 10 74 51 75" id="R"/><g id="i"><use transform="matrix(0.0654320987654321,0,0,0.0654320987654321,0,0)" xlink:href="#Q"/><use transform="matrix(0.0654320987654321,0,0,0.0654320987654321,15.703703703703704,0)" xlink:href="#R"/><use transform="matrix(0.0654320987654321,0,0,0.0654320987654321,28.790123456790127,0)" xlink:href="#E"/><use transform="matrix(0.0654320987654321,0,0,0.0654320987654321,35.333333333333336,0)" xlink:href="#x"/><use transform="matrix(0.0654320987654321,0,0,0.0654320987654321,41.876543209876544,0)" xlink:href="#P"/><use transform="matrix(0.0654320987654321,0,0,0.0654320987654321,58.82345679012346,0)" xlink:href="#B"/><use transform="matrix(0.0654320987654321,0,0,0.0654320987654321,71.90987654320988,0)" xlink:href="#z"/><use transform="matrix(0.0654320987654321,0,0,0.0654320987654321,79.6962962962963,0)" xlink:href="#y"/></g><path d="M212-179c-10-28-35-45-73-45-59 0-87 40-87 99 0 60 29 101 89 101 43 0 62-24 78-52l27 14C228-24 195 4 139 4 59 4 22-46 18-125c-6-104 99-153 187-111 19 9 31 26 39 46" id="S"/><g id="j"><use transform="matrix(0.0654320987654321,0,0,0.0654320987654321,0,0)" xlink:href="#S"/><use transform="matrix(0.0654320987654321,0,0,0.0654320987654321,16.946913580246914,0)" xlink:href="#R"/><use transform="matrix(0.0654320987654321,0,0,0.0654320987654321,30.033333333333335,0)" xlink:href="#K"/><use transform="matrix(0.0654320987654321,0,0,0.0654320987654321,49.59753086419754,0)" xlink:href="#K"/><use transform="matrix(0.0654320987654321,0,0,0.0654320987654321,69.16172839506174,0)" xlink:href="#I"/><use transform="matrix(0.0654320987654321,0,0,0.0654320987654321,82.24814814814816,0)" xlink:href="#A"/><use transform="matrix(0.0654320987654321,0,0,0.0654320987654321,95.33456790123459,0)" xlink:href="#J"/><use transform="matrix(0.0654320987654321,0,0,0.0654320987654321,100.50370370370372,0)" xlink:href="#F"/><use transform="matrix(0.0654320987654321,0,0,0.0654320987654321,112.2814814814815,0)" xlink:href="#B"/><use transform="matrix(0.0654320987654321,0,0,0.0654320987654321,125.36790123456792,0)" xlink:href="#x"/><use transform="matrix(0.0654320987654321,0,0,0.0654320987654321,131.91111111111113,0)" xlink:href="#J"/><use transform="matrix(0.0654320987654321,0,0,0.0654320987654321,137.08024691358025,0)" xlink:href="#R"/><use transform="matrix(0.0654320987654321,0,0,0.0654320987654321,150.16666666666666,0)" xlink:href="#A"/></g><path d="M63-220v92h138v28H63V0H30v-248h175v28H63" id="T"/><g id="k"><use transform="matrix(0.0654320987654321,0,0,0.0654320987654321,0,0)" xlink:href="#T"/><use transform="matrix(0.0654320987654321,0,0,0.0654320987654321,14.32962962962963,0)" xlink:href="#I"/><use transform="matrix(0.0654320987654321,0,0,0.0654320987654321,27.416049382716054,0)" xlink:href="#A"/><use transform="matrix(0.0654320987654321,0,0,0.0654320987654321,40.50246913580247,0)" xlink:href="#F"/><use transform="matrix(0.0654320987654321,0,0,0.0654320987654321,52.28024691358025,0)" xlink:href="#x"/><use transform="matrix(0.0654320987654321,0,0,0.0654320987654321,58.82345679012346,0)" xlink:href="#J"/><use transform="matrix(0.0654320987654321,0,0,0.0654320987654321,63.992592592592594,0)" xlink:href="#R"/><use transform="matrix(0.0654320987654321,0,0,0.0654320987654321,77.07901234567902,0)" xlink:href="#A"/><use transform="matrix(0.0654320987654321,0,0,0.0654320987654321,90.16543209876544,0)" xlink:href="#B"/><use transform="matrix(0.0654320987654321,0,0,0.0654320987654321,103.25185185185185,0)" xlink:href="#C"/></g><g id="l"><use transform="matrix(0.0654320987654321,0,0,0.0654320987654321,0,0)" xlink:href="#G"/><use transform="matrix(0.0654320987654321,0,0,0.0654320987654321,16.946913580246914,0)" xlink:href="#y"/><use transform="matrix(0.0654320987654321,0,0,0.0654320987654321,30.033333333333335,0)" xlink:href="#H"/><use transform="matrix(0.0654320987654321,0,0,0.0654320987654321,43.119753086419756,0)" xlink:href="#I"/><use transform="matrix(0.0654320987654321,0,0,0.0654320987654321,56.20617283950618,0)" xlink:href="#J"/><use transform="matrix(0.0654320987654321,0,0,0.0654320987654321,61.375308641975316,0)" xlink:href="#z"/><use transform="matrix(0.0654320987654321,0,0,0.0654320987654321,69.16172839506174,0)" xlink:href="#y"/><use transform="matrix(0.0654320987654321,0,0,0.0654320987654321,82.24814814814816,0)" xlink:href="#K"/><use transform="matrix(0.0654320987654321,0,0,0.0654320987654321,101.81234567901237,0)" xlink:href="#y"/><use transform="matrix(0.0654320987654321,0,0,0.0654320987654321,114.89876543209878,0)" xlink:href="#A"/><use transform="matrix(0.0654320987654321,0,0,0.0654320987654321,127.9851851851852,0)" xlink:href="#x"/></g><path d="M158-156l-14 65h45v19h-49L124 0h-19l15-72H56L41 0H22l15-72H2v-19h39l14-65H11v-19h48l15-71h20l-16 71h64l16-71h19l-16 71h37v19h-40zm-83 0L61-91h63l14-65H75" id="U"/><path d="M27 0v-27h64v-190l-56 39v-29l58-41h29v221h61V0H27" id="V"/><g id="m"><use transform="matrix(0.0654320987654321,0,0,0.0654320987654321,0,0)" xlink:href="#U"/><use transform="matrix(0.0654320987654321,0,0,0.0654320987654321,13.086419753086421,0)" xlink:href="#V"/></g><path d="M101-251c82-7 93 87 43 132L82-64C71-53 59-42 53-27h129V0H18c2-99 128-94 128-182 0-28-16-43-45-43s-46 15-49 41l-32-3c6-41 34-60 81-64" id="W"/><g id="n"><use transform="matrix(0.0654320987654321,0,0,0.0654320987654321,0,0)" xlink:href="#U"/><use transform="matrix(0.0654320987654321,0,0,0.0654320987654321,13.086419753086421,0)" xlink:href="#W"/></g><path d="M277 0v-38h34V0h-34zM163 0v-38h34V0h-34zM49 0v-38h34V0H49" id="X"/><path d="M33 0v-38h34V0H33" id="Y"/><g id="o"><use transform="matrix(0.0654320987654321,0,0,0.0654320987654321,0,0)" xlink:href="#X"/><use transform="matrix(0.0654320987654321,0,0,0.0654320987654321,23.555555555555557,0)" xlink:href="#Y"/></g><path d="M30-248c87 1 191-15 191 75 0 78-77 80-158 76V0H30v-248zm33 125c57 0 124 11 124-50 0-59-68-47-124-48v98" id="Z"/><g id="p"><use transform="matrix(0.0654320987654321,0,0,0.0654320987654321,0,0)" xlink:href="#Z"/><use transform="matrix(0.0654320987654321,0,0,0.0654320987654321,15.703703703703704,0)" xlink:href="#y"/><use transform="matrix(0.0654320987654321,0,0,0.0654320987654321,28.790123456790127,0)" xlink:href="#z"/><use transform="matrix(0.0654320987654321,0,0,0.0654320987654321,36.57654320987655,0)" xlink:href="#E"/><use transform="matrix(0.0654320987654321,0,0,0.0654320987654321,43.119753086419756,0)" xlink:href="#R"/><use transform="matrix(0.0654320987654321,0,0,0.0654320987654321,56.20617283950618,0)" xlink:href="#z"/><use transform="matrix(0.0654320987654321,0,0,0.0654320987654321,63.9925925925926,0)" xlink:href="#K"/><use transform="matrix(0.0654320987654321,0,0,0.0654320987654321,83.5567901234568,0)" xlink:href="#B"/><use transform="matrix(0.0654320987654321,0,0,0.0654320987654321,96.64320987654322,0)" xlink:href="#A"/><use transform="matrix(0.0654320987654321,0,0,0.0654320987654321,109.72962962962964,0)" xlink:href="#F"/><use transform="matrix(0.0654320987654321,0,0,0.0654320987654321,121.50740740740741,0)" xlink:href="#y"/></g><path d="M30-248c118-7 216 8 213 122C240-48 200 0 122 0H30v-248zM63-27c89 8 146-16 146-99s-60-101-146-95v194" id="aa"/><path d="M177-190C167-65 218 103 67 71c-23-6-38-20-44-43l32-5c15 47 100 32 89-28v-30C133-14 115 1 83 1 29 1 15-40 15-95c0-56 16-97 71-98 29-1 48 16 59 35 1-10 0-23 2-32h30zM94-22c36 0 50-32 50-73 0-42-14-75-50-75-39 0-46 34-46 75s6 73 46 73" id="ab"/><g id="q"><use transform="matrix(0.0654320987654321,0,0,0.0654320987654321,0,0)" xlink:href="#aa"/><use transform="matrix(0.0654320987654321,0,0,0.0654320987654321,16.946913580246914,0)" xlink:href="#y"/><use transform="matrix(0.0654320987654321,0,0,0.0654320987654321,30.033333333333335,0)" xlink:href="#L"/><use transform="matrix(0.0654320987654321,0,0,0.0654320987654321,41.81111111111112,0)" xlink:href="#J"/><use transform="matrix(0.0654320987654321,0,0,0.0654320987654321,46.98024691358025,0)" xlink:href="#ab"/><use transform="matrix(0.0654320987654321,0,0,0.0654320987654321,60.06666666666668,0)" xlink:href="#A"/></g><g id="r"><use transform="matrix(0.0654320987654321,0,0,0.0654320987654321,0,0)" xlink:href="#S"/><use transform="matrix(0.0654320987654321,0,0,0.0654320987654321,16.946913580246914,0)" xlink:href="#R"/><use transform="matrix(0.0654320987654321,0,0,0.0654320987654321,30.033333333333335,0)" xlink:href="#A"/><use transform="matrix(0.0654320987654321,0,0,0.0654320987654321,43.119753086419756,0)" xlink:href="#L"/><use transform="matrix(0.0654320987654321,0,0,0.0654320987654321,54.897530864197535,0)" xlink:href="#x"/><use transform="matrix(0.0654320987654321,0,0,0.0654320987654321,61.44074074074074,0)" xlink:href="#z"/><use transform="matrix(0.0654320987654321,0,0,0.0654320987654321,69.22716049382717,0)" xlink:href="#B"/><use transform="matrix(0.0654320987654321,0,0,0.0654320987654321,82.31358024691359,0)" xlink:href="#J"/><use transform="matrix(0.0654320987654321,0,0,0.0654320987654321,87.48271604938273,0)" xlink:href="#A"/><use transform="matrix(0.0654320987654321,0,0,0.0654320987654321,100.56913580246915,0)" xlink:href="#x"/><use transform="matrix(0.0654320987654321,0,0,0.0654320987654321,107.11234567901236,0)" xlink:href="#L"/></g><path d="M140-251c81 0 123 46 123 126C263-46 219 4 140 4 59 4 17-45 17-125s42-126 123-126zm0 227c63 0 89-41 89-101s-29-99-89-99c-61 0-89 39-89 99S79-25 140-24" id="ac"/><path d="M106-169C34-169 62-67 57 0H25v-261h32l-1 103c12-21 28-36 61-36 89 0 53 116 60 194h-32v-121c2-32-8-49-39-48" id="ad"/><g id="s"><use transform="matrix(0.0654320987654321,0,0,0.0654320987654321,0,0)" xlink:href="#ac"/><use transform="matrix(0.0654320987654321,0,0,0.0654320987654321,18.320987654320987,0)" xlink:href="#x"/><use transform="matrix(0.0654320987654321,0,0,0.0654320987654321,24.864197530864196,0)" xlink:href="#ad"/><use transform="matrix(0.0654320987654321,0,0,0.0654320987654321,37.95061728395062,0)" xlink:href="#y"/><use transform="matrix(0.0654320987654321,0,0,0.0654320987654321,51.03703703703704,0)" xlink:href="#z"/></g><g id="t"><use transform="matrix(0.0654320987654321,0,0,0.0654320987654321,0,0)" xlink:href="#G"/><use transform="matrix(0.0654320987654321,0,0,0.0654320987654321,16.946913580246914,0)" xlink:href="#y"/><use transform="matrix(0.0654320987654321,0,0,0.0654320987654321,30.033333333333335,0)" xlink:href="#H"/><use transform="matrix(0.0654320987654321,0,0,0.0654320987654321,43.119753086419756,0)" xlink:href="#I"/><use transform="matrix(0.0654320987654321,0,0,0.0654320987654321,56.20617283950618,0)" xlink:href="#J"/><use transform="matrix(0.0654320987654321,0,0,0.0654320987654321,61.375308641975316,0)" xlink:href="#z"/><use transform="matrix(0.0654320987654321,0,0,0.0654320987654321,69.16172839506174,0)" xlink:href="#y"/><use transform="matrix(0.0654320987654321,0,0,0.0654320987654321,82.24814814814816,0)" xlink:href="#K"/><use transform="matrix(0.0654320987654321,0,0,0.0654320987654321,101.81234567901237,0)" xlink:href="#y"/><use transform="matrix(0.0654320987654321,0,0,0.0654320987654321,114.89876543209878,0)" xlink:href="#A"/><use transform="matrix(0.0654320987654321,0,0,0.0654320987654321,127.9851851851852,0)" xlink:href="#x"/><use transform="matrix(0.0654320987654321,0,0,0.0654320987654321,134.52839506172842,0)" xlink:href="#L"/></g></defs></g></svg>